<?xml version="1.0" encoding="UTF-8"?>
<!DOCTYPE svg PUBLIC "-//W3C//DTD SVG 1.1//EN" "http://www.w3.org/Graphics/SVG/1.1/DTD/svg11.dtd">
<!-- Creator: CorelDRAW X7 -->
<svg xmlns="http://www.w3.org/2000/svg" xml:space="preserve" width="306.655mm" height="306.654mm" version="1.1" style="shape-rendering:geometricPrecision; text-rendering:geometricPrecision; image-rendering:optimizeQuality; fill-rule:evenodd; clip-rule:evenodd"
viewBox="0 0 4961 4961"
 xmlns:xlink="http://www.w3.org/1999/xlink">
 <defs>
  <style type="text/css">
   <![CDATA[
    .fil0 {fill:#4DFFFF;fill-rule:nonzero}
   ]]>
  </style>
 </defs>
 <g id="Слой_x0020_1">
  <metadata id="CorelCorpID_0Corel-Layer"/>
  <g id="_1884804729088">
   <g>
    <g>
     <path class="fil0" d="M2480 3919c-793,0 -1438,-646 -1438,-1439 0,-793 645,-1438 1438,-1438 793,0 1439,645 1439,1438 0,793 -646,1439 -1439,1439zm0 -2861l0 0c-784,0 -1422,638 -1422,1422 0,785 638,1423 1422,1423 785,0 1423,-638 1423,-1423 0,-784 -638,-1422 -1423,-1422z"/>
    </g>
    <g>
     <path class="fil0" d="M2480 4101c-894,0 -1621,-727 -1621,-1621 0,-894 727,-1621 1621,-1621 894,0 1621,727 1621,1621 0,894 -727,1621 -1621,1621zm0 -3226l0 0c-885,0 -1605,720 -1605,1605 0,886 720,1606 1605,1606 886,0 1606,-720 1606,-1606 0,-885 -720,-1605 -1606,-1605z"/>
    </g>
    <g>
     <path class="fil0" d="M2480 4192l0 -94c892,0 1618,-726 1618,-1618l94 0c0,944 -768,1712 -1712,1712z"/>
    </g>
   </g>
   <g>
    <g>
     <path class="fil0" d="M2473 4304c-1009,0 -1831,-821 -1831,-1831 0,-1009 822,-1831 1831,-1831 1010,0 1831,822 1831,1831 0,1010 -821,1831 -1831,1831zm0 -3646l0 0c-1001,0 -1815,814 -1815,1815 0,1001 814,1816 1815,1816 1001,0 1816,-815 1816,-1816 0,-1001 -815,-1815 -1816,-1815z"/>
    </g>
    <g>
     <path class="fil0" d="M2473 4541c-1140,0 -2068,-927 -2068,-2068 0,-1140 928,-2068 2068,-2068 1141,0 2068,928 2068,2068 0,1141 -927,2068 -2068,2068zm0 -4113l0 0c-1127,0 -2045,918 -2045,2045 0,1128 918,2045 2045,2045 1128,0 2045,-917 2045,-2045 0,-1127 -917,-2045 -2045,-2045z"/>
    </g>
    <g>
     <path class="fil0" d="M2473 4642l0 -93c1145,0 2076,-931 2076,-2076l93 0c0,1196 -973,2169 -2169,2169z"/>
    </g>
   </g>
   <g>
    <g>
     <polygon class="fil0" points="3730,1242 3719,1231 4088,861 4099,872 "/>
    </g>
    <g>
     <polygon class="fil0" points="872,4099 861,4088 1231,3719 1242,3730 "/>
    </g>
   </g>
   <g>
    <g>
     <polygon class="fil0" points="2488,1177 2473,1177 2473,0 2488,0 "/>
    </g>
    <g>
     <polygon class="fil0" points="2488,4961 2473,4961 2473,3784 2488,3784 "/>
    </g>
   </g>
   <g>
    <g>
     <polygon class="fil0" points="4961,2488 3784,2488 3784,2473 4961,2473 "/>
    </g>
    <g>
     <polygon class="fil0" points="1177,2488 0,2488 0,2473 1177,2473 "/>
    </g>
   </g>
   <g>
    <polygon class="fil0" points="867,2488 473,2488 473,2473 867,2473 "/>
   </g>
   <g>
    <polygon class="fil0" points="4487,2488 4094,2488 4094,2473 4487,2473 "/>
   </g>
   <g>
    <path class="fil0" d="M607 3622l-4 -7c-207,-341 -317,-734 -317,-1135 0,-401 110,-793 317,-1135l4 -6 166 100 -4 7c-188,311 -288,669 -288,1034 0,366 100,723 288,1035l4 6 -166 101zm5 -2262l0 0c-203,337 -310,725 -310,1120 0,396 107,783 310,1121l140 -85c-188,-312 -287,-670 -287,-1036 0,-365 99,-723 287,-1035l-140 -85z"/>
   </g>
   <g>
    <path class="fil0" d="M4354 3622l-167 -101 5 -6c188,-311 288,-669 288,-1035 0,-365 -100,-723 -288,-1034l-5 -7 167 -100 4 6c207,342 316,734 316,1135 0,401 -109,794 -316,1135l-4 7zm-145 -106l0 0 140 85c203,-338 310,-725 310,-1121 0,-395 -107,-783 -310,-1120l-140 85c187,312 286,670 286,1035 0,366 -99,724 -286,1036z"/>
   </g>
   <g>
    <path class="fil0" d="M854 2480l-156 0c0,-982 800,-1782 1782,-1782l0 156c-897,0 -1626,729 -1626,1626z"/>
   </g>
   <g>
    <path class="fil0" d="M2480 4293c-208,0 -412,-35 -607,-104l31 -88c185,66 379,99 576,99 261,0 512,-57 745,-169l40 84c-246,118 -510,178 -785,178z"/>
   </g>
   <g>
    <path class="fil0" d="M3619 1333c-129,-128 -278,-233 -441,-311l27 -57c170,82 324,191 458,324l-44 44z"/>
   </g>
   <g>
    <path class="fil0" d="M4774 2474l-93 0c0,-310 -64,-609 -188,-890l85 -38c130,293 196,605 196,928z"/>
   </g>
   <g>
    <path class="fil0" d="M252 2989c-39,-167 -58,-340 -58,-514 0,-270 46,-533 138,-784l87 32c-87,240 -132,493 -132,752 0,167 19,333 56,493l-91 21z"/>
   </g>
  </g>
 </g>
</svg>
