<?xml version="1.0" encoding="UTF-8"?>
<!DOCTYPE svg PUBLIC "-//W3C//DTD SVG 1.1//EN" "http://www.w3.org/Graphics/SVG/1.1/DTD/svg11.dtd">
<!-- Creator: CorelDRAW X7 -->
<svg xmlns="http://www.w3.org/2000/svg" xml:space="preserve" width="1061.28mm" height="999.717mm" version="1.1" style="shape-rendering:geometricPrecision; text-rendering:geometricPrecision; image-rendering:optimizeQuality; fill-rule:evenodd; clip-rule:evenodd"
viewBox="0 0 34617 32609"
 xmlns:xlink="http://www.w3.org/1999/xlink">
 <defs>
  <style type="text/css">
   <![CDATA[
    .fil1 {fill:#4DFFFF;fill-rule:nonzero}
    .fil6 {fill:#4DFFFF;fill-rule:nonzero;fill-opacity:0.211765}
    .fil5 {fill:#4DFFFF;fill-rule:nonzero;fill-opacity:0.270588}
    .fil2 {fill:#4DFFFF;fill-rule:nonzero;fill-opacity:0.301961}
    .fil0 {fill:#4DFFFF;fill-rule:nonzero;fill-opacity:0.329412}
    .fil3 {fill:#4DFFFF;fill-rule:nonzero;fill-opacity:0.400000}
    .fil4 {fill:#4DFFFF;fill-rule:nonzero;fill-opacity:0.501961}
   ]]>
  </style>
 </defs>
 <g id="Слой_x0020_1">
  <metadata id="CorelCorpID_0Corel-Layer"/>
  <g id="_1884961451008">
   <path class="fil0" d="M16682 686l48 2388c-33,-1 -66,-2 -99,-2 -33,0 -66,1 -99,2l48 -2388 102 0zm438 2396l155 -2383 103 5c-21,795 -41,1591 -60,2386 -66,-3 -132,-5 -198,-8zm588 35l261 -2373 103 9 -167 2381c-66,-6 -131,-12 -197,-17zm544 55c124,-802 257,-1592 408,-2353l103 14 -274 2371c-79,-11 -158,-22 -237,-32zm623 93l473 -2339 101 18 -379 2356c-65,-12 -130,-24 -195,-35zm578 113l577 -2315 100 23c-160,779 -321,1557 -482,2336 -65,-15 -130,-30 -195,-44zm538 130c229,-772 465,-1536 714,-2277l99 27 -588 2311c-75,-22 -150,-41 -225,-61zm599 173l781 -2252 98 31 -691 2282c-63,-20 -125,-41 -188,-61zm521 177c298,-751 602,-1491 918,-2202l96 36 -793 2249c-74,-28 -147,-56 -221,-83zm583 228l981 -2173 95 40c-297,738 -595,1475 -893,2212 -61,-26 -121,-53 -183,-79zm538 240l1077 -2128 93 45c-331,723 -661,1446 -992,2169 -59,-29 -118,-57 -178,-86zm526 264l1172 -2078 91 49 -1089 2123c-58,-32 -116,-63 -174,-94zm514 287l1264 -2024 89 53c-395,691 -789,1381 -1184,2072 -56,-34 -113,-68 -169,-101zm500 310l1354 -1966 86 57 -1275 2018c-54,-37 -110,-73 -165,-109zm486 331l1441 -1902 84 60 -1365 1959c-53,-39 -106,-78 -160,-117zm451 338c512,-616 1026,-1226 1545,-1821l81 64 -1452 1897c-57,-47 -115,-94 -174,-140zm474 390l1606 -1767 78 68 -1535 1829c-50,-44 -99,-87 -149,-130zm435 392c562,-565 1124,-1128 1686,-1691l75 71 -1616 1759c-48,-47 -96,-93 -145,-139zm421 415l1759 -1616 71 74c-563,563 -1127,1125 -1691,1687 -46,-49 -92,-97 -139,-145zm400 431l1830 -1535 68 77 -1767 1607c-43,-50 -87,-100 -131,-149zm381 448l1896 -1451 65 81c-612,508 -1224,1017 -1836,1525 -41,-52 -83,-103 -125,-155zm361 466l1958 -1365 61 84 -1903 1441c-38,-54 -77,-107 -116,-160zm339 480l2018 -1275 56 86 -1965 1355c-36,-56 -72,-111 -109,-166zm312 487c691,-395 1384,-788 2078,-1174l52 89 -2023 1264c-36,-60 -71,-120 -107,-179zm300 518l2123 -1088 48 91 -2077 1172c-31,-59 -62,-117 -94,-175zm266 512c724,-332 1449,-660 2175,-981l44 93 -2128 1077c-30,-63 -60,-126 -91,-189zm251 540c737,-299 1475,-595 2213,-889l41 95 -2174 980c-26,-62 -53,-124 -80,-186zm225 549l2249 -793 37 96c-739,294 -1477,589 -2215,882 -23,-62 -47,-123 -71,-185zm199 554l2282 -692 32 98 -2253 782c-20,-63 -40,-126 -61,-188zm174 562l2311 -588 27 99c-762,227 -1524,454 -2286,680 -17,-63 -34,-127 -52,-191zm146 563c779,-162 1558,-321 2337,-477l23 100 -2315 577c-15,-67 -30,-134 -45,-200zm123 583l2356 -379 18 101 -2339 473c-11,-65 -23,-130 -35,-195zm96 580l2371 -273 13 102c-785,124 -1571,247 -2357,369 -8,-66 -18,-132 -27,-198zm69 585l2382 -167 9 103 -2373 261c-5,-66 -11,-132 -18,-197zm43 561c801,-20 1599,-34 2388,-34l4 103 -2383 154c-3,-74 -5,-149 -9,-223zm18 614l2388 47 0 103 -2388 48c0,-33 1,-66 1,-99 0,-33 -1,-66 -1,-99zm-9 588l2383 155 -4 102c-796,-20 -1591,-40 -2387,-60 4,-65 6,-131 8,-197zm-34 587l2373 262 -9 102 -2382 -166c7,-66 13,-132 18,-198zm-55 544c801,124 1592,258 2352,409l-13 102 -2371 -273c11,-79 22,-158 32,-238zm-93 624l2339 473 -18 101 -2356 -379c12,-65 24,-130 35,-195zm-113 577l2315 577 -23 101c-779,-160 -1558,-321 -2336,-482 15,-65 30,-130 44,-196zm-130 539c772,229 1536,465 2277,713l-27 100 -2311 -589c21,-74 41,-149 61,-224zm-174 598l2253 782 -32 98 -2282 -692c21,-62 42,-125 61,-188zm-176 521c750,299 1490,603 2202,918l-37 97 -2249 -794c29,-73 57,-147 84,-221zm-229 584l2174 981 -41 95c-737,-298 -1474,-595 -2211,-893 26,-61 53,-122 78,-183zm-240 538l2128 1077 -44 93c-724,-331 -1447,-661 -2170,-992 29,-59 58,-119 86,-178zm-263 526l2077 1172 -48 90 -2123 -1088c32,-58 63,-116 94,-174zm-287 513l2023 1265 -52 88c-691,-394 -1381,-789 -2072,-1183 34,-56 67,-113 101,-170zm-310 501l1965 1354 -56 86 -2018 -1275c37,-55 73,-110 109,-165zm-332 486l1903 1441 -61 83 -1958 -1364c39,-53 78,-106 116,-160zm-337 451c616,512 1226,1026 1821,1545l-65 80 -1896 -1451c47,-58 94,-115 140,-174zm-390 474l1767 1606 -68 78 -1830 -1535c44,-50 88,-99 131,-149zm-392 435c564,561 1128,1123 1691,1686l-71 75 -1759 -1616c47,-48 93,-96 139,-145zm-415 421l1616 1759 -75 71c-562,-563 -1124,-1127 -1686,-1691 49,-46 97,-93 145,-139zm-431 400l1535 1830 -78 67 -1606 -1766c50,-43 99,-87 149,-131zm-449 381l1452 1896 -81 64c-508,-612 -1017,-1224 -1525,-1836 52,-41 103,-82 154,-124zm-465 360l1365 1959 -84 61 -1441 -1903c54,-38 107,-77 160,-117zm-481 340l1275 2017 -86 57 -1354 -1965c55,-36 111,-72 165,-109zm-486 312c395,691 787,1384 1174,2077l-89 53 -1264 -2024c60,-35 120,-70 179,-106zm-519 300l1089 2123 -91 48 -1172 -2078c58,-31 116,-62 174,-93zm-511 266c331,724 659,1449 981,2174l-93 45 -1077 -2128c63,-30 126,-60 189,-91zm-540 251c298,737 595,1475 889,2213l-95 41 -981 -2174c63,-26 125,-53 187,-80zm-549 225l793 2249 -96 36c-295,-738 -589,-1476 -883,-2214 62,-23 124,-47 186,-71zm-554 199l691 2282 -98 32 -781 -2253c63,-20 125,-40 188,-61zm-562 174l588 2310 -99 28c-227,-762 -454,-1524 -681,-2286 64,-17 128,-34 192,-52zm-563 145c161,779 321,1559 477,2338l-100 22 -577 -2314c66,-15 133,-30 200,-46zm-583 124l379 2355 -101 19 -473 -2339c65,-11 130,-23 195,-35zm-581 95l274 2371 -103 14c-123,-786 -246,-1571 -368,-2357 66,-9 131,-18 197,-28zm-584 70l167 2382 -103 9 -261 -2373c66,-6 131,-11 197,-18zm-561 43c20,801 34,1599 34,2388l-103 4 -155 -2383c75,-3 149,-5 224,-9zm-614 18l-48 2388 -102 0 -48 -2388c33,0 66,1 99,1 33,0 66,-1 99,-1zm-588 -9l-155 2383 -103 -4c20,-796 41,-1591 60,-2387 66,4 132,6 198,8zm-588 -34l-261 2373 -103 -9 167 -2382c66,7 131,12 197,18zm-544 -56c-124,802 -257,1593 -409,2353l-102 -14 274 -2371c79,12 158,22 237,32zm-623 -92l-473 2339 -101 -19 379 -2355c65,12 130,24 195,35zm-578 -113l-577 2314 -100 -22c160,-779 321,-1558 482,-2336 65,15 130,29 195,44zm-538 -130c-229,772 -465,1536 -714,2277l-99 -28 588 -2310c75,21 150,41 225,61zm-599 -174l-781 2253 -98 -32 691 -2282c63,21 125,41 188,61zm-521 -177c-298,751 -603,1491 -918,2202l-96 -36 793 -2249c74,28 147,57 221,83zm-583 -228l-981 2174 -95 -41c297,-737 595,-1474 893,-2212 61,27 121,53 183,79zm-538 -240l-1077 2128 -93 -45c330,-723 661,-1446 992,-2169 59,29 118,58 178,86zm-526 -264l-1172 2078 -91 -48 1089 -2123c57,31 116,62 174,93zm-514 -287l-1264 2024 -89 -53c395,-690 789,-1381 1183,-2071 57,34 114,67 170,100zm-500 -309l-1354 1965 -86 -57 1275 -2017c54,37 109,73 165,109zm-486 -332l-1441 1903 -84 -61 1365 -1959c53,40 106,79 160,117zm-451 -338c-512,617 -1026,1227 -1545,1821l-81 -64 1452 -1896c57,47 115,94 174,139zm-474 -389l-1607 1766 -77 -67 1535 -1830c49,44 99,88 149,131zm-435 -392c-562,564 -1124,1128 -1686,1691l-75 -71 1616 -1759c48,46 96,93 145,139zm-421 -415l-1759 1616 -71 -75c563,-563 1127,-1125 1691,-1686 46,49 92,97 139,145zm-400 -431l-1830 1535 -68 -78 1767 -1606c43,50 87,99 131,149zm-381 -449l-1896 1451 -65 -80c612,-509 1224,-1017 1836,-1525 41,51 83,103 125,154zm-361 -465l-1959 1364 -60 -83 1903 -1441c38,54 77,107 116,160zm-339 -481l-2018 1275 -56 -86 1965 -1354c36,55 72,110 109,165zm-312 -486c-691,395 -1384,787 -2078,1173l-52 -88 2023 -1265c36,60 71,121 107,180zm-300 -519l-2123 1088 -49 -90 2078 -1172c31,58 62,116 94,174zm-266 -511c-724,331 -1449,659 -2175,981l-44 -93 2128 -1077c30,63 60,126 91,189zm-251 -540c-737,298 -1475,595 -2214,889l-40 -95 2174 -981c26,63 53,125 80,187zm-226 -550l-2248 794 -37 -97c738,-294 1477,-588 2215,-882 23,62 47,124 70,185zm-198 -554l-2282 692 -32 -98 2253 -782c19,63 40,126 61,188zm-174 -562l-2311 589 -27 -100c762,-227 1524,-453 2286,-680 17,64 34,128 52,191zm-146 -562c-779,161 -1558,321 -2337,477l-23 -101 2315 -577c15,67 30,134 45,201zm-123 -583l-2356 379 -18 -101 2339 -473c11,65 23,130 35,195zm-96 -581l-2371 273 -13 -102c785,-123 1571,-246 2357,-369 8,66 18,132 27,198zm-70 -584l-2381 166 -9 -102 2373 -262c5,66 11,132 17,198zm-42 -562c-801,21 -1599,34 -2388,34l-4 -102 2383 -155c3,75 5,149 9,223zm-18 -613l-2388 -48 0 -103 2388 -47c0,33 -1,66 -1,99 0,33 1,66 1,99zm9 -589l-2383 -154 4 -103c795,20 1591,40 2387,60 -4,66 -6,132 -8,197zm34 -587l-2373 -261 9 -103 2381 167c-6,65 -12,131 -17,197zm55 -544c-801,-124 -1592,-257 -2352,-409l13 -102 2371 273c-11,80 -22,159 -32,238zm93 -623l-2339 -473 18 -101 2356 379c-12,65 -24,130 -35,195zm113 -578l-2315 -577 23 -100c779,159 1557,320 2336,482 -15,65 -30,130 -44,195zm130 -538c-772,-229 -1536,-465 -2277,-714l27 -99 2311 588c-21,75 -41,150 -61,225zm174 -599l-2253 -782 32 -98 2282 692c-21,62 -42,125 -61,188zm176 -521c-751,-298 -1490,-603 -2202,-918l37 -96 2248 793c-28,73 -56,147 -83,221zm229 -584l-2174 -980 40 -95c738,297 1475,595 2212,893 -26,60 -53,121 -78,182zm240 -537l-2128 -1077 44 -93c723,330 1447,661 2170,992 -29,59 -58,118 -86,178zm263 -526l-2078 -1172 49 -91 2123 1088c-32,58 -63,116 -94,175zm287 -514l-2023 -1264 52 -89c691,395 1381,789 2072,1183 -34,56 -67,113 -101,170zm310 -500l-1965 -1355 56 -86 2018 1275c-37,55 -73,110 -109,166zm332 -486l-1903 -1441 60 -84 1959 1365c-39,53 -78,106 -116,160zm337 -452c-616,-511 -1226,-1026 -1821,-1544l65 -81 1896 1451c-47,58 -94,116 -140,174zm390 -473l-1767 -1607 68 -77 1830 1535c-44,49 -88,99 -131,149zm392 -435c-564,-562 -1128,-1124 -1691,-1687l71 -74 1759 1616c-47,48 -93,96 -139,145zm415 -421l-1616 -1759 75 -71c562,563 1124,1126 1686,1691 -49,46 -97,92 -145,139zm431 -401l-1535 -1829 77 -68 1607 1767c-50,43 -100,86 -149,130zm449 -380l-1452 -1897 81 -64c508,612 1017,1224 1525,1836 -52,41 -103,83 -154,125zm465 -361l-1365 -1959 84 -60 1441 1902c-54,39 -107,78 -160,117zm481 -339l-1275 -2018 86 -57 1354 1966c-55,36 -111,72 -165,109zm486 -312c-395,-692 -787,-1384 -1174,-2078l89 -53 1264 2024c-60,35 -120,71 -179,107zm519 -300l-1089 -2123 91 -49 1172 2078c-58,31 -117,62 -174,94zm511 -266c-331,-724 -660,-1449 -981,-2175l93 -45 1077 2128c-63,30 -126,61 -189,92zm540 -251c-298,-737 -595,-1475 -889,-2214l95 -40 981 2173c-63,27 -125,54 -187,81zm549 -226l-793 -2249 96 -36c295,738 589,1476 883,2215 -62,23 -124,47 -186,70zm554 -199l-691 -2282 98 -31 781 2252c-63,20 -125,41 -188,61zm562 -173l-588 -2311 99 -27c227,762 454,1524 681,2286 -64,17 -128,34 -192,52zm563 -146c-162,-779 -321,-1558 -477,-2337l100 -23 577 2315c-67,15 -133,29 -200,45zm583 -123l-379 -2356 101 -18 473 2339c-65,11 -130,23 -195,35zm581 -96l-274 -2371 102 -14c124,786 247,1572 369,2358 -66,8 -132,18 -197,27zm584 -70l-167 -2381 103 -9 261 2373c-66,5 -131,11 -197,17zm561 -42c-20,-801 -34,-1599 -34,-2388l103 -5 155 2383c-75,3 -149,6 -224,10z"/>
   <path class="fil1" d="M16631 3147c-14,0 -27,2 -38,7 -12,-5 -24,-7 -37,-7l-94 1 -84 1 -31 1c-100,3 -138,132 -55,189 19,12 38,18 60,17l30 0 83 -2 92 -1c14,0 26,-2 37,-7 12,5 24,7 37,7l83 0 83 1 39 1c94,1 141,-115 72,-179 -19,-18 -43,-27 -69,-28l-40 0 -84 -1 -84 0zm-893 237c98,-8 131,-134 50,-189 -20,-13 -41,-19 -65,-17l-95 7 -83 6 -30 3c-101,9 -129,144 -41,193 19,10 39,14 60,13l28 -3 82 -6 94 -7zm-816 82c32,-4 60,-23 76,-51 42,-75 -18,-164 -103,-154l-87 12 -81 12 -39 5c-96,16 -120,143 -36,192 21,12 44,16 67,13l37 -6 80 -11 86 -12zm-808 134c42,-9 74,-42 81,-85 12,-71 -52,-132 -123,-117l-69 13 -79 17 -55 12c-94,21 -112,147 -26,192 22,11 46,15 70,10l54 -12 78 -16 69 -14zm-799 186c42,-12 72,-48 76,-91 6,-71 -61,-128 -130,-109l-44 12 -78 21 -79 23c-51,14 -82,65 -73,117 11,60 72,98 131,81l76 -21 77 -21 44 -12zm-785 237c87,-30 95,-149 13,-191 -25,-12 -53,-14 -79,-5l-90 31 -76 26 -31 11c-92,33 -91,164 2,195 22,8 46,7 67,0l31 -11 74 -26 89 -30zm-768 286c40,-16 65,-56 64,-98 -2,-73 -76,-120 -143,-93l-54 23 -73 30 -65 28c-35,15 -58,47 -62,85 -6,79 72,135 144,105l63 -27 72 -31 54 -22zm-748 336c73,-37 78,-138 9,-181 -31,-19 -67,-20 -100,-5l-87 43 -70 35 -30 15c-90,47 -66,181 35,195 21,2 41,-2 60,-11l28 -14 69 -35 86 -42zm-725 382c34,-19 54,-56 52,-95 -5,-77 -88,-122 -155,-84l-45 26 -68 40 -67 39c-31,18 -51,53 -50,90 1,79 87,128 156,87l65 -38 67 -39 45 -26zm2249 23322c-73,-23 -145,37 -135,112 6,40 31,71 70,85l52 17 76 25 69 22c94,29 171,-74 117,-156 -13,-19 -32,-33 -54,-41l-68 -21 -75 -25 -52 -18zm785 237c-98,-25 -169,87 -106,165 14,18 31,29 53,35l25 6 78 20 78 20 21 6c93,22 163,-82 109,-160 -15,-21 -35,-35 -60,-41l-97 -25 -77 -20 -24 -6zm799 185c-98,-19 -164,96 -96,171 15,17 33,27 55,32l82 16 80 15 43 8c22,3 44,0 64,-9 89,-45 71,-176 -27,-195l-42 -8 -79 -14 -80 -16zm808 133c-98,-12 -156,108 -85,177 16,16 36,26 59,28l66 9 82 10 58 7c98,11 154,-108 84,-177 -17,-16 -37,-25 -60,-28l-57 -7 -80 -10 -67 -9zm816 82c-89,-5 -143,96 -88,167 19,23 45,38 75,39l61 4 83 5 63 4c98,4 147,-116 74,-181 -18,-15 -40,-24 -63,-26l-62 -3 -82 -5 -61 -4zm819 30c-97,0 -140,122 -66,183 19,15 41,24 66,24l66 0 84 0 58 -1c45,-1 82,-29 97,-71 22,-67 -29,-137 -100,-136l-56 1 -83 0 -66 0zm820 -22c-43,3 -79,31 -92,72 -22,69 31,139 105,135l70 -5 83 -5 54 -4c98,-8 131,-135 49,-190 -19,-12 -42,-18 -65,-16l-52 4 -82 5 -70 4zm816 -73c-39,5 -72,32 -85,69 -24,73 35,146 111,136l64 -8 82 -10 60 -9c38,-5 69,-30 82,-65 29,-73 -32,-150 -110,-139l-59 8 -81 10 -64 8zm810 -125c-31,6 -57,25 -72,53 -39,77 26,166 111,150l49 -9 80 -16 75 -15c43,-9 75,-42 82,-85 11,-71 -52,-132 -123,-118l-74 15 -79 16 -49 9zm801 -177c-89,22 -106,143 -26,189 24,14 51,18 78,11l25 -7 78 -20 78 -21 20 -5c40,-11 69,-45 75,-85 10,-74 -58,-134 -130,-114l-95 25 -77 20 -26 7zm787 -228c-86,30 -96,145 -17,189 26,13 54,16 82,7l73 -24 76 -25 48 -17c40,-14 68,-51 70,-94 2,-72 -68,-125 -137,-101l-48 16 -74 25 -73 24zm771 -278c-84,33 -86,153 -3,190 25,11 55,11 80,1l39 -15 73 -30 82 -33c37,-16 61,-51 63,-91 2,-76 -74,-129 -144,-100l-79 33 -72 29 -39 16zm752 -328c-38,19 -61,57 -59,100 5,73 82,118 148,87l73 -35 71 -34 44 -22c88,-44 70,-176 -28,-194 -22,-4 -45,-1 -64,9l-43 21 -70 34 -72 34zm729 -375c-87,50 -61,180 38,193 22,3 43,-1 63,-12l32 -18 68 -39 81 -46c79,-46 64,-164 -25,-189 -27,-7 -54,-4 -79,11l-78 45 -68 38 -32 17zm704 -420c-31,19 -49,54 -47,90 2,80 92,127 159,83l57 -37 66 -43 51 -34c79,-52 51,-175 -44,-188 -24,-3 -50,3 -71,17l-49 33 -65 42 -57 37zm675 -465c-83,63 -33,195 71,186 19,-2 36,-8 52,-20l79 -58 63 -48 25 -19c83,-65 29,-197 -77,-184 -18,2 -34,9 -49,20l-24 19 -62 46 -78 58zm644 -507c-77,66 -23,192 78,182 21,-3 40,-10 56,-24l37 -31 59 -50 63 -54c78,-71 15,-199 -89,-179 -18,4 -34,11 -48,23l-60 53 -59 49 -37 31zm611 -546c-71,70 -13,190 87,176 22,-3 41,-12 57,-28l54 -52 56 -54 39 -38c72,-72 9,-192 -90,-176 -22,4 -40,14 -55,29l-38 37 -56 54 -54 52zm576 -585c-67,73 -3,190 95,172 22,-5 41,-16 57,-32l16 -18 53 -58 52 -58 19 -20c65,-75 -1,-190 -100,-170 -21,5 -40,16 -55,32l-17 20 -52 57 -52 57 -16 18zm536 -620c-56,70 -3,173 86,168 30,-2 56,-14 75,-38l33 -40 49 -61 48 -61c26,-34 29,-80 8,-116 -37,-63 -126,-69 -171,-12l-47 60 -48 60 -33 40zm497 -652c-58,83 24,191 119,157 20,-8 37,-20 49,-38l47 -66 45 -64 28 -40c18,-27 22,-59 13,-90 -28,-82 -134,-98 -184,-27l-27 39 -44 64 -46 65zm453 -683c-49,79 26,179 116,154 25,-7 46,-23 60,-46l17 -27 41 -67 51 -84c49,-83 -35,-183 -126,-149 -22,9 -40,23 -52,44l-49 81 -41 66 -17 28zm409 -710c-19,37 -14,80 11,113 47,58 138,49 172,-17l31 -58 36 -69 30 -57c39,-78 -28,-165 -114,-148 -31,7 -55,26 -70,54l-29 55 -36 69 -31 58zm363 -736c-15,36 -11,75 12,106 48,62 144,51 177,-20l9 -22 33 -72 32 -72 10 -25c40,-95 -66,-183 -152,-127 -17,12 -29,26 -37,45l-11 24 -31 71 -32 71 -10 21zm315 -756c-36,101 83,183 165,114 13,-11 23,-26 29,-42l22 -60 28 -74 22 -61c32,-88 -62,-170 -146,-126 -23,12 -40,32 -49,56l-21 60 -27 73 -23 60zm266 -776c-27,87 66,164 147,122 24,-13 43,-35 51,-62l8 -29 24 -77 27 -94c10,-36 1,-73 -26,-100 -56,-57 -151,-32 -173,44l-26 91 -23 76 -9 29zm215 -791c-22,92 83,163 161,108 20,-16 34,-35 40,-60l19 -82 18 -79 10 -43c8,-36 -5,-73 -32,-98 -59,-54 -153,-23 -170,54l-9 42 -18 78 -19 80zm164 -803c-15,98 100,160 173,92 17,-16 27,-35 31,-58l10 -62 13 -81 10 -62c5,-33 -6,-67 -29,-89 -61,-60 -162,-26 -175,57l-10 62 -13 79 -10 62zm112 -812c-4,43 17,82 55,102 65,34 142,-8 150,-81l6 -51 8 -83 7 -73c8,-88 -92,-145 -164,-93 -24,18 -39,44 -42,75l-7 72 -8 81 -5 51zm60 -818c-2,76 73,128 143,99 38,-16 62,-50 64,-91l2 -49 2 -84 3 -75c1,-91 -106,-140 -174,-78 -21,19 -32,45 -33,73l-2 73 -3 83 -2 49zm9 -820c3,101 132,139 189,55 12,-18 17,-38 17,-60l-1 -57 -3 -84 -2 -67c-5,-103 -141,-137 -193,-46 -10,17 -14,35 -13,54l2 66 2 82 2 57zm-43 -818c9,101 143,129 193,40 10,-18 14,-38 12,-59l-5 -57 -7 -82 -7 -68c-11,-102 -146,-127 -194,-37 -10,18 -13,38 -11,58l6 67 8 81 5 57zm-95 -815c15,97 143,121 191,36 12,-21 17,-43 13,-67l-7 -47 -13 -81 -12 -77c-7,-41 -36,-73 -76,-83 -73,-19 -140,42 -128,116l12 77 13 79 7 47zm-147 -806c21,94 147,111 192,25 11,-21 15,-45 10,-69l-6 -29 -18 -79 -22 -96c-9,-38 -38,-68 -76,-77 -75,-17 -143,50 -125,125l22 93 17 78 6 29zm-198 -796c12,44 51,74 96,75 71,1 121,-64 102,-131l-23 -81 -22 -77 -13 -43c-29,-94 -161,-98 -196,-5 -8,21 -9,44 -2,65l13 42 22 76 23 79zm-249 -781c33,92 164,91 195,-2 7,-22 7,-46 -1,-68l-17 -47 -27 -75 -27 -73c-19,-52 -75,-79 -128,-62 -57,18 -86,78 -66,134l27 72 27 74 17 47zm-299 -763c15,35 47,58 85,62 79,6 135,-72 105,-144l-37 -85 -32 -73 -15 -33c-41,-89 -170,-77 -195,17 -5,24 -3,46 7,68l14 32 31 72 37 84zm-347 -743c47,90 180,67 194,-34 3,-21 -1,-41 -10,-60l-23 -45 -37 -70 -36 -70c-44,-83 -168,-68 -191,23 -7,25 -4,51 8,74l36 68 36 69 23 45zm-395 -719c19,32 54,51 91,51 79,-1 128,-88 87,-156l-43 -73 -41 -67 -23 -39c-23,-36 -66,-55 -108,-47 -71,14 -106,94 -68,156l23 37 40 66 42 72zm-439 -692c59,84 189,43 189,-60 0,-20 -6,-39 -18,-57l-21 -30 -44 -65 -54 -76c-24,-34 -64,-49 -105,-41 -73,16 -106,99 -63,161l52 74 44 64 20 30zm-482 -663c56,71 170,41 183,-48 4,-29 -2,-56 -20,-79l-41 -52 -48 -61 -40 -50c-59,-71 -173,-38 -184,53 -2,28 5,54 23,76l39 49 48 61 40 51zm-524 -631c22,25 54,37 87,35 84,-9 124,-108 68,-172l-63 -70 -52 -58 -25 -27c-70,-75 -194,-14 -177,88 3,20 12,37 25,52l24 26 52 57 61 69zm-562 -596c70,69 188,11 175,-88 -4,-23 -14,-43 -30,-59l-30 -30 -56 -55 -63 -61c-72,-67 -188,-6 -173,91 3,23 14,43 30,59l62 59 55 54 30 30zm-599 -559c28,24 66,32 102,19 74,-26 93,-124 33,-175l-53 -46 -59 -51 -46 -39c-30,-25 -70,-31 -106,-16 -72,30 -86,123 -27,174l45 38 58 50 53 46zm-634 -521c74,57 180,-6 164,-99 -5,-27 -18,-48 -39,-65l-77 -59 -63 -47 -26 -19c-24,-18 -53,-24 -83,-18 -87,19 -111,130 -40,184l25 18 62 47 77 58zm-666 -478c36,23 81,23 116,-1 60,-41 60,-131 -1,-171l-40 -27 -66 -44 -68 -44c-26,-17 -58,-21 -87,-12 -84,28 -98,138 -24,186l66 43 64 43 40 27zm-695 -436c89,51 190,-43 145,-135 -9,-19 -23,-33 -40,-44l-70 -40 -69 -39 -42 -24c-88,-48 -185,41 -145,132 9,21 24,37 44,48l42 24 67 38 68 40zm-720 -390c37,19 81,13 113,-14 56,-49 45,-138 -21,-171l-32 -16 -71 -35 -85 -41c-28,-14 -62,-13 -90,1 -77,40 -76,148 2,186l82 39 70 35 32 16zm-745 -343c38,16 83,7 112,-21 53,-52 36,-141 -32,-170l-68 -28 -74 -31 -50 -20c-89,-36 -175,59 -130,144 12,22 29,38 53,47l49 21 72 29 68 29zm-765 -295c41,14 85,2 113,-31 46,-56 23,-141 -45,-164l-36 -12 -75 -26 -87 -29c-42,-14 -87,0 -114,35 -43,57 -18,139 50,161l84 28 75 26 35 12zm-782 -245c95,26 169,-84 109,-163 -14,-17 -32,-30 -54,-36l-84 -23 -78 -21 -40 -10c-88,-23 -160,73 -115,152 15,24 37,41 64,48l39 10 76 21 83 22zm-796 -194c90,19 158,-82 106,-159 -15,-22 -39,-38 -65,-43l-61 -13 -79 -16 -64 -12c-41,-8 -82,9 -105,44 -41,62 -6,145 66,159l63 12 78 16 61 12zm-808 -142c40,6 79,-12 101,-46 41,-63 2,-148 -72,-159l-45 -6 -81 -11 -80 -11c-98,-12 -156,108 -85,177 16,16 36,26 59,28l79 11 80 11 44 6zm-815 -90c40,3 77,-17 97,-51 38,-66 -5,-150 -81,-155l-37 -3 -83 -6 -88 -6c-104,-5 -150,127 -65,188 16,11 34,17 53,18l86 6 81 6 37 3z"/>
   <path class="fil2" d="M16845 3748c3350,57 6377,1438 8581,3642 2251,2250 3643,5360 3643,8795 0,1331 -209,2613 -596,3815l-599 -163c374,-1150 575,-2377 575,-3652 0,-3264 -1322,-6218 -3461,-8357 -2104,-2104 -4997,-3418 -8197,-3461l54 -619z"/>
   <path class="fil3" d="M16769 4622c3138,37 5976,1324 8039,3386 2092,2093 3386,4984 3386,8177 0,1251 -198,2457 -566,3586l-600 -163c355,-1077 547,-2228 547,-3423 0,-3022 -1225,-5758 -3206,-7739 -1962,-1962 -4665,-3182 -7654,-3204l54 -620z"/>
   <path class="fil4" d="M16690 5531c2919,15 5560,1205 7475,3120 1928,1928 3121,4592 3121,7534 0,1169 -189,2294 -537,3347l-599 -162c334,-1001 516,-2072 516,-3185 0,-2771 -1124,-5280 -2939,-7096 -1815,-1815 -4322,-2938 -7091,-2939l54 -619z"/>
   <path class="fil5" d="M9918 5361c-33,21 -67,42 -101,63 -130,84 -259,168 -387,256 -105,73 -210,147 -314,222 -82,61 -164,123 -246,185 -142,110 -281,222 -419,337 -97,83 -194,166 -290,251 -114,102 -226,206 -337,312 -92,88 -182,178 -272,269 -125,127 -246,257 -367,389 -85,95 -168,190 -251,287 -116,136 -228,274 -338,414 -94,121 -185,243 -275,366 -90,124 -177,249 -263,376 -70,106 -140,212 -208,320 -95,152 -186,304 -275,459 -132,231 -257,464 -374,703l1857 906c135,-275 283,-541 440,-804 78,-128 158,-253 240,-379 83,-124 168,-246 256,-368 88,-121 178,-239 270,-357 93,-117 188,-232 285,-346 98,-113 198,-224 300,-333 103,-110 207,-216 313,-321 108,-105 216,-207 327,-308 96,-86 192,-170 291,-253 115,-97 232,-190 351,-282 120,-92 240,-181 363,-268 106,-74 213,-147 321,-218 65,-42 208,-107 197,-125l-1094 -1753zm-5527 7303c-75,260 -140,520 -199,785 -28,127 -54,254 -78,382 -24,129 -46,257 -67,386 -20,130 -38,260 -54,390 -16,131 -30,261 -43,392 -12,132 -22,264 -30,396 -8,133 -14,265 -18,398 -4,134 -6,267 -6,400 1,135 3,268 7,403 5,135 12,269 20,404 9,136 20,271 33,406 14,136 29,272 46,408l11 81 11 81 12 82 12 80 13 81 13 81 14 80 14 80 15 80 15 80 16 80 16 79 17 80 17 79 18 78 18 79 18 79 19 78 20 78 20 78 20 77 21 78 22 77 21 77 23 76 23 77 23 76 23 76 25 76 24 76 25 75 26 75 26 75 26 75 27 75 27 74 28 74 28 74 29 73 29 74 29 73 30 72 30 73 31 72 31 73 32 71 32 72 13 28 1878 -861 -34 -76 -27 -60 -26 -61 -25 -60 -26 -61 -25 -61 -24 -61 -25 -61 -24 -62 -23 -62 -23 -62 -23 -62 -23 -62 -22 -63 -21 -62 -22 -63 -21 -63 -20 -64 -21 -63 -19 -64 -20 -64 -19 -64 -19 -64 -18 -65 -18 -64 -17 -65 -17 -65 -17 -65 -17 -66 -16 -65 -15 -66 -15 -66 -15 -66 -15 -66 -14 -67 -13 -66 -13 -67 -13 -67 -12 -67 -12 -68 -12 -67 -11 -68 -11 -68 -10 -68 -10 -68 -9 -68 -9 -69c-15,-114 -28,-228 -39,-342 -15,-159 -27,-317 -36,-477 -5,-113 -9,-225 -12,-338 -3,-158 -3,-314 0,-471 4,-134 10,-266 17,-400 10,-155 23,-308 39,-463 14,-131 30,-261 49,-392 19,-130 40,-259 63,-389 16,-86 32,-171 50,-257 55,-266 120,-528 195,-789l-1987 -567zm1750 10744c112,161 227,320 346,476 78,102 156,203 237,303 81,99 162,197 246,294 100,116 202,230 306,343 104,113 210,223 317,332 109,108 218,214 329,319 94,87 188,172 283,257 115,101 231,199 349,297 99,80 198,159 299,237 142,109 284,214 430,318 104,73 208,145 315,216 127,84 256,166 386,246 109,67 218,131 329,195 156,88 312,173 470,256 137,71 274,138 412,204 140,66 279,129 420,190 61,26 157,137 184,76l838 -1889c-89,-36 -177,-73 -265,-111 -138,-61 -273,-124 -409,-189 -135,-66 -267,-135 -399,-206 -132,-71 -262,-145 -391,-221 -128,-78 -254,-156 -380,-238 -125,-83 -248,-167 -370,-253 -121,-88 -240,-177 -359,-269 -117,-92 -233,-186 -347,-283 -114,-97 -225,-196 -335,-298 -110,-102 -217,-205 -323,-311 -106,-107 -208,-215 -310,-325 -101,-111 -199,-223 -296,-338 -96,-116 -190,-232 -282,-351 -92,-120 -181,-240 -268,-363l-65 -94 -1697 1180z"/>
   <path class="fil1" d="M16631 7114c76,0 145,31 194,80l0 1c50,49 81,118 81,194 0,76 -31,145 -81,194 -49,50 -118,81 -194,81 -76,0 -145,-31 -194,-81 -50,-49 -81,-118 -81,-194 0,-76 31,-145 81,-194l0 -1c49,-49 118,-80 194,-80zm158 117c-41,-40 -96,-65 -158,-65 -62,0 -118,25 -158,65 -40,40 -65,96 -65,158 0,62 25,117 65,158 40,40 96,65 158,65 62,0 117,-25 158,-65 40,-41 65,-96 65,-158 0,-62 -25,-118 -65,-158z"/>
   <path class="fil1" d="M16631 24706c76,0 145,30 194,80 50,50 81,119 81,195 0,75 -31,144 -81,194l0 0c-49,50 -118,81 -194,81 -76,0 -145,-31 -194,-81l0 0c-50,-50 -81,-119 -81,-194 0,-76 31,-145 81,-195l0 0c49,-50 118,-80 194,-80zm158 117c-41,-41 -96,-66 -158,-66 -62,0 -118,25 -158,66 -40,40 -65,96 -65,158 0,61 25,117 65,158 40,40 96,65 158,65 62,0 117,-25 158,-65 40,-41 65,-97 65,-158 0,-62 -25,-118 -65,-158z"/>
   <path class="fil1" d="M7560 16185c0,-76 31,-145 81,-195l0 0c49,-49 118,-80 194,-80 76,0 145,31 194,80 50,50 81,119 81,195 0,76 -31,144 -81,194 -49,50 -118,81 -194,81 -76,0 -145,-31 -194,-81l0 0c-50,-50 -81,-118 -81,-194zm117 -158c-40,40 -65,96 -65,158 0,61 25,117 65,158 41,40 96,65 158,65 62,0 118,-25 158,-65 40,-41 65,-97 65,-158 0,-62 -25,-118 -65,-158 -40,-41 -96,-66 -158,-66 -62,0 -117,25 -158,66z"/>
   <path class="fil1" d="M25152 16185c0,-76 31,-145 80,-195l1 0c49,-49 118,-80 194,-80 76,0 144,31 194,80l0 0c50,50 81,119 81,195 0,76 -31,144 -81,194l0 0c-50,50 -118,81 -194,81 -76,0 -145,-31 -194,-81 -50,-50 -81,-118 -81,-194zm117 -158c-40,40 -65,96 -65,158 0,61 25,117 65,158 40,40 96,65 158,65 62,0 117,-25 158,-65 40,-41 65,-97 65,-158 0,-62 -25,-118 -65,-158 -41,-41 -96,-66 -158,-66 -62,0 -118,25 -158,66z"/>
   <path class="fil1" d="M15840 7148c76,-6 147,18 201,64 54,45 91,111 97,186 7,76 -18,147 -63,201 -45,54 -111,91 -187,97 -75,7 -146,-18 -200,-63 -54,-45 -91,-111 -98,-187l0 -1c-6,-75 19,-146 64,-199 45,-54 111,-91 186,-98zm168 103c-44,-36 -102,-57 -163,-51 -62,5 -115,35 -152,79 -36,44 -56,101 -51,163 5,61 35,115 79,151 44,37 101,57 163,52 61,-6 115,-35 151,-79 37,-44 57,-102 52,-163 -6,-62 -35,-115 -79,-152z"/>
   <path class="fil1" d="M15056 7252c75,-13 148,5 205,45 58,41 100,103 113,178 13,74 -5,147 -45,205 -41,58 -103,100 -178,113 -74,13 -147,-5 -205,-45 -58,-41 -100,-103 -113,-178 -13,-74 5,-147 45,-205 41,-58 103,-100 178,-113zm176 88c-47,-33 -106,-48 -167,-37 -61,10 -112,45 -144,91 -33,47 -48,106 -37,167 10,61 45,112 91,144 47,33 107,48 167,37 61,-10 112,-45 145,-91 32,-47 47,-107 36,-167 -10,-61 -45,-112 -91,-144z"/>
   <path class="fil1" d="M18111 24576c74,-13 147,5 205,46 58,40 100,103 113,177 13,75 -5,148 -46,206 -40,57 -102,100 -177,113 -75,13 -148,-5 -205,-46 -58,-40 -100,-103 -113,-177 -14,-75 5,-148 45,-206 41,-57 103,-100 178,-113zm176 88c-47,-33 -107,-48 -167,-37 -61,11 -112,45 -145,92 -32,47 -47,106 -37,167 11,61 45,111 92,144 47,33 106,48 167,37 61,-11 112,-45 144,-92 33,-47 48,-106 37,-167 -10,-61 -45,-111 -91,-144z"/>
   <path class="fil1" d="M14283 7423c74,-20 148,-8 209,28 61,35 108,93 128,166 20,74 8,148 -28,209 -35,61 -93,108 -166,128l-4 1c-72,18 -145,6 -205,-28 -61,-36 -108,-94 -128,-167l-1 -4c-18,-72 -6,-145 28,-205 36,-61 94,-108 167,-128zm183 72c-49,-28 -110,-38 -169,-22 -60,16 -108,54 -136,104 -29,49 -38,110 -22,169l0 1c16,59 54,107 104,135 49,29 110,38 169,22l1 0c59,-16 106,-55 135,-104 28,-49 38,-110 22,-169 -16,-60 -54,-107 -104,-136z"/>
   <path class="fil1" d="M18850 24465l-1 0c-59,16 -106,55 -135,104 -29,50 -38,110 -22,170 16,59 54,107 104,135 49,29 110,39 169,23 60,-16 107,-55 136,-104 29,-50 38,-110 22,-170l0 -1c-16,-59 -55,-106 -104,-135 -49,-28 -110,-38 -169,-22zm-10 -51c72,-18 145,-6 205,29 61,35 108,93 128,167l1 3c18,72 6,145 -28,205 -36,61 -94,109 -167,128 -74,20 -148,8 -209,-27 -61,-35 -108,-94 -128,-167 -20,-73 -8,-148 27,-208 36,-61 94,-109 167,-129l4 -1z"/>
   <path class="fil1" d="M13546 7709l0 1c-58,21 -102,63 -126,115 -24,52 -28,113 -7,171 21,58 63,102 115,126 52,24 113,28 171,7l1 0c57,-21 101,-64 125,-115 24,-52 29,-113 7,-171l0 -1c-21,-58 -64,-101 -115,-125 -52,-24 -113,-29 -171,-8zm-13 -50c70,-24 143,-18 206,11 63,30 116,84 142,155l2 5c24,70 18,143 -11,205 -30,64 -84,117 -155,143l-5 1c-70,24 -143,19 -206,-10 -63,-30 -116,-84 -142,-156 -26,-71 -20,-146 9,-210 30,-64 84,-116 156,-142l4 -2z"/>
   <path class="fil1" d="M19545 24192c72,-26 147,-21 211,9 63,30 116,84 142,155l1 5c24,70 19,143 -10,205 -30,64 -84,117 -156,142l-4 2c-70,24 -143,18 -206,-11 -64,-29 -116,-83 -142,-155 -26,-71 -21,-146 9,-210 30,-64 84,-116 155,-142zm189 56c-52,-24 -113,-29 -171,-8 -58,21 -102,64 -126,116 -24,52 -29,113 -8,171 22,57 64,101 116,126 52,24 113,28 171,7l0 0c58,-21 102,-64 126,-115 24,-52 28,-113 7,-171l0 -1c-21,-57 -64,-101 -115,-125z"/>
   <path class="fil1" d="M12797 7964c69,-32 145,-33 211,-9 66,24 123,73 155,142 32,69 33,144 9,210 -24,66 -73,123 -142,155 -69,32 -144,33 -210,9 -67,-24 -123,-73 -156,-142 -32,-69 -33,-144 -9,-210 24,-66 74,-123 142,-155zm193 39c-54,-19 -115,-19 -171,8 -56,26 -96,72 -115,126 -20,53 -19,114 7,170 26,56 73,96 126,116 54,19 115,18 171,-8 56,-26 96,-72 116,-126 19,-53 18,-114 -8,-170 -26,-56 -72,-96 -126,-116z"/>
   <path class="fil1" d="M20232 23907c69,-32 144,-33 210,-9 66,24 123,74 155,142 33,69 34,144 10,211 -25,66 -74,123 -143,155 -68,32 -144,33 -210,9 -66,-24 -123,-74 -155,-142 -32,-69 -33,-144 -9,-210 24,-67 73,-124 142,-156zm193 40c-54,-20 -115,-19 -171,7 -56,26 -96,72 -116,126 -19,54 -18,115 8,171 26,56 72,96 126,115 53,20 115,19 171,-7 56,-26 96,-72 115,-126 20,-54 19,-115 -7,-171 -26,-56 -73,-96 -126,-115z"/>
   <path class="fil1" d="M12121 8374l0 0c-53,31 -89,80 -104,135 -15,56 -8,117 23,170 30,53 80,89 135,104 55,15 116,9 170,-22 53,-31 89,-81 104,-136 15,-55 8,-116 -23,-169 -30,-54 -80,-90 -135,-104 -55,-15 -116,-9 -170,22zm-19 -48c64,-35 136,-42 202,-24 68,18 129,62 167,128l4 6 0 0c34,64 41,137 24,202 -19,68 -63,129 -128,167l-7 4 0 0c-64,35 -136,41 -202,24 -68,-18 -129,-63 -167,-128 -38,-66 -46,-141 -28,-209 19,-68 63,-129 129,-167l6 -3z"/>
   <path class="fil1" d="M20892 23564c65,-38 140,-46 208,-27 68,18 129,62 167,128 38,66 46,140 27,208 -18,68 -62,129 -128,167 -65,38 -140,46 -208,28 -68,-18 -129,-63 -167,-128 -38,-66 -46,-141 -28,-209 19,-68 63,-129 129,-167zm195 22c-56,-14 -116,-8 -170,23 -53,31 -89,80 -104,135 -15,56 -8,117 22,170 31,53 81,89 136,104 55,15 116,8 170,-22 53,-31 89,-81 104,-136 14,-55 8,-116 -23,-170 -30,-53 -80,-89 -135,-104z"/>
   <path class="fil1" d="M11428 8754c62,-43 136,-57 206,-45 69,12 133,51 177,113 44,62 58,136 46,205 -13,70 -51,134 -114,178 -62,43 -136,58 -205,45 -69,-12 -134,-51 -177,-113 -44,-62 -58,-136 -46,-205 12,-69 51,-134 113,-178zm197 6c-57,-10 -117,1 -167,37 -51,35 -82,87 -92,144 -10,56 2,116 37,167 35,50 88,82 144,91 56,10 117,-1 167,-36 50,-36 82,-88 92,-145 10,-56 -2,-116 -37,-167 -35,-50 -88,-81 -144,-91z"/>
   <path class="fil1" d="M21518 23165c63,-44 137,-58 206,-46 69,12 134,51 177,113 44,62 58,136 46,206 -12,69 -51,133 -113,177 -63,44 -136,58 -206,46 -69,-13 -134,-51 -177,-113 -44,-63 -58,-137 -46,-206 13,-69 51,-134 113,-177zm197 5c-56,-10 -117,2 -167,37 -51,35 -82,88 -92,144 -10,56 2,117 37,167 35,51 88,82 144,92 57,10 117,-2 167,-37 51,-35 82,-88 92,-144 10,-57 -2,-117 -37,-167 -35,-51 -88,-82 -144,-92z"/>
   <path class="fil1" d="M10800 9236c59,-49 131,-69 201,-63 70,6 138,39 187,97 48,58 69,131 63,201 -6,70 -39,137 -97,186 -58,49 -131,70 -201,64 -70,-7 -138,-39 -187,-98 -48,-58 -69,-130 -63,-200 6,-70 39,-138 97,-187zm197 -12c-57,-5 -116,12 -164,52 -47,39 -73,94 -78,151 -5,57 11,116 51,163 40,47 95,74 152,79 57,5 115,-12 163,-51 47,-40 74,-95 79,-152 4,-57 -12,-116 -52,-163 -39,-47 -94,-74 -151,-79z"/>
   <path class="fil1" d="M22108 22712c58,-49 131,-69 201,-63 70,6 138,39 186,97 49,58 70,131 64,201 -6,70 -39,138 -97,186 -59,49 -131,70 -201,64 -70,-6 -138,-39 -187,-98 -49,-58 -69,-130 -63,-200 6,-70 39,-138 97,-187zm196 -12c-57,-5 -116,12 -163,52 -47,39 -74,94 -79,151 -5,57 12,116 52,163 39,48 94,74 151,79 57,5 116,-12 163,-51 48,-40 74,-95 79,-152 5,-57 -11,-116 -51,-163 -40,-47 -95,-74 -152,-79z"/>
   <path class="fil1" d="M10217 9771c54,-54 124,-81 194,-81 71,0 141,27 195,81 53,53 80,124 80,194 0,70 -27,141 -80,195 -54,53 -124,80 -195,80 -70,0 -140,-27 -194,-80 -54,-54 -81,-125 -81,-195 0,-70 27,-141 81,-194zm194 -29c-57,0 -114,22 -158,65 -43,44 -65,101 -65,158 0,57 22,114 65,158 44,44 101,65 158,65 57,0 115,-21 158,-65 44,-44 66,-101 66,-158 0,-57 -22,-114 -66,-158 -43,-43 -101,-65 -158,-65z"/>
   <path class="fil1" d="M22656 22210c54,-54 124,-81 195,-81 70,0 140,27 194,81 54,54 81,124 81,194 0,71 -27,141 -81,195 -54,53 -124,80 -194,80 -71,0 -141,-27 -195,-80 -54,-54 -80,-124 -80,-195 0,-70 26,-140 80,-194zm37 36c-44,44 -66,101 -66,158 0,57 22,115 66,158 43,44 100,66 158,66 57,0 114,-22 157,-66 44,-43 66,-101 66,-158 0,-57 -22,-114 -66,-158 -43,-43 -100,-65 -157,-65 -58,0 -115,22 -158,65z"/>
   <path class="fil1" d="M9682 10354c49,-58 117,-91 187,-97 70,-6 142,14 201,63 58,49 91,117 97,187 6,70 -15,142 -63,201 -49,58 -117,91 -187,97 -70,6 -143,-15 -201,-64 -58,-48 -91,-116 -97,-186 -6,-70 15,-143 63,-201zm191 -46c-56,5 -112,32 -151,79 -40,47 -57,106 -52,163 5,57 32,112 79,152 48,40 106,56 163,51 57,-5 112,-31 152,-79 40,-47 56,-106 51,-163 -5,-57 -31,-112 -78,-151 -48,-40 -107,-57 -164,-52z"/>
   <path class="fil1" d="M23158 21662c49,-58 117,-91 187,-97 70,-6 143,14 201,63 58,49 91,117 97,187 6,70 -15,142 -63,200 -49,58 -117,91 -187,98 -70,6 -143,-15 -201,-64 -58,-49 -91,-116 -97,-186 -6,-70 15,-143 63,-201zm192 -46c-57,5 -112,32 -152,79 -40,47 -56,106 -51,163 5,57 31,112 78,152 48,39 107,56 163,51 57,-5 112,-32 152,-79 40,-47 56,-106 51,-163 -5,-57 -31,-112 -78,-151 -48,-40 -107,-57 -163,-52z"/>
   <path class="fil1" d="M9201 10982c43,-62 108,-101 177,-113 69,-12 143,2 205,45 63,44 101,109 114,178 12,69 -2,143 -46,205 -44,62 -108,101 -178,113 -69,13 -143,-2 -205,-45 -62,-44 -101,-108 -113,-178 -12,-69 2,-143 46,-205zm186 -62c-56,10 -109,41 -144,91 -36,51 -47,111 -37,167 10,57 41,109 92,145 50,35 110,46 167,37 56,-10 108,-42 144,-92 35,-51 47,-111 37,-167 -10,-57 -42,-109 -92,-144 -51,-36 -111,-47 -167,-37z"/>
   <path class="fil1" d="M23611 21072c44,-62 108,-101 177,-113 70,-12 144,2 206,46 62,43 101,108 113,177 12,69 -2,143 -46,205 -43,63 -108,101 -177,114 -69,12 -143,-2 -205,-46 -63,-44 -101,-108 -114,-177 -12,-70 2,-144 46,-206zm186 -62c-56,10 -109,41 -144,92 -35,50 -47,110 -37,167 10,56 42,109 92,144 50,35 111,47 167,37 56,-10 109,-42 144,-92 35,-50 47,-111 37,-167 -10,-56 -41,-109 -92,-144 -50,-35 -110,-47 -167,-37z"/>
   <path class="fil1" d="M8775 11649c38,-65 99,-110 167,-128 68,-18 143,-10 209,28 66,38 110,99 128,167 18,65 11,138 -24,202l0 0 -3 6c-38,66 -99,110 -167,128 -66,18 -138,11 -203,-24l-6 -3c-66,-38 -110,-99 -128,-167 -18,-66 -11,-138 24,-202l3 -7zm181 -78c-54,14 -103,49 -134,100l-2 4c-31,54 -37,114 -22,170 14,54 50,104 102,134l2 1c53,31 114,37 169,23 56,-15 105,-51 136,-105 31,-53 37,-114 22,-169 -15,-55 -50,-105 -104,-136 -53,-30 -114,-37 -169,-22z"/>
   <path class="fil1" d="M24010 20445c38,-66 99,-110 167,-128 68,-18 143,-10 209,28 66,38 110,99 128,167 18,67 10,142 -28,208 -38,66 -99,110 -166,128 -68,18 -143,11 -209,-27 -66,-38 -110,-99 -128,-167 -18,-68 -11,-143 27,-209zm181 -78c-56,15 -105,51 -136,104 -31,53 -37,114 -22,169 15,56 50,105 104,136 53,31 114,37 169,22 55,-14 105,-50 136,-104 31,-53 37,-114 22,-169 -15,-55 -51,-105 -104,-136 -53,-31 -114,-37 -169,-22z"/>
   <path class="fil1" d="M8457 12373c-26,56 -27,117 -8,171 20,53 60,100 116,126 56,26 117,27 171,7 53,-19 99,-59 126,-115 26,-56 27,-117 7,-171 -19,-54 -60,-100 -115,-126 -56,-26 -118,-27 -171,-7 -54,19 -100,59 -126,115zm-47 -22c32,-69 89,-118 155,-142 66,-24 142,-23 210,9 69,32 118,89 142,155 25,67 23,142 -9,211 -32,68 -89,118 -155,142 -66,24 -141,23 -210,-9 -69,-32 -118,-89 -142,-156 -24,-66 -23,-141 9,-210z"/>
   <path class="fil1" d="M24354 19786c32,-69 89,-118 155,-142 66,-24 141,-23 210,9 69,32 118,89 142,155 24,66 23,141 -9,210 -32,69 -89,118 -155,142 -66,24 -142,23 -210,-9 -69,-32 -118,-89 -143,-155 -24,-66 -23,-141 10,-210zm172 -94c-53,20 -100,60 -126,116 -26,56 -27,117 -7,170 19,54 59,100 115,126 56,26 117,27 171,8 54,-20 100,-60 126,-116 26,-56 27,-117 8,-170 -20,-54 -60,-100 -116,-126 -56,-26 -117,-27 -171,-8z"/>
   <path class="fil1" d="M8107 13082c26,-71 79,-125 142,-155 64,-30 139,-35 211,-9 71,26 125,78 155,142 29,63 35,136 10,206l-1 4c-26,72 -79,126 -142,156 -63,29 -136,34 -206,10l-4 -1c-72,-26 -126,-79 -156,-142 -29,-63 -35,-136 -10,-206l1 -5zm164 -108c-52,24 -94,68 -115,125l0 1c-21,58 -17,119 7,171 24,51 68,94 125,115l1 0c58,21 119,17 171,-7 52,-24 94,-68 115,-126l0 0c21,-58 17,-119 -7,-171 -24,-52 -68,-94 -126,-116 -58,-21 -119,-16 -171,8z"/>
   <path class="fil1" d="M24638 19099c26,-71 78,-125 142,-155 64,-30 139,-35 210,-9 72,26 126,78 156,142 29,62 34,136 10,206l-1 4c-26,71 -79,126 -142,155 -63,29 -136,35 -206,11l-5 -2c-71,-26 -125,-78 -155,-142 -29,-63 -35,-139 -9,-210zm164 -108c-52,24 -94,68 -115,126 -22,58 -17,119 7,170 24,52 68,95 125,116l1 0c58,21 119,17 171,-8 51,-24 94,-67 115,-125l0 0c21,-58 17,-119 -7,-171 -24,-52 -68,-95 -126,-116 -58,-21 -119,-16 -171,8z"/>
   <path class="fil1" d="M7869 13837c20,-73 67,-132 128,-167 60,-34 133,-47 205,-28l4 1c73,19 132,67 167,128 34,60 47,133 28,205l-1 3c-19,74 -67,132 -128,167 -61,35 -135,47 -208,28 -74,-20 -132,-67 -167,-128 -35,-61 -47,-136 -28,-209zm154 -122c-49,28 -88,76 -104,135 -16,60 -6,120 22,170 29,49 76,88 136,104 60,16 120,6 169,-22 50,-29 88,-76 104,-135l0 -1c16,-60 7,-120 -22,-169 -28,-50 -75,-88 -134,-104l-1 -1c-60,-15 -120,-6 -170,23z"/>
   <path class="fil1" d="M24862 18390c19,-73 67,-132 128,-167 61,-35 135,-47 208,-27 74,19 132,67 167,128 35,61 47,135 28,208 -20,74 -67,132 -128,167 -60,35 -133,47 -206,29l-3 -1c-73,-20 -132,-67 -167,-128 -35,-60 -47,-133 -28,-205l1 -4zm153 -122c-49,28 -87,76 -103,135l-1 0c-16,60 -6,120 23,170 28,49 75,88 134,104l1 0c60,16 120,6 170,-22 49,-29 88,-76 104,-136 16,-60 6,-120 -22,-169 -29,-50 -76,-88 -136,-104 -60,-16 -120,-7 -170,22z"/>
   <path class="fil1" d="M7698 14610c13,-75 55,-137 113,-178 58,-40 131,-59 205,-45 75,13 137,55 178,113 40,57 59,130 45,205 -13,75 -55,137 -113,177 -57,41 -130,59 -205,46 -75,-13 -137,-55 -177,-113 -41,-58 -59,-131 -46,-205zm143 -136c-47,33 -81,84 -92,145 -11,60 4,120 37,166 32,47 83,82 144,92 61,11 120,-4 167,-37 47,-32 81,-83 92,-144 10,-61 -5,-120 -37,-167 -33,-47 -84,-81 -144,-92 -61,-10 -121,5 -167,37z"/>
   <path class="fil1" d="M25022 17664c14,-74 56,-137 114,-177 57,-40 130,-59 205,-46 75,14 137,56 177,114 41,57 59,130 46,205 -13,75 -55,137 -113,177 -58,41 -131,59 -205,46 -75,-13 -138,-56 -178,-113 -40,-58 -59,-131 -46,-206zm143 -135c-47,33 -81,84 -92,144 -10,61 4,120 37,167 33,47 84,81 144,92 61,11 121,-4 167,-37 47,-33 81,-83 92,-144 11,-61 -4,-120 -37,-167 -33,-47 -83,-81 -144,-92 -61,-11 -120,4 -167,37z"/>
   <path class="fil1" d="M7595 16975c-7,-75 18,-146 63,-200 45,-54 111,-91 187,-98 75,-6 146,19 200,64 54,45 91,111 97,186 7,76 -18,147 -63,201 -45,54 -111,91 -187,97l-1 0c-75,7 -146,-18 -199,-63 -54,-45 -91,-111 -97,-187zm102 -167c-36,44 -56,101 -51,163 5,61 35,115 79,151 44,37 102,57 163,52 61,-6 115,-35 152,-79 36,-44 56,-102 51,-163 -5,-62 -35,-115 -79,-152 -44,-36 -101,-56 -163,-51 -61,5 -115,35 -152,79z"/>
   <path class="fil1" d="M7698 17760c-13,-75 5,-148 46,-205 40,-58 102,-100 177,-114 75,-13 148,6 205,46 58,40 100,103 113,177 14,75 -5,148 -45,206 -41,57 -103,100 -178,113 -74,13 -147,-5 -205,-46 -58,-40 -100,-102 -113,-177zm88 -176c-33,47 -48,106 -37,167 11,61 45,111 92,144 46,33 106,48 167,37 60,-11 111,-45 144,-92 32,-47 47,-106 37,-167 -11,-60 -45,-111 -92,-144 -47,-33 -106,-48 -167,-37 -61,11 -112,45 -144,92z"/>
   <path class="fil1" d="M25022 14705c-13,-75 6,-148 46,-205 40,-58 103,-100 178,-113 74,-14 147,5 205,45 58,41 100,103 113,178 13,74 -5,147 -46,205 -40,58 -102,100 -177,113 -75,13 -148,-5 -205,-46 -58,-40 -100,-102 -114,-177zm88 -176c-33,47 -47,106 -37,167 11,61 45,112 92,144 47,33 106,48 167,37 61,-10 111,-45 144,-92 33,-46 48,-106 37,-166 -11,-61 -45,-112 -92,-145 -46,-32 -106,-47 -167,-37 -60,11 -111,45 -144,92z"/>
   <path class="fil1" d="M7869 18532c-19,-73 -7,-147 28,-208 35,-61 93,-109 167,-128 73,-20 147,-8 208,27 61,35 109,94 128,167l1 4c19,72 6,145 -28,205 -35,61 -94,108 -167,128l-3 1c-73,18 -146,6 -206,-29 -61,-35 -108,-93 -128,-167zm72 -182c-28,49 -38,109 -22,169 16,60 55,107 104,136 50,28 110,38 170,22l0 0c60,-16 107,-55 135,-104 29,-50 38,-110 22,-170l0 0c-16,-59 -54,-107 -104,-135 -49,-29 -109,-38 -169,-22 -60,16 -107,54 -136,104z"/>
   <path class="fil1" d="M24911 13966l1 1c16,59 54,106 103,135 50,28 110,38 170,22 60,-16 107,-55 136,-104 28,-50 38,-110 22,-170 -16,-59 -55,-107 -104,-135 -50,-29 -110,-38 -170,-23l0 1c-60,16 -107,54 -135,104 -29,49 -39,109 -23,169zm-50 10c-19,-72 -7,-145 28,-205 35,-61 94,-109 167,-128l3 -1c73,-19 146,-6 206,28 61,35 108,94 128,167 19,73 7,148 -28,209 -35,61 -93,108 -167,128 -73,19 -147,7 -208,-28 -61,-35 -109,-93 -128,-167l-1 -3z"/>
   <path class="fil1" d="M8156 19270l0 0c21,58 64,101 115,125 52,25 113,29 171,8 58,-21 102,-64 126,-116 24,-51 28,-112 7,-170l0 -1c-21,-57 -63,-101 -115,-125 -52,-24 -113,-29 -171,-8l-1 1c-57,21 -101,63 -125,115 -24,52 -28,113 -7,171zm-50 13c-25,-70 -19,-144 10,-206 30,-64 84,-116 156,-142l4 -2c70,-24 143,-18 206,11 63,30 116,84 142,155l1 5c25,70 19,143 -10,205 -30,64 -84,116 -155,142 -72,26 -147,21 -211,-9 -63,-29 -116,-84 -142,-155l-1 -4z"/>
   <path class="fil1" d="M24638 13270c-26,-71 -20,-146 9,-210 30,-64 84,-116 155,-142l5 -2c70,-24 143,-18 206,11 63,30 116,84 142,155l1 5c24,70 19,143 -10,206 -30,63 -84,116 -156,142 -71,26 -146,20 -210,-9 -64,-30 -116,-84 -142,-156zm56 -188c-24,52 -29,113 -7,171 21,58 63,102 115,126 52,24 113,28 171,7 58,-21 102,-63 126,-115 24,-52 28,-113 7,-171l0 -1c-21,-57 -64,-101 -115,-125 -52,-24 -113,-29 -171,-8l-1 1c-57,21 -101,63 -125,115z"/>
   <path class="fil1" d="M8410 20018c-32,-69 -33,-144 -9,-210 24,-66 73,-123 142,-155 69,-32 144,-33 210,-9 66,24 123,73 155,142 32,69 34,144 9,210 -24,66 -73,123 -142,155 -68,32 -144,33 -210,9 -66,-24 -123,-73 -155,-142zm39 -192c-19,53 -18,114 8,170 26,56 72,96 126,116 53,19 115,18 171,-8 55,-26 96,-72 115,-126 20,-53 19,-114 -7,-170 -27,-56 -73,-96 -126,-116 -54,-19 -115,-18 -171,8 -56,26 -96,72 -116,126z"/>
   <path class="fil1" d="M24354 12584c-33,-69 -34,-144 -10,-211 25,-66 74,-123 143,-155 68,-32 144,-33 210,-9 66,24 123,73 155,142 32,69 33,144 9,210 -24,67 -73,124 -142,156 -69,32 -144,33 -210,9 -66,-24 -123,-74 -155,-142zm39 -193c-20,54 -19,115 7,171 26,56 73,96 126,115 54,20 115,19 171,-7 56,-26 96,-73 116,-126 19,-54 18,-115 -8,-171 -26,-56 -72,-96 -126,-115 -53,-20 -115,-19 -171,7 -56,26 -96,72 -115,126z"/>
   <path class="fil1" d="M8820 20694l1 1c30,53 80,89 135,103 55,15 116,9 169,-22 54,-31 89,-80 104,-136 15,-55 9,-116 -22,-169 -31,-53 -80,-89 -136,-104 -55,-15 -116,-9 -169,22 -54,31 -89,81 -104,136 -15,55 -9,116 22,169zm-48 20c-35,-64 -42,-137 -24,-202 18,-68 62,-129 128,-167l6 -4 0 0c65,-35 137,-41 203,-24 68,18 129,62 167,128l3 6 0 1c35,64 42,136 24,202 -18,68 -62,129 -128,167 -66,38 -141,45 -209,27 -68,-18 -129,-62 -167,-128l-3 -6z"/>
   <path class="fil1" d="M24010 11924c-38,-66 -45,-140 -27,-208 18,-68 62,-129 128,-167 66,-38 141,-46 209,-28 67,18 128,63 166,128 38,66 46,141 28,209 -18,68 -62,129 -128,167 -66,38 -141,46 -209,27 -68,-18 -129,-62 -167,-128zm23 -195c-15,55 -9,116 22,170 31,53 80,89 136,104 55,14 116,8 169,-23 54,-31 89,-80 104,-135 15,-56 9,-117 -22,-170 -31,-53 -81,-89 -136,-104 -55,-15 -116,-8 -169,22 -54,31 -89,81 -104,136z"/>
   <path class="fil1" d="M9201 21387c-44,-62 -58,-136 -46,-205 12,-69 51,-134 113,-177 62,-44 136,-58 205,-46 70,12 134,51 178,113 44,62 58,136 46,206 -13,69 -51,133 -114,177 -62,44 -136,58 -205,46 -69,-13 -134,-51 -177,-114zm5 -196c-10,56 1,117 37,167 35,50 88,82 144,92 56,10 116,-2 167,-37 50,-35 82,-88 92,-144 10,-57 -2,-117 -37,-167 -36,-51 -88,-82 -144,-92 -57,-10 -117,2 -167,37 -51,35 -82,88 -92,144z"/>
   <path class="fil1" d="M23611 11297c-44,-62 -58,-136 -46,-205 13,-69 51,-134 114,-178 62,-43 136,-57 205,-45 69,12 134,51 177,113 44,62 58,136 46,205 -12,70 -51,134 -113,178 -62,43 -136,58 -206,45 -69,-12 -133,-51 -177,-113zm5 -196c-10,56 2,116 37,167 35,50 88,82 144,92 57,9 117,-2 167,-37 51,-36 82,-88 92,-145 10,-56 -2,-116 -37,-167 -35,-50 -88,-81 -144,-91 -56,-10 -117,1 -167,37 -50,35 -82,87 -92,144z"/>
   <path class="fil1" d="M23158 10708c-48,-59 -69,-131 -63,-201 6,-70 39,-137 96,-186l1 -1c58,-49 131,-69 201,-63 70,6 138,39 187,97 48,58 69,131 63,201 -6,70 -39,138 -97,186 -58,49 -131,70 -201,64 -70,-6 -138,-39 -187,-97zm-11 -197c-5,57 11,116 51,163 40,48 95,74 152,79 56,5 115,-11 163,-51 47,-40 73,-95 78,-152 5,-57 -11,-116 -51,-163 -40,-47 -95,-74 -152,-79 -56,-5 -115,12 -163,52 -47,39 -73,94 -78,151z"/>
   <path class="fil1" d="M10217 22599c-54,-54 -81,-124 -81,-195 0,-70 27,-140 81,-194 54,-54 124,-81 194,-81 71,0 141,27 195,81 53,54 80,124 80,194 0,71 -27,141 -80,195 -54,53 -124,80 -195,80 -70,0 -140,-27 -194,-80zm36 -37c44,44 101,66 158,66 57,0 115,-22 158,-66 44,-43 66,-101 66,-158 0,-57 -22,-114 -66,-158 -43,-43 -101,-65 -158,-65 -57,0 -114,22 -158,65 -43,44 -65,101 -65,158 0,57 22,115 65,158z"/>
   <path class="fil1" d="M22656 10160c-54,-54 -80,-125 -80,-195 0,-70 26,-141 80,-194 54,-54 124,-81 195,-81 70,0 140,27 194,81 54,53 81,124 81,194 0,70 -27,141 -81,194 -54,54 -124,81 -194,81 -71,0 -141,-27 -195,-80zm-29 -195c0,57 22,114 66,158 43,44 100,65 158,65 57,0 114,-21 157,-65 44,-44 66,-101 66,-158 0,-57 -22,-114 -66,-158 -43,-43 -100,-65 -157,-65 -58,0 -115,22 -158,65 -44,44 -66,101 -66,158z"/>
   <path class="fil1" d="M22108 9657c-58,-49 -91,-116 -97,-186 -6,-70 14,-143 63,-201 49,-58 117,-91 187,-97 70,-6 142,14 201,63 58,49 91,117 97,187 6,70 -15,142 -64,200 -48,59 -116,91 -186,98 -70,6 -143,-15 -201,-64zm-46 -191c5,57 32,112 79,152 47,39 106,56 163,51 57,-5 112,-32 152,-79 40,-47 56,-106 51,-163 -5,-57 -31,-112 -79,-151 -47,-40 -106,-57 -163,-52 -57,5 -112,32 -151,79 -40,47 -57,106 -52,163z"/>
   <path class="fil1" d="M11428 23615c-62,-44 -101,-108 -113,-177 -12,-70 2,-144 46,-206l1 -2c44,-61 108,-99 176,-111 69,-12 143,2 205,46l3 1c61,44 99,108 111,176 12,69 -2,143 -46,206 -44,62 -108,100 -177,113 -70,12 -144,-2 -206,-46zm-62 -186c10,56 41,109 92,144 50,35 110,47 167,37 56,-10 109,-42 144,-92 35,-50 47,-111 37,-167 -10,-56 -42,-109 -92,-144l0 0c-51,-35 -111,-47 -167,-37 -56,10 -109,41 -144,92l0 0c-36,50 -47,110 -37,167z"/>
   <path class="fil1" d="M21518 9205c-62,-44 -100,-108 -113,-178 -12,-69 2,-143 46,-205 43,-62 108,-101 177,-113 70,-12 143,2 206,45 62,44 101,109 113,178 12,69 -2,143 -46,205 -43,62 -108,101 -177,113 -69,13 -143,-2 -206,-45zm-62 -187c10,57 41,109 92,145 50,35 111,46 167,36 56,-9 109,-41 144,-91 35,-51 47,-111 37,-167 -10,-57 -41,-109 -92,-144 -50,-36 -110,-47 -167,-37 -56,10 -109,41 -144,91 -35,51 -47,111 -37,167z"/>
   <path class="fil1" d="M12102 24044l-6 -4c-66,-38 -110,-99 -129,-167 -17,-65 -10,-138 24,-202l4 -6c38,-66 99,-110 167,-128 68,-19 143,-11 208,27 66,38 110,99 129,167 18,68 10,143 -28,209 -38,65 -99,110 -167,128 -66,17 -138,11 -202,-24zm-85 -184c15,55 51,104 104,135l0 1c54,30 115,37 170,22 55,-15 105,-51 135,-104 31,-54 38,-114 23,-170 -15,-55 -51,-104 -104,-135 -54,-31 -115,-37 -170,-23 -55,15 -104,51 -135,104l0 0c-31,54 -38,115 -23,170z"/>
   <path class="fil1" d="M20898 8809l0 0 -7 -4c-65,-38 -109,-99 -128,-167 -17,-65 -11,-138 24,-202l0 -4 6 -5c38,-64 98,-107 165,-125 65,-18 138,-11 202,24 0,0 9,5 10,5 64,38 107,98 124,165 18,66 11,138 -24,202l-3 7c-38,65 -99,110 -167,128 -66,17 -138,11 -202,-24zm-85 -184c15,55 51,105 104,136 54,31 114,37 170,22 55,-15 104,-50 135,-103l0 -1c31,-53 37,-114 23,-170 -15,-53 -48,-101 -98,-132l-4 0 -6 -5c-52,-29 -112,-35 -166,-20 -55,14 -105,50 -135,103l-1 1c-30,53 -37,114 -22,169z"/>
   <path class="fil1" d="M12803 24408l-6 -2c-68,-32 -118,-89 -142,-156 -23,-64 -23,-137 7,-204l2 -6c33,-68 90,-118 156,-142 66,-24 141,-23 210,9 69,32 118,89 142,156 24,66 23,141 -9,210 -32,68 -89,118 -155,142 -65,23 -138,23 -205,-7zm-99 -175c19,53 59,99 115,126l0 0c56,26 117,27 171,7 54,-19 100,-59 126,-115 26,-56 27,-117 8,-171 -20,-54 -60,-100 -116,-126 -56,-26 -117,-27 -171,-7 -53,19 -99,59 -125,115l-1 0c-26,56 -27,117 -7,171z"/>
   <path class="fil1" d="M20232 8462c-69,-32 -118,-89 -142,-155 -24,-66 -23,-141 9,-210 32,-69 89,-118 155,-142 66,-24 142,-23 210,9 69,32 119,89 143,155 24,66 23,141 -10,210 -32,69 -89,118 -155,142 -66,24 -141,23 -210,-9zm-94 -173c20,54 60,100 116,126 56,26 117,27 171,8 53,-20 100,-60 126,-116 26,-56 27,-117 7,-170 -19,-54 -59,-100 -115,-126 -56,-27 -117,-27 -171,-8 -54,20 -100,60 -126,116 -26,55 -27,117 -8,170z"/>
   <path class="fil1" d="M13529 24708c-72,-26 -126,-78 -156,-142 -29,-62 -34,-135 -10,-205l1 -5c26,-71 79,-125 142,-155 63,-29 136,-35 206,-11l5 2c71,26 125,78 155,142 29,64 35,139 9,210 -26,72 -79,126 -142,155 -64,30 -139,35 -210,9zm-109 -163c24,51 68,94 126,115 58,21 119,17 171,-7 52,-25 94,-69 115,-126 22,-58 17,-119 -7,-171 -24,-52 -68,-94 -125,-115l-1 -1c-58,-21 -119,-16 -171,8 -51,24 -94,68 -115,125l0 1c-21,58 -17,119 7,171z"/>
   <path class="fil1" d="M19545 8178c-71,-26 -125,-79 -155,-143 -30,-63 -35,-138 -9,-210 26,-71 78,-125 142,-155 64,-30 139,-35 210,-9l2 0c70,27 124,79 154,142 29,64 35,139 9,210l-1 1c-26,71 -78,125 -141,154 -64,30 -139,36 -211,10zm-108 -164c24,52 68,94 126,115 58,21 119,17 171,-7 52,-24 94,-68 115,-126l1 -1c20,-58 16,-119 -8,-170 -24,-52 -68,-95 -126,-116l-1 0c-57,-21 -118,-16 -170,8 -52,24 -94,68 -116,126 -21,58 -16,119 8,171z"/>
   <path class="fil1" d="M14283 24946c-73,-19 -131,-67 -167,-128 -35,-61 -47,-135 -27,-208 19,-73 67,-132 128,-167 60,-35 133,-47 205,-29l4 1c73,20 131,67 166,128 35,60 47,133 29,206l-1 3c-20,73 -67,132 -128,167 -61,35 -135,47 -209,27zm-122 -153c29,49 76,88 136,104 59,16 120,6 169,-23 49,-28 88,-76 104,-135l0 0c16,-60 6,-120 -22,-170 -29,-49 -76,-88 -135,-104l-1 0c-59,-16 -120,-6 -169,22 -50,29 -88,76 -104,136 -16,60 -7,120 22,170z"/>
   <path class="fil1" d="M18840 7955l-4 -1c-73,-20 -131,-67 -166,-128 -35,-60 -47,-133 -29,-205l1 -4c20,-73 67,-131 128,-166 61,-36 135,-48 209,-28 73,20 131,67 167,128 35,61 47,135 27,209 -20,73 -67,131 -128,167 -60,34 -133,46 -205,28zm-126 -155c28,49 76,88 135,104l1 0c59,16 120,7 169,-22 50,-29 88,-76 104,-136 16,-59 7,-120 -22,-169 -29,-50 -76,-88 -136,-104 -59,-16 -120,-6 -169,22 -49,28 -88,76 -104,135l0 1c-16,59 -6,120 22,169z"/>
   <path class="fil1" d="M15056 25118c-75,-13 -137,-56 -178,-113 -40,-58 -58,-131 -45,-206 13,-74 55,-137 113,-177 58,-41 131,-59 205,-46 75,13 137,56 178,113 40,58 58,131 45,206 -13,74 -55,137 -113,177 -57,41 -130,59 -205,46zm-135 -143c32,47 83,81 144,92 61,11 120,-4 167,-37 46,-33 81,-83 91,-144 11,-61 -4,-120 -36,-167 -33,-47 -84,-81 -145,-92 -60,-11 -120,4 -167,37 -46,33 -81,83 -91,144 -11,61 4,120 37,167z"/>
   <path class="fil1" d="M18111 7793c-75,-13 -137,-55 -178,-113 -40,-58 -59,-131 -45,-205 13,-75 55,-137 113,-178 57,-40 129,-58 203,-46l2 1c75,13 137,55 178,113 39,57 58,129 46,203l-1 2c-13,75 -55,137 -113,178 -58,40 -131,58 -205,45zm-136 -142c33,46 84,81 145,91 60,11 120,-4 167,-37 46,-32 80,-82 91,-143l0 -1c11,-61 -4,-120 -37,-167 -32,-46 -83,-80 -143,-91l-1 0c-61,-11 -120,4 -167,36 -47,33 -81,84 -92,145 -10,60 5,120 37,167z"/>
   <path class="fil1" d="M17374 7696c-76,-6 -142,-43 -187,-97 -45,-54 -70,-125 -63,-201 6,-75 43,-141 97,-186 54,-46 125,-70 201,-64 75,7 141,44 186,98 45,54 70,125 63,200 -6,76 -43,142 -97,187 -54,45 -125,70 -200,63zm-147 -130c36,44 90,73 151,79 62,5 119,-15 163,-52 44,-36 74,-90 79,-151 5,-62 -15,-120 -51,-163 -37,-44 -90,-74 -152,-79 -61,-6 -119,15 -163,51 -44,37 -74,90 -79,152 -5,61 15,119 52,163z"/>
   <path class="fil1" d="M12569 24771l-2947 7363 -25 -10c-2016,-862 -3754,-2008 -5208,-3436 -1453,-1427 -2623,-3136 -3506,-5124l-11 -24c2451,-995 4902,-1990 7352,-2985l12 20c505,925 1113,1740 1830,2437 718,696 1545,1274 2490,1726l22 10 -9 23zm-2976 7295l2919 -7292c-941,-452 -1766,-1030 -2481,-1725 -716,-695 -1323,-1508 -1830,-2429l-7261 2948c880,1971 2043,3666 3485,5083 1444,1418 3168,2557 5168,3415z"/>
   <path class="fil2" d="M8965 21836l-8336 5321c637,1204 1431,2315 2398,3261 887,867 1919,1594 3111,2126l5212 -8430c-512,-323 -959,-689 -1353,-1076 -393,-387 -733,-794 -1032,-1202zm-8384 5290l8397 -5359 14 19c301,412 644,825 1041,1215 397,390 848,759 1366,1083l22 14c-1754,2837 -3508,5675 -5262,8511l-21 -9c-1206,-535 -2251,-1269 -3146,-2145 -978,-955 -1778,-2079 -2420,-3295l-11 -21 20 -13z"/>
   <path class="fil1" d="M14575 25486l-544 4740c2694,420 5068,292 7145,-347 2076,-638 3855,-1786 5359,-3406l-3305 -3421c-1160,1096 -2550,1885 -4050,2307 -1467,412 -3040,473 -4605,127zm-598 4759l553 -4822 28 6c1566,352 3140,293 4608,-120 1500,-421 2889,-1213 4047,-2312l18 -18c1125,1164 2250,2328 3375,3493l-16 18c-1515,1636 -3307,2795 -5398,3438 -2091,644 -4482,771 -7193,345l-25 -4 3 -24z"/>
   <path class="fil1" d="M24409 21592c562,-837 994,-1704 1281,-2604 287,-900 429,-1833 413,-2803l0 -26c1677,24 3355,48 5032,72l1 25c55,1519 -89,2944 -499,4319 -410,1375 -1086,2698 -2096,4013l-15 20 -4131 -2995 14 -21zm1330 -2589c-286,898 -715,1762 -1274,2597l4051 2937c997,-1303 1665,-2615 2072,-3977 406,-1361 550,-2774 498,-4278l-4931 -71c13,965 -130,1895 -416,2792z"/>
   <path class="fil2" d="M25279 20055c165,-365 310,-747 427,-1128 112,-364 198,-728 251,-1079l4 -25c2863,351 5726,701 8589,1051l-3 25c-82,842 -217,1641 -431,2408 -213,767 -505,1502 -900,2215l-11 21c-2646,-1155 -5291,-2310 -7937,-3465l11 -23zm477 -1113c-116,375 -258,750 -419,1110l7845 3425c387,-703 674,-1428 885,-2184 210,-756 344,-1544 427,-2374l-8489 -1038c-54,345 -139,703 -249,1061z"/>
   <path class="fil1" d="M22825 8986l5676 -7251 20 15c1639,1232 3027,2731 4079,4483 999,1665 1695,3558 2014,5667l3 24 -23 5c-1472,308 -2928,621 -4385,934 -1452,311 -2905,623 -4384,933l-24 5 -7 -23c-244,-914 -609,-1769 -1102,-2562 -493,-794 -1112,-1526 -1864,-2195l-18 -16 15 -19zm5686 -7180l-5631 7193c748,667 1365,1398 1856,2190 491,791 857,1642 1102,2552 1463,-307 2912,-618 4360,-929 1445,-310 2890,-620 4361,-928 -319,-2093 -1011,-3972 -2003,-5624 -1044,-1740 -2421,-3229 -4045,-4454z"/>
   <path class="fil6" d="M26027 14622l7061 -655c-374,-2612 -1187,-4899 -2420,-6874 -1232,-1975 -2883,-3639 -4933,-5007l-3568 6349c1011,736 1868,1647 2528,2706 642,1029 1099,2198 1332,3481zm7093 -607l-7136 663 -4 -23c-230,-1286 -686,-2457 -1328,-3487 -661,-1059 -1520,-1971 -2534,-2705l-19 -14c1207,-2145 2413,-4291 3618,-6437l23 16c2068,1375 3732,3049 4972,5037 1240,1989 2057,4291 2431,6921l4 27 -27 2z"/>
   <path class="fil1" d="M13893 7061l-1690 -6998c-3512,925 -6255,2540 -8267,4868 -2011,2327 -3292,5368 -3877,9140l7126 893c280,-1913 1030,-3598 2178,-4951 1141,-1344 2674,-2361 4530,-2952zm-1646 -7035l1707 7070 -23 7c-1857,587 -3390,1602 -4529,2944 -1147,1351 -1894,3035 -2169,4949l-4 25c-2410,-301 -4819,-603 -7229,-905l4 -26c585,-3795 1870,-6852 3893,-9193 2023,-2341 4784,-3964 8318,-4890l25 -7 7 26z"/>
   <path class="fil1" d="M12828 7451l-1906 -4356c-2119,955 -3838,2233 -5177,3768 -1398,1603 -2381,3486 -2972,5575l4645 1325c374,-1359 1027,-2666 1992,-3792 874,-1020 2005,-1892 3418,-2520zm-1869 -4401l1937 4427 -24 11c-1416,625 -2549,1496 -3423,2516 -966,1128 -1617,2437 -1988,3798l-7 25c-1582,-451 -3163,-902 -4745,-1354l7 -24c592,-2106 1582,-4005 2991,-5620 1348,-1546 3081,-2832 5217,-3792l24 -10 11 23z"/>
   <path class="fil1" d="M16472 6687l213 -4658 25 0c2404,14 4634,493 6584,1447 1885,923 3506,2290 4767,4111l14 19c-1259,1012 -2518,2023 -3777,3035l-16 -22c-941,-1264 -2082,-2242 -3400,-2903 -1297,-651 -2766,-995 -4385,-1002l-27 -1 2 -26zm262 -4606l-210 4581c1617,12 3084,357 4381,1008 1318,661 2459,1637 3402,2897l3698 -2971c-1254,-1803 -2864,-3158 -4734,-4073 -1935,-948 -4150,-1425 -6537,-1442z"/>
   <path class="fil1" d="M25124 15471c-13,-74 6,-147 46,-205 40,-58 103,-100 178,-113 74,-13 147,5 205,46 58,40 100,102 113,177 13,75 -5,148 -46,205 -40,58 -102,100 -177,114 -75,13 -148,-6 -205,-46 -58,-40 -100,-103 -114,-178zm88 -175c-33,46 -47,106 -37,167 11,60 45,111 92,144 47,33 106,47 167,37 61,-11 111,-45 144,-92 33,-47 48,-106 37,-167 -11,-61 -45,-111 -92,-144 -46,-33 -106,-48 -167,-37 -60,11 -111,45 -144,92z"/>
   <path class="fil1" d="M25105 16966c0,-76 31,-144 81,-194l0 0c50,-50 118,-81 194,-81 76,0 145,31 195,81l0 0c49,50 80,118 80,194 0,76 -31,145 -80,194l0 1c-50,49 -119,80 -195,80 -76,0 -144,-31 -194,-80 -50,-50 -81,-119 -81,-195zm117 -158c-40,41 -65,96 -65,158 0,62 25,118 65,158 41,40 97,65 158,65 62,0 118,-25 158,-65 41,-40 66,-96 66,-158 0,-62 -25,-117 -66,-158 -40,-40 -96,-65 -158,-65 -61,0 -117,25 -158,65z"/>
   <path class="fil1" d="M7598 15385c13,-74 55,-137 113,-177 58,-41 131,-59 205,-46 75,13 137,56 178,113 40,58 58,131 45,206 -13,74 -55,137 -113,177 -57,41 -131,59 -205,46 -75,-13 -137,-56 -178,-113 -40,-58 -58,-131 -45,-206zm142 -135c-46,33 -81,83 -91,144 -11,61 4,120 37,167 32,47 83,81 144,92 61,11 120,-4 167,-37 46,-33 81,-83 91,-144 11,-61 -4,-120 -36,-167 -33,-47 -84,-81 -145,-92 -60,-11 -120,4 -167,37z"/>
   <path class="fil1" d="M9651 21994c-44,-62 -58,-136 -46,-205 12,-70 51,-134 113,-178 63,-43 136,-58 206,-46 69,13 134,51 177,114 44,62 58,136 46,205 -13,69 -51,134 -113,177 -63,44 -137,58 -206,46 -69,-12 -134,-51 -177,-113zm5 -197c-10,57 2,117 37,167 35,51 88,82 144,92 56,10 117,-1 167,-37 51,-35 82,-88 92,-144 10,-56 -2,-116 -37,-167 -35,-50 -88,-82 -144,-92 -57,-10 -117,2 -167,37 -51,36 -82,88 -92,144z"/>
   <path class="fil1" d="M10750 23082c-44,-63 -58,-137 -46,-206 13,-69 51,-134 113,-177 63,-44 137,-58 206,-46 69,12 134,51 177,113 44,63 58,136 46,206 -12,69 -51,133 -113,177 -62,44 -136,58 -206,46 -69,-13 -133,-51 -177,-113zm5 -197c-10,56 2,117 37,167 35,51 88,82 144,92 57,10 117,-2 167,-37 51,-35 82,-88 92,-144 10,-57 -2,-117 -37,-167 -35,-51 -88,-82 -144,-92 -56,-10 -117,2 -167,37 -50,35 -82,88 -92,144z"/>
   <path class="fil1" d="M15807 25234c-75,-13 -137,-55 -178,-113 -40,-58 -59,-131 -45,-205 13,-75 55,-137 113,-178 57,-40 130,-58 205,-45 75,13 137,55 178,113 40,58 58,131 45,205 -13,75 -55,137 -113,178 -58,40 -131,58 -205,45zm-136 -142c33,46 84,81 145,91 60,11 120,-4 167,-36 46,-33 81,-84 91,-145 11,-60 -4,-120 -37,-167 -32,-46 -83,-81 -144,-91 -61,-11 -120,4 -167,37 -46,32 -81,83 -92,144 -10,61 5,120 37,167z"/>
   <path class="fil1" d="M17405 24687c76,0 144,30 194,80 50,50 81,119 81,194 0,76 -31,145 -81,195l0 0c-50,50 -119,80 -194,80 -76,0 -145,-30 -195,-80l0 0c-50,-50 -80,-119 -80,-195 0,-75 30,-144 80,-194l0 0c50,-50 119,-80 195,-80zm158 117c-41,-41 -97,-66 -158,-66 -62,0 -118,25 -158,66 -41,40 -66,96 -66,157 0,62 25,118 66,158 40,41 96,66 158,66 61,0 117,-25 158,-66 40,-40 65,-96 65,-158 0,-61 -25,-117 -65,-157z"/>
  </g>
 </g>
</svg>
