<?xml version="1.0" encoding="UTF-8"?>
<!DOCTYPE svg PUBLIC "-//W3C//DTD SVG 1.1//EN" "http://www.w3.org/Graphics/SVG/1.1/DTD/svg11.dtd">
<!-- Creator: CorelDRAW X7 -->
<svg xmlns="http://www.w3.org/2000/svg" xml:space="preserve" width="39.9999mm" height="56.0233mm" version="1.1" style="shape-rendering:geometricPrecision; text-rendering:geometricPrecision; image-rendering:optimizeQuality; fill-rule:evenodd; clip-rule:evenodd"
viewBox="0 0 45 63"
 xmlns:xlink="http://www.w3.org/1999/xlink">
 <defs>
  <style type="text/css">
   <![CDATA[
    .fil0 {fill:#4DFFFF;fill-rule:nonzero}
   ]]>
  </style>
 </defs>
 <g id="Слой_x0020_1">
  <metadata id="CorelCorpID_0Corel-Layer"/>
  <path class="fil0" d="M45 43c0,6 -2,10 -6,14 -4,4 -8,6 -14,6l-5 0c-6,0 -10,-2 -14,-6 -4,-3 -6,-8 -6,-14l0 -23c0,-5 2,-10 6,-14 4,-4 8,-6 14,-6l5 0c6,0 10,2 14,6 4,4 6,8 6,14l0 23zm-9 0l0 -23c0,-3 -1,-6 -3,-8 -2,-2 -5,-3 -8,-3l-5 0c-3,0 -6,1 -8,3 -2,2 -3,5 -3,8l0 23c0,3 1,6 3,8 2,2 5,3 8,3l5 0c3,0 6,-1 8,-3 2,-2 3,-5 3,-8z"/>
 </g>
</svg>
