<?xml version="1.0" encoding="UTF-8"?>
<!DOCTYPE svg PUBLIC "-//W3C//DTD SVG 1.1//EN" "http://www.w3.org/Graphics/SVG/1.1/DTD/svg11.dtd">
<!-- Creator: CorelDRAW X7 -->
<svg xmlns="http://www.w3.org/2000/svg" xml:space="preserve" width="53.0434mm" height="53.0434mm" version="1.1" style="shape-rendering:geometricPrecision; text-rendering:geometricPrecision; image-rendering:optimizeQuality; fill-rule:evenodd; clip-rule:evenodd"
viewBox="0 0 129 129"
 xmlns:xlink="http://www.w3.org/1999/xlink">
 <defs>
  <style type="text/css">
   <![CDATA[
    .fil0 {fill:#4DFFFF;fill-rule:nonzero}
   ]]>
  </style>
 </defs>
 <g id="Слой_x0020_1">
  <metadata id="CorelCorpID_0Corel-Layer"/>
  <g id="_2289242826208">
   <path class="fil0" d="M64 0c18,0 34,7 46,19 11,11 19,28 19,45 0,18 -8,34 -19,46 -12,11 -28,19 -46,19 -17,0 -34,-8 -45,-19 -12,-12 -19,-28 -19,-46 0,-17 7,-34 19,-45 11,-12 28,-19 45,-19zm40 25c-10,-10 -24,-16 -40,-16 -15,0 -29,6 -39,16 -10,10 -16,24 -16,39 0,16 6,30 16,40 10,10 24,16 39,16 16,0 30,-6 40,-16 10,-10 16,-24 16,-40 0,-15 -6,-29 -16,-39z"/>
   <path class="fil0" d="M25 66c-2,-3 -2,-6 1,-9 2,-2 6,-2 8,1l23 24 35 -43c2,-2 6,-3 8,0 3,2 3,5 1,8l-38 48c-1,0 -1,0 -1,1 -2,2 -6,2 -9,-1l-28 -29z"/>
  </g>
 </g>
</svg>
