<?xml version="1.0" encoding="UTF-8"?>
<!DOCTYPE svg PUBLIC "-//W3C//DTD SVG 1.1//EN" "http://www.w3.org/Graphics/SVG/1.1/DTD/svg11.dtd">
<!-- Creator: CorelDRAW X7 -->
<svg xmlns="http://www.w3.org/2000/svg" xml:space="preserve" width="190.363mm" height="51.1689mm" version="1.1" style="shape-rendering:geometricPrecision; text-rendering:geometricPrecision; image-rendering:optimizeQuality; fill-rule:evenodd; clip-rule:evenodd"
viewBox="0 0 882 237"
 xmlns:xlink="http://www.w3.org/1999/xlink">
 <defs>
  <style type="text/css">
   <![CDATA[
    .fil1 {fill:#103845}
    .fil0 {fill:#4DFFFF;fill-rule:nonzero}
   ]]>
  </style>
 </defs>
 <g id="Слой_x0020_1">
  <metadata id="CorelCorpID_0Corel-Layer"/>
  <g id="_2275065896896">
   <path class="fil0" d="M841 237l-799 0 -42 -42 0 -153 42 -42 799 0 41 42 0 153 -41 42zm-798 -2l0 0 796 0 41 -41 0 -151 -41 -40 -796 0 -40 40 0 151 40 41z"/>
  </g>
  <path class="fil1" d="M46 227l-36 -36 0 -145 36 -36 790 0 36 36 0 145 -36 36 -790 0zm22 -28l-24 0 0 -160 24 0 0 160zm41 0l-25 0 0 -160 25 0 0 160zm40 0l-24 0 0 -160 24 0 0 160zm41 0l-25 0 0 -160 25 0 0 160zm40 0l-24 0 0 -160 24 0 0 160zm41 0l-25 0 0 -160 25 0 0 160zm40 0l-24 0 0 -160 24 0 0 160zm41 0l-24 0 0 -160 24 0 0 160zm41 0l-25 0 0 -160 25 0 0 160zm40 0l-24 0 0 -160 24 0 0 160zm41 0l-25 0 0 -160 25 0 0 160zm40 0l-24 0 0 -160 24 0 0 160zm41 0l-25 0 0 -160 25 0 0 160zm41 0l-25 0 0 -160 25 0 0 160zm40 0l-24 0 0 -160 24 0 0 160zm41 0l-25 0 0 -160 25 0 0 160zm40 0l-24 0 0 -160 24 0 0 160zm41 0l-25 0 0 -160 25 0 0 160zm40 0l-24 0 0 -160 24 0 0 160zm41 0l-25 0 0 -160 25 0 0 160z"/>
  <g id="_2275065898976">
   <path class="fil0" d="M836 227l-790 0 -36 -36 0 -145 36 -36 790 0 36 36 0 145 -36 36zm-789 -3l0 0 788 0 35 -34 0 -143 -35 -34 -788 0 -34 34 0 143 34 34z"/>
  </g>
 </g>
</svg>
