<?xml version="1.0" encoding="UTF-8"?>
<!DOCTYPE svg PUBLIC "-//W3C//DTD SVG 1.1//EN" "http://www.w3.org/Graphics/SVG/1.1/DTD/svg11.dtd">
<!-- Creator: CorelDRAW X7 -->
<svg xmlns="http://www.w3.org/2000/svg" xml:space="preserve" width="149.6mm" height="40.2118mm" version="1.1" style="shape-rendering:geometricPrecision; text-rendering:geometricPrecision; image-rendering:optimizeQuality; fill-rule:evenodd; clip-rule:evenodd"
viewBox="0 0 2911 783"
 xmlns:xlink="http://www.w3.org/1999/xlink">
 <defs>
  <style type="text/css">
   <![CDATA[
    .fil0 {fill:#4DFFFF;fill-rule:nonzero}
   ]]>
  </style>
 </defs>
 <g id="Слой_x0020_1">
  <metadata id="CorelCorpID_0Corel-Layer"/>
  <g id="_3014240074048">
   <path class="fil0" d="M2773 783l-2634 0 -139 -139 0 -505 139 -139 2634 0 138 139 0 505 -138 139zm-2631 -9l0 0 2627 0 134 -133 0 -499 -134 -133 -2627 0 -133 133 0 499 133 133z"/>
  </g>
  <g id="_3014240073792">
   <path class="fil0" d="M2759 749l-2606 0 -119 -119 0 -477 119 -119 2606 0 118 119 0 477 -118 119zm-2603 -9l0 0 2599 0 114 -114 0 -470 -114 -113 -2599 0 -113 113 0 470 113 114z"/>
  </g>
 </g>
</svg>
