<?xml version="1.0" encoding="UTF-8"?>
<!DOCTYPE svg PUBLIC "-//W3C//DTD SVG 1.1//EN" "http://www.w3.org/Graphics/SVG/1.1/DTD/svg11.dtd">
<!-- Creator: CorelDRAW X7 -->
<svg xmlns="http://www.w3.org/2000/svg" xml:space="preserve" width="53.0434mm" height="53.0427mm" version="1.1" style="shape-rendering:geometricPrecision; text-rendering:geometricPrecision; image-rendering:optimizeQuality; fill-rule:evenodd; clip-rule:evenodd"
viewBox="0 0 55 55"
 xmlns:xlink="http://www.w3.org/1999/xlink">
 <defs>
  <style type="text/css">
   <![CDATA[
    .fil0 {fill:#4DFFFF;fill-rule:nonzero}
   ]]>
  </style>
 </defs>
 <g id="Слой_x0020_1">
  <metadata id="CorelCorpID_0Corel-Layer"/>
  <g id="_1884860194640">
   <path class="fil0" d="M27 0c8,0 15,3 20,8 5,5 8,12 8,19 0,8 -3,15 -8,20 -5,5 -12,8 -20,8 -7,0 -14,-3 -19,-8 -5,-5 -8,-12 -8,-20 0,-7 3,-14 8,-19 5,-5 12,-8 19,-8zm17 11c-4,-5 -10,-7 -17,-7 -6,0 -12,2 -16,7 -5,4 -7,10 -7,16 0,7 2,13 7,17 4,5 10,7 16,7 7,0 13,-2 17,-7 5,-4 7,-10 7,-17 0,-6 -2,-12 -7,-16z"/>
   <path class="fil0" d="M40 40l-25 0c0,0 -1,0 -1,-1 0,0 0,-1 0,-1 0,-1 0,-1 0,-1l0 -1c1,-4 3,-6 7,-7 0,-1 -1,-2 -1,-3 -1,-2 -1,-5 -1,-7 0,-2 1,-3 2,-4 2,-2 4,-3 6,-3 3,0 5,1 7,3 1,1 2,3 2,7 0,1 0,3 -1,4 0,1 -1,2 -1,3l1 1 2 0c1,1 2,2 3,3 1,2 1,3 1,5 0,0 0,1 0,1 0,1 -1,1 -1,1z"/>
  </g>
 </g>
</svg>
