<?xml version="1.0" encoding="UTF-8"?>
<!DOCTYPE svg PUBLIC "-//W3C//DTD SVG 1.1//EN" "http://www.w3.org/Graphics/SVG/1.1/DTD/svg11.dtd">
<!-- Creator: CorelDRAW X7 -->
<svg xmlns="http://www.w3.org/2000/svg" xml:space="preserve" width="53.0434mm" height="53.0434mm" version="1.1" style="shape-rendering:geometricPrecision; text-rendering:geometricPrecision; image-rendering:optimizeQuality; fill-rule:evenodd; clip-rule:evenodd"
viewBox="0 0 53 53"
 xmlns:xlink="http://www.w3.org/1999/xlink">
 <defs>
  <style type="text/css">
   <![CDATA[
    .fil1 {fill:#4DFFFF}
    .fil0 {fill:#4DFFFF;fill-rule:nonzero}
   ]]>
  </style>
 </defs>
 <g id="Слой_x0020_1">
  <metadata id="CorelCorpID_0Corel-Layer"/>
  <g id="_1884711003712">
   <path class="fil0" d="M17 15l-2 2c0,1 1,1 1,2l0 0c1,1 1,1 1,2 0,0 -1,0 -1,0 0,0 0,1 0,1 0,1 0,1 -1,1 0,1 0,1 -1,2l-2 0 0 3 1 0c1,1 1,1 2,1l0 0c0,0 0,0 0,0 0,1 0,1 0,1l0 0c1,1 1,1 1,1 0,1 0,1 0,1l1 1 0 1c-1,0 -1,1 -1,1 0,0 -1,1 -1,1l2 2 1 0c0,0 1,-1 2,-1 0,0 1,0 2,0l0 1c1,0 1,0 1,0 1,0 1,0 1,1l1 3 3 0 1 -3c0,0 0,-1 0,-1 1,0 1,0 1,0 0,0 0,0 1,0l1 -1c0,0 1,0 1,0 0,0 0,0 0,0 0,0 1,0 1,0l0 0c1,0 2,1 2,1l2 -2 0 0c-1,-1 -1,-2 -1,-3 0,0 0,-1 1,-1 0,-1 1,-2 1,-2l0 -1 3 -1 0 -3c-1,0 -2,0 -3,0 0,-1 0,-1 -1,-1 0,0 0,0 0,0l0 -1c0,-1 -1,-1 -1,-2 0,0 0,-1 0,-1 0,0 0,-1 0,-1 1,0 1,-1 1,-2l-2 -2 -1 1c-1,0 -1,0 -1,1l-1 0 0 0 -1 -1 -1 0c-1,0 -1,-1 -1,-1 -1,0 -1,0 -1,-1l-1 -1 0 -1 -3 0 0 2c-1,1 -1,1 -1,1 0,0 0,0 0,0l-1 0c0,1 -1,1 -1,1 -1,0 -1,1 -2,1 0,0 -1,-1 -2,-1l-1 -1zm-3 1l3 -3 0 0c1,0 1,1 2,1 1,1 1,1 1,1 0,0 1,0 1,-1 0,0 1,0 2,0 0,-2 1,-3 1,-4l5 0 1 1 0 1 1 2c0,0 0,0 0,0l2 1 0 0 1 -1c1,0 2,0 2,-1l1 0 3 4 0 0c0,2 -1,2 -1,3l0 0c0,0 0,0 0,1 0,0 0,1 1,2l1 0c1,1 1,1 2,1l0 0 0 5 0 1c-1,0 -2,0 -2,0l-1 0c0,1 0,2 -1,2l0 2c0,0 0,0 1,1 0,1 0,1 0,1l0 1 -3 3 -1 0c-1,0 -2,-1 -3,-1l0 0 -1 0c0,0 0,0 -1,1 0,0 0,0 0,0l-1 1c0,0 0,1 0,2l-1 0 -5 0c0,-1 -1,-2 -1,-3 0,0 0,0 0,0 -1,0 -1,-1 -2,-1l0 0c0,0 0,-1 0,0l0 0 -1 0c0,0 -1,0 -1,0 -1,1 -1,1 -2,1l0 0 -4 -3 0 -1c1,0 1,-1 1,-2l1 -1c0,0 0,0 0,0 0,0 -1,0 -1,-1 0,0 0,-1 0,-1l0 0 -2 -1c0,0 -1,0 -1,0l-1 -1 0 -5 4 -1c0,0 0,-1 0,-1 0,-1 1,-1 1,-2 0,0 0,0 0,0 0,0 0,0 0,0l-1 -1c0,0 -1,-1 -1,-2l0 0 1 -1zm26 7l0 0 0 0zm-17 -9l0 0 0 0zm4 4c2,0 5,1 6,2 2,2 3,4 3,7 0,2 -1,5 -3,6 -1,2 -4,3 -6,3 -3,0 -5,-1 -7,-3 -1,-1 -2,-4 -2,-6 0,-3 1,-5 2,-7 2,-1 4,-2 7,-2zm5 4c-1,-2 -3,-3 -5,-3 -2,0 -4,1 -5,3 -2,1 -3,3 -3,5 0,2 1,4 3,5 1,1 3,2 5,2 2,0 4,-1 5,-2 1,-1 2,-3 2,-5 0,-2 -1,-4 -2,-5z"/>
   <path class="fil0" d="M27 0c7,0 14,3 19,8 4,5 7,11 7,19 0,7 -3,14 -7,19 -5,4 -12,7 -19,7 -8,0 -14,-3 -19,-7 -5,-5 -8,-12 -8,-19 0,-8 3,-14 8,-19 5,-5 11,-8 19,-8zm16 10c-4,-4 -10,-6 -16,-6 -7,0 -12,2 -17,6 -4,5 -6,10 -6,17 0,6 2,12 6,16 5,4 10,7 17,7 6,0 12,-3 16,-7 4,-4 7,-10 7,-16 0,-7 -3,-12 -7,-17z"/>
   <path class="fil1" d="M11 29l0 -4 3 -1 2 -4 -2 -3 3 -3 3 2 0 0 3 -2 2 -3 4 0 1 3 3 1 4 -1 2 3 -1 3 1 3 4 2 0 4 -4 2 0 0 -1 3 1 2 -2 3 -4 -1 -3 1 -2 4 -3 0 -1 -4 -4 -1 -3 1 -2 -2 1 -4 -2 -3 -3 -1zm16 -8c3,0 6,3 6,6 0,4 -3,6 -6,6 -3,0 -6,-2 -6,-6 0,-3 3,-6 6,-6z"/>
  </g>
 </g>
</svg>
