<?xml version="1.0" encoding="UTF-8"?>
<!DOCTYPE svg PUBLIC "-//W3C//DTD SVG 1.1//EN" "http://www.w3.org/Graphics/SVG/1.1/DTD/svg11.dtd">
<!-- Creator: CorelDRAW X7 -->
<svg xmlns="http://www.w3.org/2000/svg" xml:space="preserve" width="57.0715mm" height="57.0722mm" version="1.1" style="shape-rendering:geometricPrecision; text-rendering:geometricPrecision; image-rendering:optimizeQuality; fill-rule:evenodd; clip-rule:evenodd"
viewBox="0 0 72 72"
 xmlns:xlink="http://www.w3.org/1999/xlink">
 <defs>
  <style type="text/css">
   <![CDATA[
    .fil1 {fill:#4DFFFF;fill-rule:nonzero}
    .fil2 {fill:#4DFFFF;fill-rule:nonzero}
    .fil0 {fill:#4DFFFF;fill-rule:nonzero;fill-opacity:0.101961}
   ]]>
  </style>
 </defs>
 <g id="Слой_x0020_1">
  <metadata id="CorelCorpID_0Corel-Layer"/>
  <g id="_1884653116640">
   <polygon class="fil0" points="66,66 7,66 7,7 66,7 "/>
   <polygon class="fil1" points="1,9 0,9 0,0 9,0 9,1 1,1 "/>
   <polygon class="fil1" points="72,9 71,9 71,1 63,1 63,0 72,0 "/>
   <polygon class="fil1" points="72,72 63,72 63,71 71,71 71,63 72,63 "/>
   <polygon class="fil1" points="9,72 0,72 0,63 1,63 1,71 9,71 "/>
   <path class="fil1" d="M55 49l-26 0c-1,0 -1,0 -1,-1 0,-1 0,-2 0,-3 0,0 0,0 1,0 0,0 0,0 0,1 0,0 -1,1 -1,2 0,0 1,1 1,1l26 0c0,0 1,-1 1,-1 0,-3 -2,-6 -5,-7l-4 -2c0,0 0,0 0,0 0,0 0,0 0,0 1,-2 3,-4 3,-8 0,-7 -4,-10 -8,-10 -4,0 -8,3 -8,10 0,4 2,6 3,8 0,0 0,0 0,0 0,0 0,0 0,0l-2 1c0,0 0,0 0,0 -1,0 -1,-1 -2,-1l-2 -1c0,0 0,0 0,0 0,0 0,0 0,-1 1,-1 2,-3 2,-5 0,-5 -3,-7 -6,-7 -3,0 -6,2 -6,7 0,2 0,4 2,5 0,1 0,1 0,1 0,0 0,0 -1,0l-2 1c-2,1 -3,3 -3,5 0,1 0,1 0,1 0,0 1,0 1,1 0,0 -1,0 -1,0 -1,0 -1,-1 -1,-2 0,-2 1,-4 4,-5l2 -1c-1,-2 -2,-4 -2,-6 0,-5 3,-8 7,-8 3,0 6,3 6,8 0,2 0,4 -1,6l2 1c0,0 0,0 1,0l1 0c-1,-2 -3,-4 -3,-8 0,-7 5,-10 9,-10 4,0 9,3 9,10 0,4 -2,6 -3,8l4 2c3,1 4,4 4,7 0,1 0,1 -1,1z"/>
   <path class="fil2" d="M55 50l-26 0c0,0 -1,0 -1,0 -1,-1 -1,-1 -1,-2 0,0 0,-1 0,-1 0,-1 0,-1 1,-2 0,0 0,0 0,0 0,0 1,0 1,0 0,0 0,0 0,0 0,0 0,1 0,1 0,0 0,1 0,1 0,0 0,1 0,1l0 0 0 0 26 0 0 0 0 0c0,-1 0,-3 -1,-4 -1,-1 -2,-2 -3,-2l-4 -2c0,0 0,0 0,-1 -1,0 -1,0 -1,0 0,0 0,0 0,0 0,-1 1,-1 1,-1 0,-1 1,-2 2,-3 0,-1 0,-3 0,-4 0,-3 0,-5 -2,-7 -1,-1 -3,-2 -5,-2 -2,0 -4,1 -5,2 -1,2 -2,4 -2,7 0,2 0,3 1,4 0,2 1,3 1,3 1,0 1,0 1,1 0,0 0,0 0,0 0,0 0,0 0,0 -1,1 -1,1 -1,1l-2 1c0,0 0,0 0,0 0,0 -1,0 -1,0l0 -1 -1 0 -2 -1c-1,0 -1,-1 -1,-1 0,0 0,0 0,0 0,0 0,0 0,-1 0,0 0,0 0,0 1,-1 1,-1 2,-2 0,-1 0,-2 0,-3 0,-2 -1,-4 -1,-5 -1,-1 -3,-1 -4,-1 -2,0 -3,0 -4,1 -1,1 -2,3 -2,5 0,1 0,2 1,3 0,1 0,1 1,2 0,0 0,0 0,0 0,1 0,1 0,1 0,0 0,0 0,0 0,0 0,1 0,1l-3 1c-1,0 -2,1 -2,2 -1,1 -1,2 -1,2l0 1 0 0c1,0 1,0 1,0 0,0 0,0 0,1 0,0 0,0 0,0 0,0 0,1 -1,1 0,0 -1,-1 -1,-1 -1,0 -1,-1 -1,-2 0,-1 1,-2 1,-3 1,-1 2,-2 3,-3l2 -1c-1,0 -1,-1 -1,-2 0,-1 -1,-2 -1,-3 0,-3 1,-5 2,-6 2,-2 4,-2 6,-2 2,0 4,0 5,2 0,0 1,1 1,2 0,-2 1,-4 2,-5 2,-2 5,-3 7,-3 3,0 5,1 7,3 1,2 2,4 2,8 0,1 0,3 0,4 -1,2 -1,3 -2,4l3 1c2,1 3,2 4,3 1,2 1,3 1,5 0,1 0,1 -1,2 0,0 0,0 -1,0zm-22 -15l0 0c0,1 0,2 -1,2l2 1 1 0 0 1 0 0c0,-1 -1,-2 -1,-4l-1 0z"/>
  </g>
 </g>
</svg>
