<?xml version="1.0" encoding="UTF-8"?>
<!DOCTYPE svg PUBLIC "-//W3C//DTD SVG 1.1//EN" "http://www.w3.org/Graphics/SVG/1.1/DTD/svg11.dtd">
<!-- Creator: CorelDRAW X7 -->
<svg xmlns="http://www.w3.org/2000/svg" xml:space="preserve" width="57.0715mm" height="57.0722mm" version="1.1" style="shape-rendering:geometricPrecision; text-rendering:geometricPrecision; image-rendering:optimizeQuality; fill-rule:evenodd; clip-rule:evenodd"
viewBox="0 0 72 72"
 xmlns:xlink="http://www.w3.org/1999/xlink">
 <defs>
  <style type="text/css">
   <![CDATA[
    .fil1 {fill:#4DFFFF;fill-rule:nonzero}
    .fil2 {fill:#4DFFFF;fill-rule:nonzero}
    .fil0 {fill:#4DFFFF;fill-rule:nonzero;fill-opacity:0.101961}
   ]]>
  </style>
 </defs>
 <g id="Слой_x0020_1">
  <metadata id="CorelCorpID_0Corel-Layer"/>
  <g id="_1884653117024">
   <polygon class="fil0" points="66,66 7,66 7,7 66,7 "/>
   <polygon class="fil1" points="1,9 0,9 0,0 9,0 9,1 1,1 "/>
   <polygon class="fil1" points="72,9 71,9 71,1 63,1 63,0 72,0 "/>
   <polygon class="fil1" points="72,72 63,72 63,71 71,71 71,63 72,63 "/>
   <polygon class="fil1" points="9,72 0,72 0,63 1,63 1,71 9,71 "/>
   <g>
    <path class="fil2" d="M29 55l15 0c1,0 0,0 1,0 1,0 2,0 4,-1 1,0 2,0 2,-1 1,-1 2,-2 2,-3 0,-3 -2,-5 -4,-7l0 0 -4 -5c-3,-3 -3,-3 -3,-6 0,0 0,-1 0,-1l0 0 0 -7 1 0 0 -1 -1 0c-4,0 -10,0 -12,0l0 1 1 0 0 7c0,1 0,1 0,1 0,1 0,2 0,3 0,0 -1,1 -2,1 0,1 0,1 -1,2l0 0 -2 2c0,1 0,1 -1,1 -2,3 -5,6 -5,9 0,1 1,2 1,2 0,1 1,1 1,2 1,0 2,1 3,1 1,0 3,0 4,0zm15 2l-15 0c-1,0 -3,0 -4,0 -2,-1 -3,-1 -4,-2 -1,-1 -1,-1 -2,-2 0,-1 0,-1 0,-3 -1,-4 2,-7 5,-10 0,0 0,-1 1,-1l2 -2 0 0c0,-1 1,-1 1,-2 1,0 1,-1 1,-1 0,0 0,-1 0,-2 0,-1 0,0 0,-1l0 -5 -1 0 0 -5 1 0c1,0 9,0 13,0 1,0 1,0 2,0l1 0 0 5 -1 0 0 5 0 0c0,0 0,1 0,1 0,2 0,2 2,4l0 1c2,1 3,3 5,5 1,2 4,5 4,8 -1,2 -1,4 -2,4 -1,1 -3,2 -4,2 -2,1 -2,1 -4,1l0 0c0,0 0,0 -1,0zm-10 -14c-1,0 -1,1 -1,1 0,0 0,1 0,1 0,0 0,0 0,0 0,1 1,1 2,1 0,-1 1,-1 1,-2 0,0 0,0 -1,0 0,0 0,-1 0,-1 0,0 -1,0 -1,0zm-3 1c0,-1 0,-2 2,-3l-1 0c-1,2 -3,4 -4,6 -1,2 -2,4 -2,6l0 1 -1 -1c-1,0 -1,0 -2,0 -1,-1 -1,-1 -1,-2l0 0c0,-1 0,-1 0,-2 0,-1 1,-2 1,-3 1,-2 3,-4 5,-6 2,-3 4,-5 4,-5 1,-1 0,-7 0,-9l0 -1 0 -1 9 0 0 1c0,0 0,1 0,2 -1,3 -1,7 0,8 0,0 0,1 1,2 0,0 0,0 1,0 0,0 0,1 0,1 1,0 1,1 2,2l1 1 -10 0c0,1 0,1 1,1 0,0 0,1 0,1 0,1 0,1 0,2 0,1 0,2 -2,2 -1,1 -2,1 -3,0 -1,-1 -1,-1 -1,-2 0,0 0,0 0,-1zm12 3c-1,0 -2,1 -2,2 0,0 0,0 0,1 1,0 1,0 1,1 0,0 1,0 2,0 1,0 1,0 2,-1 0,0 0,-1 0,-2 0,0 0,0 0,0 0,0 -1,-1 -1,-1 -1,0 -1,0 -2,0 0,0 0,0 0,0zm-4 2c0,-2 1,-3 3,-4 0,0 0,0 1,0 1,0 2,0 3,0 1,1 1,2 2,3 0,0 0,0 0,0 0,1 0,2 -1,3 0,1 -1,2 -2,2 -2,1 -4,0 -5,-1 0,-1 0,-1 0,-2 -1,0 -1,-1 -1,-1zm-15 2c1,-1 2,-3 2,-4 2,-3 3,-6 5,-7l0 0 11 -1 0 0c-1,0 -1,0 -1,-1 0,0 0,0 0,0 -1,-1 -2,-2 -2,-3 0,-1 0,-5 0,-8l0 -1 -5 0c0,2 1,8 0,9 0,1 -2,3 -4,6 -2,2 -4,4 -5,6 -1,1 -1,2 -1,2 0,1 0,1 0,1 0,1 0,1 0,1 0,0 0,0 0,0z"/>
    <path class="fil2" d="M40 14c-1,0 -1,0 -1,1 0,0 0,0 0,1l0 0c0,0 0,0 0,0 1,0 1,0 1,0l1 0c0,0 0,0 0,-1 0,0 0,0 0,0 0,-1 0,-1 0,-1 0,0 -1,0 -1,0zm-3 0c0,-1 1,-1 2,-2 1,0 3,0 3,1 1,0 1,1 1,1 0,0 0,1 0,1 0,1 0,3 -2,3 0,0 0,0 0,0 -1,0 -2,0 -2,0 -1,0 -2,-1 -2,-2 0,0 0,0 0,0 0,-1 0,-2 0,-2z"/>
   </g>
  </g>
 </g>
</svg>
