<?xml version="1.0" encoding="UTF-8"?>
<!DOCTYPE svg PUBLIC "-//W3C//DTD SVG 1.1//EN" "http://www.w3.org/Graphics/SVG/1.1/DTD/svg11.dtd">
<!-- Creator: CorelDRAW X7 -->
<svg xmlns="http://www.w3.org/2000/svg" xml:space="preserve" width="49.9997mm" height="50.0005mm" version="1.1" style="shape-rendering:geometricPrecision; text-rendering:geometricPrecision; image-rendering:optimizeQuality; fill-rule:evenodd; clip-rule:evenodd"
viewBox="0 0 44 44"
 xmlns:xlink="http://www.w3.org/1999/xlink">
 <defs>
  <style type="text/css">
   <![CDATA[
    .fil0 {fill:#4DFFFF;fill-rule:nonzero}
   ]]>
  </style>
 </defs>
 <g id="Слой_x0020_1">
  <metadata id="CorelCorpID_0Corel-Layer"/>
  <g id="_1884971026080">
   <path class="fil0" d="M22 0c6,0 12,2 16,6 4,4 6,10 6,16 0,6 -2,12 -6,16 -4,4 -10,6 -16,6 -6,0 -12,-2 -16,-6 -4,-4 -6,-10 -6,-16 0,-6 2,-12 6,-16 4,-4 10,-6 16,-6zm14 8c-3,-4 -8,-6 -14,-6 -6,0 -11,2 -14,6 -4,3 -6,8 -6,14 0,6 2,11 6,14 3,4 8,6 14,6 6,0 11,-2 14,-6 4,-3 6,-8 6,-14 0,-6 -2,-11 -6,-14z"/>
   <path class="fil0" d="M11 20c0,-3 0,-6 2,-7 2,-2 4,-3 6,-3 3,0 5,1 6,3 2,2 3,4 3,7 0,2 -1,4 -2,5 0,2 -1,3 -3,3 -1,1 -2,1 -4,1 -3,0 -5,0 -6,-2 -2,-2 -2,-4 -2,-7zm3 0c0,2 0,4 1,5 1,1 2,2 4,2 2,0 3,-1 4,-2 1,-1 1,-3 1,-5 0,-2 0,-4 -1,-5 -1,-1 -2,-2 -4,-2 -2,0 -3,1 -4,2 -1,1 -1,3 -1,5z"/>
   <path class="fil0" d="M34 33l0 1 -6 0c0,-1 0,-1 0,-1 0,-1 0,-1 1,-1 0,-1 1,-1 1,-2 1,0 2,-1 2,-1 0,-1 0,-1 0,-2 0,0 0,0 0,-1 0,0 -1,0 -1,0 -1,0 -1,0 -1,0 -1,1 -1,1 -1,2l-1 0c0,-1 0,-2 1,-2 0,-1 1,-1 2,-1 1,0 1,0 2,1 0,0 1,1 1,1 0,1 -1,1 -1,1 0,1 0,1 0,1 -1,1 -1,1 -2,2 -1,0 -1,1 -1,1 0,0 0,0 -1,1l5 0z"/>
  </g>
 </g>
</svg>
