<?xml version="1.0" encoding="UTF-8"?>
<!DOCTYPE svg PUBLIC "-//W3C//DTD SVG 1.1//EN" "http://www.w3.org/Graphics/SVG/1.1/DTD/svg11.dtd">
<!-- Creator: CorelDRAW X7 -->
<svg xmlns="http://www.w3.org/2000/svg" xml:space="preserve" width="53.0427mm" height="53.0434mm" version="1.1" style="shape-rendering:geometricPrecision; text-rendering:geometricPrecision; image-rendering:optimizeQuality; fill-rule:evenodd; clip-rule:evenodd"
viewBox="0 0 55 55"
 xmlns:xlink="http://www.w3.org/1999/xlink">
 <defs>
  <style type="text/css">
   <![CDATA[
    .fil1 {fill:#4DFFFF}
    .fil0 {fill:#4DFFFF;fill-rule:nonzero}
   ]]>
  </style>
 </defs>
 <g id="Слой_x0020_1">
  <metadata id="CorelCorpID_0Corel-Layer"/>
  <g id="_1884574548848">
   <path class="fil0" d="M43 21l-1 0c-2,1 -4,3 -5,2l-4 -2 0 -4 1 -1c0,0 1,0 2,-1 1,-1 2,-2 3,-2 0,-1 -1,-1 -2,-1 -1,0 -2,0 -3,0 -1,0 -1,0 -2,0 -2,2 -3,3 -4,5 0,1 0,2 0,3 0,1 0,2 0,3 1,2 3,3 5,4 2,1 4,0 5,0 2,-1 3,-2 4,-4 0,0 1,-1 1,-2l0 0zm-2 -1c1,0 1,-1 2,-1l0 0 0 0c1,1 1,1 1,2 0,1 0,2 -1,3l0 0c-1,2 -2,3 -4,4 -2,1 -4,1 -6,0 -3,0 -5,-2 -6,-5 0,-1 -1,-2 -1,-3 0,-1 0,-2 1,-3 0,-2 2,-5 5,-6 0,0 1,0 1,0 2,0 3,0 4,0 2,0 3,1 3,2 0,0 0,0 0,0l1 0 -1 1c0,0 -2,1 -3,2l-2 1 0 4 3 1 3 -2z"/>
   <path class="fil0" d="M13 39c1,1 1,1 1,2 1,0 1,0 2,1 0,0 0,0 1,0 0,0 0,0 1,0 0,-1 1,-1 1,-2l1 -1 6 -6c1,0 2,-1 2,-2l0 0c-1,0 -1,0 -2,-2 -1,0 -2,-1 -2,-2 -1,1 -1,1 -2,2 -3,2 -5,5 -8,7 -1,1 -1,2 -1,3zm0 2c0,0 0,0 -1,-1 -1,-2 0,-3 1,-5 3,-2 5,-5 8,-7 1,-1 2,-2 2,-3l1 0 1 1c0,1 1,2 2,3 0,1 1,1 2,1 0,0 0,0 1,1l0 0 0 1c-1,0 -2,1 -3,2l-6 6 -1 1c0,1 -1,1 -2,2 0,0 -1,1 -2,0 0,0 -1,0 -1,0 -1,-1 -1,-1 -2,-2zm5 -4c0,0 -1,0 -1,0l0 0 1 1c0,0 0,0 0,0 0,0 0,-1 0,-1l0 0 0 0c0,0 0,0 0,0zm-2 0c0,-1 1,-1 1,-2 1,0 2,0 2,1 1,0 1,0 1,1 0,0 0,0 0,0 0,1 -1,2 -2,2 0,0 -1,0 -1,-1 -1,0 -1,0 -1,0 0,-1 0,-1 0,-1z"/>
   <path class="fil0" d="M28 0c7,0 14,3 19,8 5,5 8,12 8,20 0,7 -3,14 -8,19 -5,5 -12,8 -19,8 -8,0 -15,-3 -20,-8 -5,-5 -8,-12 -8,-19 0,-8 3,-15 8,-20 5,-5 12,-8 20,-8zm16 11c-4,-5 -10,-7 -16,-7 -7,0 -13,2 -17,7 -5,4 -7,10 -7,17 0,6 2,12 7,16 4,5 10,7 17,7 6,0 12,-2 16,-7 5,-4 7,-10 7,-16 0,-7 -2,-13 -7,-17z"/>
   <polygon class="fil1" points="13,40 13,38 14,36 24,26 25,28 28,31 25,36 17,42 15,42 "/>
   <polygon class="fil1" points="27,19 27,15 30,13 36,11 40,12 39,14 34,17 34,21 37,22 38,23 38,22 43,20 43,24 38,27 32,27 28,23 "/>
  </g>
 </g>
</svg>
