<?xml version="1.0" encoding="UTF-8"?>
<!DOCTYPE svg PUBLIC "-//W3C//DTD SVG 1.1//EN" "http://www.w3.org/Graphics/SVG/1.1/DTD/svg11.dtd">
<!-- Creator: CorelDRAW X7 -->
<svg xmlns="http://www.w3.org/2000/svg" xml:space="preserve" width="49.9997mm" height="50mm" version="1.1" style="shape-rendering:geometricPrecision; text-rendering:geometricPrecision; image-rendering:optimizeQuality; fill-rule:evenodd; clip-rule:evenodd"
viewBox="0 0 44 44"
 xmlns:xlink="http://www.w3.org/1999/xlink">
 <defs>
  <style type="text/css">
   <![CDATA[
    .fil1 {fill:#4DFFFF}
    .fil0 {fill:#4DFFFF;fill-rule:nonzero}
   ]]>
  </style>
 </defs>
 <g id="Слой_x0020_1">
  <metadata id="CorelCorpID_0Corel-Layer"/>
  <g id="_1884572198736">
   <path class="fil0" d="M22 0c6,0 12,2 16,6 4,4 6,10 6,16 0,6 -2,12 -6,16 -4,4 -10,6 -16,6 -6,0 -12,-2 -16,-6 -4,-4 -6,-10 -6,-16 0,-6 2,-12 6,-16 4,-4 10,-6 16,-6zm14 8c-3,-4 -8,-6 -14,-6 -6,0 -11,2 -14,6 -4,3 -6,8 -6,14 0,6 2,11 6,14 3,4 8,6 14,6 6,0 11,-2 14,-6 4,-3 6,-8 6,-14 0,-6 -2,-11 -6,-14z"/>
   <g>
    <path class="fil0" d="M21 11l2 0c0,0 1,0 1,0 0,0 0,1 0,1l0 8 8 0c0,0 1,0 1,0 0,0 0,1 0,1l0 2c0,0 0,1 0,1 0,0 -1,0 -1,0l-8 0 0 8c0,0 0,1 0,1 0,0 -1,0 -1,0l-2 0c0,0 -1,0 -1,0 0,0 0,-1 0,-1l0 -8 -8 0c0,0 -1,0 -1,0 0,0 0,-1 0,-1l0 -2c0,0 0,-1 0,-1 0,0 1,0 1,0l8 0 0 -8c0,0 0,-1 0,-1 0,0 1,0 1,0zm2 1l-2 0c0,0 0,0 0,0 0,0 0,0 0,0l0 9 -9 0c0,0 0,0 0,0 0,0 0,0 0,0l0 2c0,0 0,0 0,0 0,0 0,0 0,0l9 0 0 9c0,0 0,0 0,0 0,0 0,0 0,0l2 0c0,0 0,0 0,0 0,0 0,0 0,0l0 -9 9 0c0,0 0,0 0,0 0,0 0,0 0,0l0 -2c0,0 0,0 0,0 0,0 0,0 0,0l-9 0 0 -9c0,0 0,0 0,0 0,0 0,0 0,0z"/>
    <path class="fil1" d="M12 20l8 0 0 -8 1 -1 2 0 1 0 0 9 8 0 0 0 1 1c0,0 0,0 0,0l0 2 -1 1c0,0 0,0 0,0l-8 0 0 8 0 0 -1 1 -2 0 -1 0 0 0 0 -1c0,-1 0,-1 0,-1l0 -7 -9 0 0 0 0 -1c0,0 0,0 0,0l0 -1c0,-1 0,-1 0,-1l1 -1z"/>
   </g>
  </g>
 </g>
</svg>
