<?xml version="1.0" encoding="UTF-8"?>
<!DOCTYPE svg PUBLIC "-//W3C//DTD SVG 1.1//EN" "http://www.w3.org/Graphics/SVG/1.1/DTD/svg11.dtd">
<!-- Creator: CorelDRAW X7 -->
<svg xmlns="http://www.w3.org/2000/svg" xml:space="preserve" width="53.0427mm" height="53.0434mm" version="1.1" style="shape-rendering:geometricPrecision; text-rendering:geometricPrecision; image-rendering:optimizeQuality; fill-rule:evenodd; clip-rule:evenodd"
viewBox="0 0 53 53"
 xmlns:xlink="http://www.w3.org/1999/xlink">
 <defs>
  <style type="text/css">
   <![CDATA[
    .fil1 {fill:#4DFFFF}
    .fil0 {fill:#4DFFFF;fill-rule:nonzero}
   ]]>
  </style>
 </defs>
 <g id="Слой_x0020_1">
  <metadata id="CorelCorpID_0Corel-Layer"/>
  <g id="_1884653141856">
   <path class="fil0" d="M27 11l4 10 15 0 -12 8 5 13 -12 -8 -12 8 4 -13 -12 -8 15 0 5 -13 0 3zm3 11l-3 -8 -4 9 -10 0 8 6 -3 9 9 -6 8 6 -3 -9 8 -6 -10 0 0 -1z"/>
   <path class="fil0" d="M27 22c1,0 2,1 3,2 1,0 1,2 1,3 0,1 0,3 -1,4 -1,0 -2,1 -3,1 -2,0 -3,-1 -4,-1 -1,-1 -1,-3 -1,-4 0,-1 0,-3 1,-3 1,-1 2,-2 4,-2zm2 3c-1,-1 -2,-1 -2,-1 -1,0 -2,0 -3,1 0,1 0,1 0,2 0,1 0,2 0,2 1,1 2,1 3,1 0,0 1,0 2,-1 0,0 0,-1 0,-2 0,-1 0,-1 0,-2z"/>
   <polygon class="fil0" points="25,17 27,13 28,17 27,17 27,17 "/>
   <polygon class="fil0" points="37,22 41,22 38,25 37,24 37,24 "/>
   <polygon class="fil0" points="16,24 16,24 15,25 12,23 16,22 "/>
   <polygon class="fil0" points="20,35 20,35 21,36 17,38 19,34 "/>
   <polygon class="fil0" points="34,34 35,38 32,36 33,34 33,34 "/>
   <path class="fil0" d="M27 0c7,0 13,3 18,8 5,5 8,11 8,19 0,7 -3,13 -8,18 -5,5 -11,8 -18,8 -8,0 -14,-3 -19,-8 -5,-5 -8,-11 -8,-18 0,-8 3,-14 8,-19 5,-5 11,-8 19,-8zm16 10c-4,-4 -10,-6 -16,-6 -7,0 -13,2 -17,6 -4,4 -6,10 -6,17 0,6 2,12 6,16 4,4 10,6 17,6 6,0 12,-2 16,-6 4,-4 6,-10 6,-16 0,-7 -2,-13 -6,-17z"/>
   <path class="fil1" d="M17 38l3 -9 -7 -5 1 -1 0 0 2 -1 0 0 6 0 4 -9 1 1 3 7 5 1c0,0 0,0 1,0l6 0 -2 3 -1 0 -6 4 4 10 -8 -4 -3 -1c-1,0 -1,0 -1,0l-8 4zm10 -15c2,0 4,1 4,4 0,2 -2,4 -4,4 -3,0 -4,-2 -4,-4 0,-3 1,-4 4,-4z"/>
  </g>
 </g>
</svg>
