<?xml version="1.0" encoding="UTF-8"?>
<!DOCTYPE svg PUBLIC "-//W3C//DTD SVG 1.1//EN" "http://www.w3.org/Graphics/SVG/1.1/DTD/svg11.dtd">
<!-- Creator: CorelDRAW X7 -->
<svg xmlns="http://www.w3.org/2000/svg" xml:space="preserve" width="53.0434mm" height="53.0434mm" version="1.1" style="shape-rendering:geometricPrecision; text-rendering:geometricPrecision; image-rendering:optimizeQuality; fill-rule:evenodd; clip-rule:evenodd"
viewBox="0 0 56 56"
 xmlns:xlink="http://www.w3.org/1999/xlink">
 <defs>
  <style type="text/css">
   <![CDATA[
    .fil1 {fill:#4DFFFF}
    .fil0 {fill:#4DFFFF;fill-rule:nonzero}
   ]]>
  </style>
 </defs>
 <g id="Слой_x0020_1">
  <metadata id="CorelCorpID_0Corel-Layer"/>
  <g id="_1884669155952">
   <path class="fil0" d="M28 0c8,0 15,3 20,8 5,5 8,12 8,20 0,8 -3,15 -8,20 -5,5 -12,8 -20,8 -8,0 -15,-3 -20,-8 -5,-5 -8,-12 -8,-20 0,-8 3,-15 8,-20 5,-5 12,-8 20,-8zm17 11c-4,-4 -10,-7 -17,-7 -7,0 -13,3 -17,7 -4,4 -7,10 -7,17 0,7 3,13 7,17 4,5 10,7 17,7 7,0 13,-2 17,-7 5,-4 7,-10 7,-17 0,-7 -2,-13 -7,-17z"/>
   <g>
    <path class="fil0" d="M22 41l13 0c1,0 2,0 3,0 1,-1 2,-1 2,-1 1,-1 1,-2 1,-3 0,-2 -2,-4 -3,-5l-3 -5c-3,-2 -3,-2 -3,-5 0,-2 0,-4 0,-6l1 -1 0 0 0 0c-3,0 -8,0 -10,0l0 0 1 1 0 6c0,1 0,2 0,3 -1,0 -1,1 -2,1l-1 1 -2 3c-2,2 -4,5 -4,7 0,1 0,2 0,2 1,0 1,1 1,1 1,1 2,1 3,1 1,0 2,0 3,0zm12 2l-12 0c-1,0 -2,0 -4,0 -1,0 -2,-1 -3,-1 0,-1 -1,-1 -1,-2 -1,-2 -1,-4 0,-5 2,-4 7,-8 9,-11 0,0 0,-1 0,-2l0 -4 -2 -1 0 -4 12 0 3 0 -1 4 -2 1 0 4c0,1 0,1 0,2 1,1 6,7 9,11 2,2 2,4 -1,6 0,1 -1,1 -2,2 -2,0 -3,0 -4,0l-1 0zm-8 -11c-1,0 -1,0 -1,0 0,1 0,1 0,1 0,0 0,0 0,0 1,1 1,1 1,1 1,-1 1,-1 1,-1 0,0 0,-1 0,-1 0,0 0,0 0,0 0,0 -1,0 -1,0zm-3 0l0 0c-1,1 -1,2 -2,3 0,2 -1,3 -1,5l-1 1 -1 -1c0,0 -1,0 -1,0 -1,-1 -1,-1 -1,-2 0,0 0,-1 0,-2 0,-1 0,-2 1,-2 1,-2 2,-4 4,-5 2,-2 3,-4 3,-4 1,-1 0,-6 0,-8l0 -1 8 0 0 2c0,3 0,6 0,6 0,1 0,1 1,2l0 1 1 0c0,0 1,1 1,2l1 1 -8 0 0 0c1,1 1,1 1,2 0,0 0,0 0,1 0,0 0,0 0,0 0,0 1,0 2,-1l0 0c1,0 2,0 3,1 1,0 1,1 1,2l0 0c1,1 1,2 0,3 0,0 -1,1 -2,1 -2,1 -3,0 -4,-1 0,0 0,-1 -1,-1 0,-1 0,-1 0,-2 0,0 0,0 0,0 0,0 0,0 -1,0 -1,1 -2,0 -3,0 0,-1 -1,-1 -1,-1 0,-1 0,-1 0,-2zm8 2c0,0 -1,1 -1,2 0,0 0,0 0,0 0,1 1,1 1,1 0,0 1,1 1,0 1,0 1,0 1,0 1,-1 1,-1 1,-2l-1 0c0,0 0,0 0,-1 -1,0 -1,0 -1,0l-1 0zm-13 4c0,-1 1,-3 1,-4 1,0 1,-1 2,-2 -1,1 -2,2 -2,3 -1,0 -1,1 -1,2 0,0 0,0 0,1 0,0 0,0 0,0zm6 -10l8 0 -1 -1c0,0 -1,-1 -1,-2 -1,-1 0,-4 0,-7l0 0 -4 0c1,2 1,6 0,7 0,1 -1,2 -2,3z"/>
    <path class="fil0" d="M27 21c0,0 0,0 0,0l0 0 0 0c0,0 0,0 1,0 0,0 0,0 0,0l0 0 0 0c0,0 0,0 -1,0zm-2 0c0,-1 1,-2 2,-2 1,-1 2,0 2,0 0,0 1,1 1,1 0,0 0,1 0,1 0,1 0,2 -1,2 -1,1 -2,0 -3,0 0,0 -1,-1 -1,-1 0,0 0,-1 0,-1z"/>
    <path class="fil1" d="M18 42c0,0 0,-1 0,-1l0 -1c0,0 -2,-2 -1,-2l3 -7 4 0c0,0 0,0 0,1l0 2c0,0 1,0 1,0l1 0 1 0c1,0 1,0 1,0l0 1 1 0c1,0 0,0 0,1l1 2c0,0 1,0 1,0l1 1 0 0 2 -1c0,0 0,-1 0,-1l0 -1c0,0 1,0 1,0l-1 -2c0,0 0,-1 -1,-1l-1 0c0,-1 -1,-1 -2,-1l0 1c0,1 -1,0 -1,1l-1 -2c0,0 0,0 0,0l-1 -2 2 -1c1,0 2,1 3,1l1 0 0 0 0 0 1 -3 1 0c0,1 2,2 2,2l2 3c0,0 0,0 0,0l2 2c0,0 1,2 1,2l0 1c0,1 0,1 0,1l0 2c0,0 0,0 -1,0l-1 1c-1,0 -1,0 -1,0l-1 1c-1,0 -1,0 -1,0l-2 0c-1,0 -1,0 -2,0l-2 0c-1,0 -1,1 -2,1l-2 0c0,0 -1,-1 -1,-1l-2 0c-1,0 -1,0 -2,0l-1 0 -1 0 -1 0 -1 -1 1 1 -1 0z"/>
   </g>
   <path class="fil1" d="M22 14l12 0 1 1c0,0 0,0 0,0l-1 2 -1 0 0 2c0,0 0,0 0,1l0 5 4 4c0,1 0,1 0,1l2 3c1,1 0,1 0,2l-3 4c0,0 -1,1 -1,1l-4 1c-1,1 -1,1 -2,1l-11 0c0,0 0,-1 0,-1l-4 -3c0,0 0,0 0,0l2 -5 1 -1 6 -7 1 -1 0 -1 -1 -5c0,0 0,-1 0,-1l-1 -1 0 0 0 -1c0,-1 0,-1 0,-1l0 0z"/>
  </g>
 </g>
</svg>
