<?xml version="1.0" encoding="UTF-8"?>
<!DOCTYPE svg PUBLIC "-//W3C//DTD SVG 1.1//EN" "http://www.w3.org/Graphics/SVG/1.1/DTD/svg11.dtd">
<!-- Creator: CorelDRAW X7 -->
<svg xmlns="http://www.w3.org/2000/svg" xml:space="preserve" width="57.0715mm" height="57.0722mm" version="1.1" style="shape-rendering:geometricPrecision; text-rendering:geometricPrecision; image-rendering:optimizeQuality; fill-rule:evenodd; clip-rule:evenodd"
viewBox="0 0 72 72"
 xmlns:xlink="http://www.w3.org/1999/xlink">
 <defs>
  <style type="text/css">
   <![CDATA[
    .fil1 {fill:#4DFFFF;fill-rule:nonzero}
    .fil2 {fill:#4DFFFF;fill-rule:nonzero}
    .fil0 {fill:#4DFFFF;fill-rule:nonzero;fill-opacity:0.101961}
   ]]>
  </style>
 </defs>
 <g id="Слой_x0020_1">
  <metadata id="CorelCorpID_0Corel-Layer"/>
  <g id="_1884653102656">
   <polygon class="fil0" points="66,66 7,66 7,7 66,7 "/>
   <polygon class="fil1" points="1,9 0,9 0,0 9,0 9,1 1,1 "/>
   <polygon class="fil1" points="72,9 71,9 71,1 63,1 63,0 72,0 "/>
   <polygon class="fil1" points="72,72 63,72 63,71 71,71 71,63 72,63 "/>
   <polygon class="fil1" points="9,72 0,72 0,63 1,63 1,71 9,71 "/>
   <path class="fil2" d="M55 29l-1 1c-2,1 -5,3 -5,2l-6 -2 0 -7 1 0c0,0 1,-1 3,-2 1,-1 2,-2 3,-2 0,-1 -1,-1 -2,-1 -1,0 -3,0 -5,0 0,0 -1,0 -1,0 -3,2 -5,4 -6,7 0,1 0,2 0,3 0,1 0,3 1,4 1,2 3,4 6,5 2,1 5,1 7,0 2,-1 4,-3 5,-5 0,-1 0,-2 0,-3l0 0zm-2 -1c1,0 2,-1 2,-1l1 0 0 0c1,0 1,1 1,2 0,2 0,3 -1,4l0 0 0 0c-1,2 -3,4 -6,6 -2,1 -5,1 -8,0 -3,-1 -6,-4 -7,-7 -1,-1 -1,-2 -1,-4 0,-1 0,-3 0,-4 1,-3 4,-6 7,-7 1,-1 1,-1 2,-1 2,0 4,0 5,0 2,0 4,1 4,2 1,0 1,1 1,1l0 0 -1 1c-1,0 -3,2 -4,3 -1,0 -2,1 -3,1l0 5 4 2c0,0 3,-2 4,-3z"/>
   <path class="fil2" d="M17 53c1,1 1,1 1,2 1,0 1,1 2,1 1,1 1,1 1,1 1,0 1,0 1,-1 2,0 2,-1 3,-2 0,0 1,0 1,-1l9 -9c1,0 1,-1 2,-1 0,-1 1,-2 2,-3l0 0c-1,0 -2,-1 -4,-2 -1,-1 -1,-2 -2,-3 -1,1 -1,1 -2,2 -1,0 -1,1 -1,1l-3 2c0,1 -1,2 -2,3l0 0 -7 7 0 0 0 0c-1,1 -2,2 -1,3zm0 3c0,0 -1,-1 -1,-2 -2,-3 -1,-4 1,-6l0 0 0 0 7 -7 0 0c1,0 1,-1 2,-2l2 -2c1,0 1,-1 2,-1 1,-1 2,-2 3,-3l0 -1 1 1 1 0c0,2 1,3 2,4 1,1 2,1 2,2 1,0 1,0 2,0l1 1 -1 1c-1,1 -2,2 -3,3 -1,0 -1,1 -1,1l-9 9c-1,1 -1,1 -2,2 -1,1 -1,1 -2,2 -1,1 -2,1 -3,1 -1,0 -1,-1 -2,-1 -1,-1 -1,-1 -2,-2zm6 -6c0,0 -1,0 -1,0 0,0 0,1 0,1 1,0 1,0 1,0 0,0 0,0 0,0 0,0 1,0 1,0 0,0 0,-1 0,-1 0,0 0,0 -1,0 0,0 0,0 0,0zm-2 0c0,-1 0,-2 1,-2 2,0 2,0 3,1 0,0 0,0 0,1 1,0 1,0 1,1 -1,1 -1,2 -2,2 -1,0 -2,0 -3,-1 0,0 0,-1 0,-1 0,0 0,-1 0,-1z"/>
  </g>
 </g>
</svg>
