<?xml version="1.0" encoding="UTF-8"?>
<!DOCTYPE svg PUBLIC "-//W3C//DTD SVG 1.1//EN" "http://www.w3.org/Graphics/SVG/1.1/DTD/svg11.dtd">
<!-- Creator: CorelDRAW X7 -->
<svg xmlns="http://www.w3.org/2000/svg" xml:space="preserve" width="57.0715mm" height="56.6753mm" version="1.1" style="shape-rendering:geometricPrecision; text-rendering:geometricPrecision; image-rendering:optimizeQuality; fill-rule:evenodd; clip-rule:evenodd"
viewBox="0 0 72 72"
 xmlns:xlink="http://www.w3.org/1999/xlink">
 <defs>
  <style type="text/css">
   <![CDATA[
    .fil1 {fill:#4DFFFF;fill-rule:nonzero}
    .fil2 {fill:#4DFFFF;fill-rule:nonzero}
    .fil0 {fill:#4DFFFF;fill-rule:nonzero;fill-opacity:0.101961}
   ]]>
  </style>
 </defs>
 <g id="Слой_x0020_1">
  <metadata id="CorelCorpID_0Corel-Layer"/>
  <g id="_1884653127456">
   <polygon class="fil0" points="66,65 7,65 7,6 66,6 "/>
   <g>
    <polygon class="fil1" points="1,9 0,9 0,0 9,0 9,1 1,1 "/>
    <polygon class="fil1" points="72,9 71,9 71,1 63,1 63,0 72,0 "/>
    <polygon class="fil1" points="72,72 63,72 63,70 71,70 71,63 72,63 "/>
    <polygon class="fil1" points="9,72 0,72 0,63 1,63 1,70 9,70 "/>
   </g>
   <path class="fil2" d="M38 17l5 13 18 0 -15 10 5 16 -14 -10 -15 10 5 -16 -14 -10 18 0 6 -16 1 3zm3 14l-4 -11 -5 12 -13 0 11 7 -4 12 11 -7 11 7 -4 -12 11 -7 -14 0 0 -1z"/>
   <path class="fil2" d="M37 32c1,0 3,1 4,2 1,0 1,2 1,3 0,2 0,3 -1,4 -1,1 -3,2 -4,2 -2,0 -3,-1 -4,-2 -1,-1 -2,-2 -2,-4 0,-1 1,-3 2,-3 1,-1 2,-2 4,-2zm2 3c0,-1 -1,-1 -2,-1 -1,0 -2,0 -3,1 0,0 -1,1 -1,2 0,1 1,2 1,3 1,0 2,1 3,1 1,0 2,-1 2,-1 1,-1 1,-2 1,-3 0,-1 0,-2 -1,-2z"/>
  </g>
 </g>
</svg>
