<?xml version="1.0" encoding="UTF-8"?>
<!DOCTYPE svg PUBLIC "-//W3C//DTD SVG 1.1//EN" "http://www.w3.org/Graphics/SVG/1.1/DTD/svg11.dtd">
<!-- Creator: CorelDRAW X7 -->
<svg xmlns="http://www.w3.org/2000/svg" xml:space="preserve" width="49.9997mm" height="50mm" version="1.1" style="shape-rendering:geometricPrecision; text-rendering:geometricPrecision; image-rendering:optimizeQuality; fill-rule:evenodd; clip-rule:evenodd"
viewBox="0 0 44 44"
 xmlns:xlink="http://www.w3.org/1999/xlink">
 <defs>
  <style type="text/css">
   <![CDATA[
    .fil1 {fill:#4DFFFF}
    .fil0 {fill:#4DFFFF;fill-rule:nonzero}
   ]]>
  </style>
 </defs>
 <g id="Слой_x0020_1">
  <metadata id="CorelCorpID_0Corel-Layer"/>
  <g id="_1884677989984">
   <path class="fil0" d="M22 0c6,0 12,2 16,6 4,4 6,10 6,16 0,6 -2,12 -6,16 -4,4 -10,6 -16,6 -6,0 -12,-2 -16,-6 -4,-4 -6,-10 -6,-16 0,-6 2,-12 6,-16 4,-4 10,-6 16,-6zm15 8c-4,-4 -9,-6 -15,-6 -6,0 -11,2 -14,6 -4,3 -6,8 -6,14 0,6 2,11 6,15 3,3 8,6 14,6 6,0 11,-3 15,-6 3,-4 6,-9 6,-15 0,-6 -3,-11 -6,-14z"/>
   <path class="fil1" d="M29 26c0,4 -3,7 -7,7 -4,0 -7,-3 -7,-7 0,0 0,-1 0,-2 0,0 6,-12 7,-13 2,3 7,13 7,15z"/>
  </g>
 </g>
</svg>
