<?xml version="1.0" encoding="UTF-8"?>
<!DOCTYPE svg PUBLIC "-//W3C//DTD SVG 1.1//EN" "http://www.w3.org/Graphics/SVG/1.1/DTD/svg11.dtd">
<!-- Creator: CorelDRAW X7 -->
<svg xmlns="http://www.w3.org/2000/svg" xml:space="preserve" width="57.0715mm" height="57.0722mm" version="1.1" style="shape-rendering:geometricPrecision; text-rendering:geometricPrecision; image-rendering:optimizeQuality; fill-rule:evenodd; clip-rule:evenodd"
viewBox="0 0 72 72"
 xmlns:xlink="http://www.w3.org/1999/xlink">
 <defs>
  <style type="text/css">
   <![CDATA[
    .fil1 {fill:#4DFFFF;fill-rule:nonzero}
    .fil2 {fill:#4DFFFF;fill-rule:nonzero}
    .fil0 {fill:#4DFFFF;fill-rule:nonzero;fill-opacity:0.101961}
   ]]>
  </style>
 </defs>
 <g id="Слой_x0020_1">
  <metadata id="CorelCorpID_0Corel-Layer"/>
  <g id="_1884653102272">
   <polygon class="fil0" points="66,66 7,66 7,7 66,7 "/>
   <polygon class="fil1" points="1,9 0,9 0,0 9,0 9,1 1,1 "/>
   <polygon class="fil1" points="72,9 71,9 71,1 63,1 63,0 72,0 "/>
   <polygon class="fil1" points="72,72 63,72 63,71 71,71 71,63 72,63 "/>
   <polygon class="fil1" points="9,72 0,72 0,63 1,63 1,71 9,71 "/>
   <path class="fil2" d="M24 22l-2 3c0,0 1,1 1,2l0 0 0 0 1 1 0 0c0,0 0,1 0,1 0,0 0,1 0,1 -1,0 -1,0 -1,1 0,1 0,1 -1,1 0,1 0,1 -1,2l0 0 -3 1 0 3c0,0 1,1 2,1 0,0 1,0 1,0l0 0c1,1 1,1 1,1 0,0 0,0 0,1 0,0 0,0 0,0 1,0 1,1 1,1 0,1 0,1 1,1l0 1 0 1c0,0 -1,1 -1,2 0,0 -1,1 -1,1l3 3c0,-1 0,-1 1,-1 0,0 1,-1 2,-1 1,0 1,0 2,1 0,0 0,0 0,0 1,0 2,0 2,0 1,0 1,1 1,1 0,1 1,1 1,1 0,0 0,0 0,0l1 3 3 0c0,-1 0,-2 1,-2 0,-1 0,-1 0,-1l0 0 0 0c0,-1 0,-1 1,-1 0,0 0,-1 0,-1 0,0 1,0 1,0 0,0 1,0 1,0 1,-1 1,-1 2,-1 0,0 0,0 0,0 0,0 0,0 1,0l0 0 0 0c1,1 2,1 3,2l2 -3 0 0c-1,-1 -2,-3 -1,-4 0,0 0,-1 1,-1 0,-1 1,-3 1,-3l0 -1 0 0c1,0 1,0 1,0 1,0 2,-1 2,-1l0 -3c0,0 -1,0 -1,-1 -1,0 -1,0 -2,0 0,0 0,0 0,0 0,0 0,0 0,-1 -1,0 -1,0 -1,0l0 0c0,-2 -1,-2 -1,-3 0,-1 0,-1 0,-2 0,0 0,0 0,-1 0,0 1,-1 1,-2l-2 -2c-1,0 -1,0 -2,0 0,1 -1,1 -2,1l0 0 0 0c-1,0 -1,0 -1,0 -1,-1 -1,-1 -2,-1 0,0 -1,0 -1,0 -1,0 -1,0 -1,-1 0,-1 0,-2 -1,-3 0,0 0,0 0,-1l-3 0 -1 3 0 0c0,0 -1,1 -1,1 0,0 0,0 0,0 0,1 0,1 -1,1l0 0c-1,0 -1,0 -2,1 -1,0 -1,0 -2,0 0,0 -1,0 -2,-1 0,0 -1,0 -2,-1zm-4 2l4 -4 0 0c1,1 2,1 3,2 1,0 1,0 1,0 0,0 1,0 1,0 1,0 2,-1 3,-1l0 0 0 0 0 0 1 -5 6 0 1 1c0,1 0,1 0,2 0,1 1,1 1,2 0,0 0,0 0,0l0 0c0,0 0,0 1,0 0,0 1,1 1,1 1,0 1,0 1,0 0,0 1,0 1,0 1,-1 2,-1 3,-1l0 -1 5 4 -1 1c0,2 -1,3 -1,3 0,0 0,1 0,1l0 0c0,0 0,0 0,0 0,1 0,2 1,3l0 0 0 0c0,0 1,0 1,1 1,0 2,0 3,0l0 1 0 6 0 0c-1,0 -2,0 -3,1l-1 0c0,1 0,2 -1,2 0,1 0,2 0,2 -1,0 0,1 1,2 0,0 0,1 0,1l1 1 -5 4 0 0c-1,-1 -3,-2 -4,-2l0 0c0,0 -1,0 -1,0 0,1 -1,1 -1,1 -1,0 -1,0 -1,0 0,0 0,0 0,0l0 0 0 0c0,0 0,0 0,0l0 0 0 0c0,1 0,1 -1,1 0,1 0,2 -1,3l0 1 -6 0 -1 -4c0,0 0,0 0,-1 0,0 0,0 0,0 0,0 0,0 -1,0 0,0 0,0 -1,-1 -1,0 -1,0 -1,0 0,0 0,0 0,0l0 0 -1 0c0,0 -1,0 -2,1 0,0 -1,0 -1,1l-1 0 -4 -4 0 -1c1,-1 1,-2 1,-2 1,-1 1,-1 1,-2l0 0 0 0c0,0 0,-1 -1,-1 0,0 0,-1 0,-2 0,0 0,0 0,0 -1,0 -1,0 -2,0 -1,-1 -2,-1 -2,-1l-1 0 0 -6 5 -2 0 0c0,0 0,0 0,0 0,0 0,-1 0,-2 0,0 1,-1 1,-1 0,0 0,0 0,0 0,0 0,0 0,-1l0 0 0 0 0 0c0,0 -1,0 -1,0 0,-1 -1,-3 -1,-3l0 -1 0 0zm21 28l0 0 0 0 0 0 0 0zm0 0l0 0 0 0zm0 0l0 0 0 0 0 0 0 0zm11 -20c0,0 0,0 0,0 0,0 0,0 0,0zm0 0c0,0 0,0 0,0l0 0zm-11 -11l0 0 0 0c0,0 0,0 0,0zm-9 0l0 0 0 0 0 0c0,0 0,0 0,0zm0 0c0,0 0,0 0,0l0 0zm4 5c3,0 6,1 8,3 2,2 3,5 3,8 0,3 -1,5 -3,7 -2,2 -5,4 -8,4 -3,0 -6,-2 -7,-4 -2,-2 -4,-4 -4,-7 0,-3 2,-6 4,-8 1,-2 4,-3 7,-3zm7 4c-2,-1 -4,-2 -7,-2 -2,0 -5,1 -6,2 -2,2 -3,4 -3,7 0,2 1,4 3,6 1,2 4,3 6,3 3,0 5,-1 7,-3 1,-2 2,-4 2,-6 0,-3 -1,-5 -2,-7z"/>
  </g>
 </g>
</svg>
