<?xml version="1.0" encoding="UTF-8"?>
<!DOCTYPE svg PUBLIC "-//W3C//DTD SVG 1.1//EN" "http://www.w3.org/Graphics/SVG/1.1/DTD/svg11.dtd">
<!-- Creator: CorelDRAW X7 -->
<svg xmlns="http://www.w3.org/2000/svg" xml:space="preserve" width="53.0434mm" height="53.0427mm" version="1.1" style="shape-rendering:geometricPrecision; text-rendering:geometricPrecision; image-rendering:optimizeQuality; fill-rule:evenodd; clip-rule:evenodd"
viewBox="0 0 51 51"
 xmlns:xlink="http://www.w3.org/1999/xlink">
 <defs>
  <style type="text/css">
   <![CDATA[
    .fil1 {fill:#4DFFFF}
    .fil0 {fill:#4DFFFF;fill-rule:nonzero}
   ]]>
  </style>
 </defs>
 <g id="Слой_x0020_1">
  <metadata id="CorelCorpID_0Corel-Layer"/>
  <g id="_1884727844656">
   <path class="fil0" d="M24 9l3 0c1,0 1,0 2,0 0,1 0,1 0,2l0 11 12 0c0,0 1,0 1,1 0,0 1,1 1,1l0 3c0,1 -1,1 -1,2 0,0 -1,0 -1,0l-12 0 0 12c0,0 0,1 0,1 -1,0 -1,1 -2,1l-3 0c0,0 -1,-1 -1,-1 -1,0 -1,-1 -1,-1l0 -12 -11 0c-1,0 -1,0 -2,0 0,-1 0,-1 0,-2l0 -3c0,0 0,-1 0,-1 1,-1 1,-1 2,-1l11 0 0 -11c0,-1 0,-1 1,-2 0,0 1,0 1,0zm3 1l-3 0c0,0 0,0 0,0 0,1 0,1 0,1l0 13 -13 0c0,0 0,0 -1,0 0,0 0,0 0,0l0 3c0,0 0,0 0,0 1,0 1,0 1,0l13 0 0 14c0,0 0,0 0,0 0,0 0,0 0,0l3 0c0,0 0,0 0,0 0,0 0,0 0,0l0 -14 14 0c0,0 0,0 0,0 0,0 0,0 0,0l0 -3c0,0 0,0 0,0 0,0 0,0 0,0l-14 0 0 -13c0,0 0,0 0,-1 0,0 0,0 0,0z"/>
   <path class="fil0" d="M26 0c7,0 13,3 18,8 4,4 7,11 7,18 0,7 -3,13 -7,18 -5,4 -11,7 -18,7 -7,0 -14,-3 -18,-7 -5,-5 -8,-11 -8,-18 0,-7 3,-14 8,-18 4,-5 11,-8 18,-8zm15 10c-4,-4 -9,-7 -15,-7 -6,0 -12,3 -16,7 -4,4 -7,10 -7,16 0,6 3,11 7,15 4,4 10,7 16,7 6,0 11,-3 15,-7 4,-4 7,-9 7,-15 0,-6 -3,-12 -7,-16z"/>
   <path class="fil1" d="M10 23l13 0 0 -13 1 -1 3 1 1 0 0 13 13 0 0 0 1 1c0,0 0,0 0,0l0 3 -1 1c0,0 0,0 0,0l-13 0 0 13 0 0 -1 1 -3 0 -1 0 0 -1 0 -1c0,0 0,0 0,-1l0 -11 -13 0 0 0 -1 -1c0,0 0,0 0,0l0 -2c0,0 0,0 0,0l1 -2z"/>
  </g>
 </g>
</svg>
