<?xml version="1.0" encoding="UTF-8"?>
<!DOCTYPE svg PUBLIC "-//W3C//DTD SVG 1.1//EN" "http://www.w3.org/Graphics/SVG/1.1/DTD/svg11.dtd">
<!-- Creator: CorelDRAW X7 -->
<svg xmlns="http://www.w3.org/2000/svg" xml:space="preserve" width="35.3557mm" height="30.4252mm" version="1.1" style="shape-rendering:geometricPrecision; text-rendering:geometricPrecision; image-rendering:optimizeQuality; fill-rule:evenodd; clip-rule:evenodd"
viewBox="0 0 71 61"
 xmlns:xlink="http://www.w3.org/1999/xlink">
 <defs>
  <style type="text/css">
   <![CDATA[
    .fil0 {fill:#4DFFFF;fill-rule:nonzero}
   ]]>
  </style>
 </defs>
 <g id="Слой_x0020_1">
  <metadata id="CorelCorpID_0Corel-Layer"/>
  <g id="_3014130419696">
   <path class="fil0" d="M20 0l31 0c1,0 2,1 3,1 1,1 1,2 1,3l0 31c0,1 0,2 -1,3 -1,1 -2,1 -3,1l-31 0c-1,0 -2,0 -3,-1 -1,-1 -1,-2 -1,-3l0 -31c0,-1 0,-2 1,-3 1,0 2,-1 3,-1zm31 1l-31 0c0,0 -1,1 -2,1 0,1 -1,2 -1,2l0 31c0,1 1,1 1,2 1,1 2,1 2,1l31 0c1,0 1,0 2,-1 0,-1 1,-1 1,-2l0 -31c0,0 -1,-1 -1,-2 -1,0 -1,-1 -2,-1z"/>
   <path class="fil0" d="M27 29l7 -18 3 0 7 18 -3 0 -2 -6 -7 0 -2 6 -3 0zm9 -15l-3 7 5 0 -2 -7z"/>
   <path class="fil0" d="M0 61l0 -11c0,0 0,-1 1,-1 0,0 0,1 0,1l0 4 5 0 0 -4c0,0 0,-1 0,-1 1,0 1,1 1,1l0 11c0,0 0,0 -1,0 0,0 0,0 0,0l0 -6 -5 0 0 6c0,0 0,0 0,0 -1,0 -1,0 -1,0zm18 -7l-3 0c0,0 0,0 -1,0 0,1 0,1 0,1l0 4c0,0 0,0 0,1 1,0 1,0 1,0l1 0c1,0 1,0 1,0 1,-1 1,-1 1,-1l0 -5zm2 7c0,0 0,0 -1,0 0,0 -1,0 -1,0 0,0 -1,0 -2,0l-1 0c0,0 -1,0 -1,-1 -1,0 -1,-1 -1,-1l0 -4c0,0 0,-1 1,-1 0,-1 1,-1 1,-1l3 0c1,0 1,0 1,1l0 5c0,1 0,1 0,1 1,0 1,0 1,1zm9 -8l3 0c0,0 0,0 0,1l0 7c0,0 0,0 0,0 -1,0 -1,0 -1,0l0 -7 -1 0 -2 7c-1,0 -1,0 -1,0 0,0 -1,0 -1,0 0,0 0,-1 0,-1l3 -7c0,0 0,0 0,0zm13 1c0,0 -1,0 -1,1 0,0 0,0 0,1l0 0 3 0 0 0c0,-1 0,-1 0,-1 -1,-1 -1,-1 -2,-1zm-1 4l0 1c0,0 0,0 0,1 0,0 0,0 1,0l3 0c0,0 0,0 0,1 0,0 0,0 0,0l-3 0c-1,0 -2,0 -2,-1 0,0 -1,-1 -1,-1l0 -3c0,-1 1,-2 1,-2 1,-1 1,-1 2,-1 1,0 2,0 2,1 1,0 1,1 1,2l0 2 -4 0zm12 -4c1,-1 1,-1 2,-1 0,0 0,0 1,0 0,-1 0,-1 0,-1 0,-1 0,-1 -1,-1 0,0 0,0 0,0 -1,0 -1,0 -1,0 0,0 -1,0 -1,1l0 2zm3 -1c1,0 1,1 2,1 0,1 0,1 0,2l0 2c0,1 0,2 -1,2 0,1 -1,1 -2,1 -1,0 -1,0 -2,-1 0,0 -1,-1 -1,-2l0 -6c0,-1 1,-1 1,-2 0,0 1,-1 2,-1 0,0 1,1 1,1 1,1 1,1 1,2 0,0 0,1 -1,1zm1 5l0 -2c0,-1 0,-1 -1,-1 0,-1 0,-1 -1,-1 0,0 -1,0 -1,1 0,0 -1,0 -1,1l0 2c0,1 1,1 1,1 0,1 1,1 1,1 1,0 1,0 1,-1 1,0 1,0 1,-1zm8 0l0 -2c0,-1 1,-2 1,-2 1,-1 1,-1 2,-1 1,0 2,0 2,1 1,0 1,1 1,2l0 2c0,1 0,2 -1,2 0,1 -1,1 -2,1 -1,0 -1,0 -2,-1 0,0 -1,-1 -1,-2zm5 0l0 -2c0,-1 0,-1 -1,-1 0,-1 0,-1 -1,-1 0,0 -1,0 -1,1 0,0 -1,0 -1,1l0 2c0,1 1,1 1,1 0,1 1,1 1,1 1,0 1,0 1,-1 1,0 1,0 1,-1z"/>
  </g>
 </g>
</svg>
