<?xml version="1.0" encoding="UTF-8"?>
<!DOCTYPE svg PUBLIC "-//W3C//DTD SVG 1.1//EN" "http://www.w3.org/Graphics/SVG/1.1/DTD/svg11.dtd">
<!-- Creator: CorelDRAW X7 -->
<svg xmlns="http://www.w3.org/2000/svg" xml:space="preserve" width="40.774mm" height="34.1774mm" version="1.1" style="shape-rendering:geometricPrecision; text-rendering:geometricPrecision; image-rendering:optimizeQuality; fill-rule:evenodd; clip-rule:evenodd"
viewBox="0 0 90 76"
 xmlns:xlink="http://www.w3.org/1999/xlink">
 <defs>
  <style type="text/css">
   <![CDATA[
    .fil0 {fill:#4DFFFF;fill-rule:nonzero}
   ]]>
  </style>
 </defs>
 <g id="Слой_x0020_1">
  <metadata id="CorelCorpID_0Corel-Layer"/>
  <g id="_3013992967728">
   <path class="fil0" d="M29 0l33 0c1,0 2,1 3,1 1,1 1,3 1,4l0 32c0,2 0,3 -1,4 -1,1 -2,1 -3,1l-33 0c-1,0 -3,0 -4,-1 0,-1 -1,-2 -1,-4l0 -32c0,-1 1,-3 1,-4 1,0 3,-1 4,-1zm33 2l-33 0c-1,0 -2,0 -2,0 -1,1 -1,2 -1,3l0 32c0,1 0,2 1,3 0,0 1,1 2,1l33 0c0,0 1,-1 2,-1 0,-1 1,-2 1,-3l0 -32c0,-1 -1,-2 -1,-3 -1,0 -2,0 -2,0z"/>
   <polygon class="fil0" points="39,11 51,11 51,14 41,14 41,20 50,20 50,22 41,22 41,29 52,29 52,31 39,31 "/>
  </g>
  <path class="fil0" d="M6 68l0 -5c0,-1 0,-1 0,-2 -1,0 -1,0 -2,0 -1,0 -2,0 -2,0 0,1 -1,1 -1,2l0 5c0,1 1,1 1,2 0,0 1,1 2,1 1,0 1,-1 2,-1 0,-1 0,-1 0,-2zm2 0c0,1 -1,2 -2,3 0,1 -1,1 -2,1 -1,0 -2,0 -3,-1 -1,-1 -1,-2 -1,-3l0 -5c0,-1 0,-2 1,-3 1,0 2,-1 3,-1 1,0 2,1 2,1 1,1 2,2 2,3l0 5z"/>
  <path id="1" class="fil0" d="M21 66l0 3c0,1 0,1 -1,2 -1,1 -1,1 -2,1 -1,0 -2,0 -3,-1 0,-1 0,-1 0,-2l0 -3c0,-1 0,-2 1,-3 1,0 1,0 1,0l-2 -3c0,0 0,0 0,0 0,0 0,-1 0,-1l5 0c1,0 1,1 1,1 0,0 0,1 -1,1l-3 0 3 3c1,1 1,1 1,2zm-1 3l0 -3c0,0 -1,-1 -1,-1 0,0 -1,-1 -1,-1 -1,0 -1,1 -2,1 0,0 0,1 0,1l0 3c0,0 0,1 0,1 1,1 1,1 2,1 0,0 1,0 1,-1 0,0 1,-1 1,-1z"/>
  <path id="2" class="fil0" d="M28 69l0 -3c0,-1 1,-1 1,-2 1,-1 2,-1 3,-1 0,0 1,0 2,1 0,1 1,1 1,2l0 3c0,1 -1,1 -1,2 -1,1 -2,1 -2,1 -1,0 -2,0 -3,-1 0,-1 -1,-1 -1,-2zm5 0l0 -3c0,0 0,-1 0,-1 0,0 -1,-1 -1,-1 -1,0 -1,1 -2,1 0,0 0,1 0,1l0 3c0,0 0,1 0,1 1,1 1,1 2,1 0,0 1,0 1,-1 0,0 0,-1 0,-1z"/>
  <path id="3" class="fil0" d="M48 70c0,0 1,0 1,1 0,0 0,0 -1,0 -1,1 -2,1 -3,1 -1,0 -2,0 -2,-1 0,0 -1,-1 -1,-1 0,-1 1,-2 2,-2l3 -2c0,0 0,0 0,-1 0,0 0,0 0,0 0,-1 0,-1 -1,-1 0,0 -1,0 -1,1 0,0 -1,0 -1,0 0,0 0,0 0,0 -1,0 -1,0 -1,0 0,0 0,0 0,-1 0,0 0,0 0,0 1,-1 2,-1 3,-1 1,0 2,0 2,1 0,0 1,1 1,1 0,1 -1,2 -2,2l-3 2c0,0 0,0 0,1 0,0 0,0 0,0 0,1 0,1 1,1 1,0 2,0 3,-1 0,0 0,0 0,0z"/>
  <path id="4" class="fil0" d="M56 64c0,-1 0,-1 1,-1l3 0c1,0 1,0 2,1 0,0 1,1 1,2l0 3c0,1 -1,2 -1,2 -1,1 -1,1 -2,1l-2 0 0 3c0,1 -1,1 -1,1 -1,0 -1,0 -1,-1l0 -11zm2 0l0 7 2 0c0,0 1,0 1,-1 0,0 0,0 0,-1l0 -3c0,-1 0,-1 0,-1 0,0 -1,-1 -1,-1l-2 0z"/>
  <path id="5" class="fil0" d="M73 64c0,0 -1,1 -1,1 0,0 -1,1 -1,1l0 1 4 0 0 -1c0,0 0,-1 0,-1 -1,0 -1,-1 -2,-1zm-2 4l0 1c0,1 1,1 1,1 0,1 0,1 1,1l3 0c0,0 0,0 0,0 0,1 0,1 0,1l-3 0c-1,0 -2,0 -2,-1 -1,0 -1,-1 -1,-2l0 -3c0,-1 0,-1 1,-2 1,-1 1,-1 2,-1 1,0 2,0 3,1 0,1 0,1 0,2l0 2 -5 0z"/>
  <path id="6" class="fil0" d="M85 64c1,-1 1,-1 2,-1 0,0 0,0 1,0 0,-1 0,-1 0,-1 0,-1 0,-1 0,-1 -1,0 -1,0 -1,0 -1,0 -1,0 -1,0 -1,0 -1,0 -1,1l0 2zm3 -1c1,1 2,1 2,2 0,0 0,1 0,1l0 3c0,1 0,1 -1,2 0,1 -1,1 -2,1 -1,0 -1,0 -2,-1 -1,-1 -1,-1 -1,-2l0 -7c0,-1 0,-1 1,-2 0,0 1,-1 2,-1 0,0 1,1 1,1 1,1 1,1 1,2 0,0 0,1 -1,1zm1 6l0 -3c0,0 0,-1 0,-1 -1,0 -1,-1 -2,-1 0,0 -1,1 -1,1 0,0 -1,1 -1,1l0 3c0,0 1,1 1,1 0,1 1,1 1,1 1,0 1,0 2,-1 0,0 0,-1 0,-1z"/>
 </g>
</svg>
