<?xml version="1.0" encoding="UTF-8"?>
<!DOCTYPE svg PUBLIC "-//W3C//DTD SVG 1.1//EN" "http://www.w3.org/Graphics/SVG/1.1/DTD/svg11.dtd">
<!-- Creator: CorelDRAW X7 -->
<svg xmlns="http://www.w3.org/2000/svg" xml:space="preserve" width="34.2172mm" height="32.4696mm" version="1.1" style="shape-rendering:geometricPrecision; text-rendering:geometricPrecision; image-rendering:optimizeQuality; fill-rule:evenodd; clip-rule:evenodd"
viewBox="0 0 68 64"
 xmlns:xlink="http://www.w3.org/1999/xlink">
 <defs>
  <style type="text/css">
   <![CDATA[
    .fil0 {fill:#4DFFFF;fill-rule:nonzero}
   ]]>
  </style>
 </defs>
 <g id="Слой_x0020_1">
  <metadata id="CorelCorpID_0Corel-Layer"/>
  <g id="_3014306819568">
   <g>
    <path class="fil0" d="M19 0l29 0c1,0 2,0 3,1 1,1 1,2 1,3l0 29c0,2 0,3 -1,3 -1,1 -2,2 -3,2l-29 0c-1,0 -2,-1 -3,-2 -1,0 -1,-1 -1,-3l0 -29c0,-1 0,-2 1,-3 1,-1 2,-1 3,-1zm29 1l-29 0c-1,0 -2,1 -2,1 -1,1 -1,2 -1,2l0 29c0,1 0,2 1,3 0,0 1,0 2,0l29 0c1,0 2,0 2,0 1,-1 1,-2 1,-3l0 -29c0,0 0,-1 -1,-2 0,0 -1,-1 -2,-1z"/>
    <path class="fil0" d="M41 22c0,2 -1,4 -2,5 -1,1 -3,2 -5,2 -3,0 -4,-1 -6,-2 -1,-2 -2,-4 -2,-8 0,-4 1,-6 2,-8 2,-1 4,-2 6,-2 2,0 4,0 5,2 1,1 2,2 2,4l-2 0c0,-1 -1,-2 -2,-3 -1,-1 -2,-1 -3,-1 -2,0 -3,0 -4,1 -1,1 -2,4 -2,7 0,3 1,5 2,6 1,1 2,2 4,2 1,0 3,0 4,-2 0,0 1,-2 1,-3l2 0z"/>
   </g>
   <path class="fil0" d="M5 53c0,0 1,0 1,0 0,1 -1,1 -1,1l-2 0c-1,0 -1,0 -2,1 0,0 0,0 0,1l0 5c0,1 0,1 1,2 0,0 0,0 1,0l2 0c0,0 1,0 1,1 0,0 -1,0 -1,0l-2 0c-1,0 -2,0 -2,-1 -1,0 -1,-1 -1,-2l0 -5c0,-1 0,-2 1,-2 0,-1 1,-1 2,-1l2 0z"/>
   <path id="1" class="fil0" d="M18 57l0 7c0,0 0,0 -1,0l-2 0c-1,0 -2,0 -2,0 0,-1 -1,-1 -1,-2l0 -5c0,-1 1,-1 1,-1 0,0 1,0 1,1l0 5c0,0 0,1 0,1 0,0 0,0 1,0l2 0 0 -6c0,-1 0,-1 0,-1 1,0 1,0 1,1z"/>
   <path id="2" class="fil0" d="M30 63c0,0 0,0 0,0 0,0 0,0 0,1 -1,0 -2,0 -3,0 -1,0 -1,0 -2,0 0,-1 0,-1 0,-2 0,-1 0,-1 1,-2l3 -1c0,0 0,0 0,-1 0,0 0,0 0,0 0,0 0,-1 -1,-1 0,0 -1,0 -1,1 0,0 0,0 -1,0 0,0 0,0 0,0 0,0 0,0 0,0 -1,0 -1,0 -1,-1 0,0 0,0 1,0 0,0 1,-1 2,-1 1,0 1,1 2,1 0,0 0,1 0,1 0,1 0,2 -1,2l-3 1c0,1 0,1 0,1 0,0 0,1 0,1 0,0 1,0 1,0 1,0 2,0 3,0 0,0 0,0 0,0z"/>
   <path id="3" class="fil0" d="M38 61l0 3c0,0 0,0 0,0 -1,0 -1,0 -1,0l0 -7c0,-1 0,-1 1,-1 0,0 0,1 0,1l0 3 4 0 0 -3c0,0 0,-1 0,-1 1,0 1,0 1,1l0 7c0,0 0,0 -1,0 0,0 0,0 0,0l0 -3 -4 0z"/>
   <path id="4" class="fil0" d="M54 57l-3 0c0,0 0,1 0,1 -1,0 -1,0 -1,1l0 3c0,0 0,1 1,1 0,0 0,0 0,0l1 0c1,0 1,0 1,0 0,0 1,-1 1,-1l0 -5zm2 7c0,0 0,0 -1,0 0,0 -1,0 -1,0 0,0 -1,0 -2,0l-1 0c0,0 -1,0 -1,0 -1,-1 -1,-1 -1,-2l0 -3c0,-1 0,-2 1,-2 0,0 1,-1 1,-1l3 0c1,0 1,0 1,1l0 6c0,0 0,0 0,0 1,0 1,0 1,1z"/>
   <path id="5" class="fil0" d="M65 56l2 0c0,0 1,0 1,1l0 7c0,0 -1,0 -1,0 0,0 0,0 0,0l0 -7 -2 0 -2 7c0,0 0,0 0,0 -1,0 -1,0 -1,0 0,0 0,0 0,-1l2 -6c0,-1 1,-1 1,-1z"/>
  </g>
 </g>
</svg>
