<?xml version="1.0" encoding="UTF-8"?>
<!DOCTYPE svg PUBLIC "-//W3C//DTD SVG 1.1//EN" "http://www.w3.org/Graphics/SVG/1.1/DTD/svg11.dtd">
<!-- Creator: CorelDRAW X7 -->
<svg xmlns="http://www.w3.org/2000/svg" xml:space="preserve" width="41.7849mm" height="32.1755mm" version="1.1" style="shape-rendering:geometricPrecision; text-rendering:geometricPrecision; image-rendering:optimizeQuality; fill-rule:evenodd; clip-rule:evenodd"
viewBox="0 0 89 69"
 xmlns:xlink="http://www.w3.org/1999/xlink">
 <defs>
  <style type="text/css">
   <![CDATA[
    .fil0 {fill:#4DFFFF;fill-rule:nonzero}
   ]]>
  </style>
 </defs>
 <g id="Слой_x0020_1">
  <metadata id="CorelCorpID_0Corel-Layer"/>
  <g id="_3014130420560">
   <path class="fil0" d="M29 0l32 0c1,0 2,1 3,1 1,1 1,2 1,4l0 32c0,1 0,2 -1,3 -1,1 -2,2 -3,2l-32 0c-2,0 -3,-1 -4,-2 -1,-1 -1,-2 -1,-3l0 -32c0,-2 0,-3 1,-4 1,0 2,-1 4,-1zm32 1l-32 0c-1,0 -2,1 -3,1 0,1 -1,2 -1,3l0 32c0,1 1,2 1,2 1,1 2,1 3,1l32 0c1,0 1,0 2,-1 1,0 1,-1 1,-2l0 -32c0,-1 0,-2 -1,-3 -1,0 -1,-1 -2,-1z"/>
   <path class="fil0" d="M38 11l6 0c3,0 5,1 6,3 2,1 3,4 3,7 0,3 -1,6 -3,7 -1,2 -3,3 -6,3l-6 0 0 -20zm2 3l0 14 4 0c2,0 3,0 4,-1 1,-1 2,-3 2,-6 0,-3 -1,-5 -2,-6 -1,-1 -2,-1 -4,-1l-4 0z"/>
   <path class="fil0" d="M0 64l0 -11c0,0 0,-1 1,-1 0,0 0,1 0,1l0 4 5 0 0 -4c0,0 0,-1 1,-1 0,0 0,1 0,1l0 11c0,1 0,1 0,1 -1,0 -1,0 -1,-1l0 -5 -5 0 0 5c0,1 0,1 0,1 -1,0 -1,0 -1,-1zm19 -7l-3 0c0,0 0,1 -1,1 0,0 0,0 0,1l0 3c0,1 0,1 0,1 1,1 1,1 1,1l1 0c1,0 1,0 1,-1 1,0 1,0 1,-1l0 -5zm2 7c0,1 0,1 0,1 -1,0 -1,0 -2,-1 0,1 -1,1 -2,1l-1 0c0,0 -1,0 -2,-1 0,0 0,-1 0,-2l0 -3c0,-1 0,-2 0,-2 1,-1 2,-1 2,-1l3 0c1,0 1,0 1,1l0 6c0,1 0,1 1,1 0,0 0,0 0,0zm7 0l0 -7c0,-1 0,-1 1,-1l3 0c1,0 1,0 2,1 0,0 0,1 0,2l0 5c0,1 0,1 0,1 -1,0 -1,0 -1,-1l0 -5c0,-1 0,-1 0,-1 -1,0 -1,-1 -1,-1l-3 0 0 7c0,1 0,1 0,1 -1,0 -1,0 -1,-1zm14 -7c0,-1 0,-1 0,-1l4 0c0,0 1,0 1,1 1,0 1,1 1,2l0 3c0,1 0,2 -1,2 0,1 -1,1 -1,1l-3 0 0 3c0,1 0,1 -1,1 0,0 0,0 0,-1l0 -11zm1 0l0 7 3 0c0,0 0,0 0,-1 1,0 1,0 1,-1l0 -3c0,-1 0,-1 -1,-1 0,0 0,-1 0,-1l-3 0zm17 0l-3 0c0,0 0,1 0,1 -1,0 -1,0 -1,1l0 3c0,1 0,1 1,1 0,1 0,1 0,1l2 0c0,0 0,0 1,-1 0,0 0,0 0,-1l0 -5zm2 7c0,1 0,1 0,1 -1,0 -1,0 -2,-1 0,1 -1,1 -1,1l-2 0c0,0 -1,0 -1,-1 -1,0 -1,-1 -1,-2l0 -3c0,-1 0,-2 1,-2 0,-1 1,-1 1,-1l4 0c0,0 0,0 0,1l0 6c0,1 0,1 1,1 0,0 0,0 0,0zm9 -7c0,-1 1,-1 1,-1 0,0 0,0 1,0 0,0 0,-1 0,-1 0,0 0,-1 0,-1 -1,0 -1,0 -1,0 -1,0 -1,0 -1,0 0,0 0,1 0,1l0 2zm3 -1c0,1 1,1 1,2 0,0 1,1 1,1l0 3c0,1 -1,1 -1,2 -1,1 -2,1 -3,1 0,0 -1,0 -2,-1 0,-1 -1,-1 -1,-2l0 -7c0,-1 1,-1 1,-2 0,0 1,-1 2,-1 0,0 1,1 2,1 0,1 0,1 0,2 0,1 0,1 0,1zm0 6l0 -3c0,0 0,-1 0,-1 -1,0 -1,-1 -2,-1 0,0 -1,1 -1,1 0,0 0,1 0,1l0 3c0,0 0,1 0,1 0,1 1,1 1,1 1,0 1,0 2,-1 0,0 0,-1 0,-1zm9 0l0 -3c0,0 0,-1 1,-2 1,0 1,-1 2,-1 1,0 2,1 2,1 1,1 1,1 1,2l0 3c0,1 0,1 -1,2 0,1 -1,1 -2,1 -1,0 -1,0 -2,-1 -1,-1 -1,-1 -1,-2zm5 0l0 -3c0,0 0,-1 -1,-1 0,0 0,-1 -1,-1 0,0 -1,1 -1,1 -1,0 -1,1 -1,1l0 3c0,0 0,1 1,1 0,1 1,1 1,1 1,0 1,0 1,-1 1,0 1,-1 1,-1z"/>
  </g>
 </g>
</svg>
