<?xml version="1.0" encoding="UTF-8"?>
<!DOCTYPE svg PUBLIC "-//W3C//DTD SVG 1.1//EN" "http://www.w3.org/Graphics/SVG/1.1/DTD/svg11.dtd">
<!-- Creator: CorelDRAW X7 -->
<svg xmlns="http://www.w3.org/2000/svg" xml:space="preserve" width="35.7912mm" height="30.331mm" version="1.1" style="shape-rendering:geometricPrecision; text-rendering:geometricPrecision; image-rendering:optimizeQuality; fill-rule:evenodd; clip-rule:evenodd"
viewBox="0 0 73 62"
 xmlns:xlink="http://www.w3.org/1999/xlink">
 <defs>
  <style type="text/css">
   <![CDATA[
    .fil0 {fill:#4DFFFF;fill-rule:nonzero}
   ]]>
  </style>
 </defs>
 <g id="Слой_x0020_1">
  <metadata id="CorelCorpID_0Corel-Layer"/>
  <g id="_3014231373088">
   <path class="fil0" d="M20 0l30 0c1,0 3,1 3,1 1,1 2,2 2,4l0 30c0,1 -1,3 -2,3 0,1 -2,2 -3,2l-30 0c-2,0 -3,-1 -4,-2 -1,0 -1,-2 -1,-3l0 -30c0,-2 0,-3 1,-4 1,0 2,-1 4,-1zm30 1l-30 0c-1,0 -2,1 -3,1 0,1 -1,2 -1,3l0 30c0,1 1,2 1,2 1,1 2,1 3,1l30 0c1,0 2,0 2,-1 1,0 1,-1 1,-2l0 -30c0,-1 0,-2 -1,-3 0,0 -1,-1 -2,-1z"/>
   <path class="fil0" d="M35 27c1,0 2,0 3,0l-3 -3 2 -2 2 3c1,-1 2,-3 2,-5 0,-3 -1,-4 -2,-6 -1,-1 -2,-1 -4,-1 -1,0 -2,0 -3,1 -2,2 -2,3 -2,6 0,3 0,4 2,6 1,1 2,1 3,1zm-8 -7c0,-3 1,-5 3,-7 1,-1 3,-2 5,-2 2,0 4,1 6,2 1,2 2,4 2,7 0,3 -1,5 -2,7l2 2 -2 1 -2 -2c-1,1 -2,1 -4,1 -2,0 -4,0 -5,-2 -2,-2 -3,-4 -3,-7z"/>
   <path class="fil0" d="M3 51c-1,0 -1,0 -2,1 0,0 0,0 0,0 -1,0 -1,0 -1,-1 0,0 0,0 0,0 0,0 0,0 0,-1 1,0 2,0 3,0l1 0c0,0 1,0 2,1 0,0 1,1 1,2 0,1 -1,2 -2,2 1,1 1,1 1,2 0,0 1,1 1,2 0,1 -1,1 -1,2 -1,0 -2,1 -2,1l-1 0c-1,0 -2,-1 -3,-1 0,0 0,0 0,-1 0,0 0,0 0,0 0,0 0,0 1,0 0,0 0,0 0,0 0,0 1,0 1,0 0,0 1,1 2,1 0,0 0,-1 1,-1 0,0 0,-1 0,-1l0 -1c0,-1 0,-1 0,-1 0,-1 -1,-1 -2,-1 0,0 0,0 0,0 0,0 0,0 0,0 -1,0 -1,0 -1,0 0,-1 0,-1 0,-1 0,0 0,0 0,0 0,0 0,0 1,0 0,0 0,0 0,0 0,0 0,0 0,0 1,0 1,-1 2,-1 0,0 0,-1 0,-1 0,-1 0,-1 0,-2 -1,0 -1,0 -1,0l-1 0zm15 4l-3 0c0,0 0,0 -1,0 0,0 0,0 0,1l0 3c0,1 0,1 0,1 1,0 1,1 1,1l1 0c1,0 1,-1 1,-1 0,0 1,0 1,-1l0 -4zm2 6c0,0 0,1 -1,1 0,0 -1,-1 -1,-1 0,0 -1,1 -2,1l-1 0c-1,0 -1,-1 -2,-1 0,0 0,-1 0,-2l0 -3c0,-1 0,-1 0,-2 1,0 1,-1 2,-1l3 0c1,0 1,1 1,1l0 6c0,0 0,0 0,0 1,0 1,1 1,1zm10 -3l2 3c0,0 0,0 0,0 0,0 0,1 0,1 0,0 -1,0 -1,-1l-2 -2 -1 2c-1,1 -1,1 -1,1 0,0 0,0 0,0 0,-1 -1,-1 -1,-1 0,0 0,0 1,0l2 -3 -2 -4c-1,0 -1,0 -1,0 0,0 1,-1 1,-1 0,0 0,0 1,1l1 2 2 -2c0,-1 1,-1 1,-1 0,0 0,1 0,1 0,0 0,0 0,0l-2 4zm11 -4c0,0 1,-1 1,-1 0,0 1,0 1,0 0,0 0,-1 0,-1 0,0 0,0 0,-1 0,0 -1,0 -1,0 0,0 -1,0 -1,0 0,1 0,1 0,1l0 2zm3 0c0,0 1,0 1,1 0,0 0,1 0,1l0 3c0,1 0,1 0,2 -1,0 -2,1 -3,1 0,0 -1,-1 -2,-1 0,-1 0,-1 0,-2l0 -7c0,-1 0,-1 0,-2 1,0 1,0 2,0 1,0 1,0 2,0 0,1 0,2 0,2 0,1 0,1 0,2zm0 5l0 -3c0,0 0,-1 0,-1 -1,0 -1,0 -2,0 0,0 0,0 -1,0 0,0 0,1 0,1l0 3c0,0 0,1 0,1 1,0 1,1 1,1 1,0 1,-1 2,-1 0,0 0,-1 0,-1zm13 -4l-3 0c0,0 0,0 0,0 -1,0 -1,0 -1,1l0 3c0,1 0,1 1,1 0,0 0,1 0,1l2 0c0,0 0,-1 0,-1 1,0 1,0 1,-1l0 -4zm2 6c0,0 0,1 0,1 -1,0 -1,-1 -2,-1 0,0 -1,1 -1,1l-2 0c0,0 -1,-1 -1,-1 -1,0 -1,-1 -1,-2l0 -3c0,-1 0,-1 1,-2 0,0 1,-1 1,-1l3 0c1,0 1,1 1,1l0 6c0,0 0,0 1,0 0,0 0,1 0,1zm6 -8l5 0c1,0 2,1 2,1 1,1 1,1 1,2l0 5c0,0 0,1 -1,1 0,0 0,-1 0,-1l0 -5c0,-1 -1,-1 -1,-1 0,0 0,0 -1,0l-1 0 0 6c0,0 0,1 0,1 -1,0 -1,-1 -1,-1l0 -6 -2 0 0 6c0,0 -1,1 -1,1 0,0 -1,-1 -1,-1l0 -7c0,0 1,-1 1,-1z"/>
  </g>
 </g>
</svg>
