<?xml version="1.0" encoding="UTF-8"?>
<!DOCTYPE svg PUBLIC "-//W3C//DTD SVG 1.1//EN" "http://www.w3.org/Graphics/SVG/1.1/DTD/svg11.dtd">
<!-- Creator: CorelDRAW X7 -->
<svg xmlns="http://www.w3.org/2000/svg" xml:space="preserve" width="28.2259mm" height="32.4696mm" version="1.1" style="shape-rendering:geometricPrecision; text-rendering:geometricPrecision; image-rendering:optimizeQuality; fill-rule:evenodd; clip-rule:evenodd"
viewBox="0 0 40 47"
 xmlns:xlink="http://www.w3.org/1999/xlink">
 <defs>
  <style type="text/css">
   <![CDATA[
    .fil0 {fill:#4DFFFF;fill-rule:nonzero}
   ]]>
  </style>
 </defs>
 <g id="Слой_x0020_1">
  <metadata id="CorelCorpID_0Corel-Layer"/>
  <g id="_3013992913776">
   <g>
    <path class="fil0" d="M10 0l21 0c1,0 1,0 2,1 1,0 1,1 1,2l0 21c0,1 0,2 -1,2 -1,1 -1,1 -2,1l-21 0c-1,0 -2,0 -3,-1 0,0 0,-1 0,-2l0 -21c0,-1 0,-2 0,-2 1,-1 2,-1 3,-1zm21 1l-21 0c-1,0 -1,0 -2,1 0,0 0,1 0,1l0 21c0,1 0,1 0,2 1,0 1,0 2,0l21 0c0,0 1,0 1,0 1,-1 1,-1 1,-2l0 -21c0,0 0,-1 -1,-1 0,-1 -1,-1 -1,-1z"/>
    <path class="fil0" d="M16 7l6 0c1,0 2,1 3,1 0,1 1,2 1,3 0,1 -1,2 -1,2 -1,1 -1,1 -2,1l3 6 -2 0 -2 -6 -4 0 0 6 -2 0 0 -13zm2 2l0 4 4 0c1,0 1,0 1,-1 1,0 1,0 1,-1 0,-1 0,-1 -1,-2 0,0 -1,0 -1,0l-4 0z"/>
   </g>
   <path class="fil0" d="M4 44l0 -3c0,-1 0,-1 0,-1 -1,-1 -1,-1 -2,-1 0,0 0,0 -1,1 0,0 0,0 0,1l0 3c0,1 0,1 0,1 1,1 1,1 1,1 1,0 1,0 2,-1 0,0 0,0 0,-1zm1 0c0,1 0,1 -1,2 0,0 -1,1 -2,1 0,0 -1,-1 -1,-1 -1,-1 -1,-1 -1,-2l0 -3c0,-1 0,-1 1,-2 0,0 1,-1 1,-1 1,0 2,1 2,1 1,1 1,1 1,2l0 3z"/>
   <path id="1" class="fil0" d="M12 44l1 2c0,0 0,0 0,0 0,0 0,1 0,1 0,0 0,-1 0,-1l-2 -2 -1 2c0,0 0,1 0,1 0,0 0,-1 0,-1 -1,0 -1,0 -1,0 0,0 0,0 0,0l2 -2 -2 -3c0,0 0,0 0,0 0,0 1,0 1,0 0,0 0,0 0,0l1 2 2 -2c0,0 0,0 0,0 0,0 0,0 0,0 0,0 0,0 0,0l-1 3z"/>
   <path id="2" class="fil0" d="M20 41l2 0c0,0 0,0 0,0l0 5c0,0 0,1 0,1 0,0 0,-1 0,-1l0 -4 -1 0 -2 4c0,0 0,1 0,1 0,0 -1,-1 -1,-1 0,0 0,0 0,0l2 -5c0,0 0,0 0,0z"/>
   <path id="3" class="fil0" d="M30 42l-1 0c-1,0 -1,0 -1,0 0,0 0,0 0,0l0 3c0,0 0,0 0,0 0,1 0,1 1,1l0 0c1,0 1,0 1,-1 0,0 0,0 0,0l0 -3zm2 4c0,0 0,1 -1,1 0,0 0,-1 0,-1 -1,0 -1,1 -2,1l0 0c-1,0 -1,-1 -2,-1 0,0 0,-1 0,-1l0 -3c0,0 0,0 0,-1 1,0 1,0 2,0l2 0c0,0 0,0 0,0l0 4c0,1 0,1 0,1 1,0 1,0 1,0z"/>
   <path id="4" class="fil0" d="M40 40l0 5c0,0 0,1 0,1 0,0 -1,1 -1,1l-1 0c0,0 -1,-1 -1,-1 0,0 -1,-1 -1,-1l0 -3c0,0 1,0 1,-1 0,0 1,0 1,0l2 0 0 -1c0,0 0,0 -1,-1 0,0 0,0 0,0l-1 0c-1,0 -1,0 -1,0 0,-1 0,-1 1,-1l1 0c0,0 1,1 1,1 0,0 0,1 0,1zm0 5l0 -3 -2 0c0,0 0,0 -1,0 0,0 0,0 0,0l0 3c0,0 0,0 0,0 1,1 1,1 1,1l1 0c0,0 0,0 0,-1 1,0 1,0 1,0z"/>
  </g>
 </g>
</svg>
