<?xml version="1.0" encoding="UTF-8"?>
<!DOCTYPE svg PUBLIC "-//W3C//DTD SVG 1.1//EN" "http://www.w3.org/Graphics/SVG/1.1/DTD/svg11.dtd">
<!-- Creator: CorelDRAW X7 -->
<svg xmlns="http://www.w3.org/2000/svg" xml:space="preserve" width="22.3526mm" height="30.6952mm" version="1.1" style="shape-rendering:geometricPrecision; text-rendering:geometricPrecision; image-rendering:optimizeQuality; fill-rule:evenodd; clip-rule:evenodd"
viewBox="0 0 27 37"
 xmlns:xlink="http://www.w3.org/1999/xlink">
 <defs>
  <style type="text/css">
   <![CDATA[
    .fil0 {fill:#4DFFFF;fill-rule:nonzero}
   ]]>
  </style>
 </defs>
 <g id="Слой_x0020_1">
  <metadata id="CorelCorpID_0Corel-Layer"/>
  <g id="_3014127913488">
   <path class="fil0" d="M4 0l18 0c1,0 1,0 2,1 0,0 0,1 0,2l0 18c0,0 0,1 0,2 -1,0 -1,0 -2,0l-18 0c-1,0 -2,0 -2,0 -1,-1 -1,-2 -1,-2l0 -18c0,-1 0,-2 1,-2 0,-1 1,-1 2,-1zm18 1l-18 0c-1,0 -1,0 -1,0 -1,1 -1,1 -1,2l0 18c0,0 0,1 1,1 0,0 0,0 1,0l18 0c0,0 1,0 1,0 0,0 1,-1 1,-1l0 -18c0,-1 -1,-1 -1,-2 0,0 -1,0 -1,0z"/>
   <path class="fil0" d="M9 9c0,-1 0,-1 1,-2 1,-1 1,-1 3,-1 1,0 2,1 3,1 0,1 0,1 0,2l-1 0c0,0 0,-1 0,-1 -1,0 -1,-1 -2,-1 -1,0 -2,1 -2,1 0,0 0,1 0,1 0,0 0,1 0,1 0,0 0,0 1,0 1,1 2,1 3,2 0,0 1,0 1,0 1,1 1,1 1,2 0,1 -1,2 -1,2 -1,1 -2,1 -3,1 -2,0 -3,0 -3,-1 -1,-1 -1,-1 -1,-2l1 0c0,0 0,1 1,1 0,1 1,1 2,1 1,0 1,0 2,-1 0,0 0,0 0,-1 0,0 0,0 0,-1 0,0 -1,0 -1,0 0,0 -1,-1 -2,-1 0,0 -1,-1 -1,-1 -1,0 -1,0 -1,0 -1,-1 -1,-1 -1,-2z"/>
   <path class="fil0" d="M3 33c1,0 1,1 1,2 0,0 0,1 0,1 -1,0 -1,1 -2,1l-2 0c0,0 0,-1 0,-1l0 -6c0,0 0,0 0,0l2 0c1,0 1,0 1,0 1,0 1,1 1,1 0,1 0,1 -1,2zm-2 -3l0 2 1 0c0,0 1,0 1,0 0,0 0,0 0,-1 0,0 0,0 0,0 0,-1 -1,-1 -1,-1l-1 0zm0 3l0 3 1 0c0,0 1,0 1,0 0,-1 0,-1 0,-1 0,-1 0,-1 0,-1 0,-1 -1,-1 -1,-1l-1 0zm8 2l0 1c0,0 0,1 -1,1 0,0 0,-1 0,-1l0 -4c0,0 0,0 0,0 1,0 1,0 1,0l0 2 2 0 0 -2c0,0 0,0 0,0 0,0 0,0 0,0l0 4c0,0 0,1 0,1 0,0 0,-1 0,-1l0 -1 -2 0zm10 -3l0 4c0,0 0,1 0,1l-2 0c0,0 -1,-1 -1,-1 0,0 0,0 0,-1l0 -3c0,0 0,0 0,0 0,0 0,0 0,0l0 3c0,0 0,1 1,1 0,0 0,0 0,0l1 0 0 -4c0,0 1,0 1,0 0,0 0,0 0,0zm7 3c0,0 0,0 0,0 0,0 0,0 -1,0 0,0 0,0 0,0 0,-1 0,-1 0,-1 0,0 0,0 0,0 0,0 0,0 0,0 0,0 0,0 0,0 0,0 0,0 0,0 0,0 0,0 0,0 0,0 1,0 1,0 0,-1 0,-1 0,-1 0,0 0,0 0,0 0,-1 -1,-1 -1,-1l0 0c0,0 -1,0 -1,1 0,0 0,0 0,0 0,0 0,0 0,0 0,0 0,-1 0,-1 0,0 0,0 0,0 0,0 1,0 1,0l0 0c1,0 1,0 1,0 1,0 1,1 1,1 0,1 -1,1 -1,1 0,0 1,1 1,1 0,1 0,1 -1,1 0,0 0,1 -1,1l0 0c0,0 -1,0 -1,-1 0,0 0,0 0,0 0,0 0,0 0,0 0,0 0,0 0,0 0,0 0,0 0,0 0,0 1,0 1,0l0 0c0,0 1,0 1,0 0,0 0,-1 0,-1z"/>
  </g>
 </g>
</svg>
