<?xml version="1.0" encoding="UTF-8"?>
<!DOCTYPE svg PUBLIC "-//W3C//DTD SVG 1.1//EN" "http://www.w3.org/Graphics/SVG/1.1/DTD/svg11.dtd">
<!-- Creator: CorelDRAW X7 -->
<svg xmlns="http://www.w3.org/2000/svg" xml:space="preserve" width="35.0755mm" height="31.1074mm" version="1.1" style="shape-rendering:geometricPrecision; text-rendering:geometricPrecision; image-rendering:optimizeQuality; fill-rule:evenodd; clip-rule:evenodd"
viewBox="0 0 101 90"
 xmlns:xlink="http://www.w3.org/1999/xlink">
 <defs>
  <style type="text/css">
   <![CDATA[
    .fil0 {fill:#4DFFFF;fill-rule:nonzero}
   ]]>
  </style>
 </defs>
 <g id="Слой_x0020_1">
  <metadata id="CorelCorpID_0Corel-Layer"/>
  <g id="_3014306796176">
   <g>
    <path class="fil0" d="M29 0l42 0c2,0 4,1 5,2 1,1 2,3 2,4l0 43c0,2 -1,3 -2,4 -1,1 -3,2 -5,2l-42 0c-2,0 -4,-1 -5,-2 -1,-1 -2,-2 -2,-4l0 -43c0,-1 1,-3 2,-4 1,-1 3,-2 5,-2zm42 2l-42 0c-2,0 -3,0 -3,1 -1,1 -2,2 -2,3l0 43c0,1 1,2 2,3 0,1 1,1 3,1l42 0c1,0 3,0 3,-1 1,-1 2,-2 2,-3l0 -43c0,-1 -1,-2 -2,-3 0,-1 -2,-1 -3,-1z"/>
    <path class="fil0" d="M54 15l3 0 0 18c0,2 0,4 -2,6 -1,1 -3,2 -6,2 -2,0 -4,-1 -6,-2 -1,-2 -2,-5 -2,-9l3 0c0,3 1,5 2,6 1,1 2,1 3,1 2,0 3,0 4,-1 0,-1 1,-2 1,-3l0 -18z"/>
   </g>
   <path class="fil0" d="M6 78l-5 7c0,0 0,0 0,0 -1,0 -1,0 -1,-1 0,0 0,0 0,0l5 -7 -5 -7c0,0 0,0 0,-1 0,0 0,0 1,0 0,0 0,0 0,0l5 6 0 -6c0,0 0,0 1,0 0,0 0,0 0,0l0 6 5 -6c0,0 0,0 0,0 1,0 1,0 1,0 0,0 0,0 0,0 0,1 0,1 0,1l-5 7 5 7c0,0 0,0 0,0 0,0 0,1 0,1 0,0 0,0 -1,0 0,0 0,0 0,0l-5 -7 0 6c0,1 0,1 0,1 -1,0 -1,0 -1,-1l0 -6z"/>
   <path id="1" class="fil0" d="M27 87l0 -2 -3 0c-1,0 -2,0 -2,-1 -1,-1 -1,-1 -1,-2l0 -8c0,0 0,-1 0,-1 1,0 1,1 1,1l0 8c0,0 0,1 1,1 0,0 0,0 1,0l3 0 0 -9c0,0 1,-1 1,-1 1,0 1,1 1,1l0 13c0,1 0,1 -1,2 -1,1 -1,1 -2,1l-4 0c0,0 -1,0 -1,-1 0,0 1,0 1,0 0,-1 0,-1 0,-1l4 0c0,0 0,0 1,0 0,0 0,-1 0,-1z"/>
   <path id="2" class="fil0" d="M39 74c0,0 0,-1 1,-1l4 0c1,0 1,1 2,1 1,1 1,2 1,3l0 5c0,1 0,1 -1,2 -1,1 -1,1 -2,1l-4 0 0 4c0,1 0,1 0,1 -1,0 -1,0 -1,-1l0 -15zm1 1l0 8 4 0c0,0 1,0 1,0 0,0 0,-1 0,-1l0 -5c0,-1 0,-1 0,-1 0,-1 -1,-1 -1,-1l-4 0z"/>
   <path id="3" class="fil0" d="M59 80l0 4c0,1 -1,1 -1,1 -1,0 -1,0 -1,-1l0 -10c0,0 0,-1 1,-1 0,0 1,1 1,1l0 4 5 0 0 -4c0,0 0,-1 0,-1 1,0 1,1 1,1l0 10c0,1 0,1 -1,1 0,0 0,0 0,-1l0 -4 -5 0z"/>
   <path id="4" class="fil0" d="M81 75l-3 0c-1,0 -1,0 -2,1 0,0 0,0 0,1l0 5c0,0 0,1 0,1 1,0 1,0 2,0l1 0c1,0 1,0 1,0 1,0 1,-1 1,-1l0 -7zm3 9c0,1 0,1 -1,1 0,0 -1,0 -2,-1 0,1 -1,1 -2,1l-1 0c-1,0 -2,0 -3,-1 0,-1 -1,-1 -1,-2l0 -5c0,-1 1,-2 1,-3 1,0 2,-1 3,-1l4 0c0,0 0,1 0,1l0 9c0,0 1,0 1,0 1,0 1,1 1,1z"/>
   <path id="5" class="fil0" d="M97 73l4 0c0,0 0,1 0,1l0 10c0,1 0,1 0,1 -1,0 -1,0 -1,-1l0 -9 -2 0 -3 9c0,1 -1,1 -1,1 -1,0 -1,0 -1,-1 0,0 0,0 0,0l4 -10c0,0 0,-1 0,-1z"/>
  </g>
 </g>
</svg>
