<?xml version="1.0" encoding="UTF-8"?>
<!DOCTYPE svg PUBLIC "-//W3C//DTD SVG 1.1//EN" "http://www.w3.org/Graphics/SVG/1.1/DTD/svg11.dtd">
<!-- Creator: CorelDRAW X7 -->
<svg xmlns="http://www.w3.org/2000/svg" xml:space="preserve" width="40.774mm" height="38.8529mm" version="1.1" style="shape-rendering:geometricPrecision; text-rendering:geometricPrecision; image-rendering:optimizeQuality; fill-rule:evenodd; clip-rule:evenodd"
viewBox="0 0 104 99"
 xmlns:xlink="http://www.w3.org/1999/xlink">
 <defs>
  <style type="text/css">
   <![CDATA[
    .fil0 {fill:#4DFFFF;fill-rule:nonzero}
   ]]>
  </style>
 </defs>
 <g id="Слой_x0020_1">
  <metadata id="CorelCorpID_0Corel-Layer"/>
  <g id="_3014086041392">
   <g>
    <path class="fil0" d="M33 0l37 0c2,0 3,1 4,2 1,1 2,2 2,4l0 37c0,1 -1,3 -2,4 -1,1 -2,1 -4,1l-37 0c-1,0 -3,0 -4,-1 -1,-1 -1,-3 -1,-4l0 -37c0,-2 0,-3 1,-4 1,-1 3,-2 4,-2zm37 2l-37 0c-1,0 -2,0 -3,1 0,1 -1,1 -1,3l0 37c0,1 1,2 1,3 1,0 2,1 3,1l37 0c2,0 2,-1 3,-1 1,-1 1,-2 1,-3l0 -37c0,-2 0,-2 -1,-3 -1,-1 -1,-1 -3,-1z"/>
    <polygon class="fil0" points="50,24 43,13 47,13 52,21 57,13 60,13 53,24 61,35 58,35 52,26 46,35 43,35 "/>
   </g>
   <path class="fil0" d="M1 57l7 0c0,0 1,0 1,0l0 13c0,1 -1,1 -1,1 -1,0 -1,0 -1,-1l0 -12 -6 0 0 12c0,1 0,1 0,1 -1,0 -1,0 -1,-1l0 -13c0,0 0,0 1,0z"/>
   <path id="1" class="fil0" d="M22 73l0 -2 -2 0c-1,0 -2,0 -3,-1 0,0 0,-1 0,-2l0 -6c0,-1 0,-1 0,-1 1,0 1,0 1,1l0 6c0,1 0,1 1,1 0,1 0,1 1,1l2 0 0 -8c0,-1 1,-1 1,-1 1,0 1,0 1,1l0 11c0,0 0,1 -1,2 0,0 -1,0 -2,0l-3 0c0,0 -1,0 -1,0 0,0 0,-1 1,-1 0,0 0,0 0,0l3 0c0,0 1,0 1,0 0,-1 0,-1 0,-1z"/>
   <path id="2" class="fil0" d="M35 64l0 4c0,1 0,1 0,1 0,1 1,1 1,1l2 0c1,0 1,0 1,0 0,1 0,1 -1,1l-2 0c-1,0 -1,0 -2,-1 0,0 -1,-1 -1,-2l0 -4c0,-1 1,-2 1,-2 1,-1 1,-1 2,-1l2 0c1,0 1,0 1,1 0,0 0,0 -1,0l-2 0c0,0 -1,1 -1,1 0,0 0,1 0,1z"/>
   <path id="3" class="fil0" d="M48 61l6 0c1,0 2,0 2,1 1,0 1,1 1,2l0 6c0,1 0,1 -1,1 0,0 0,0 0,-1l0 -6c0,-1 0,-1 -1,-1 0,0 0,-1 -1,-1l-1 0 0 8c0,1 0,1 -1,1 0,0 -1,0 -1,-1l0 -8 -2 0 0 8c0,1 -1,1 -1,1 -1,0 -1,0 -1,-1l0 -8c0,-1 0,-1 1,-1z"/>
   <path id="4" class="fil0" d="M72 62l0 8c0,1 -1,1 -1,1l-4 0c0,0 -1,0 -2,-1 0,0 -1,-1 -1,-2l0 -6c0,-1 1,-1 1,-1 1,0 1,0 1,1l0 6c0,1 0,1 0,1 1,1 1,1 1,1l3 0 0 -8c0,-1 0,-1 1,-1 0,0 1,0 1,1z"/>
   <path id="5" class="fil0" d="M80 61l6 0c1,0 2,0 2,1 1,0 1,1 1,2l0 6c0,1 0,1 -1,1 0,0 0,0 0,-1l0 -6c0,-1 -1,-1 -1,-1 0,0 0,-1 -1,-1l-1 0 0 8c0,1 -1,1 -1,1 0,0 -1,0 -1,-1l0 -8 -3 0 0 8c0,1 0,1 0,1 -1,0 -1,0 -1,-1l0 -8c0,-1 0,-1 1,-1z"/>
   <path id="6" class="fil0" d="M104 68c0,1 -1,2 -1,2 -1,1 -2,1 -2,1l-4 0c0,0 -1,0 -1,-1l0 -8c0,-1 1,-1 1,-1 1,0 1,0 1,1l0 3 3 0c0,0 1,1 2,1 0,1 1,1 1,2zm-2 0c0,0 0,0 0,-1 -1,0 -1,0 -1,0l-3 0 0 3 3 0c0,0 0,0 1,-1 0,0 0,0 0,-1z"/>
   <path id="7" class="fil0" d="M39 97c1,0 1,0 1,0 0,1 0,1 -1,1 -1,0 -2,1 -4,1 -1,0 -1,-1 -2,-1 0,-1 0,-1 0,-2 0,-1 0,-2 1,-2l4 -2c0,0 0,0 0,-1 0,0 0,0 0,-1 0,0 0,0 -1,0 -1,0 -1,0 -2,0 0,0 0,0 -1,1 0,0 0,0 0,0 0,0 0,0 0,-1 -1,0 -1,0 -1,0 0,0 0,0 1,-1 1,0 2,0 3,0 1,0 2,0 2,0 1,1 1,1 1,2 0,1 -1,2 -2,2l-3 2c-1,0 -1,1 -1,1 0,0 0,1 0,1 1,0 1,0 1,0 2,0 3,0 4,0 0,0 0,0 0,0z"/>
   <path id="8" class="fil0" d="M54 90l-3 0c-1,0 -1,0 -1,0 -1,1 -1,1 -1,1l0 5c0,0 0,1 1,1 0,0 0,0 1,0l1 0c1,0 1,0 1,0 0,0 1,-1 1,-1l0 -6zm2 8c0,0 0,1 0,1 -1,0 -1,-1 -2,-1 0,0 -1,1 -2,1l-1 0c-1,0 -2,-1 -2,-1 -1,-1 -1,-1 -1,-2l0 -5c0,0 0,-1 1,-2 0,0 1,0 2,0l3 0c1,0 1,0 1,0l0 8c0,0 0,0 1,0 0,0 0,0 0,1z"/>
   <path id="9" class="fil0" d="M70 96c0,-1 0,-1 0,-1 -1,-1 -1,-1 -1,-1 -1,0 -1,0 -1,0 -1,0 -1,0 -1,0 0,0 0,0 0,0 0,-1 0,-1 0,-1 0,0 1,0 1,0 0,0 0,0 0,0 0,0 0,0 0,0 1,0 1,0 1,-1 1,0 1,0 1,-1 0,0 0,0 -1,-1 0,0 0,0 -1,0l0 0c-1,0 -1,0 -2,0 0,1 -1,1 -1,1 0,0 0,0 0,-1 0,0 0,0 0,0 0,0 0,-1 1,-1 1,0 1,0 2,0l0 0c1,0 2,0 2,0 1,1 1,2 1,2 0,1 0,2 -1,3 1,0 1,1 1,2 0,1 0,1 -1,2 0,0 -1,1 -2,1l0 0c-1,0 -1,0 -2,-1 -1,0 -1,0 -1,-1 0,0 0,0 0,0 0,0 0,-1 0,-1 0,0 1,1 1,1 1,0 1,0 2,0l0 0c1,0 1,0 1,0 1,0 1,-1 1,-1z"/>
  </g>
 </g>
</svg>
