<?xml version="1.0" encoding="UTF-8"?>
<!DOCTYPE svg PUBLIC "-//W3C//DTD SVG 1.1//EN" "http://www.w3.org/Graphics/SVG/1.1/DTD/svg11.dtd">
<!-- Creator: CorelDRAW X7 -->
<svg xmlns="http://www.w3.org/2000/svg" xml:space="preserve" width="60.8219mm" height="40.8046mm" version="1.1" style="shape-rendering:geometricPrecision; text-rendering:geometricPrecision; image-rendering:optimizeQuality; fill-rule:evenodd; clip-rule:evenodd"
viewBox="0 0 281 189"
 xmlns:xlink="http://www.w3.org/1999/xlink">
 <defs>
  <style type="text/css">
   <![CDATA[
    .fil0 {fill:#4DFFFF;fill-rule:nonzero}
   ]]>
  </style>
 </defs>
 <g id="Слой_x0020_1">
  <metadata id="CorelCorpID_0Corel-Layer"/>
  <g id="_3014246010352">
   <path class="fil0" d="M10 0l261 0c3,0 5,1 7,3 2,2 3,4 3,7l0 69c0,3 -1,5 -3,7 -2,2 -4,3 -7,3l-261 0c-3,0 -5,-1 -7,-3 -2,-2 -3,-4 -3,-7l0 -69c0,-3 1,-5 3,-7 2,-2 4,-3 7,-3zm261 3l-261 0c-2,0 -4,1 -5,2 -1,1 -2,3 -2,5l0 69c0,2 1,3 2,5 1,1 3,2 5,2l261 0c2,0 4,-1 5,-2 1,-2 2,-3 2,-5l0 -69c0,-2 -1,-4 -2,-5 -1,-1 -3,-2 -5,-2z"/>
   <path class="fil0" d="M74 43c0,-2 1,-4 2,-5 2,-2 5,-3 8,-3 4,0 7,1 9,2 1,2 2,4 2,6l-5 0c0,-1 0,-2 -1,-3 -1,-1 -2,-1 -5,-1 -2,0 -3,0 -4,1 -1,1 -1,2 -1,3 0,1 0,1 1,2 0,0 2,1 6,2 2,0 3,1 5,1 1,1 2,1 3,2 1,1 2,3 2,4 0,2 -1,4 -3,6 -2,1 -5,2 -9,2 -4,0 -6,-1 -8,-2 -2,-2 -3,-4 -3,-6l5 0c0,1 1,2 1,3 1,1 3,1 5,1 3,0 5,0 6,-1 0,-1 1,-2 1,-2 0,-1 -1,-2 -2,-3 0,0 -1,-1 -3,-1 -2,-1 -5,-1 -6,-2 -2,0 -3,-1 -4,-2 -1,-1 -2,-3 -2,-4z"/>
   <path id="1" class="fil0" d="M106 71l-4 0 0 -36 4 0 0 3c2,-2 5,-3 8,-3 3,0 6,1 8,3 2,2 4,6 4,11 0,4 -2,8 -4,11 -2,2 -5,3 -8,3 -4,0 -6,-2 -8,-4l0 12zm8 -32c-2,0 -4,1 -5,2 -2,2 -3,4 -3,6l0 3c0,2 1,4 3,6 1,2 3,2 5,2 1,0 3,0 4,-1 1,-2 2,-5 2,-8 0,-4 0,-6 -2,-8 -1,-1 -3,-2 -4,-2z"/>
   <path id="2" class="fil0" d="M132 43c0,-2 1,-4 3,-6 2,-1 4,-2 8,-2 4,0 6,1 8,2 2,2 3,4 3,6l0 15c0,2 0,3 1,4l-5 0c-1,-1 -1,-2 -1,-3 -3,2 -6,3 -9,3 -3,0 -5,0 -7,-2 -2,-1 -2,-3 -2,-5 0,-2 0,-4 2,-5 2,-2 4,-3 7,-4 1,0 3,0 5,-1 2,0 3,-1 4,-1 0,-1 -1,-3 -2,-3 -1,-1 -2,-2 -4,-2 -2,0 -3,1 -4,2 -1,0 -1,1 -2,2l-5 0zm17 5c-1,1 -2,1 -3,1 -2,1 -5,1 -6,1 -1,1 -2,1 -3,2 -1,1 -1,2 -1,3 0,1 0,2 1,2 1,1 2,1 3,1 3,0 5,-1 7,-3 1,-1 2,-1 2,-2l0 -5z"/>
   <path id="3" class="fil0" d="M160 49c0,-4 2,-8 4,-10 3,-3 6,-4 9,-4 4,0 7,1 9,3 1,2 2,4 3,6l-6 0c0,-1 0,-2 -1,-3 -1,-1 -3,-2 -5,-2 -2,0 -3,1 -4,2 -2,2 -3,5 -3,8 0,3 1,6 2,7 2,2 3,2 5,2 2,0 4,0 5,-2 2,-1 2,-3 2,-5l5 0c0,4 -1,6 -3,9 -2,2 -5,3 -9,3 -3,0 -6,-2 -8,-4 -3,-3 -5,-6 -5,-10z"/>
   <path id="4" class="fil0" d="M191 49c0,-5 1,-8 4,-11 2,-2 5,-3 8,-3 4,0 7,1 9,3 2,3 3,6 3,11l-19 0c0,3 1,5 2,7 2,1 4,2 6,2 2,0 4,0 5,-1 1,-1 1,-3 1,-4l6 0c-1,3 -2,5 -4,6 -2,2 -4,3 -8,3 -4,0 -7,-1 -9,-3 -3,-3 -4,-6 -4,-10zm12 -10c-2,0 -3,0 -5,2 -1,1 -1,2 -2,4l14 0c0,-2 -1,-3 -2,-4 -1,-2 -3,-2 -5,-2z"/>
   <path class="fil0" d="M48 115c2,2 3,4 3,7 0,2 0,4 -2,6 -2,1 -3,2 -6,2l-6 0c-1,0 -2,0 -2,-1l0 -24c0,-1 1,-1 2,-1l6 0c2,0 4,0 5,2 1,1 2,2 2,4 0,2 -1,4 -2,5zm-10 -9l0 8 5 0c1,0 2,0 3,-1 1,-1 1,-2 1,-3 0,-1 0,-2 -1,-3 -1,0 -2,-1 -3,-1l-5 0zm0 11l0 11 5 0c2,0 3,-1 4,-2 1,-1 2,-2 2,-4 0,-1 -1,-3 -2,-4 -1,-1 -2,-1 -4,-1l-5 0z"/>
   <path id="1" class="fil0" d="M69 120l8 -8c0,0 1,0 1,0 1,0 1,0 1,1 0,0 0,1 0,1l-6 6 6 8c0,0 0,1 0,1 0,1 0,1 -1,1 -1,0 -1,0 -1,0l-6 -8 -2 2 0 5c0,1 -1,1 -2,1 -1,0 -1,0 -1,-1l0 -16c0,-1 0,-1 1,-1 1,0 2,0 2,1l0 7z"/>
   <path id="2" class="fil0" d="M102 112l5 0c1,0 1,0 1,1l0 16c0,1 0,1 -1,1 -1,0 -1,0 -1,-1l0 -15 -3 0 -5 15c0,1 -1,1 -2,1 0,0 -1,0 -1,-1 0,0 0,0 0,-1l5 -15c1,-1 1,-1 2,-1z"/>
   <path id="3" class="fil0" d="M129 122l-4 0 0 7c0,1 0,1 -1,1 -1,0 -2,0 -2,-1l0 -16c0,-1 1,-1 2,-1 1,0 1,0 1,1l0 7 4 0 0 -3c0,-2 1,-3 2,-4 1,-1 2,-1 3,-1 2,0 3,0 4,1 1,1 2,2 2,4l0 8c0,1 -1,3 -2,4 -1,1 -2,1 -4,1 -1,0 -2,0 -3,-1 -1,-1 -2,-3 -2,-4l0 -3zm5 6c1,0 2,-1 2,-1 1,-1 1,-1 1,-2l0 -8c0,-1 0,-1 -1,-2 0,0 -1,-1 -2,-1 0,0 -1,1 -2,1 0,1 0,1 0,2l0 8c0,1 0,1 0,2 1,0 2,1 2,1z"/>
   <path id="4" class="fil0" d="M167 113l0 16c0,1 -1,1 -1,1 -1,0 -2,0 -2,-1l0 -7 -5 0c-2,0 -3,0 -4,-1 -1,-1 -1,-3 -1,-4l0 -4c0,-1 0,-1 1,-1 1,0 1,0 1,1l0 4c0,1 0,1 1,2 1,0 1,1 2,1l5 0 0 -7c0,-1 1,-1 2,-1 0,0 1,0 1,1z"/>
   <path id="5" class="fil0" d="M196 113l0 16c0,1 0,1 -1,1l-7 0c-1,0 -3,0 -4,-1 -1,-1 -1,-3 -1,-4l0 -12c0,-1 0,-1 1,-1 1,0 1,0 1,1l0 12c0,1 1,1 1,2 1,0 1,1 2,1l5 0 0 -15c0,-1 1,-1 2,-1 1,0 1,0 1,1z"/>
   <path id="6" class="fil0" d="M211 112l12 0c1,0 2,0 3,1 1,1 2,2 2,4l0 12c0,1 -1,1 -1,1 -1,0 -2,0 -2,-1l0 -12c0,-1 0,-1 0,-2 -1,0 -2,-1 -2,-1l-3 0 0 15c0,1 0,1 -1,1 -1,0 -2,0 -2,-1l0 -15 -5 0 0 15c0,1 0,1 -1,1 -1,0 -2,0 -2,-1l0 -16c0,-1 1,-1 2,-1z"/>
   <path id="7" class="fil0" d="M255 125c0,1 -1,3 -2,4 -1,1 -2,1 -4,1l-6 0c-1,0 -2,0 -2,-1l0 -16c0,-1 1,-1 2,-1 0,0 1,0 1,1l0 7 5 0c2,0 3,0 4,1 1,1 2,2 2,4zm-3 0c0,-1 0,-1 -1,-2 0,0 -1,-1 -2,-1l-5 0 0 6 5 0c1,0 2,-1 2,-1 1,-1 1,-1 1,-2z"/>
   <path id="8" class="fil0" d="M81 163c0,0 0,-1 1,-1l7 0c1,0 2,1 3,2 1,1 2,2 2,3l0 8c0,2 -1,3 -2,4 -1,1 -2,2 -3,2l-6 0 0 6c0,1 0,2 -1,2 -1,0 -1,-1 -1,-2l0 -24zm2 2l0 13 6 0c0,0 1,0 1,-1 1,0 1,-1 1,-2l0 -8c0,0 0,-1 -1,-2 0,0 -1,0 -1,0l-6 0z"/>
   <path id="9" class="fil0" d="M119 165l-5 0c-1,0 -2,0 -2,0 -1,1 -1,2 -1,2l0 8c0,1 0,2 1,2 0,1 1,1 2,1l2 0c1,0 2,0 2,-1 1,0 1,-1 1,-2l0 -10zm5 14c0,1 0,2 -1,2 -1,0 -2,-1 -3,-2 -1,1 -2,2 -4,2l-2 0c-2,0 -3,-1 -4,-2 -1,-1 -2,-2 -2,-4l0 -8c0,-1 1,-2 2,-3 1,-1 2,-2 4,-2l6 0c1,0 2,1 2,1l0 14c0,1 0,1 1,1 1,0 1,0 1,1z"/>
   <path id="10" class="fil0" d="M152 159l0 16c0,2 0,3 -1,4 -1,1 -3,2 -4,2l-3 0c-1,0 -2,-1 -3,-2 -1,-1 -2,-2 -2,-4l0 -8c0,-1 1,-2 2,-3 1,-1 2,-2 3,-2l6 0 0 -3c0,0 -1,-1 -1,-2 -1,0 -1,0 -2,0l-4 0c-1,0 -1,-1 -1,-2 0,0 0,-1 1,-1l4 0c1,0 3,1 4,2 1,1 1,2 1,3zm-2 16l0 -10 -6 0c0,0 -1,0 -2,0 0,1 0,2 0,2l0 8c0,1 0,2 0,2 1,1 2,1 2,1l3 0c1,0 1,0 2,-1 0,0 1,-1 1,-2z"/>
   <path id="11" class="fil0" d="M178 165l-6 0c-1,0 -1,0 -2,0 0,1 0,2 0,2l0 8c0,1 0,2 0,2 1,1 1,1 2,1l3 0c1,0 1,0 2,-1 0,0 1,-1 1,-2l0 -10zm5 14c0,1 -1,2 -2,2 -1,0 -2,-1 -3,-2 -1,1 -2,2 -3,2l-3 0c-1,0 -3,-1 -4,-2 -1,-1 -1,-2 -1,-4l0 -8c0,-1 0,-2 1,-3 1,-1 3,-2 4,-2l7 0c1,0 1,1 1,1l0 14c0,1 1,1 1,1 1,0 2,0 2,1z"/>
   <path id="12" class="fil0" d="M197 163c0,0 1,-1 2,-1l6 0c2,0 3,1 4,2 1,1 2,2 2,3l0 8c0,2 -1,3 -2,4 -1,1 -2,2 -4,2l-5 0 0 6c0,1 0,2 -1,2 -1,0 -2,-1 -2,-2l0 -24zm3 2l0 13 5 0c1,0 2,0 2,-1 1,0 1,-1 1,-2l0 -8c0,0 0,-1 -1,-2 0,0 -1,0 -2,0l-5 0z"/>
  </g>
 </g>
</svg>
