<?xml version="1.0" encoding="UTF-8"?>
<!DOCTYPE svg PUBLIC "-//W3C//DTD SVG 1.1//EN" "http://www.w3.org/Graphics/SVG/1.1/DTD/svg11.dtd">
<!-- Creator: CorelDRAW X7 -->
<svg xmlns="http://www.w3.org/2000/svg" xml:space="preserve" width="28.9266mm" height="32.1176mm" version="1.1" style="shape-rendering:geometricPrecision; text-rendering:geometricPrecision; image-rendering:optimizeQuality; fill-rule:evenodd; clip-rule:evenodd"
viewBox="0 0 45 50"
 xmlns:xlink="http://www.w3.org/1999/xlink">
 <defs>
  <style type="text/css">
   <![CDATA[
    .fil0 {fill:#4DFFFF;fill-rule:nonzero}
   ]]>
  </style>
 </defs>
 <g id="Слой_x0020_1">
  <metadata id="CorelCorpID_0Corel-Layer"/>
  <g id="_3013996383376">
   <path class="fil0" d="M10 0l23 0c1,0 2,0 3,1 0,1 1,2 1,2l0 24c0,1 -1,2 -1,2 -1,1 -2,1 -3,1l-23 0c-1,0 -2,0 -3,-1 0,0 -1,-1 -1,-2l0 -24c0,0 1,-1 1,-2 1,-1 2,-1 3,-1zm23 1l-23 0c-1,0 -1,0 -2,1 0,0 -1,1 -1,1l0 24c0,0 1,1 1,1 1,1 1,1 2,1l23 0c1,0 1,0 2,-1 0,0 1,-1 1,-1l0 -24c0,0 -1,-1 -1,-1 -1,-1 -1,-1 -2,-1z"/>
   <polygon class="fil0" points="14,9 16,9 18,19 20,9 22,9 25,19 27,9 29,9 26,23 24,23 21,11 19,23 17,23 "/>
   <path class="fil0" d="M4 42c1,1 1,1 1,2 0,1 0,2 0,2 -1,1 -2,1 -2,1l-3 0c0,0 0,0 0,0l0 -9c0,0 0,0 0,0l3 0c0,0 1,0 1,1 1,0 1,1 1,1 0,1 0,2 -1,2zm-3 -3l0 3 2 0c0,0 0,-1 1,-1 0,0 0,0 0,-1 0,0 0,0 0,-1 -1,0 -1,0 -1,0l-2 0zm0 3l0 4 2 0c0,0 1,0 1,0 0,-1 1,-1 1,-2 0,0 -1,-1 -1,-1 0,0 -1,-1 -1,-1l-2 0zm10 -1c1,0 1,0 1,0 1,0 1,0 1,-1 0,0 0,0 0,0 0,0 0,-1 0,-1 0,0 -1,0 -1,0 0,0 0,0 0,0 -1,0 -1,1 -1,1l0 1zm3 0c0,0 0,0 1,1 0,0 0,0 0,1l0 2c0,0 0,1 -1,1 0,1 -1,1 -1,1 -1,0 -2,0 -2,-1 0,0 -1,-1 -1,-1l0 -5c0,-1 1,-1 1,-2 0,0 1,0 1,0 1,0 1,0 2,0 0,1 0,1 0,2 0,0 0,1 0,1zm0 4l0 -2c0,0 0,-1 0,-1 -1,0 -1,0 -1,0 -1,0 -1,0 -1,0 -1,0 -1,1 -1,1l0 2c0,0 0,0 1,1 0,0 0,0 1,0 0,0 0,0 1,0 0,-1 0,-1 0,-1zm9 -3c-1,0 -1,0 -1,0 -1,0 -1,1 -1,1l0 0 3 0 0 0c0,0 0,-1 0,-1 -1,0 -1,0 -1,0zm-2 2l0 1c0,0 0,1 1,1 0,0 0,0 0,0l2 0c1,0 1,0 1,1 0,0 0,0 -1,0l-2 0c0,0 -1,0 -1,-1 0,0 -1,0 -1,-1l0 -2c0,-1 1,-1 1,-2 0,0 1,0 2,0 0,0 1,0 1,0 1,1 1,1 1,2l0 1 -4 0zm9 -3c0,0 0,0 1,0l2 0c1,0 1,0 1,0 1,1 1,1 1,1l0 3c0,1 0,1 -1,1 0,1 0,1 -1,1l-2 0 0 2c0,1 0,1 0,1 -1,0 -1,0 -1,-1l0 -8zm1 1l0 4 2 0c0,0 0,0 1,0 0,0 0,-1 0,-1l0 -3c0,0 0,0 0,0 -1,0 -1,0 -1,0l-2 0zm12 2l2 2c0,0 0,0 0,1 0,0 0,0 -1,0 0,0 0,0 0,0l-1 -2 -2 2c0,0 0,0 0,0 0,0 -1,0 -1,0 0,0 0,0 0,0 0,-1 0,-1 0,-1l2 -2 -2 -3c0,0 0,0 0,0 0,0 0,0 1,0 0,0 0,0 0,0l2 2 1 -2c0,0 0,0 0,0 1,0 1,0 1,0 0,0 0,0 0,0l-2 3z"/>
  </g>
 </g>
</svg>
