<?xml version="1.0" encoding="UTF-8"?>
<!DOCTYPE svg PUBLIC "-//W3C//DTD SVG 1.1//EN" "http://www.w3.org/Graphics/SVG/1.1/DTD/svg11.dtd">
<!-- Creator: CorelDRAW X7 -->
<svg xmlns="http://www.w3.org/2000/svg" xml:space="preserve" width="47.6227mm" height="39.0589mm" version="1.1" style="shape-rendering:geometricPrecision; text-rendering:geometricPrecision; image-rendering:optimizeQuality; fill-rule:evenodd; clip-rule:evenodd"
viewBox="0 0 208 170"
 xmlns:xlink="http://www.w3.org/1999/xlink">
 <defs>
  <style type="text/css">
   <![CDATA[
    .fil0 {fill:#4DFFFF;fill-rule:nonzero}
   ]]>
  </style>
 </defs>
 <g id="Слой_x0020_1">
  <metadata id="CorelCorpID_0Corel-Layer"/>
  <g id="_3014231337632">
   <g>
    <path class="fil0" d="M70 0l65 0c2,0 5,1 6,3 2,2 3,4 3,7l0 64c0,2 -1,5 -3,6 -1,2 -4,3 -6,3l-65 0c-2,0 -5,-1 -6,-3 -2,-1 -3,-4 -3,-6l0 -64c0,-3 1,-5 3,-7 1,-2 4,-3 6,-3zm65 3l-65 0c-2,0 -3,1 -4,2 -2,1 -2,3 -2,5l0 64c0,2 0,3 2,4 1,2 2,2 4,2l65 0c1,0 3,0 4,-2 1,-1 2,-2 2,-4l0 -64c0,-2 -1,-4 -2,-5 -1,-1 -3,-2 -4,-2z"/>
    <polygon class="fil0" points="90,23 115,23 115,27 95,27 95,39 111,39 111,44 95,44 95,61 90,61 "/>
   </g>
   <path class="fil0" d="M11 116l1 0c2,0 3,-1 4,-2 1,-1 1,-2 1,-3l0 -2c0,-1 0,-2 -1,-3 -1,-1 -2,-2 -4,-2l-1 0 0 12zm-2 0l0 -12 -2 0c-1,0 -2,1 -3,2 -1,1 -2,2 -2,3l0 2c0,1 1,2 2,3 1,1 2,2 3,2l2 0zm2 2l0 4c0,1 0,1 -1,1 -1,0 -1,0 -1,-1l0 -4 -2 0c-2,0 -3,-1 -5,-2 -1,-1 -2,-3 -2,-5l0 -2c0,-2 1,-3 2,-5 2,-1 3,-2 5,-2l2 0 0 -2c0,-1 0,-2 1,-2 1,0 1,1 1,2l0 2 1 0c3,0 4,1 6,2 1,2 2,3 2,5l0 2c0,2 -1,4 -2,5 -2,1 -3,2 -6,2l-1 0z"/>
   <path id="1" class="fil0" d="M40 108l-5 0c-1,0 -1,0 -2,1 0,0 -1,1 -1,2l0 7c0,1 1,1 1,2 1,0 1,1 2,1l2 0c1,0 2,-1 2,-1 1,-1 1,-1 1,-2l0 -10zm5 14c0,1 -1,1 -1,1 -2,0 -3,0 -3,-1 -1,1 -2,1 -4,1l-2 0c-2,0 -3,0 -4,-1 -1,-1 -1,-2 -1,-4l0 -7c0,-2 0,-3 1,-4 1,-1 2,-1 4,-1l6 0c1,0 1,0 1,1l0 12c0,1 1,2 2,2 0,0 1,0 1,1z"/>
   <path id="2" class="fil0" d="M71 107l0 15c0,1 0,1 -1,1l-7 0c-1,0 -2,0 -3,-1 -1,-1 -1,-2 -1,-4l0 -11c0,-1 0,-1 1,-1 1,0 1,0 1,1l0 11c0,1 0,1 1,2 0,0 1,1 1,1l5 0 0 -14c0,-1 1,-1 2,-1 1,0 1,0 1,1zm-4 -6l-5 0c-1,0 -1,-1 -1,-2 0,0 0,-1 1,-1l5 0c1,0 1,1 1,1 0,1 0,2 -1,2z"/>
   <path id="3" class="fil0" d="M92 106l5 0c1,0 1,0 1,1l0 15c0,1 0,1 -1,1 -1,0 -1,0 -1,-1l0 -14 -3 0 -5 14c0,1 0,1 -1,1 -1,0 -1,0 -1,-1 0,0 0,0 0,0l5 -15c0,-1 1,-1 1,-1z"/>
   <path id="4" class="fil0" d="M113 117l0 -5c0,-2 1,-3 2,-4 1,-2 3,-2 4,-2 2,0 4,0 5,2 1,1 2,2 2,4l0 5c0,2 -1,3 -2,4 -1,2 -3,2 -5,2 -1,0 -3,0 -4,-2 -1,-1 -2,-2 -2,-4zm10 0l0 -5c0,-1 0,-2 -1,-3 -1,0 -1,-1 -3,-1 -1,0 -1,1 -2,1 -1,1 -1,2 -1,3l0 5c0,1 0,2 1,3 1,0 1,1 2,1 2,0 2,-1 3,-1 1,-1 1,-2 1,-3z"/>
   <path id="5" class="fil0" d="M143 107c1,-1 2,-1 3,-1 1,0 1,-1 1,-1 1,-1 1,-1 1,-2 0,0 0,-1 -1,-2 0,0 -1,0 -1,0 -1,0 -2,0 -2,0 -1,1 -1,2 -1,2l0 4zm6 -1c1,1 2,1 3,3 1,1 1,2 1,3l0 5c0,2 -1,3 -2,4 -1,2 -2,2 -4,2 -2,0 -3,0 -5,-2 -1,-1 -1,-2 -1,-4l0 -14c0,-1 0,-2 1,-3 1,-1 2,-2 4,-2 1,0 2,1 3,2 1,1 2,2 2,3 0,1 -1,3 -2,3zm2 11l0 -5c0,-1 -1,-2 -1,-3 -1,0 -2,-1 -3,-1 -1,0 -2,1 -3,1 -1,1 -1,2 -1,3l0 5c0,1 0,2 1,3 1,0 2,1 3,1 1,0 2,-1 3,-1 0,-1 1,-2 1,-3z"/>
   <path id="6" class="fil0" d="M177 108l-5 0c-1,0 -2,0 -2,1 0,0 -1,1 -1,2l0 7c0,1 1,1 1,2 0,0 1,1 2,1l2 0c1,0 2,-1 2,-1 1,-1 1,-1 1,-2l0 -10zm5 14c0,1 -1,1 -2,1 -1,0 -2,0 -2,-1 -1,1 -2,1 -4,1l-2 0c-2,0 -3,0 -4,-1 -1,-1 -1,-2 -1,-4l0 -7c0,-2 0,-3 1,-4 1,-1 2,-1 4,-1l6 0c1,0 1,0 1,1l0 12c0,1 1,2 1,2 1,0 2,0 2,1z"/>
   <path id="7" class="fil0" d="M200 116c-1,0 -3,-1 -3,-2 -1,-1 -2,-2 -2,-3 0,-2 1,-3 2,-4 1,-1 2,-1 3,-1l7 0c0,0 1,0 1,1l0 15c0,1 -1,1 -1,1 -1,0 -2,0 -2,-1l0 -6 -2 0 -5 7c-1,0 -1,0 -1,0 -1,0 -2,0 -2,-1 0,0 0,-1 1,-1l4 -5zm-2 -5c0,0 0,1 1,2 0,0 1,0 1,0l5 0 0 -5 -5 0c0,0 -1,0 -1,1 -1,0 -1,1 -1,2z"/>
   <path id="8" class="fil0" d="M21 158l0 7c0,1 0,2 1,2 0,1 1,1 2,1l3 0c1,0 2,0 2,1 0,1 -1,1 -2,1l-3 0c-2,0 -3,0 -4,-1 -1,-1 -1,-2 -1,-4l0 -7c0,-1 0,-3 1,-4 1,0 2,-1 4,-1l3 0c1,0 2,0 2,1 0,1 -1,2 -2,2l-3 0c-1,0 -2,0 -2,0 -1,1 -1,1 -1,2z"/>
   <path id="9" class="fil0" d="M57 154l0 15c0,1 0,1 -1,1l-6 0c-2,0 -3,0 -4,-1 -1,-1 -1,-2 -1,-4l0 -11c0,-1 0,-1 1,-1 1,0 1,0 1,1l0 12c0,0 1,1 1,1 1,1 1,1 2,1l5 0 0 -14c0,-1 0,-1 1,-1 1,0 1,0 1,1z"/>
   <path id="10" class="fil0" d="M76 158l0 7c0,1 0,2 1,2 0,1 1,1 1,1l4 0c1,0 1,0 1,1 0,1 0,1 -1,1l-4 0c-1,0 -2,0 -3,-1 -1,-1 -2,-2 -2,-4l0 -7c0,-1 1,-3 2,-4 1,0 2,-1 3,-1l4 0c1,0 1,0 1,1 0,1 0,2 -1,2l-4 0c0,0 -1,0 -1,0 -1,1 -1,1 -1,2z"/>
   <path id="11" class="fil0" d="M98 153l12 0c1,0 2,1 3,2 1,0 1,2 1,3l0 11c0,1 0,1 -1,1 -1,0 -1,0 -1,-1l0 -11c0,-1 0,-1 -1,-2 0,0 -1,0 -1,0l-3 0 0 13c0,1 0,1 -1,1 -1,0 -1,0 -1,-1l0 -13 -5 0 0 13c0,1 -1,1 -2,1 0,0 -1,0 -1,-1l0 -15c0,-1 1,-1 1,-1z"/>
   <path id="12" class="fil0" d="M133 156c-1,0 -2,0 -2,1 -1,0 -2,1 -2,2l0 2 8 0 0 -2c0,-1 0,-2 -1,-2 -1,-1 -2,-1 -3,-1zm-4 7l0 3c0,0 1,1 1,1 1,1 1,1 2,1l6 0c1,0 1,0 1,1 0,1 0,1 -1,1l-6 0c-1,0 -3,0 -4,-1 -1,-1 -1,-2 -1,-4l0 -6c0,-1 1,-3 2,-4 1,-1 2,-2 4,-2 2,0 3,1 5,2 1,1 1,3 1,4l0 4 -10 0z"/>
   <path id="13" class="fil0" d="M161 164l-5 -6 0 11c0,1 -1,1 -2,1 0,0 -1,0 -1,-1l0 -15c0,-1 1,-1 1,-1 1,0 1,0 2,1l5 6 5 -6c0,-1 0,-1 1,-1 1,0 1,0 1,1l0 15c0,1 0,1 -1,1 -1,0 -1,0 -1,-1l0 -11 -5 6z"/>
   <path id="14" class="fil0" d="M190 156l-5 0c0,0 -1,0 -1,0 -1,1 -1,1 -1,2l0 7c0,1 0,2 1,2 0,1 1,1 1,1l3 0c1,0 1,0 2,-1 0,0 0,-1 0,-2l0 -9zm5 13c0,1 0,1 -1,1 -1,0 -2,0 -3,-1 -1,1 -2,1 -3,1l-3 0c-1,0 -2,0 -3,-1 -1,-1 -2,-2 -2,-4l0 -7c0,-1 1,-3 2,-4 1,0 2,-1 3,-1l7 0c1,0 1,0 1,1l0 13c0,1 0,1 1,1 1,0 1,0 1,1z"/>
  </g>
 </g>
</svg>
