<?xml version="1.0" encoding="UTF-8"?>
<!DOCTYPE svg PUBLIC "-//W3C//DTD SVG 1.1//EN" "http://www.w3.org/Graphics/SVG/1.1/DTD/svg11.dtd">
<!-- Creator: CorelDRAW X7 -->
<svg xmlns="http://www.w3.org/2000/svg" xml:space="preserve" width="40.774mm" height="38.9562mm" version="1.1" style="shape-rendering:geometricPrecision; text-rendering:geometricPrecision; image-rendering:optimizeQuality; fill-rule:evenodd; clip-rule:evenodd"
viewBox="0 0 111 106"
 xmlns:xlink="http://www.w3.org/1999/xlink">
 <defs>
  <style type="text/css">
   <![CDATA[
    .fil0 {fill:#4DFFFF;fill-rule:nonzero}
   ]]>
  </style>
 </defs>
 <g id="Слой_x0020_1">
  <metadata id="CorelCorpID_0Corel-Layer"/>
  <g id="_3014306774032">
   <g>
    <path class="fil0" d="M34 0l40 0c2,0 3,1 5,2 1,1 1,2 1,4l0 40c0,2 0,3 -1,4 -2,1 -3,2 -5,2l-40 0c-2,0 -3,-1 -4,-2 -1,-1 -2,-2 -2,-4l0 -40c0,-2 1,-3 2,-4 1,-1 2,-2 4,-2zm40 2l-40 0c-1,0 -2,0 -3,1 -1,1 -1,2 -1,3l0 40c0,1 0,2 1,3 1,1 2,1 3,1l40 0c1,0 2,0 3,-1 1,-1 1,-2 1,-3l0 -40c0,-1 0,-2 -1,-3 -1,-1 -2,-1 -3,-1z"/>
    <polygon class="fil0" points="48,14 64,14 64,17 50,35 64,35 64,38 47,38 47,35 60,17 48,17 "/>
   </g>
   <path class="fil0" d="M8 72l0 -6c0,-1 0,-2 -1,-2 -1,-1 -1,-1 -2,-1 -1,0 -2,0 -3,1 0,0 0,1 0,2l0 6c0,1 0,2 0,2 1,1 2,1 3,1 1,0 1,0 2,-1 1,0 1,-1 1,-2zm1 0c0,1 0,3 -1,3 -1,1 -2,2 -3,2 -2,0 -3,-1 -4,-2 -1,0 -1,-2 -1,-3l0 -6c0,-1 0,-2 1,-3 1,-1 2,-2 4,-2 1,0 2,1 3,2 1,0 1,2 1,3l0 6z"/>
   <path id="1" class="fil0" d="M17 66l7 0c1,0 2,0 2,1 1,0 1,1 1,2l0 7c0,1 0,1 -1,1 0,0 0,0 0,-1l0 -7c0,0 0,-1 -1,-1 0,0 0,-1 -1,-1l-1 0 0 9c0,1 -1,1 -1,1 -1,0 -1,0 -1,-1l0 -9 -3 0 0 9c0,1 0,1 -1,1 0,0 -1,0 -1,-1l0 -9c0,-1 1,-1 1,-1z"/>
   <path id="2" class="fil0" d="M37 71l5 -5c0,0 0,0 0,0 1,0 1,0 1,1 0,0 0,0 0,0l-4 4 4 5c0,0 0,0 0,0 0,1 0,1 -1,1 0,0 0,0 -1,-1l-3 -4 -1 1 0 3c0,1 -1,1 -1,1 -1,0 -1,0 -1,-1l0 -9c0,-1 0,-1 1,-1 0,0 1,0 1,1l0 4z"/>
   <path id="3" class="fil0" d="M52 67c0,-1 0,-1 1,-1l4 0c1,0 1,0 2,1 1,0 1,1 1,2l0 5c0,1 0,1 -1,2 -1,1 -1,1 -2,1l-3 0 0 4c0,0 -1,0 -1,0 -1,0 -1,0 -1,0l0 -14zm2 0l0 8 3 0c0,0 1,0 1,0 0,0 0,-1 0,-1l0 -5c0,0 0,-1 0,-1 0,0 -1,-1 -1,-1l-3 0z"/>
   <path id="4" class="fil0" d="M75 74c0,1 -1,1 -1,2 -1,1 -1,1 -2,1l-3 0c0,0 0,0 0,-1l0 -9c0,-1 0,-1 0,-1 1,0 1,0 1,1l0 4 2 0c1,0 1,0 2,1 0,0 1,1 1,2zm-2 0c0,-1 0,-1 0,-1 -1,-1 -1,-1 -1,-1l-2 0 0 3 2 0c0,0 0,0 1,0 0,0 0,-1 0,-1zm3 -7c0,-1 1,-1 1,-1 1,0 1,0 1,1l0 9c0,1 0,1 -1,1 0,0 -1,0 -1,-1l0 -9z"/>
   <path id="5" class="fil0" d="M86 66l7 0c1,0 1,0 2,1 0,0 1,1 1,2l0 7c0,1 0,1 -1,1 0,0 -1,0 -1,-1l0 -7c0,0 0,-1 0,-1 -1,0 -1,-1 -1,-1l-2 0 0 9c0,1 0,1 -1,1 0,0 0,0 0,-1l0 -9 -4 0 0 9c0,1 0,1 0,1 -1,0 -1,0 -1,-1l0 -9c0,-1 0,-1 1,-1z"/>
   <path id="6" class="fil0" d="M111 74c0,1 0,1 -1,2 0,1 -1,1 -2,1l-4 0c0,0 0,0 0,-1l0 -9c0,-1 0,-1 0,-1 1,0 1,0 1,1l0 4 3 0c1,0 2,0 2,1 1,0 1,1 1,2zm-1 0c0,-1 0,-1 -1,-1 0,-1 0,-1 -1,-1l-3 0 0 3 3 0c1,0 1,0 1,0 1,0 1,-1 1,-1z"/>
   <path id="7" class="fil0" d="M30 96l3 0c1,0 1,0 1,0l0 10c0,0 0,0 -1,0 0,0 0,0 0,0l0 -9 -2 0 -3 9c0,0 0,0 -1,0 0,0 -1,0 -1,0 0,0 0,-1 1,-1l3 -9c0,0 0,0 0,0z"/>
   <path id="8" class="fil0" d="M46 102l-2 0 0 4c0,0 0,0 -1,0 0,0 -1,0 -1,0l0 -10c0,0 1,0 1,0 1,0 1,0 1,0l0 4 2 0 0 -1c0,-1 1,-2 1,-3 1,0 2,0 2,0 1,0 2,0 3,0 0,1 1,2 1,3l0 4c0,1 -1,2 -1,3 -1,0 -2,0 -3,0 0,0 -1,0 -2,0 0,-1 -1,-2 -1,-3l0 -1zm3 3c1,0 1,0 2,-1 0,0 0,0 0,-1l0 -4c0,-1 0,-1 0,-1 -1,-1 -1,-1 -2,-1 0,0 0,0 -1,1 0,0 0,0 0,1l0 4c0,1 0,1 0,1 1,1 1,1 1,1z"/>
   <path id="9" class="fil0" d="M62 101l5 -5c0,0 1,0 1,0 0,0 1,0 1,0 0,0 -1,1 -1,1l-3 3 3 5c0,0 1,0 1,1 0,0 -1,0 -1,0 -1,0 -1,0 -1,0l-3 -5 -2 2 0 3c0,0 0,0 0,0 -1,0 -1,0 -1,0l0 -10c0,0 0,0 1,0 0,0 0,0 0,0l0 5z"/>
   <path id="10" class="fil0" d="M86 96l0 10c0,0 -1,0 -1,0l-4 0c-1,0 -2,0 -2,0 -1,-1 -1,-2 -1,-3l0 -7c0,0 0,0 1,0 0,0 0,0 0,0l0 7c0,1 1,1 1,1 0,1 1,1 1,1l3 0 0 -9c0,0 0,0 1,0 0,0 1,0 1,0z"/>
  </g>
 </g>
</svg>
