<?xml version="1.0" encoding="UTF-8"?>
<!DOCTYPE svg PUBLIC "-//W3C//DTD SVG 1.1//EN" "http://www.w3.org/Graphics/SVG/1.1/DTD/svg11.dtd">
<!-- Creator: CorelDRAW X7 -->
<svg xmlns="http://www.w3.org/2000/svg" xml:space="preserve" width="53.0434mm" height="53.0427mm" version="1.1" style="shape-rendering:geometricPrecision; text-rendering:geometricPrecision; image-rendering:optimizeQuality; fill-rule:evenodd; clip-rule:evenodd"
viewBox="0 0 116 116"
 xmlns:xlink="http://www.w3.org/1999/xlink">
 <defs>
  <style type="text/css">
   <![CDATA[
    .fil1 {fill:#FFE866}
    .fil0 {fill:#FFE866;fill-rule:nonzero}
   ]]>
  </style>
 </defs>
 <g id="Слой_x0020_1">
  <metadata id="CorelCorpID_0Corel-Layer"/>
  <g id="_2149269695376">
   <path class="fil0" d="M58 0c16,0 31,7 41,17 11,10 17,25 17,41 0,16 -6,31 -17,41 -10,11 -25,17 -41,17 -16,0 -31,-6 -41,-17 -10,-10 -17,-25 -17,-41 0,-16 7,-31 17,-41 10,-10 25,-17 41,-17zm36 23c-10,-10 -22,-15 -36,-15 -14,0 -26,5 -35,15 -10,9 -15,21 -15,35 0,14 5,26 15,36 9,9 21,14 35,14 14,0 26,-5 36,-14 9,-10 14,-22 14,-36 0,-14 -5,-26 -14,-35z"/>
   <g>
    <path class="fil1" d="M53 77l0 -3 3 -1 1 4 3 0 0 -3 3 0 0 3c5,0 5,-2 5,-7 0,-3 -1,-3 2,-3 6,0 12,1 14,-4 0,-1 0,-3 0,-5 0,-3 -1,-2 -2,-4 2,-2 3,-1 2,-8 0,-8 -5,-15 -11,-19 -6,-3 -10,-3 -18,-3 -15,0 -25,14 -23,27 0,2 2,1 2,3 0,1 -2,1 -2,3 -1,3 0,7 2,8 2,2 5,2 9,2 6,0 5,-2 5,4 0,5 0,6 5,6zm6 -10c0,1 1,1 2,1 1,0 1,-1 1,-1 0,-2 -1,-3 -2,-5 -3,-5 -5,1 -6,4 0,0 0,1 1,2 0,0 1,0 1,0 1,0 1,-1 1,-1 1,-1 1,-1 2,0zm-19 -18c-3,1 -6,10 3,11 2,0 5,0 6,0 2,-1 6,-6 1,-9 -2,-1 -7,-3 -10,-2zm32 0c0,0 0,0 0,0l0 0 0 0 0 0 0 0 0 0 0 0 0 0 0 0 0 0 0 0 0 0 -1 0 0 0 0 0 0 0 0 0 0 0 0 0 0 0 0 0 0 0 0 0 0 0 0 0 0 0 0 0 0 0 0 0 0 0 0 0 0 0 -1 0 0 0 0 0 0 0 0 0 0 0 0 0 0 0 0 0 0 0 0 1 0 0 0 0 0 0 0 0 0 0 0 0 0 0 -1 0 0 0 0 0 0 0 0 0 0 0 0 0 0 0 0 0 0 0 0 0 0 0 0 0 0 0 0 0 0 0 -1 0 0 0 0 0 0 0 0 0 0 0 0 0 0 0 0 0 0 0 0 0 0 0 0 0 0 0 0 0 0 0 0 1 -1 0 0 0 0 0 0 0 0 0 0 0 0 0 0 0 0 0 0 0 0 0 0 0 0 0 0 0 0 0 0 0 0 0 -1 0 0 0 0 0 0 0 0 0 0 0 0 0 0 0 0 0 0 0 0 0 0 0 0 0 0 0 0 0c-1,1 -2,2 -2,3 0,0 0,0 0,0 0,1 0,3 1,4 2,2 3,2 6,2 4,-1 8,0 8,-5 0,-5 -2,-7 -7,-6z"/>
    <path class="fil1" d="M78 70l-5 0c0,8 1,12 -10,12l0 3 -3 0 0 -3 -4 0 0 3 -3 0 0 -3c-10,0 -10,-4 -10,-12l-5 0c0,13 -1,11 6,16 2,2 4,3 6,5 3,2 2,-1 8,-1 6,0 5,3 8,1 2,-1 4,-3 6,-4 2,-2 5,-3 5,-6 1,-2 1,-8 1,-11z"/>
   </g>
  </g>
 </g>
</svg>
