<?xml version="1.0" encoding="UTF-8"?>
<!DOCTYPE svg PUBLIC "-//W3C//DTD SVG 1.1//EN" "http://www.w3.org/Graphics/SVG/1.1/DTD/svg11.dtd">
<!-- Creator: CorelDRAW X7 -->
<svg xmlns="http://www.w3.org/2000/svg" xml:space="preserve" width="53.0434mm" height="53.0427mm" version="1.1" style="shape-rendering:geometricPrecision; text-rendering:geometricPrecision; image-rendering:optimizeQuality; fill-rule:evenodd; clip-rule:evenodd"
viewBox="0 0 116 116"
 xmlns:xlink="http://www.w3.org/1999/xlink">
 <defs>
  <style type="text/css">
   <![CDATA[
    .fil1 {fill:#FFE866}
    .fil0 {fill:#FFE866;fill-rule:nonzero}
   ]]>
  </style>
 </defs>
 <g id="Слой_x0020_1">
  <metadata id="CorelCorpID_0Corel-Layer"/>
  <path class="fil0" d="M58 0c16,0 31,7 41,17 11,10 17,25 17,41 0,16 -6,31 -17,41 -10,11 -25,17 -41,17 -16,0 -31,-6 -41,-17 -10,-10 -17,-25 -17,-41 0,-16 7,-31 17,-41 10,-10 25,-17 41,-17zm36 23c-10,-10 -22,-15 -36,-15 -14,0 -26,5 -35,15 -10,9 -15,21 -15,35 0,14 5,26 15,36 9,9 21,14 35,14 14,0 26,-5 36,-14 9,-10 14,-22 14,-36 0,-14 -5,-26 -14,-35z"/>
  <path class="fil1" d="M49 30l-13 27c-1,3 0,4 3,4 4,0 7,0 9,0 3,-1 7,1 6,4 -2,7 -5,15 -7,23 -1,3 -1,4 2,4 4,0 5,0 7,-5l21 -33c2,-2 2,-4 -1,-4 -3,0 -8,0 -11,0 -3,0 -7,-2 -4,-6l8 -14c3,-5 2,-6 -2,-6 -4,0 -7,0 -11,0 -6,0 -5,1 -7,6z"/>
 </g>
</svg>
