<?xml version="1.0" encoding="UTF-8"?>
<!DOCTYPE svg PUBLIC "-//W3C//DTD SVG 1.1//EN" "http://www.w3.org/Graphics/SVG/1.1/DTD/svg11.dtd">
<!-- Creator: CorelDRAW X7 -->
<svg xmlns="http://www.w3.org/2000/svg" xml:space="preserve" width="53.0434mm" height="53.0427mm" version="1.1" style="shape-rendering:geometricPrecision; text-rendering:geometricPrecision; image-rendering:optimizeQuality; fill-rule:evenodd; clip-rule:evenodd"
viewBox="0 0 116 116"
 xmlns:xlink="http://www.w3.org/1999/xlink">
 <defs>
  <style type="text/css">
   <![CDATA[
    .fil1 {fill:#FFE866}
    .fil0 {fill:#FFE866;fill-rule:nonzero}
   ]]>
  </style>
 </defs>
 <g id="Слой_x0020_1">
  <metadata id="CorelCorpID_0Corel-Layer"/>
  <g id="_2149281461536">
   <path class="fil0" d="M58 0c16,0 31,7 41,17 11,10 17,25 17,41 0,16 -6,31 -17,41 -10,11 -25,17 -41,17 -16,0 -31,-6 -41,-17 -10,-10 -17,-25 -17,-41 0,-16 7,-31 17,-41 10,-10 25,-17 41,-17zm36 23c-10,-10 -22,-15 -36,-15 -14,0 -26,5 -35,15 -10,9 -15,21 -15,35 0,14 5,26 15,36 9,9 21,14 35,14 14,0 26,-5 36,-14 9,-10 14,-22 14,-36 0,-14 -5,-26 -14,-35z"/>
   <path class="fil1" d="M40 55c0,-5 0,-6 -2,-11 -1,3 -1,5 -2,7 -4,10 -12,21 -1,33 2,2 7,6 10,7 -2,-6 -3,-9 0,-16 1,-3 3,-4 4,-7 1,-2 2,-4 2,-7 2,2 3,6 2,9 5,-4 6,-11 6,-18 2,2 5,5 7,7 1,3 3,6 4,9 3,10 2,15 -1,23 1,-1 5,-3 6,-4 13,-10 15,-23 8,-37 -2,-4 -8,-11 -10,-12 1,2 2,8 -1,11 0,0 0,0 0,0 -3,-5 -2,-8 -7,-14 -2,-3 -7,-9 -12,-10 1,11 -4,19 -10,27l-3 3z"/>
  </g>
 </g>
</svg>
