<?xml version="1.0" encoding="UTF-8"?>
<!DOCTYPE svg PUBLIC "-//W3C//DTD SVG 1.1//EN" "http://www.w3.org/Graphics/SVG/1.1/DTD/svg11.dtd">
<!-- Creator: CorelDRAW X7 -->
<svg xmlns="http://www.w3.org/2000/svg" xml:space="preserve" width="72.4147mm" height="108.327mm" version="1.1" style="shape-rendering:geometricPrecision; text-rendering:geometricPrecision; image-rendering:optimizeQuality; fill-rule:evenodd; clip-rule:evenodd"
viewBox="0 0 101 151"
 xmlns:xlink="http://www.w3.org/1999/xlink">
 <defs>
  <style type="text/css">
   <![CDATA[
    .str1 {stroke:#4DFFFF;stroke-width:1.04841}
    .str0 {stroke:#2B2A29;stroke-width:0.279576}
    .fil2 {fill:none}
    .fil4 {fill:none;fill-rule:nonzero}
    .fil0 {fill:#162632}
    .fil1 {fill:#4DFFFF;fill-rule:nonzero}
    .fil3 {fill:#4DFFFF;fill-rule:nonzero}
   ]]>
  </style>
 </defs>
 <g id="Слой_x0020_1">
  <metadata id="CorelCorpID_0Corel-Layer"/>
  <g id="_2867351659344">
   <g>
    <rect class="fil0" x="1" y="1" width="99.7983" height="150" rx="6" ry="6"/>
    <path class="fil1" d="M6 0l89 0c2,0 3,1 4,2 2,1 2,3 2,4l0 139c0,2 0,3 -2,5 -1,1 -2,1 -4,1l-89 0c-1,0 -3,0 -4,-1 -1,-2 -2,-3 -2,-5l0 -139c0,-1 1,-3 2,-4 1,-1 3,-2 4,-2zm89 1l-89 0c-1,0 -2,1 -3,2 -1,1 -2,2 -2,3l0 139c0,1 1,3 2,4 1,0 2,1 3,1l89 0c1,0 2,-1 3,-1 1,-1 2,-3 2,-4l0 -139c0,-1 -1,-2 -2,-3 -1,-1 -2,-2 -3,-2z"/>
    <rect class="fil2 str0" x="41" y="65" width="20.183" height="22.324"/>
    <g>
     <path class="fil3" d="M9 17l-1 2c0,0 0,0 0,0 0,0 0,0 0,0 0,0 0,0 -1,0 0,0 0,0 0,0l0 0 4 -10c0,0 0,-1 0,-1 0,0 0,1 1,1l3 10 0 0c0,0 0,0 0,0 0,0 -1,0 -1,0 0,0 0,0 0,0 0,0 0,0 0,0l-1 -2 -4 0zm4 -1l-2 -5 -2 5 4 0z"/>
     <path class="fil3" d="M92 135l1 -3c0,0 0,0 0,0 0,0 0,0 0,0 1,0 1,0 1,0 0,0 0,0 0,1l0 0 -3 10c0,0 -1,0 -1,0 0,0 0,0 0,0l-4 -10 0 0c0,-1 0,-1 1,-1 0,0 0,0 0,0 0,0 0,0 0,0 0,0 0,0 0,0l1 3 4 0zm-3 1l1 5 2 -5 -3 0z"/>
    </g>
    <path class="fil4 str1" d="M11 24c1,-1 1,-2 2,-2 1,0 2,1 2,2 0,2 -2,4 -4,6 -2,-2 -3,-4 -3,-6 0,-1 1,-2 1,-2 1,0 2,1 2,2z"/>
    <path class="fil4 str1" d="M90 128c0,0 1,1 2,1 1,0 2,-1 2,-2 0,-2 -2,-4 -4,-5 -2,1 -4,3 -4,5 0,1 1,2 2,2 1,0 2,-1 2,-1z"/>
    <path class="fil4 str1" d="M51 69c1,-2 2,-3 4,-3 3,0 5,2 5,5 0,5 -5,10 -9,15 -5,-5 -10,-10 -10,-15 0,-3 2,-5 5,-5 2,0 3,1 5,3z"/>
    <rect class="fil0" x="1" y="1" width="99.7983" height="150" rx="6" ry="6"/>
    <path class="fil1" d="M6 0l89 0c2,0 3,1 4,2 2,1 2,3 2,4l0 139c0,2 0,3 -2,5 -1,1 -2,1 -4,1l-89 0c-1,0 -3,0 -4,-1 -1,-2 -2,-3 -2,-5l0 -139c0,-1 1,-3 2,-4 1,-1 3,-2 4,-2zm89 1l-89 0c-1,0 -2,1 -3,2 -1,1 -2,2 -2,3l0 139c0,1 1,3 2,4 1,0 2,1 3,1l89 0c1,0 2,-1 3,-1 1,-1 2,-3 2,-4l0 -139c0,-1 -1,-2 -2,-3 -1,-1 -2,-2 -3,-2z"/>
    <g>
     <path class="fil3" d="M10 10l0 3 2 0c0,0 1,0 2,1 0,0 0,1 0,1l0 2c0,0 0,1 0,1 -1,1 -2,1 -2,1l-2 0c-1,0 -1,0 -1,0 0,0 0,0 0,0 0,0 0,-1 0,-1 0,0 0,0 1,0l2 0c0,0 0,0 1,0 0,-1 0,-1 0,-1l0 -2c0,0 0,0 0,-1 0,0 -1,0 -1,0l-2 0c-1,0 -1,0 -1,-1l0 -4c0,0 0,-1 1,-1l4 0c0,0 0,1 0,1 0,0 0,0 0,0 0,0 0,0 0,0 0,0 0,1 0,1l-4 0z"/>
     <path class="fil3" d="M92 142l0 -3 -2 0c-1,0 -1,-1 -2,-1 -1,-1 -1,-1 -1,-2l0 -1c0,-1 0,-2 1,-2 1,-1 1,-1 2,-1l2 0c0,0 0,0 0,0 1,0 1,0 1,1 0,0 0,0 -1,0 0,0 0,0 0,0l-2 0c-1,0 -1,0 -1,1 -1,0 -1,0 -1,1l0 1c0,0 0,1 1,1 0,0 0,0 1,0l2 0c0,0 1,1 1,1l0 4c0,1 -1,1 -1,1l-4 0c0,0 -1,0 -1,0 0,0 0,-1 0,-1 0,0 0,0 0,0 0,0 1,0 1,0l4 0z"/>
    </g>
    <path class="fil4 str1" d="M11 24c1,-1 1,-2 2,-2 1,0 2,1 2,2 0,2 -2,4 -4,6 -2,-2 -3,-4 -3,-6 0,-1 1,-2 1,-2 1,0 2,1 2,2z"/>
    <path class="fil4 str1" d="M90 128c0,0 1,1 2,1 1,0 2,-1 2,-2 0,-2 -2,-4 -4,-5 -2,1 -4,3 -4,5 0,1 1,2 2,2 1,0 2,-1 2,-1z"/>
   </g>
   <path class="fil4 str1" d="M33 13c1,-2 2,-3 4,-3 2,0 4,2 4,4 0,5 -4,9 -8,13 -4,-4 -8,-8 -8,-13 0,-2 1,-4 4,-4 2,0 3,1 4,3z"/>
   <path class="fil4 str1" d="M71 127c1,-2 2,-3 4,-3 3,0 4,1 4,4 0,4 -4,8 -8,12 -4,-4 -8,-8 -8,-12 0,-3 2,-4 4,-4 2,0 3,1 4,3z"/>
   <path class="fil4 str1" d="M71 13c1,-2 2,-3 4,-3 3,0 4,2 4,4 0,5 -4,9 -8,13 -4,-4 -8,-8 -8,-13 0,-2 2,-4 4,-4 2,0 3,1 4,3z"/>
   <path class="fil4 str1" d="M33 127c1,-2 2,-3 4,-3 2,0 4,1 4,4 0,4 -4,8 -8,12 -4,-4 -8,-8 -8,-12 0,-3 1,-4 4,-4 2,0 3,1 4,3z"/>
   <path class="fil4 str1" d="M51 70c1,-2 2,-3 4,-3 2,0 4,2 4,4 0,5 -4,9 -8,13 -4,-4 -8,-8 -8,-13 0,-2 1,-4 4,-4 2,0 3,1 4,3z"/>
  </g>
 </g>
</svg>
