<?xml version="1.0" encoding="UTF-8"?>
<!DOCTYPE svg PUBLIC "-//W3C//DTD SVG 1.1//EN" "http://www.w3.org/Graphics/SVG/1.1/DTD/svg11.dtd">
<!-- Creator: CorelDRAW X7 -->
<svg xmlns="http://www.w3.org/2000/svg" xml:space="preserve" width="72.4147mm" height="108.327mm" version="1.1" style="shape-rendering:geometricPrecision; text-rendering:geometricPrecision; image-rendering:optimizeQuality; fill-rule:evenodd; clip-rule:evenodd"
viewBox="0 0 89 133"
 xmlns:xlink="http://www.w3.org/1999/xlink">
 <defs>
  <style type="text/css">
   <![CDATA[
    .str1 {stroke:#4DFFFF;stroke-width:0.91987}
    .str0 {stroke:#2B2A29;stroke-width:0.245299}
    .fil2 {fill:none}
    .fil4 {fill:none;fill-rule:nonzero}
    .fil0 {fill:#162632}
    .fil1 {fill:#4DFFFF;fill-rule:nonzero}
    .fil3 {fill:#4DFFFF;fill-rule:nonzero}
   ]]>
  </style>
 </defs>
 <g id="Слой_x0020_1">
  <metadata id="CorelCorpID_0Corel-Layer"/>
  <g id="_2867352747472">
   <g>
    <rect class="fil0" x="1" y="1" width="87.5627" height="131.609" rx="5" ry="5"/>
    <path class="fil1" d="M6 0l77 0c2,0 3,1 4,2 1,1 2,2 2,4l0 121c0,2 -1,3 -2,4 -1,1 -2,2 -4,2l-77 0c-2,0 -3,-1 -4,-2 -1,-1 -2,-2 -2,-4l0 -121c0,-2 1,-3 2,-4 1,-1 2,-2 4,-2zm77 1l-77 0c-2,0 -3,1 -3,2 -1,0 -2,1 -2,3l0 121c0,1 1,3 2,3 0,1 1,2 3,2l77 0c1,0 2,-1 3,-2 1,0 2,-2 2,-3l0 -121c0,-2 -1,-3 -2,-3 -1,-1 -2,-2 -3,-2z"/>
    <rect class="fil2 str0" x="36" y="57" width="17.7085" height="19.587"/>
    <g>
     <path class="fil3" d="M8 15l-1 2c0,0 0,0 0,0 0,0 0,0 0,0 0,0 0,0 0,0 -1,0 -1,0 -1,-1l0 0 3 -8c0,0 1,-1 1,-1 0,0 0,1 0,1l3 8 0 0c0,1 0,1 0,1 0,0 0,0 0,0 -1,0 -1,0 -1,0 0,0 0,0 0,0l-1 -2 -3 0zm3 -1l-1 -5 -2 5 3 0z"/>
     <path class="fil3" d="M81 118l1 -2c0,0 0,0 0,0 0,0 0,0 0,0 0,0 0,0 0,0 0,0 0,0 0,0l0 1 -2 8c-1,0 -1,0 -1,0 0,0 0,0 0,0l-3 -8 0 -1c0,0 0,0 0,0 0,0 0,0 0,0 0,0 0,0 0,0 1,0 1,0 1,0l0 2 4 0zm-3 1l1 4 2 -4 -3 0z"/>
    </g>
    <path class="fil4 str1" d="M10 21c0,-1 1,-1 1,-1 1,0 2,0 2,1 0,2 -2,3 -3,5 -2,-2 -3,-3 -3,-5 0,-1 0,-1 1,-1 1,0 1,0 2,1z"/>
    <path class="fil4 str1" d="M79 112c0,1 1,1 2,1 0,0 1,-1 1,-1 0,-2 -1,-4 -3,-5 -2,1 -3,3 -3,5 0,0 1,1 1,1 1,0 2,0 2,-1z"/>
    <path class="fil4 str1" d="M44 61c1,-2 3,-3 5,-3 2,0 4,2 4,4 0,4 -4,9 -9,13 -4,-4 -8,-9 -8,-13 0,-2 2,-4 4,-4 2,0 3,1 4,3z"/>
    <rect class="fil0" x="1" y="1" width="87.5627" height="131.609" rx="5" ry="5"/>
    <path class="fil1" d="M6 0l77 0c2,0 3,1 4,2 1,1 2,2 2,4l0 121c0,2 -1,3 -2,4 -1,1 -2,2 -4,2l-77 0c-2,0 -3,-1 -4,-2 -1,-1 -2,-2 -2,-4l0 -121c0,-2 1,-3 2,-4 1,-1 2,-2 4,-2zm77 1l-77 0c-2,0 -3,1 -3,2 -1,0 -2,1 -2,3l0 121c0,1 1,3 2,3 0,1 1,2 3,2l77 0c1,0 2,-1 3,-2 1,0 2,-2 2,-3l0 -121c0,-2 -1,-3 -2,-3 -1,-1 -2,-2 -3,-2z"/>
    <g>
     <path class="fil3" d="M11 12l0 0 0 0 0 -2c0,-1 0,-1 0,-1 0,0 0,0 0,0l-1 0c-1,0 -1,0 -1,0 0,0 0,0 0,0 0,0 0,0 0,1l0 1c0,1 0,1 0,1 0,0 0,0 0,0 0,0 0,0 1,0l1 0zm0 1l-1 0c-1,0 -1,0 -2,0 0,-1 0,-1 0,-2l0 -1c0,-1 0,-1 0,-2 1,0 1,0 2,0l1 0c0,0 0,0 1,0 0,1 0,1 0,2l0 2c0,1 0,2 0,2 0,1 -1,2 -1,2 -1,0 -1,1 -2,1l0 0c0,0 0,0 0,0 0,0 0,0 0,0 0,0 0,-1 0,-1 0,0 0,0 0,0 0,0 0,0 1,0 0,0 0,0 0,-1 1,0 1,0 1,-1l0 0 0 -1z"/>
     <path class="fil3" d="M78 121l0 0 0 0 0 3c0,0 0,0 0,0 0,0 0,0 1,0l1 0c0,0 0,0 0,0 0,0 0,0 0,0 1,0 1,0 1,0l0 -2c0,-1 -1,-1 -1,-1 0,0 0,0 0,0 0,0 0,0 0,0l-2 0zm0 -1l2 0c0,0 1,0 1,0 0,1 0,1 0,2l0 2c0,0 0,0 0,1 0,0 -1,0 -1,0l-1 0c-1,0 -1,0 -2,0 0,-1 0,-1 0,-1l0 -3c0,-1 0,-2 0,-2 1,-1 1,-2 1,-2 1,0 1,-1 2,-1l0 0c0,0 0,0 0,0 0,0 1,0 1,0 0,1 0,1 -1,1 0,0 0,0 0,0 0,0 0,0 0,0 -1,0 -1,1 -1,1 0,0 -1,0 -1,1l0 0 0 1z"/>
    </g>
    <path class="fil4 str1" d="M10 21c0,-1 1,-1 1,-1 1,0 2,0 2,1 0,2 -2,3 -3,5 -2,-2 -3,-3 -3,-5 0,-1 0,-1 1,-1 1,0 1,0 2,1z"/>
    <path class="fil4 str1" d="M79 112c0,1 1,1 2,1 0,0 1,-1 1,-1 0,-2 -1,-4 -3,-5 -2,1 -3,3 -3,5 0,0 1,1 1,1 1,0 2,0 2,-1z"/>
   </g>
   <path class="fil4 str1" d="M29 12c1,-2 1,-3 3,-3 2,0 4,2 4,4 0,3 -4,7 -7,11 -4,-4 -7,-8 -7,-11 0,-2 1,-4 3,-4 2,0 3,1 4,3z"/>
   <path class="fil4 str1" d="M63 111c0,-2 1,-3 3,-3 2,0 4,2 4,4 0,4 -4,8 -7,11 -4,-3 -7,-7 -7,-11 0,-2 1,-4 3,-4 2,0 3,1 4,3z"/>
   <path class="fil4 str1" d="M63 12c0,-2 1,-3 3,-3 2,0 4,2 4,4 0,3 -4,7 -7,11 -4,-4 -7,-8 -7,-11 0,-2 1,-4 3,-4 2,0 3,1 4,3z"/>
   <path class="fil4 str1" d="M29 111c1,-2 1,-3 3,-3 2,0 4,2 4,4 0,4 -4,8 -7,11 -4,-3 -7,-7 -7,-11 0,-2 1,-4 3,-4 2,0 3,1 4,3z"/>
   <path class="fil4 str1" d="M29 45c1,-2 1,-3 3,-3 2,0 4,2 4,4 0,4 -4,7 -7,11 -4,-4 -7,-7 -7,-11 0,-2 1,-4 3,-4 2,0 3,1 4,3z"/>
   <path class="fil4 str1" d="M29 78c1,-2 1,-3 3,-3 2,0 4,2 4,4 0,4 -4,7 -7,11 -4,-4 -7,-7 -7,-11 0,-2 1,-4 3,-4 2,0 3,1 4,3z"/>
   <path class="fil4 str1" d="M46 62c1,-2 2,-3 4,-3 2,0 3,2 3,4 0,3 -3,7 -7,11 -3,-4 -7,-8 -7,-11 0,-2 2,-4 4,-4 1,0 2,1 3,3z"/>
   <path class="fil4 str1" d="M63 45c0,-2 1,-3 3,-3 2,0 4,2 4,4 0,4 -4,7 -7,11 -4,-4 -7,-7 -7,-11 0,-2 1,-4 3,-4 2,0 3,1 4,3z"/>
   <path class="fil4 str1" d="M63 78c0,-2 1,-3 3,-3 2,0 4,2 4,4 0,4 -4,7 -7,11 -4,-4 -7,-7 -7,-11 0,-2 1,-4 3,-4 2,0 3,1 4,3z"/>
  </g>
 </g>
</svg>
