<?xml version="1.0" encoding="UTF-8"?>
<!DOCTYPE svg PUBLIC "-//W3C//DTD SVG 1.1//EN" "http://www.w3.org/Graphics/SVG/1.1/DTD/svg11.dtd">
<!-- Creator: CorelDRAW X7 -->
<svg xmlns="http://www.w3.org/2000/svg" xml:space="preserve" width="72.4147mm" height="108.327mm" version="1.1" style="shape-rendering:geometricPrecision; text-rendering:geometricPrecision; image-rendering:optimizeQuality; fill-rule:evenodd; clip-rule:evenodd"
viewBox="0 0 86 129"
 xmlns:xlink="http://www.w3.org/1999/xlink">
 <defs>
  <style type="text/css">
   <![CDATA[
    .str1 {stroke:#4DFFFF;stroke-width:0.892514}
    .str0 {stroke:#2B2A29;stroke-width:0.238004}
    .fil2 {fill:none}
    .fil4 {fill:none;fill-rule:nonzero}
    .fil0 {fill:#162632}
    .fil1 {fill:#4DFFFF;fill-rule:nonzero}
    .fil3 {fill:#4DFFFF;fill-rule:nonzero}
   ]]>
  </style>
 </defs>
 <g id="Слой_x0020_1">
  <metadata id="CorelCorpID_0Corel-Layer"/>
  <g id="_2867351716336">
   <g>
    <rect class="fil0" x="1" y="1" width="84.9586" height="127.695" rx="5" ry="5"/>
    <path class="fil1" d="M5 0l76 0c1,0 3,1 4,2 1,1 1,2 1,3l0 118c0,2 0,3 -1,4 -1,1 -3,2 -4,2l-76 0c-1,0 -2,-1 -3,-2 -1,-1 -2,-2 -2,-4l0 -118c0,-1 1,-2 2,-3 1,-1 2,-2 3,-2zm76 1l-76 0c-1,0 -2,1 -3,1 0,1 -1,2 -1,3l0 118c0,2 1,3 1,3 1,1 2,2 3,2l76 0c1,0 2,-1 3,-2 0,0 1,-1 1,-3l0 -118c0,-1 -1,-2 -1,-3 -1,0 -2,-1 -3,-1z"/>
    <rect class="fil2 str0" x="34" y="55" width="17.1818" height="19.0045"/>
    <g>
     <path class="fil3" d="M8 14l-1 2c0,0 0,0 0,0 0,0 0,0 0,0 0,0 -1,0 -1,0 0,0 0,0 0,0l0 0 3 -8c0,-1 0,-1 0,-1 1,0 1,0 1,1l3 8 0 0c0,0 0,0 -1,0 0,0 0,0 0,0 0,0 0,0 0,0 0,0 0,0 0,0l-1 -2 -3 0zm3 -1l-2 -4 -1 4 3 0z"/>
     <path class="fil3" d="M78 115l1 -2c0,0 0,0 0,0 0,0 0,-1 1,-1 0,0 0,1 0,1 0,0 0,0 0,0l0 0 -3 8c0,1 0,1 0,1 0,0 -1,0 -1,-1l-2 -8 0 0c0,0 0,0 0,0 0,0 0,-1 0,-1 0,0 0,0 0,1 0,0 0,0 0,0l1 2 3 0zm-3 1l2 4 1 -4 -3 0z"/>
    </g>
    <path class="fil4 str1" d="M10 20c0,-1 0,-1 1,-1 1,0 2,1 2,2 0,1 -2,3 -3,4 -2,-1 -3,-3 -3,-4 0,-1 0,-2 1,-2 1,0 1,0 2,1z"/>
    <path class="fil4 str1" d="M77 109c0,0 0,1 1,1 1,0 2,-1 2,-2 0,-1 -2,-3 -3,-5 -2,2 -3,4 -3,5 0,1 0,2 1,2 1,0 1,-1 2,-1z"/>
    <path class="fil4 str1" d="M43 59c1,-2 2,-3 4,-3 2,0 4,2 4,4 0,4 -4,9 -8,13 -4,-4 -8,-9 -8,-13 0,-2 2,-4 4,-4 2,0 3,1 4,3z"/>
    <rect class="fil0" x="1" y="1" width="84.9586" height="127.695" rx="5" ry="5"/>
    <path class="fil1" d="M5 0l76 0c1,0 3,1 4,2 1,1 1,2 1,3l0 118c0,2 0,3 -1,4 -1,1 -3,2 -4,2l-76 0c-1,0 -2,-1 -3,-2 -1,-1 -2,-2 -2,-4l0 -118c0,-1 1,-2 2,-3 1,-1 2,-2 3,-2zm76 1l-76 0c-1,0 -2,1 -3,1 0,1 -1,2 -1,3l0 118c0,2 1,3 1,3 1,1 2,2 3,2l76 0c1,0 2,-1 3,-2 0,0 1,-1 1,-3l0 -118c0,-1 -1,-2 -1,-3 -1,0 -2,-1 -3,-1z"/>
    <g>
     <path class="fil3" d="M8 16c0,0 0,0 -1,0 0,0 0,0 0,0 0,0 0,0 0,0 0,0 0,0 0,0l0 -7 -1 1c0,0 -1,0 -1,0 0,0 0,0 0,0 0,0 0,0 0,0 0,-1 0,-1 0,-1l2 -2c0,0 0,0 0,0 0,0 0,0 0,0 0,0 0,0 0,0 1,0 1,1 1,1l0 8z"/>
     <path id="1" class="fil3" d="M14 14c0,1 0,1 -1,2 0,0 0,0 -1,0l-1 0c0,0 -1,0 -1,0 0,-1 -1,-1 -1,-2l0 -5c0,0 1,-1 1,-1 0,-1 1,-1 1,-1l1 0c1,0 1,0 1,1 1,0 1,1 1,1l0 5zm-1 0l0 -5c0,0 0,0 0,0 0,-1 -1,-1 -1,-1l-1 0c0,0 0,0 0,0 -1,1 -1,1 -1,1l0 5c0,1 0,1 1,1 0,0 0,1 0,1l1 0c0,0 1,-1 1,-1 0,0 0,0 0,-1z"/>
     <path class="fil3" d="M79 113c0,0 0,0 0,0 0,0 0,0 0,0 1,0 1,0 1,0 0,0 0,0 0,0l0 7 1 -1c0,0 0,0 0,0 0,0 1,0 1,0 0,0 0,0 0,0 0,1 0,1 0,1l-2 2c0,0 0,0 0,0 0,0 -1,0 -1,0 0,0 0,0 0,0 0,0 0,-1 0,-1l0 -8z"/>
     <path id="1" class="fil3" d="M73 115c0,-1 0,-1 0,-2 1,0 1,0 2,0l0 0c1,0 1,0 2,0 0,0 0,1 0,2l0 5c0,0 0,1 0,1 -1,0 -1,1 -2,1l0 0c-1,0 -1,0 -2,-1 0,0 0,-1 0,-1l0 -5zm1 0l0 5c0,0 0,0 0,0 0,1 0,1 1,1l0 0c0,0 1,0 1,-1 0,0 0,0 0,0l0 -5c0,-1 0,-1 0,-1 0,0 -1,-1 -1,-1l0 0c-1,0 -1,1 -1,1 0,0 0,0 0,1z"/>
    </g>
    <path class="fil4 str1" d="M10 20c0,-1 0,-1 1,-1 1,0 2,1 2,2 0,1 -2,3 -3,4 -2,-1 -3,-3 -3,-4 0,-1 0,-2 1,-2 1,0 1,0 2,1z"/>
    <path class="fil4 str1" d="M77 109c0,0 0,1 1,1 1,0 2,-1 2,-2 0,-1 -2,-3 -3,-5 -2,2 -3,4 -3,5 0,1 0,2 1,2 1,0 1,-1 2,-1z"/>
   </g>
   <path class="fil4 str1" d="M28 11c1,-1 2,-2 3,-2 2,0 4,1 4,3 0,4 -4,8 -7,11 -4,-3 -7,-7 -7,-11 0,-2 2,-3 3,-3 2,0 3,1 4,2z"/>
   <path class="fil4 str1" d="M61 108c1,-2 1,-3 3,-3 2,0 4,2 4,4 0,3 -4,7 -7,11 -4,-4 -7,-8 -7,-11 0,-2 1,-4 3,-4 2,0 3,1 4,3z"/>
   <path class="fil4 str1" d="M61 11c1,-1 1,-2 3,-2 2,0 4,1 4,3 0,4 -4,8 -7,11 -4,-3 -7,-7 -7,-11 0,-2 1,-3 3,-3 2,0 3,1 4,2z"/>
   <path class="fil4 str1" d="M28 108c1,-2 2,-3 3,-3 2,0 4,2 4,4 0,3 -4,7 -7,11 -4,-4 -7,-8 -7,-11 0,-2 2,-4 3,-4 2,0 3,1 4,3z"/>
   <path class="fil4 str1" d="M28 44c1,-2 2,-3 3,-3 2,0 4,1 4,3 0,4 -4,8 -7,11 -4,-3 -7,-7 -7,-11 0,-2 2,-3 3,-3 2,0 3,1 4,3z"/>
   <path class="fil4 str1" d="M28 76c1,-2 2,-3 3,-3 2,0 4,2 4,4 0,3 -4,7 -7,10 -4,-3 -7,-7 -7,-10 0,-2 2,-4 3,-4 2,0 3,1 4,3z"/>
   <path class="fil4 str1" d="M44 27c1,-2 2,-3 4,-3 2,0 3,2 3,4 0,4 -3,7 -7,11 -3,-4 -7,-7 -7,-11 0,-2 2,-4 4,-4 2,0 2,1 3,3z"/>
   <path class="fil4 str1" d="M61 44c1,-2 1,-3 3,-3 2,0 3,1 3,3 0,4 -3,8 -6,11 -4,-3 -7,-7 -7,-11 0,-2 1,-3 3,-3 2,0 3,1 4,3z"/>
   <path class="fil4 str1" d="M61 76c1,-2 1,-3 3,-3 2,0 3,2 3,4 0,3 -3,7 -6,10 -4,-3 -7,-7 -7,-10 0,-2 1,-4 3,-4 2,0 3,1 4,3z"/>
   <path class="fil4 str1" d="M44 92c1,-2 2,-3 4,-3 2,0 3,2 3,4 0,3 -3,7 -7,11 -3,-4 -7,-8 -7,-11 0,-2 2,-4 4,-4 2,0 2,1 3,3z"/>
  </g>
 </g>
</svg>
