<?xml version="1.0" encoding="UTF-8"?>
<!DOCTYPE svg PUBLIC "-//W3C//DTD SVG 1.1//EN" "http://www.w3.org/Graphics/SVG/1.1/DTD/svg11.dtd">
<!-- Creator: CorelDRAW X7 -->
<svg xmlns="http://www.w3.org/2000/svg" xml:space="preserve" width="72.4147mm" height="108.327mm" version="1.1" style="shape-rendering:geometricPrecision; text-rendering:geometricPrecision; image-rendering:optimizeQuality; fill-rule:evenodd; clip-rule:evenodd"
viewBox="0 0 105 157"
 xmlns:xlink="http://www.w3.org/1999/xlink">
 <defs>
  <style type="text/css">
   <![CDATA[
    .str1 {stroke:#4DFFFF;stroke-width:1.08636}
    .str0 {stroke:#2B2A29;stroke-width:0.289696}
    .fil2 {fill:none}
    .fil0 {fill:#162632}
    .fil1 {fill:#4DFFFF;fill-rule:nonzero}
    .fil3 {fill:#4DFFFF;fill-rule:nonzero}
   ]]>
  </style>
 </defs>
 <g id="Слой_x0020_1">
  <metadata id="CorelCorpID_0Corel-Layer"/>
  <g id="_2867351677264">
   <g>
    <rect class="fil0" x="1" y="1" width="103" height="155" rx="6" ry="6"/>
    <path class="fil1" d="M7 0l91 0c2,0 4,1 5,2 1,1 2,3 2,5l0 143c0,2 -1,4 -2,5 -1,1 -3,2 -5,2l-91 0c-2,0 -4,-1 -5,-2 -1,-1 -2,-3 -2,-5l0 -143c0,-2 1,-4 2,-5 1,-1 3,-2 5,-2zm91 1l-91 0c-2,0 -3,1 -4,2 -1,1 -2,2 -2,4l0 143c0,2 1,3 2,4 1,1 2,1 4,1l91 0c2,0 3,0 4,-1 1,-1 1,-2 1,-4l0 -143c0,-2 0,-3 -1,-4 -1,-1 -2,-2 -4,-2z"/>
    <rect class="fil2 str0" x="42" y="67" width="20.9136" height="23.1321"/>
    <g>
     <path class="fil3" d="M9 17l0 3c0,0 0,0 -1,0 0,0 0,0 0,0 0,0 0,0 0,0 0,0 0,0 0,-1l0 0 3 -10c0,0 0,0 0,0 1,0 1,0 1,0l3 10 0 0c0,1 0,1 0,1 0,0 0,0 0,0 0,0 0,0 0,0 -1,0 -1,0 -1,0l-1 -3 -4 0zm4 -1l-2 -5 -1 5 3 0z"/>
     <path class="fil3" d="M95 140l1 -3c0,0 0,0 0,0 1,0 1,0 1,0 0,0 0,0 0,0 0,0 0,0 0,0l0 1 -3 10c0,0 0,0 -1,0 0,0 0,0 0,0l-3 -10 0 -1c0,0 0,0 0,0 0,0 0,0 0,0 0,0 0,0 0,0 0,0 1,0 1,0l0 3 4 0zm-3 1l1 5 2 -5 -3 0z"/>
    </g>
    <path class="fil2 str1" d="M9 26c1,0 2,0 2,1l0 0 0 -1c-1,0 -1,-1 -1,-2 0,-1 0,-2 2,-2 1,0 1,1 1,2 0,1 0,2 -1,2l0 1 0 0c0,-1 1,-1 2,-1 1,0 2,0 2,2 0,1 -1,1 -2,1 -1,0 -2,0 -2,-1l0 0c0,1 1,2 1,4l-3 0c1,-1 1,-3 1,-4l0 0c0,1 -1,1 -2,1 -1,0 -2,0 -2,-1 0,-2 1,-2 2,-2z"/>
    <path class="fil2 str1" d="M91 131c1,0 2,0 2,-1l0 0 0 1c-1,0 -2,1 -2,2 0,1 1,2 2,2 1,0 2,-1 2,-2 0,-1 0,-2 -1,-2l-1 -1 1 0c0,1 1,1 2,1 1,0 2,-1 2,-2 0,-1 -1,-2 -2,-2 -1,0 -2,1 -2,2l0 0c0,-1 0,-3 1,-4l-4 0c1,1 2,3 2,4l0 0c0,-1 -1,-2 -2,-2 -1,0 -2,1 -2,2 0,1 1,2 2,2z"/>
    <rect class="fil0" x="1" y="1" width="103" height="155" rx="6" ry="6"/>
    <path class="fil1" d="M7 0l91 0c2,0 4,1 5,2 1,1 2,3 2,5l0 143c0,2 -1,4 -2,5 -1,1 -3,2 -5,2l-91 0c-2,0 -4,-1 -5,-2 -1,-1 -2,-3 -2,-5l0 -143c0,-2 1,-4 2,-5 1,-1 3,-2 5,-2zm91 1l-91 0c-2,0 -3,1 -4,2 -1,1 -2,2 -2,4l0 143c0,2 1,3 2,4 1,1 2,1 4,1l91 0c2,0 3,0 4,-1 1,-1 1,-2 1,-4l0 -143c0,-2 0,-3 -1,-4 -1,-1 -2,-2 -4,-2z"/>
    <g>
     <path class="fil3" d="M13 17l1 0c0,0 1,0 1,0 0,0 0,0 0,0 0,0 0,0 0,1 0,0 -1,0 -1,0l-1 0 0 1c0,1 0,1 0,1 0,0 0,0 0,0 -1,0 -1,0 -1,0 0,0 0,0 0,-1l0 -1 -3 0c-1,0 -1,0 -1,-1l0 0 0 0 2 -8c0,0 0,0 1,0l0 0c0,0 0,0 0,0 0,0 0,0 0,0 0,0 0,0 0,0l0 1 -2 7 3 0 0 -2c0,0 0,0 0,0 0,-1 0,-1 1,-1 0,0 0,0 0,1 0,0 0,0 0,0l0 2z"/>
     <path class="fil3" d="M91 141l-1 0c0,0 0,-1 0,-1 0,0 0,0 0,0 0,0 0,0 0,0 0,-1 0,-1 0,-1l1 0 0 -1c0,0 0,-1 0,-1 1,0 1,0 1,0 0,0 0,0 0,0 0,0 0,1 0,1l0 1 4 0c0,0 0,1 0,1l0 0 0 0 -2 8c0,0 0,0 0,0l0 0c0,0 0,0 0,0 -1,0 -1,0 -1,0 0,0 0,0 0,0l0 0 2 -7 -3 0 0 1c0,0 0,1 0,1 0,0 0,0 0,0 0,0 0,0 -1,0 0,0 0,-1 0,-1l0 -1z"/>
    </g>
    <path class="fil2 str1" d="M9 26c1,0 2,0 2,1l0 0 0 -1c-1,0 -1,-1 -1,-2 0,-1 0,-2 2,-2 1,0 1,1 1,2 0,1 0,2 -1,2l0 1 0 0c0,-1 1,-1 2,-1 1,0 2,0 2,2 0,1 -1,1 -2,1 -1,0 -2,0 -2,-1l0 0c0,1 1,2 1,4l-3 0c1,-1 1,-3 1,-4l0 0c0,1 -1,1 -2,1 -1,0 -2,0 -2,-1 0,-2 1,-2 2,-2z"/>
    <path class="fil2 str1" d="M91 131c1,0 2,0 2,-1l0 0 0 1c-1,0 -2,1 -2,2 0,1 1,2 2,2 1,0 2,-1 2,-2 0,-1 0,-2 -1,-2l-1 -1 1 0c0,1 1,1 2,1 1,0 2,-1 2,-2 0,-1 -1,-2 -2,-2 -1,0 -2,1 -2,2l0 0c0,-1 0,-3 1,-4l-4 0c1,1 2,3 2,4l0 0c0,-1 -1,-2 -2,-2 -1,0 -2,1 -2,2 0,1 1,2 2,2z"/>
   </g>
   <path class="fil2 str1" d="M29 19c2,0 4,1 4,3l0 0 0 -3c-1,0 -3,-2 -3,-3 0,-2 2,-4 4,-4 2,0 3,2 3,4 0,1 -1,3 -2,3l0 3 0 0c0,-2 2,-3 3,-3 2,0 4,1 4,3 0,2 -2,4 -4,4 -1,0 -3,-2 -3,-3l0 0c0,2 1,5 2,7l-7 0c2,-2 3,-5 3,-7l0 0c0,1 -2,3 -4,3 -2,0 -3,-2 -3,-4 0,-2 1,-3 3,-3z"/>
   <path class="fil2 str1" d="M29 135c2,0 4,1 4,3l0 0 0 -3c-1,0 -3,-2 -3,-3 0,-2 2,-4 4,-4 2,0 3,2 3,4 0,1 -1,3 -2,3l0 3 0 0c0,-2 2,-3 3,-3 2,0 4,1 4,3 0,2 -2,4 -4,4 -1,0 -3,-2 -3,-3l0 0c0,2 1,5 2,7l-7 0c2,-2 3,-5 3,-7l0 0c0,1 -2,3 -4,3 -2,0 -3,-2 -3,-4 0,-2 1,-3 3,-3z"/>
   <path class="fil2 str1" d="M69 19c2,0 4,1 4,3l0 0 0 -3c-1,0 -3,-2 -3,-3 0,-2 2,-4 4,-4 2,0 3,2 3,4 0,1 -1,3 -2,3l0 3 0 0c0,-2 2,-3 4,-3 1,0 3,1 3,3 0,2 -2,4 -3,4 -2,0 -4,-2 -4,-3l0 0c0,2 1,5 2,7l-7 0c2,-2 3,-5 3,-7l0 0c0,1 -2,3 -4,3 -2,0 -3,-2 -3,-4 0,-2 1,-3 3,-3z"/>
   <path class="fil2 str1" d="M69 135c2,0 4,1 4,3l0 0 0 -3c-1,0 -3,-2 -3,-3 0,-2 2,-4 4,-4 2,0 3,2 3,4 0,1 -1,3 -2,3l0 3 0 0c0,-2 2,-3 4,-3 1,0 3,1 3,3 0,2 -2,4 -3,4 -2,0 -4,-2 -4,-3l0 0c0,2 1,5 2,7l-7 0c2,-2 3,-5 3,-7l0 0c0,1 -2,3 -4,3 -2,0 -3,-2 -3,-4 0,-2 1,-3 3,-3z"/>
  </g>
 </g>
</svg>
