<?xml version="1.0" encoding="UTF-8"?>
<!DOCTYPE svg PUBLIC "-//W3C//DTD SVG 1.1//EN" "http://www.w3.org/Graphics/SVG/1.1/DTD/svg11.dtd">
<!-- Creator: CorelDRAW X7 -->
<svg xmlns="http://www.w3.org/2000/svg" xml:space="preserve" width="72.4147mm" height="108.327mm" version="1.1" style="shape-rendering:geometricPrecision; text-rendering:geometricPrecision; image-rendering:optimizeQuality; fill-rule:evenodd; clip-rule:evenodd"
viewBox="0 0 113 169"
 xmlns:xlink="http://www.w3.org/1999/xlink">
 <defs>
  <style type="text/css">
   <![CDATA[
    .str1 {stroke:#4DFFFF;stroke-width:1.17115}
    .str0 {stroke:#2B2A29;stroke-width:0.312306}
    .fil2 {fill:none}
    .fil0 {fill:#162632}
    .fil1 {fill:#4DFFFF;fill-rule:nonzero}
    .fil3 {fill:#4DFFFF;fill-rule:nonzero}
   ]]>
  </style>
 </defs>
 <g id="Слой_x0020_1">
  <metadata id="CorelCorpID_0Corel-Layer"/>
  <g id="_2867301370512">
   <g>
    <rect class="fil0" x="1" y="1" width="111" height="168" rx="6" ry="6"/>
    <path class="fil1" d="M7 0l99 0c2,0 4,1 5,2 1,1 2,3 2,5l0 155c0,2 -1,4 -2,5 -1,1 -3,2 -5,2l-99 0c-2,0 -4,-1 -5,-2 -1,-1 -2,-3 -2,-5l0 -155c0,-2 1,-4 2,-5 1,-1 3,-2 5,-2zm99 2l-99 0c-1,0 -3,0 -4,1 -1,1 -1,3 -1,4l0 155c0,2 0,3 1,4 1,1 3,2 4,2l99 0c1,0 3,-1 4,-2 1,-1 1,-2 1,-4l0 -155c0,-1 0,-3 -1,-4 -1,-1 -3,-1 -4,-1z"/>
    <rect class="fil2 str0" x="45" y="72" width="22.5459" height="24.9375"/>
    <g>
     <path class="fil3" d="M10 19l-1 2c0,0 0,0 0,0 0,1 0,1 0,1 0,0 -1,0 -1,-1 0,0 0,0 0,0l0 0 4 -11c0,0 0,-1 0,-1 1,0 1,1 1,1l4 11 0 0c0,0 0,0 -1,0 0,1 0,1 0,1 0,0 0,0 0,0 0,-1 -1,-1 -1,-1l0 -2 -5 0zm4 -2l-2 -5 -1 5 3 0z"/>
     <path class="fil3" d="M103 151l1 -3c0,0 0,0 0,0 0,0 0,0 0,0 0,0 1,0 1,0 0,0 0,0 0,0l0 0 -4 11c0,1 0,1 0,1 -1,0 -1,0 -1,-1l-3 -11 -1 0c0,0 1,0 1,0 0,0 0,0 0,0 0,0 0,0 0,0 0,0 1,0 1,0l1 3 4 0zm-4 1l2 5 1 -5 -3 0z"/>
    </g>
    <path class="fil2 str1" d="M10 28c1,0 2,0 2,1l0 0 0 -1c-1,0 -2,-1 -2,-2 0,-1 1,-2 2,-2 2,0 3,1 3,2 0,1 -1,2 -2,2l0 1 0 0c0,-1 1,-1 2,-1 1,0 2,1 2,2 0,1 -1,2 -2,2 -1,0 -2,-1 -2,-2l0 0c0,2 0,3 1,4l-4 0c1,-1 2,-2 2,-4l0 0c0,1 -1,2 -2,2 -1,0 -2,-1 -2,-2 0,-1 1,-2 2,-2z"/>
    <path class="fil2 str1" d="M98 142c1,0 2,-1 2,-2l0 0 0 1c-1,0 -2,1 -2,2 0,2 1,2 3,2 1,0 2,0 2,-2 0,-1 -1,-1 -2,-2l0 -1 0 0c0,1 1,2 2,2 1,0 2,-1 2,-3 0,-1 -1,-2 -2,-2 -1,0 -2,1 -2,2l0 0c0,-1 1,-3 2,-4l-5 0c2,1 2,2 2,4l0 0c0,-1 -1,-2 -2,-2 -1,0 -2,1 -2,2 0,2 1,3 2,3z"/>
    <rect class="fil0" x="1" y="1" width="111" height="168" rx="6" ry="6"/>
    <path class="fil1" d="M7 0l99 0c2,0 4,1 5,2 1,1 2,3 2,5l0 155c0,2 -1,4 -2,5 -1,1 -3,2 -5,2l-99 0c-2,0 -4,-1 -5,-2 -1,-1 -2,-3 -2,-5l0 -155c0,-2 1,-4 2,-5 1,-1 3,-2 5,-2zm99 2l-99 0c-1,0 -3,0 -4,1 -1,1 -1,3 -1,4l0 155c0,2 0,3 1,4 1,1 3,2 4,2l99 0c1,0 3,-1 4,-2 1,-1 1,-2 1,-4l0 -155c0,-1 0,-3 -1,-4 -1,-1 -3,-1 -4,-1z"/>
    <g>
     <path class="fil3" d="M15 14l-4 6 4 0c0,0 0,0 0,1 0,0 1,0 1,0 0,0 -1,0 -1,0 0,0 0,1 0,1l-5 0c0,0 -1,-1 -1,-1 0,0 0,0 1,0l4 -7c0,-1 0,-1 0,-1 0,-1 0,-1 0,-2 -1,0 -1,0 -1,0 0,0 -1,0 -1,0 0,0 0,0 -1,0 0,0 0,0 0,1 0,0 -1,0 -1,0l0 0c0,0 0,0 0,0 0,0 -1,-1 -1,-1 0,0 1,0 1,0 0,0 0,-1 1,-1 0,0 0,0 0,0 1,0 1,-1 1,-1 1,0 2,1 2,1 1,1 1,2 1,3 0,0 0,1 0,1z"/>
     <path class="fil3" d="M98 155l4 -6 -4 0c0,0 0,0 0,0 0,-1 0,-1 0,-1 0,0 0,0 0,0 0,0 0,0 0,0l5 0c1,0 1,0 1,0 0,0 0,0 0,1l-5 7c0,0 0,0 0,1 0,0 0,0 1,1 0,0 0,0 0,0 0,0 1,0 1,0 0,0 1,0 1,0 0,0 0,0 1,-1 0,0 0,0 0,0l0 0c0,0 0,0 1,0 0,0 0,1 0,1 0,0 0,0 0,0 -1,1 -1,1 -2,1 0,0 0,0 0,1 0,0 -1,0 -1,0 -1,0 -2,-1 -2,-1 -1,-1 -1,-2 -1,-3 0,0 0,-1 0,-1z"/>
    </g>
    <path class="fil2 str1" d="M10 28c1,0 2,0 2,1l0 0 0 -1c-1,0 -2,-1 -2,-2 0,-1 1,-2 2,-2 2,0 3,1 3,2 0,1 -1,2 -2,2l0 1 0 0c0,-1 1,-1 2,-1 1,0 2,1 2,2 0,1 -1,2 -2,2 -1,0 -2,-1 -2,-2l0 0c0,2 0,3 1,4l-4 0c1,-1 2,-2 2,-4l0 0c0,1 -1,2 -2,2 -1,0 -2,-1 -2,-2 0,-1 1,-2 2,-2z"/>
    <path class="fil2 str1" d="M98 142c1,0 2,-1 2,-2l0 0 0 1c-1,0 -2,1 -2,2 0,2 1,2 3,2 1,0 2,0 2,-2 0,-1 -1,-1 -2,-2l0 -1 0 0c0,1 1,2 2,2 1,0 2,-1 2,-3 0,-1 -1,-2 -2,-2 -1,0 -2,1 -2,2l0 0c0,-1 1,-3 2,-4l-5 0c2,1 2,2 2,4l0 0c0,-1 -1,-2 -2,-2 -1,0 -2,1 -2,2 0,2 1,3 2,3z"/>
   </g>
   <path class="fil2 str1" d="M52 20c2,0 3,2 3,4l1 0 0 -4c-2,0 -3,-1 -3,-3 0,-2 1,-4 4,-4 2,0 3,2 3,4 0,2 -1,3 -3,3l0 4 1 0c0,-2 2,-4 4,-4 1,0 3,2 3,4 0,2 -1,4 -3,4 -2,0 -4,-2 -4,-4l-1 0c1,3 1,6 3,8l-7 0c2,-2 3,-5 3,-8l-1 0c0,2 -1,4 -3,4 -2,0 -4,-2 -4,-4 0,-2 2,-4 4,-4z"/>
   <path class="fil2 str1" d="M52 145c2,0 3,2 3,4l1 0 0 -3c-2,-1 -3,-2 -3,-4 0,-2 1,-4 4,-4 2,0 3,2 3,4 0,2 -1,3 -3,4l0 3 1 0c0,-2 2,-4 4,-4 1,0 3,2 3,4 0,2 -1,4 -3,4 -2,0 -4,-2 -4,-4l-1 0c1,3 1,6 3,8l-7 0c2,-2 3,-5 3,-8l-1 0c0,2 -1,4 -3,4 -2,0 -4,-2 -4,-4 0,-2 2,-4 4,-4z"/>
  </g>
 </g>
</svg>
