<?xml version="1.0" encoding="UTF-8"?>
<!DOCTYPE svg PUBLIC "-//W3C//DTD SVG 1.1//EN" "http://www.w3.org/Graphics/SVG/1.1/DTD/svg11.dtd">
<!-- Creator: CorelDRAW X7 -->
<svg xmlns="http://www.w3.org/2000/svg" xml:space="preserve" width="72.4147mm" height="108.327mm" version="1.1" style="shape-rendering:geometricPrecision; text-rendering:geometricPrecision; image-rendering:optimizeQuality; fill-rule:evenodd; clip-rule:evenodd"
viewBox="0 0 109 163"
 xmlns:xlink="http://www.w3.org/1999/xlink">
 <defs>
  <style type="text/css">
   <![CDATA[
    .str1 {stroke:#4DFFFF;stroke-width:1.12716}
    .str0 {stroke:#2B2A29;stroke-width:0.300577}
    .fil2 {fill:none}
    .fil0 {fill:#162632}
    .fil1 {fill:#4DFFFF;fill-rule:nonzero}
    .fil3 {fill:#4DFFFF;fill-rule:nonzero}
   ]]>
  </style>
 </defs>
 <g id="Слой_x0020_1">
  <metadata id="CorelCorpID_0Corel-Layer"/>
  <g id="_2867352762096">
   <g>
    <rect class="fil0" x="1" y="1" width="107" height="161" rx="6" ry="6"/>
    <path class="fil1" d="M7 0l95 0c2,0 4,1 5,2 1,1 2,3 2,5l0 149c0,2 -1,4 -2,5 -1,1 -3,2 -5,2l-95 0c-2,0 -4,-1 -5,-2 -1,-1 -2,-3 -2,-5l0 -149c0,-2 1,-4 2,-5 1,-1 3,-2 5,-2zm95 2l-95 0c-2,0 -3,0 -4,1 -1,1 -1,2 -1,4l0 149c0,1 0,3 1,4 1,1 2,1 4,1l95 0c1,0 3,0 4,-1 1,-1 1,-3 1,-4l0 -149c0,-2 0,-3 -1,-4 -1,-1 -3,-1 -4,-1z"/>
    <rect class="fil2 str0" x="44" y="69" width="21.6991" height="24.0009"/>
    <g>
     <path class="fil3" d="M10 18l-1 2c0,0 0,1 0,1 0,0 0,0 -1,0 0,0 0,0 0,0 0,0 0,-1 0,-1l0 0 3 -10c0,-1 1,-1 1,-1 0,0 0,0 0,1l4 10 0 0c0,0 0,0 0,1 0,0 0,0 -1,0 0,0 0,0 0,0 0,0 0,0 0,-1l-1 -2 -4 0zm4 -1l-2 -5 -2 5 4 0z"/>
     <path class="fil3" d="M99 145l1 -3c0,0 0,0 0,0 0,0 0,0 0,0 1,0 1,0 1,0 0,0 0,0 0,1l0 0 -4 10c0,1 0,1 0,1 0,0 0,0 -1,-1l-3 -10 0 0c0,-1 0,-1 0,-1 0,0 0,0 0,0 1,0 1,0 1,0 0,0 0,0 0,0l1 3 4 0zm-4 1l2 5 2 -5 -4 0z"/>
    </g>
    <path class="fil2 str1" d="M9 27c1,0 2,0 2,1l1 0 0 -1c-1,0 -2,-1 -2,-2 0,-1 1,-2 2,-2 1,0 2,1 2,2 0,1 -1,2 -2,2l0 1 1 0c0,-1 1,-1 2,-1 1,0 2,0 2,2 0,1 -1,2 -2,2 -1,0 -2,-1 -2,-2l-1 0c0,1 1,3 2,4l-4 0c1,-1 2,-3 2,-4l-1 0c0,1 -1,2 -2,2 -1,0 -2,-1 -2,-2 0,-2 1,-2 2,-2z"/>
    <path class="fil2 str1" d="M94 136c1,0 2,-1 2,-1l1 0 -1 1c0,0 -1,1 -1,2 0,1 1,2 2,2 1,0 2,-1 2,-2 0,-1 -1,-2 -2,-2l0 -1 0 0c1,0 1,1 2,1 2,0 2,-1 2,-2 0,-1 0,-2 -2,-2 -1,0 -1,1 -2,2l0 0c0,-2 1,-3 2,-4l-4 0c1,1 2,2 2,4l-1 0c0,-1 -1,-2 -2,-2 -1,0 -2,1 -2,2 0,1 1,2 2,2z"/>
    <rect class="fil0" x="1" y="1" width="107" height="161" rx="6" ry="6"/>
    <path class="fil1" d="M7 0l95 0c2,0 4,1 5,2 1,1 2,3 2,5l0 149c0,2 -1,4 -2,5 -1,1 -3,2 -5,2l-95 0c-2,0 -4,-1 -5,-2 -1,-1 -2,-3 -2,-5l0 -149c0,-2 1,-4 2,-5 1,-1 3,-2 5,-2zm95 2l-95 0c-2,0 -3,0 -4,1 -1,1 -1,2 -1,4l0 149c0,1 0,3 1,4 1,1 2,1 4,1l95 0c1,0 3,0 4,-1 1,-1 1,-3 1,-4l0 -149c0,-2 0,-3 -1,-4 -1,-1 -3,-1 -4,-1z"/>
    <g>
     <path class="fil3" d="M12 10l-2 0c0,0 0,0 -1,0 0,0 0,0 0,0 0,0 0,-1 0,-1 1,0 1,0 1,0l2 0c1,0 2,0 2,1 1,1 1,1 1,2 0,0 0,1 0,1 0,1 -1,1 -1,1 0,1 1,1 1,1 0,1 0,1 0,2l0 1c0,1 0,1 -1,2 0,0 -1,1 -2,1l-2 0c0,0 0,0 -1,0 0,-1 0,-1 0,-1 0,0 0,0 0,0 0,0 1,0 1,0l2 0c1,0 1,-1 1,-1 1,0 1,-1 1,-1l0 -1c0,-1 0,-1 -1,-2 0,0 0,0 -1,0l-1 0c0,0 0,0 0,0 -1,0 -1,0 -1,-1 0,0 0,0 1,0 0,0 0,0 0,0l1 0c1,0 1,0 1,-1 1,0 1,-1 1,-1 0,0 0,-1 -1,-1 0,-1 0,-1 -1,-1z"/>
     <path class="fil3" d="M97 152l2 0c0,0 1,1 1,1 0,0 0,0 0,0 0,0 0,0 0,0 0,1 -1,1 -1,1l-2 0c-1,0 -2,-1 -2,-1 -1,-1 -1,-1 -1,-2 0,-1 0,-1 0,-2 1,0 1,0 1,-1 0,0 0,0 -1,-1 0,0 0,0 0,-1l0 -1c0,-1 0,-2 1,-2 0,-1 1,-1 2,-1l2 0c0,0 1,0 1,0 0,0 0,0 0,1 0,0 0,0 0,0 0,0 -1,0 -1,0l-2 0c-1,0 -1,0 -1,1 -1,0 -1,0 -1,1l0 1c0,1 0,1 1,1 0,1 0,1 1,1l1 0c0,0 0,0 1,0 0,0 0,0 0,0 0,1 0,1 0,1 -1,0 -1,0 -1,0l-1 0c-1,0 -1,0 -1,1 -1,0 -1,0 -1,1 0,0 0,1 1,1 0,0 0,0 1,0z"/>
    </g>
    <path class="fil2 str1" d="M9 27c1,0 2,0 2,1l1 0 0 -1c-1,0 -2,-1 -2,-2 0,-1 1,-2 2,-2 1,0 2,1 2,2 0,1 -1,2 -2,2l0 1 1 0c0,-1 1,-1 2,-1 1,0 2,0 2,2 0,1 -1,2 -2,2 -1,0 -2,-1 -2,-2l-1 0c0,1 1,3 2,4l-4 0c1,-1 2,-3 2,-4l-1 0c0,1 -1,2 -2,2 -1,0 -2,-1 -2,-2 0,-2 1,-2 2,-2z"/>
    <path class="fil2 str1" d="M94 136c1,0 2,-1 2,-1l1 0 -1 1c0,0 -1,1 -1,2 0,1 1,2 2,2 1,0 2,-1 2,-2 0,-1 -1,-2 -2,-2l0 -1 0 0c1,0 1,1 2,1 2,0 2,-1 2,-2 0,-1 0,-2 -2,-2 -1,0 -1,1 -2,2l0 0c0,-2 1,-3 2,-4l-4 0c1,1 2,2 2,4l-1 0c0,-1 -1,-2 -2,-2 -1,0 -2,1 -2,2 0,1 1,2 2,2z"/>
   </g>
   <path class="fil2 str1" d="M50 19c2,0 3,2 3,4l1 0 0 -3c-2,-1 -3,-2 -3,-4 0,-2 1,-4 3,-4 2,0 4,2 4,4 0,2 -1,3 -3,4l0 3 1 0c0,-2 1,-4 3,-4 2,0 4,2 4,4 0,2 -2,4 -4,4 -2,0 -3,-2 -3,-4l-1 0c0,3 1,6 3,8l-7 0c2,-2 3,-5 3,-8l-1 0c0,2 -1,4 -3,4 -2,0 -4,-2 -4,-4 0,-2 2,-4 4,-4z"/>
   <path class="fil2 str1" d="M50 140c2,0 3,1 3,3l1 0 0 -3c-2,0 -3,-2 -3,-4 0,-1 1,-3 3,-3 2,0 4,2 4,3 0,2 -1,4 -3,4l0 3 1 0c0,-2 1,-3 3,-3 2,0 4,1 4,3 0,3 -2,4 -4,4 -2,0 -3,-1 -3,-3l-1 0c0,3 1,5 3,7l-7 0c2,-2 3,-4 3,-7l-1 0c0,2 -1,3 -3,3 -2,0 -4,-1 -4,-4 0,-2 2,-3 4,-3z"/>
   <path class="fil2 str1" d="M50 79c2,0 3,2 3,3l1 0 0 -2c-2,-1 -3,-2 -3,-4 0,-2 1,-4 3,-4 2,0 4,2 4,4 0,2 -1,3 -3,4l0 3 1 -1c0,-1 1,-3 3,-3 2,0 4,2 4,4 0,2 -2,4 -4,4 -2,0 -3,-2 -3,-4l-1 0c0,3 1,6 3,8l-7 0c2,-2 3,-5 3,-8l-1 0c0,2 -1,4 -3,4 -2,0 -4,-2 -4,-4 0,-2 2,-4 4,-4z"/>
  </g>
 </g>
</svg>
