<?xml version="1.0" encoding="UTF-8"?>
<!DOCTYPE svg PUBLIC "-//W3C//DTD SVG 1.1//EN" "http://www.w3.org/Graphics/SVG/1.1/DTD/svg11.dtd">
<!-- Creator: CorelDRAW X7 -->
<svg xmlns="http://www.w3.org/2000/svg" xml:space="preserve" width="72.4147mm" height="108.327mm" version="1.1" style="shape-rendering:geometricPrecision; text-rendering:geometricPrecision; image-rendering:optimizeQuality; fill-rule:evenodd; clip-rule:evenodd"
viewBox="0 0 98 146"
 xmlns:xlink="http://www.w3.org/1999/xlink">
 <defs>
  <style type="text/css">
   <![CDATA[
    .str1 {stroke:#4DFFFF;stroke-width:1.01302}
    .str0 {stroke:#2B2A29;stroke-width:0.270139}
    .fil2 {fill:none}
    .fil0 {fill:#162632}
    .fil1 {fill:#4DFFFF;fill-rule:nonzero}
    .fil3 {fill:#4DFFFF;fill-rule:nonzero}
   ]]>
  </style>
 </defs>
 <g id="Слой_x0020_1">
  <metadata id="CorelCorpID_0Corel-Layer"/>
  <g id="_2867351670224">
   <g>
    <rect class="fil0" x="1" y="1" width="96.4297" height="144.937" rx="6" ry="6"/>
    <path class="fil1" d="M6 0l86 0c1,0 3,1 4,2 1,1 2,3 2,4l0 134c0,2 -1,3 -2,4 -1,2 -3,2 -4,2l-86 0c-1,0 -3,0 -4,-2 -1,-1 -2,-2 -2,-4l0 -134c0,-1 1,-3 2,-4 1,-1 3,-2 4,-2zm86 1l-86 0c-1,0 -2,1 -3,2 -1,1 -2,2 -2,3l0 134c0,1 1,3 2,4 1,0 2,1 3,1l86 0c1,0 2,-1 3,-1 1,-1 1,-3 1,-4l0 -134c0,-1 0,-2 -1,-3 -1,-1 -2,-2 -3,-2z"/>
    <rect class="fil2 str0" x="39" y="62" width="19.5017" height="21.5705"/>
    <g>
     <path class="fil3" d="M9 16l-1 2c0,0 0,1 0,1 0,0 0,0 0,0 -1,0 -1,0 -1,0 0,-1 0,-1 0,-1l0 0 3 -9c0,-1 0,-1 1,-1 0,0 0,0 0,1l3 9 0 0c0,0 0,0 0,1 0,0 0,0 0,0 0,0 0,0 0,0 -1,0 -1,-1 -1,-1l0 -2 -4 0zm3 -1l-1 -5 -2 5 3 0z"/>
     <path class="fil3" d="M89 130l1 -2c0,0 0,0 0,0 0,0 0,0 0,0 0,0 0,0 1,0 0,0 0,0 0,0l0 0 -3 10c0,0 -1,0 -1,0 0,0 0,0 0,0l-3 -10 -1 0c0,0 1,0 1,0 0,0 0,0 0,0 0,0 0,0 0,0 0,0 0,0 0,0l1 2 4 0zm-3 1l1 5 2 -5 -3 0z"/>
    </g>
    <path class="fil2 str1" d="M8 24c1,0 2,0 2,1l1 0 0 -1c-1,0 -2,-1 -2,-2 0,-1 1,-2 2,-2 1,0 2,1 2,2 0,1 -1,2 -2,2l0 1 0 0c0,-1 1,-1 2,-1 1,0 2,1 2,2 0,1 -1,1 -2,1 -1,0 -2,0 -2,-1l0 0c0,1 1,2 2,3l-4 0c1,-1 2,-2 2,-3l-1 0c0,1 -1,1 -2,1 -1,0 -1,0 -1,-1 0,-1 0,-2 1,-2z"/>
    <path class="fil2 str1" d="M85 122c1,0 1,0 1,-1l1 0 0 1c-1,0 -2,1 -2,2 0,1 1,2 2,2 1,0 2,-1 2,-2 0,-1 -1,-2 -2,-2l0 -1 1 0c0,1 0,1 1,1 1,0 2,0 2,-1 0,-1 -1,-2 -2,-2 -1,0 -1,0 -1,1l-1 0c0,-1 1,-2 2,-3l-4 0c1,1 2,2 2,3l-1 0c0,-1 0,-1 -1,-1 -1,0 -2,1 -2,2 0,1 1,1 2,1z"/>
    <rect class="fil0" x="1" y="1" width="96.4297" height="144.937" rx="6" ry="6"/>
    <path class="fil1" d="M6 0l86 0c1,0 3,1 4,2 1,1 2,3 2,4l0 134c0,2 -1,3 -2,4 -1,2 -3,2 -4,2l-86 0c-1,0 -3,0 -4,-2 -1,-1 -2,-2 -2,-4l0 -134c0,-1 1,-3 2,-4 1,-1 3,-2 4,-2zm86 1l-86 0c-1,0 -2,1 -3,2 -1,1 -2,2 -2,3l0 134c0,1 1,3 2,4 1,0 2,1 3,1l86 0c1,0 2,-1 3,-1 1,-1 1,-3 1,-4l0 -134c0,-1 0,-2 -1,-3 -1,-1 -2,-2 -3,-2z"/>
    <g>
     <path class="fil3" d="M9 13l0 1 0 2c0,0 0,1 1,1 0,0 0,0 0,0 0,0 0,0 0,0l1 0c1,0 1,0 1,0 0,0 1,-1 1,-1l0 -2c0,0 -1,0 -1,-1 0,0 0,0 -1,0l-2 0zm1 -1l1 0c1,0 2,0 2,1 0,0 1,0 1,1l0 2c0,1 -1,1 -1,2 0,0 -1,0 -2,0l-1 0c0,0 -1,0 -1,0 0,-1 -1,-1 -1,-2l0 -2c0,-1 1,-2 1,-3 0,-1 1,-1 1,-2 1,0 1,-1 2,-1l0 0c0,0 0,0 0,0 0,0 1,0 1,0 0,0 -1,1 -1,1 0,0 0,0 0,0 0,0 0,0 0,0 0,0 0,0 -1,0 0,0 0,1 0,1 -1,0 -1,1 -1,1l0 1 0 0z"/>
     <path class="fil3" d="M89 133l0 0 0 -3c0,0 0,0 -1,-1 0,0 0,0 0,0 0,0 0,0 0,0l-1 0c-1,0 -1,0 -1,0 0,1 -1,1 -1,1l0 2c0,1 1,1 1,1 0,0 0,0 1,0l2 0zm-1 1l-1 0c-1,0 -2,0 -2,0 0,-1 -1,-1 -1,-2l0 -2c0,0 1,-1 1,-1 0,-1 1,-1 2,-1l1 0c0,0 1,0 1,1 0,0 1,1 1,1l0 3c0,1 -1,2 -1,3 0,0 -1,1 -1,1 -1,1 -1,1 -2,1l0 0c0,0 0,0 0,0 0,0 -1,0 -1,0 0,0 1,0 1,0 0,0 0,0 0,-1 0,0 0,0 0,0 0,0 0,0 1,0 0,0 0,0 0,0 1,-1 1,-1 1,-2l0 0 0 -1z"/>
    </g>
    <path class="fil2 str1" d="M8 24c1,0 2,0 2,1l1 0 0 -1c-1,0 -2,-1 -2,-2 0,-1 1,-2 2,-2 1,0 2,1 2,2 0,1 -1,2 -2,2l0 1 0 0c0,-1 1,-1 2,-1 1,0 2,1 2,2 0,1 -1,1 -2,1 -1,0 -2,0 -2,-1l0 0c0,1 1,2 2,3l-4 0c1,-1 2,-2 2,-3l-1 0c0,1 -1,1 -2,1 -1,0 -1,0 -1,-1 0,-1 0,-2 1,-2z"/>
    <path class="fil2 str1" d="M85 122c1,0 1,0 1,-1l1 0 0 1c-1,0 -2,1 -2,2 0,1 1,2 2,2 1,0 2,-1 2,-2 0,-1 -1,-2 -2,-2l0 -1 1 0c0,1 0,1 1,1 1,0 2,0 2,-1 0,-1 -1,-2 -2,-2 -1,0 -1,0 -1,1l-1 0c0,-1 1,-2 2,-3l-4 0c1,1 2,2 2,3l-1 0c0,-1 0,-1 -1,-1 -1,0 -2,1 -2,2 0,1 1,1 2,1z"/>
   </g>
   <path class="fil2 str1" d="M27 17c2,0 3,2 4,3l0 0 0 -2c-2,0 -3,-2 -3,-4 0,-1 2,-3 4,-3 1,0 3,2 3,3 0,2 -1,3 -3,4l0 2 1 0c0,-1 1,-3 3,-3 2,0 3,2 3,4 0,2 -1,3 -3,3 -2,0 -3,-1 -3,-3l-1 0c0,2 1,5 3,7l-7 0c2,-2 3,-4 3,-7l0 0c-1,2 -2,3 -4,3 -1,0 -3,-1 -3,-3 0,-2 2,-4 3,-4z"/>
   <path class="fil2 str1" d="M27 126c2,0 3,1 4,3l0 0 0 -3c-2,0 -3,-2 -3,-3 0,-2 2,-4 4,-4 1,0 3,2 3,4 0,1 -1,3 -3,3l0 3 1 0c0,-2 1,-3 3,-3 2,0 3,1 3,3 0,2 -1,3 -3,3 -2,0 -3,-1 -3,-3l-1 0c0,3 1,5 3,7l-7 0c2,-2 3,-4 3,-7l0 0c-1,2 -2,3 -4,3 -1,0 -3,-1 -3,-3 0,-2 2,-3 3,-3z"/>
   <path class="fil2 str1" d="M65 17c1,0 3,2 3,3l0 0 0 -2c-1,0 -2,-2 -2,-4 0,-1 1,-3 3,-3 2,0 3,2 3,3 0,2 -1,3 -2,4l0 2 0 0c0,-1 1,-3 3,-3 2,0 4,2 4,4 0,2 -2,3 -4,3 -2,0 -3,-1 -3,-3l0 0c0,2 1,5 2,7l-6 0c1,-2 2,-4 2,-7l0 0c0,2 -2,3 -3,3 -2,0 -4,-1 -4,-3 0,-2 2,-4 4,-4z"/>
   <path class="fil2 str1" d="M65 126c1,0 3,1 3,3l0 0 0 -3c-1,0 -2,-2 -2,-3 0,-2 1,-4 3,-4 2,0 3,2 3,4 0,1 -1,3 -2,3l0 3 0 0c0,-2 1,-3 3,-3 2,0 4,1 4,3 0,2 -2,3 -4,3 -2,0 -3,-1 -3,-3l0 0c0,3 1,5 2,7l-6 0c1,-2 2,-4 2,-7l0 0c0,2 -2,3 -3,3 -2,0 -4,-1 -4,-3 0,-2 2,-3 4,-3z"/>
   <path class="fil2 str1" d="M65 71c1,0 3,2 3,3l0 0 0 -3c-1,0 -2,-1 -2,-3 0,-1 1,-3 3,-3 2,0 3,2 3,3 0,2 -1,3 -2,3l0 3 0 0c0,-1 1,-3 3,-3 2,0 4,2 4,4 0,1 -2,3 -4,3 -2,0 -3,-2 -3,-3l0 0c0,2 1,5 2,6l-6 0c1,-1 2,-4 2,-6l0 0c0,1 -2,3 -3,3 -2,0 -4,-2 -4,-3 0,-2 2,-4 4,-4z"/>
   <path class="fil2 str1" d="M27 71c2,0 3,2 4,3l0 0 0 -3c-2,0 -3,-1 -3,-3 0,-1 2,-3 4,-3 1,0 3,2 3,3 0,2 -1,3 -3,3l0 3 1 0c0,-1 1,-3 3,-3 2,0 3,2 3,4 0,1 -1,3 -3,3 -2,0 -3,-2 -3,-3l-1 0c0,2 1,5 3,6l-7 0c2,-1 3,-4 3,-6l0 0c-1,1 -2,3 -4,3 -1,0 -3,-2 -3,-3 0,-2 2,-4 3,-4z"/>
  </g>
 </g>
</svg>
