<?xml version="1.0" encoding="UTF-8"?>
<!DOCTYPE svg PUBLIC "-//W3C//DTD SVG 1.1//EN" "http://www.w3.org/Graphics/SVG/1.1/DTD/svg11.dtd">
<!-- Creator: CorelDRAW X7 -->
<svg xmlns="http://www.w3.org/2000/svg" xml:space="preserve" width="72.4147mm" height="108.327mm" version="1.1" style="shape-rendering:geometricPrecision; text-rendering:geometricPrecision; image-rendering:optimizeQuality; fill-rule:evenodd; clip-rule:evenodd"
viewBox="0 0 113 169"
 xmlns:xlink="http://www.w3.org/1999/xlink">
 <defs>
  <style type="text/css">
   <![CDATA[
    .str1 {stroke:#4DFFFF;stroke-width:1.17115}
    .str0 {stroke:#2B2A29;stroke-width:0.312306}
    .fil2 {fill:none}
    .fil4 {fill:none;fill-rule:nonzero}
    .fil0 {fill:#162632}
    .fil1 {fill:#4DFFFF;fill-rule:nonzero}
    .fil3 {fill:#4DFFFF;fill-rule:nonzero}
   ]]>
  </style>
 </defs>
 <g id="Слой_x0020_1">
  <metadata id="CorelCorpID_0Corel-Layer"/>
  <g id="_2867351663344">
   <g>
    <rect class="fil0" x="1" y="1" width="111" height="168" rx="6" ry="6"/>
    <path class="fil1" d="M7 0l99 0c2,0 4,1 5,2 1,1 2,3 2,5l0 155c0,2 -1,4 -2,5 -1,1 -3,2 -5,2l-99 0c-2,0 -4,-1 -5,-2 -1,-1 -2,-3 -2,-5l0 -155c0,-2 1,-4 2,-5 1,-1 3,-2 5,-2zm99 2l-99 0c-1,0 -3,0 -4,1 -1,1 -1,3 -1,4l0 155c0,2 0,3 1,4 1,1 3,2 4,2l99 0c1,0 3,-1 4,-2 1,-1 1,-2 1,-4l0 -155c0,-1 0,-3 -1,-4 -1,-1 -3,-1 -4,-1z"/>
    <rect class="fil2 str0" x="45" y="72" width="22.5459" height="24.9375"/>
    <g>
     <path class="fil3" d="M10 19l-1 2c0,0 0,0 0,0 0,1 0,1 0,1 0,0 -1,0 -1,-1 0,0 0,0 0,0l0 0 4 -11c0,0 0,-1 0,-1 1,0 1,1 1,1l4 11 0 0c0,0 0,0 -1,0 0,1 0,1 0,1 0,0 0,0 0,0 0,-1 -1,-1 -1,-1l0 -2 -5 0zm4 -2l-2 -5 -1 5 3 0z"/>
     <path class="fil3" d="M103 151l1 -3c0,0 0,0 0,0 0,0 0,0 0,0 0,0 1,0 1,0 0,0 0,0 0,0l0 0 -4 11c0,1 0,1 0,1 -1,0 -1,0 -1,-1l-3 -11 -1 0c0,0 1,0 1,0 0,0 0,0 0,0 0,0 0,0 0,0 0,0 1,0 1,0l1 3 4 0zm-4 1l2 5 1 -5 -3 0z"/>
    </g>
    <g>
     <path class="fil4 str1" d="M13 31c0,1 1,1 2,1 1,0 2,-1 2,-2 0,-2 -2,-4 -4,-6 -3,2 -5,4 -5,6 0,1 1,2 2,2 1,0 2,0 3,-1z"/>
     <path class="fil2 str1" d="M13 31c0,2 -1,3 -2,4l3 0c-1,-1 -1,-2 -1,-4 0,0 0,0 0,0z"/>
    </g>
    <g>
     <path class="fil4 str1" d="M101 139c0,-1 1,-2 2,-2 1,0 2,1 2,2 0,2 -2,4 -4,6 -3,-2 -5,-4 -5,-6 0,-1 1,-2 2,-2 1,0 2,1 3,2z"/>
     <path class="fil2 str1" d="M101 138c0,-1 -1,-2 -2,-3l3 0c-1,1 -1,2 -1,3 0,0 0,0 0,0z"/>
    </g>
    <g>
     <path class="fil4 str1" d="M57 88c1,2 2,3 5,3 3,0 6,-2 6,-4 0,-5 -6,-10 -11,-14 -6,4 -12,9 -12,14 0,2 3,4 6,4 3,0 4,-1 6,-3z"/>
     <path class="fil2 str1" d="M57 89c0,3 -1,5 -5,8l9 0c-3,-2 -4,-5 -4,-8 0,-1 0,-1 0,0z"/>
    </g>
    <rect class="fil0" x="1" y="1" width="111" height="168" rx="6" ry="6"/>
    <path class="fil1" d="M7 0l99 0c2,0 4,1 5,2 1,1 2,3 2,5l0 155c0,2 -1,4 -2,5 -1,1 -3,2 -5,2l-99 0c-2,0 -4,-1 -5,-2 -1,-1 -2,-3 -2,-5l0 -155c0,-2 1,-4 2,-5 1,-1 3,-2 5,-2zm99 2l-99 0c-1,0 -3,0 -4,1 -1,1 -1,3 -1,4l0 155c0,2 0,3 1,4 1,1 3,2 4,2l99 0c1,0 3,-1 4,-2 1,-1 1,-2 1,-4l0 -155c0,-1 0,-3 -1,-4 -1,-1 -3,-1 -4,-1z"/>
    <g>
     <path class="fil3" d="M15 14l-4 6 4 0c0,0 0,0 1,0 0,0 0,1 0,1 0,0 0,0 0,0 0,0 -1,0 -1,0l-5 0c0,0 0,0 0,0 0,0 0,0 0,-1l4 -7c0,0 1,0 1,-1 0,0 -1,-1 -1,-1 0,0 0,0 -1,0 0,0 0,-1 -1,-1 0,0 0,1 0,1 -1,0 -1,0 -1,0 0,0 0,1 0,1l-1 0c0,0 0,0 0,0 0,-1 0,-1 0,-1 0,0 0,0 0,0 0,-1 1,-1 1,-1 0,0 0,-1 1,-1 0,0 0,0 0,0 1,0 2,1 3,1 0,1 1,2 1,2 0,1 0,1 -1,2z"/>
     <path class="fil3" d="M98 155l4 -6 -4 0c0,0 0,0 0,0 0,0 0,-1 0,-1 0,0 0,0 0,0 0,0 0,0 0,0l5 0c1,0 1,0 1,0 0,0 0,0 0,1l-5 7c0,0 0,0 0,1 0,0 0,1 1,1 0,0 0,0 0,0 0,0 1,0 1,0 0,0 1,0 1,0 0,0 0,0 1,0 0,-1 0,-1 0,-1l0 0c0,0 0,0 1,0 0,1 0,1 0,1 0,0 0,0 0,0 -1,1 -1,1 -2,1 0,0 0,0 0,1 0,0 -1,0 -1,0 -1,0 -2,-1 -2,-1 -1,-1 -1,-2 -1,-2 0,-1 0,-1 0,-2z"/>
    </g>
    <g>
     <path class="fil4 str1" d="M13 31c0,1 1,1 2,1 1,0 2,-1 2,-2 0,-2 -2,-4 -4,-6 -3,2 -5,4 -5,6 0,1 1,2 2,2 1,0 2,0 3,-1z"/>
     <path class="fil2 str1" d="M13 31c0,2 -1,3 -2,4l3 0c-1,-1 -1,-2 -1,-4 0,0 0,0 0,0z"/>
    </g>
    <g>
     <path class="fil4 str1" d="M101 139c0,-1 1,-2 2,-2 1,0 2,1 2,2 0,2 -2,4 -4,6 -3,-2 -5,-4 -5,-6 0,-1 1,-2 2,-2 1,0 2,1 3,2z"/>
     <path class="fil2 str1" d="M101 138c0,-1 -1,-2 -2,-3l3 0c-1,1 -1,2 -1,3 0,0 0,0 0,0z"/>
    </g>
   </g>
   <g>
    <path class="fil4 str1" d="M57 26c1,2 2,3 4,3 2,0 4,-2 4,-4 0,-4 -4,-7 -8,-11 -5,4 -9,7 -9,11 0,2 2,4 4,4 2,0 3,-1 5,-3z"/>
    <path class="fil2 str1" d="M57 27c0,2 -1,4 -4,6l7 0c-3,-2 -3,-4 -3,-6 0,-1 0,-1 0,0z"/>
   </g>
   <g>
    <path class="fil4 str1" d="M57 150c1,2 2,3 4,3 2,0 4,-2 4,-4 0,-4 -4,-7 -8,-11 -5,4 -9,7 -9,11 0,2 2,4 4,4 2,0 3,-1 5,-3z"/>
    <path class="fil2 str1" d="M57 151c0,2 -1,4 -4,6l7 0c-3,-2 -3,-4 -3,-6 0,-1 0,-1 0,0z"/>
   </g>
  </g>
 </g>
</svg>
