<?xml version="1.0" encoding="UTF-8"?>
<!DOCTYPE svg PUBLIC "-//W3C//DTD SVG 1.1//EN" "http://www.w3.org/Graphics/SVG/1.1/DTD/svg11.dtd">
<!-- Creator: CorelDRAW X7 -->
<svg xmlns="http://www.w3.org/2000/svg" xml:space="preserve" width="72.4147mm" height="108.327mm" version="1.1" style="shape-rendering:geometricPrecision; text-rendering:geometricPrecision; image-rendering:optimizeQuality; fill-rule:evenodd; clip-rule:evenodd"
viewBox="0 0 79 118"
 xmlns:xlink="http://www.w3.org/1999/xlink">
 <defs>
  <style type="text/css">
   <![CDATA[
    .str1 {stroke:#4DFFFF;stroke-width:0.819408}
    .str13 {stroke:#4DFFFF;stroke-width:0.273136}
    .str0 {stroke:#2B2A29;stroke-width:0.218509}
    .str12 {stroke:#4DFFFF;stroke-width:0.289633;stroke-linecap:round;stroke-linejoin:round}
    .str11 {stroke:#4DFFFF;stroke-width:0.267345;stroke-linecap:round;stroke-linejoin:round}
    .str6 {stroke:#4DFFFF;stroke-width:0.295314;stroke-linecap:round;stroke-linejoin:round}
    .str7 {stroke:#4DFFFF;stroke-width:0.301433;stroke-linecap:round;stroke-linejoin:round}
    .str3 {stroke:#4DFFFF;stroke-width:0.390912;stroke-linecap:round;stroke-linejoin:round}
    .str9 {stroke:#4DFFFF;stroke-width:0.390912;stroke-linecap:round;stroke-linejoin:round}
    .str4 {stroke:#4DFFFF;stroke-width:0.390912;stroke-linecap:round;stroke-linejoin:round}
    .str8 {stroke:#4DFFFF;stroke-width:0.390912;stroke-linecap:round;stroke-linejoin:round}
    .str10 {stroke:#4DFFFF;stroke-width:0.390912;stroke-linecap:round;stroke-linejoin:round}
    .str5 {stroke:#4DFFFF;stroke-width:0.390912;stroke-linecap:round;stroke-linejoin:round}
    .str2 {stroke:#4DFFFF;stroke-width:0.390912;stroke-linecap:round;stroke-linejoin:round}
    .fil2 {fill:none}
    .fil4 {fill:none;fill-rule:nonzero}
    .fil0 {fill:#162632}
    .fil1 {fill:#4DFFFF;fill-rule:nonzero}
    .fil3 {fill:#4DFFFF;fill-rule:nonzero}
   ]]>
  </style>
 </defs>
 <g id="Слой_x0020_1">
  <metadata id="CorelCorpID_0Corel-Layer"/>
  <g id="_2867368168464">
   <g>
    <rect class="fil0" x="1" y="1" width="77.9996" height="117.236" rx="4" ry="4"/>
    <path class="fil1" d="M5 0l69 0c1,0 3,1 4,1 1,1 1,3 1,4l0 108c0,2 0,3 -1,4 -1,1 -3,1 -4,1l-69 0c-1,0 -3,0 -4,-1 0,-1 -1,-2 -1,-4l0 -108c0,-1 1,-3 1,-4 1,0 3,-1 4,-1zm69 1l-69 0c-1,0 -2,1 -3,1 0,1 -1,2 -1,3l0 108c0,1 1,2 1,3 1,1 2,1 3,1l69 0c1,0 2,0 3,-1 1,-1 1,-2 1,-3l0 -108c0,-1 0,-2 -1,-3 -1,0 -2,-1 -3,-1z"/>
    <rect class="fil2 str0" x="32" y="50" width="15.7745" height="17.4478"/>
    <g>
     <path class="fil3" d="M7 13l0 2c-1,0 -1,0 -1,0 0,0 0,0 0,0 0,0 0,0 0,0 0,0 0,0 0,0l0 0 2 -8c0,0 0,0 1,0 0,0 0,0 0,0l3 8 0 0c0,0 0,0 -1,0 0,0 0,0 0,0 0,0 0,0 0,0 0,0 0,0 0,0l-1 -2 -3 0zm3 -1l-1 -4 -2 4 3 0z"/>
     <path class="fil3" d="M72 105l1 -1c0,-1 0,-1 0,-1 0,0 0,0 0,0 0,0 0,0 0,0 0,0 0,1 0,1l0 0 -2 7c0,1 0,1 -1,1 0,0 0,0 0,-1l-2 -7 0 0c0,0 0,-1 0,-1 0,0 0,0 0,0 0,0 0,0 0,0 0,0 0,0 0,1l1 1 3 0zm-3 1l1 4 2 -4 -3 0z"/>
    </g>
    <g>
     <path class="fil4 str1" d="M9 22c0,0 1,1 1,1 1,0 2,-1 2,-2 0,-1 -2,-3 -3,-4 -2,1 -4,3 -4,4 0,1 1,2 2,2 1,0 1,-1 2,-1z"/>
     <path class="fil2 str1" d="M9 22c0,1 0,2 -1,2l2 0c-1,0 -1,-1 -1,-2 0,0 0,0 0,0z"/>
    </g>
    <g>
     <path class="fil4 str1" d="M70 97c1,-1 1,-1 2,-1 1,0 2,1 2,1 0,2 -2,3 -4,5 -1,-2 -3,-3 -3,-5 0,0 1,-1 2,-1 1,0 1,0 1,1z"/>
     <path class="fil2 str1" d="M70 97c0,-1 0,-2 -1,-3l3 0c-1,1 -2,2 -2,3 0,0 0,0 0,0z"/>
    </g>
    <g>
     <path class="fil4 str1" d="M40 62c1,1 1,2 3,2 3,0 4,-1 4,-3 0,-4 -4,-7 -7,-10 -4,3 -8,6 -8,10 0,2 2,3 4,3 2,0 3,-1 4,-2z"/>
     <path class="fil2 str1" d="M40 62c0,2 -1,4 -3,6l5 0c-2,-2 -2,-4 -2,-6 0,0 0,0 0,0z"/>
    </g>
    <rect class="fil0" x="1" y="1" width="77.9996" height="117.236" rx="4" ry="4"/>
    <path class="fil1" d="M5 0l69 0c1,0 3,1 4,1 1,1 1,3 1,4l0 108c0,2 0,3 -1,4 -1,1 -3,1 -4,1l-69 0c-1,0 -3,0 -4,-1 0,-1 -1,-2 -1,-4l0 -108c0,-1 1,-3 1,-4 1,0 3,-1 4,-1zm69 1l-69 0c-1,0 -2,1 -3,1 0,1 -1,2 -1,3l0 108c0,1 1,2 1,3 1,1 2,1 3,1l69 0c1,0 2,0 3,-1 1,-1 1,-2 1,-3l0 -108c0,-1 0,-2 -1,-3 -1,0 -2,-1 -3,-1z"/>
    <g>
     <path class="fil3" d="M7 9l4 -3c0,-1 0,-1 0,-1 0,0 0,0 0,1 0,0 1,0 1,0 0,0 -1,0 -1,0l-2 3 2 4 1 0c0,1 -1,1 -1,1 0,0 0,0 0,0 0,0 0,0 0,0l-3 -5 -1 1 0 3c0,1 0,1 0,1 0,0 0,0 0,0 0,0 0,0 0,0 -1,0 -1,0 -1,-1l0 -7c0,0 0,0 1,0 0,-1 0,-1 0,-1 0,0 0,0 0,1 0,0 0,0 0,0l0 3z"/>
     <path class="fil3" d="M72 109l-4 4c0,0 0,0 0,0 0,0 0,0 0,0 0,0 0,0 0,0 0,0 0,-1 0,-1l2 -2 -2 -5 0 0c0,0 0,0 0,0 0,0 0,0 0,0 0,0 0,0 0,0l3 4 1 -1 0 -3c0,0 0,0 0,0 0,0 0,0 0,0 0,0 1,0 1,0 0,0 0,0 0,0l0 8c0,0 0,0 0,0 0,0 -1,0 -1,0 0,0 0,0 0,0 0,0 0,0 0,0l0 -4z"/>
    </g>
    <g>
     <path class="fil4 str1" d="M9 22c0,0 1,1 1,1 1,0 2,-1 2,-2 0,-1 -2,-3 -3,-4 -2,1 -4,3 -4,4 0,1 1,2 2,2 1,0 1,-1 2,-1z"/>
     <path class="fil2 str1" d="M9 22c0,1 0,2 -1,2l2 0c-1,0 -1,-1 -1,-2 0,0 0,0 0,0z"/>
    </g>
    <g>
     <path class="fil4 str1" d="M70 97c1,-1 1,-1 2,-1 1,0 2,1 2,1 0,2 -2,3 -4,5 -1,-2 -3,-3 -3,-5 0,0 1,-1 2,-1 1,0 1,0 1,1z"/>
     <path class="fil2 str1" d="M70 97c0,-1 0,-2 -1,-3l3 0c-1,1 -2,2 -2,3 0,0 0,0 0,0z"/>
    </g>
   </g>
   <g>
    <path class="fil4 str2" d="M60 46c0,0 1,1 2,1 1,0 2,-1 2,-2 -1,-1 -2,-2 -3,-1 -1,0 -1,0 -2,0 0,-4 0,-7 0,-11 0,-4 0,-8 0,-11 0,0 0,0 0,-1 0,0 -1,-1 -1,-2 -1,0 -1,-1 -1,-1 0,0 -1,-1 -1,-1 0,0 0,0 0,0l0 0c0,1 -1,2 -1,2 0,1 -1,2 -1,2 0,0 0,1 0,1 0,0 0,1 0,1 0,1 0,1 0,1 -1,3 0,6 0,9 0,2 0,4 0,6 -1,0 -1,0 -1,-1 -1,0 -1,0 -1,0 0,0 0,0 0,0 0,0 0,-1 -1,-1 1,0 1,-1 0,-2 0,0 -1,-1 -1,-1 -1,0 -1,1 -1,1 0,0 0,-1 0,-1 0,-2 0,-4 0,-7 0,0 0,0 0,0 0,0 0,0 0,0l0 0c0,0 0,0 0,0 0,0 0,0 0,0l0 0c0,0 0,0 0,0 0,0 0,-1 0,-1 0,0 0,0 0,0 0,0 0,0 0,0l0 0c0,0 0,-1 0,-1 0,0 0,0 0,-1 1,0 1,-1 1,-2 1,-1 1,-2 2,-3l0 0c0,0 0,-1 0,-1 -1,1 -2,2 -3,1 -2,-1 -2,-2 -2,-3l0 0 0 0c-1,0 -1,0 -1,0 0,1 -2,2 -3,2 -1,0 -2,-1 -3,-2 0,0 0,0 0,0 0,0 0,0 0,0 0,0 0,0 0,0 -1,1 -2,2 -3,3 -2,0 -3,-1 -4,-3l0 0c0,0 0,0 0,0 0,1 0,1 0,2 0,0 -1,1 -1,2 -1,1 -3,0 -4,0l0 0 0 0c0,0 0,1 0,1 1,1 1,1 1,2 0,0 1,1 1,1 0,1 1,1 1,2 0,0 0,0 0,0 0,0 0,0 0,0l0 0c0,1 0,1 0,1 0,0 0,0 0,0 0,1 0,1 0,1 0,0 0,0 0,0 0,1 0,2 0,3 0,1 0,2 0,4 0,-1 0,-1 -1,-1 0,-1 -1,0 -2,0 0,1 -1,2 -1,3 0,0 0,0 0,0 -1,1 -2,2 -3,3 -1,1 -2,2 -3,3 0,0 0,1 0,1 0,0 0,0 0,0 1,0 2,0 2,1 0,0 0,0 0,0 -1,1 -1,1 -1,1 0,0 0,0 0,0 -1,1 -1,2 -2,2 0,1 0,1 -1,2 0,0 0,1 0,1 0,0 0,0 0,0 1,1 3,3 4,5 0,0 0,1 0,1 0,0 0,0 0,0l0 0c0,0 0,0 0,0 1,-1 2,-1 3,-1 2,0 5,0 7,0 1,0 1,0 2,0l0 0c1,0 1,0 1,0 1,1 2,1 3,1 0,0 0,0 1,0 0,0 0,0 1,0 0,0 0,1 0,1 0,0 1,0 1,0 0,0 0,0 0,0 0,0 0,0 0,0 1,0 2,0 2,1 1,0 1,0 1,0 1,0 3,1 5,1 1,1 3,2 4,2l0 0c0,0 0,1 1,1 0,0 1,0 2,0 2,-1 2,-4 2,-6 0,0 0,-1 0,-2 1,0 1,-1 2,-2 0,-1 1,-2 2,-3 0,0 0,0 0,0 -1,-1 -1,-1 -2,-2 0,-1 -1,-1 -1,-2 0,0 0,0 0,0z"/>
    <path class="fil4 str2" d="M54 22c0,0 1,1 1,1 1,1 1,1 1,2 0,3 0,6 0,9 0,2 0,3 0,5 0,2 0,3 0,5 0,0 -1,0 -2,0 0,-4 0,-7 0,-11 0,-4 0,-7 0,-11l0 0z"/>
    <path class="fil4 str2" d="M52 38c0,0 0,0 0,1 1,0 1,0 2,1 0,1 0,2 0,4 -1,0 -1,0 -1,0 0,0 0,-1 0,-1 0,-1 0,-1 -1,-1 0,-1 -1,-1 -1,0 0,-1 -1,-1 -1,-1 0,0 0,0 0,0 0,-1 0,-1 0,-1 0,0 0,0 0,0 1,-1 2,-1 2,-2z"/>
    <path class="fil4 str2" d="M49 35c0,0 0,0 0,0 1,-1 1,0 2,0 0,1 1,2 0,2 -1,1 -1,1 -1,1 -1,0 -1,-1 -1,-1 0,0 0,0 0,0 0,0 0,0 0,0 0,-1 0,-1 0,-1 1,-1 1,0 1,0 0,0 0,0 0,1 0,0 0,0 0,0 1,-1 0,-2 -1,-2 0,1 0,1 0,1 0,0 0,0 0,0 0,0 0,0 0,-1 0,0 0,0 0,0z"/>
    <path class="fil4 str2" d="M49 40c0,-1 0,-1 0,-1 0,0 1,0 1,0 0,0 0,0 0,0 1,0 1,-1 1,-1 0,0 0,0 0,0 0,0 0,0 -1,1 0,0 -1,0 -1,-1 0,0 0,0 0,-1 0,1 1,1 1,1 0,0 1,0 1,-1l0 0c0,1 1,1 0,1 0,1 -1,1 -1,2 0,0 0,0 0,0 0,-1 0,-1 0,-1l0 0 -1 0 0 0c1,0 1,1 1,1 0,0 0,0 0,0l0 0c0,0 0,1 -1,1 0,0 0,0 -1,1 1,-1 1,-2 1,-2z"/>
    <path class="fil4 str2" d="M46 43c0,1 0,1 0,1 0,-1 0,-1 0,-2l0 0c0,1 0,1 0,2 -1,0 -1,1 -2,1 1,0 1,-1 1,-1 0,-1 -1,-1 -1,-2 1,0 1,-1 1,-1l0 0c0,0 -1,1 -1,1 0,0 0,1 0,1 0,0 0,1 0,1 0,1 0,1 0,2 0,0 0,-1 0,-1 0,0 0,0 0,-1 -1,0 -1,-1 0,-2 0,0 -1,0 -1,0 0,1 0,1 0,2 0,0 0,1 0,1 0,1 0,1 0,1 0,0 0,0 0,0 0,-1 -1,-3 -1,-4l0 0c0,1 0,1 0,2 0,1 0,1 0,2 0,0 0,1 -1,1 1,-1 1,-1 0,-2 0,-1 0,-1 0,-2 -1,0 0,-1 -1,-1l0 0c0,0 0,0 0,1 0,0 0,0 0,1 1,0 1,1 1,2 1,0 0,1 0,1 -1,0 -1,0 -2,0 0,0 0,-1 1,-1 -1,0 -1,0 -1,0 0,0 0,1 1,1 0,0 0,-1 0,-1 0,-1 -1,-1 -1,-2 0,-1 0,-2 0,-3l0 0c0,1 0,2 0,3 0,0 0,0 0,0 -1,0 -1,0 -1,-1 0,0 0,0 0,0l0 0 0 0 0 0c0,0 0,1 0,1 0,0 0,0 1,0 0,0 -1,0 -1,0 0,0 0,0 -1,0 0,0 0,0 -1,0 0,-1 0,-1 0,-1 1,0 2,0 2,-1 0,-1 0,-1 0,-2 0,0 0,0 0,0 1,0 1,1 1,1 0,0 0,0 1,0 0,0 1,1 1,1 1,0 2,-1 2,-1 1,0 1,-1 1,-1 1,0 1,0 1,0 0,0 0,0 0,0 0,0 0,0 0,1 0,0 1,1 1,1 0,0 1,0 1,0 0,1 0,1 -1,1z"/>
    <path class="fil4 str2" d="M36 38l0 0c0,0 0,1 0,1 0,0 0,0 0,1 0,0 0,0 0,0 0,-1 0,-3 0,-4 0,1 0,2 1,2 0,1 0,1 0,1 0,0 0,0 -1,0l0 0c0,0 0,0 0,-1z"/>
    <path class="fil4 str2" d="M37 38c1,-1 1,-1 2,-1 0,0 0,1 0,1 0,0 0,0 0,0l0 0c0,0 -1,0 -1,0 0,1 1,1 1,1 0,0 0,0 0,-1 0,0 1,0 1,-1 0,0 1,0 1,0 0,0 0,0 0,0 0,0 -1,0 -1,1 0,0 0,1 0,2 0,0 -1,0 -1,0 0,0 0,0 0,0 -1,0 -1,0 -1,0 0,0 0,0 0,0 0,0 0,0 0,0 -1,-1 -1,-2 -1,-2z"/>
    <path class="fil4 str2" d="M45 38l0 0c0,0 0,0 0,0 0,0 0,-1 0,-1 0,0 1,0 1,1 0,0 0,1 -1,2 0,0 0,0 0,0 0,0 -1,0 -1,0 0,0 0,0 0,0 -1,-1 -1,-2 -1,-2 0,-1 -1,-1 -1,-1 0,0 0,0 0,0 1,0 1,0 2,0 0,1 0,1 0,1 0,1 0,1 0,1 1,0 1,0 1,-1 0,0 0,0 0,0z"/>
    <path class="fil4 str2" d="M46 38c0,0 0,0 0,0 0,0 1,0 1,-1 0,1 0,1 0,1 0,1 0,1 0,1 0,0 -1,0 -1,0 0,0 1,0 0,-1z"/>
    <path class="fil4 str2" d="M47 42c-1,-1 -2,-1 -1,-2 0,0 0,-1 1,0 0,0 0,0 0,0 0,0 0,1 0,1 0,0 0,0 0,0 -1,0 -1,-1 0,-1l-1 0c0,0 0,1 0,1 0,0 1,0 1,0 0,0 0,0 0,0 0,0 0,-1 0,-1l0 0c0,0 0,-1 0,-2l0 0c0,0 0,1 0,2 0,0 0,-1 0,-1 0,0 0,-1 0,-2 0,0 0,0 0,0 0,-2 0,-3 0,-4 0,-1 0,-1 0,-2 0,0 0,0 0,-1 0,0 0,0 0,0 1,-1 0,-2 0,-3 0,0 1,0 1,0 0,3 0,6 0,8 0,1 0,1 0,0 0,-2 0,-5 0,-8 0,0 0,0 0,0l0 0c0,0 1,0 1,0 0,2 -1,5 -1,7 0,1 0,2 0,3 0,1 0,2 0,3 0,0 1,0 1,0 0,1 0,1 -1,1 0,1 -1,1 -1,1z"/>
    <path class="fil4 str2" d="M30 25c0,-1 0,-2 -1,-2 0,-1 0,-1 -1,-2 0,0 0,-1 0,-1 1,1 2,1 3,0 2,-1 2,-2 2,-3 1,1 2,2 4,2 1,0 2,-1 3,-3 1,1 2,2 3,2 2,0 3,-1 3,-2 1,1 1,3 2,3 1,1 3,1 4,0 -1,1 -1,2 -2,3 0,1 -1,2 -1,3l0 0 0 0c-1,0 -1,0 -2,0 0,-1 -1,-1 -2,-1 -2,0 -3,0 -5,0 -2,0 -3,0 -5,0 -1,1 -2,1 -3,1 0,0 0,0 -1,0 0,0 0,0 0,1 0,0 0,0 0,0 0,-1 0,-1 -1,-1z"/>
    <path class="fil4 str2" d="M31 27c0,0 0,0 0,0 1,0 1,0 2,-1 1,0 2,0 2,0 2,0 4,0 5,0 3,0 6,0 9,1 0,0 0,0 0,0 0,0 0,0 0,0 -1,0 -1,0 -2,0 0,-1 -1,-1 -2,-1 -2,0 -3,0 -5,0 -2,0 -3,0 -5,0 -1,1 -2,1 -3,1 0,0 -1,0 -1,1 0,0 0,-1 0,-1z"/>
    <path class="fil4 str2" d="M33 27c0,3 0,5 0,8 0,0 0,0 0,0 0,-3 0,-5 0,-8l0 0c-1,0 -1,0 -2,1l0 0c0,0 0,0 0,0 0,1 0,2 0,3 0,2 0,3 0,4 0,0 0,1 0,1 0,1 -1,1 -2,0 0,0 0,0 0,-1 1,0 1,0 1,1l0 0c0,-1 -1,-1 -1,0 1,1 1,1 1,0 1,0 1,0 1,-1 0,0 -1,-1 -1,-1 -1,0 -2,0 -2,1 0,1 -1,1 -1,2l0 0 0 0c0,0 0,0 1,0l0 0c0,1 0,1 1,1 0,0 1,1 1,1 0,-1 1,-1 1,-1 0,0 0,0 0,0 0,0 0,1 0,1l0 0c0,0 0,0 0,0 1,0 1,1 0,1 0,1 0,1 -1,0 0,0 0,0 0,0 0,0 0,0 0,0l0 0c0,0 0,0 0,0 0,0 0,0 1,0 0,0 0,0 0,0 1,-1 0,-1 -1,-1 0,0 0,0 -1,0 0,0 0,0 0,0 0,0 0,0 0,0 0,1 0,1 0,2 1,0 1,0 1,0 1,0 2,0 2,0 0,-4 0,-8 0,-12l0 0c0,4 0,8 0,12 0,0 1,1 1,1 1,1 1,1 2,1 -1,-1 -1,-1 -1,-1 -1,-1 -1,-2 -1,-3l0 0c0,1 0,2 1,3 1,1 2,1 3,0 1,0 1,-1 1,-1 0,-1 0,-1 -1,-1 -1,-1 -2,0 -1,1 0,0 1,1 1,0 0,0 0,0 0,-1 0,0 0,0 0,0 0,1 1,1 0,1 0,1 -1,1 -1,0 0,0 0,0 -1,0 0,-3 0,-5 0,-7 0,-3 0,-5 1,-7 -1,0 -1,0 -1,0 0,0 -1,0 -2,0z"/>
    <path class="fil4 str2" d="M47 32c-1,0 -1,1 -2,1 0,0 -1,0 -1,0 0,-1 -1,-1 -1,-1 1,0 1,0 1,0 1,0 1,0 1,0 1,0 1,0 2,0z"/>
    <path class="fil4 str2" d="M32 51c0,-1 0,-1 -1,-1 0,-1 -1,-2 -2,-3 1,0 1,0 1,0 1,0 1,0 2,0 0,0 1,-1 1,-2 0,0 0,0 0,0 1,1 1,1 2,2 0,0 0,1 0,1 1,0 1,1 1,1 0,0 0,0 0,0 -1,2 -2,2 -4,2z"/>
    <path class="fil4 str2" d="M21 44c2,-3 4,-5 6,-7 1,1 1,2 2,2 0,0 0,0 0,0 0,0 0,1 0,1 -1,0 0,1 0,1 1,0 1,0 1,1 -1,1 -2,1 -4,2 0,0 0,0 0,0 -1,0 -1,0 -1,0 -1,0 -1,0 -1,0 -1,0 -1,0 -2,0 0,0 0,0 -1,0z"/>
    <path class="fil4 str2" d="M19 51c0,0 0,0 0,0 0,0 0,-1 0,-1 1,-1 1,-1 2,-2 0,-1 1,-1 1,-2 0,0 1,0 1,-1 0,0 0,0 0,0 0,0 0,0 0,0 1,0 1,0 2,1 0,0 1,1 2,1 0,2 -2,3 -3,4 -1,0 -2,1 -3,0 -1,0 -1,0 -2,0 0,0 0,0 0,0z"/>
    <path class="fil4 str2" d="M35 56c0,-1 0,-1 -1,-2 0,-1 -1,-1 -1,-2 -2,-1 -3,-2 -4,-4 -2,-1 -3,-2 -4,-3 -1,0 -2,0 -2,-1 0,0 1,0 1,0 1,0 1,0 2,0 0,0 0,0 0,1 0,0 0,0 1,0 0,1 1,1 1,2 1,1 2,2 3,3 2,2 4,4 5,6 0,0 0,0 -1,0z"/>
    <path class="fil4 str2" d="M40 57c0,0 -1,0 -1,0 -1,-1 -2,-1 -3,-1 0,0 0,-1 -1,-1 1,0 2,0 2,0 1,0 2,0 2,-1 0,0 0,0 0,0 0,0 0,1 0,2 1,0 1,1 1,1 0,0 0,0 0,0z"/>
    <path class="fil4 str2" d="M40 57c0,0 0,-1 0,-1 -1,-1 -1,-2 -1,-2 -1,-2 -2,-3 -3,-5 0,-1 -1,-3 -2,-4 -1,-1 -1,-1 -2,-2 0,0 -1,-1 -1,-1 0,0 0,0 0,0 0,0 1,-1 1,-1 0,0 0,0 0,0 0,0 0,0 0,1l0 0c0,0 1,0 1,0 0,1 0,1 0,1 0,0 0,0 0,0 1,0 1,0 1,1 0,0 1,1 1,1 1,2 2,3 3,4 0,2 1,3 1,4 1,1 1,2 1,2 1,1 1,2 1,2 0,0 0,0 -1,0z"/>
    <path class="fil4 str2" d="M42 58c0,-1 0,-1 -1,-1l0 0c1,0 1,-1 1,-2 0,-1 1,-1 1,-2 0,-2 1,-3 2,-5 0,-1 1,-2 2,-3 1,-2 2,-3 2,-4 1,0 1,0 1,0l0 0c0,0 0,0 0,0 0,0 0,1 0,1 0,0 0,0 0,0 0,0 -1,1 -1,1 0,0 0,1 0,1 -1,1 -1,1 -2,2 -1,1 -1,3 -2,4 -1,3 -2,5 -3,8z"/>
    <path class="fil4 str2" d="M52 50c1,0 1,-1 1,-1 0,-1 0,-1 0,-1 0,0 1,0 1,0 0,0 0,0 0,-1 0,0 0,0 0,0 1,1 0,2 0,3 0,0 0,0 0,1 0,1 0,1 0,2 0,0 0,0 0,0 0,0 0,1 0,1l0 0c0,0 0,1 0,1 0,0 -1,-1 -1,-1 -1,-1 -1,-1 -1,-2 1,-1 0,-2 0,-2z"/>
    <path class="fil4 str2" d="M47 52c0,0 -1,-1 -1,-1 0,0 0,0 0,-1 0,0 -1,0 -1,0 1,-1 2,-3 2,-4 1,1 1,2 2,3 1,0 2,1 3,0 0,1 0,1 0,1 0,0 0,0 0,0 0,0 -1,1 -1,1 0,0 -1,1 -1,1 0,0 0,0 -1,0 0,0 -1,0 -2,0z"/>
    <path class="fil4 str2" d="M59 52c0,1 0,5 0,6 0,1 0,2 0,3 -1,1 -2,1 -3,2 0,0 -2,0 -2,-1 -1,0 -2,-7 -1,-8"/>
    <path class="fil4 str2" d="M57 54c-1,0 -1,0 -1,0 -1,0 -1,0 -1,0 0,0 0,0 0,0 -1,-1 -1,-1 -1,-1l0 0 0 0c1,0 1,0 1,0 1,0 1,0 2,0 0,0 1,0 1,0 1,0 1,0 1,0 0,0 0,0 0,1 -1,0 -1,0 -2,0z"/>
    <path class="fil4 str2" d="M58 53c-1,0 -1,-1 -2,-1 0,0 0,0 -1,0 0,0 -1,1 -1,0 0,0 0,0 0,-1 1,0 1,0 1,0 1,0 1,0 2,0 0,0 1,0 1,0 1,0 1,0 1,0l0 0c0,1 0,1 0,1 0,0 0,0 0,0 0,0 -1,1 -1,1z"/>
    <path class="fil4 str2" d="M59 51c0,0 -1,0 -1,0 0,0 -1,0 -2,0 0,0 -1,0 -1,0 -1,0 -1,-1 -1,-1 0,0 0,0 1,0 0,0 0,0 0,0 1,0 1,0 1,0 1,0 2,0 3,0 0,0 0,0 0,0 0,0 1,1 0,1z"/>
    <path class="fil4 str2" d="M59 49c-1,1 -2,1 -2,1 -1,0 -1,0 -2,0 0,0 -1,0 -1,-1 0,0 0,0 1,0 0,-1 0,-1 0,-1 1,0 1,0 1,0 1,0 3,0 3,1z"/>
    <path class="fil4 str2" d="M58 48c0,0 0,0 -1,0 0,0 -1,0 -2,0 0,0 0,0 0,0 0,0 0,0 0,-1 0,0 0,0 0,0 0,0 0,0 0,0 0,-1 0,-1 0,-1 1,0 1,0 1,0 1,0 1,0 2,0 0,1 0,1 0,2 0,0 0,0 0,0z"/>
    <path class="fil4 str2" d="M56 46c-1,0 -1,0 -2,0 0,0 0,0 -1,0l0 0c0,0 0,0 0,0 0,0 0,0 0,0 0,0 0,0 0,0 1,0 2,0 3,0 1,0 1,0 2,0 0,0 1,0 1,0 0,0 0,0 0,0l0 0c0,0 -1,0 -1,0 -1,0 -1,0 -2,0z"/>
    <path class="fil4 str2" d="M44 58c0,0 -1,0 -2,0 1,-1 1,-2 1,-3 0,0 0,-1 0,-1 0,1 1,1 1,2 1,0 2,0 2,0 0,0 -1,1 -2,2z"/>
    <path class="fil4 str2" d="M45 58c0,0 0,0 0,0 0,0 0,0 0,0 1,-1 2,-2 2,-3 1,-1 2,-2 3,-3 1,-1 1,-1 2,-2 0,0 0,0 0,0 0,1 0,1 0,1 0,0 0,1 0,1 0,0 -1,0 -2,1 0,0 -1,1 -2,2 0,0 -1,1 -1,2 -1,0 -1,1 -2,2 0,0 0,-1 0,-1z"/>
    <path class="fil4 str2" d="M61 48c0,1 1,1 2,2 -1,0 -1,0 -1,0 -1,1 -1,1 -2,1 0,0 0,0 0,0 0,-1 -1,-1 -1,-1 0,0 0,-1 0,-1 0,0 0,0 0,0 0,0 0,0 0,-1 0,0 -1,0 -1,0 0,0 0,0 0,0 0,-1 0,-1 0,-2 0,0 0,0 0,0 1,0 1,1 1,0 0,0 1,0 0,0 1,0 1,0 0,0 1,0 1,0 1,0 0,1 0,2 1,2z"/>
    <path class="fil4 str2" d="M58 47c0,0 0,1 0,1 0,0 0,0 0,0 0,0 0,0 1,0 -1,0 -1,-1 -1,-1z"/>
    <path class="fil4 str2" d="M59 48c0,0 0,0 0,0 0,1 0,1 0,1 1,0 1,0 1,1 0,0 1,0 1,0 0,0 0,0 1,0 0,0 0,0 1,0 -1,-1 -2,-1 -2,-2 -1,0 -1,-1 -1,-2 0,0 0,0 -1,0 1,0 1,0 0,0 1,0 0,0 0,0 0,1 0,0 -1,0 0,1 1,2 1,2z"/>
    <path class="fil4 str2" d="M60 50c0,0 0,0 -1,-1 0,0 0,1 0,1 0,0 1,0 1,1 0,0 0,0 0,0 1,0 1,0 1,0 0,-1 -1,-1 -1,-1z"/>
    <path class="fil4 str2" d="M48 34c-1,1 -1,3 0,5 0,0 0,0 0,0 0,-2 0,-4 0,-5l0 0z"/>
    <path class="fil4 str3" d="M48 21c0,-1 0,-1 0,-1 0,0 0,0 -1,0l0 0 0 0 0 0c0,0 0,0 0,0 0,0 -1,0 -1,1 -1,0 -1,0 -1,0l0 0c0,0 0,0 -1,0 1,1 1,1 1,2 1,0 1,0 1,0l0 0c0,0 0,1 0,1 0,0 0,0 1,0 0,0 0,-1 1,-1 0,0 0,0 1,0 0,-1 0,-1 0,-1 0,0 0,-1 -1,-1zm0 2c-1,0 -1,0 -1,1 0,-1 0,-2 0,-2 0,0 0,0 0,0 1,0 1,0 2,0l0 0c-1,0 -1,1 -1,1z"/>
    <path class="fil4 str2" d="M45 21c0,0 0,0 1,0 0,-1 1,-1 1,-1 0,0 0,0 0,0 0,1 0,1 0,2 0,0 0,0 0,0 -1,-1 -2,-1 -2,-1l0 0c0,0 0,0 0,0z"/>
    <path class="fil4 str2" d="M45 21c0,1 1,1 2,1 0,0 0,1 -1,2 0,-1 -1,-2 -1,-3z"/>
    <path class="fil4 str4" d="M31 23c0,0 1,0 1,0 0,0 1,0 1,0 0,1 1,1 1,1 0,0 0,0 0,0 1,0 1,-1 1,-1l0 0c0,0 0,0 0,0 0,-1 1,-1 1,-2 0,0 0,0 -1,0l0 0c0,0 0,0 -1,0 0,-1 -1,-1 -1,-1 0,0 0,0 0,0l0 0 0 0 0 0c-1,0 -1,0 -1,0 0,0 0,1 0,1 0,1 -1,1 -1,2zm3 1c0,-1 0,-1 0,-2 0,0 1,0 1,-1 0,1 0,2 -1,3z"/>
    <path class="fil4 str2" d="M33 20c0,1 0,1 0,2 0,0 0,0 0,0 0,0 -1,0 -2,1 1,-1 1,-2 2,-3z"/>
    <path class="fil4 str2" d="M31 23l0 0c1,-1 2,-1 2,-1 0,0 0,0 0,0 1,1 1,1 1,2 0,0 -1,0 -1,-1 -1,0 -1,0 -2,0z"/>
    <path class="fil4 str5" d="M41 20c0,-1 0,-1 -1,-1 0,0 0,0 0,0l0 0 0 0 0 0c0,0 0,0 0,0 0,0 -1,1 -1,1 0,1 -1,1 -1,1l0 0c0,0 0,0 0,0 0,1 1,1 1,1 0,1 0,1 0,1l0 0c1,0 1,0 1,0 0,0 0,0 0,0 1,0 1,0 1,-1 1,0 1,0 1,-1 0,0 0,0 1,0 -1,0 -1,-1 -2,-1zm0 2c0,0 0,1 -1,1 0,-1 0,-1 0,-2 1,0 1,0 1,0 0,0 1,0 1,0l0 0c0,0 0,1 -1,1z"/>
    <path class="fil4 str2" d="M38 21c0,0 1,0 1,-1 0,0 1,-1 1,-1 0,0 0,0 0,0 0,1 0,1 0,2 0,0 0,0 0,0 0,0 -1,0 -2,0l0 0c0,0 0,0 0,0z"/>
    <path class="fil4 str2" d="M38 21c1,0 2,0 2,0 0,1 0,2 0,2 -1,0 -1,-1 -2,-2z"/>
    <path class="fil4 str2" d="M35 41c0,1 0,0 0,0 -1,-1 -1,-3 -1,-4 0,-1 0,-2 0,-3 0,0 0,-1 0,-1 0,-2 0,-4 0,-6l0 0c0,2 0,4 0,6 0,2 0,3 0,5 0,1 0,3 1,3z"/>
    <path class="fil4 str2" d="M30 38c1,0 1,-1 2,-2 0,0 -1,0 -1,0 0,1 0,1 -1,2 0,0 -1,0 -2,-1 0,-1 0,-1 1,-2 0,0 0,-1 1,0 0,0 0,0 0,0l0 0c0,-1 -1,-1 -1,0 -1,0 -1,1 -1,2 0,0 1,1 2,1z"/>
    <path class="fil4 str2" d="M32 35c0,-2 0,-4 0,-6l0 0c-1,2 -1,4 -1,6 0,0 1,0 1,0z"/>
    <path class="fil4 str2" d="M41 38l0 0c0,0 0,0 1,0 0,0 0,0 0,0 0,0 0,0 1,0 0,0 0,0 0,0 0,0 0,0 0,0l0 0 0 0c0,0 0,0 0,0l0 0c-1,0 -2,0 -2,0 0,0 0,0 0,0z"/>
    <path class="fil4 str2" d="M43 39c-1,0 -1,0 -1,0 0,0 -1,0 -1,0l0 0c0,0 0,0 0,0l0 0c0,1 1,0 2,0 0,0 0,0 0,0z"/>
    <path class="fil4 str2" d="M37 29c0,1 1,1 1,1 0,0 1,0 1,0 1,0 1,0 1,0 0,0 0,0 0,0 0,1 -1,0 -1,0 0,0 -1,0 -1,0 -1,0 -1,0 -2,0 0,0 1,-1 1,-1z"/>
    <path class="fil4 str2" d="M41 34c0,0 0,1 0,2 0,0 0,0 0,0 0,0 0,0 0,0 1,0 1,0 1,0 0,0 1,0 1,0 0,0 0,0 0,0 0,0 0,0 0,0 -1,0 -1,-1 -1,-1 0,0 0,0 -1,0 0,0 0,1 0,0 0,0 0,0 0,0 0,0 0,-1 0,-1 0,-1 0,-1 0,-2 0,0 0,-1 0,-1l0 0 0 0 0 0c0,1 0,2 0,3z"/>
    <path class="fil4 str2" d="M38 32c0,0 0,0 1,0 0,0 0,0 1,0 0,0 0,0 -1,1 0,0 -1,0 -1,0 -1,0 -1,-1 -2,-1 1,0 1,0 2,0z"/>
    <path class="fil4 str2" d="M44 30c0,0 1,0 1,0 1,0 1,0 1,-1 0,0 1,1 1,1 -1,0 -1,0 -2,0 0,0 -1,0 -1,0 0,0 -1,1 -1,0 0,0 0,0 0,0 0,0 1,0 1,0z"/>
    <path class="fil4 str6" d="M45 32c0,0 0,0 -1,0 0,0 0,1 1,1 0,0 0,0 0,0 0,-1 0,-1 0,-1z"/>
    <path class="fil4 str7" d="M38 32c0,0 0,0 0,0 0,0 0,1 0,1 0,0 0,0 1,0 0,-1 0,-1 -1,-1z"/>
    <path class="fil4 str2" d="M47 31c0,0 0,0 0,0 0,0 0,1 0,1 0,1 0,1 0,2 0,0 0,0 0,0 0,-1 0,-2 0,-2 1,0 1,-1 0,-1z"/>
    <path class="fil4 str2" d="M19 73c0,-1 -1,-2 -1,-2 -2,0 -3,1 -3,3 1,1 2,1 4,1 0,0 1,0 1,0 0,3 0,7 0,10 0,4 0,8 0,12 0,0 0,0 0,0 1,1 1,1 1,2 1,1 1,1 1,2 1,0 1,0 1,0 0,0 0,0 0,0l0 0c0,-1 1,-1 1,-2 1,-1 1,-1 1,-2 0,0 0,0 0,0 0,-1 1,-2 0,-2 0,0 1,0 1,0 0,-3 0,-6 0,-9 0,-3 0,-5 0,-7 0,0 0,1 0,1 1,0 1,0 1,0 0,1 0,1 0,1 0,0 1,0 1,0 -1,1 -1,1 0,2 0,0 1,1 1,1 1,0 1,-1 1,-1 0,0 0,1 0,1 0,3 0,5 1,7 -1,0 -1,0 -1,0 0,0 0,0 0,0l0 0c0,0 0,0 0,0 0,0 0,1 0,1l0 0c0,0 0,0 0,0 0,0 0,0 0,0 0,0 0,0 0,1 0,0 0,0 0,0l0 0c0,0 0,0 0,0 0,0 0,1 0,1 -1,1 -1,1 -1,2 -1,1 -1,2 -2,4l0 0c0,0 0,0 0,0 1,-1 2,-1 4,-1 1,1 1,2 2,4l0 0 0 0c0,0 0,0 0,0 1,-2 2,-3 3,-3 1,0 2,1 3,2 0,0 0,0 0,0 0,0 0,1 0,1 0,0 0,0 0,-1 1,-1 2,-2 4,-2 1,0 2,1 3,2l0 0c0,0 0,0 0,0 0,0 0,-1 0,-1 0,-1 1,-2 2,-2 0,-1 2,-1 3,0l0 0 0 0c0,-1 0,-1 0,-2 0,0 -1,-1 -1,-1 0,-1 -1,-2 -1,-2 0,0 -1,-1 -1,-1 0,0 0,-1 0,-1 0,0 0,0 0,0l0 0c0,0 0,-1 0,-1 0,0 0,0 0,0 0,0 0,0 0,-1 0,0 0,0 0,0 0,-1 0,-2 0,-3 0,-1 0,-2 0,-3 0,0 1,0 1,0 1,1 1,1 2,0 0,-1 1,-2 1,-3 0,0 0,0 0,0 1,-1 2,-2 3,-3 1,-1 2,-2 3,-3 0,0 0,0 0,0 0,0 0,0 0,0 -1,-1 -1,-1 -2,-1 0,-1 0,-1 0,-1 1,0 1,0 1,-1 0,0 0,0 0,0 1,-1 1,-1 2,-2 0,0 1,-1 1,-2 0,0 0,0 1,-1 0,0 0,0 0,0 -2,-1 -4,-3 -4,-5 -1,0 -1,0 -1,-1 0,0 0,0 0,0l0 0c0,0 0,0 0,0 -1,1 -2,1 -3,1 -2,1 -5,1 -7,1 -1,0 -1,-1 -2,-1l0 0c-1,0 -1,0 -1,0 -1,0 -2,0 -2,-1 -1,0 -1,0 -2,0 0,0 0,0 -1,0 0,0 0,0 0,0 0,0 0,0 0,0 -1,0 -1,0 -1,0 0,0 0,0 0,0 -1,-1 -2,-1 -2,-1 0,0 -1,0 -1,0 -1,-1 -3,-1 -4,-2 -2,-1 -3,-1 -5,-2l0 0c0,0 0,0 0,0 -1,-1 -2,-1 -3,0 -2,1 -2,3 -2,5 0,1 0,1 0,2 -1,1 -1,2 -2,2 0,2 -1,3 -2,4 0,0 0,0 0,0 1,0 1,1 2,1 0,1 1,2 1,3 0,0 0,0 0,0z"/>
    <path class="fil4 str2" d="M25 96c0,0 -1,-1 -1,-1 0,-1 -1,-1 -1,-2 0,-3 0,-6 0,-9 0,-1 0,-3 0,-5 0,-1 0,-3 0,-4 1,0 1,0 2,0 0,3 0,7 0,10 0,4 0,8 0,11l0 0z"/>
    <path class="fil4 str2" d="M27 80c0,0 0,0 0,0 -1,-1 -1,-1 -1,-1 0,-2 0,-3 -1,-4 1,0 1,0 1,0 0,0 0,0 0,0 0,1 0,2 1,2 1,0 1,0 1,0 1,0 1,0 1,0 0,0 0,1 0,1 0,0 0,0 0,0 0,0 0,1 0,1 -1,0 -2,1 -2,1z"/>
    <path class="fil4 str2" d="M26 77c0,0 0,1 0,2 0,0 0,0 1,1 0,0 0,0 0,0 0,0 1,0 1,-1 -1,-1 -1,-2 -2,-2z"/>
    <path class="fil4 str2" d="M30 83c0,1 0,1 0,1 -1,0 -1,0 -1,-1 -1,0 -2,-1 -1,-2 1,0 1,0 2,0 0,0 0,0 0,0 0,0 0,0 0,1 0,0 0,0 0,0 0,0 0,0 0,1 -1,0 -1,-1 -1,-1 0,0 0,0 0,0 0,0 0,0 0,0 -1,0 0,2 1,1 0,0 0,-1 0,-1 0,0 0,0 0,0 0,0 0,1 0,1 0,0 0,0 0,0z"/>
    <path class="fil4 str2" d="M30 79c0,0 0,0 0,1 0,0 0,-1 0,-1 -1,0 -1,0 -1,1 -1,0 -1,0 -1,1 0,0 0,0 0,0 0,-1 0,-1 1,-1 0,0 1,0 1,0 0,0 0,1 0,1 0,0 0,-1 -1,-1 0,0 -1,1 -1,1l0 0c0,0 0,-1 0,-1 0,-1 1,-1 1,-1 0,0 0,0 0,0 0,0 1,0 1,0l0 0 0 0 0 0c0,0 -1,0 -1,0 0,0 0,0 0,0l0 -1c0,0 1,0 1,0 0,-1 0,-1 1,-1 -1,0 -1,1 -1,2z"/>
    <path class="fil4 str2" d="M33 75c0,0 0,0 0,-1 0,1 0,2 0,2l0 0c0,0 0,-1 1,-1 0,-1 0,-1 1,-2 0,1 0,1 0,1 0,1 0,2 0,2 0,1 -1,1 -1,2l0 0c0,-1 1,-1 1,-2 0,0 0,0 0,-1 0,0 0,-1 0,-1 0,-1 0,-1 1,-1 0,0 -1,0 -1,0 0,0 0,1 1,1 0,1 0,1 0,2 0,0 0,0 0,0 0,0 0,-1 0,-2 0,0 0,0 0,-1 0,0 0,-1 1,-1 0,0 -1,0 -1,0 0,2 1,3 1,5l0 0c0,-1 0,-2 0,-3 0,0 0,-1 0,-1 0,-1 0,-1 1,-2 -1,1 0,2 0,2 0,1 0,1 1,2 0,1 0,1 0,2l0 0c0,-1 0,-1 0,-1 0,-1 0,-1 0,-1 0,-1 -1,-2 -1,-2 0,-1 0,-2 0,-2 1,0 1,0 2,0 0,1 0,1 0,2 0,-1 0,-1 0,-1 0,0 0,0 0,0 -1,-1 -1,0 -1,1 0,0 1,1 1,1 1,1 0,2 0,3l0 0c0,-1 1,-2 0,-3 0,0 0,0 0,0 1,0 1,1 1,1 0,0 0,1 0,1l0 0 0 0 0 0c0,-1 0,-1 0,-2 0,0 0,0 0,0 0,0 0,0 0,0 0,0 0,0 1,0 0,1 0,1 1,1 0,0 0,0 0,0 -1,0 -1,1 -2,2 0,0 0,1 0,1 0,0 0,0 0,0 0,0 -1,0 -1,0 0,-1 0,-1 -1,-1 0,0 -1,0 -1,0 -1,0 -1,0 -2,0 -1,0 -1,1 -1,1 0,0 -1,0 -1,0 0,0 0,0 0,0 0,0 0,0 0,0 0,-1 -1,-1 -1,-2 0,0 -1,0 -1,0 0,0 0,-1 1,-1z"/>
    <path class="fil4 str2" d="M43 80l0 0c0,0 0,0 0,-1 0,0 0,0 0,0 0,0 0,0 0,-1 0,2 0,3 0,4 0,-1 0,-2 -1,-2 0,0 0,-1 0,-1 0,0 1,0 1,0l0 0c0,0 0,1 0,1z"/>
    <path class="fil4 str2" d="M42 81c-1,0 -1,0 -1,0 -1,0 -1,0 -1,0 0,0 0,0 0,0l0 0c1,0 1,-1 1,-1 0,0 -1,0 -1,0 0,0 0,0 0,0 0,0 -1,1 -1,1 0,1 -1,0 -1,0 0,0 0,0 0,0 0,0 1,0 1,0 0,-1 0,-2 0,-2 0,0 1,-1 1,-1 0,0 0,0 1,0 0,0 0,0 0,1 0,0 0,0 0,0 0,0 0,0 0,0 1,0 1,1 1,2z"/>
    <path class="fil4 str2" d="M34 81l0 0c0,0 0,0 0,0 0,0 1,0 0,0 0,0 -1,0 -1,0 0,-1 0,-2 1,-2 0,-1 0,-1 0,-1 0,0 1,0 1,0 0,0 0,1 0,1 1,0 1,1 1,2 0,0 1,0 1,0 0,0 0,0 0,0 -1,0 -1,1 -2,0 0,0 0,-1 0,-1 0,0 0,0 0,0 -1,0 -1,0 -1,0 0,0 0,1 0,1z"/>
    <path class="fil4 str2" d="M33 80c0,0 0,0 0,0 0,1 -1,1 -1,1 0,0 0,-1 0,-1 0,0 0,-1 0,-1 0,0 1,0 1,0 0,0 0,1 0,1z"/>
    <path class="fil4 str2" d="M32 77c1,0 2,0 1,1 0,1 0,1 0,1 -1,0 -1,-1 -1,-1 0,0 0,0 0,0 0,0 0,0 1,0 0,0 0,0 0,0l0 0c0,0 0,0 0,0 0,0 -1,-1 -1,-1 0,0 0,1 0,1 0,0 0,0 0,0l0 0c0,1 0,2 0,2l0 0c0,0 0,-1 0,-1 0,0 0,0 0,0 0,1 0,2 0,2 0,0 0,1 0,1 0,1 0,2 0,4 0,0 0,1 0,1 0,0 0,1 0,1 0,0 0,0 0,1 0,0 0,1 0,2 0,0 -1,0 -1,0 0,-3 0,-5 0,-8 0,0 0,0 0,0 0,3 0,5 0,8 0,0 0,0 0,0l0 0c0,0 0,0 0,0 0,-2 0,-4 0,-6 0,-2 0,-3 0,-4 0,-1 0,-2 0,-3 0,0 0,0 0,0 0,0 0,0 0,-1 0,0 1,-1 1,0z"/>
    <path class="fil4 str2" d="M49 94c0,0 0,1 1,2 0,0 0,1 1,1 0,1 0,1 0,1 -1,0 -2,0 -3,0 -2,1 -2,2 -2,4 -1,-2 -2,-3 -4,-2 -1,0 -2,1 -3,2 0,-1 -2,-2 -3,-2 -1,0 -3,1 -3,2 0,-1 -1,-2 -2,-3 -1,0 -3,0 -4,0 1,0 1,-1 2,-3 0,-1 1,-2 1,-3l0 0 0 0c1,0 1,1 2,1 1,0 1,0 2,0 2,0 4,0 5,0 2,0 4,0 5,0 1,0 2,0 3,-1 0,0 0,0 1,0 0,0 0,0 0,0 0,0 0,0 0,0 0,0 1,0 1,1z"/>
    <path class="fil4 str2" d="M31 92c0,0 0,0 1,0 1,0 1,0 2,1 2,0 4,0 5,0 2,0 4,0 5,-1 1,0 2,0 3,0 0,0 1,0 1,-1 0,0 0,0 0,0 0,0 0,0 0,0 0,0 0,0 0,1 0,0 0,0 0,0 0,0 0,0 0,0l0 0c-1,1 -1,1 -2,1 -1,0 -1,0 -2,0 -2,1 -3,1 -5,1 -3,0 -6,-1 -8,-1l0 0c0,0 0,0 -1,0 0,-1 1,-1 1,-1z"/>
    <path class="fil4 str2" d="M48 91c0,0 0,0 0,0 -1,1 -1,1 -2,1 -1,0 -1,0 -2,0 -2,1 -3,1 -5,1 -3,0 -6,-1 -9,-2 0,0 0,0 0,0 0,0 0,0 0,0 1,0 1,0 2,1 1,0 1,0 2,0 2,0 4,0 5,0 2,0 4,0 5,0 1,0 2,0 3,-1 0,0 1,0 1,0 0,0 0,0 0,0z"/>
    <path class="fil4 str2" d="M46 91c0,-2 0,-5 0,-7 0,0 0,0 0,0 0,2 0,5 0,7 0,0 0,0 0,0 1,0 1,0 2,0l0 0c0,0 0,0 0,0 0,-2 0,-3 0,-4 0,-1 0,-2 0,-4 0,0 0,0 0,-1 1,0 1,-1 2,0 0,0 1,1 0,1 -1,0 -1,0 -1,0l0 0c0,0 1,0 1,-1 0,0 -1,0 -1,0 -1,0 -1,1 -1,1 0,1 1,1 1,1 1,1 2,0 2,-1 0,0 1,-1 1,-2l0 0 0 0c0,0 0,0 0,0l0 0c-1,0 -1,-1 -1,-1 -1,0 -1,0 -2,0 0,0 0,0 -1,0 0,0 0,0 0,0 0,0 0,0 0,0l1 0c-1,0 -1,0 -1,-1 0,0 0,-1 0,-1 0,0 1,0 1,0 0,0 0,0 0,0 0,0 0,1 0,1l0 0c0,0 0,-1 0,-1 0,0 0,0 0,0 -1,0 -1,0 -1,1 0,0 0,1 1,1 0,-1 0,-1 1,-1 0,0 0,0 0,0 0,0 0,0 0,0 0,0 0,-1 0,-1 -1,-1 -1,-1 -1,-1 -1,0 -1,0 -2,1 0,3 0,7 0,11l0 0c0,-4 0,-8 0,-12 0,0 -1,-1 -1,-1 0,0 -1,0 -1,0 0,0 0,0 1,1 0,1 0,2 0,2l0 0c0,-1 0,-2 -1,-3 -1,0 -2,-1 -3,0 -1,0 -1,1 -1,2 0,0 1,1 1,1 1,0 2,-1 1,-2 0,0 0,0 -1,0 0,0 0,1 0,1 0,0 0,0 0,0 0,0 -1,0 0,-1 0,0 1,0 1,0 0,0 1,1 1,1 0,2 0,4 0,7 0,2 0,4 0,7 0,0 0,0 0,0 1,0 1,0 2,-1z"/>
    <path class="fil4 str2" d="M32 87c1,-1 1,-1 2,-1 0,0 1,0 1,0 1,0 1,0 1,0 -1,0 -1,0 -1,1 -1,0 -1,0 -1,0 -1,0 -1,0 -2,0z"/>
    <path class="fil4 str2" d="M47 68c0,0 0,0 1,1 0,1 1,1 2,2 0,0 -1,0 -1,0 0,0 -1,0 -1,0 -1,1 -2,2 -2,2 0,0 0,0 0,0 -1,0 -1,-1 -2,-2 0,0 0,0 0,-1 0,0 -1,0 -1,-1 0,0 0,0 0,0 1,-1 2,-2 4,-1z"/>
    <path class="fil4 str2" d="M58 75c-2,2 -4,4 -6,6 -1,-1 -1,-1 -2,-1 0,-1 0,-1 0,-1 0,0 0,0 1,-1 0,0 -1,0 -1,-1 0,0 -1,0 -1,0 1,-1 2,-2 4,-2 0,0 0,-1 1,-1 0,0 0,0 0,0 1,0 1,0 1,0 1,0 1,0 2,0 0,1 1,1 1,1z"/>
    <path class="fil4 str2" d="M60 67c0,0 0,0 0,0 0,1 0,1 0,1 -1,1 -1,2 -2,2 0,1 -1,1 -1,2 0,0 0,1 -1,1 0,0 0,0 0,0 0,0 0,0 0,1 -1,-1 -1,-1 -1,-1 -1,-1 -2,-1 -3,-2 0,-2 2,-3 3,-4 1,0 2,0 3,0 1,0 1,0 2,0 0,0 0,0 0,0z"/>
    <path class="fil4 str2" d="M55 70c-1,1 -1,1 -2,2 1,0 1,0 2,1 0,0 0,0 1,1 0,-1 0,-1 0,-1 0,0 0,0 0,0 1,0 1,-1 1,-1 0,-1 1,-1 1,-2 1,0 1,-1 2,-2 -2,0 -4,1 -5,2z"/>
    <path class="fil4 str2" d="M44 62c0,1 0,2 1,2 0,1 1,2 2,2 1,2 2,3 3,4 2,1 3,2 5,3 0,0 1,1 1,1 0,0 -1,0 -1,0 -1,0 -1,0 -1,0 -1,0 -1,0 -1,0 0,0 0,-1 0,-1 -1,0 -2,-1 -2,-1 -1,-1 -2,-3 -3,-4 -2,-2 -3,-4 -5,-6 0,0 0,0 1,0z"/>
    <path class="fil4 str2" d="M39 61c1,0 1,1 1,1 1,0 2,0 3,0 0,1 0,1 1,2 -1,-1 -2,-1 -2,-1 -1,0 -1,1 -1,1 -1,0 -1,0 -1,1 0,-1 0,-2 0,-2 -1,-1 -1,-1 -1,-2 0,0 0,0 0,0z"/>
    <path class="fil4 str2" d="M39 61c0,1 0,1 0,1 1,1 1,2 1,3 1,1 2,3 3,4 1,2 2,3 2,4 1,1 1,2 2,2 0,1 1,1 1,2 0,0 0,0 0,0 0,0 -1,0 -1,0 0,0 0,0 0,0 0,0 0,0 0,0l0 0c0,0 0,-1 -1,-1 0,0 0,0 0,0 0,0 0,0 0,-1 0,0 -1,0 -1,0 0,-1 -1,-1 -1,-2 -1,-1 -2,-3 -2,-4 -1,-1 -2,-2 -2,-4 -1,0 -1,-1 -1,-2 0,-1 -1,-1 -1,-2 0,0 1,0 1,0z"/>
    <path class="fil4 str2" d="M37 61c0,0 1,0 1,0l0 0c0,1 -1,1 -1,2 0,1 0,2 -1,3 0,1 -1,3 -2,4 0,1 -1,3 -2,4 -1,1 -1,2 -2,3 0,0 -1,0 -1,1l0 0c0,0 0,-1 0,-1 0,0 0,0 0,0 0,0 0,-1 0,-1 1,0 1,0 1,-1 0,0 0,0 0,-1 1,0 1,-1 2,-2 1,-1 1,-3 2,-4 1,-2 2,-5 3,-7z"/>
    <path class="fil4 str2" d="M27 68c0,1 -1,1 -1,2 0,0 0,0 0,0 0,1 0,1 0,1 0,0 0,0 0,0 -1,0 -1,0 -1,0 -1,-1 0,-2 0,-2 0,-1 0,-1 0,-2 0,0 0,-1 0,-2 0,0 0,0 0,0 0,0 0,0 0,0l0 0c0,-1 0,-1 0,-2 0,1 1,1 1,1 1,1 1,2 1,2 0,1 0,2 0,2z"/>
    <path class="fil4 str2" d="M27 63c0,0 0,-1 1,-1 0,-1 0,-1 0,-1 0,0 0,-1 0,0 1,0 1,0 2,0 0,1 1,1 1,1 0,0 1,0 1,0l0 0 0 0c0,1 -1,1 -1,1 -1,1 -2,2 -2,2 -1,1 -2,1 -2,1 0,0 0,-1 0,-1 0,-1 0,-1 0,-2z"/>
    <path class="fil4 str2" d="M32 67c1,0 1,0 1,0 0,0 0,1 1,1 0,0 0,0 0,1 -1,1 -2,2 -2,3 0,-1 -1,-2 -2,-3 -1,0 -2,0 -3,0 0,0 0,0 0,0 0,-1 0,-1 0,-1 1,0 1,0 1,0 0,-1 1,-1 1,-2 1,0 1,0 1,0 1,0 1,0 2,1z"/>
    <path class="fil4 str2" d="M22 64c1,0 1,0 2,1 0,0 0,0 0,0 0,0 1,0 1,0 0,0 0,0 0,1l0 0 0 0c-1,0 -1,0 -1,0 -1,0 -1,0 -2,0 0,0 -1,0 -1,0 0,0 -1,0 -1,0 0,-1 0,-1 0,-1 1,-1 2,-1 2,-1z"/>
    <path class="fil4 str2" d="M21 66c1,0 1,0 2,0 0,0 1,0 1,0 0,0 1,0 1,0 0,1 0,1 0,1 0,0 -1,0 -1,0 0,0 -1,0 -2,0 0,0 -1,0 -1,0 0,0 -1,0 -1,0l0 0c0,0 0,0 0,0 0,0 0,-1 0,-1 0,0 1,0 1,0z"/>
    <path class="fil4 str2" d="M20 67c0,0 1,0 1,0 1,0 1,0 2,0 0,0 1,0 1,0 1,0 1,1 1,1 0,0 0,0 0,1 -1,-1 -1,-1 -1,-1 0,0 -1,1 -1,0 -1,0 -2,1 -2,0 -1,0 -1,0 -1,1 0,-1 -1,-2 0,-2z"/>
    <path class="fil4 str2" d="M20 69c1,-1 2,0 2,0 1,0 1,0 2,0 0,0 1,0 1,0 0,0 0,1 0,1 -1,0 -1,0 -1,0 0,0 -1,0 -1,0 -1,0 -3,0 -3,-1z"/>
    <path class="fil4 str2" d="M21 70c0,0 0,0 1,0 0,0 1,0 2,0 0,0 0,0 0,0 0,0 0,1 0,1 0,0 0,0 0,0 0,0 0,1 0,1 0,0 0,0 0,0 0,0 -1,0 -1,0 -1,0 -1,0 -2,0 0,-1 0,-1 0,-2 0,0 0,0 0,0z"/>
    <path class="fil4 str2" d="M23 72c1,0 1,0 2,0 0,0 0,0 1,0l0 0c0,0 0,0 0,0 0,0 0,0 0,0 0,0 0,0 0,1 -1,-1 -2,-1 -3,-1 0,0 -1,0 -2,0 0,0 -1,0 -1,0 0,0 0,0 0,0l0 0c0,0 1,0 1,0 1,0 1,0 2,0z"/>
    <path class="fil4 str2" d="M35 60c0,0 1,1 2,1 0,1 -1,2 -1,2 0,1 0,1 0,1 0,0 -1,-1 -1,-1 -1,0 -2,-1 -2,0 1,-1 1,-2 2,-3z"/>
    <path class="fil4 str2" d="M34 60c0,0 0,0 1,0 -1,0 -1,0 -1,1 -1,1 -1,2 -2,3 -1,1 -2,2 -3,3 -1,0 -1,1 -2,1 0,0 0,0 0,0 0,0 0,-1 0,-1 0,0 0,0 0,0 1,-1 1,-1 2,-2 0,0 1,-1 2,-1 0,-1 1,-2 2,-2 0,-1 0,-2 1,-2 0,0 0,0 0,0z"/>
    <path class="fil4 str2" d="M27 57c1,0 1,1 2,1 2,1 3,1 5,2 -1,0 -1,1 -1,1 -1,1 -1,1 -1,1 -1,0 -1,-1 -2,-1 -1,0 -1,-1 -2,-1 0,0 0,1 0,1 -1,1 -1,2 -1,2 0,0 0,-1 0,-2 -1,-1 -1,-2 -1,-3 0,-1 0,-1 -1,-2 1,1 1,1 2,1z"/>
    <path class="fil4 str2" d="M19 66c0,-1 0,-1 0,-2 1,0 1,0 1,-1 0,1 0,2 0,2 0,0 0,1 0,1 0,0 0,0 0,0 0,0 -1,1 0,1 0,0 0,0 0,0 0,0 0,0 0,1 -1,-1 -2,-1 -2,0 0,0 -1,0 -1,0 1,-1 1,-2 2,-2z"/>
    <path class="fil4 str2" d="M18 70c0,0 -1,-1 -2,-1 1,-1 1,-1 2,-1 0,0 0,0 1,0 0,0 0,0 1,0 0,0 0,0 0,1 0,0 0,0 0,0 0,0 0,0 0,0 0,0 0,1 0,1 0,0 1,0 1,0 0,0 0,0 0,0 0,1 0,1 0,2 0,0 0,0 0,0 0,0 -1,0 -1,0 0,0 0,0 0,0 0,0 0,0 0,0 -1,0 -1,0 -1,0 0,0 0,-1 -1,-2z"/>
    <path class="fil4 str2" d="M21 72c0,-1 0,-1 0,-2 0,0 0,0 0,0 0,0 0,0 0,0 0,1 0,1 0,2z"/>
    <path class="fil4 str2" d="M20 70c0,0 0,0 0,0 0,0 0,0 0,-1 0,0 -1,0 -1,0 0,-1 -1,-1 -1,-1 0,0 0,0 0,0 -1,0 -1,0 -2,1 1,0 2,1 2,1 1,1 1,2 1,2 0,0 0,0 1,0 0,0 0,0 0,0 0,0 0,0 0,0 0,0 1,0 1,0 0,-1 0,-1 -1,-2z"/>
    <path class="fil4 str2" d="M19 68c0,1 1,1 1,1 0,0 0,0 0,0 0,-1 0,-1 0,-1 -1,0 -1,0 -1,0 0,0 -1,0 -1,0 1,0 1,0 1,0z"/>
    <path class="fil4 str2" d="M32 85c0,-2 0,-4 0,-6 0,0 0,0 0,0 -1,2 -1,4 0,6l0 0z"/>
    <path class="fil4 str8" d="M31 98c0,0 0,0 1,1 0,0 0,0 0,0l0 0 0 0 0 0c0,0 0,0 0,0 0,-1 1,-1 1,-1 1,0 1,-1 1,-1l0 0c0,0 1,0 1,0 -1,-1 -1,-1 -1,-1 0,-1 0,-1 0,-1l0 0c-1,0 -1,0 -1,-1 0,0 0,0 0,0 -1,1 -1,1 -1,1 -1,0 -1,1 -2,1 0,0 0,0 0,0 0,1 1,1 1,2zm1 -3c0,0 0,0 1,0 -1,0 -1,1 -1,2 0,0 0,-1 0,-1 -1,0 -1,0 -2,0l0 0c1,0 1,0 2,-1z"/>
    <path class="fil4 str2" d="M34 97c0,0 0,0 -1,1 0,0 -1,0 -1,1 0,0 0,-1 0,-1 0,0 0,-1 0,-1 0,0 0,0 0,0 1,0 2,0 2,0l0 0c0,0 0,0 0,0z"/>
    <path class="fil4 str2" d="M34 97c0,0 -1,0 -2,0 0,-1 1,-2 1,-2 0,0 1,1 1,2z"/>
    <path class="fil4 str9" d="M48 96c0,0 0,-1 -1,-1 0,0 0,0 -1,0 0,0 -1,0 -1,-1 0,0 0,0 0,0 0,1 -1,1 -1,1l0 0c0,0 0,1 0,1 0,0 0,1 -1,1 0,0 1,0 1,0l0 0c0,0 0,1 1,1 0,0 1,0 1,0 0,1 1,1 1,1l0 0 0 0 0 0c0,-1 0,-1 0,-1 0,0 0,0 0,-1 0,0 1,-1 1,-1zm-3 -1c0,0 0,1 1,1 -1,1 -2,1 -2,1 0,-1 0,-2 1,-2z"/>
    <path class="fil4 str2" d="M47 98c-1,0 -1,-1 -1,-1 0,-1 0,-1 0,-1 0,0 1,0 2,0 -1,1 -1,2 -1,2z"/>
    <path class="fil4 str2" d="M48 96l0 0c-1,0 -1,0 -2,0 0,0 0,0 0,0 0,0 -1,-1 -1,-1 0,0 1,0 1,0 1,0 1,0 2,1z"/>
    <path class="fil4 str10" d="M38 99c0,0 0,0 1,0 0,0 0,0 0,1l0 0 0 0 0 0c0,0 0,-1 0,-1 0,0 1,0 1,-1 1,0 1,0 1,-1l0 0c0,0 0,0 0,0 0,0 -1,-1 -1,-1 0,0 0,0 0,0l0 0c0,-1 -1,-1 -1,-1 0,0 0,0 0,0 -1,0 -1,1 -1,1 0,0 -1,1 -1,1 0,0 0,0 -1,0 1,1 1,1 2,2zm0 -3c0,0 0,0 1,-1 0,1 0,2 0,2 0,0 0,0 -1,0 0,0 -1,0 -1,0l0 0c0,0 1,0 1,-1z"/>
    <path class="fil4 str2" d="M41 97c0,0 -1,1 -1,1 0,0 -1,1 -1,1 0,0 0,0 0,0 0,-1 0,-1 0,-2 0,0 0,0 0,0 1,0 1,0 2,0l0 0c0,0 0,0 0,0z"/>
    <path class="fil4 str2" d="M41 97c-1,0 -1,0 -2,0 0,0 0,-1 0,-2 1,1 1,1 2,2z"/>
    <path class="fil4 str2" d="M44 77c0,0 0,0 0,0 1,1 1,3 1,4 0,1 0,2 0,3 0,1 0,1 0,2 0,1 0,3 0,5l0 0c0,-2 0,-4 0,-5 0,-2 0,-4 0,-6 0,-1 0,-2 -1,-3z"/>
    <path class="fil4 str2" d="M48 83c-1,2 0,4 0,6l0 0c0,-2 0,-4 0,-6 0,0 0,0 0,0z"/>
    <path class="fil4 str2" d="M38 80l0 0c0,0 0,0 -1,0 0,0 0,0 0,0 0,0 0,0 0,0 0,0 0,0 -1,0 0,0 0,0 0,0l0 0 0 0c0,0 0,0 0,0l1 0c0,0 1,0 1,0 0,0 0,0 0,0z"/>
    <path class="fil4 str2" d="M36 79c1,0 1,0 1,0 1,0 1,0 1,1l0 0c0,0 0,-1 0,-1l0 0c0,0 -1,0 -2,0 0,0 0,0 0,0z"/>
    <path class="fil4 str2" d="M42 89c0,0 -1,0 -1,-1 0,0 -1,0 -1,0 0,0 -1,0 -1,0 0,0 0,0 0,0 0,0 1,0 1,0 0,0 1,0 1,0 1,0 1,0 2,0 0,0 -1,1 -1,1z"/>
    <path class="fil4 str2" d="M38 85c0,-1 0,-2 1,-2 0,0 -1,0 -1,0 0,0 0,-1 0,-1 0,0 -1,0 -1,0 0,0 0,0 -1,1 0,0 0,0 0,0 0,0 0,0 0,0 1,0 1,0 1,0 0,0 1,0 1,0 0,0 0,0 0,0 0,0 0,0 0,0 0,1 0,1 0,1 0,1 0,2 0,2 0,1 0,1 0,1l0 0 0 0 0 0c0,-1 0,-1 0,-2z"/>
    <path class="fil4 str2" d="M41 87c0,0 0,0 -1,0 0,-1 0,-1 -1,-1 0,0 1,0 1,0 0,0 1,0 1,0 1,0 1,0 2,1 -1,0 -1,0 -2,0z"/>
    <path class="fil4 str2" d="M35 88c0,0 -1,0 -1,0 0,1 -1,1 -1,1 0,0 -1,-1 -1,-1 1,0 1,0 2,0 0,0 1,0 1,0 0,0 1,0 1,0 0,0 0,0 0,0 0,0 0,0 -1,0z"/>
    <path class="fil4 str11" d="M34 87c0,0 0,0 1,-1 0,0 0,0 -1,0 0,0 0,0 0,0 0,0 0,1 0,1z"/>
    <path class="fil4 str12" d="M41 87c0,0 0,0 0,-1 1,0 1,0 0,0 0,0 0,0 0,0 -1,0 0,0 0,1z"/>
   </g>
   <g>
    <polyline class="fil2 str13" points="18,9 70,9 70,81 "/>
    <polyline class="fil2 str13" points="61,109 9,109 9,37 "/>
   </g>
  </g>
 </g>
</svg>
