<?xml version="1.0" encoding="UTF-8"?>
<!DOCTYPE svg PUBLIC "-//W3C//DTD SVG 1.1//EN" "http://www.w3.org/Graphics/SVG/1.1/DTD/svg11.dtd">
<!-- Creator: CorelDRAW X7 -->
<svg xmlns="http://www.w3.org/2000/svg" xml:space="preserve" width="72.4147mm" height="108.327mm" version="1.1" style="shape-rendering:geometricPrecision; text-rendering:geometricPrecision; image-rendering:optimizeQuality; fill-rule:evenodd; clip-rule:evenodd"
viewBox="0 0 92 137"
 xmlns:xlink="http://www.w3.org/1999/xlink">
 <defs>
  <style type="text/css">
   <![CDATA[
    .str1 {stroke:#4DFFFF;stroke-width:0.948957}
    .str0 {stroke:#2B2A29;stroke-width:0.253055}
    .fil2 {fill:none}
    .fil4 {fill:none;fill-rule:nonzero}
    .fil0 {fill:#162632}
    .fil1 {fill:#4DFFFF;fill-rule:nonzero}
    .fil3 {fill:#4DFFFF;fill-rule:nonzero}
   ]]>
  </style>
 </defs>
 <g id="Слой_x0020_1">
  <metadata id="CorelCorpID_0Corel-Layer"/>
  <g id="_2867351700976">
   <g>
    <rect class="fil0" x="1" y="1" width="90.3314" height="135.771" rx="5" ry="5"/>
    <path class="fil1" d="M6 0l80 0c1,0 3,1 4,2 1,1 2,2 2,4l0 125c0,2 -1,3 -2,4 -1,1 -3,2 -4,2l-80 0c-2,0 -3,-1 -4,-2 -1,-1 -2,-2 -2,-4l0 -125c0,-2 1,-3 2,-4 1,-1 2,-2 4,-2zm80 1l-80 0c-1,0 -3,1 -3,2 -1,0 -2,2 -2,3l0 125c0,1 1,3 2,3 0,1 2,2 3,2l80 0c1,0 2,-1 3,-2 1,0 1,-2 1,-3l0 -125c0,-1 0,-3 -1,-3 -1,-1 -2,-2 -3,-2z"/>
    <rect class="fil2 str0" x="37" y="58" width="18.2684" height="20.2063"/>
    <g>
     <path class="fil3" d="M8 15l0 2c0,0 -1,0 -1,0 0,0 0,0 0,0 0,0 0,0 0,0 0,0 0,0 0,0l0 0 3 -9c0,0 0,0 0,0 0,0 0,0 0,0l3 9 0 0c0,0 0,0 0,0 0,0 0,0 0,0 0,0 0,0 0,0 0,0 0,0 -1,0l0 -2 -4 0zm3 -1l-1 -4 -1 4 2 0z"/>
     <path class="fil3" d="M83 122l1 -2c0,0 0,0 0,0 0,0 0,0 1,0 0,0 0,0 0,0 0,0 0,0 0,0l0 0 -3 9c0,0 0,0 0,0 -1,0 -1,0 -1,0l-3 -9 0 0c0,0 0,0 0,0 0,0 1,0 1,0 0,0 0,0 0,0 0,0 0,0 0,0l1 2 3 0zm-3 1l2 4 1 -4 -3 0z"/>
    </g>
    <g>
     <path class="fil4 str1" d="M10 25c1,1 1,1 2,1 1,0 2,-1 2,-1 0,-2 -2,-4 -4,-5 -2,1 -4,3 -4,5 0,0 1,1 2,1 1,0 2,0 2,-1z"/>
     <path class="fil2 str1" d="M10 25c0,1 0,2 -1,3l3 0c-1,-1 -2,-2 -2,-3 0,0 0,0 0,0z"/>
    </g>
    <g>
     <path class="fil4 str1" d="M82 112c0,0 0,-1 1,-1 2,0 2,1 2,2 0,1 -2,3 -3,5 -2,-2 -4,-4 -4,-5 0,-1 0,-2 2,-2 1,0 1,1 2,1z"/>
     <path class="fil2 str1" d="M82 112c0,-1 -1,-2 -2,-3l3 0c-1,1 -1,2 -1,3 0,0 0,0 0,0z"/>
    </g>
    <g>
     <path class="fil4 str1" d="M46 71c1,2 2,3 4,3 3,0 5,-2 5,-4 0,-4 -5,-7 -9,-11 -5,4 -9,7 -9,11 0,2 2,4 4,4 3,0 4,-1 5,-3z"/>
     <path class="fil2 str1" d="M46 72c0,2 -1,5 -3,6l6 0c-2,-1 -3,-3 -3,-6 0,0 0,0 0,0z"/>
    </g>
    <rect class="fil0" x="1" y="1" width="90.3314" height="135.771" rx="5" ry="5"/>
    <path class="fil1" d="M6 0l80 0c1,0 3,1 4,2 1,1 2,2 2,4l0 125c0,2 -1,3 -2,4 -1,1 -3,2 -4,2l-80 0c-2,0 -3,-1 -4,-2 -1,-1 -2,-2 -2,-4l0 -125c0,-2 1,-3 2,-4 1,-1 2,-2 4,-2zm80 1l-80 0c-1,0 -3,1 -3,2 -1,0 -2,2 -2,3l0 125c0,1 1,3 2,3 0,1 2,2 3,2l80 0c1,0 2,-1 3,-2 1,0 1,-2 1,-3l0 -125c0,-1 0,-3 -1,-3 -1,-1 -2,-2 -3,-2z"/>
    <g>
     <path class="fil3" d="M10 11c0,0 1,0 1,-1 0,0 0,0 0,-1 0,0 0,0 0,-1 0,0 -1,0 -1,0 0,0 -1,0 -1,0 0,1 0,1 0,1 0,1 0,1 0,1 0,1 1,1 1,1zm0 1c-1,0 -1,0 -2,0 0,1 0,1 0,2 0,0 0,1 0,1 1,0 1,1 2,1 1,0 1,-1 1,-1 1,0 1,-1 1,-1 0,-1 0,-1 -1,-2 0,0 0,0 -1,0zm2 -1c0,0 0,1 1,1 0,1 0,1 0,2 0,0 0,1 -1,2 0,0 -1,1 -2,1 -1,0 -2,-1 -2,-1 -1,-1 -1,-2 -1,-2 0,-1 0,-1 0,-2 1,0 1,-1 1,-1 0,0 0,0 0,-1 0,0 0,0 0,-1 0,0 0,-1 0,-1 1,-1 1,-1 2,-1 1,0 1,0 2,1 0,0 0,1 0,1 0,1 0,1 0,1 0,1 0,1 0,1z"/>
     <path class="fil3" d="M82 127c-1,0 -1,0 -1,0 -1,0 -1,1 -1,1 0,0 0,1 1,1 0,0 0,1 1,1 0,0 0,-1 1,-1 0,0 0,-1 0,-1 0,0 0,-1 0,-1 -1,0 -1,0 -1,0zm0 -1c0,0 1,-1 1,-1 0,0 1,-1 1,-1 0,-1 -1,-1 -1,-2 0,0 -1,0 -1,0 -1,0 -1,0 -2,0 0,1 0,1 0,2 0,0 0,1 0,1 0,0 1,1 2,1zm-2 0c0,0 -1,0 -1,-1 0,0 0,-1 0,-1 0,-1 0,-2 0,-2 1,-1 2,-1 3,-1 1,0 1,0 2,1 0,0 1,1 1,2 0,0 -1,1 -1,1 0,1 0,1 -1,1 0,0 1,1 1,1 0,0 0,1 0,1 0,1 0,1 -1,2 0,0 -1,1 -1,1 -1,0 -2,-1 -2,-1 -1,-1 -1,-1 -1,-2 0,0 0,-1 0,-1 1,0 1,-1 1,-1z"/>
    </g>
    <g>
     <path class="fil4 str1" d="M10 25c1,1 1,1 2,1 1,0 2,-1 2,-1 0,-2 -2,-4 -4,-5 -2,1 -4,3 -4,5 0,0 1,1 2,1 1,0 2,0 2,-1z"/>
     <path class="fil2 str1" d="M10 25c0,1 0,2 -1,3l3 0c-1,-1 -2,-2 -2,-3 0,0 0,0 0,0z"/>
    </g>
    <g>
     <path class="fil4 str1" d="M82 112c0,0 0,-1 1,-1 2,0 2,1 2,2 0,1 -2,3 -3,5 -2,-2 -4,-4 -4,-5 0,-1 0,-2 2,-2 1,0 1,1 2,1z"/>
     <path class="fil2 str1" d="M82 112c0,-1 -1,-2 -2,-3l3 0c-1,1 -1,2 -1,3 0,0 0,0 0,0z"/>
    </g>
   </g>
   <g>
    <path class="fil4 str1" d="M30 21c0,1 1,2 3,2 2,0 4,-1 4,-3 0,-3 -4,-6 -7,-9 -4,3 -7,6 -7,9 0,2 1,3 3,3 2,0 3,-1 4,-2z"/>
    <path class="fil2 str1" d="M30 22c0,1 -1,3 -3,4l5 0c-2,-1 -2,-2 -2,-4 0,-1 0,-1 0,0z"/>
   </g>
   <g>
    <path class="fil4 str1" d="M30 122c0,1 1,2 3,2 2,0 4,-2 4,-3 0,-3 -4,-6 -7,-9 -4,3 -7,6 -7,9 0,1 1,3 3,3 2,0 3,-1 4,-2z"/>
    <path class="fil2 str1" d="M30 122c0,2 -1,4 -3,5l5 0c-2,-1 -2,-3 -2,-5 0,0 0,0 0,0z"/>
   </g>
   <g>
    <path class="fil4 str1" d="M65 21c0,1 1,2 3,2 2,0 4,-1 4,-3 0,-3 -4,-6 -7,-9 -4,3 -7,6 -7,9 0,2 1,3 3,3 2,0 3,-1 4,-2z"/>
    <path class="fil2 str1" d="M65 22c0,1 -1,3 -3,4l5 0c-2,-1 -2,-2 -2,-4 0,-1 0,-1 0,0z"/>
   </g>
   <g>
    <path class="fil4 str1" d="M65 122c0,1 1,2 3,2 2,0 4,-2 4,-3 0,-3 -4,-6 -7,-9 -4,3 -7,6 -7,9 0,1 1,3 3,3 2,0 3,-1 4,-2z"/>
    <path class="fil2 str1" d="M65 122c0,2 -1,4 -3,5l5 0c-2,-1 -2,-3 -2,-5 0,0 0,0 0,0z"/>
   </g>
   <g>
    <path class="fil4 str1" d="M30 71c0,1 1,2 3,2 2,0 4,-1 4,-3 0,-3 -4,-6 -7,-9 -4,3 -7,6 -7,9 0,2 1,3 3,3 2,0 3,-1 4,-2z"/>
    <path class="fil2 str1" d="M30 71c0,2 -1,4 -3,5l5 0c-2,-1 -2,-3 -2,-5 0,0 0,0 0,0z"/>
   </g>
   <g>
    <path class="fil4 str1" d="M65 71c0,1 1,2 3,2 2,0 4,-1 4,-3 0,-3 -4,-6 -7,-9 -4,3 -7,6 -7,9 0,2 1,3 3,3 2,0 3,-1 4,-2z"/>
    <path class="fil2 str1" d="M65 71c0,2 -1,4 -3,5l5 0c-2,-1 -2,-3 -2,-5 0,0 0,0 0,0z"/>
   </g>
   <g>
    <path class="fil4 str1" d="M47 46c1,1 2,2 4,2 2,0 3,-1 3,-3 0,-3 -3,-6 -7,-9 -3,3 -7,6 -7,9 0,2 2,3 4,3 2,0 3,-1 3,-2z"/>
    <path class="fil2 str1" d="M47 47c1,1 0,3 -2,4l5 0c-2,-1 -3,-2 -3,-4 0,-1 0,-1 0,0z"/>
   </g>
   <g>
    <path class="fil4 str1" d="M47 98c1,1 2,2 4,2 2,0 3,-2 3,-3 0,-3 -3,-6 -7,-9 -3,3 -7,6 -7,9 0,1 2,3 4,3 2,0 3,-1 3,-2z"/>
    <path class="fil2 str1" d="M47 98c1,2 0,4 -2,5l5 0c-2,-1 -3,-3 -3,-5 0,0 0,0 0,0z"/>
   </g>
  </g>
 </g>
</svg>
