<?xml version="1.0" encoding="UTF-8"?>
<!DOCTYPE svg PUBLIC "-//W3C//DTD SVG 1.1//EN" "http://www.w3.org/Graphics/SVG/1.1/DTD/svg11.dtd">
<!-- Creator: CorelDRAW X7 -->
<svg xmlns="http://www.w3.org/2000/svg" xml:space="preserve" width="72.4147mm" height="108.327mm" version="1.1" style="shape-rendering:geometricPrecision; text-rendering:geometricPrecision; image-rendering:optimizeQuality; fill-rule:evenodd; clip-rule:evenodd"
viewBox="0 0 86 129"
 xmlns:xlink="http://www.w3.org/1999/xlink">
 <defs>
  <style type="text/css">
   <![CDATA[
    .str1 {stroke:#4DFFFF;stroke-width:0.892514}
    .str0 {stroke:#2B2A29;stroke-width:0.238004}
    .fil2 {fill:none}
    .fil4 {fill:none;fill-rule:nonzero}
    .fil0 {fill:#162632}
    .fil1 {fill:#4DFFFF;fill-rule:nonzero}
    .fil3 {fill:#4DFFFF;fill-rule:nonzero}
   ]]>
  </style>
 </defs>
 <g id="Слой_x0020_1">
  <metadata id="CorelCorpID_0Corel-Layer"/>
  <g id="_2867376594976">
   <g>
    <rect class="fil0" x="1" y="1" width="84.9586" height="127.695" rx="5" ry="5"/>
    <path class="fil1" d="M5 0l76 0c1,0 3,1 4,2 1,1 1,2 1,3l0 118c0,2 0,3 -1,4 -1,1 -3,2 -4,2l-76 0c-1,0 -2,-1 -3,-2 -1,-1 -2,-2 -2,-4l0 -118c0,-1 1,-2 2,-3 1,-1 2,-2 3,-2zm76 1l-76 0c-1,0 -2,1 -3,1 0,1 -1,2 -1,3l0 118c0,2 1,3 1,3 1,1 2,2 3,2l76 0c1,0 2,-1 3,-2 0,0 1,-1 1,-3l0 -118c0,-1 -1,-2 -1,-3 -1,0 -2,-1 -3,-1z"/>
    <rect class="fil2 str0" x="34" y="55" width="17.1818" height="19.0045"/>
    <g>
     <path class="fil3" d="M8 14l-1 2c0,0 0,0 0,0 0,0 0,0 0,0 0,0 -1,0 -1,0 0,0 0,0 0,0l0 0 3 -8c0,-1 0,-1 0,-1 1,0 1,0 1,1l3 8 0 0c0,0 0,0 -1,0 0,0 0,0 0,0 0,0 0,0 0,0 0,0 0,0 0,0l-1 -2 -3 0zm3 -1l-2 -4 -1 4 3 0z"/>
     <path class="fil3" d="M78 115l1 -2c0,0 0,0 0,0 0,0 0,-1 1,-1 0,0 0,1 0,1 0,0 0,0 0,0l0 0 -3 8c0,1 0,1 0,1 0,0 -1,0 -1,-1l-2 -8 0 0c0,0 0,0 0,0 0,0 0,-1 0,-1 0,0 0,0 0,1 0,0 0,0 0,0l1 2 3 0zm-3 1l2 4 1 -4 -3 0z"/>
    </g>
    <g>
     <path class="fil4 str1" d="M10 23c0,1 0,2 1,2 1,0 2,-1 2,-2 0,-1 -2,-3 -3,-5 -2,2 -4,4 -4,5 0,1 1,2 2,2 1,0 1,-1 2,-2z"/>
     <path class="fil2 str1" d="M10 24c0,1 -1,2 -2,2l3 0c-1,0 -1,-1 -1,-2 0,0 0,0 0,0z"/>
    </g>
    <g>
     <path class="fil4 str1" d="M77 106c0,-1 1,-2 2,-2 1,0 1,1 1,2 0,2 -1,3 -3,5 -2,-2 -4,-3 -4,-5 0,-1 1,-2 2,-2 1,0 1,1 2,2z"/>
     <path class="fil2 str1" d="M77 105c0,-1 0,-2 -2,-2l3 0c-1,0 -1,1 -1,2 0,1 0,1 0,0z"/>
    </g>
    <g>
     <path class="fil4 str1" d="M43 67c1,2 2,3 4,3 3,0 5,-2 5,-4 0,-3 -5,-7 -9,-11 -4,4 -8,8 -8,11 0,2 2,4 4,4 2,0 3,-1 4,-3z"/>
     <path class="fil2 str1" d="M43 68c0,2 0,4 -3,6l6 0c-2,-2 -3,-4 -3,-6 0,-1 0,-1 0,0z"/>
    </g>
    <rect class="fil0" x="1" y="1" width="84.9586" height="127.695" rx="5" ry="5"/>
    <path class="fil1" d="M5 0l76 0c1,0 3,1 4,2 1,1 1,2 1,3l0 118c0,2 0,3 -1,4 -1,1 -3,2 -4,2l-76 0c-1,0 -2,-1 -3,-2 -1,-1 -2,-2 -2,-4l0 -118c0,-1 1,-2 2,-3 1,-1 2,-2 3,-2zm76 1l-76 0c-1,0 -2,1 -3,1 0,1 -1,2 -1,3l0 118c0,2 1,3 1,3 1,1 2,2 3,2l76 0c1,0 2,-1 3,-2 0,0 1,-1 1,-3l0 -118c0,-1 -1,-2 -1,-3 -1,0 -2,-1 -3,-1z"/>
    <g>
     <path class="fil3" d="M8 15c0,0 0,0 -1,1 0,0 0,0 0,0 0,0 0,0 0,0 0,-1 0,-1 0,-1l0 -7 -1 1c0,0 -1,0 -1,0 0,0 0,0 0,0 0,0 0,0 0,0 0,0 0,0 0,-1l2 -1c0,0 0,-1 0,-1 0,0 0,0 0,0 0,0 0,0 1,1 0,0 0,0 0,0l0 8z"/>
     <path id="1" class="fil3" d="M14 14c0,0 0,1 -1,1 0,0 0,1 -1,1l-1 0c0,0 -1,-1 -1,-1 0,0 -1,-1 -1,-1l0 -6c0,0 1,-1 1,-1 0,0 1,-1 1,-1l1 0c1,0 1,1 1,1 1,0 1,1 1,1l0 6zm-1 0l0 -6c0,0 0,0 0,0 0,-1 -1,-1 -1,-1l-1 0c0,0 0,0 0,1 -1,0 -1,0 -1,0l0 6c0,0 0,0 1,0 0,1 0,1 0,1l1 0c0,0 1,0 1,-1 0,0 0,0 0,0z"/>
     <path class="fil3" d="M79 114c0,0 0,0 0,0 0,-1 0,-1 0,-1 1,0 1,0 1,1 0,0 0,0 0,0l0 7 1 -1c0,0 0,0 0,0 0,0 0,0 1,0 0,0 0,0 0,0 0,0 0,1 0,1l-2 2c0,0 0,0 0,0 -1,0 -1,0 -1,0 0,0 0,0 0,0 0,-1 0,-1 0,-1l0 -8z"/>
     <path id="1" class="fil3" d="M73 115c0,0 0,-1 0,-1 0,0 1,-1 2,-1l0 0c1,0 1,1 1,1 1,0 1,1 1,1l0 6c0,0 0,1 0,1 -1,0 -1,1 -2,1l0 0c-1,0 -1,-1 -2,-1 0,0 0,-1 0,-1l0 -6zm0 0l0 6c0,0 1,0 1,0 0,1 0,1 1,1l0 0c0,0 1,0 1,-1 0,0 0,0 0,0l0 -6c0,0 0,0 0,0 0,-1 -1,-1 -1,-1l0 0c-1,0 -1,0 -1,1 0,0 -1,0 -1,0z"/>
    </g>
    <g>
     <path class="fil4 str1" d="M10 23c0,1 0,2 1,2 1,0 2,-1 2,-2 0,-1 -2,-3 -3,-5 -2,2 -4,4 -4,5 0,1 1,2 2,2 1,0 1,-1 2,-2z"/>
     <path class="fil2 str1" d="M10 24c0,1 -1,2 -2,2l3 0c-1,0 -1,-1 -1,-2 0,0 0,0 0,0z"/>
    </g>
    <g>
     <path class="fil4 str1" d="M77 106c0,-1 1,-2 2,-2 1,0 1,1 1,2 0,2 -1,3 -3,5 -2,-2 -4,-3 -4,-5 0,-1 1,-2 2,-2 1,0 1,1 2,2z"/>
     <path class="fil2 str1" d="M77 105c0,-1 0,-2 -2,-2l3 0c-1,0 -1,1 -1,2 0,1 0,1 0,0z"/>
    </g>
   </g>
   <g>
    <path class="fil4 str1" d="M28 20c1,1 1,2 3,2 2,0 3,-1 3,-3 0,-3 -3,-6 -6,-8 -3,2 -7,5 -7,8 0,2 2,3 4,3 1,0 2,-1 3,-2z"/>
    <path class="fil2 str1" d="M28 20c0,2 0,4 -3,5l5 0c-2,-1 -2,-3 -2,-5 0,0 0,0 0,0z"/>
   </g>
   <g>
    <path class="fil4 str1" d="M28 114c1,2 1,2 3,2 2,0 3,-1 3,-2 0,-3 -3,-6 -6,-9 -3,3 -7,6 -7,9 0,1 2,2 4,2 1,0 2,0 3,-2z"/>
    <path class="fil2 str1" d="M28 115c0,2 0,3 -3,4l5 0c-2,-1 -2,-2 -2,-4 0,0 0,0 0,0z"/>
   </g>
   <g>
    <path class="fil4 str1" d="M61 20c1,1 1,2 3,2 2,0 3,-1 3,-3 0,-3 -3,-6 -6,-8 -4,2 -7,5 -7,8 0,2 2,3 3,3 2,0 3,-1 4,-2z"/>
    <path class="fil2 str1" d="M61 20c0,2 -1,4 -3,5l5 0c-2,-1 -2,-3 -2,-5 0,0 0,0 0,0z"/>
   </g>
   <g>
    <path class="fil4 str1" d="M61 114c1,2 1,2 3,2 2,0 3,-1 3,-2 0,-3 -3,-6 -6,-9 -4,3 -7,6 -7,9 0,1 2,2 3,2 2,0 3,0 4,-2z"/>
    <path class="fil2 str1" d="M61 115c0,2 -1,3 -3,4l5 0c-2,-1 -2,-2 -2,-4 0,0 0,0 0,0z"/>
   </g>
   <g>
    <path class="fil4 str1" d="M28 83c1,1 1,2 3,2 2,0 3,-1 3,-3 0,-3 -3,-6 -6,-8 -3,2 -7,5 -7,8 0,2 2,3 4,3 1,0 2,-1 3,-2z"/>
    <path class="fil2 str1" d="M28 83c0,2 0,4 -3,5l5 0c-2,-1 -2,-3 -2,-5 0,0 0,0 0,0z"/>
   </g>
   <g>
    <path class="fil4 str1" d="M61 83c1,1 1,2 3,2 2,0 3,-1 3,-3 0,-3 -3,-6 -6,-8 -4,2 -7,5 -7,8 0,2 2,3 3,3 2,0 3,-1 4,-2z"/>
    <path class="fil2 str1" d="M61 83c0,2 -1,4 -3,5l5 0c-2,-1 -2,-3 -2,-5 0,0 0,0 0,0z"/>
   </g>
   <g>
    <path class="fil4 str1" d="M28 51c1,2 1,2 3,2 2,0 3,-1 3,-2 0,-3 -3,-6 -6,-9 -3,3 -7,6 -7,9 0,1 2,2 4,2 1,0 2,0 3,-2z"/>
    <path class="fil2 str1" d="M28 52c0,2 0,3 -3,4l5 0c-2,-1 -2,-2 -2,-4 0,0 0,-1 0,0z"/>
   </g>
   <g>
    <path class="fil4 str1" d="M44 101c1,1 2,2 4,2 1,0 3,-1 3,-3 0,-3 -3,-5 -7,-8 -3,3 -6,5 -6,8 0,2 1,3 3,3 2,0 2,-1 3,-2z"/>
    <path class="fil2 str1" d="M44 102c0,1 0,3 -2,4l5 0c-2,-1 -3,-3 -3,-4 0,-1 0,-1 0,0z"/>
   </g>
   <g>
    <path class="fil4 str1" d="M61 51c1,2 1,2 3,2 2,0 3,-1 3,-2 0,-3 -3,-6 -6,-9 -4,3 -7,6 -7,9 0,1 2,2 3,2 2,0 3,0 4,-2z"/>
    <path class="fil2 str1" d="M61 52c0,2 -1,3 -3,4l5 0c-2,-1 -2,-2 -2,-4 0,0 0,-1 0,0z"/>
   </g>
   <g>
    <path class="fil4 str1" d="M44 37c1,1 2,2 4,2 1,0 3,-1 3,-3 0,-2 -3,-5 -7,-8 -3,3 -6,6 -6,8 0,2 1,3 3,3 2,0 2,-1 3,-2z"/>
    <path class="fil2 str1" d="M44 38c0,1 0,3 -2,4l5 0c-2,-1 -3,-2 -3,-4 0,-1 0,-1 0,0z"/>
   </g>
  </g>
 </g>
</svg>
