<?xml version="1.0" encoding="UTF-8"?>
<!DOCTYPE svg PUBLIC "-//W3C//DTD SVG 1.1//EN" "http://www.w3.org/Graphics/SVG/1.1/DTD/svg11.dtd">
<!-- Creator: CorelDRAW X7 -->
<svg xmlns="http://www.w3.org/2000/svg" xml:space="preserve" width="72.4147mm" height="108.327mm" version="1.1" style="shape-rendering:geometricPrecision; text-rendering:geometricPrecision; image-rendering:optimizeQuality; fill-rule:evenodd; clip-rule:evenodd"
viewBox="0 0 98 146"
 xmlns:xlink="http://www.w3.org/1999/xlink">
 <defs>
  <style type="text/css">
   <![CDATA[
    .str1 {stroke:#4DFFFF;stroke-width:1.01302}
    .str0 {stroke:#2B2A29;stroke-width:0.270139}
    .fil2 {fill:none}
    .fil4 {fill:none;fill-rule:nonzero}
    .fil0 {fill:#162632}
    .fil1 {fill:#4DFFFF;fill-rule:nonzero}
    .fil3 {fill:#4DFFFF;fill-rule:nonzero}
   ]]>
  </style>
 </defs>
 <g id="Слой_x0020_1">
  <metadata id="CorelCorpID_0Corel-Layer"/>
  <g id="_2867301389168">
   <g>
    <rect class="fil0" x="1" y="1" width="96.4297" height="144.937" rx="6" ry="6"/>
    <path class="fil1" d="M6 0l86 0c1,0 3,1 4,2 1,1 2,3 2,4l0 134c0,2 -1,3 -2,4 -1,2 -3,2 -4,2l-86 0c-1,0 -3,0 -4,-2 -1,-1 -2,-2 -2,-4l0 -134c0,-1 1,-3 2,-4 1,-1 3,-2 4,-2zm86 1l-86 0c-1,0 -2,1 -3,2 -1,1 -2,2 -2,3l0 134c0,1 1,3 2,4 1,0 2,1 3,1l86 0c1,0 2,-1 3,-1 1,-1 1,-3 1,-4l0 -134c0,-1 0,-2 -1,-3 -1,-1 -2,-2 -3,-2z"/>
    <rect class="fil2 str0" x="39" y="62" width="19.5017" height="21.5705"/>
    <g>
     <path class="fil3" d="M9 16l-1 2c0,0 0,1 0,1 0,0 0,0 0,0 -1,0 -1,0 -1,0 0,-1 0,-1 0,-1l0 0 3 -9c0,-1 0,-1 1,-1 0,0 0,0 0,1l3 9 0 0c0,0 0,0 0,1 0,0 0,0 0,0 0,0 0,0 0,0 -1,0 -1,-1 -1,-1l0 -2 -4 0zm3 -1l-1 -5 -2 5 3 0z"/>
     <path class="fil3" d="M89 130l1 -2c0,0 0,0 0,0 0,0 0,0 0,0 0,0 0,0 1,0 0,0 0,0 0,0l0 0 -3 10c0,0 -1,0 -1,0 0,0 0,0 0,0l-3 -10 -1 0c0,0 1,0 1,0 0,0 0,0 0,0 0,0 0,0 0,0 0,0 0,0 0,0l1 2 4 0zm-3 1l1 5 2 -5 -3 0z"/>
    </g>
    <g>
     <path class="fil4 str1" d="M11 27c0,1 1,1 2,1 1,0 2,-1 2,-2 0,-2 -2,-3 -4,-5 -2,2 -4,3 -4,5 0,1 1,2 2,2 1,0 1,0 2,-1z"/>
     <path class="fil2 str1" d="M11 27c0,1 0,2 -2,3l3 0c-1,-1 -1,-2 -1,-3 0,0 0,0 0,0z"/>
    </g>
    <g>
     <path class="fil4 str1" d="M87 120c1,-1 1,-1 2,-1 1,0 2,0 2,1 0,2 -2,4 -4,6 -2,-2 -4,-4 -4,-6 0,-1 1,-1 2,-1 1,0 1,0 2,1z"/>
     <path class="fil2 str1" d="M87 120c0,-2 0,-3 -2,-3l4 0c-2,0 -2,1 -2,3 0,0 0,0 0,0z"/>
    </g>
    <g>
     <path class="fil4 str1" d="M49 76c1,2 2,3 5,3 2,0 4,-2 4,-4 0,-4 -4,-8 -9,-12 -5,4 -10,8 -10,12 0,2 2,4 5,4 3,0 4,-1 5,-3z"/>
     <path class="fil2 str1" d="M49 77c0,2 -1,5 -4,6l7 0c-2,-1 -3,-3 -3,-6 0,-1 0,-1 0,0z"/>
    </g>
    <rect class="fil0" x="1" y="1" width="96.4297" height="144.937" rx="6" ry="6"/>
    <path class="fil1" d="M6 0l86 0c1,0 3,1 4,2 1,1 2,3 2,4l0 134c0,2 -1,3 -2,4 -1,2 -3,2 -4,2l-86 0c-1,0 -3,0 -4,-2 -1,-1 -2,-2 -2,-4l0 -134c0,-1 1,-3 2,-4 1,-1 3,-2 4,-2zm86 1l-86 0c-1,0 -2,1 -3,2 -1,1 -2,2 -2,3l0 134c0,1 1,3 2,4 1,0 2,1 3,1l86 0c1,0 2,-1 3,-1 1,-1 1,-3 1,-4l0 -134c0,-1 0,-2 -1,-3 -1,-1 -2,-2 -3,-2z"/>
    <g>
     <path class="fil3" d="M10 13l-1 0 0 3c0,0 1,0 1,0 0,1 0,1 0,1 0,0 0,0 1,0l1 0c0,0 0,0 0,-1 1,0 1,0 1,0l0 -2c0,-1 0,-1 -1,-1 0,0 0,0 0,0l-2 0zm0 -1l2 0c0,0 1,0 1,0 0,1 1,1 1,2l0 2c0,0 -1,1 -1,1 0,1 -1,1 -1,1l-1 0c-1,0 -2,0 -2,-1 0,0 -1,-1 -1,-1l0 -3c0,-1 1,-2 1,-3 0,0 1,-1 1,-1 1,-1 1,-1 2,-2l0 0c0,0 0,0 0,1 1,0 1,0 1,0 0,0 0,0 0,0 0,0 -1,0 -1,0 0,0 0,0 0,1 0,0 0,0 0,0 -1,0 -1,0 -1,0 0,1 -1,1 -1,2l0 0 0 1z"/>
     <path class="fil3" d="M89 134l0 -1 0 -2c0,-1 0,-1 -1,-1 0,0 0,0 0,0 0,0 0,0 0,0l-1 0c-1,0 -1,0 -1,0 0,0 -1,0 -1,1l0 2c0,0 1,0 1,0 0,1 0,1 1,1l2 0zm-1 1l-1 0c-1,0 -2,0 -2,-1 0,0 -1,-1 -1,-1l0 -2c0,-1 1,-1 1,-2 0,0 1,-1 2,-1l1 0c0,0 1,1 1,1 0,0 1,1 1,2l0 2c0,1 -1,2 -1,3 0,1 -1,1 -1,2 -1,0 -1,1 -2,1l0 0c0,0 0,0 0,0 0,0 -1,0 -1,-1 0,0 0,0 1,0 0,0 0,0 0,0 0,0 0,0 0,0 0,0 0,0 1,0 0,-1 0,-1 0,-1 1,0 1,-1 1,-1l0 -1 0 0z"/>
    </g>
    <g>
     <path class="fil4 str1" d="M11 27c0,1 1,1 2,1 1,0 2,-1 2,-2 0,-2 -2,-3 -4,-5 -2,2 -4,3 -4,5 0,1 1,2 2,2 1,0 1,0 2,-1z"/>
     <path class="fil2 str1" d="M11 27c0,1 0,2 -2,3l3 0c-1,-1 -1,-2 -1,-3 0,0 0,0 0,0z"/>
    </g>
    <g>
     <path class="fil4 str1" d="M87 120c1,-1 1,-1 2,-1 1,0 2,0 2,1 0,2 -2,4 -4,6 -2,-2 -4,-4 -4,-6 0,-1 1,-1 2,-1 1,0 1,0 2,1z"/>
     <path class="fil2 str1" d="M87 120c0,-2 0,-3 -2,-3l4 0c-2,0 -2,1 -2,3 0,0 0,0 0,0z"/>
    </g>
   </g>
   <g>
    <path class="fil4 str1" d="M32 22c1,2 1,3 3,3 2,0 4,-2 4,-3 0,-4 -4,-7 -7,-10 -4,3 -8,6 -8,10 0,1 2,3 4,3 2,0 3,-1 4,-3z"/>
    <path class="fil2 str1" d="M32 23c0,2 -1,4 -3,5l5 0c-2,-1 -2,-3 -2,-5 0,0 0,0 0,0z"/>
   </g>
   <g>
    <path class="fil4 str1" d="M32 130c1,1 1,2 3,2 2,0 4,-1 4,-3 0,-3 -4,-6 -7,-10 -4,4 -8,7 -8,10 0,2 2,3 4,3 2,0 3,-1 4,-2z"/>
    <path class="fil2 str1" d="M32 130c0,2 -1,4 -3,6l5 0c-2,-2 -2,-3 -2,-6 0,0 0,0 0,0z"/>
   </g>
   <g>
    <path class="fil4 str1" d="M69 22c1,2 2,3 4,3 2,0 3,-2 3,-3 0,-4 -3,-7 -7,-10 -4,3 -8,6 -8,10 0,1 2,3 4,3 2,0 3,-1 4,-3z"/>
    <path class="fil2 str1" d="M69 23c0,2 0,4 -3,5l6 0c-2,-1 -3,-3 -3,-5 0,0 0,0 0,0z"/>
   </g>
   <g>
    <path class="fil4 str1" d="M69 130c1,1 2,2 4,2 2,0 3,-1 3,-3 0,-3 -3,-6 -7,-10 -4,4 -8,7 -8,10 0,2 2,3 4,3 2,0 3,-1 4,-2z"/>
    <path class="fil2 str1" d="M69 130c0,2 0,4 -3,6l6 0c-2,-2 -3,-3 -3,-6 0,0 0,0 0,0z"/>
   </g>
   <g>
    <path class="fil4 str1" d="M32 75c1,2 1,3 3,3 2,0 4,-2 4,-3 0,-4 -4,-7 -7,-10 -4,3 -8,6 -8,10 0,1 2,3 4,3 2,0 3,-1 4,-3z"/>
    <path class="fil2 str1" d="M32 76c0,2 -1,4 -3,5l5 0c-2,-1 -2,-3 -2,-5 0,0 0,0 0,0z"/>
   </g>
   <g>
    <path class="fil4 str1" d="M69 75c1,2 2,3 4,3 2,0 3,-2 3,-3 0,-4 -3,-7 -7,-10 -4,3 -8,6 -8,10 0,1 2,3 4,3 2,0 3,-1 4,-3z"/>
    <path class="fil2 str1" d="M69 76c0,2 0,4 -3,5l6 0c-2,-1 -3,-3 -3,-5 0,0 0,0 0,0z"/>
   </g>
  </g>
 </g>
</svg>
