<?xml version="1.0" encoding="UTF-8"?>
<!DOCTYPE svg PUBLIC "-//W3C//DTD SVG 1.1//EN" "http://www.w3.org/Graphics/SVG/1.1/DTD/svg11.dtd">
<!-- Creator: CorelDRAW X7 -->
<svg xmlns="http://www.w3.org/2000/svg" xml:space="preserve" width="72.4147mm" height="108.327mm" version="1.1" style="shape-rendering:geometricPrecision; text-rendering:geometricPrecision; image-rendering:optimizeQuality; fill-rule:evenodd; clip-rule:evenodd"
viewBox="0 0 81 122"
 xmlns:xlink="http://www.w3.org/1999/xlink">
 <defs>
  <style type="text/css">
   <![CDATA[
    .str1 {stroke:#4DFFFF;stroke-width:0.842408}
    .str7 {stroke:#4DFFFF;stroke-width:0.280803}
    .str0 {stroke:#2B2A29;stroke-width:0.224642}
    .str2 {stroke:#4DFFFF;stroke-width:0.406041;stroke-linecap:round;stroke-linejoin:round}
    .str4 {stroke:#4DFFFF;stroke-width:0.321575;stroke-linecap:round;stroke-linejoin:round}
    .str3 {stroke:#4DFFFF;stroke-width:0.30001;stroke-linecap:round;stroke-linejoin:round}
    .str5 {stroke:#4DFFFF;stroke-width:0.333706;stroke-linecap:round;stroke-linejoin:round}
    .str6 {stroke:#4DFFFF;stroke-width:0.313488;stroke-linecap:round;stroke-linejoin:round}
    .fil2 {fill:none}
    .fil4 {fill:none;fill-rule:nonzero}
    .fil0 {fill:#162632}
    .fil1 {fill:#4DFFFF;fill-rule:nonzero}
    .fil3 {fill:#4DFFFF;fill-rule:nonzero}
   ]]>
  </style>
 </defs>
 <g id="Слой_x0020_1">
  <metadata id="CorelCorpID_0Corel-Layer"/>
  <g id="_2867357506704">
   <g>
    <rect class="fil0" x="1" y="1" width="80.189" height="120.526" rx="5" ry="5"/>
    <path class="fil1" d="M5 0l71 0c2,0 3,1 4,2 1,0 1,2 1,3l0 112c0,1 0,2 -1,3 -1,1 -2,2 -4,2l-71 0c-1,0 -3,-1 -3,-2 -1,-1 -2,-2 -2,-3l0 -112c0,-1 1,-3 2,-3 0,-1 2,-2 3,-2zm71 1l-71 0c-1,0 -2,1 -3,1 0,1 -1,2 -1,3l0 112c0,1 1,2 1,2 1,1 2,2 3,2l71 0c1,0 2,-1 3,-2 1,0 1,-1 1,-2l0 -112c0,-1 0,-2 -1,-3 -1,0 -2,-1 -3,-1z"/>
    <rect class="fil2 str0" x="33" y="52" width="16.2173" height="17.9376"/>
    <g>
     <path class="fil3" d="M7 13l0 2c0,0 0,0 0,0 -1,0 -1,1 -1,1 0,0 0,-1 0,-1 0,0 0,0 0,0l0 0 2 -8c1,0 1,0 1,0 0,0 0,0 0,0l3 8 0 0c0,0 0,0 0,0 0,0 0,1 -1,1 0,0 0,0 0,-1 0,0 0,0 0,0l-1 -2 -3 0zm3 -1l-1 -3 -1 3 2 0z"/>
     <path class="fil3" d="M74 108l1 -2c0,0 0,0 0,0 0,0 0,0 0,0 0,0 0,0 0,0 0,0 0,0 0,1l0 0 -2 8c0,0 0,0 -1,0 0,0 0,0 0,0l-3 -8 0 0c0,-1 0,-1 1,-1 0,0 0,0 0,0 0,0 0,0 0,0 0,0 0,0 0,0l1 2 3 0zm-3 1l1 4 2 -4 -3 0z"/>
    </g>
    <g>
     <path class="fil4 str1" d="M9 22c0,1 1,1 2,1 1,0 2,0 2,-1 0,-2 -2,-3 -4,-5 -2,2 -3,3 -3,5 0,1 0,1 1,1 1,0 2,0 2,-1z"/>
     <path class="fil2 str1" d="M9 23c0,0 0,1 -1,2l2 0c-1,-1 -1,-1 -1,-2 0,-1 0,-1 0,0z"/>
    </g>
    <g>
     <path class="fil4 str1" d="M72 100c1,-1 1,-1 2,-1 1,0 2,0 2,1 0,2 -2,3 -4,5 -1,-2 -3,-3 -3,-5 0,-1 1,-1 2,-1 0,0 1,0 1,1z"/>
     <path class="fil2 str1" d="M72 99c0,0 0,-1 -1,-2l3 0c-1,1 -2,1 -2,2 0,1 0,1 0,0z"/>
    </g>
    <g>
     <path class="fil4 str1" d="M41 63c1,2 2,3 4,3 2,0 4,-2 4,-4 0,-3 -4,-6 -8,-10 -4,4 -8,7 -8,10 0,2 1,4 4,4 2,0 3,-1 4,-3z"/>
     <path class="fil2 str1" d="M41 64c0,2 -1,4 -3,5l6 0c-3,-1 -3,-3 -3,-5 0,0 0,0 0,0z"/>
    </g>
    <rect class="fil0" x="1" y="1" width="80.189" height="120.526" rx="5" ry="5"/>
    <path class="fil1" d="M5 0l71 0c2,0 3,1 4,2 1,0 1,2 1,3l0 112c0,1 0,2 -1,3 -1,1 -2,2 -4,2l-71 0c-1,0 -3,-1 -3,-2 -1,-1 -2,-2 -2,-3l0 -112c0,-1 1,-3 2,-3 0,-1 2,-2 3,-2zm71 1l-71 0c-1,0 -2,1 -3,1 0,1 -1,2 -1,3l0 112c0,1 1,2 1,2 1,1 2,2 3,2l71 0c1,0 2,-1 3,-2 1,0 1,-1 1,-2l0 -112c0,-1 0,-2 -1,-3 -1,0 -2,-1 -3,-1z"/>
    <g>
     <path class="fil3" d="M7 13l1 -7c0,0 0,0 0,0l3 0c0,0 0,0 0,0l0 7 0 0c1,0 1,0 1,1l0 1c0,0 0,0 0,0 0,0 0,0 -1,0 0,0 0,0 0,0 0,0 0,0 0,0l0 -1 -4 0 0 1c0,0 0,0 0,0 -1,0 -1,0 -1,0 0,0 0,0 0,0 0,0 0,0 0,0l0 -1c0,-1 0,-1 0,-1l1 0zm3 0l0 -7 -2 0 0 7 2 0z"/>
     <path class="fil3" d="M75 108l-1 8c0,0 0,0 -1,0l-2 0c0,0 -1,0 -1,0l0 -8 0 0c0,0 0,0 0,0l0 -1c0,0 0,0 0,0 0,0 0,0 0,0 0,0 0,0 0,0 0,0 0,0 0,0l0 0 5 0 0 0c0,0 0,0 0,0 0,0 0,0 0,0 0,0 0,0 0,0 1,0 1,0 1,0l0 1c0,0 -1,0 -1,0l0 0zm-4 0l0 7 2 0 1 -7 -3 0z"/>
    </g>
    <g>
     <path class="fil4 str1" d="M9 22c0,1 1,1 2,1 1,0 2,0 2,-1 0,-2 -2,-3 -4,-5 -2,2 -3,3 -3,5 0,1 0,1 1,1 1,0 2,0 2,-1z"/>
     <path class="fil2 str1" d="M9 23c0,0 0,1 -1,2l2 0c-1,-1 -1,-1 -1,-2 0,-1 0,-1 0,0z"/>
    </g>
    <g>
     <path class="fil4 str1" d="M72 100c1,-1 1,-1 2,-1 1,0 2,0 2,1 0,2 -2,3 -4,5 -1,-2 -3,-3 -3,-5 0,-1 1,-1 2,-1 0,0 1,0 1,1z"/>
     <path class="fil2 str1" d="M72 99c0,0 0,-1 -1,-2l3 0c-1,1 -2,1 -2,2 0,1 0,1 0,0z"/>
    </g>
   </g>
   <g>
    <path class="fil4 str2" d="M56 59c1,1 2,1 3,1 1,0 2,1 3,1l0 0c-1,-1 -3,-2 -5,-2 -3,0 -6,0 -9,1 -2,0 -4,1 -6,1 -2,0 -4,0 -6,0 -2,0 -4,0 -6,-1 -2,0 -4,-1 -5,-2 -2,-1 -5,-2 -6,-4l0 1c2,2 4,3 6,4 1,1 2,2 4,2 1,0 3,0 4,1 0,0 0,0 0,0 -2,1 -5,1 -8,0 0,0 0,0 0,0 0,0 -1,0 -1,0 -2,-1 -4,-2 -5,-3l0 1c1,1 2,2 4,2 3,2 7,1 11,0 3,0 7,-1 12,-1 3,0 7,1 10,2 3,1 5,3 6,5l0 -1c-1,-2 -3,-3 -5,-4 -2,-1 -3,-2 -5,-2 0,0 -1,0 -1,0 0,0 0,0 0,0l0 0c0,0 0,0 -1,0 0,-1 -1,-1 -1,-1 0,0 0,0 0,0 1,0 2,0 3,-1 1,0 3,0 4,0z"/>
    <path class="fil4 str2" d="M66 51l0 0c-1,-1 -1,-1 -2,-2 -1,-1 -2,-2 -2,-3 -2,-2 -3,-4 -4,-7 -1,-2 -1,-5 -2,-7 0,-2 0,-4 0,-6 0,0 0,0 0,0 0,0 0,0 0,0 0,0 0,0 0,0l0 0c-1,-1 -2,-1 -2,-2 -1,0 -1,0 -1,0 0,0 0,-1 1,-2 0,-1 0,-1 0,-2 0,0 0,0 0,0 0,-1 0,-1 0,-1 0,0 1,0 1,0 0,0 0,0 0,0 0,0 0,-1 0,-1 -1,0 -1,1 -1,1 0,0 0,0 0,0 0,0 0,0 0,0 -1,1 -2,1 -3,1 0,0 -1,-1 -1,-2 0,0 0,-1 0,-1l0 0c0,0 0,0 0,-1 0,0 0,0 0,0 0,0 -1,0 -1,0 0,1 0,1 1,1 -2,1 -3,2 -4,1 -1,0 -2,-1 -2,-1 0,-1 0,-1 -1,-1 1,0 1,0 1,-1 0,0 0,0 -1,0 0,0 0,0 0,0 0,1 0,1 0,1 0,0 -1,1 -1,1 0,1 -1,1 -2,1 0,1 -1,0 -1,-1 -1,0 -1,0 -1,-1 0,0 0,0 0,0 0,0 0,-1 0,-1 -1,0 -1,1 -1,1 0,0 0,0 1,0 -1,1 -1,2 -1,2 -1,1 -1,1 -2,1 0,-1 0,-1 0,-1 0,0 0,0 0,0 0,-1 0,-1 0,-1 -1,0 -1,0 -1,1 0,0 0,0 1,0 0,0 0,0 0,0 0,2 0,3 0,4l0 0 0 0 0 0c0,1 0,1 1,1 -1,0 -1,0 -1,0 -1,1 -1,2 -2,2 0,0 0,1 0,1 -1,1 -1,2 -2,3 -1,2 -1,5 -1,8 0,1 0,2 0,3 0,2 0,3 1,4 0,2 0,3 1,4 0,1 1,1 1,2 0,0 1,0 1,1 0,0 -1,1 -1,1 -2,-1 -3,-3 -4,-5 0,0 0,0 0,0 0,0 0,0 0,0 -1,0 -1,0 -2,0 0,0 -1,-2 -1,-2 0,-1 -1,-1 -2,-1 0,0 0,0 0,0l0 -4 0 0c0,0 0,0 1,0 0,0 0,-1 0,-1 0,0 0,0 0,0 1,0 1,0 1,0 1,0 1,-1 1,-1 0,0 1,0 1,0 0,0 0,-1 0,-1 -1,0 -1,-1 -1,-1 -1,0 -1,0 -1,0 0,0 0,-1 0,-1 0,0 -1,-2 -1,-1 -1,0 -2,0 -2,1 0,0 0,0 0,0 0,1 0,1 0,1 0,0 0,-1 -1,-1 0,0 -1,1 -1,2 0,0 0,0 0,0 0,0 0,1 1,1 0,0 0,0 0,0 1,0 1,0 1,0 0,0 -1,0 -1,1 0,0 1,0 1,0 0,1 0,1 1,1l0 4c-1,0 -1,-1 -2,-1 0,0 0,0 0,0 0,0 0,1 0,1 0,0 0,0 0,0 0,0 -1,0 -1,0 0,1 0,1 0,1 0,0 0,0 0,0 0,1 0,1 0,1 0,0 0,0 0,0 0,0 -1,0 -1,0 0,1 1,1 1,1 -1,0 -1,1 0,1 0,0 0,1 0,1 0,1 1,1 2,0 0,0 0,0 0,1l0 0c-1,0 -2,0 -3,1 0,0 0,0 -1,1 1,1 1,1 2,2 0,0 0,1 1,1 1,1 3,2 4,3 4,1 8,2 11,2 3,0 7,0 10,-1 0,0 0,0 0,0 0,0 1,0 1,0 2,-1 4,-1 7,-1 0,0 1,-1 2,-1 1,1 2,1 3,1 1,1 2,1 2,2l0 0c0,0 0,-1 0,-1 0,0 0,-1 0,-2 0,0 0,0 0,0 0,0 0,-1 0,-1 1,0 2,-1 3,-2 0,-1 1,-2 1,-3 0,0 0,0 0,0l0 0z"/>
    <path class="fil4 str2" d="M53 24c0,0 0,0 0,0 -1,0 -1,-1 -2,-1 -2,-1 -4,-1 -6,-1 -3,-1 -5,-1 -7,0 -1,0 -1,0 -2,1 0,0 0,0 0,0 0,0 0,0 0,0 0,0 0,-1 0,-1 0,0 1,0 1,0 1,-1 1,-1 2,-1 2,0 4,0 5,0 2,0 4,0 6,1 0,0 1,0 2,0 0,1 1,1 1,1 0,0 0,1 0,1z"/>
    <path class="fil4 str2" d="M34 50c-1,-1 -1,-1 -1,-2 -1,-1 -2,-2 -2,-3 -1,-3 -1,-5 -1,-8 0,-3 0,-5 1,-8 1,0 1,-1 1,-2 0,0 0,0 0,0 1,0 1,-1 1,-1 0,0 0,-1 0,-1 1,0 1,0 1,-1 0,0 0,0 1,0 0,0 0,0 1,0 0,0 1,0 1,0 -1,1 -2,1 -3,2 0,1 0,2 0,3 0,0 -1,1 -1,1 0,0 0,0 -1,0 0,1 0,2 0,3 0,0 0,1 0,2 0,0 0,0 0,0 0,0 0,1 0,1 0,1 0,2 0,2 0,2 0,3 0,5 0,1 1,2 1,3 1,1 1,2 1,2 1,1 1,1 1,1 0,1 0,1 0,1 0,0 -1,0 -1,1 0,-1 0,-1 0,-1z"/>
    <path class="fil4 str2" d="M42 30c-1,1 -2,1 -3,1 -1,0 -3,-1 -3,-1 -1,-1 -1,-3 -1,-4 1,-1 2,-1 3,-1 0,0 0,0 0,0 0,0 -1,1 -2,1 0,1 0,2 0,3 1,1 2,1 4,1 1,0 1,0 2,-1 0,0 0,0 0,0 0,1 0,1 0,1 0,1 0,1 -1,1 -1,0 -1,1 -2,1 -1,0 -3,-1 -4,-2 -1,-1 -1,-3 0,-4 0,-1 1,-1 3,-1 0,0 0,0 0,0 0,0 -1,0 -1,0 -1,0 -1,0 -2,1 0,1 0,2 0,3 1,2 2,2 4,2 1,0 3,0 3,-1 0,0 0,0 0,0z"/>
    <path class="fil4 str2" d="M39 27c0,1 1,1 1,1 1,0 1,0 1,0 0,0 0,0 1,0 -2,1 -3,1 -4,1 -1,-1 -1,-2 0,-3 0,0 0,0 1,-1 0,0 0,1 0,1 0,0 -1,1 0,1z"/>
    <path class="fil4 str2" d="M37 26c0,1 0,2 0,2 1,1 2,1 2,1 1,0 2,0 3,-1 0,1 0,1 0,1 -1,1 -3,1 -5,0 -1,0 -1,-1 -1,-2 1,-1 2,-2 3,-2 0,0 0,0 0,0 -1,1 -1,1 -2,1z"/>
    <path class="fil4 str2" d="M43 33c0,0 -1,0 -2,0 0,0 -1,0 -1,1 0,-1 0,-1 0,-1 1,0 1,0 2,0 0,-1 1,-1 1,-1 0,1 0,1 0,1z"/>
    <path class="fil4 str2" d="M48 45c-1,0 -3,0 -4,0 0,0 0,0 -1,0l0 0 0 0c0,0 0,0 0,0 0,0 0,-1 0,-1l0 0c0,0 0,0 0,0 -1,0 -1,0 -1,-1 0,0 0,0 0,0l0 0c0,0 0,0 1,0 0,0 0,0 0,0 1,0 1,0 2,0 0,0 1,0 2,0 0,0 0,1 1,2z"/>
    <path class="fil4 str2" d="M42 57c0,-1 0,-1 0,-1l0 0 0 0c1,0 1,-1 2,0 0,0 0,1 0,2 0,-1 0,-1 0,-1 -1,0 -2,0 -2,1 0,-1 0,-1 0,-1z"/>
    <path class="fil4 str2" d="M38 54c0,0 0,0 1,0 0,0 0,-1 0,-1 0,0 0,0 1,0 0,0 0,1 0,1l0 0 0 0c0,0 0,1 0,1 0,-1 0,-1 -1,-1 0,0 0,0 -1,0z"/>
    <path class="fil4 str2" d="M40 57c0,0 0,0 0,0 0,-1 0,-1 0,-1 1,-1 1,0 2,0 0,1 0,1 0,2 0,-1 -1,-1 -1,-1 0,0 -1,0 -1,0 0,0 0,0 0,0 0,0 0,0 0,0z"/>
    <path class="fil4 str2" d="M41 54c0,0 0,0 -1,0 0,0 0,0 0,-1 0,0 1,0 1,0 0,0 0,0 1,0 0,1 0,1 0,2l0 0c0,0 0,0 0,0 0,0 0,-1 -1,-1z"/>
    <path class="fil4 str2" d="M42 54c0,-1 1,-1 2,-1 0,1 0,1 0,2l0 0c0,0 0,0 0,0 0,0 0,-1 0,-1 -1,0 -1,0 -2,1 0,-1 0,-1 0,-1z"/>
    <path class="fil4 str2" d="M37 34c0,-1 -1,-1 -1,-1 0,0 0,0 -1,0 0,0 0,0 0,0 0,0 0,0 0,0 1,0 1,0 2,0l0 0c0,1 0,1 0,1z"/>
    <path class="fil4 str2" d="M35 35c1,-1 1,0 2,0 0,1 -1,1 -1,1 -1,0 -1,-1 -1,-1l0 0z"/>
    <path class="fil4 str2" d="M35 33c0,1 0,1 0,1 -1,0 -1,-1 -1,-1 0,-1 0,-1 0,-2 0,0 0,0 0,-1l0 0 0 0c0,1 0,1 0,2 0,0 1,1 1,1z"/>
    <path class="fil4 str2" d="M34 31c-1,0 -1,1 -1,1 1,1 1,2 2,2l0 0 0 0 0 0 0 0c0,0 0,1 0,1 0,0 0,0 0,0 0,0 0,0 0,0 0,0 0,0 0,0l0 0c-1,0 -2,-1 -2,-2 0,-1 0,-2 0,-2 0,0 1,-1 1,-1 0,0 0,0 0,0 0,0 0,1 0,1z"/>
    <path class="fil4 str2" d="M33 30c0,1 0,1 0,2 -1,1 0,3 2,3l0 0c0,0 0,1 0,1 -1,0 -1,0 -1,0 -1,0 -2,-2 -2,-4 0,0 0,-1 1,-2 0,0 1,0 1,-1 0,0 0,1 0,1 0,0 0,0 -1,0z"/>
    <path class="fil4 str2" d="M35 40c0,0 0,0 -1,-1 0,0 0,0 0,-1 0,0 0,-1 0,-1 0,0 0,1 0,1 0,1 1,2 1,2z"/>
    <path class="fil4 str2" d="M34 37c0,0 0,1 0,1 0,0 0,1 0,1 0,1 1,2 2,2 0,0 0,0 0,0 0,0 0,0 0,0 0,0 -1,0 -1,0 -1,0 -1,-1 -2,-2 0,0 0,-1 1,-2 0,0 0,-1 0,-1 0,0 0,1 0,1z"/>
    <path class="fil4 str2" d="M34 37c0,0 -1,0 -1,0 0,1 0,2 0,2 0,1 1,2 1,2 1,0 2,0 2,0 0,0 0,1 0,1 0,0 -1,0 -1,0 -1,-1 -2,-1 -2,-2 0,-1 0,-2 0,-2 0,-1 0,-2 1,-2 0,0 0,0 0,0l0 0c0,0 0,0 0,1z"/>
    <path class="fil4 str2" d="M40 45c0,0 0,0 0,0 0,0 0,0 0,1 0,-1 -1,-1 -1,-1 0,0 0,-1 0,-1 0,0 0,0 0,0 0,0 0,0 1,0l0 0c0,0 0,1 0,1z"/>
    <path class="fil4 str2" d="M41 44c0,0 0,1 0,1 0,0 0,0 0,0 0,0 0,0 0,0 0,0 0,0 0,0 -1,0 -1,0 -1,0 0,0 0,-1 0,-1 0,0 0,0 1,0 0,0 0,0 0,0z"/>
    <path class="fil4 str2" d="M41 44c0,0 0,-1 1,-1 0,0 0,0 0,0 0,0 0,1 0,1 0,0 0,0 0,1 -1,-1 -1,-1 -1,-1 0,0 0,0 0,0z"/>
    <path class="fil4 str2" d="M39 44c0,0 0,1 0,1 0,0 1,1 1,1 0,0 0,0 -1,0 0,0 0,0 -1,-1 0,0 0,-1 0,-2 0,0 1,1 1,1l0 0c0,0 0,0 0,0 0,0 0,0 0,0z"/>
    <path class="fil4 str2" d="M46 49c1,1 1,1 1,2l0 0c-1,0 -1,0 -2,0 0,0 0,-1 0,-1 1,-1 1,-1 1,-2 0,0 0,1 0,1z"/>
    <path class="fil4 str2" d="M44 49c0,1 1,1 1,2 -1,0 -1,0 -2,0 0,0 0,0 -1,0 0,-1 1,-1 1,-2 0,0 1,-1 1,-1 0,0 0,1 0,1z"/>
    <path class="fil4 str2" d="M42 51c-1,0 -1,0 -2,-1 0,0 1,-1 1,-1 1,0 1,-1 1,-1 0,1 0,2 0,3z"/>
    <path class="fil4 str2" d="M40 50c0,0 0,0 0,0 -1,0 -1,0 -2,-1l0 0c1,0 2,-1 2,-2 0,0 0,1 0,1 0,0 0,0 0,1 0,0 0,1 0,1z"/>
    <path class="fil4 str2" d="M38 49c-1,0 -1,0 -1,-1 0,0 1,0 2,-1 0,0 0,0 1,-1 -1,1 -1,1 -1,2 -1,0 -1,1 -1,1z"/>
    <path class="fil4 str2" d="M39 46c0,0 0,0 0,1 -1,-1 -1,-1 -2,-2 0,0 0,-2 0,-2 1,0 1,0 1,0 -1,1 0,3 1,3z"/>
    <path class="fil4 str2" d="M37 45c0,1 1,2 2,2l0 0c-1,0 -1,0 -1,0 -1,0 -2,-1 -2,-2 0,-1 0,-2 1,-3 0,0 0,0 0,1 0,0 0,0 0,0 0,0 0,1 0,2z"/>
    <path class="fil4 str2" d="M36 45c0,1 0,1 1,2 0,0 1,0 1,0 0,0 0,0 -1,1 0,0 -1,-1 -1,-1 -1,-1 -1,-1 -1,-2 0,-1 0,-1 0,-2 0,0 1,-1 1,-1 0,0 0,0 1,0 0,0 0,0 0,0 -1,1 -2,2 -1,3z"/>
    <path class="fil4 str2" d="M50 51c-1,0 -2,0 -2,0 -2,1 -3,1 -4,1 -2,0 -3,-1 -5,-1 0,0 -1,-1 -2,-1 0,0 0,0 -1,-1 0,0 0,0 0,0 0,0 1,0 1,-1 0,1 1,2 2,2 2,1 3,1 5,1 1,0 3,0 4,0 1,0 1,-1 2,-1 0,0 1,0 1,0 0,0 0,0 0,0 0,1 -1,1 -1,1z"/>
    <path class="fil4 str2" d="M48 48c0,0 0,0 1,1 0,0 0,1 1,1 0,0 -1,0 -1,0 0,0 -1,1 -2,1 0,-1 0,-2 0,-2 1,0 1,-1 1,-1z"/>
    <path class="fil4 str2" d="M50 50c0,-1 0,-1 -1,-2 1,0 1,0 1,1 0,0 0,0 1,1 -1,0 -1,0 -1,0z"/>
    <path class="fil4 str2" d="M44 48c0,0 -1,-1 -2,-1 0,0 -1,0 -1,0 0,0 -1,-1 -1,-1 0,0 0,0 1,-1 0,2 2,2 3,2 1,0 2,0 3,0 0,0 1,0 1,0 0,-1 0,-1 0,-1 1,1 1,1 1,1 -2,0 -3,1 -5,1z"/>
    <path class="fil4 str2" d="M32 52c0,0 0,0 -1,0 0,0 -1,1 -1,1 -1,0 -1,1 -1,1 -1,0 -1,0 -2,1 0,0 0,0 0,0 1,-1 1,-1 1,-2 1,0 1,-1 2,-1 0,0 1,-1 1,-1 1,0 1,1 1,1z"/>
    <path class="fil4 str2" d="M29 47c0,1 1,2 1,2 0,0 0,0 -1,0 0,-1 -1,-1 -2,-1 1,-1 2,-1 2,-1z"/>
    <path class="fil4 str2" d="M27 48c0,0 0,1 0,1 0,1 0,1 0,2l0 0c-1,-1 -1,-1 -1,-1 -1,-1 -1,-1 -2,-1 1,-1 2,-1 3,-1z"/>
    <path class="fil4 str2" d="M22 43c0,0 0,0 1,1 0,0 1,0 2,0 0,0 1,0 1,1 0,0 0,0 0,1 0,0 0,0 1,1 0,0 0,0 0,1 -1,0 -1,0 -2,0 0,0 0,0 0,0 0,0 0,0 0,-1 0,0 0,0 0,0 0,0 0,-1 0,-1 0,0 0,0 0,0 0,0 0,0 0,0 0,0 0,0 0,-1 0,0 -1,-1 -2,-1 0,0 0,0 -1,0 0,0 0,0 0,0 0,0 0,-1 0,-1z"/>
    <path class="fil4 str2" d="M25 47c-1,0 -1,0 -1,0 -1,0 -2,0 -2,0 -1,0 -1,0 -1,0 0,0 0,0 0,0 0,-1 0,-1 0,-1 0,0 2,0 2,0 0,0 1,0 1,0 0,0 0,0 1,0 0,1 0,1 0,1z"/>
    <path class="fil4 str2" d="M21 45c-1,-1 1,-1 1,-1 1,0 1,1 1,1 1,0 1,0 1,0 0,0 1,0 1,1 0,0 0,0 0,0 0,0 0,0 0,0 -1,0 -1,0 -1,0 0,0 -1,0 -1,0 0,0 -1,-1 -2,0 0,0 0,0 0,0l0 -1c0,0 0,0 0,0z"/>
    <path class="fil4 str2" d="M21 47c0,0 0,0 0,0 0,0 0,0 1,0 0,0 0,0 1,0 0,0 0,0 1,0 0,0 2,0 1,1 -1,0 -1,0 -2,0 -1,0 -1,0 -2,0 0,0 0,0 0,0 0,0 -1,0 0,-1z"/>
    <path class="fil4 str2" d="M22 49c0,0 0,0 0,0 0,0 -1,0 -1,0 0,0 0,0 0,0 0,-1 0,-1 0,-1 0,0 1,0 1,0 0,0 0,0 1,0 0,0 2,0 2,0 0,0 -1,1 -1,1 0,0 0,0 0,0 -1,0 -1,0 -2,0z"/>
    <path class="fil4 str2" d="M24 49c0,1 0,2 0,3 -1,0 -1,-1 -1,-1 -1,0 -1,0 -1,-1 0,0 1,-1 2,-1z"/>
    <path class="fil4 str2" d="M21 54c0,-1 -1,-1 -1,-2 0,-1 1,-1 1,-1 0,0 0,0 1,-1 0,1 -1,1 -1,1 0,0 0,1 0,1 0,1 0,1 0,2z"/>
    <path class="fil4 str2" d="M21 54c1,0 1,0 1,0 0,-1 1,-1 1,-1 1,-1 2,-1 3,-2 0,0 0,0 1,0l0 0c1,-1 2,-1 3,-1 0,0 0,0 1,0 0,0 0,0 0,0 0,0 -1,0 -1,0 0,0 -1,1 -1,1 -1,0 -2,1 -3,1 -1,0 -1,1 -2,1 0,0 -1,2 -2,2 0,0 0,-1 -1,-1z"/>
    <path class="fil4 str2" d="M26 57l0 0c1,0 1,0 1,-1 0,0 1,-1 2,-1 0,-1 1,-1 1,-1 1,0 1,-1 1,-1 0,0 1,0 1,0 -1,1 -2,2 -2,3 -1,0 -1,1 -1,2 0,0 0,0 0,0 -1,0 -2,0 -3,-1z"/>
    <path class="fil4 str2" d="M26 55c0,0 0,-1 1,-1 0,0 1,-1 1,-1 0,-1 1,-1 1,-1 0,0 -1,0 -1,0 -1,1 -2,1 -2,1 -1,1 -1,1 -2,1 0,1 -1,1 -1,1 1,1 1,1 2,2 1,-1 1,-1 1,-2z"/>
    <path class="fil4 str2" d="M36 60c-1,-1 -2,-1 -3,-1 -1,0 -2,0 -3,0 0,-1 0,-1 -1,-1 0,0 0,0 0,0 1,0 1,-1 1,-1 0,-1 1,-2 2,-3 0,-1 1,-2 2,-3l0 0c1,0 1,0 1,-1 0,0 0,0 0,0 0,0 1,1 1,1 1,0 2,1 2,1l0 0c0,0 0,0 0,1 0,0 0,0 0,1 -1,0 -1,1 -1,2 0,0 -1,1 -1,2 0,0 0,0 0,1 0,0 0,0 0,1z"/>
    <path class="fil4 str2" d="M37 60c0,0 0,-1 0,-1 0,0 0,0 0,0 1,-1 1,-1 2,0 0,0 0,0 0,1 0,0 -1,0 -2,0z"/>
    <path class="fil4 str2" d="M38 57c0,0 0,0 -1,0l0 0c0,0 1,-1 1,-1 0,0 0,0 0,0 1,-1 1,0 1,0 1,1 1,1 1,2 -1,0 -1,0 -1,0l0 0 0 0 0 0c0,-1 0,-1 -1,-1z"/>
    <path class="fil4 str2" d="M41 60c0,0 -1,0 -2,0 1,-1 1,-2 2,-2 1,0 1,1 1,2 0,0 0,0 -1,0z"/>
    <path class="fil4 str2" d="M44 59c-1,0 -1,1 -2,1l0 0c0,-1 1,-2 1,-2 1,0 1,1 1,1 0,0 0,0 0,0z"/>
    <path class="fil4 str2" d="M44 56c0,0 1,0 1,0 0,-1 1,0 1,0 0,0 0,1 1,1 -1,0 -1,0 -1,0 -1,-1 -1,0 -2,1 0,-1 0,-1 0,-2z"/>
    <path class="fil4 str2" d="M44 59l0 0c1,0 1,-1 1,-1 1,0 1,0 1,1 0,0 -1,0 -2,0z"/>
    <path class="fil4 str2" d="M47 55c0,-1 -1,-1 -2,-1 0,0 0,0 0,1 0,-1 0,-1 -1,-1l0 0c1,0 1,-1 2,-1 0,0 0,0 1,1 0,0 0,0 0,1z"/>
    <path class="fil4 str2" d="M48 59c0,0 0,0 0,-1 0,-1 0,-2 0,-3 0,0 0,-1 0,-1 0,-1 0,-1 0,-1 0,0 0,0 0,0 2,-1 3,-1 4,-2 1,1 1,1 2,2 -1,0 -1,1 -1,2 -1,1 -1,2 -2,3 -1,0 -2,0 -3,1z"/>
    <path class="fil4 str2" d="M53 57c0,0 -1,0 -1,1 0,-1 0,-1 0,-1 1,-1 2,-1 3,-1 1,-1 2,-1 3,-1 0,0 1,0 1,0l0 0c0,0 -1,1 -1,1 -1,0 -2,0 -2,1 -1,0 -2,0 -3,0z"/>
    <path class="fil4 str2" d="M56 57c1,0 1,-1 1,-1 1,0 2,0 2,-1 1,0 2,1 2,1l0 0 0 0c0,0 0,0 0,0 0,0 0,0 0,0 0,0 -1,0 -2,0 0,0 0,1 -1,1 0,0 0,0 -1,0 0,0 0,0 -1,0z"/>
    <path class="fil4 str2" d="M61 56c0,0 0,0 0,0 0,0 0,0 0,0l0 0c-1,-1 -3,-1 -4,-2 -2,-1 -4,-2 -5,-4 -1,0 -2,-1 -2,-2 -1,-1 -1,-2 -2,-2 -1,-2 -1,-4 -2,-6 -1,-2 -1,-4 -2,-6 0,0 0,-1 0,-1l0 0 0 0c0,-1 -1,-1 -1,-1 0,-1 0,-2 -1,-3 0,-1 -1,-2 -1,-3 -1,0 -2,-1 -2,-1 0,0 -1,0 -1,-1l0 0 0 0c-1,0 -2,-1 -3,-1 1,0 2,0 3,-1 0,0 0,0 1,0 1,0 3,2 4,3 1,1 2,3 3,4 0,1 0,2 1,3 0,1 0,2 1,3 0,2 1,4 1,5 1,4 3,7 6,9 1,2 3,2 4,3 1,1 2,1 3,1 1,0 1,1 2,1 -1,1 -2,1 -3,2z"/>
    <path class="fil4 str2" d="M29 40c-1,0 -1,1 -1,1 0,1 0,1 -1,2 -1,0 -1,0 -2,0 0,0 0,0 0,0l0 0c0,0 1,-1 1,-1 1,0 1,-1 2,-1l0 0c-1,0 -2,1 -2,1 -1,0 -1,1 -1,1 0,-1 1,-2 1,-2 1,0 1,-1 2,-1 0,0 1,0 1,0z"/>
    <path class="fil4 str2" d="M20 39c1,1 1,1 2,1 0,1 1,1 1,2 0,0 -1,0 -1,-1 0,0 -1,-1 -2,-1l0 0c1,0 1,1 2,1 0,0 1,2 1,2l0 0c0,-1 0,-1 0,-1 -1,0 -1,0 -2,0 -1,-1 -1,-1 -1,-2 0,0 -1,0 -1,-1 0,0 1,0 1,0z"/>
    <path class="fil4 str2" d="M37 41c0,0 0,0 0,0l0 0c0,0 0,0 0,0 1,-1 1,-1 1,-1 0,1 0,1 1,1 0,-1 0,-1 0,-1 1,0 1,1 1,0 0,0 2,0 2,0"/>
    <path class="fil4 str2" d="M40 41c0,0 -1,1 -2,0l0 0"/>
    <path class="fil4 str2" d="M44 35l0 0 0 0c0,0 0,0 -1,0 -1,1 -2,1 -3,0 1,-1 3,-1 4,0z"/>
    <path class="fil4 str2" d="M38 39c1,0 1,-1 1,-1l0 0c0,0 0,0 0,0 0,0 0,0 0,0 0,0 0,0 0,0 0,0 0,0 0,0l0 0c0,0 0,0 0,0 0,0 0,0 0,0 0,0 0,0 0,0 -1,0 -1,1 -2,0 0,0 0,0 0,0l0 0c0,0 0,0 0,0 -1,0 -1,0 0,0 0,0 0,-1 0,-1 1,-1 1,-2 0,-3l0 0c1,1 1,2 0,3 0,0 0,1 -1,1 0,0 0,0 0,0 0,1 1,1 2,1 0,0 0,0 0,0z"/>
    <path class="fil4 str3" d="M43 35c0,0 0,0 0,-1 -1,0 -1,0 -1,1 -1,1 1,1 1,0z"/>
    <path class="fil4 str4" d="M37 35c-1,0 -1,0 -1,0 0,-1 0,0 0,0 -1,1 1,1 1,0z"/>
    <path class="fil4 str2" d="M34 36c0,0 -2,2 -1,3 0,0 0,1 1,2 0,0 -1,-1 -1,-2 0,-2 1,-3 1,-3z"/>
    <path class="fil4 str2" d="M37 42c0,0 -2,1 -2,3 1,2 2,2 2,2 0,0 -1,0 -2,-2 0,-2 2,-3 2,-3z"/>
    <path class="fil4 str2" d="M15 71l0 0c1,0 2,1 2,2 1,1 2,2 3,3 1,2 2,4 3,6 1,3 2,5 2,8 1,2 1,3 1,5 0,0 0,1 0,1 0,0 0,0 0,0 0,0 0,0 0,0l0 0c0,0 1,1 2,1 0,0 0,0 0,1 0,0 0,1 0,2 -1,0 -1,1 -1,2 0,0 0,0 0,0 0,0 0,0 0,0 0,0 0,0 0,0 -1,0 -1,1 -1,1 0,0 0,0 1,0 0,0 0,0 0,0 0,0 0,0 0,-1 0,0 0,0 0,0 1,0 2,-1 3,0 1,0 1,1 1,2 0,0 0,0 0,1l1 0c-1,0 -1,0 -1,0 0,0 0,1 1,1 0,0 0,-1 0,-1 0,0 0,0 0,0 1,-1 2,-2 4,-2 0,0 1,1 1,2 1,0 1,1 1,1 0,0 0,0 0,0 0,1 0,1 0,1 0,0 1,0 1,-1 0,0 -1,0 -1,0 1,-1 1,-1 1,-1 1,-1 1,-2 2,-2 1,0 1,1 2,1 0,1 0,1 0,1 0,0 0,0 0,1 0,0 0,0 1,0 0,0 0,0 0,0 0,-1 0,-1 0,-1 0,0 0,-1 1,-2 0,0 0,0 1,0 0,0 0,0 0,1 0,0 0,0 0,0 0,0 0,1 1,1 0,0 0,-1 0,-1 0,0 0,0 0,0 0,0 0,0 0,0 -1,-2 -1,-3 -1,-5l0 0 0 0 0 0c0,0 0,0 0,0 0,0 0,-1 1,-1 0,0 1,-1 1,-2 0,0 0,0 1,0 0,-1 1,-2 1,-3 1,-3 2,-5 2,-8 0,-1 0,-2 -1,-4 0,-1 0,-2 0,-4 -1,-1 -1,-2 -2,-3 0,-1 0,-2 -1,-2 0,0 -1,-1 -1,-1 1,-1 1,-1 1,-1 2,1 3,3 4,4 0,1 0,1 0,1 0,0 0,0 0,0 1,0 2,-1 2,-1 1,1 1,2 1,3 1,1 2,1 2,1 0,0 0,0 0,0l0 3 0 0c0,1 0,1 0,1 -1,0 -1,0 -1,0 0,1 0,1 0,1 0,0 -1,0 -1,0 0,0 -1,0 -1,0 0,1 0,1 0,1 0,0 0,0 0,0 0,1 0,1 1,2 0,0 0,0 1,0 -1,0 -1,0 -1,1 1,0 1,1 2,1 0,0 1,-1 1,-1 1,0 0,-1 0,-1 0,0 0,0 0,0 0,0 1,0 1,0 1,0 1,0 2,-1 0,0 -1,0 -1,0 0,-1 0,-1 0,-1 -1,0 -1,-1 -1,0 0,0 -1,0 -1,0 0,0 1,-1 1,-1 0,0 0,-1 0,-1 -1,0 -1,0 -1,0l0 -4c0,0 1,0 1,0 0,0 0,1 1,0 0,0 0,0 0,0 0,0 0,0 -1,0 1,0 1,-1 1,-1 1,0 1,0 1,0 0,-1 0,-1 0,-1 0,0 0,0 0,0 0,0 0,0 0,0 0,0 0,-1 0,-1 0,0 0,0 0,-1 0,0 0,0 0,0 0,-1 0,-1 0,-1 0,-1 -2,-1 -3,-1 0,0 1,0 1,0l0 0c0,0 1,-1 2,-1 0,-1 1,-1 1,-1 0,-1 -1,-2 -1,-2 -1,-1 -1,-1 -1,-1 -2,-1 -3,-2 -5,-3 -4,-1 -7,-2 -11,-2 -3,-1 -6,0 -9,1 0,-1 0,0 0,0 -1,0 -1,0 -2,0 -2,0 -4,1 -6,1 -1,0 -2,0 -3,0 -1,0 -2,0 -3,-1 0,0 -1,0 -2,-1l0 0c0,0 0,0 0,0 0,1 0,2 0,2 0,0 0,1 0,1 1,0 1,0 1,1 -1,0 -2,1 -3,2 -1,1 -1,2 -2,2 0,0 0,1 0,1l0 0z"/>
    <path class="fil4 str2" d="M28 98c0,0 0,0 0,0 1,0 2,0 2,1 2,0 5,1 7,1 2,0 4,0 6,0 1,-1 2,-1 2,-1 1,0 1,0 1,0 0,0 0,0 0,0 0,0 0,0 0,0 -1,1 -1,1 -2,1 0,0 -1,0 -2,1 -2,0 -3,0 -5,0 -2,0 -4,0 -5,-1 -1,0 -2,0 -2,-1 -1,0 -1,0 -2,-1 0,0 0,0 0,0z"/>
    <path class="fil4 str2" d="M48 72c0,0 0,1 1,1 0,1 1,3 1,4 1,2 1,5 1,8 1,2 0,5 -1,7 0,1 0,2 -1,2 0,0 0,1 0,1 0,0 0,0 -1,1 0,0 0,0 0,1 0,0 0,0 -1,0 0,1 0,1 0,1 -1,0 -1,0 -1,0 -1,0 -2,0 -2,-1 1,0 2,0 3,-1 1,-1 1,-2 0,-4 1,0 1,0 1,0 0,0 1,0 1,-1 0,0 0,-1 0,-2 0,-1 0,-1 0,-2 0,0 0,0 0,0 0,-1 0,-1 0,-2 1,0 1,-1 1,-2 0,-1 0,-3 -1,-4 0,-1 -1,-3 -1,-4 0,0 -1,-1 -1,-1 0,-1 -1,-1 -1,-2 0,0 0,0 1,0 0,-1 0,-1 0,-1 0,0 1,1 1,1z"/>
    <path class="fil4 str2" d="M39 92c1,-1 2,-1 4,-1 1,0 2,0 3,1 1,1 1,3 0,4 -1,0 -2,1 -3,1 0,0 0,0 0,0 1,0 2,-1 2,-1 1,-1 1,-3 0,-3 -1,-1 -2,-1 -3,-1 -1,0 -2,0 -3,0 0,0 0,0 0,0 0,0 0,0 0,-1 0,0 1,0 1,0 1,-1 1,-1 2,-1 2,0 4,0 5,1 1,1 1,3 0,4 -1,1 -2,2 -3,2 0,0 0,0 -1,0 1,0 1,0 1,0 1,0 1,-1 2,-1 1,-1 1,-3 0,-4 0,-1 -2,-1 -3,-2 -2,0 -3,0 -4,2 0,0 0,0 0,0z"/>
    <path class="fil4 str2" d="M43 94c-1,0 -1,0 -2,0 0,-1 -1,0 -1,0 0,0 0,-1 0,-1 1,0 2,0 3,0 1,1 1,2 1,2 -1,1 -1,1 -2,1 0,0 0,0 0,0 1,0 1,-1 1,-2z"/>
    <path class="fil4 str2" d="M38 89c1,0 1,0 2,0 1,0 1,-1 2,-1 -1,0 -1,1 -1,1 0,0 -1,0 -1,0 -1,0 -2,1 -2,0 0,0 0,0 0,0z"/>
    <path class="fil4 str2" d="M34 77c1,0 2,-1 3,0 1,0 1,0 1,0l0 0 0 0c0,0 0,0 0,0 1,0 1,0 1,0l0 0c0,0 0,1 0,1 0,0 0,0 0,1 0,0 0,0 0,0l0 0c0,0 0,0 0,-1 0,0 -1,0 -1,0 -1,0 -1,0 -2,0 0,1 -1,1 -1,1 -1,-1 -1,-1 -1,-2z"/>
    <path class="fil4 str2" d="M39 65c0,0 0,0 0,0l0 1 0 0c0,0 -1,0 -1,0 -1,-1 -1,-1 -1,-2 0,0 0,1 1,1 1,0 1,0 1,-1 0,0 0,1 0,1z"/>
    <path class="fil4 str2" d="M43 67c0,1 0,1 0,1 0,0 0,0 0,0 -1,1 -1,1 -2,1 0,-1 0,-1 0,-2l0 0 0 0c0,0 0,0 0,0 1,0 1,0 1,1 0,0 1,0 1,-1z"/>
    <path class="fil4 str2" d="M42 65c0,0 0,0 0,0 0,0 -1,1 -1,1 0,0 -1,0 -1,-1 -1,0 -1,-1 -1,-1 1,0 1,1 1,1 1,0 1,0 1,0 1,-1 1,-1 1,-1 0,0 0,1 0,1z"/>
    <path class="fil4 str2" d="M40 67c0,1 1,1 1,0 0,1 0,1 0,1 0,0 0,1 0,1 -1,0 -1,0 -1,-1 -1,0 -1,-1 -1,-1l0 0c0,0 0,0 0,0 0,0 1,0 1,0z"/>
    <path class="fil4 str2" d="M39 68c0,1 -1,1 -2,0 0,0 0,-1 0,-1l0 0c0,0 0,0 0,0 0,0 0,0 1,0 0,1 1,0 1,0 0,0 0,1 0,1z"/>
    <path class="fil4 str2" d="M45 88c0,0 0,0 0,0 0,0 1,0 1,0 0,1 0,1 0,1 0,0 0,0 0,0 0,0 -1,0 -2,-1l0 0c0,0 0,0 1,0z"/>
    <path class="fil4 str2" d="M46 87c0,1 -1,0 -2,-1 1,0 1,0 1,0 1,0 1,0 1,1l0 0z"/>
    <path class="fil4 str2" d="M47 88c-1,0 -1,0 -1,-1 1,1 1,1 2,2 0,0 0,1 0,1 0,1 -1,1 -1,1l0 0 0 0c0,0 0,0 0,-1 0,-1 0,-1 0,-2z"/>
    <path class="fil4 str2" d="M48 91c0,-1 0,-1 0,-2 0,-1 -1,-1 -2,-2l0 0 0 0 0 0 0 0c0,0 0,0 0,0 0,0 0,0 1,0 0,0 -1,0 -1,0 0,0 1,0 1,0l0 0c1,0 1,1 1,2 1,1 1,1 0,2 0,0 0,1 -1,1 0,0 0,0 0,0 0,-1 1,-1 1,-1z"/>
    <path class="fil4 str2" d="M48 92c0,-1 1,-2 1,-2 0,-1 -1,-4 -2,-4l0 0c0,0 0,0 0,0 0,0 0,0 0,0 2,0 2,2 2,3 0,1 0,2 -1,2 0,1 0,1 -1,1 0,0 0,0 0,0 1,0 1,0 1,0z"/>
    <path class="fil4 str2" d="M46 81c0,0 1,1 1,1 0,1 1,1 1,2 -1,0 -1,0 -1,0 0,0 0,0 0,0 0,-1 0,-2 -1,-3z"/>
    <path class="fil4 str2" d="M47 85c0,-1 0,-1 1,-1 0,-1 0,-1 0,-1 -1,-1 -1,-2 -2,-2 0,0 0,0 -1,0 0,0 0,-1 0,-1 1,0 1,1 2,1 0,0 1,1 1,1 0,1 0,2 0,3 -1,0 -1,0 -1,1 0,-1 0,-1 0,-1z"/>
    <path class="fil4 str2" d="M48 85c0,0 0,0 0,-1 0,0 0,-1 0,-2 0,0 0,-1 -1,-1 0,0 -1,-1 -2,-1 0,0 0,0 0,0 0,0 1,0 2,0 0,0 1,1 1,2 1,0 1,1 1,2 -1,1 -1,1 -1,2 -1,0 -1,0 -1,0l0 0c0,-1 0,-1 1,-1z"/>
    <path class="fil4 str2" d="M41 77c0,0 0,-1 0,-1 0,0 0,0 0,0 1,0 1,1 1,1 0,0 0,0 0,1 0,0 0,0 0,0 0,0 0,0 0,0l0 0c0,-1 0,-1 -1,-1z"/>
    <path class="fil4 str2" d="M40 77c0,0 0,0 0,0 0,0 0,0 0,0 0,0 0,0 1,0 0,0 0,0 0,0 0,0 0,0 0,0 0,0 1,0 1,1 -1,0 -1,0 -1,0 0,0 0,-1 -1,-1z"/>
    <path class="fil4 str2" d="M41 78c-1,0 -1,0 -1,0 0,0 0,1 -1,1 0,-1 0,-1 0,-1 0,-1 1,-1 1,-1 0,0 0,0 0,0 0,1 0,1 1,1z"/>
    <path class="fil4 str2" d="M43 78c0,-1 -1,-1 -1,-1 0,-1 0,-1 -1,-1 1,0 1,0 1,0 0,0 1,0 1,1 0,0 0,1 0,1 0,0 0,0 -1,0l0 0c0,0 0,0 0,0 0,0 1,0 1,0z"/>
    <path class="fil4 str2" d="M35 73c0,-1 -1,-2 -1,-2l0 0c1,0 2,0 2,0 0,0 0,1 0,1 0,1 0,1 0,2 -1,-1 -1,-1 -1,-1z"/>
    <path class="fil4 str2" d="M37 72c0,0 0,-1 0,-1 0,0 0,0 1,0 0,0 1,0 1,0 0,0 0,1 -1,1 0,1 0,1 0,2 -1,-1 -1,-1 -1,-2z"/>
    <path class="fil4 str2" d="M39 71c1,0 2,0 2,0 0,1 0,1 -1,2 0,0 -1,1 -1,1 0,-1 0,-2 0,-3z"/>
    <path class="fil4 str2" d="M42 71c0,0 0,0 0,0 0,1 1,1 1,1l0 0c0,1 -1,2 -2,3 0,-1 0,-1 0,-1 0,0 0,-1 0,-1 0,-1 0,-1 1,-2z"/>
    <path class="fil4 str2" d="M43 72c1,1 1,1 1,1 0,1 -1,1 -1,2 -1,0 -1,0 -1,0 0,0 0,-1 1,-1 0,-1 0,-1 0,-2z"/>
    <path class="fil4 str2" d="M42 76c0,-1 0,-1 1,-1 0,0 1,1 1,1 1,1 1,2 0,3 0,0 -1,0 -1,-1 1,-1 0,-2 -1,-2z"/>
    <path class="fil4 str2" d="M45 77c-1,-1 -1,-2 -2,-2l0 0c0,0 0,0 0,0 1,0 2,1 2,1 1,1 0,3 -1,4 0,-1 0,-1 0,-1 0,0 0,0 0,0 1,0 1,-1 1,-2z"/>
    <path class="fil4 str2" d="M45 76c0,0 0,-1 0,-1 -1,0 -1,0 -2,0 1,-1 1,-1 1,-1 0,0 1,1 1,1 1,0 1,1 1,2 0,0 0,1 0,2 0,0 -1,1 -1,1 0,0 0,0 0,0 0,0 0,0 -1,0 1,-1 2,-3 1,-4z"/>
    <path class="fil4 str2" d="M31 71c1,-1 2,-1 3,-1 1,0 2,0 4,0 1,0 3,0 4,1 1,0 2,0 2,1 0,0 1,0 1,0 0,0 0,1 0,1 0,0 0,0 -1,0 0,-1 -1,-1 -2,-2 -1,0 -3,-1 -4,-1 -2,0 -3,1 -5,1 0,0 -1,0 -2,0 0,1 0,1 0,1 -1,0 -1,-1 -1,-1 0,0 1,0 1,0z"/>
    <path class="fil4 str2" d="M34 74c-1,0 -1,-1 -1,-1 -1,-1 -1,-1 -1,-1 0,0 0,0 0,-1 1,0 1,0 2,0 0,1 0,1 0,2 0,0 0,1 0,1z"/>
    <path class="fil4 str2" d="M31 72c1,0 1,1 1,2 0,-1 0,-1 0,-1 -1,0 -1,-1 -1,-1 0,0 0,0 0,0z"/>
    <path class="fil4 str2" d="M37 74c1,0 2,0 2,0 1,1 1,1 1,1 1,0 1,0 1,1 0,0 0,0 0,0 -1,-1 -3,-1 -4,-1 -1,0 -2,0 -2,0 -1,0 -1,0 -2,0 0,0 0,0 0,0 0,0 0,0 0,0 1,-1 2,-1 4,-1z"/>
    <path class="fil4 str2" d="M39 79c0,0 -1,1 -2,1 0,1 -1,1 -1,2 0,0 0,0 0,0l0 0"/>
    <path class="fil4 str2" d="M49 70c0,0 1,0 1,-1 1,0 1,0 2,0 0,-1 0,-1 1,-1 0,0 1,-1 1,-1 0,0 0,0 0,0 0,1 -1,1 -1,1 -1,1 -1,1 -1,2 -1,0 -2,0 -2,1 0,-1 -1,-1 -1,-1z"/>
    <path class="fil4 str2" d="M52 75c0,-1 0,-2 -1,-3 0,1 1,1 1,1 1,0 1,1 2,1 -1,0 -1,1 -2,1z"/>
    <path class="fil4 str2" d="M54 74c0,0 0,-1 0,-1 0,-1 1,-1 1,-2l0 0c0,0 0,1 1,1 0,0 1,1 1,1 -1,0 -2,1 -3,1z"/>
    <path class="fil4 str2" d="M59 78c0,0 0,0 0,0 -1,0 -2,0 -2,0 -1,0 -1,0 -2,-1 0,0 0,-1 0,-1 0,0 0,-1 0,-1 0,0 0,-1 -1,-1 1,0 2,0 2,-1 0,1 0,1 1,1 -1,0 -1,0 -1,0 0,1 0,1 0,1 0,0 0,0 0,1 0,0 1,0 1,0 0,0 -1,0 -1,0 0,0 0,0 0,0 0,1 2,1 2,1 1,0 1,0 1,0 0,1 0,1 0,1 0,0 1,0 0,0z"/>
    <path class="fil4 str2" d="M57 75c0,0 0,0 0,0 1,0 2,0 3,0 0,0 0,0 0,0 0,0 0,0 0,0 1,0 1,0 1,1 -1,0 -2,0 -3,0 0,0 0,0 -1,0 0,0 0,-1 0,-1 -1,0 0,0 0,0z"/>
    <path class="fil4 str2" d="M61 76c0,1 -1,1 -2,1 0,0 -1,0 -1,0 0,0 -1,0 -1,0 0,0 -1,-1 -1,-1 1,0 1,0 1,0 0,0 0,0 0,0 0,0 0,0 0,0 0,0 1,0 1,0 0,0 2,0 2,0 0,0 0,0 1,0l0 0c0,0 0,0 0,0z"/>
    <path class="fil4 str2" d="M61 74c0,1 0,1 0,1 -1,0 -1,0 -1,0 -1,0 -1,0 -1,0 -1,0 -1,0 -2,0 0,0 -1,-1 0,-1 0,0 1,0 1,0 1,0 2,0 2,0 0,0 0,0 0,0 0,0 1,0 1,0z"/>
    <path class="fil4 str2" d="M59 72c0,0 0,0 1,0 0,0 0,0 0,0 0,0 1,1 0,1 0,0 0,0 0,0 0,0 0,0 -1,1 0,0 0,0 0,0 -1,0 -2,0 -2,-1 0,0 0,0 0,0 0,0 0,0 1,0 0,0 1,-1 1,-1z"/>
    <path class="fil4 str2" d="M57 73c0,-1 0,-2 0,-3 1,0 1,0 2,1 0,0 0,0 1,0 -1,1 -2,1 -3,2z"/>
    <path class="fil4 str2" d="M60 68c1,0 1,1 2,2 -1,0 -1,1 -2,1 0,0 0,0 0,0 0,0 0,0 0,0 0,-1 0,-1 0,-2 0,0 0,-1 0,-1z"/>
    <path class="fil4 str2" d="M60 68c0,0 0,0 0,0 -1,0 -1,1 -2,1 -1,0 -1,1 -2,1 -1,0 -1,1 -1,1l0 0c-2,0 -3,1 -4,1 0,0 0,0 0,0 0,0 0,0 -1,-1 1,0 1,0 1,0 1,0 1,0 1,0 1,0 2,-1 3,-1 1,-1 2,-1 2,-2 1,0 2,-1 2,-1 0,0 1,0 1,1z"/>
    <path class="fil4 str2" d="M55 65l0 0c0,0 0,0 -1,0 0,1 -1,1 -1,2 -1,0 -1,1 -2,1 0,0 -1,0 -1,0 0,0 -1,1 0,0 0,0 1,-1 2,-2 0,-1 0,-1 0,-2 1,0 1,0 1,0 1,0 1,0 2,1z"/>
    <path class="fil4 str2" d="M56 66c-1,1 -1,1 -2,2 0,0 0,1 -1,1 0,0 -1,1 -1,1 1,0 1,0 2,-1 0,0 1,0 2,-1 0,0 1,0 1,-1 1,0 1,0 2,-1 -1,0 -2,-1 -3,-1 0,0 0,1 0,1z"/>
    <path class="fil4 str2" d="M45 62c1,0 2,0 3,0 1,1 2,1 3,1 0,0 1,0 1,0 0,0 0,0 0,0 0,1 0,1 -1,2 0,1 -1,2 -1,2 -1,2 -2,3 -3,4l0 0c0,0 0,0 -1,0 0,0 0,1 0,1 0,-1 -1,-1 -1,-1 -1,-1 -1,-1 -2,-1l0 0c0,-1 0,-1 0,-1 0,0 1,0 1,-1 0,-1 0,-1 1,-2 0,-1 0,-1 0,-2 0,0 0,-1 0,-1 0,0 0,-1 0,-1z"/>
    <path class="fil4 str2" d="M44 62c0,0 0,0 0,0 0,1 0,1 0,1 0,0 -1,0 -1,0 -1,0 -1,-1 -1,-1 1,0 2,0 2,0z"/>
    <path class="fil4 str2" d="M43 65c0,0 1,0 1,-1l0 0c0,1 0,1 0,2 0,0 -1,0 -1,0 0,1 -1,0 -1,0 0,-1 0,-1 0,-2 0,0 0,0 0,0l0 0 0 0 0 -1c0,1 0,2 1,2z"/>
    <path class="fil4 str2" d="M40 62c1,0 1,0 2,0 0,1 -1,1 -2,1 0,0 0,0 -1,-1 1,0 1,0 1,0z"/>
    <path class="fil4 str2" d="M37 62c1,0 2,0 2,0l0 0c0,1 0,1 -1,1 -1,0 -1,0 -1,-1 0,0 0,0 0,0z"/>
    <path class="fil4 str2" d="M37 65c0,1 0,1 -1,1 0,0 0,0 -1,0 0,-1 0,-1 0,-2 0,1 0,1 1,1 0,0 1,0 1,-1 0,0 0,1 0,1z"/>
    <path class="fil4 str2" d="M37 62l0 0c0,1 0,1 -1,1 0,1 -1,0 -1,0 1,0 1,0 2,-1z"/>
    <path class="fil4 str2" d="M35 67c0,1 0,1 1,1 0,0 1,-1 1,-1 0,0 0,1 0,1l0 0c0,0 -1,0 -1,1 -1,0 -1,-1 -1,-1 0,0 0,-1 0,-1z"/>
    <path class="fil4 str2" d="M33 63c0,0 0,0 0,0 0,1 1,2 1,3 0,1 0,1 0,2 0,0 0,1 0,1 -1,0 -1,0 -1,0 -1,0 -3,1 -4,1 -1,0 -1,-1 -2,-1 1,0 1,-1 2,-2 0,-1 1,-2 1,-3 1,0 2,-1 3,-1z"/>
    <path class="fil4 str2" d="M28 64c1,0 1,0 2,0 0,0 -1,1 -1,1 0,0 -2,1 -3,1 -1,0 -2,0 -3,0 0,1 0,0 -1,1l0 0c1,-1 1,-1 1,-1 1,0 2,-1 2,-1 1,0 2,-1 3,-1z"/>
    <path class="fil4 str2" d="M25 65c0,0 -1,0 -1,0 -1,1 -1,1 -2,1 -1,0 -1,0 -2,0l0 0 0 0c0,0 0,0 0,0 0,0 0,0 0,0 0,0 2,0 2,-1 0,0 1,0 1,0 0,0 1,0 1,0 0,0 1,0 1,0z"/>
    <path class="fil4 str2" d="M20 66c0,0 0,0 0,0 0,0 0,0 0,0l0 0c2,0 3,1 5,2 2,1 3,2 5,3 0,1 1,2 1,3 1,0 1,1 2,2 1,2 2,4 2,6 1,2 1,4 2,5 0,1 0,1 1,2l0 0 0 0c0,0 0,1 0,1 0,1 1,2 1,3 1,1 1,1 2,2 0,1 1,1 2,2 0,0 0,0 0,0l0 0 0 0c1,1 2,1 3,1 -1,1 -2,1 -3,1 0,0 0,0 0,0 -2,0 -3,-1 -4,-2 -2,-1 -3,-3 -3,-5 -1,-1 -1,-2 -1,-3 -1,0 -1,-1 -1,-2 -1,-2 -1,-4 -2,-6 -1,-3 -3,-6 -6,-9 -1,-1 -2,-2 -4,-3 -1,0 -2,0 -3,0 0,-1 -1,-1 -2,-1 1,-1 2,-2 3,-2z"/>
    <path class="fil4 str2" d="M53 81c0,0 0,0 0,0 0,-1 1,-2 1,-2 1,0 1,0 2,-1 0,0 0,0 0,0l0 0c0,0 -1,1 -1,2 0,0 -1,1 -2,1l0 0c1,0 2,-1 3,-1 0,-1 0,-1 0,-2 0,1 0,2 -1,3 -1,0 -1,0 -2,0 0,0 0,0 0,0z"/>
    <path class="fil4 str2" d="M61 82c0,0 -1,0 -1,0 -1,-1 -2,-2 -2,-3 0,1 1,1 1,1 1,1 2,1 2,2l0 0c0,-1 -1,-1 -1,-2 -1,0 -2,-1 -2,-1l0 0c0,0 1,0 1,0 0,0 1,0 1,1 1,0 1,1 2,2 0,0 0,0 0,0 0,0 -1,0 -1,0z"/>
    <path class="fil4 str2" d="M44 81c0,0 0,0 0,0l0 0c0,0 0,0 0,0 0,0 -1,0 -1,0 0,0 0,0 0,0 -1,0 -1,0 -1,0 0,0 0,0 -1,0 0,0 0,0 -1,0l0 0c0,0 0,0 0,0"/>
    <path class="fil4 str2" d="M43 81c0,-1 -1,-1 -2,-1"/>
    <path class="fil4 str2" d="M37 87l0 0 0 0c1,0 1,0 1,-1 1,0 2,0 3,1 -1,1 -2,1 -4,0z"/>
    <path class="fil4 str2" d="M43 83c0,0 0,0 -1,0l0 0c0,0 0,0 0,0 0,0 0,0 0,0 0,1 0,1 0,1 0,0 0,0 0,0l0 0c0,0 0,0 0,0 0,0 0,0 0,0 0,0 1,-1 1,-1 0,0 1,0 1,0 0,0 0,0 1,0l0 0c0,0 0,0 0,0 0,1 0,1 0,1 -1,0 -1,0 -1,1 -1,0 -1,2 0,3l0 0c0,-1 0,-3 0,-3 0,-1 1,-1 1,-1 0,0 0,0 0,0 0,-1 -1,-1 -1,-1 -1,-1 -1,0 -1,0z"/>
    <path class="fil4 str5" d="M38 87c0,0 0,0 1,0 0,0 1,0 1,0 0,-1 -2,-1 -2,0z"/>
    <path class="fil4 str6" d="M45 87c0,0 0,0 0,0 0,0 1,0 1,0 0,-1 -2,-1 -1,0z"/>
   </g>
   <g>
    <polyline class="fil2 str7" points="18,10 72,10 72,84 "/>
    <polyline class="fil2 str7" points="63,112 9,112 9,38 "/>
   </g>
  </g>
 </g>
</svg>
