<?xml version="1.0" encoding="UTF-8"?>
<!DOCTYPE svg PUBLIC "-//W3C//DTD SVG 1.1//EN" "http://www.w3.org/Graphics/SVG/1.1/DTD/svg11.dtd">
<!-- Creator: CorelDRAW X7 -->
<svg xmlns="http://www.w3.org/2000/svg" xml:space="preserve" width="72.4147mm" height="108.327mm" version="1.1" style="shape-rendering:geometricPrecision; text-rendering:geometricPrecision; image-rendering:optimizeQuality; fill-rule:evenodd; clip-rule:evenodd"
viewBox="0 0 86 129"
 xmlns:xlink="http://www.w3.org/1999/xlink">
 <defs>
  <style type="text/css">
   <![CDATA[
    .str1 {stroke:#4DFFFF;stroke-width:0.892514}
    .str0 {stroke:#2B2A29;stroke-width:0.238004}
    .fil2 {fill:none}
    .fil0 {fill:#162632}
    .fil1 {fill:#4DFFFF;fill-rule:nonzero}
    .fil3 {fill:#4DFFFF;fill-rule:nonzero}
   ]]>
  </style>
 </defs>
 <g id="Слой_x0020_1">
  <metadata id="CorelCorpID_0Corel-Layer"/>
  <g id="_2867389459392">
   <g>
    <rect class="fil0" x="1" y="1" width="84.9586" height="127.695" rx="5" ry="5"/>
    <path class="fil1" d="M5 0l76 0c1,0 3,1 4,2 1,1 1,2 1,3l0 118c0,2 0,3 -1,4 -1,1 -3,2 -4,2l-76 0c-1,0 -2,-1 -3,-2 -1,-1 -2,-2 -2,-4l0 -118c0,-1 1,-2 2,-3 1,-1 2,-2 3,-2zm76 1l-76 0c-1,0 -2,1 -3,1 0,1 -1,2 -1,3l0 118c0,2 1,3 1,3 1,1 2,2 3,2l76 0c1,0 2,-1 3,-2 0,0 1,-1 1,-3l0 -118c0,-1 -1,-2 -1,-3 -1,0 -2,-1 -3,-1z"/>
    <rect class="fil2 str0" x="34" y="55" width="17.1818" height="19.0045"/>
    <g>
     <g>
      <path class="fil3" d="M8 14l-1 2c0,0 0,0 0,0 0,0 0,0 0,0 0,0 -1,0 -1,0 0,0 0,0 0,0l0 0 3 -8c0,-1 0,-1 0,-1 1,0 1,0 1,1l3 8 0 0c0,0 0,0 -1,0 0,0 0,0 0,0 0,0 0,0 0,0 0,0 0,0 0,0l-1 -2 -3 0zm3 -1l-2 -4 -1 4 3 0z"/>
      <polygon class="fil2 str1" points="10,26 7,22 10,19 12,22 "/>
     </g>
     <g>
      <path class="fil3" d="M78 115l1 -2c0,0 0,0 0,0 0,0 0,-1 1,-1 0,0 0,1 0,1 0,0 0,0 0,0l0 0 -3 8c0,1 0,1 0,1 0,0 -1,0 -1,-1l-2 -8 0 0c0,0 0,0 0,0 0,0 0,-1 0,-1 0,0 0,0 0,1 0,0 0,0 0,0l1 2 3 0zm-3 1l2 4 1 -4 -3 0z"/>
      <polygon class="fil2 str1" points="77,103 79,107 77,110 74,107 "/>
     </g>
    </g>
    <polygon class="fil2 str1" points="43,73 37,65 43,55 49,65 "/>
    <rect class="fil0" x="1" y="1" width="84.9586" height="127.695" rx="5" ry="5"/>
    <path class="fil1" d="M5 0l76 0c1,0 3,1 4,2 1,1 1,2 1,3l0 118c0,2 0,3 -1,4 -1,1 -3,2 -4,2l-76 0c-1,0 -2,-1 -3,-2 -1,-1 -2,-2 -2,-4l0 -118c0,-1 1,-2 2,-3 1,-1 2,-2 3,-2zm76 1l-76 0c-1,0 -2,1 -3,1 0,1 -1,2 -1,3l0 118c0,2 1,3 1,3 1,1 2,2 3,2l76 0c1,0 2,-1 3,-2 0,0 1,-1 1,-3l0 -118c0,-1 -1,-2 -1,-3 -1,0 -2,-1 -3,-1z"/>
    <g>
     <g>
      <path class="fil3" d="M7 15c0,0 0,1 0,1 0,0 0,0 0,0 0,0 0,0 0,0 0,0 -1,-1 -1,-1l0 -7 -1 1c0,0 0,0 0,0 0,0 0,0 0,0 0,0 0,0 0,0 0,0 0,0 0,0l2 -2c0,0 0,0 0,0 0,0 0,0 0,0 0,0 0,0 0,0 0,0 0,0 0,0l0 8z"/>
      <path id="1" class="fil3" d="M14 14c0,0 0,1 -1,1 0,1 -1,1 -1,1l-1 0c0,0 -1,0 -1,-1 -1,0 -1,-1 -1,-1l0 -5c0,-1 0,-1 1,-2 0,0 1,0 1,0l1 0c0,0 1,0 1,0 1,1 1,1 1,2l0 5zm-1 0l0 -5c0,-1 0,-1 0,-1 -1,0 -1,0 -1,0l-1 0c0,0 0,0 -1,0 0,0 0,0 0,1l0 5c0,0 0,0 0,1 1,0 1,0 1,0l1 0c0,0 0,0 1,0 0,-1 0,-1 0,-1z"/>
      <polygon class="fil2 str1" points="10,26 7,22 10,19 12,22 "/>
     </g>
     <g>
      <path class="fil3" d="M79 114c0,0 0,-1 0,-1 0,0 0,0 1,0 0,0 0,0 0,0 0,0 0,1 0,1l0 7 1 -1c0,0 0,0 0,0 1,0 1,0 1,0 0,0 0,0 0,0 0,0 0,0 0,0l-2 2c0,0 0,0 0,0 0,1 0,1 -1,1 0,0 0,-1 0,-1 0,0 0,0 0,0l0 -8z"/>
      <path id="1" class="fil3" d="M73 115c0,0 0,-1 0,-1 1,-1 1,-1 2,-1l0 0c1,0 1,0 2,1 0,0 0,1 0,1l0 5c0,1 0,1 0,2 -1,0 -1,0 -2,0l0 0c-1,0 -1,0 -2,0 0,-1 0,-1 0,-2l0 -5zm1 0l0 5c0,1 0,1 0,1 0,0 0,1 1,1l0 0c1,0 1,-1 1,-1 0,0 0,0 0,-1l0 -5c0,0 0,0 0,0 0,-1 0,-1 -1,-1l0 0c-1,0 -1,0 -1,1 0,0 0,0 0,0z"/>
      <polygon class="fil2 str1" points="77,103 79,107 77,110 74,107 "/>
     </g>
    </g>
   </g>
   <polygon class="fil2 str1" points="28,28 21,19 28,10 34,19 "/>
   <polygon class="fil2 str1" points="28,121 21,112 28,103 34,112 "/>
   <polygon class="fil2 str1" points="61,28 54,19 61,10 67,19 "/>
   <polygon class="fil2 str1" points="61,121 54,112 61,103 67,112 "/>
   <polygon class="fil2 str1" points="28,90 21,81 28,72 34,81 "/>
   <polygon class="fil2 str1" points="28,59 21,50 28,41 34,50 "/>
   <polygon class="fil2 str1" points="61,59 54,50 61,41 67,50 "/>
   <polygon class="fil2 str1" points="61,90 54,81 61,72 67,81 "/>
   <polygon class="fil2 str1" points="44,45 38,36 44,27 51,36 "/>
   <polygon class="fil2 str1" points="44,106 38,97 44,88 51,97 "/>
  </g>
 </g>
</svg>
