<?xml version="1.0" encoding="UTF-8"?>
<!DOCTYPE svg PUBLIC "-//W3C//DTD SVG 1.1//EN" "http://www.w3.org/Graphics/SVG/1.1/DTD/svg11.dtd">
<!-- Creator: CorelDRAW X7 -->
<svg xmlns="http://www.w3.org/2000/svg" xml:space="preserve" width="72.4147mm" height="108.327mm" version="1.1" style="shape-rendering:geometricPrecision; text-rendering:geometricPrecision; image-rendering:optimizeQuality; fill-rule:evenodd; clip-rule:evenodd"
viewBox="0 0 118 176"
 xmlns:xlink="http://www.w3.org/1999/xlink">
 <defs>
  <style type="text/css">
   <![CDATA[
    .str1 {stroke:#4DFFFF;stroke-width:1.21871}
    .str0 {stroke:#2B2A29;stroke-width:0.324989}
    .fil2 {fill:none}
    .fil0 {fill:#162632}
    .fil1 {fill:#4DFFFF;fill-rule:nonzero}
    .fil3 {fill:#4DFFFF;fill-rule:nonzero}
   ]]>
  </style>
 </defs>
 <g id="Слой_x0020_1">
  <metadata id="CorelCorpID_0Corel-Layer"/>
  <g id="_2867301388656">
   <rect class="fil0" x="1" y="1" width="116" height="174" rx="7" ry="7"/>
   <path class="fil1" d="M7 0l103 0c2,0 4,1 5,2 2,2 3,3 3,5l0 162c0,2 -1,3 -3,5 -1,1 -3,2 -5,2l-103 0c-2,0 -3,-1 -5,-2 -1,-2 -2,-3 -2,-5l0 -162c0,-2 1,-3 2,-5 2,-1 3,-2 5,-2zm103 2l-103 0c-1,0 -3,0 -4,1 -1,1 -1,3 -1,4l0 162c0,1 0,3 1,4 1,1 3,1 4,1l103 0c2,0 3,0 4,-1 1,-1 2,-3 2,-4l0 -162c0,-1 -1,-3 -2,-4 -1,-1 -2,-1 -4,-1z"/>
   <rect class="fil2 str0" x="47" y="75" width="23.4614" height="25.9502"/>
   <g>
    <g>
     <path class="fil3" d="M11 19l-1 3c0,0 0,0 -1,0 0,0 0,0 0,0 0,0 0,0 0,0 0,0 -1,0 -1,0l1 0 3 -12c0,0 1,0 1,0 0,0 0,0 0,0l4 12 0 0c0,0 0,0 0,0 0,0 0,0 0,0 0,0 -1,0 -1,0 0,0 0,0 0,0l-1 -3 -4 0zm4 -1l-2 -5 -2 5 4 0z"/>
     <polygon class="fil2 str1" points="13,35 10,31 13,26 16,31 "/>
    </g>
    <g>
     <path class="fil3" d="M107 157l1 -3c0,0 0,0 0,0 0,0 0,0 1,0 0,0 0,0 0,0 0,0 0,0 0,0l0 0 -4 12c0,0 0,0 0,0 0,0 -1,0 -1,0l-4 -12 0 0c0,0 0,0 1,0 0,0 0,0 0,0 0,0 0,0 0,0 0,0 1,0 1,0l1 3 4 0zm-4 1l2 5 2 -5 -4 0z"/>
     <polygon class="fil2 str1" points="105,141 108,146 105,150 101,146 "/>
    </g>
   </g>
   <polygon class="fil2 str1" points="59,100 50,88 59,76 68,88 "/>
   <rect class="fil0" x="1" y="1" width="116" height="174" rx="7" ry="7"/>
   <path class="fil1" d="M7 0l103 0c2,0 4,1 5,2 2,2 3,3 3,5l0 162c0,2 -1,3 -3,5 -1,1 -3,2 -5,2l-103 0c-2,0 -3,-1 -5,-2 -1,-2 -2,-3 -2,-5l0 -162c0,-2 1,-3 2,-5 2,-1 3,-2 5,-2zm103 2l-103 0c-1,0 -3,0 -4,1 -1,1 -1,3 -1,4l0 162c0,1 0,3 1,4 1,1 3,1 4,1l103 0c2,0 3,0 4,-1 1,-1 2,-3 2,-4l0 -162c0,-1 -1,-3 -2,-4 -1,-1 -2,-1 -4,-1z"/>
   <g>
    <g>
     <path class="fil3" d="M11 19l-1 3c0,0 0,0 -1,0 0,0 0,0 0,0 0,0 0,0 0,0 0,0 -1,0 -1,0l1 0 3 -12c0,0 1,0 1,0 0,0 0,0 0,0l4 12 0 0c0,0 0,0 0,0 0,0 0,0 0,0 0,0 -1,0 -1,0 0,0 0,0 0,0l-1 -3 -4 0zm4 -1l-2 -5 -2 5 4 0z"/>
     <polygon class="fil2 str1" points="13,35 10,31 13,26 16,31 "/>
    </g>
    <g>
     <path class="fil3" d="M107 157l1 -3c0,0 0,0 0,0 0,0 0,0 1,0 0,0 0,0 0,0 0,0 0,0 0,0l0 0 -4 12c0,0 0,0 0,0 0,0 -1,0 -1,0l-4 -12 0 0c0,0 0,0 1,0 0,0 0,0 0,0 0,0 0,0 0,0 0,0 1,0 1,0l1 3 4 0zm-4 1l2 5 2 -5 -4 0z"/>
     <polygon class="fil2 str1" points="105,141 108,146 105,150 101,146 "/>
    </g>
   </g>
   <polygon class="fil2 str1" points="59,100 50,88 59,76 68,88 "/>
  </g>
 </g>
</svg>
