<?xml version="1.0" encoding="UTF-8"?>
<!DOCTYPE svg PUBLIC "-//W3C//DTD SVG 1.1//EN" "http://www.w3.org/Graphics/SVG/1.1/DTD/svg11.dtd">
<!-- Creator: CorelDRAW X7 -->
<svg xmlns="http://www.w3.org/2000/svg" xml:space="preserve" width="72.4147mm" height="108.327mm" version="1.1" style="shape-rendering:geometricPrecision; text-rendering:geometricPrecision; image-rendering:optimizeQuality; fill-rule:evenodd; clip-rule:evenodd"
viewBox="0 0 101 151"
 xmlns:xlink="http://www.w3.org/1999/xlink">
 <defs>
  <style type="text/css">
   <![CDATA[
    .str1 {stroke:#4DFFFF;stroke-width:1.04841}
    .str0 {stroke:#2B2A29;stroke-width:0.279576}
    .fil2 {fill:none}
    .fil0 {fill:#162632}
    .fil1 {fill:#4DFFFF;fill-rule:nonzero}
    .fil3 {fill:#4DFFFF;fill-rule:nonzero}
   ]]>
  </style>
 </defs>
 <g id="Слой_x0020_1">
  <metadata id="CorelCorpID_0Corel-Layer"/>
  <g id="_2867389453728">
   <g>
    <rect class="fil0" x="1" y="1" width="99.7983" height="150" rx="6" ry="6"/>
    <path class="fil1" d="M6 0l89 0c2,0 3,1 4,2 2,1 2,3 2,4l0 139c0,2 0,3 -2,5 -1,1 -2,1 -4,1l-89 0c-1,0 -3,0 -4,-1 -1,-2 -2,-3 -2,-5l0 -139c0,-1 1,-3 2,-4 1,-1 3,-2 4,-2zm89 1l-89 0c-1,0 -2,1 -3,2 -1,1 -2,2 -2,3l0 139c0,1 1,3 2,4 1,0 2,1 3,1l89 0c1,0 2,-1 3,-1 1,-1 2,-3 2,-4l0 -139c0,-1 -1,-2 -2,-3 -1,-1 -2,-2 -3,-2z"/>
    <rect class="fil2 str0" x="41" y="65" width="20.183" height="22.324"/>
    <g>
     <g>
      <path class="fil3" d="M9 17l-1 2c0,0 0,0 0,0 0,0 0,0 0,0 0,0 0,0 -1,0 0,0 0,0 0,0l0 0 4 -10c0,0 0,-1 0,-1 0,0 0,1 1,1l3 10 0 0c0,0 0,0 0,0 0,0 -1,0 -1,0 0,0 0,0 0,0 0,0 0,0 0,0l-1 -2 -4 0zm4 -1l-2 -5 -2 5 4 0z"/>
      <polygon class="fil2 str1" points="11,30 8,26 11,22 14,26 "/>
     </g>
     <g>
      <path class="fil3" d="M92 135l1 -3c0,0 0,0 0,0 0,0 0,0 0,0 1,0 1,0 1,0 0,0 0,0 0,1l0 0 -3 10c0,0 -1,0 -1,0 0,0 0,0 0,0l-4 -10 0 0c0,-1 0,-1 1,-1 0,0 0,0 0,0 0,0 0,0 0,0 0,0 0,0 0,0l1 3 4 0zm-3 1l1 5 2 -5 -3 0z"/>
      <polygon class="fil2 str1" points="90,121 93,125 90,129 87,125 "/>
     </g>
    </g>
    <polygon class="fil2 str1" points="51,86 43,76 51,65 58,76 "/>
    <rect class="fil0" x="1" y="1" width="99.7983" height="150" rx="6" ry="6"/>
    <path class="fil1" d="M6 0l89 0c2,0 3,1 4,2 2,1 2,3 2,4l0 139c0,2 0,3 -2,5 -1,1 -2,1 -4,1l-89 0c-1,0 -3,0 -4,-1 -1,-2 -2,-3 -2,-5l0 -139c0,-1 1,-3 2,-4 1,-1 3,-2 4,-2zm89 1l-89 0c-1,0 -2,1 -3,2 -1,1 -2,2 -2,3l0 139c0,1 1,3 2,4 1,0 2,1 3,1l89 0c1,0 2,-1 3,-1 1,-1 2,-3 2,-4l0 -139c0,-1 -1,-2 -2,-3 -1,-1 -2,-2 -3,-2z"/>
    <g>
     <g>
      <path class="fil3" d="M10 10l0 3 2 0c0,0 1,0 1,1 1,0 1,1 1,1l0 2c0,0 0,1 -1,1 0,1 -1,1 -1,1l-3 0c0,0 0,0 0,0 0,0 0,0 0,0 0,0 0,-1 0,-1 0,0 0,0 0,0l3 0c0,0 0,0 1,0 0,-1 0,-1 0,-1l0 -2c0,0 0,0 0,-1 -1,0 -1,0 -1,0l-3 0c0,0 0,0 0,-1l0 -4c0,0 0,-1 0,-1l5 0c0,0 0,1 0,1 0,0 0,0 0,0 0,0 0,0 0,0 0,0 0,1 0,1l-4 0z"/>
      <polygon class="fil2 str1" points="11,30 8,26 11,22 14,26 "/>
     </g>
     <g>
      <path class="fil3" d="M92 142l0 -3 -2 0c-1,0 -1,0 -2,-1 -1,0 -1,-1 -1,-2l0 -1c0,0 0,-1 1,-2 1,0 1,0 2,0l2 0c0,0 0,0 0,0 1,0 1,0 1,0 0,0 0,0 -1,1 0,0 0,0 0,0l-2 0c-1,0 -1,0 -1,0 -1,1 -1,1 -1,1l0 1c0,1 0,1 1,2 0,0 0,0 1,0l2 0c0,0 1,0 1,1l0 4c0,0 -1,0 -1,0l-4 0c0,0 -1,0 -1,0 0,0 0,0 0,0 0,0 0,0 0,0 0,-1 1,-1 1,-1l4 0z"/>
      <polygon class="fil2 str1" points="90,121 93,125 90,129 87,125 "/>
     </g>
    </g>
   </g>
   <polygon class="fil2 str1" points="33,33 25,23 33,12 40,23 "/>
   <polygon class="fil2 str1" points="33,142 25,132 33,121 40,132 "/>
   <polygon class="fil2 str1" points="71,33 64,23 71,12 79,23 "/>
   <polygon class="fil2 str1" points="71,142 64,132 71,121 79,132 "/>
   <polygon class="fil2 str1" points="51,86 43,76 51,65 58,76 "/>
  </g>
 </g>
</svg>
