<?xml version="1.0" encoding="UTF-8"?>
<!DOCTYPE svg PUBLIC "-//W3C//DTD SVG 1.1//EN" "http://www.w3.org/Graphics/SVG/1.1/DTD/svg11.dtd">
<!-- Creator: CorelDRAW X7 -->
<svg xmlns="http://www.w3.org/2000/svg" xml:space="preserve" width="72.4147mm" height="108.327mm" version="1.1" style="shape-rendering:geometricPrecision; text-rendering:geometricPrecision; image-rendering:optimizeQuality; fill-rule:evenodd; clip-rule:evenodd"
viewBox="0 0 89 133"
 xmlns:xlink="http://www.w3.org/1999/xlink">
 <defs>
  <style type="text/css">
   <![CDATA[
    .str1 {stroke:#4DFFFF;stroke-width:0.91987}
    .str0 {stroke:#2B2A29;stroke-width:0.245299}
    .fil2 {fill:none}
    .fil0 {fill:#162632}
    .fil1 {fill:#4DFFFF;fill-rule:nonzero}
    .fil3 {fill:#4DFFFF;fill-rule:nonzero}
   ]]>
  </style>
 </defs>
 <g id="Слой_x0020_1">
  <metadata id="CorelCorpID_0Corel-Layer"/>
  <g id="_2867352747536">
   <g>
    <rect class="fil0" x="1" y="1" width="87.5627" height="131.609" rx="5" ry="5"/>
    <path class="fil1" d="M6 0l77 0c2,0 3,1 4,2 1,1 2,2 2,4l0 121c0,2 -1,3 -2,4 -1,1 -2,2 -4,2l-77 0c-2,0 -3,-1 -4,-2 -1,-1 -2,-2 -2,-4l0 -121c0,-2 1,-3 2,-4 1,-1 2,-2 4,-2zm77 1l-77 0c-2,0 -3,1 -3,2 -1,0 -2,1 -2,3l0 121c0,1 1,3 2,3 0,1 1,2 3,2l77 0c1,0 2,-1 3,-2 1,0 2,-2 2,-3l0 -121c0,-2 -1,-3 -2,-3 -1,-1 -2,-2 -3,-2z"/>
    <rect class="fil2 str0" x="36" y="57" width="17.7085" height="19.587"/>
    <g>
     <g>
      <path class="fil3" d="M8 15l-1 2c0,0 0,0 0,0 0,0 0,0 0,0 0,0 0,0 0,0 -1,0 -1,0 -1,-1l0 0 3 -8c0,0 1,-1 1,-1 0,0 0,1 0,1l3 8 0 0c0,1 0,1 0,1 0,0 0,0 0,0 -1,0 -1,0 -1,0 0,0 0,0 0,0l-1 -2 -3 0zm3 -1l-1 -5 -2 5 3 0z"/>
      <polygon class="fil2 str1" points="10,27 7,23 10,19 12,23 "/>
     </g>
     <g>
      <path class="fil3" d="M81 118l1 -2c0,0 0,0 0,0 0,0 0,0 0,0 0,0 0,0 0,0 0,0 0,0 0,0l0 1 -2 8c-1,0 -1,0 -1,0 0,0 0,0 0,0l-3 -8 0 -1c0,0 0,0 0,0 0,0 0,0 0,0 0,0 0,0 0,0 1,0 1,0 1,0l0 2 4 0zm-3 1l1 4 2 -4 -3 0z"/>
      <polygon class="fil2 str1" points="79,106 82,110 79,114 76,110 "/>
     </g>
    </g>
    <polygon class="fil2 str1" points="44,76 38,67 44,57 51,67 "/>
    <rect class="fil0" x="1" y="1" width="87.5627" height="131.609" rx="5" ry="5"/>
    <path class="fil1" d="M6 0l77 0c2,0 3,1 4,2 1,1 2,2 2,4l0 121c0,2 -1,3 -2,4 -1,1 -2,2 -4,2l-77 0c-2,0 -3,-1 -4,-2 -1,-1 -2,-2 -2,-4l0 -121c0,-2 1,-3 2,-4 1,-1 2,-2 4,-2zm77 1l-77 0c-2,0 -3,1 -3,2 -1,0 -2,1 -2,3l0 121c0,1 1,3 2,3 0,1 1,2 3,2l77 0c1,0 2,-1 3,-2 1,0 2,-2 2,-3l0 -121c0,-2 -1,-3 -2,-3 -1,-1 -2,-2 -3,-2z"/>
    <g>
     <g>
      <path class="fil3" d="M11 12l0 0 0 -1 0 -2c0,0 0,-1 0,-1 0,0 0,0 -1,0l-1 0c0,0 0,0 0,0 0,0 0,0 -1,1 0,0 0,0 0,0l0 2c0,0 1,0 1,1 0,0 0,0 0,0 0,0 0,0 0,0l2 0zm0 1l-2 0c0,0 -1,0 -1,-1 0,0 -1,-1 -1,-1l0 -2c0,-1 1,-1 1,-1 0,-1 1,-1 1,-1l1 0c1,0 1,0 2,1 0,0 0,0 0,1l0 2c0,1 0,2 0,3 -1,0 -1,1 -1,1 -1,1 -1,1 -2,2l0 0c0,0 0,0 0,-1 -1,0 -1,0 -1,0 0,0 0,0 0,0 1,0 1,0 1,0 0,0 0,-1 0,-1 1,0 1,0 1,0 0,-1 1,-1 1,-1l0 -1 0 0z"/>
      <polygon class="fil2 str1" points="10,27 7,23 10,19 12,23 "/>
     </g>
     <g>
      <path class="fil3" d="M78 121l0 1 0 0 0 2c0,1 0,1 0,1 0,0 0,0 1,0l1 0c0,0 0,0 0,0 0,0 0,0 0,0 0,0 1,-1 1,-1l0 -2c0,0 -1,0 -1,0 0,0 0,0 0,-1 0,0 0,0 0,0l-2 0zm0 -1l2 0c0,0 1,1 1,1 0,0 0,1 0,1l0 2c0,1 0,1 0,2 0,0 -1,0 -1,0l-1 0c-1,0 -1,0 -2,0 0,-1 0,-1 0,-2l0 -2c0,-1 0,-2 0,-3 0,0 1,-1 1,-1 1,-1 1,-1 2,-1l0 0c0,0 0,0 0,0 0,0 1,0 1,0 0,0 -1,0 -1,0 0,0 0,1 0,1 0,0 0,0 0,0 -1,0 -1,0 -1,0 0,1 -1,1 -1,2l0 0 0 0z"/>
      <polygon class="fil2 str1" points="79,106 82,110 79,114 76,110 "/>
     </g>
    </g>
   </g>
   <polygon class="fil2 str1" points="29,29 22,20 29,11 35,20 "/>
   <polygon class="fil2 str1" points="29,125 22,116 29,106 35,116 "/>
   <polygon class="fil2 str1" points="63,29 56,20 63,11 69,20 "/>
   <polygon class="fil2 str1" points="63,125 56,116 63,106 69,116 "/>
   <polygon class="fil2 str1" points="29,93 22,84 29,74 35,84 "/>
   <polygon class="fil2 str1" points="29,61 22,52 29,42 35,52 "/>
   <polygon class="fil2 str1" points="63,61 56,52 63,42 69,52 "/>
   <polygon class="fil2 str1" points="63,93 56,84 63,74 69,84 "/>
   <polygon class="fil2 str1" points="46,78 39,68 46,59 52,68 "/>
  </g>
 </g>
</svg>
