<?xml version="1.0" encoding="UTF-8"?>
<!DOCTYPE svg PUBLIC "-//W3C//DTD SVG 1.1//EN" "http://www.w3.org/Graphics/SVG/1.1/DTD/svg11.dtd">
<!-- Creator: CorelDRAW X7 -->
<svg xmlns="http://www.w3.org/2000/svg" xml:space="preserve" width="72.4147mm" height="108.327mm" version="1.1" style="shape-rendering:geometricPrecision; text-rendering:geometricPrecision; image-rendering:optimizeQuality; fill-rule:evenodd; clip-rule:evenodd"
viewBox="0 0 84 125"
 xmlns:xlink="http://www.w3.org/1999/xlink">
 <defs>
  <style type="text/css">
   <![CDATA[
    .str1 {stroke:#4DFFFF;stroke-width:0.866738}
    .str4 {stroke:#4DFFFF;stroke-width:0.288913}
    .str0 {stroke:#2B2A29;stroke-width:0.23113}
    .str3 {stroke:#4DFFFF;stroke-width:0.416843;stroke-linecap:round;stroke-linejoin:round}
    .str2 {stroke:#4DFFFF;stroke-width:0.416843;stroke-linecap:round;stroke-linejoin:round}
    .fil2 {fill:none}
    .fil4 {fill:none;fill-rule:nonzero}
    .fil0 {fill:#162632}
    .fil1 {fill:#4DFFFF;fill-rule:nonzero}
    .fil3 {fill:#4DFFFF;fill-rule:nonzero}
   ]]>
  </style>
 </defs>
 <g id="Слой_x0020_1">
  <metadata id="CorelCorpID_0Corel-Layer"/>
  <g id="_2867376565792">
   <g>
    <rect class="fil0" x="1" y="1" width="82.5049" height="124.007" rx="5" ry="5"/>
    <path class="fil1" d="M5 0l73 0c2,0 3,1 4,2 1,1 2,2 2,3l0 115c0,1 -1,3 -2,4 -1,1 -2,1 -4,1l-73 0c-1,0 -2,0 -3,-1 -1,-1 -2,-3 -2,-4l0 -115c0,-1 1,-2 2,-3 1,-1 2,-2 3,-2zm73 1l-73 0c-1,0 -2,1 -3,1 0,1 -1,2 -1,3l0 115c0,1 1,2 1,3 1,1 2,1 3,1l73 0c2,0 3,0 3,-1 1,-1 2,-2 2,-3l0 -115c0,-1 -1,-2 -2,-3 0,0 -1,-1 -3,-1z"/>
    <rect class="fil2 str0" x="34" y="53" width="16.6856" height="18.4556"/>
    <g>
     <g>
      <path class="fil3" d="M8 14l-1 2c0,0 0,0 0,0 0,0 0,0 -1,0 0,0 0,0 0,0 0,0 0,0 0,0l0 -1 3 -8c0,0 0,0 0,0 0,0 0,0 1,0l2 8 0 1c0,0 0,0 0,0 0,0 0,0 0,0 0,0 0,0 0,0 0,0 -1,0 -1,0l0 -2 -3 0zm2 -1l-1 -4 -1 4 2 0z"/>
      <polygon class="fil2 str1" points="9,25 7,22 9,18 12,22 "/>
     </g>
     <g>
      <path class="fil3" d="M76 111l1 -1c0,-1 0,-1 0,-1 0,0 0,0 0,0 0,0 0,0 1,0 0,0 0,1 0,1l0 0 -3 8c0,0 0,0 0,0 -1,0 -1,0 -1,0l-3 -8 0 0c0,0 0,-1 1,-1 0,0 0,0 0,0 0,0 0,0 0,0 0,0 0,0 0,1l1 1 3 0zm-3 1l2 4 1 -4 -3 0z"/>
      <polygon class="fil2 str1" points="74,100 77,103 74,107 72,103 "/>
     </g>
    </g>
    <polygon class="fil2 str1" points="42,71 36,63 42,54 48,63 "/>
    <rect class="fil0" x="1" y="1" width="82.5049" height="124.007" rx="5" ry="5"/>
    <path class="fil1" d="M5 0l73 0c2,0 3,1 4,2 1,1 2,2 2,3l0 115c0,1 -1,3 -2,4 -1,1 -2,1 -4,1l-73 0c-1,0 -2,0 -3,-1 -1,-1 -2,-3 -2,-4l0 -115c0,-1 1,-2 2,-3 1,-1 2,-2 3,-2zm73 1l-73 0c-1,0 -2,1 -3,1 0,1 -1,2 -1,3l0 115c0,1 1,2 1,3 1,1 2,1 3,1l73 0c2,0 3,0 3,-1 1,-1 2,-2 2,-3l0 -115c0,-1 -1,-2 -2,-3 0,0 -1,-1 -3,-1z"/>
    <g>
     <g>
      <path class="fil3" d="M11 10c0,0 1,1 1,1 0,0 0,0 0,1l0 2c0,0 0,0 0,1 -1,0 -1,0 -2,0l-3 0c0,0 0,0 0,0l0 -8c0,0 0,-1 0,-1l3 0c0,0 1,1 1,1 0,0 1,1 1,1l0 1c0,0 0,0 0,1 -1,0 -1,0 -1,0zm-3 1l0 3 2 0c1,0 1,0 1,0 0,0 0,0 0,0l0 -2c0,0 0,-1 0,-1 0,0 0,0 -1,0l-2 0zm2 -1c0,0 0,0 1,0 0,0 0,-1 0,-1l0 -1c0,0 0,0 0,0 -1,-1 -1,-1 -1,-1l-2 0 0 3 2 0z"/>
      <polygon class="fil2 str1" points="9,25 7,22 9,18 12,22 "/>
     </g>
     <g>
      <path class="fil3" d="M73 116c-1,0 -1,-1 -1,-1 0,0 0,0 0,-1l0 -2c0,0 0,0 0,-1 1,0 1,0 2,0l3 0c0,0 0,0 0,0l0 8c0,0 0,1 0,1l-3 0c0,0 -1,-1 -1,-1 -1,0 -1,-1 -1,-1l0 -1c0,0 0,-1 0,-1 0,0 1,0 1,0zm3 -1l0 -3 -2 0c-1,0 -1,0 -1,0 0,0 0,0 0,0l0 2c0,0 0,1 0,1 0,0 0,0 1,0l2 0zm-2 1c0,0 0,0 -1,0 0,0 0,1 0,1l0 1c0,0 0,0 0,0 1,1 1,1 1,1l2 0 0 -3 -2 0z"/>
      <polygon class="fil2 str1" points="74,100 77,103 74,107 72,103 "/>
     </g>
    </g>
   </g>
   <g>
    <path class="fil4 str2" d="M18 75c1,1 2,1 4,2 1,0 2,1 4,2 0,0 0,0 0,0 -1,2 0,4 2,3 0,0 0,0 0,0 0,2 0,6 0,5l0 1c0,-1 0,0 0,0 0,0 -1,0 0,0 -1,0 -1,0 -2,0 0,0 -1,0 -1,0 -1,1 -1,2 0,3 0,1 0,1 0,1 1,1 1,1 1,2 2,3 5,7 9,8 2,1 4,1 6,1 2,1 4,1 5,0l0 0 0 0c1,0 1,0 1,0 2,0 4,0 5,-1 0,0 1,0 1,0 0,0 0,0 0,0 0,-1 0,-1 0,-1 0,0 0,0 0,0 0,0 0,-1 0,-1 0,0 0,-1 0,-1 0,0 -1,0 -1,-1 0,0 -1,0 -2,-1l0 0c1,0 1,-1 0,-1 0,0 0,0 0,0 0,0 0,-1 -1,-1l0 0c0,0 1,0 1,-1 0,-1 0,-1 0,-2 0,0 0,-1 0,-1 0,0 0,0 0,0 -1,0 -1,-1 -1,-1 0,0 0,0 1,0 0,-1 0,-2 1,-2 0,-1 0,-1 0,-1 1,-1 -1,-1 -1,-2 0,0 0,0 0,-1 0,0 0,0 0,0 0,0 0,0 -1,-1 0,0 0,0 0,0 0,0 0,0 0,0 0,0 0,0 0,-1 0,0 0,0 0,0l0 0 0 0c0,-1 1,-2 0,-2 -1,-1 -2,-1 -3,-1 0,0 -1,1 -1,1 0,0 0,0 -1,0 0,0 0,0 0,0 0,0 0,0 1,-1l0 0c0,0 0,0 0,0l0 0c0,0 1,0 1,0 0,0 0,0 0,0 2,-2 5,-3 7,-4 0,0 0,1 0,1 0,0 0,0 0,0 0,0 0,0 0,0 0,0 1,0 1,0 1,0 1,0 2,0 0,1 0,2 0,3 0,0 0,0 1,1 0,0 1,0 1,0 0,3 0,6 0,9 0,1 0,1 0,2 -1,0 -1,0 -1,0l0 0c-1,0 -1,0 -2,0l0 0c0,0 0,-1 -1,-1 0,0 0,0 0,0 0,0 0,1 0,1 1,0 1,1 1,2 0,2 -1,3 -1,4 0,0 0,0 0,0 1,-1 2,-1 3,-1 0,0 0,1 -1,2l0 0c0,0 0,0 0,0 0,0 0,0 1,0 0,1 1,1 2,1 1,0 2,-1 2,-1 0,0 0,0 0,0 0,0 0,0 0,-1 0,0 0,0 0,-1 1,0 1,1 2,1l0 0c1,0 1,0 2,1 0,0 0,0 0,1 0,0 0,0 1,0l0 0c1,-1 1,-4 2,-6 0,-2 -1,-5 -2,-8 0,0 0,0 0,0 -1,1 -1,2 -2,2 -1,1 -1,1 -2,2 0,0 -1,0 -2,1 0,-1 0,-1 0,-1 0,-3 0,-6 0,-9 1,0 1,0 1,0 0,0 0,0 1,0 0,0 0,-1 1,-1 0,0 0,-1 -1,-1 1,0 1,-1 1,-2 0,0 -1,0 -1,0 0,0 0,-1 0,-1 0,0 0,0 0,0 1,0 1,-1 2,-1 0,0 1,0 1,-1l0 0c0,0 0,0 0,0 0,-2 -1,-5 -2,-8 -1,-1 -1,-2 -2,-4 0,-1 0,-3 0,-4 0,-1 0,-2 0,-3 0,0 -1,0 -1,-1 -1,0 -1,1 -1,1 -1,1 -1,2 -1,2 0,1 0,1 0,1l0 0c1,0 1,1 1,1 0,1 0,1 0,2 0,0 0,0 0,0 -1,0 -3,1 -3,1 -2,0 -3,1 -4,1 0,0 0,0 0,0 -1,0 -1,0 -1,1 -1,0 -1,0 -1,0l0 0 0 0c0,0 -1,0 -2,0 0,0 0,0 -1,0l0 0c0,0 0,1 0,1 -1,0 -2,0 -3,0 0,0 0,0 -1,0 0,0 -1,1 -1,1 -1,0 -2,0 -3,0 -2,0 -3,0 -4,0 -1,0 -2,0 -2,0 -1,0 -1,0 -2,0 0,0 0,0 0,0 -1,0 -1,0 -1,0 0,0 0,0 0,0 -2,1 -5,0 -7,0l0 0c0,0 0,0 0,0 0,0 0,0 0,0l0 0c-1,4 -3,7 -5,9 0,0 -1,1 -1,1 1,0 1,0 1,0z"/>
    <path class="fil4 str2" d="M27 82c0,0 0,0 -1,0 0,-1 0,-1 0,-1 0,0 0,-1 0,-1 0,0 0,-1 0,-1 0,0 1,-1 1,-1 0,0 0,0 1,0 0,0 0,0 1,0 1,1 1,2 1,4 0,1 0,5 0,6l0 -2c0,-2 0,-4 0,-5 0,-1 0,-2 0,-2 0,0 0,0 1,-1 0,3 0,5 0,8l0 0c0,-3 0,-5 0,-8 0,0 0,0 0,0 0,-1 0,-1 -1,-1 0,0 0,0 0,0 0,0 0,0 1,0 0,0 0,1 0,1 0,0 -1,1 -1,0 0,0 0,0 0,0 -1,0 -1,-1 -1,-1 0,-1 2,-1 2,-1 0,1 0,1 0,2 0,0 0,0 0,0 0,1 1,3 2,2 0,0 0,0 0,0 0,3 0,5 0,8 0,0 0,-7 0,-8 0,-1 0,-1 0,-1 0,0 0,0 0,0 0,-1 -1,-1 -1,0 0,0 1,0 1,0 0,0 0,0 0,0 0,1 -1,1 -1,1l0 0c0,0 -1,0 -1,-1 0,-1 1,-1 2,-1 1,0 1,2 1,3 0,0 0,1 0,1 0,1 0,6 0,8 0,0 -1,-1 -2,-1 0,0 0,-6 0,-7 0,1 0,5 0,7 -1,-1 -2,-1 -4,-1 1,-2 1,-7 1,-7 0,-1 0,-1 -1,-1 0,0 0,-1 -1,-1 0,0 0,1 0,1 0,0 0,1 0,1 0,0 0,0 1,0 -1,0 -1,-1 -1,-1 0,0 0,0 0,0 0,0 1,0 1,0l0 0 0 0 0 0c0,0 0,0 0,1 0,0 0,1 -1,1z"/>
    <path class="fil4 str2" d="M32 76c0,0 0,0 0,0 1,0 1,0 1,1 0,0 -1,0 -1,0 0,0 0,0 0,0 0,0 0,-1 0,-1 0,0 0,0 0,0 0,0 0,-1 1,-1 1,0 1,2 1,3 0,-1 -1,-1 -1,-1 0,0 0,0 0,0 0,0 0,-2 -1,-1z"/>
    <path class="fil4 str2" d="M32 77c0,0 0,1 -1,1 1,0 1,-1 1,-1 0,0 0,0 0,0z"/>
    <path class="fil4 str2" d="M30 71c1,0 2,1 2,1 -1,1 -2,1 -3,2 -1,0 -1,1 -2,1 0,0 0,0 0,0 0,-1 1,-2 1,-3 0,-1 1,-2 1,-3 0,1 1,1 1,2z"/>
    <path class="fil4 str2" d="M26 93c0,0 0,0 0,-1 -1,0 -1,-1 -1,-2 0,0 0,-1 0,-2 0,0 0,0 0,0 1,0 2,0 3,1 0,0 0,0 0,0 0,0 1,0 1,0 0,0 -1,0 -1,0 0,1 -1,1 -1,2 -1,0 -1,1 -1,2 0,0 0,0 0,0z"/>
    <path class="fil4 str2" d="M46 103l0 0c-1,0 -1,0 -2,0 -2,0 -4,0 -6,0 2,-1 3,-1 5,-2 1,-2 1,-4 0,-5 1,0 1,0 1,0 1,1 2,1 3,1 1,1 1,2 2,3 0,1 -1,2 -2,2 0,0 0,1 0,1 0,0 0,0 0,0 0,0 0,0 -1,0z"/>
    <path class="fil4 str2" d="M53 100c0,0 0,1 0,1l0 0c-1,2 -3,2 -4,2 -1,0 -1,0 -2,0 1,0 2,-1 3,-2 1,-1 1,-2 0,-3 0,0 0,0 0,0l0 0 0 0c0,0 0,0 0,0 1,0 2,1 3,2z"/>
    <path class="fil4 str2" d="M46 80c1,0 1,0 2,0 0,0 1,0 1,1 0,0 0,1 0,1l0 0 0 0c0,0 -1,0 -1,0 0,1 0,1 0,1 0,0 0,0 1,0 0,0 0,0 0,0 0,0 0,0 0,0 0,0 0,0 0,0 0,0 0,0 0,0 0,0 0,0 0,0 0,0 0,0 0,1 -1,0 -1,0 -1,0 -1,-1 -1,-1 -2,0l0 0c0,0 1,0 1,0 0,0 0,0 0,0l0 0c1,0 1,-1 2,0 0,0 1,0 1,0 0,0 0,0 -1,1 0,0 0,0 0,0l0 0c0,1 2,1 2,1l0 0c0,0 0,1 0,1 0,0 0,0 0,0 0,0 0,0 0,0 -1,1 -1,2 -2,3 0,0 0,1 0,1 1,0 1,0 1,1 0,0 0,0 0,0 0,1 0,2 -1,2 0,1 0,1 0,1 -3,-1 -5,-2 -8,-3 0,-2 0,-8 0,-9 0,-1 2,-1 2,-1 1,-1 2,-2 3,-2z"/>
    <path class="fil4 str2" d="M54 71c0,0 1,-1 1,-1 1,0 3,-1 4,-1 0,1 0,1 0,2 0,0 -1,1 -1,1 -1,1 -2,1 -3,2 -1,0 -1,1 -2,1 0,-1 0,-3 1,-4z"/>
    <path class="fil4 str2" d="M59 73c0,0 1,0 1,0 1,0 2,0 2,1 0,0 0,0 0,0 0,0 0,1 0,1 0,0 0,0 0,0 0,0 -1,0 -1,0 0,0 0,0 -1,0 0,0 -1,0 -1,0 -1,0 -1,0 -1,0 0,0 0,-1 0,-1 0,0 1,0 1,-1z"/>
    <path class="fil4 str2" d="M56 76c-1,0 -1,0 -2,0 0,0 -1,0 -1,0 1,-1 2,-2 3,-2 0,0 0,1 0,1 0,1 0,1 0,1z"/>
    <path class="fil4 str2" d="M66 85c1,3 1,5 1,7 0,2 0,3 0,4 -1,1 -1,2 -1,3 -1,0 -1,-1 -1,-1 1,-2 1,-4 1,-5 0,-2 0,-5 -1,-7 0,0 1,0 1,-1z"/>
    <path class="fil4 str2" d="M60 95c0,0 1,1 1,2 0,0 0,0 0,0 0,0 -1,0 -1,0 0,0 -1,0 -1,0 -1,0 -1,0 -1,0 0,0 1,0 2,0 0,0 1,0 1,1 0,0 -1,0 -1,0 0,0 -1,0 -2,0 0,0 -1,0 -1,0 0,-1 0,-1 0,-1l0 0c0,-1 0,-1 0,-2 1,-2 1,-3 1,-4l0 0c0,0 0,0 0,-1l0 0c0,0 0,0 0,0 1,-3 1,-7 1,-10 0,0 1,0 1,1 0,2 0,5 0,8 0,0 0,0 0,1 0,0 0,0 0,1 0,0 0,0 0,0 0,1 0,3 0,4z"/>
    <path class="fil4 str2" d="M60 80l0 0 0 0 0 0c0,0 0,0 0,0 -1,0 -1,0 -2,0 0,0 0,0 0,0 0,0 0,0 0,0 0,-1 -1,-1 -1,-1 -1,0 -1,-1 -1,-1 0,-2 0,-3 0,-5 1,0 2,0 2,0 0,0 0,0 0,0 0,0 0,0 0,1 -1,0 -1,1 0,1 -1,0 -1,1 0,1 0,0 0,0 -1,0 0,0 0,0 0,0 0,1 0,1 1,1 0,0 0,1 0,1 -1,0 -1,0 -1,0 1,0 1,1 1,1 1,0 1,0 1,0 0,0 0,0 0,0 0,0 1,0 1,0 0,0 0,0 0,0 0,1 0,1 0,1 1,0 0,0 0,0z"/>
    <path class="fil4 str2" d="M62 78c1,1 0,1 -1,1l0 0c0,0 0,0 0,0 0,0 0,0 -1,0 0,0 -2,0 -2,-1 0,-1 3,0 3,0 0,0 0,0 1,0 0,0 0,0 0,0 0,0 0,0 0,0z"/>
    <path class="fil4 str2" d="M62 77c0,0 0,1 0,1l0 0 0 0 0 0c-1,0 -2,-1 -4,-1 0,0 0,0 0,0l0 0c0,0 0,0 0,0 -1,-1 3,-1 3,-1 1,0 1,0 1,1z"/>
    <path class="fil4 str2" d="M62 76c-1,0 -2,0 -2,0 0,0 -2,0 -2,0 -1,-1 2,-1 2,-1 1,0 1,0 1,0 1,0 2,0 1,1z"/>
    <path class="fil4 str2" d="M62 74c0,0 0,0 0,0 0,-1 -1,-1 -1,-1 0,0 0,0 0,-1 1,0 3,0 4,1 -1,1 -2,1 -3,1z"/>
    <path class="fil4 str2" d="M65 73c-1,-1 -3,-1 -4,-1 0,-1 0,-2 0,-3 0,0 1,0 1,0 1,0 1,0 2,0 0,1 0,3 1,4z"/>
    <path class="fil4 str2" d="M64 69c-1,0 -2,0 -3,0 0,-1 0,-1 0,-2 0,-1 0,-3 0,-5l0 0c1,2 2,5 3,7z"/>
    <path class="fil4 str2" d="M59 72c0,-3 0,-6 0,-9 0,-1 0,-3 0,-4 0,0 0,0 0,0 0,0 0,0 0,0 0,-1 0,-2 0,-2 0,0 0,0 0,0 0,-1 0,-1 0,-1 -1,-2 1,-2 2,-1 0,1 0,3 0,4 0,1 0,1 0,2l0 0 0 0c0,0 0,0 0,0 0,1 -1,2 -1,3 0,2 0,4 0,5 0,1 0,1 0,1 0,1 0,2 0,3 0,0 0,0 0,0 0,0 -1,0 -1,0 0,0 0,0 0,0 0,-1 0,-1 0,-1z"/>
    <path class="fil4 str2" d="M56 61c0,0 1,0 2,-1 0,0 0,0 1,0 0,2 0,5 0,7 0,1 0,1 0,2 -1,0 -1,0 -1,0 0,0 -1,0 -2,0 -1,1 -2,1 -2,2 0,-1 0,-1 0,-1 -1,-3 -1,-5 -2,-8 1,0 3,0 4,-1z"/>
    <path class="fil4 str2" d="M51 66l0 0c0,1 0,1 0,1 0,1 0,2 0,3 0,0 -1,-1 -2,-1 0,0 -1,0 -1,0 1,-1 2,-2 3,-3z"/>
    <path class="fil4 str2" d="M48 73c0,0 1,-1 1,-1 1,0 2,-1 2,-2 1,2 1,3 1,4 0,1 0,1 0,1 -1,0 -1,0 -2,-1 0,0 -1,-1 -2,-1l0 0c0,0 0,0 0,0z"/>
    <path class="fil4 str2" d="M50 63c0,1 0,2 1,3 -1,0 -3,-1 -3,-1 0,0 1,-1 1,-1 0,0 1,0 1,-1z"/>
    <path class="fil4 str2" d="M47 75c0,1 0,2 -1,3 1,0 2,-1 3,-1 0,0 0,0 1,0 -1,-1 -2,-1 -3,-2z"/>
    <path class="fil4 str3" d="M41 65c1,2 2,3 3,5 1,0 1,1 2,2 0,1 0,1 0,2 0,0 1,0 1,0 0,1 -1,4 -1,4 0,1 0,1 0,1 -3,-3 -5,-8 -5,-9 0,0 -3,5 -4,6l0 0c0,0 0,1 -1,1 0,0 0,-1 0,-1 -1,0 -2,0 -2,1 0,-1 0,-1 -1,-2 0,0 -1,0 -1,0 0,0 0,0 0,-1 0,-1 1,-1 2,-2 1,-1 2,-1 2,-2 2,-2 3,-3 4,-5l0 0c0,0 0,0 0,0 1,0 1,0 1,0z"/>
    <path class="fil4 str2" d="M31 66c0,0 1,1 2,1 -1,0 -1,1 -2,1 0,0 -1,0 -2,1 0,-1 1,-2 1,-3 1,0 1,0 1,0z"/>
    <path class="fil4 str2" d="M48 89l0 0c0,-1 0,-1 0,-1 0,0 0,0 0,0 -1,0 -1,1 -1,1 -1,0 -1,0 -2,0 0,0 0,0 0,0 1,0 1,0 1,0 1,0 1,0 1,0 0,0 0,0 0,1 0,0 0,0 0,0 0,0 0,0 0,0 -1,0 -1,-1 -2,-1 0,0 0,0 0,0 0,1 1,1 2,1 0,0 0,0 0,0 0,0 0,0 0,0 0,0 0,0 0,0 0,0 1,0 1,0 0,0 0,0 0,0 0,0 0,0 0,0l0 0c0,0 -1,1 -1,1 -1,0 -2,0 -2,-1l-1 0c0,0 0,0 0,0l0 0c0,0 0,0 0,0 0,1 1,2 2,2 0,0 0,0 1,0 0,0 2,-1 2,0 0,0 0,0 0,0 0,-1 0,-1 0,-1 0,-1 0,-1 -1,-1 0,0 0,0 0,0 0,0 0,0 0,0 0,0 0,0 0,0 0,0 0,-1 0,-1 0,0 0,0 0,0 0,0 0,0 0,1 0,-1 0,-1 0,-1 0,0 0,-1 -1,-1l1 0c0,0 0,1 0,1z"/>
    <path class="fil4 str2" d="M44 85c0,0 1,0 1,0 0,0 0,0 0,0 0,0 0,0 0,0 0,0 0,-1 0,-1 0,0 0,0 0,0 0,0 1,0 1,1 0,0 1,0 1,0l0 0c1,0 1,0 2,-1l0 0c-1,0 -1,0 -1,0 0,1 -1,0 -2,0 0,0 0,-1 0,-1 -1,0 -2,0 -2,1 -1,0 0,1 0,1z"/>
    <path class="fil4 str2" d="M44 80c0,-1 0,-1 0,-1 0,0 0,0 0,0 -1,1 -1,2 -2,2 -1,0 -1,-1 -1,-1 0,0 0,1 0,1 0,1 0,1 0,1 0,0 0,0 0,0 0,0 1,0 1,0 1,-1 1,-1 2,-2 0,0 0,0 0,0z"/>
    <path class="fil4 str2" d="M24 78c0,0 -1,-1 -2,-1 -1,-1 -2,-1 -3,-2 1,-1 2,-2 4,-2 1,0 2,0 2,1 1,1 1,2 1,2 0,1 0,2 0,2 0,0 0,0 0,1l0 0c-1,-1 -1,-1 -2,-1z"/>
    <path class="fil4 str2" d="M27 76c0,0 1,1 2,1 0,0 0,1 0,1 -1,0 -1,0 -2,0 0,0 -1,0 -1,0 0,0 0,0 0,0 0,-1 0,-1 1,-2 0,0 0,0 0,0z"/>
    <path class="fil4 str2" d="M38 83c0,0 0,1 0,2 0,0 0,0 0,1 0,1 0,3 1,5l0 0c0,-2 0,-3 0,-5 0,-1 0,-2 0,-3 0,-1 0,-2 0,-3 -1,0 -1,0 -1,-1 0,0 -1,0 -1,0 0,0 0,0 0,0 0,-1 0,-1 0,-1 0,1 1,1 1,0 1,0 1,-1 0,-1 0,0 -1,0 -1,0 0,0 0,0 0,0 1,0 1,0 1,0 0,0 0,1 0,1 0,0 -1,0 -1,0l0 0 0 0 0 0c0,-1 0,-1 0,-2 1,0 2,0 2,1 1,0 1,1 1,2 0,1 0,1 0,2l0 0c0,-1 0,-2 0,-3 1,-1 2,-1 3,-1 0,1 0,2 0,2 0,2 -3,2 -2,0 0,0 0,0 0,0 1,0 1,0 1,0 0,0 0,0 0,0 0,1 0,0 0,1l0 0c0,0 0,0 0,0 0,0 0,-1 0,-1 0,0 0,0 0,0 0,0 0,0 0,-1 0,0 -1,0 -1,0 0,1 0,1 0,2 -1,2 0,9 0,12 -1,0 -1,0 -2,0 -1,-1 -3,-1 -4,-2 0,-2 0,-7 0,-8 0,0 0,0 0,0 0,0 0,0 1,0 0,1 1,0 2,-1 0,1 0,2 0,2 0,1 0,2 0,2 0,1 0,1 0,1 0,-1 0,-3 0,-4 0,-1 0,-2 -1,-2l0 0c0,0 0,0 0,0 0,0 0,0 -1,0 0,0 0,0 0,1 -1,0 0,0 0,0 0,0 0,0 0,-1 0,0 0,0 1,0 0,0 0,1 0,1 0,0 0,1 0,1 0,0 -1,0 -2,0 0,0 0,-1 0,-1 0,0 0,0 0,0 0,-1 0,-2 1,-2 0,0 0,0 1,0 0,0 1,1 1,1 0,1 0,1 0,2 0,0 0,0 0,1z"/>
    <path class="fil4 str2" d="M28 96c0,-1 -1,-1 -1,-2l0 0c0,-1 0,-2 1,-3 1,0 2,-1 3,0 1,0 3,1 4,2 -1,0 -2,1 -3,2 0,2 -1,4 0,5 -1,-1 -3,-3 -4,-4z"/>
    <path class="fil4 str2" d="M36 90c0,0 0,0 0,0 0,-3 1,-5 0,-7 0,0 0,0 0,0 0,2 0,5 0,7z"/>
    <path class="fil4 str2" d="M35 77c0,0 0,0 0,0 0,0 0,0 0,0 0,0 0,1 0,1 0,0 0,0 -1,-1 0,0 0,0 0,-1 1,0 1,0 2,0 1,1 0,2 0,3 0,0 0,0 0,0 -1,0 -1,0 -1,1 0,-1 0,-1 -1,-1 0,-1 0,-1 0,-1 0,0 0,-1 0,-1 0,1 1,1 1,1 1,-1 0,-2 0,-1z"/>
    <path class="fil4 str2" d="M37 103c0,0 -1,-1 -2,-1 -1,0 -2,-1 -2,-1 0,0 0,0 0,0 0,-3 0,-7 4,-8 1,1 3,2 5,2 0,2 0,3 0,5 -1,2 -3,2 -5,3l0 0z"/>
    <path class="fil4 str2" d="M26 76c0,0 1,-6 4,-10 0,0 -3,3 -4,10z"/>
    <path class="fil4 str2" d="M66 50c-1,0 -3,-1 -4,-1 -1,-1 -3,-2 -4,-3 0,0 0,0 0,0 1,-2 -1,-4 -2,-3 0,1 -1,1 -1,1 0,-3 0,-6 0,-6l0 0c0,0 1,0 1,0 0,-1 0,-1 0,-1 0,0 1,0 1,0 1,0 2,0 2,0 1,-1 0,-2 0,-3 0,0 0,-1 -1,-1 0,-1 0,-1 -1,-2 -2,-3 -5,-7 -8,-8 -2,-1 -4,-1 -6,-1 -2,-1 -4,0 -6,0l0 0 0 0c0,0 0,0 -1,0 -1,0 -3,0 -5,1 0,0 0,0 0,0 -1,0 -1,1 -1,1 0,0 0,0 0,0 0,0 0,0 0,0 0,1 0,1 0,1 1,0 1,1 1,1 0,0 0,1 1,1 0,0 1,0 1,1l0 0c0,0 0,1 0,1 0,0 1,1 1,1 0,0 0,0 0,0l0 0c0,0 0,1 0,1 0,1 0,1 0,2 0,0 0,1 0,1 0,0 0,0 0,0 0,1 0,1 0,1 1,0 0,0 0,1 0,0 -1,1 -1,1 0,1 -1,1 -1,2 0,0 2,0 2,1 0,0 0,1 0,1 0,0 0,0 0,0 0,0 0,1 0,1 0,0 1,0 1,0 0,0 -1,0 -1,0 0,0 0,1 1,1 0,0 0,0 0,0l0 0 0 0c0,1 -1,2 0,3 0,0 2,0 3,0 0,0 0,0 1,-1 0,0 0,0 0,0 0,0 0,0 0,0 0,1 0,1 0,1l0 0c0,0 0,0 0,0l0 0c0,0 -1,0 -1,0 0,0 0,1 0,1 -2,1 -5,2 -7,3 0,0 0,0 0,0 0,-1 0,-1 0,-1 0,0 0,0 0,0 -1,0 -1,0 -1,0 -1,0 -1,0 -2,0 0,-1 0,-2 0,-2 0,-1 -1,-1 -1,-1 -1,-1 -1,-1 -2,-1 1,-3 1,-6 1,-9 0,-1 0,-1 0,-1 0,0 1,0 1,0l0 0c1,0 1,0 1,0l1 0c0,0 0,0 0,0 0,0 0,0 0,0 0,0 0,0 0,0 0,-1 0,-2 0,-3 0,-1 1,-3 1,-4 0,0 0,0 0,0 -1,1 -2,1 -3,1 0,0 0,-1 0,-1l0 0c0,0 0,-1 0,-1 0,0 0,0 0,0 0,0 -2,-1 -2,-1 -1,0 -2,1 -3,1 0,0 0,0 0,0 0,1 0,1 0,1 1,0 1,1 1,1 -1,0 -2,0 -2,-1l0 0c-1,0 -2,0 -2,-1 0,0 0,0 0,0 -1,-1 -1,-1 -1,-1l0 0c-1,2 -2,4 -2,6 0,3 0,6 2,8 0,0 0,0 0,0 0,-1 1,-1 2,-2 0,-1 1,-1 2,-1 0,-1 1,-1 1,-1 0,0 0,0 0,0 0,3 1,6 0,9 0,0 0,0 0,1 0,0 -1,0 -1,0 0,0 -1,0 -1,0 0,1 0,1 1,1 -1,1 -1,1 -1,2 0,0 0,0 1,0 -1,0 -1,1 -1,1 0,0 0,0 1,0 -1,1 -1,1 -2,1 0,0 -1,0 -1,1l0 0c0,0 0,0 -1,0 1,3 2,5 3,8 0,1 1,3 2,4 0,2 -1,3 -1,5 0,1 0,1 1,2 0,0 0,1 1,1 0,0 1,0 1,-1 1,0 0,-1 0,-2 0,0 0,-1 0,-1l0 0c0,0 0,-1 0,-1 0,-1 0,-1 0,-1 0,-1 0,-1 0,-1 1,0 2,0 3,-1 1,0 2,-1 4,-1 0,0 0,0 0,0 0,0 1,0 1,0 0,0 0,-1 1,-1l0 0 0 0c0,0 1,0 1,0 1,0 1,0 1,0l0 0c0,0 1,0 1,0 1,-1 2,-1 2,-1 1,0 1,0 1,0 1,0 1,0 2,0 1,-1 2,-1 3,-1 1,0 2,0 4,0 0,0 1,0 2,0 0,0 1,0 1,0 0,0 1,0 1,0 0,0 0,0 1,0 0,0 0,0 0,0 2,0 4,0 7,0l0 0c0,0 0,0 0,0 0,0 0,0 0,0l0 0c1,-4 2,-7 5,-9 0,0 0,0 0,0 0,0 0,0 0,-1z"/>
    <path class="fil4 str2" d="M56 43c1,0 1,0 1,1 1,0 1,0 1,0 0,1 0,1 0,1 0,0 0,1 0,1 0,1 -1,1 -1,1 0,0 -1,0 -1,0 0,0 -1,0 -1,0 -1,-1 -1,-2 -1,-4 0,-1 0,-4 0,-6l0 3c0,1 0,3 0,4 0,1 0,2 0,2 0,0 -1,1 -1,1 0,-3 0,-5 0,-8l0 0c0,3 0,6 0,8 0,0 0,0 0,0 0,1 0,1 0,1 1,1 1,0 1,0 0,0 -1,0 -1,0 0,0 0,0 0,-1 0,0 1,0 1,0 0,0 0,0 0,0 1,0 1,1 1,2 -1,0 -2,1 -2,0 -1,-1 -1,-1 -1,-2 0,0 0,0 0,0 1,-1 0,-2 -1,-2 0,0 0,0 0,0 0,-3 0,-5 0,-8 0,0 -1,7 0,9 -1,0 -1,0 0,0 0,0 0,0 0,0 0,1 0,1 1,1 -1,0 -1,0 -1,-1 0,0 0,0 0,0 0,-1 0,-1 1,-1l0 0c0,0 0,1 0,1 1,1 0,2 -1,2 -2,0 -2,-3 -2,-4 0,0 0,-1 0,-1 0,-1 0,-6 0,-8 1,1 2,1 3,1 0,1 0,7 0,7 0,0 0,-5 0,-7 1,1 2,1 3,2 0,2 0,6 0,7 0,0 0,0 0,0 0,1 1,1 1,1 0,0 1,0 1,0 0,-1 0,-2 0,-2 0,0 -1,0 -1,1 0,-1 1,0 1,0 0,0 0,0 -1,1 0,0 0,0 0,-1l0 0 0 0 0 0c-1,0 -1,0 -1,0 0,-1 1,-1 1,-2z"/>
    <path class="fil4 str2" d="M51 49c0,0 0,0 0,0 0,0 0,0 0,0 0,-1 0,-1 1,-1 0,0 0,0 0,0 0,1 0,1 0,1 0,0 0,0 0,0 0,1 -1,1 -1,1 -1,0 -1,-2 -1,-3 0,1 1,1 1,1 0,0 0,0 0,0 -1,1 0,2 0,1z"/>
    <path class="fil4 str2" d="M51 48c1,0 1,0 1,-1 0,1 0,1 0,1 0,0 0,0 -1,0z"/>
    <path class="fil4 str2" d="M53 55c0,-1 -1,-1 -1,-2 1,-1 2,-1 3,-2 0,0 1,0 2,-1 0,0 0,0 0,0 0,1 -1,2 -1,4 -1,0 -1,1 -1,2 -1,0 -1,-1 -2,-1z"/>
    <path class="fil4 str2" d="M57 32c1,0 1,1 1,1 0,1 1,1 1,2 0,1 0,2 0,2 0,0 -1,0 -1,0 0,0 -1,0 -2,-1 0,0 0,0 0,0 0,0 -1,0 -1,0 0,0 0,0 0,0 1,0 2,-1 2,-1 0,-1 0,-2 0,-2 0,-1 0,-1 0,-1z"/>
    <path class="fil4 str2" d="M37 22l0 0c1,0 2,0 3,0 2,0 4,0 6,0 -2,1 -4,1 -5,3 -1,1 -2,3 -1,4 0,0 0,0 0,0 -1,0 -3,-1 -4,-1 0,-1 -1,-2 -1,-3 0,-1 1,-2 1,-2 0,0 0,0 0,0 0,0 1,-1 1,-1 0,0 0,0 0,0z"/>
    <path class="fil4 str2" d="M31 25c0,0 -1,-1 0,-1l0 0c0,-2 3,-2 4,-2 1,0 1,0 2,0 -2,0 -3,1 -3,2 -1,1 -1,2 0,3 0,0 0,0 0,0l0 0 0 0c0,0 0,1 0,0 -2,0 -3,0 -3,-2z"/>
    <path class="fil4 str2" d="M38 46c-1,0 -2,0 -2,0 -1,-1 -1,0 -1,-1 0,-1 0,-1 0,-2l0 0 0 0c0,0 0,0 1,0 0,0 -1,0 -1,0 0,0 0,0 0,0 0,0 0,0 0,0 0,-1 -1,-1 -1,-1 0,0 1,0 1,0 0,0 0,0 0,0 0,0 0,0 0,0 0,0 0,0 0,0 0,0 1,0 1,0 1,0 1,0 1,0l0 0c0,0 0,0 0,0 0,0 0,0 0,0l0 0c-1,-1 -2,0 -3,-1 0,0 0,0 0,0 0,0 0,0 0,0 0,-1 0,-1 0,-1l0 0c0,-1 -1,-1 -1,-1l0 0c0,0 0,0 0,0 0,-1 0,-1 0,-1 0,0 0,0 0,0 0,-1 1,-2 2,-3 0,0 -1,0 -1,-1 0,0 0,0 0,0 0,-1 0,-1 0,-1 0,-1 0,-1 0,-2 0,0 0,-1 0,-1 3,1 6,2 9,3 0,2 0,8 0,9 -1,1 -2,1 -2,2 -1,0 -2,1 -3,2z"/>
    <path class="fil4 str2" d="M30 54c0,1 -1,1 -2,1 -1,0 -2,1 -3,1 0,-1 0,-1 0,-2 0,0 0,-1 0,-1 1,-1 2,-1 4,-2 0,0 1,0 2,-1 -1,1 -1,3 -1,4z"/>
    <path class="fil4 str2" d="M25 52c-1,0 -1,0 -1,0 -1,0 -2,0 -2,-1 0,0 0,0 0,0 0,0 0,0 0,0 0,0 0,0 0,0 0,0 0,0 0,0 1,0 1,0 1,0 1,0 1,0 2,0 0,-1 1,-1 1,-1 0,1 0,1 0,1 0,1 -1,1 -1,1z"/>
    <path class="fil4 str2" d="M28 49c1,0 1,0 2,0 0,0 0,0 1,0 -1,1 -2,2 -4,3 1,-1 1,-1 1,-2 0,0 0,-1 0,-1z"/>
    <path class="fil4 str2" d="M18 40c-1,-2 -2,-5 -1,-7 0,-2 0,-3 0,-4 0,-1 1,-2 1,-3 0,1 1,1 1,1 -1,2 -1,4 -1,6 -1,2 0,4 1,6 -1,0 -1,1 -1,1z"/>
    <path class="fil4 str2" d="M23 30c0,0 0,-1 0,-2 0,0 0,0 0,0 0,0 0,0 1,0 0,0 0,0 1,0 0,0 1,0 1,0 -1,0 -1,0 -2,0 -1,0 -1,0 -2,-1 1,0 1,0 1,0 1,0 2,0 2,0 1,0 2,0 2,1 0,0 0,0 0,0l0 0c0,1 -1,2 -1,3 0,1 0,2 0,3l0 0c0,0 0,1 0,1l0 0c0,0 0,0 0,0 -1,4 -1,7 -1,10 0,0 -1,0 -1,0 0,-3 0,-6 0,-9 0,0 0,0 0,0 0,-1 0,-1 0,-2 0,0 0,0 0,0 0,-1 0,-2 -1,-4z"/>
    <path class="fil4 str2" d="M23 45l1 0 0 0 0 0c0,0 0,0 0,0 0,0 1,0 1,1 0,0 0,0 0,0 0,0 0,0 1,0 0,0 1,0 1,0 1,0 1,1 1,2 0,1 0,3 -1,4 0,0 -1,0 -2,0 0,0 0,0 0,0 0,0 1,0 1,0 0,-1 1,-1 0,-2 0,0 0,-1 0,-1 0,0 0,0 0,0 0,0 0,0 0,0 0,-1 0,-1 0,-1 0,0 0,0 0,0 0,-1 0,-1 0,-1 0,0 0,0 -1,-1 0,0 0,0 -1,0 0,0 0,0 0,0 0,0 0,0 0,0 0,0 0,0 -1,0 0,0 0,0 0,-1 0,0 0,0 0,0z"/>
    <path class="fil4 str2" d="M21 47c0,-1 1,-1 1,-1l0 0c0,0 0,0 1,0 0,0 0,0 0,0 1,0 3,0 3,1 0,1 -3,0 -3,0 0,0 -1,0 -1,0 0,0 0,0 0,0 0,0 -1,0 -1,0z"/>
    <path class="fil4 str2" d="M21 48c0,0 0,-1 1,-1l0 0 0 0 0 0c1,0 2,1 3,1 0,0 1,0 1,0l0 0c0,0 0,0 0,0 0,1 -3,1 -4,1 0,0 -1,0 -1,-1z"/>
    <path class="fil4 str2" d="M22 49c0,0 1,0 2,0 0,0 1,0 2,0 0,1 -2,1 -3,1 0,0 0,0 0,0 -1,0 -2,0 -1,-1z"/>
    <path class="fil4 str2" d="M22 51c-1,0 -1,0 -1,0 1,1 1,1 2,1 0,0 0,1 0,1 -1,0 -3,0 -4,-1 1,-1 2,-1 3,-1z"/>
    <path class="fil4 str2" d="M20 56c1,0 2,0 3,0 0,1 0,1 0,2 0,2 0,3 0,5l0 0c-1,-2 -2,-4 -3,-7z"/>
    <path class="fil4 str2" d="M25 53c0,3 0,6 0,9 0,1 0,3 0,4 0,0 0,0 0,1 0,0 0,0 0,0 0,0 0,1 0,2 0,0 0,0 0,0 0,0 0,0 0,0 0,2 -1,3 -2,1 -1,-1 0,-3 0,-4 0,-1 0,-1 0,-1l0 0 0 0c0,-1 0,-1 0,-1 0,-1 0,-2 0,-3 0,-2 0,-4 0,-5 0,0 0,0 0,-1 0,-1 0,-2 0,-3 0,0 0,0 0,0 1,0 1,0 2,0 0,0 0,0 0,0 0,1 0,1 0,1z"/>
    <path class="fil4 str2" d="M28 64c-1,0 -1,1 -2,1 0,0 -1,0 -1,0 0,-2 0,-4 0,-7 0,0 0,-1 0,-2 0,0 0,0 0,0 1,0 2,0 2,0 1,0 2,-1 3,-1 0,0 0,0 0,1 0,2 1,4 2,7 -2,0 -3,1 -4,1z"/>
    <path class="fil4 str2" d="M33 59l0 0c0,0 0,-1 0,-1 0,-1 0,-2 -1,-3 1,1 2,1 2,1 1,0 1,0 2,1 -1,0 -2,1 -3,2z"/>
    <path class="fil4 str2" d="M36 52c-1,1 -1,1 -1,1 -1,1 -2,1 -3,2 0,-2 0,-3 0,-4 0,-1 0,-1 0,-1 0,0 1,1 1,1 1,0 2,1 3,1l0 0c0,0 0,0 0,0z"/>
    <path class="fil4 str2" d="M34 62c0,-1 -1,-2 -1,-3 0,0 2,1 3,1 0,1 -1,1 -1,1 -1,0 -1,1 -1,1z"/>
    <path class="fil4 str2" d="M37 50c0,-1 0,-2 0,-3 -1,0 -1,1 -2,1 0,0 -1,0 -1,1 1,0 2,1 3,1z"/>
    <path class="fil4 str2" d="M42 60c-1,-1 -2,-3 -3,-4 0,-1 -1,-2 -1,-3 0,0 -1,-1 -1,-1 0,0 0,-1 0,-1 0,-1 0,-3 0,-4 1,0 1,0 1,0 2,2 4,8 4,8 0,0 3,-5 4,-6l0 0c1,0 1,0 1,-1 0,1 0,1 1,1 0,1 1,1 2,0 0,0 0,1 0,1 1,0 1,0 2,0 0,0 0,1 -1,1 0,1 -1,2 -1,2 -1,1 -2,2 -3,3 -1,1 -2,3 -3,4l0 0c0,0 -1,0 -1,0 0,0 -1,0 -1,0z"/>
    <path class="fil4 str2" d="M53 60c-1,-1 -1,-2 -2,-2 1,0 1,0 1,-1 1,0 2,0 3,0 -1,1 -1,2 -2,2 0,0 0,0 0,1z"/>
    <path class="fil4 str2" d="M36 37l0 0c0,0 0,0 0,0 0,0 0,0 0,0 0,0 1,0 1,-1 1,0 1,0 2,0 -1,0 -1,0 -1,0 0,0 0,0 -1,0 0,0 0,0 0,1 0,-1 0,-1 0,-1 0,0 0,-1 0,-1 0,0 0,0 0,0 1,0 1,1 2,1 0,0 0,0 0,0 -1,-1 -1,-1 -2,-1 0,0 0,0 0,0 0,0 0,0 0,0 -1,0 -1,0 -1,0 0,0 0,0 0,0 0,0 0,0 0,0 0,0 0,0 0,0l0 0c0,0 1,-1 1,-1 1,0 2,1 2,1l0 0c0,0 0,0 0,0l0 0c0,0 1,0 1,0 -1,-1 -1,-2 -2,-2 0,0 -1,0 -1,0 -1,0 -2,1 -2,1 -1,0 -1,0 -1,0 0,0 1,0 1,1 0,0 0,0 1,0 0,0 0,0 0,0 0,0 0,0 0,0 0,0 0,0 0,1 0,0 0,0 0,0 0,0 0,0 0,0 0,0 0,0 0,0 0,0 0,0 0,0 0,1 0,1 0,1l0 0c0,0 0,0 0,0z"/>
    <path class="fil4 str2" d="M40 40c-1,0 -1,0 -1,0 0,0 -1,0 0,0 0,0 0,0 0,0 0,1 0,1 0,1 0,0 0,0 0,0 -1,0 -1,0 -1,0 0,-1 -1,-1 -1,-1l0 0c-1,0 -1,0 -2,1l0 0c0,0 0,0 1,0 0,0 1,0 1,0 1,0 1,1 1,1 1,0 1,0 2,0 0,-1 0,-1 0,-2z"/>
    <path class="fil4 str2" d="M40 46c0,0 0,0 0,1 0,0 0,-1 0,-1 0,0 1,-2 2,-2 0,1 1,1 1,1 0,0 0,-1 0,-1 0,0 0,-1 0,-1 0,0 0,0 0,0 -1,0 -1,0 -1,0 -1,1 -2,1 -2,2 0,0 0,0 0,1z"/>
    <path class="fil4 str2" d="M59 47c1,1 2,1 3,1 1,1 2,2 3,2 -1,1 -3,2 -4,2 -1,0 -2,0 -3,-1 0,-1 0,-1 0,-2 0,-1 0,-1 0,-2 0,0 0,0 0,0l0 0c0,0 1,0 1,0z"/>
    <path class="fil4 str2" d="M56 49c0,0 -1,-1 -1,-1 0,0 0,0 0,-1 0,1 1,1 1,1 1,0 1,-1 2,-1 0,0 0,0 0,0 -1,1 -1,2 -1,2 0,0 0,0 -1,0z"/>
    <path class="fil4 str2" d="M45 43c0,-1 0,-2 0,-2 0,-1 0,-1 0,-1 0,-2 0,-4 0,-6l0 0c0,2 0,3 0,5 0,1 0,2 0,3 0,1 0,2 0,3 0,0 0,1 1,1 0,0 0,1 1,1 0,0 0,0 0,0 0,0 0,0 0,0 0,0 -1,-1 -2,0 0,1 0,1 1,1 0,0 0,0 0,0 0,0 0,0 0,0 0,0 0,0 0,0 -1,0 -1,0 0,-1 0,0 0,0 1,0l0 0 0 0 0 0c0,1 0,1 -1,2 0,0 -1,0 -2,-1 0,0 0,-1 0,-2 0,0 0,-1 0,-2l0 0c0,1 0,2 0,3 -1,1 -2,2 -3,1 -1,-1 -1,-1 -1,-2 1,-2 3,-1 3,0 0,0 -1,0 -1,0 0,0 0,0 0,0 0,0 0,0 0,0 0,0 0,0 0,0l0 0c0,-1 0,-1 0,0 -1,0 -1,0 -1,0 0,0 0,0 0,1 1,0 1,0 1,0 0,0 0,0 1,0 0,-1 0,-1 0,-1 0,-3 0,-10 0,-13 1,0 1,0 2,0 1,1 3,2 4,2 0,2 0,7 0,8 0,0 0,1 0,1 0,-1 -1,-1 -1,-1 -1,0 -2,0 -2,1 0,-1 0,-2 0,-2 0,-1 0,-2 0,-2 0,0 0,-1 0,-1 0,2 0,3 0,4 0,1 0,2 1,2l0 0c0,0 0,0 0,0 0,0 0,0 0,0 1,0 1,0 1,0 0,-1 0,-1 0,-1 0,0 0,0 0,1 0,0 -1,0 -1,0 0,0 -1,0 -1,-1 0,0 0,0 1,-1 0,0 1,0 1,0 1,1 1,1 1,1 0,0 0,1 0,1 0,0 -1,1 -1,1 0,0 -1,0 -1,0 -1,0 -1,0 -2,-1 0,-1 0,-1 0,-2 0,0 0,0 0,0z"/>
    <path class="fil4 str2" d="M56 29c0,1 0,2 1,2l0 0c0,1 -1,2 -1,3 -1,0 -2,1 -3,1 -2,-1 -3,-2 -4,-2 1,-1 2,-2 2,-3 1,-1 1,-4 0,-5 2,1 3,3 5,4z"/>
    <path class="fil4 str2" d="M47 35c0,0 0,0 0,0 0,3 0,5 0,8 0,0 0,0 0,0 0,-3 1,-5 0,-8z"/>
    <path class="fil4 str2" d="M49 48c0,0 0,0 0,0 0,0 -1,0 -1,0 0,0 0,0 1,0 0,-1 0,-1 0,0 0,0 0,0 0,1 0,0 -1,0 -1,0 -1,-1 -1,-2 -1,-2 0,0 1,0 1,0 0,-1 1,-1 1,-2 0,1 0,1 0,2 0,0 0,0 1,0 0,1 0,1 0,1 -1,-1 -1,-1 -2,0 0,0 0,1 1,0z"/>
    <path class="fil4 str2" d="M46 22c1,1 2,1 3,1 1,1 1,1 2,1 0,0 0,0 0,0 0,3 -1,8 -4,8 -2,-1 -3,-2 -5,-2 0,-2 0,-3 0,-5 1,-1 3,-2 4,-3l0 0z"/>
    <path class="fil4 str2" d="M59 69c0,1 0,1 0,1 0,0 0,0 0,-1l0 0z"/>
    <path class="fil4 str2" d="M59 73c0,0 1,0 1,0 1,0 2,0 2,1 0,0 0,0 0,0 0,0 0,1 0,1 0,0 0,0 0,0 0,0 -1,0 -1,0 0,0 0,0 -1,0 0,0 -1,0 -1,0 -1,0 -1,0 -1,0 0,0 0,-1 0,-1 0,0 1,-1 1,-1z"/>
    <path class="fil4 str2" d="M62 78c1,1 0,1 -1,1l0 0c0,0 0,0 0,0 0,0 0,0 -1,0 0,0 -2,0 -2,-1 0,-1 3,0 3,0 0,0 0,0 1,0 0,0 0,0 0,0 0,0 0,0 0,0z"/>
    <path class="fil4 str2" d="M62 77c0,0 0,1 0,1l0 0 0 0 0 0c-1,0 -2,-1 -4,-1 0,0 0,0 0,0l0 0c0,0 0,0 0,0 0,-1 3,-1 3,-1 1,0 2,0 1,1z"/>
    <path class="fil4 str2" d="M62 76c-1,0 -2,0 -2,0 0,0 -1,0 -2,0 0,-1 2,-1 2,-1 1,0 1,0 1,0 1,0 2,0 1,1z"/>
    <path class="fil4 str2" d="M62 74c0,0 0,0 0,0 0,-1 -1,-1 -1,-1 0,0 0,0 0,-1 1,0 3,0 4,1 -1,1 -2,1 -3,1z"/>
    <path class="fil4 str2" d="M64 69c-1,0 -2,0 -3,0 0,-1 0,-1 0,-2 0,-1 0,-3 0,-5l0 0c1,2 2,5 3,7z"/>
    <path class="fil4 str2" d="M59 72c0,-3 0,-6 0,-9 0,-1 0,-3 0,-4 0,0 0,0 0,0 0,0 0,0 0,0 0,-1 0,-2 0,-2 0,0 0,0 0,0 0,-1 0,-1 0,-1 -1,-2 1,-3 2,-1 0,1 0,3 0,4 0,1 0,1 0,2l0 0 0 0c0,0 0,0 0,0 0,1 0,2 -1,3 0,2 0,4 0,5 0,0 0,1 0,1 0,1 0,2 0,3 0,0 0,0 0,0 0,0 -1,0 -1,0 0,0 0,0 0,0 0,-1 0,-1 0,-1z"/>
    <path class="fil4 str2" d="M59 67c0,-1 0,-1 0,-1 0,1 -1,1 -1,2 0,0 0,1 0,1 1,0 1,0 1,0 0,-1 0,-1 0,-2z"/>
    <path class="fil4 str2" d="M59 64l0 0c0,0 0,0 0,0 0,0 0,0 0,-1 0,0 0,1 0,1z"/>
   </g>
   <g>
    <polyline class="fil2 str4" points="19,10 74,10 74,86 "/>
    <polyline class="fil2 str4" points="65,115 9,115 9,39 "/>
   </g>
   <g>
    <polyline class="fil2 str4" points="19,10 74,10 74,86 "/>
    <polyline class="fil2 str4" points="65,115 9,115 9,39 "/>
   </g>
  </g>
 </g>
</svg>
