<?xml version="1.0" encoding="UTF-8"?>
<!DOCTYPE svg PUBLIC "-//W3C//DTD SVG 1.1//EN" "http://www.w3.org/Graphics/SVG/1.1/DTD/svg11.dtd">
<!-- Creator: CorelDRAW X7 -->
<svg xmlns="http://www.w3.org/2000/svg" xml:space="preserve" width="72.4147mm" height="108.327mm" version="1.1" style="shape-rendering:geometricPrecision; text-rendering:geometricPrecision; image-rendering:optimizeQuality; fill-rule:evenodd; clip-rule:evenodd"
viewBox="0 0 95 142"
 xmlns:xlink="http://www.w3.org/1999/xlink">
 <defs>
  <style type="text/css">
   <![CDATA[
    .str1 {stroke:#4DFFFF;stroke-width:0.979943}
    .str0 {stroke:#2B2A29;stroke-width:0.261318}
    .fil2 {fill:none}
    .fil0 {fill:#162632}
    .fil1 {fill:#4DFFFF;fill-rule:nonzero}
    .fil3 {fill:#4DFFFF;fill-rule:nonzero}
   ]]>
  </style>
 </defs>
 <g id="Слой_x0020_1">
  <metadata id="CorelCorpID_0Corel-Layer"/>
  <g id="_2867366759904">
   <g>
    <rect class="fil0" x="1" y="1" width="93.281" height="140.204" rx="5" ry="5"/>
    <path class="fil1" d="M6 0l83 0c1,0 3,1 4,2 1,1 2,2 2,4l0 130c0,1 -1,3 -2,4 -1,1 -3,2 -4,2l-83 0c-2,0 -3,-1 -4,-2 -1,-1 -2,-3 -2,-4l0 -130c0,-2 1,-3 2,-4 1,-1 2,-2 4,-2zm83 1l-83 0c-1,0 -2,1 -3,2 -1,1 -2,2 -2,3l0 130c0,1 1,2 2,3 1,1 2,1 3,1l83 0c1,0 2,0 3,-1 1,-1 1,-2 1,-3l0 -130c0,-1 0,-2 -1,-3 -1,-1 -2,-2 -3,-2z"/>
    <rect class="fil2 str0" x="38" y="60" width="18.8649" height="20.8661"/>
    <g>
     <g>
      <path class="fil3" d="M9 16l-1 2c0,0 0,0 0,0 0,0 -1,0 -1,0 0,0 0,0 0,0 0,0 0,0 0,0l0 -1 3 -9c0,0 0,0 0,0 1,0 1,0 1,0l3 9 0 1c0,0 0,0 0,0 0,0 -1,0 -1,0 0,0 0,0 0,0 0,0 0,0 0,0l-1 -2 -3 0zm3 -1l-2 -5 -1 5 3 0z"/>
      <polygon class="fil2 str1" points="10,28 8,25 10,21 13,25 "/>
     </g>
     <g>
      <path class="fil3" d="M86 126l1 -2c0,0 0,0 0,0 0,0 0,-1 0,-1 0,0 1,1 1,1 0,0 0,0 0,0l0 0 -3 9c0,1 -1,1 -1,1 0,0 0,0 0,-1l-3 -9 0 0c0,0 0,0 0,0 0,0 0,-1 0,-1 0,0 0,0 0,1 1,0 1,0 1,0l0 2 4 0zm-3 1l1 4 2 -4 -3 0z"/>
      <polygon class="fil2 str1" points="84,113 87,117 84,121 81,117 "/>
     </g>
    </g>
    <polygon class="fil2 str1" points="47,81 40,71 47,61 54,71 "/>
    <rect class="fil0" x="1" y="1" width="93.281" height="140.204" rx="5" ry="5"/>
    <path class="fil1" d="M6 0l83 0c1,0 3,1 4,2 1,1 2,2 2,4l0 130c0,1 -1,3 -2,4 -1,1 -3,2 -4,2l-83 0c-2,0 -3,-1 -4,-2 -1,-1 -2,-3 -2,-4l0 -130c0,-2 1,-3 2,-4 1,-1 2,-2 4,-2zm83 1l-83 0c-1,0 -2,1 -3,2 -1,1 -2,2 -2,3l0 130c0,1 1,2 2,3 1,1 2,1 3,1l83 0c1,0 2,0 3,-1 1,-1 1,-2 1,-3l0 -130c0,-1 0,-2 -1,-3 -1,-1 -2,-2 -3,-2z"/>
    <g>
     <g>
      <path class="fil3" d="M9 9l0 0c0,1 0,1 0,1 0,0 0,0 0,0 0,0 0,0 -1,0 0,0 0,0 0,-1l0 -1c0,0 0,0 1,0l4 0c0,0 0,0 0,0l0 1 -2 9c0,0 0,0 0,0 0,0 -1,0 -1,0 0,0 0,0 0,0 0,0 0,0 0,0 0,-1 0,-1 0,-1l2 -8 -3 0z"/>
      <polygon class="fil2 str1" points="10,28 8,25 10,21 13,25 "/>
     </g>
     <g>
      <path class="fil3" d="M86 133l0 0c0,-1 0,-1 0,-1 0,0 0,0 0,0 0,0 0,0 0,0 0,0 1,0 1,1l0 1c0,0 -1,0 -1,0l-4 0c0,0 -1,0 -1,0l1 -1 2 -9c0,0 0,0 0,0 0,0 0,0 1,0 0,0 0,0 0,0 0,0 0,0 0,0 0,1 0,1 0,1l-2 8 3 0z"/>
      <polygon class="fil2 str1" points="84,113 87,117 84,121 81,117 "/>
     </g>
    </g>
   </g>
   <polygon class="fil2 str1" points="31,31 24,21 31,11 38,21 "/>
   <polygon class="fil2 str1" points="31,133 24,123 31,113 38,123 "/>
   <polygon class="fil2 str1" points="67,31 60,21 67,11 74,21 "/>
   <polygon class="fil2 str1" points="67,133 60,123 67,113 74,123 "/>
   <polygon class="fil2 str1" points="31,81 24,71 31,61 38,71 "/>
   <polygon class="fil2 str1" points="67,81 60,71 67,61 74,71 "/>
   <polygon class="fil2 str1" points="49,57 42,47 49,37 56,47 "/>
  </g>
 </g>
</svg>
