<?xml version="1.0" encoding="UTF-8"?>
<!DOCTYPE svg PUBLIC "-//W3C//DTD SVG 1.1//EN" "http://www.w3.org/Graphics/SVG/1.1/DTD/svg11.dtd">
<!-- Creator: CorelDRAW X7 -->
<svg xmlns="http://www.w3.org/2000/svg" xml:space="preserve" width="72.4147mm" height="108.327mm" version="1.1" style="shape-rendering:geometricPrecision; text-rendering:geometricPrecision; image-rendering:optimizeQuality; fill-rule:evenodd; clip-rule:evenodd"
viewBox="0 0 109 163"
 xmlns:xlink="http://www.w3.org/1999/xlink">
 <defs>
  <style type="text/css">
   <![CDATA[
    .str1 {stroke:#4DFFFF;stroke-width:1.12716}
    .str0 {stroke:#2B2A29;stroke-width:0.300577}
    .fil2 {fill:none}
    .fil0 {fill:#162632}
    .fil1 {fill:#4DFFFF;fill-rule:nonzero}
    .fil3 {fill:#4DFFFF;fill-rule:nonzero}
   ]]>
  </style>
 </defs>
 <g id="Слой_x0020_1">
  <metadata id="CorelCorpID_0Corel-Layer"/>
  <g id="_2867389424160">
   <g>
    <rect class="fil0" x="1" y="1" width="107" height="161" rx="6" ry="6"/>
    <path class="fil1" d="M7 0l95 0c2,0 4,1 5,2 1,1 2,3 2,5l0 149c0,2 -1,4 -2,5 -1,1 -3,2 -5,2l-95 0c-2,0 -4,-1 -5,-2 -1,-1 -2,-3 -2,-5l0 -149c0,-2 1,-4 2,-5 1,-1 3,-2 5,-2zm95 2l-95 0c-2,0 -3,0 -4,1 -1,1 -1,2 -1,4l0 149c0,1 0,3 1,4 1,1 2,1 4,1l95 0c1,0 3,0 4,-1 1,-1 1,-3 1,-4l0 -149c0,-2 0,-3 -1,-4 -1,-1 -3,-1 -4,-1z"/>
    <rect class="fil2 str0" x="44" y="69" width="21.6991" height="24.0009"/>
    <g>
     <g>
      <path class="fil3" d="M10 18l-1 2c0,0 0,1 0,1 0,0 0,0 -1,0 0,0 0,0 0,0 0,0 0,-1 0,-1l0 0 3 -10c0,-1 1,-1 1,-1 0,0 0,0 0,1l4 10 0 0c0,0 0,0 0,1 0,0 0,0 -1,0 0,0 0,0 0,0 0,0 0,0 0,-1l-1 -2 -4 0zm4 -1l-2 -5 -2 5 4 0z"/>
      <polygon class="fil2 str1" points="12,33 9,28 12,24 15,28 "/>
     </g>
     <g>
      <path class="fil3" d="M99 145l1 -3c0,0 0,0 0,0 0,0 0,0 0,0 1,0 1,0 1,0 0,0 0,0 0,1l0 0 -4 10c0,1 0,1 0,1 0,0 0,0 -1,-1l-3 -10 0 0c0,-1 0,-1 0,-1 0,0 0,0 0,0 1,0 1,0 1,0 0,0 0,0 0,0l1 3 4 0zm-4 1l2 5 2 -5 -4 0z"/>
      <polygon class="fil2 str1" points="97,130 100,135 97,139 94,135 "/>
     </g>
    </g>
    <polygon class="fil2 str1" points="54,93 46,82 54,70 62,82 "/>
    <rect class="fil0" x="1" y="1" width="107" height="161" rx="6" ry="6"/>
    <path class="fil1" d="M7 0l95 0c2,0 4,1 5,2 1,1 2,3 2,5l0 149c0,2 -1,4 -2,5 -1,1 -3,2 -5,2l-95 0c-2,0 -4,-1 -5,-2 -1,-1 -2,-3 -2,-5l0 -149c0,-2 1,-4 2,-5 1,-1 3,-2 5,-2zm95 2l-95 0c-2,0 -3,0 -4,1 -1,1 -1,2 -1,4l0 149c0,1 0,3 1,4 1,1 2,1 4,1l95 0c1,0 3,0 4,-1 1,-1 1,-3 1,-4l0 -149c0,-2 0,-3 -1,-4 -1,-1 -3,-1 -4,-1z"/>
    <g>
     <g>
      <path class="fil3" d="M12 11l-2 0c0,0 0,0 0,0 -1,-1 -1,-1 -1,-1 0,0 0,0 1,0 0,0 0,0 0,0l2 0c1,0 2,0 2,0 1,1 1,2 1,2 0,1 0,1 0,2 0,0 -1,0 -1,1 0,0 1,0 1,1 0,0 0,1 0,1l0 1c0,1 0,2 -1,2 0,1 -1,1 -2,1l-2 0c0,0 0,0 0,0 -1,0 -1,0 -1,0 0,-1 0,-1 0,-1 1,0 1,0 1,0l2 0c1,0 1,0 1,-1 1,0 1,0 1,-1l0 -1c0,0 0,-1 -1,-1 0,-1 0,-1 -1,-1l-1 0c0,0 0,0 0,0 0,0 0,0 0,0 0,0 0,-1 0,-1 0,0 0,0 0,0l1 0c1,0 1,0 2,0 0,-1 0,-1 0,-2 0,0 0,0 0,-1 -1,0 -1,0 -2,0z"/>
      <polygon class="fil2 str1" points="12,33 9,28 12,24 15,28 "/>
     </g>
     <g>
      <path class="fil3" d="M97 152l2 0c0,0 0,0 1,0 0,1 0,1 0,1 0,0 0,0 0,0 -1,0 -1,0 -1,0l-2 0c-1,0 -2,0 -2,0 -1,-1 -1,-2 -1,-2 0,-1 0,-1 0,-2 0,0 1,0 1,-1 0,0 -1,0 -1,-1 0,0 0,-1 0,-1l0 -1c0,-1 0,-2 1,-2 0,-1 1,-1 2,-1l2 0c0,0 0,0 1,0 0,0 0,0 0,0 0,1 0,1 0,1 -1,0 -1,0 -1,0l-2 0c-1,0 -1,0 -1,1 -1,0 -1,0 -1,1l0 1c0,0 0,1 1,1 0,1 0,1 1,1l1 0c0,0 0,0 0,0 1,0 1,0 1,0 0,0 0,1 -1,1 0,0 0,0 0,0l-1 0c-1,0 -1,0 -1,0 -1,1 -1,1 -1,2 0,0 0,0 1,1 0,0 0,0 1,0z"/>
      <polygon class="fil2 str1" points="97,130 100,135 97,139 94,135 "/>
     </g>
    </g>
   </g>
   <polygon class="fil2 str1" points="54,36 46,24 54,13 62,24 "/>
   <polygon class="fil2 str1" points="54,153 46,142 54,130 62,142 "/>
   <polygon class="fil2 str1" points="54,93 46,82 54,70 62,82 "/>
  </g>
 </g>
</svg>
