<?xml version="1.0" encoding="UTF-8"?>
<!DOCTYPE svg PUBLIC "-//W3C//DTD SVG 1.1//EN" "http://www.w3.org/Graphics/SVG/1.1/DTD/svg11.dtd">
<!-- Creator: CorelDRAW X7 -->
<svg xmlns="http://www.w3.org/2000/svg" xml:space="preserve" width="72.4147mm" height="108.327mm" version="1.1" style="shape-rendering:geometricPrecision; text-rendering:geometricPrecision; image-rendering:optimizeQuality; fill-rule:evenodd; clip-rule:evenodd"
viewBox="0 0 113 169"
 xmlns:xlink="http://www.w3.org/1999/xlink">
 <defs>
  <style type="text/css">
   <![CDATA[
    .str1 {stroke:#4DFFFF;stroke-width:1.17115}
    .str0 {stroke:#2B2A29;stroke-width:0.312306}
    .fil2 {fill:none}
    .fil0 {fill:#162632}
    .fil1 {fill:#4DFFFF;fill-rule:nonzero}
    .fil3 {fill:#4DFFFF;fill-rule:nonzero}
   ]]>
  </style>
 </defs>
 <g id="Слой_x0020_1">
  <metadata id="CorelCorpID_0Corel-Layer"/>
  <g id="_2867389421952">
   <g>
    <rect class="fil0" x="1" y="1" width="111" height="168" rx="6" ry="6"/>
    <path class="fil1" d="M7 0l99 0c2,0 4,1 5,2 1,1 2,3 2,5l0 155c0,2 -1,4 -2,5 -1,1 -3,2 -5,2l-99 0c-2,0 -4,-1 -5,-2 -1,-1 -2,-3 -2,-5l0 -155c0,-2 1,-4 2,-5 1,-1 3,-2 5,-2zm99 2l-99 0c-1,0 -3,0 -4,1 -1,1 -1,3 -1,4l0 155c0,2 0,3 1,4 1,1 3,2 4,2l99 0c1,0 3,-1 4,-2 1,-1 1,-2 1,-4l0 -155c0,-1 0,-3 -1,-4 -1,-1 -3,-1 -4,-1z"/>
    <rect class="fil2 str0" x="45" y="72" width="22.5459" height="24.9375"/>
    <g>
     <g>
      <path class="fil3" d="M10 19l-1 2c0,0 0,0 0,0 0,1 0,1 0,1 0,0 -1,0 -1,-1 0,0 0,0 0,0l0 0 4 -11c0,0 0,-1 0,-1 1,0 1,1 1,1l4 11 0 0c0,0 0,0 -1,0 0,1 0,1 0,1 0,0 0,0 0,0 0,-1 -1,-1 -1,-1l0 -2 -5 0zm4 -2l-2 -5 -1 5 3 0z"/>
      <polygon class="fil2 str1" points="12,34 9,29 12,25 16,29 "/>
     </g>
     <g>
      <path class="fil3" d="M103 151l1 -3c0,0 0,0 0,0 0,0 0,0 0,0 0,0 1,0 1,0 0,0 0,0 0,0l0 0 -4 11c0,1 0,1 0,1 -1,0 -1,0 -1,-1l-3 -11 -1 0c0,0 1,0 1,0 0,0 0,0 0,0 0,0 0,0 0,0 0,0 1,0 1,0l1 3 4 0zm-4 1l2 5 1 -5 -3 0z"/>
      <polygon class="fil2 str1" points="101,135 104,140 101,145 97,140 "/>
     </g>
    </g>
    <polygon class="fil2 str1" points="57,96 48,85 57,73 65,85 "/>
    <rect class="fil0" x="1" y="1" width="111" height="168" rx="6" ry="6"/>
    <path class="fil1" d="M7 0l99 0c2,0 4,1 5,2 1,1 2,3 2,5l0 155c0,2 -1,4 -2,5 -1,1 -3,2 -5,2l-99 0c-2,0 -4,-1 -5,-2 -1,-1 -2,-3 -2,-5l0 -155c0,-2 1,-4 2,-5 1,-1 3,-2 5,-2zm99 2l-99 0c-1,0 -3,0 -4,1 -1,1 -1,3 -1,4l0 155c0,2 0,3 1,4 1,1 3,2 4,2l99 0c1,0 3,-1 4,-2 1,-1 1,-2 1,-4l0 -155c0,-1 0,-3 -1,-4 -1,-1 -3,-1 -4,-1z"/>
    <g>
     <g>
      <path class="fil3" d="M15 15l-4 6 4 0c0,0 0,0 0,0 1,0 1,0 1,0 0,0 0,1 0,1 -1,0 -1,0 -1,0l-5 0c0,0 0,0 0,-1 0,0 0,0 0,0l4 -7c0,0 0,-1 0,-1 0,-1 0,-1 0,-1 0,-1 -1,-1 -1,-1 0,0 0,0 -1,0 0,0 0,0 -1,0 0,0 0,1 0,1 0,0 0,0 0,0l-1 0c0,0 0,0 0,0 0,0 0,0 0,0 0,0 0,-1 0,-1 0,0 0,0 1,-1 0,0 0,0 1,0 0,0 0,0 0,0 1,0 2,0 3,1 0,0 1,1 1,2 0,1 -1,1 -1,2z"/>
      <polygon class="fil2 str1" points="12,34 9,29 12,25 16,29 "/>
     </g>
     <g>
      <path class="fil3" d="M98 155l4 -6 -4 0c0,0 0,0 0,-1 0,0 0,0 0,0 0,0 0,0 0,0 0,-1 0,-1 0,-1l5 0c1,0 1,1 1,1 0,0 0,0 0,0l-5 7c0,1 0,1 0,1 0,1 0,1 1,2 0,0 0,0 0,0 0,0 1,0 1,0 0,0 1,0 1,0 0,0 0,0 1,-1 0,0 0,0 0,0l0 0c0,0 0,0 0,0 1,0 1,0 1,1 0,0 0,0 0,0 -1,0 -1,1 -2,1 0,0 0,0 0,0 0,0 -1,0 -1,0 -1,0 -2,0 -2,0 -1,-1 -1,-2 -1,-3 0,0 0,-1 0,-1z"/>
      <polygon class="fil2 str1" points="101,135 104,140 101,145 97,140 "/>
     </g>
    </g>
   </g>
   <polygon class="fil2 str1" points="57,37 48,25 57,13 65,25 "/>
   <polygon class="fil2 str1" points="57,159 48,147 57,135 65,147 "/>
  </g>
 </g>
</svg>
