<?xml version="1.0" encoding="UTF-8"?>
<!DOCTYPE svg PUBLIC "-//W3C//DTD SVG 1.1//EN" "http://www.w3.org/Graphics/SVG/1.1/DTD/svg11.dtd">
<!-- Creator: CorelDRAW X7 -->
<svg xmlns="http://www.w3.org/2000/svg" xml:space="preserve" width="101.095mm" height="91.8894mm" version="1.1" style="shape-rendering:geometricPrecision; text-rendering:geometricPrecision; image-rendering:optimizeQuality; fill-rule:evenodd; clip-rule:evenodd"
viewBox="0 0 2823 2566"
 xmlns:xlink="http://www.w3.org/1999/xlink">
 <defs>
  <style type="text/css">
   <![CDATA[
    .str0 {stroke:#3BB8B8;stroke-width:5.58449;stroke-linecap:round;stroke-linejoin:round}
    .fil0 {fill:none}
   ]]>
  </style>
 </defs>
 <g id="Слой_x0020_1">
  <metadata id="CorelCorpID_0Corel-Layer"/>
  <g id="_1884818373632">
   <g>
    <path class="fil0 str0" d="M1328 2496l345 0 0 -75c31,-25 49,-50 67,-86 29,-57 20,-83 24,-141 5,-54 31,-82 30,-146 0,-40 -10,-68 -25,-106l1 -144c2,-84 -45,-138 -105,-202l0 -63c52,-31 74,-73 84,-132l-1 -267c-1,-28 -11,-52 -28,-72l0 -91c15,-18 26,-37 28,-62l-4 -755 105 -111c4,-7 7,-13 7,-20 1,-22 -12,-20 -28,-20l-671 1c-14,0 -27,0 -31,18 -1,7 1,14 7,23l107 111 0 384 -242 1 0 108 242 -1 0 259c2,26 11,48 32,65l0 89c-20,22 -30,47 -31,73l-1 266c9,57 48,101 91,133l0 63c-68,67 -105,133 -109,200l3 146c-17,31 -28,64 -33,98 -15,97 18,96 36,169 14,58 -4,87 36,148 15,24 36,45 64,64l0 75z"/>
    <line class="fil0 str0" x1="1158" y1="70" x2="1824" y2= "70" />
    <polyline class="fil0 str0" points="1240,169 1745,169 1745,169 "/>
    <polyline class="fil0 str0" points="1240,347 1745,347 1745,347 "/>
    <polyline class="fil0 str0" points="1240,469 1746,469 1746,469 "/>
    <line class="fil0 str0" x1="1464" y1="169" x2="1464" y2= "469" />
    <line class="fil0 str0" x1="1521" y1="169" x2="1521" y2= "469" />
    <polyline class="fil0 str0" points="1272,972 1720,972 1720,971 "/>
    <line class="fil0 str0" x1="1272" y1="1061" x2="1724" y2= "1061" />
    <polyline class="fil0 str0" points="1331,1533 1665,1533 1670,1530 "/>
    <polyline class="fil0 str0" points="1331,1596 1665,1596 1665,1596 "/>
    <polyline class="fil0 str0" points="1222,1796 1770,1796 1770,1798 "/>
    <line class="fil0 str0" x1="1225" y1="1942" x2="1769" y2= "1942" />
    <line class="fil0 str0" x1="1298" y1="1796" x2="1298" y2= "1942" />
    <line class="fil0 str0" x1="1347" y1="1796" x2="1347" y2= "1942" />
    <polyline class="fil0 str0" points="1501,1796 1501,1942 1497,1942 "/>
    <polyline class="fil0 str0" points="1232,2229 1762,2229 1763,2229 "/>
    <polygon class="fil0 str0" points="1328,2496 1328,2563 1673,2563 1673,2496 "/>
    <ellipse class="fil0 str0" cx="1648" cy="2071" rx="96" ry="108"/>
    <ellipse class="fil0 str0" cx="1648" cy="2071" rx="37" ry="43"/>
    <polyline class="fil0 str0" points="1240,156 1744,156 1744,154 "/>
    <polyline class="fil0 str0" points="1177,90 1803,90 1804,91 "/>
    <polyline class="fil0 str0" points="1613,169 1613,972 1632,972 1632,169 "/>
    <polyline class="fil0 str0" points="1377,169 1377,972 1358,972 1358,169 "/>
    <polygon class="fil0 str0" points="1293,1082 1701,1082 1721,1117 1727,1147 1727,1400 1718,1436 1691,1482 1658,1511 1341,1511 1308,1486 1279,1438 1262,1392 1262,1151 1271,1113 "/>
    <polygon class="fil0 str0" points="1249,1775 1262,1728 1288,1676 1341,1616 1656,1616 1706,1679 1738,1731 1747,1773 "/>
    <polyline class="fil0 str0" points="1669,1965 1753,1965 1770,2026 1766,2091 1745,2154 1744,2207 1255,2207 1242,2170 1222,2123 1218,2060 1229,2003 1242,1966 1625,1966 1625,1966 "/>
    <polygon class="fil0 str0" points="1261,2256 1271,2316 1308,2366 1336,2389 1353,2405 1353,2475 1650,2475 1650,2405 1687,2379 1709,2338 1730,2285 1732,2256 "/>
    <polyline class="fil0 str0" points="1498,1774 1498,1616 1498,1616 "/>
    <polygon class="fil0 str0" points="1275,1757 1481,1757 1481,1631 1351,1631 "/>
    <polygon class="fil0 str0" points="1515,1631 1515,1757 1725,1757 1647,1632 "/>
    <polyline class="fil0 str0" points="1497,1082 1497,1511 1499,1511 "/>
    <rect class="fil0 str0" x="1517" y="1112" width="159.772" height="47.0996"/>
    <rect class="fil0 str0" x="1517" y="1188" width="159.772" height="47.0996"/>
    <rect class="fil0 str0" x="1517" y="1264" width="159.772" height="47.0996"/>
    <rect class="fil0 str0" x="1517" y="1340" width="159.772" height="47.0996"/>
    <rect class="fil0 str0" x="1517" y="1417" width="159.772" height="47.0996"/>
    <rect class="fil0 str0" x="1316" y="1112" width="159.772" height="47.0996"/>
    <rect class="fil0 str0" x="1316" y="1188" width="159.772" height="47.0996"/>
    <rect class="fil0 str0" x="1316" y="1264" width="159.772" height="47.0996"/>
    <rect class="fil0 str0" x="1316" y="1340" width="159.772" height="47.0996"/>
    <rect class="fil0 str0" x="1316" y="1417" width="159.772" height="47.0996"/>
    <polyline class="fil0 str0" points="1711,1099 1711,1451 1710,1450 "/>
    <polyline class="fil0 str0" points="1278,1103 1278,1438 1279,1438 "/>
    <polygon class="fil0 str0" points="3,289 1240,289 1240,540 998,541 998,649 1240,649 1240,762 3,762 "/>
    <line class="fil0 str0" x1="245" y1="289" x2="245" y2= "762" />
    <line class="fil0 str0" x1="474" y1="289" x2="474" y2= "762" />
    <polyline class="fil0 str0" points="706,289 706,762 690,762 "/>
    <line class="fil0 str0" x1="932" y1="289" x2="932" y2= "762" />
    <line class="fil0 str0" x1="1096" y1="289" x2="1096" y2= "541" />
    <line class="fil0 str0" x1="1096" y1="649" x2="1096" y2= "762" />
   </g>
   <polygon class="fil0 str0" points="2820,289 2597,392 2351,383 2071,260 1745,289 1745,540 1988,487 1988,595 1745,649 1745,762 2016,715 2240,814 2558,854 2724,762 "/>
   <line class="fil0 str0" x1="1881" y1="739" x2="1883" y2= "277" />
   <polyline class="fil0 str0" points="2053,731 2056,715 2093,270 "/>
   <line class="fil0 str0" x1="2240" y1="814" x2="2308" y2= "364" />
   <polyline class="fil0 str0" points="2423,837 2519,389 2519,389 "/>
   <line class="fil0 str0" x1="2583" y1="840" x2="2686" y2= "351" />
  </g>
 </g>
</svg>
