<?xml version="1.0" encoding="UTF-8"?>
<!DOCTYPE svg PUBLIC "-//W3C//DTD SVG 1.1//EN" "http://www.w3.org/Graphics/SVG/1.1/DTD/svg11.dtd">
<!-- Creator: CorelDRAW X7 -->
<svg xmlns="http://www.w3.org/2000/svg" xml:space="preserve" width="68.0536mm" height="67.9477mm" version="1.1" style="shape-rendering:geometricPrecision; text-rendering:geometricPrecision; image-rendering:optimizeQuality; fill-rule:evenodd; clip-rule:evenodd"
viewBox="0 0 1433 1430"
 xmlns:xlink="http://www.w3.org/1999/xlink">
 <defs>
  <style type="text/css">
   <![CDATA[
    .str0 {stroke:#3BB8B8;stroke-width:4.21024;stroke-linecap:round;stroke-linejoin:round}
    .fil0 {fill:none}
   ]]>
  </style>
 </defs>
 <g id="Слой_x0020_1">
  <metadata id="CorelCorpID_0Corel-Layer"/>
  <g id="_1884653145824">
   <g>
    <g>
     <polygon class="fil0 str0" points="591,454 844,454 983,583 983,844 855,981 590,981 457,847 457,592 "/>
     <rect class="fil0 str0" x="591" y="415" width="255.103" height="38.9742"/>
     <rect class="fil0 str0" x="983" y="583" width="35.1303" height="260.109"/>
     <rect class="fil0 str0" x="590" y="981" width="266.801" height="35.1724"/>
     <rect class="fil0 str0" x="415" y="592" width="41.2435" height="258.995"/>
     <path class="fil0 str0" d="M1018 583c14,-22 37,-34 64,-43 24,-7 32,-7 56,-7l150 0c23,0 34,0 57,7 25,7 43,18 56,43l0 260c-14,23 -33,36 -55,44 -24,9 -36,8 -61,8l-134 0c-30,0 -43,1 -72,-8 -27,-9 -47,-22 -61,-44l0 -260z"/>
     <rect class="fil0 str0" x="1401" y="583" width="29.2654" height="260.13"/>
     <path class="fil0 str0" d="M415 592c-14,-22 -36,-38 -62,-49 -20,-9 -27,-10 -48,-10l-169 0c-20,0 -31,2 -50,8 -24,7 -41,18 -55,42l0 260c15,23 33,36 55,44 26,9 40,8 67,8l143 0c27,0 43,-2 69,-10 21,-6 38,-15 50,-34l0 -259z"/>
     <rect class="fil0 str0" x="2" y="583" width="29.2654" height="260.13"/>
     <path class="fil0 str0" d="M857 1016c21,13 31,35 39,60 8,26 8,36 8,63l0 144c0,22 0,33 -6,55 -7,27 -18,46 -44,61l-260 0c-25,-16 -38,-36 -46,-61 -7,-21 -6,-33 -6,-55l0 -150c0,-23 1,-34 8,-57 8,-26 18,-47 40,-60l267 0z"/>
     <rect class="fil0 str0" transform="matrix(-2.64845E-014 1 -1 -2.64845E-014 854.155 1399.01)" width="29.2654" height="260.13"/>
     <path class="fil0 str0" d="M846 415c22,-14 38,-37 48,-64 10,-24 9,-33 9,-57l0 -140c0,-27 1,-41 -7,-67 -8,-24 -19,-42 -43,-56l-260 0c-20,13 -33,29 -41,48 -12,27 -11,39 -11,67l0 139c0,28 -1,40 8,67 8,27 20,49 43,63l254 0z"/>
     <rect class="fil0 str0" transform="matrix(-2.64845E-014 -1 -1 2.64845E-014 853.039 31.3705)" width="29.2654" height="260.13"/>
     <polygon class="fil0 str0" points="490,599 609,480 833,480 948,595 948,839 841,951 607,951 491,836 "/>
     <circle class="fil0 str0" cx="719" cy="716" r="212"/>
     <g>
      <rect class="fil0 str0" x="698" y="520" width="42.1024" height="42.1024"/>
      <rect class="fil0 str0" x="698" y="869" width="42.1024" height="42.1024"/>
     </g>
     <g>
      <rect class="fil0 str0" transform="matrix(1.92496E-014 -0.726823 0.763563 2.02226E-014 523.482 736.795)" width="57.9266" height="55.1394"/>
      <rect class="fil0 str0" transform="matrix(1.92496E-014 -0.726823 0.763563 2.02226E-014 872.431 736.795)" width="57.9266" height="55.1394"/>
     </g>
     <g>
      <rect class="fil0 str0" transform="matrix(-0.363412 -0.629448 0.661265 -0.381781 560.203 831.738)" width="57.9266" height="55.1394"/>
      <rect class="fil0 str0" transform="matrix(-0.363412 -0.629448 0.661265 -0.381781 862.402 657.264)" width="57.9266" height="55.1394"/>
     </g>
     <g>
      <rect class="fil0 str0" transform="matrix(-0.629448 -0.363412 0.381781 -0.661265 639.477 895.6)" width="57.9266" height="55.1394"/>
      <rect class="fil0 str0" transform="matrix(-0.629448 -0.363412 0.381781 -0.661265 813.951 593.401)" width="57.9266" height="55.1394"/>
     </g>
     <g>
      <rect class="fil0 str0" transform="matrix(-0.629448 0.363412 -0.381781 -0.661265 835.003 874.548)" width="57.9266" height="55.1394"/>
      <rect class="fil0 str0" transform="matrix(-0.629448 0.363412 -0.381781 -0.661265 660.529 572.35)" width="57.9266" height="55.1394"/>
     </g>
     <g>
      <rect class="fil0 str0" transform="matrix(-0.363412 0.629448 -0.661265 -0.381781 898.865 795.275)" width="57.9266" height="55.1394"/>
      <rect class="fil0 str0" transform="matrix(-0.363412 0.629448 -0.661265 -0.381781 596.667 620.8)" width="57.9266" height="55.1394"/>
     </g>
     <ellipse class="fil0 str0" cx="719" cy="716" rx="92" ry="90"/>
     <rect class="fil0 str0" x="708" y="1042" width="28.9623" height="329.734"/>
     <rect class="fil0 str0" x="779" y="1042" width="28.9623" height="329.734"/>
     <rect class="fil0 str0" x="639" y="1042" width="28.9623" height="329.734"/>
     <rect class="fil0 str0" x="846" y="1122" width="28.9623" height="169.323"/>
     <rect class="fil0 str0" x="577" y="1122" width="28.9623" height="169.323"/>
     <rect class="fil0 str0" x="1090" y="587" width="55.1434" height="57.9266"/>
     <rect class="fil0 str0" x="1267" y="587" width="55.1434" height="57.9266"/>
     <rect class="fil0 str0" x="1090" y="751" width="55.1434" height="57.9266"/>
     <rect class="fil0 str0" x="1267" y="751" width="55.1434" height="57.9266"/>
     <circle class="fil0 str0" cx="620" cy="119" r="35"/>
     <circle class="fil0 str0" cx="620" cy="217" r="35"/>
     <circle class="fil0 str0" cx="620" cy="322" r="35"/>
     <rect class="fil0 str0" x="707" y="58" width="28.9623" height="329.734"/>
     <rect class="fil0 str0" x="784" y="88" width="55.1434" height="57.9266"/>
     <rect class="fil0 str0" x="784" y="266" width="55.1434" height="57.9266"/>
     <polygon class="fil0 str0" points="65,600 65,834 375,834 376,601 "/>
     <polygon class="fil0 str0" points="105,859 105,566 346,566 346,861 "/>
     <polygon class="fil0 str0" points="144,639 304,640 304,801 144,801 "/>
    </g>
    <polygon class="fil0 str0" points="1125,895 1297,895 1212,1080 "/>
    <polygon class="fil0 str0" points="1297,533 1125,533 1210,348 "/>
    <polygon class="fil0 str0" points="902,301 902,130 1087,215 "/>
    <polygon class="fil0 str0" points="541,301 541,130 356,215 "/>
    <polygon class="fil0 str0" points="143,895 315,895 230,1080 "/>
    <polygon class="fil0 str0" points="315,533 143,533 228,348 "/>
    <polygon class="fil0 str0" points="903,1296 903,1124 1088,1209 "/>
    <polygon class="fil0 str0" points="542,1296 542,1124 357,1209 "/>
    <polyline class="fil0 str0" points="1210,348 1210,533 1211,533 "/>
    <polyline class="fil0 str0" points="1212,1080 1212,895 1211,895 "/>
    <polyline class="fil0 str0" points="1088,1209 904,1209 903,1210 "/>
    <polyline class="fil0 str0" points="357,1209 542,1209 542,1208 "/>
    <polyline class="fil0 str0" points="229,895 229,1080 230,1080 "/>
    <polyline class="fil0 str0" points="229,533 229,348 229,350 "/>
    <polyline class="fil0 str0" points="1087,215 902,215 902,216 "/>
    <polyline class="fil0 str0" points="356,215 541,215 541,216 "/>
    <path class="fil0 str0" d="M544 1324c-20,-11 -39,-13 -55,1 33,28 47,59 54,102 16,-9 29,-17 36,-39 -18,-18 -30,-39 -35,-64z"/>
    <path class="fil0 str0" d="M902 1323c20,-10 41,-12 57,2 -32,28 -46,59 -53,102 -16,-9 -30,-17 -36,-39 18,-17 27,-39 32,-65z"/>
    <path class="fil0 str0" d="M906 1427c28,-28 48,-60 53,-102"/>
    <path class="fil0 str0" d="M543 1427c-28,-30 -47,-63 -54,-102"/>
   </g>
   <polygon class="fil0 str0" points="47,838 47,592 69,570 104,554 135,549 313,549 350,560 374,578 395,601 395,845 375,863 333,875 127,875 94,870 60,854 "/>
   <polygon class="fil0 str0" points="599,1382 577,1355 561,1325 559,1295 559,1116 572,1076 589,1044 599,1031 848,1031 868,1059 882,1093 887,1118 887,1305 881,1327 868,1359 846,1382 "/>
   <polygon class="fil0 str0" points="1036,838 1036,589 1062,568 1099,557 1138,550 1298,550 1342,561 1370,576 1383,590 1383,831 1355,860 1320,873 1295,879 1108,879 1076,867 1055,853 "/>
   <polygon class="fil0 str0" points="600,396 580,373 566,343 559,320 558,304 558,119 572,77 588,57 602,48 848,48 876,80 881,108 885,122 885,311 877,341 864,366 845,397 "/>
   <polyline class="fil0 str0" points="1146,938 1276,938 1277,939 "/>
   <line class="fil0 str0" x1="1148" y1="484" x2="1276" y2= "484" />
   <line class="fil0 str0" x1="959" y1="1150" x2="959" y2= "1270" />
   <line class="fil0 str0" x1="483" y1="1151" x2="483" y2= "1272" />
   <polyline class="fil0 str0" points="170,952 288,952 288,952 "/>
   <polyline class="fil0 str0" points="167,481 291,481 290,481 "/>
   <polyline class="fil0 str0" points="956,155 956,274 957,276 "/>
   <polyline class="fil0 str0" points="480,157 480,274 481,273 "/>
  </g>
 </g>
</svg>
