<?xml version="1.0" encoding="UTF-8"?>
<!DOCTYPE svg PUBLIC "-//W3C//DTD SVG 1.1//EN" "http://www.w3.org/Graphics/SVG/1.1/DTD/svg11.dtd">
<!-- Creator: CorelDRAW X7 -->
<svg xmlns="http://www.w3.org/2000/svg" xml:space="preserve" width="60.2284mm" height="59.6119mm" version="1.1" style="shape-rendering:geometricPrecision; text-rendering:geometricPrecision; image-rendering:optimizeQuality; fill-rule:evenodd; clip-rule:evenodd"
viewBox="0 0 155 153"
 xmlns:xlink="http://www.w3.org/1999/xlink">
 <defs>
  <style type="text/css">
   <![CDATA[
    .fil0 {fill:#4DFFFF}
   ]]>
  </style>
 </defs>
 <g id="Слой_x0020_1">
  <metadata id="CorelCorpID_0Corel-Layer"/>
  <path class="fil0" d="M12 108c0,0 0,1 -1,1 0,0 0,0 -1,0l0 0c0,0 -1,1 -2,1 0,0 0,0 0,0 -3,0 -4,0 -5,-3 0,0 0,-1 0,-2l0 -19c-2,-3 -3,-7 -3,-11 0,-4 1,-8 3,-11l0 -15c0,0 0,-1 0,-1 0,0 0,-1 0,-1 1,-3 2,-4 6,-3l0 0 0 0 0 0 0 0c1,0 1,0 1,0 1,0 1,0 2,1l0 0c0,0 0,0 0,0 1,0 3,1 4,2l0 0 0 -44c0,-2 1,-3 3,-3l31 0c2,0 3,1 3,3l0 0 0 45 20 0c12,0 17,6 20,9 1,0 1,1 1,1l8 0c1,-2 2,-4 4,-5 2,-2 4,-3 7,-3l25 0c2,0 3,1 4,1 2,1 3,2 4,3 0,0 0,0 0,1l1 0c0,0 1,1 1,2 1,0 1,0 1,1l3 0c2,0 3,1 3,2l0 32c0,2 -1,3 -3,3l-3 0 -1 0c-2,4 -4,8 -10,8l-25 0c-6,0 -9,-5 -11,-7 0,-1 0,-1 1,-1l0 0 0 0c0,0 0,0 0,0l-9 0c0,0 0,0 0,0 0,0 0,1 -1,1 -3,3 -9,10 -20,10l-20 -1 0 3c0,0 0,0 0,0 0,0 0,0 0,1l0 42c0,1 -1,2 -3,2l-32 0c-1,0 -2,-1 -2,-2l0 -45 0 0c-2,1 -3,2 -4,2zm91 -13l0 0 0 0c0,0 1,0 0,0z"/>
 </g>
</svg>
