<?xml version="1.0" encoding="UTF-8"?>
<!DOCTYPE svg PUBLIC "-//W3C//DTD SVG 1.1//EN" "http://www.w3.org/Graphics/SVG/1.1/DTD/svg11.dtd">
<!-- Creator: CorelDRAW X7 -->
<svg xmlns="http://www.w3.org/2000/svg" xml:space="preserve" width="107.545mm" height="126.856mm" version="1.1" style="shape-rendering:geometricPrecision; text-rendering:geometricPrecision; image-rendering:optimizeQuality; fill-rule:evenodd; clip-rule:evenodd"
viewBox="0 0 3597 4243"
 xmlns:xlink="http://www.w3.org/1999/xlink">
 <defs>
  <style type="text/css">
   <![CDATA[
    .str0 {stroke:#3BB8B8;stroke-width:6.68918;stroke-linecap:round;stroke-linejoin:round}
    .str2 {stroke:#3BB8B8;stroke-width:6.68918;stroke-linecap:round;stroke-linejoin:round;stroke-dasharray:6.689177 6.689177}
    .str1 {stroke:#3BB8B8;stroke-width:6.68918;stroke-linecap:round;stroke-linejoin:round;stroke-dasharray:13.378353 6.689177}
    .fil0 {fill:none}
   ]]>
  </style>
 </defs>
 <g id="Слой_x0020_1">
  <metadata id="CorelCorpID_0Corel-Layer"/>
  <g id="_1884734734192">
   <g>
    <g>
     <polygon class="fil0 str0" points="38,1551 120,1326 814,1326 573,1237 573,511 1626,511 1626,1219 1343,1326 1500,1332 1580,1587 1976,1795 2159,1795 2162,2222 1965,2228 1584,2098 1498,2374 120,2374 38,2153 "/>
     <line class="fil0 str0" x1="120" y1="1326" x2="120" y2= "2374" />
     <line class="fil0 str0" x1="206" y1="1326" x2="206" y2= "2374" />
     <line class="fil0 str0" x1="489" y1="1326" x2="489" y2= "2374" />
     <line class="fil0 str0" x1="206" y1="1394" x2="827" y2= "1394" />
     <line class="fil0 str0" x1="206" y1="1551" x2="655" y2= "1551" />
     <line class="fil0 str0" x1="206" y1="1850" x2="563" y2= "1850" />
     <line class="fil0 str0" x1="206" y1="2157" x2="666" y2= "2157" />
     <line class="fil0 str0" x1="206" y1="2308" x2="842" y2= "2308" />
     <polyline class="fil0 str0" points="975,2359 976,2173 1199,2173 1199,2359 "/>
     <polyline class="fil0 str0" points="814,1326 1042,965 1042,655 1498,655 1498,784 1440,784 1440,974 1346,1326 1343,1326 "/>
     <line class="fil0 str0" x1="573" y1="618" x2="1626" y2= "618" />
     <line class="fil0 str0" x1="573" y1="945" x2="1042" y2= "945" />
     <line class="fil0 str0" x1="653" y1="618" x2="653" y2= "1153" />
     <line class="fil0 str0" x1="823" y1="618" x2="823" y2= "1144" />
     <polyline class="fil0 str0" points="573,1146 920,1146 925,1150 "/>
     <line class="fil0 str0" x1="573" y1="1237" x2="874" y2= "1237" />
     <line class="fil0 str0" x1="1393" y1="1150" x2="1626" y2= "1150" />
     <line class="fil0 str0" x1="1531" y1="618" x2="1531" y2= "1150" />
     <line class="fil0 str0" x1="1370" y1="1237" x2="1579" y2= "1237" />
     <polyline class="fil0 str0" points="1024,994 1434,994 1435,994 "/>
     <line class="fil0 str0" x1="1124" y1="994" x2="1045" y2= "1164" />
     <line class="fil0 str0" x1="1321" y1="994" x2="1191" y2= "1295" />
     <line class="fil0 str0" x1="1603" y1="1742" x2="1976" y2= "1925" />
     <line class="fil0 str0" x1="1608" y1="1926" x2="1976" y2= "2088" />
     <polyline class="fil0 str0" points="1976,1795 1976,2222 1976,2228 "/>
     <ellipse class="fil0 str0" cx="1095" cy="1844" rx="270" ry="269"/>
     <ellipse class="fil0 str0" cx="1089" cy="1848" rx="525" ry="523"/>
     <polyline class="fil0 str0" points="988,1334 988,1520 1190,1520 1190,1336 1191,1334 "/>
     <line class="fil0 str0" x1="890" y1="1363" x2="989" y2= "1597" />
     <line class="fil0 str0" x1="1298" y1="1368" x2="1191" y2= "1593" />
     <line class="fil0 str0" x1="1571" y1="1639" x2="1343" y2= "1738" />
     <line class="fil0 str0" x1="604" y1="1646" x2="845" y2= "1744" />
     <line class="fil0 str0" x1="606" y1="2056" x2="847" y2= "1951" />
     <line class="fil0 str0" x1="877" y1="2327" x2="984" y2= "2089" />
     <line class="fil0 str0" x1="1297" y1="2328" x2="1199" y2= "2092" />
     <line class="fil0 str0" x1="1576" y1="2043" x2="1340" y2= "1958" />
     <polyline class="fil0 str0" points="988,1334 988,1164 1191,1164 1191,1334 "/>
     <polygon class="fil0 str0" points="2159,1795 2283,1795 2954,1383 3396,1383 3462,1449 3462,2593 3396,2684 2965,2684 2288,2222 2162,2222 "/>
     <line class="fil0 str0" x1="2283" y1="1795" x2="2283" y2= "2222" />
     <line class="fil0 str0" x1="2469" y1="1680" x2="2469" y2= "2346" />
     <polyline class="fil0 str0" points="2787,1486 2787,2272 2732,2272 2732,2516 2728,2522 "/>
     <polyline class="fil0 str0" points="2843,1451 2843,2598 2842,2599 "/>
     <line class="fil0 str0" x1="2924" y1="1401" x2="2924" y2= "2659" />
     <line class="fil0 str0" x1="3250" y1="1383" x2="3250" y2= "1894" />
     <line class="fil0 str0" x1="3252" y1="2157" x2="3252" y2= "2595" />
     <polyline class="fil0 str0" points="2924,2598 3451,2598 3462,2593 "/>
     <line class="fil0 str0" x1="2924" y1="1896" x2="3396" y2= "1896" />
     <line class="fil0 str0" x1="2924" y1="2157" x2="3396" y2= "2157" />
     <line class="fil0 str0" x1="2924" y1="2124" x2="3396" y2= "2124" />
     <line class="fil0 str0" x1="2924" y1="1945" x2="3396" y2= "1945" />
     <line class="fil0 str0" x1="3396" y1="1383" x2="3396" y2= "2684" />
     <polyline class="fil0 str0" points="2690,1545 2690,1737 2787,1737 "/>
     <polyline class="fil0 str0" points="2787,1943 2675,1943 2675,2106 2787,2106 "/>
     <ellipse class="fil0 str0" cx="2550" cy="1785" rx="50" ry="56"/>
     <ellipse class="fil0 str0" cx="2550" cy="2015" rx="50" ry="56"/>
     <path class="fil0 str0" d="M766 2374l0 64 -204 533c-18,54 -6,87 38,98l0 734 955 0 0 -734c58,-4 110,-142 -12,-153l0 -44 36 -11 0 -186 -72 0 -75 -237 0 -64 -666 0z"/>
     <line class="fil0 str0" x1="766" y1="2438" x2="1432" y2= "2438" />
     <line class="fil0 str0" x1="655" y1="2728" x2="1543" y2= "2728" />
     <polyline class="fil0 str0" points="1543,2675 1543,2872 1543,2871 "/>
     <line class="fil0 str0" x1="1319" y1="2438" x2="1345" y2= "2728" />
     <line class="fil0 str0" x1="879" y1="2438" x2="828" y2= "2728" />
     <polyline class="fil0 str0" points="828,2728 827,2904 914,2904 914,2728 "/>
     <line class="fil0 str0" x1="562" y1="2971" x2="1616" y2= "2971" />
     <line class="fil0 str0" x1="600" y1="3069" x2="1555" y2= "3069" />
     <line class="fil0 str0" x1="731" y1="3069" x2="731" y2= "3803" />
     <line class="fil0 str0" x1="832" y1="3069" x2="832" y2= "3356" />
     <line class="fil0 str0" x1="1215" y1="3069" x2="1215" y2= "3400" />
     <line class="fil0 str0" x1="837" y1="3716" x2="1555" y2= "3720" />
     <line class="fil0 str0" x1="600" y1="3721" x2="731" y2= "3721" />
     <line class="fil0 str0" x1="1215" y1="3119" x2="1555" y2= "3119" />
     <line class="fil0 str0" x1="600" y1="3124" x2="731" y2= "3124" />
     <line class="fil0 str0" x1="832" y1="3183" x2="1215" y2= "3183" />
     <polygon class="fil0 str0" points="777,3360 1408,3418 1383,3677 746,3613 "/>
     <line class="fil0 str0" x1="1092" y1="3389" x2="1065" y2= "3645" />
     <polyline class="fil0 str0" points="774,3386 1405,3446 1405,3446 "/>
     <line class="fil0 str0" x1="1402" y1="3473" x2="771" y2= "3413" />
     <line class="fil0 str0" x1="1399" y1="3513" x2="766" y2= "3452" />
     <line class="fil0 str0" x1="1396" y1="3547" x2="762" y2= "3486" />
     <line class="fil0 str0" x1="1391" y1="3590" x2="756" y2= "3529" />
     <line class="fil0 str0" x1="1387" y1="3635" x2="752" y2= "3568" />
     <line class="fil0 str0" x1="834" y1="3621" x2="834" y2= "3803" />
     <polyline class="fil0 str0" points="893,3371 893,3244 1152,3244 1152,3394 1152,3395 "/>
     <polyline class="fil0 str0" points="894,3627 894,3684 1157,3684 1157,3654 1157,3654 "/>
     <polyline class="fil0 str0" points="945,3376 945,3301 1103,3301 1103,3391 "/>
     <rect class="fil0 str0" x="2997" y="3" width="350" height="1296"/>
     <polygon class="fil0 str0" points="3377,3614 3365,4239 3466,4097 3594,4009 3496,3816 3460,3616 3287,3272 3347,2779 2997,2779 3132,3385 "/>
     <line class="fil0 str0" x1="2997" y1="1180" x2="3347" y2= "1180" />
     <line class="fil0 str0" x1="2997" y1="1035" x2="3347" y2= "1035" />
     <line class="fil0 str0" x1="2997" y1="889" x2="3347" y2= "889" />
     <line class="fil0 str0" x1="2997" y1="743" x2="3347" y2= "743" />
     <line class="fil0 str0" x1="2997" y1="598" x2="3347" y2= "598" />
     <line class="fil0 str0" x1="2997" y1="452" x2="3347" y2= "452" />
     <line class="fil0 str0" x1="2995" y1="307" x2="3345" y2= "307" />
     <line class="fil0 str0" x1="2995" y1="161" x2="3345" y2= "161" />
     <polyline class="fil0 str0" points="3022,2893 3042,2880 3316,2880 3332,2893 3333,2893 "/>
     <polyline class="fil0 str0" points="3057,3050 3125,3052 3300,3034 3313,3050 3314,3050 "/>
     <polyline class="fil0 str0" points="3090,3197 3165,3206 3294,3197 3296,3197 "/>
     <polyline class="fil0 str0" points="3126,3359 3220,3375 3297,3351 3334,3359 3331,3361 "/>
     <polyline class="fil0 str0" points="3237,3484 3315,3504 3395,3487 "/>
     <line class="fil0 str0" x1="3362" y1="3601" x2="3449" y2= "3593" />
     <polyline class="fil0 str0" points="3374,3740 3395,3714 3477,3709 "/>
     <polyline class="fil0 str0" points="3371,3889 3409,3851 3496,3816 "/>
     <polyline class="fil0 str0" points="3368,4060 3426,3986 3545,3912 "/>
     <polyline class="fil0 str0" points="3172,2779 3182,2948 3185,3043 3193,3201 3212,3298 3230,3363 3316,3494 3384,3599 3405,3597 3395,3598 3402,3714 3434,3852 3446,3973 3466,4097 3464,4086 3466,4097 "/>
     <line class="fil0 str0" x1="3172" y1="1299" x2="3172" y2= "3" />
     <rect class="fil0 str0" x="3146" y="2684" width="50.4397" height="94.993"/>
     <rect class="fil0 str0" x="3147" y="1299" width="50.4397" height="84.1967"/>
     <rect class="fil0 str0" x="3" y="1551" width="35.0245" height="604.25"/>
     <polyline class="fil0 str0" points="120,2349 925,2349 926,2345 "/>
     <polyline class="fil0 str0" points="1237,2350 1472,2350 1555,2089 1568,2062 1976,2204 2283,2197 2924,2625 2969,2660 3396,2660 "/>
     <polyline class="fil0 str0" points="1343,1326 1341,1353 1481,1359 1562,1607 1976,1821 2283,1821 2962,1409 3396,1409 "/>
     <polyline class="fil0 str0" points="3462,1449 3499,1449 3499,1674 3537,1674 3537,1792 3499,1792 3499,1978 3536,1978 3536,2093 3499,2093 3499,2280 3536,2280 3536,2387 3499,2387 3499,2596 3461,2596 "/>
     <ellipse class="fil0 str0" cx="2550" cy="2245" rx="50" ry="56"/>
     <ellipse class="fil0 str1" cx="1095" cy="1844" rx="240" ry="239"/>
     <circle class="fil0 str1" cx="1095" cy="1844" r="213"/>
     <ellipse class="fil0 str0" cx="1095" cy="1844" rx="184" ry="183"/>
     <ellipse class="fil0 str0" cx="1095" cy="1844" rx="165" ry="164"/>
     <circle class="fil0 str2" cx="1095" cy="1844" r="110"/>
     <ellipse class="fil0 str2" cx="1095" cy="1844" rx="92" ry="91"/>
     <polyline class="fil0 str0" points="906,1400 642,1661 644,2039 892,2294 892,2294 "/>
     <polyline class="fil0 str0" points="1280,1407 1534,1655 1536,2028 1283,2294 "/>
     <line class="fil0 str0" x1="988" y1="1364" x2="1190" y2= "1364" />
     <line class="fil0 str0" x1="988" y1="1287" x2="1191" y2= "1287" />
     <line class="fil0 str0" x1="1089" y1="1364" x2="1089" y2= "1520" />
     <line class="fil0 str0" x1="1089" y1="1287" x2="1089" y2= "1164" />
     <line class="fil0 str0" x1="988" y1="1414" x2="1190" y2= "1414" />
     <line class="fil0 str0" x1="988" y1="1473" x2="1190" y2= "1473" />
     <polyline class="fil0 str0" points="770,1394 690,1455 619,1551 556,1672 537,1742 537,1850 542,1967 572,2076 625,2157 678,2234 780,2308 "/>
     <polygon class="fil0 str0" points="1081,952 1081,694 1461,694 1461,741 1403,741 1403,950 "/>
     <polygon class="fil0 str0" points="881,2690 919,2475 1279,2475 1297,2689 "/>
     <polygon class="fil0 str0" points="1352,2478 1406,2478 1473,2683 1383,2683 "/>
     <polygon class="fil0 str0" points="835,2475 796,2689 706,2689 784,2475 "/>
     <rect class="fil0 str0" x="955" y="2760" width="549" height="171"/>
     <rect class="fil0 str0" x="955" y="2760" width="548.653" height="47.1955"/>
     <rect class="fil0 str0" x="955" y="2883" width="548.653" height="47.1955"/>
     <polygon class="fil0 str0" points="684,2770 781,2770 781,2931 625,2931 "/>
     <polyline class="fil0 str0" points="600,3803 600,3831 825,3831 1082,3913 1316,3831 1555,3831 1555,3803 "/>
     <polyline class="fil0 str0" points="573,512 573,485 821,485 1104,402 1362,485 1626,485 1626,512 "/>
     <line class="fil0 str0" x1="821" y1="485" x2="1371" y2= "485" />
     <line class="fil0 str0" x1="1104" y1="402" x2="1104" y2= "485" />
     <line class="fil0 str0" x1="825" y1="3831" x2="1325" y2= "3831" />
     <polyline class="fil0 str0" points="1082,3831 1082,3913 1179,3831 "/>
     <line class="fil0 str0" x1="1082" y1="3913" x2="992" y2= "3831" />
     <polyline class="fil0 str0" points="1000,485 1104,402 1201,485 "/>
    </g>
    <rect class="fil0 str0" x="1999" y="1848" width="137" height="327"/>
    <rect class="fil0 str0" x="2184" y="1849" width="75.2198" height="324.489"/>
   </g>
   <rect class="fil0 str0" x="2962" y="1447" width="100" height="100"/>
   <rect class="fil0 str0" x="3107" y="1447" width="100" height="100"/>
   <rect class="fil0 str0" x="2962" y="1598" width="100" height="100"/>
   <rect class="fil0 str0" x="3107" y="1598" width="100" height="100"/>
   <rect class="fil0 str0" x="2962" y="1750" width="100" height="100"/>
   <rect class="fil0 str0" x="3107" y="1750" width="100" height="100"/>
   <rect class="fil0 str0" x="2962" y="2240" width="100" height="100"/>
   <rect class="fil0 str0" x="3107" y="2240" width="100" height="100"/>
   <rect class="fil0 str0" x="2962" y="2404" width="100" height="100"/>
   <rect class="fil0 str0" x="3107" y="2404" width="100" height="100"/>
   <rect class="fil0 str0" x="3295" y="2157" width="52.3595" height="440.248"/>
   <rect class="fil0 str0" x="3294" y="1409" width="56.0453" height="487.079"/>
   <line class="fil0 str0" x1="2283" y1="1890" x2="2469" y2= "1820" />
   <line class="fil0 str0" x1="2283" y1="1963" x2="2469" y2= "1938" />
   <line class="fil0 str0" x1="2283" y1="2044" x2="2469" y2= "2066" />
   <line class="fil0 str0" x1="2283" y1="2122" x2="2469" y2= "2200" />
  </g>
 </g>
</svg>
