<?xml version="1.0" encoding="UTF-8"?>
<!DOCTYPE svg PUBLIC "-//W3C//DTD SVG 1.1//EN" "http://www.w3.org/Graphics/SVG/1.1/DTD/svg11.dtd">
<!-- Creator: CorelDRAW X7 -->
<svg xmlns="http://www.w3.org/2000/svg" xml:space="preserve" width="81.9043mm" height="108.528mm" version="1.1" style="shape-rendering:geometricPrecision; text-rendering:geometricPrecision; image-rendering:optimizeQuality; fill-rule:evenodd; clip-rule:evenodd"
viewBox="0 0 238 316"
 xmlns:xlink="http://www.w3.org/1999/xlink">
 <defs>
  <style type="text/css">
   <![CDATA[
    .fil0 {fill:#4DFFFF}
   ]]>
  </style>
 </defs>
 <g id="Слой_x0020_1">
  <metadata id="CorelCorpID_0Corel-Layer"/>
  <path class="fil0" d="M40 0l36 0c2,0 3,1 3,3l0 13c0,0 0,1 0,1 0,0 0,0 0,0l0 12 27 27c1,0 1,1 1,2l0 6 0 13c1,-1 1,-1 2,-1l1 0 0 0 41 0 4 0 36 0 5 0 39 0c2,0 3,1 3,3l0 78c0,2 -1,3 -3,3l-39 0 -5 0 -36 0 -4 0 -38 0 -5 0c-1,0 -3,-1 -3,-3l0 -6c0,0 -1,1 -2,1l0 0 0 9c0,1 -1,2 -2,3l-7 4 0 24 4 1c2,0 3,1 3,3l0 0 0 14 6 0c1,0 3,1 3,3l0 0 0 19c0,1 -2,3 -3,3l-13 0 -1 2 0 0 0 0 -13 19 0 1 6 0 9 0 28 0 6 0 4 0c0,0 1,0 1,0 7,3 11,8 12,14 1,2 2,5 2,8 -1,3 -1,5 -2,8 -3,5 -7,10 -13,12 -1,0 -1,0 -1,0l0 0 -3 0 -6 0 -2 0 0 14c0,1 -1,3 -3,3l-5 0 -10 0 -5 0c-2,0 -3,-2 -3,-3l0 -13 -9 0 -7 0c0,0 0,0 0,0 0,0 0,0 0,0l-1 0 0 0c0,0 0,0 0,0l0 0c0,0 0,1 0,1l0 6c0,2 -1,3 -3,3l0 0 -37 0c-2,0 -3,-1 -3,-3l0 -5c-3,-2 -4,-4 -6,-6 -1,-3 -2,-5 -2,-7l-3 -11c-1,-5 -1,-9 1,-13 1,0 1,-1 2,-2 -3,1 -5,0 -7,-1 -2,-1 -4,-3 -5,-5 -1,-2 -1,-5 -1,-7 1,-4 3,-8 8,-10l0 -2 -19 0c-2,0 -3,-1 -3,-3l0 -29c0,-2 1,-3 3,-3l9 0 0 -16c0,-1 1,-2 2,-3l4 -2 0 -9c0,-2 2,-3 3,-3l0 -1 -5 0c-1,0 -3,-1 -3,-3l0 0 0 -48 -2 0c-1,-1 -2,-2 -2,-3l0 -15c0,-2 1,-3 3,-3l-2 -1c0,0 -1,-1 -1,-2l0 0 0 -11c0,-1 1,-2 2,-3l2 -1 0 -6 -3 -2c-1,0 -1,-1 -1,-2l0 -4c0,0 0,-1 0,-1 0,0 0,0 0,0l0 -6c0,0 0,0 0,0 0,0 0,0 0,-1 0,0 0,-1 1,-1l0 0 27 -27 0 -12c0,0 0,0 0,0 0,0 0,0 0,0l0 -14c0,-2 1,-3 3,-3l0 0z"/>
 </g>
</svg>
