<?xml version="1.0" encoding="UTF-8"?>
<!DOCTYPE svg PUBLIC "-//W3C//DTD SVG 1.1//EN" "http://www.w3.org/Graphics/SVG/1.1/DTD/svg11.dtd">
<!-- Creator: CorelDRAW X7 -->
<svg xmlns="http://www.w3.org/2000/svg" xml:space="preserve" width="59.4146mm" height="59.7692mm" version="1.1" style="shape-rendering:geometricPrecision; text-rendering:geometricPrecision; image-rendering:optimizeQuality; fill-rule:evenodd; clip-rule:evenodd"
viewBox="0 0 133 134"
 xmlns:xlink="http://www.w3.org/1999/xlink">
 <defs>
  <style type="text/css">
   <![CDATA[
    .fil0 {fill:#4DFFFF}
   ]]>
  </style>
 </defs>
 <g id="Слой_x0020_1">
  <metadata id="CorelCorpID_0Corel-Layer"/>
  <path class="fil0" d="M80 0c2,0 3,1 3,2l0 4c1,2 2,3 3,5 0,1 1,4 1,6 0,2 0,3 0,5 0,4 0,8 0,12 0,2 -1,4 -2,6 -1,2 -2,3 -3,5l0 3c1,2 3,5 4,8 2,3 2,6 3,10 0,0 0,0 0,0l0 20 5 0c0,0 1,0 1,0 0,0 0,0 1,0l35 0c1,0 2,1 2,2l0 28c0,2 -1,3 -2,3l-12 0c-1,0 -1,0 -1,0 -1,0 -1,0 -1,0l-9 0c-1,0 -1,0 -1,0 -1,0 -1,0 -1,0l-10 0c-1,0 -1,0 -1,0 0,0 -1,0 -1,0l-3 0 0 0c3,2 5,5 4,9 0,3 0,3 -3,3l-16 0c-2,2 -5,3 -9,3 -3,0 -7,-1 -9,-3l-16 0 0 0c-2,0 -3,0 -4,-2 -1,-4 1,-7 3,-10l1 0 -40 0c-1,0 -2,-1 -2,-3l0 -28c0,-1 1,-2 2,-2l41 0 0 -20 0 0c0,-3 1,-6 2,-9 1,-3 2,-6 4,-9 1,0 1,0 1,-1l0 -2c-1,-1 -3,-3 -4,-5 -1,-2 -2,-4 -2,-6 0,-4 0,-8 0,-11 1,-2 1,-4 1,-6 0,-2 0,-4 1,-6 1,-2 2,-3 3,-5l0 -4c0,-1 1,-2 2,-2l29 0z"/>
 </g>
</svg>
