<?xml version="1.0" encoding="UTF-8"?>
<!DOCTYPE svg PUBLIC "-//W3C//DTD SVG 1.1//EN" "http://www.w3.org/Graphics/SVG/1.1/DTD/svg11.dtd">
<!-- Creator: CorelDRAW X7 -->
<svg xmlns="http://www.w3.org/2000/svg" xml:space="preserve" width="57.5488mm" height="57.123mm" version="1.1" style="shape-rendering:geometricPrecision; text-rendering:geometricPrecision; image-rendering:optimizeQuality; fill-rule:evenodd; clip-rule:evenodd"
viewBox="0 0 9795 9723"
 xmlns:xlink="http://www.w3.org/1999/xlink">
 <defs>
  <style type="text/css">
   <![CDATA[
    .str0 {stroke:#3BB8B8;stroke-width:34.0417;stroke-linecap:round;stroke-linejoin:round}
    .str1 {stroke:#3BB8B8;stroke-width:34.0417;stroke-linecap:round;stroke-linejoin:round;stroke-dasharray:68.083334 34.041667}
    .fil0 {fill:none}
   ]]>
  </style>
 </defs>
 <g id="Слой_x0020_1">
  <metadata id="CorelCorpID_0Corel-Layer"/>
  <g id="_1884714855472">
   <g>
    <path class="fil0 str0" d="M3898 17l0 292c-307,254 -538,566 -546,985 0,289 0,578 0,867 58,402 176,733 549,951l0 259c-401,301 -561,700 -557,1166l0 1952 -3327 0 0 2084 3327 0 -381 659c-43,73 -53,134 -23,181 43,69 102,66 172,66l1082 0c355,290 1041,314 1419,0l989 0c76,0 177,14 223,-59 52,-83 12,-138 -29,-208l-370 -641 3352 0 0 -2081 -3355 0 0 -2027c-48,-512 -239,-884 -588,-1096l0 -252c357,-208 564,-510 618,-1005l0 -833c-43,-395 -318,-754 -616,-969l0 -291 -1939 0z"/>
    <line class="fil0 str0" x1="3898" y1="309" x2="5837" y2= "308" />
    <polyline class="fil0 str0" points="3901,3112 5835,3112 5835,3115 "/>
    <polyline class="fil0 str0" points="3901,3371 5835,3371 5835,3367 "/>
    <line class="fil0 str0" x1="3344" y1="5706" x2="6423" y2= "5706" />
    <line class="fil0 str0" x1="872" y1="6489" x2="872" y2= "8573" />
    <line class="fil0 str0" x1="1772" y1="6491" x2="1772" y2= "8573" />
    <line class="fil0 str0" x1="2673" y1="6489" x2="2673" y2= "8573" />
    <polyline class="fil0 str0" points="3344,6422 3344,8573 3282,8573 "/>
    <line class="fil0 str0" x1="6423" y1="6490" x2="6423" y2= "8571" />
    <line class="fil0 str0" x1="7041" y1="6490" x2="7041" y2= "8571" />
    <line class="fil0 str0" x1="7908" y1="6490" x2="7908" y2= "8571" />
    <line class="fil0 str0" x1="8775" y1="6490" x2="8775" y2= "8571" />
    <line class="fil0 str0" x1="3037" y1="9104" x2="6734" y2= "9104" />
    <line class="fil0 str0" x1="3344" y1="8459" x2="6423" y2= "8459" />
    <line class="fil0 str0" x1="3344" y1="6657" x2="6423" y2= "6657" />
    <ellipse class="fil0 str0" cx="4126" cy="4377" rx="371" ry="369"/>
    <polygon class="fil0 str0" points="3518,2133 3518,1272 3557,951 3766,669 3980,450 5787,450 6051,731 6271,1159 6299,1277 6299,2122 6164,2527 5967,2803 5809,2938 3935,2938 3738,2741 3569,2381 "/>
    <polygon class="fil0 str0" points="3501,5561 3501,4390 3586,4030 3766,3726 3957,3523 5764,3523 6079,3805 6198,4109 6271,4463 6271,5567 "/>
    <polyline class="fil0 str0" points="3344,8573 6457,8573 6457,8625 "/>
    <line class="fil0 str0" x1="2963" y1="9232" x2="6825" y2= "9232" />
    <polyline class="fil0 str0" points="4244,9104 4387,8573 4387,8573 "/>
    <line class="fil0 str0" x1="5545" y1="9104" x2="5402" y2= "8570" />
    <polygon class="fil0 str0" points="3515,6783 3510,8314 6285,8314 6285,6783 "/>
    <polygon class="fil0 str0" points="3510,6536 3510,5860 6279,5860 6279,6529 "/>
    <ellipse class="fil0 str1" cx="4126" cy="4377" rx="290" ry="288"/>
    <ellipse class="fil0 str0" cx="5603" cy="4377" rx="371" ry="369"/>
    <ellipse class="fil0 str1" cx="5603" cy="4377" rx="290" ry="288"/>
    <polyline class="fil0 str0" points="4778,3523 4778,5564 4970,5564 4970,3523 "/>
    <polygon class="fil0 str0" points="3759,6345 3759,6063 4226,6063 4226,6345 "/>
    <polygon class="fil0 str0" points="4656,6345 4656,6063 5123,6063 5123,6345 "/>
    <polygon class="fil0 str0" points="5552,6345 5552,6063 6019,6063 6019,6345 "/>
    <rect class="fil0 str0" x="3644" y="4906" width="985" height="529"/>
    <rect class="fil0 str0" x="5136" y="4906" width="985" height="529"/>
    <rect class="fil0 str0" x="3954" y="870" width="574" height="529"/>
    <rect class="fil0 str0" x="5209" y="870" width="574" height="529"/>
    <rect class="fil0 str0" x="3954" y="1895" width="574" height="529"/>
    <rect class="fil0 str0" x="5209" y="1895" width="574" height="529"/>
    <polygon class="fil0 str0" points="3518,1540 4762,1540 4762,450 4965,450 4965,1540 6299,1540 6299,1743 4965,1743 4965,2938 4762,2938 4762,1743 3518,1743 "/>
   </g>
   <rect class="fil0 str0" x="3645" y="6908" width="1118" height="158"/>
   <rect class="fil0 str0" x="3645" y="7188" width="1118" height="158"/>
   <rect class="fil0 str0" x="3645" y="7468" width="1118" height="158"/>
   <rect class="fil0 str0" x="3645" y="7748" width="1118" height="158"/>
   <rect class="fil0 str0" x="3645" y="8028" width="1118" height="158"/>
   <rect class="fil0 str0" x="5041" y="6908" width="1118" height="158"/>
   <rect class="fil0 str0" x="5041" y="7188" width="1118" height="158"/>
   <rect class="fil0 str0" x="5041" y="7468" width="1118" height="158"/>
   <rect class="fil0 str0" x="5041" y="7748" width="1118" height="158"/>
   <rect class="fil0 str0" x="5041" y="8028" width="1118" height="158"/>
  </g>
 </g>
</svg>
