<?xml version="1.0" encoding="UTF-8"?>
<!DOCTYPE svg PUBLIC "-//W3C//DTD SVG 1.1//EN" "http://www.w3.org/Graphics/SVG/1.1/DTD/svg11.dtd">
<!-- Creator: CorelDRAW X7 -->
<svg xmlns="http://www.w3.org/2000/svg" xml:space="preserve" width="90.1899mm" height="36.5413mm" version="1.1" style="shape-rendering:geometricPrecision; text-rendering:geometricPrecision; image-rendering:optimizeQuality; fill-rule:evenodd; clip-rule:evenodd"
viewBox="0 0 1546 627"
 xmlns:xlink="http://www.w3.org/1999/xlink">
 <defs>
  <style type="text/css">
   <![CDATA[
    .str0 {stroke:#3BB8B8;stroke-width:3.42923;stroke-linecap:round;stroke-linejoin:round}
    .fil0 {fill:none}
   ]]>
  </style>
 </defs>
 <g id="Слой_x0020_1">
  <metadata id="CorelCorpID_0Corel-Layer"/>
  <g id="_1884818345792">
   <g>
    <path class="fil0 str0" d="M80 597l0 -117 -40 -52 0 -259 -38 0 0 -148 70 0 0 -19 22 0 0 40 655 0 158 92 182 0c-11,-9 -17,-19 -20,-30 -2,-11 -3,-11 6,-11l136 -1c10,0 10,-2 8,9 -2,12 -9,23 -16,33l176 0 0 17 119 63 0 212 -119 62 0 23 -201 0 1 20 -69 0 -1 -20 -140 0c9,9 15,20 18,32 2,7 2,6 -5,6l-100 0c-6,0 -6,1 -5,-6 1,-11 7,-21 16,-31 2,-2 1,-2 -1,0l-144 73 0 38 -67 0 -49 -26 -552 0z"/>
    <line class="fil0 str0" x1="58" y1="21" x2="58" y2= "168" />
    <line class="fil0 str0" x1="40" y1="169" x2="59" y2= "169" />
    <line class="fil0 str0" x1="2" y1="56" x2="58" y2= "56" />
    <polyline class="fil0 str0" points="2,118 58,118 58,118 "/>
    <polygon class="fil0 str0" points="141,108 141,88 202,88 202,108 "/>
    <polyline class="fil0 str0" points="419,42 419,597 419,597 "/>
    <polygon class="fil0 str0" points="141,384 141,332 242,332 242,384 "/>
    <line class="fil0 str0" x1="192" y1="332" x2="192" y2= "384" />
    <line class="fil0 str0" x1="419" y1="108" x2="749" y2= "108" />
    <line class="fil0 str0" x1="419" y1="311" x2="749" y2= "311" />
    <line class="fil0 str0" x1="419" y1="343" x2="749" y2= "343" />
    <line class="fil0 str0" x1="419" y1="525" x2="749" y2= "525" />
    <line class="fil0 str0" x1="419" y1="493" x2="749" y2= "493" />
    <line class="fil0 str0" x1="80" y1="574" x2="748" y2= "574" />
    <line class="fil0 str0" x1="749" y1="42" x2="749" y2= "625" />
    <line class="fil0 str0" x1="815" y1="81" x2="815" y2= "553" />
    <line class="fil0 str0" x1="855" y1="104" x2="855" y2= "532" />
    <line class="fil0 str0" x1="907" y1="134" x2="907" y2= "312" />
    <ellipse class="fil0 str0" cx="506" cy="246" rx="38" ry="37"/>
    <polyline class="fil0 str0" points="1077,325 1077,261 1202,261 1202,338 "/>
    <polygon class="fil0 str0" points="862,466 907,312 1383,353 1374,507 "/>
    <polyline class="fil0 str0" points="1261,498 1267,343 1267,343 "/>
    <path class="fil0 str0" d="M985 476c0,-4 0,-3 0,-5l23 -150 0 0"/>
    <polyline class="fil0 str0" points="1106,486 1124,331 1124,331 "/>
    <polyline class="fil0 str0" points="1154,334 1141,488 1141,488 "/>
    <line class="fil0 str0" x1="904" y1="323" x2="1122" y2= "343" />
    <line class="fil0 str0" x1="1121" y1="357" x2="899" y2= "341" />
    <line class="fil0 str0" x1="1119" y1="372" x2="893" y2= "359" />
    <line class="fil0 str0" x1="1117" y1="389" x2="888" y2= "377" />
    <line class="fil0 str0" x1="1115" y1="408" x2="882" y2= "396" />
    <line class="fil0 str0" x1="1112" y1="431" x2="877" y2= "416" />
    <line class="fil0 str0" x1="1110" y1="451" x2="870" y2= "437" />
    <line class="fil0 str0" x1="1108" y1="469" x2="865" y2= "455" />
    <line class="fil0 str0" x1="1153" y1="343" x2="1383" y2= "362" />
    <line class="fil0 str0" x1="1382" y1="377" x2="1152" y2= "357" />
    <line class="fil0 str0" x1="1381" y1="392" x2="1150" y2= "374" />
    <line class="fil0 str0" x1="1380" y1="408" x2="1149" y2= "390" />
    <line class="fil0 str0" x1="1379" y1="426" x2="1147" y2= "409" />
    <line class="fil0 str0" x1="1377" y1="446" x2="1146" y2= "432" />
    <line class="fil0 str0" x1="1376" y1="468" x2="1144" y2= "451" />
    <line class="fil0 str0" x1="1375" y1="488" x2="1142" y2= "471" />
    <path class="fil0 str0" d="M1109 329c-6,-43 70,-55 65,6"/>
    <polygon class="fil0 str0" points="39,430 6,430 6,216 39,216 "/>
    <polyline class="fil0 str0" points="72,21 94,21 94,22 "/>
    <polyline class="fil0 str0" points="1376,467 1376,468 1376,467 1481,412 1481,225 1361,168 1361,149 925,149 925,314 "/>
    <polyline class="fil0 str0" points="913,470 913,488 1162,490 "/>
    <line class="fil0 str0" x1="1069" y1="104" x2="1219" y2= "104" />
    <polyline class="fil0 str0" points="878,537 984,537 985,536 "/>
    <line class="fil0 str0" x1="1122" y1="490" x2="1122" y2= "531" />
    <line class="fil0 str0" x1="1165" y1="490" x2="1165" y2= "531" />
    <polyline class="fil0 str0" points="1278,149 1278,344 1278,344 "/>
    <polyline class="fil0 str0" points="1278,229 1481,229 1481,225 "/>
    <line class="fil0 str0" x1="1360" y1="229" x2="1360" y2= "308" />
    <line class="fil0 str0" x1="1428" y1="229" x2="1428" y2= "305" />
    <line class="fil0 str0" x1="1481" y1="306" x2="1451" y2= "306" />
    <line class="fil0 str0" x1="1428" y1="305" x2="1383" y2= "305" />
    <polyline class="fil0 str0" points="1481,360 1383,360 1383,360 "/>
    <line class="fil0 str0" x1="1418" y1="445" x2="1418" y2= "360" />
    <line class="fil0 str0" x1="891" y1="512" x2="913" y2= "488" />
    <polygon class="fil0 str0" points="946,165 1266,165 1266,224 946,224 "/>
    <polygon class="fil0 str0" points="1214,239 1214,339 1267,343 1267,239 "/>
    <polygon class="fil0 str0" points="1201,252 1201,234 946,234 946,316 1063,326 1063,252 "/>
    <polyline class="fil0 str0" points="434,108 434,188 467,207 486,196 484,184 508,182 507,194 525,199 535,187 553,206 542,214 548,226 561,220 568,237 555,241 555,254 568,259 558,281 547,274 535,285 542,296 518,304 514,295 495,294 489,305 464,293 473,284 462,270 455,274 455,251 437,252 437,293 419,293 "/>
    <rect class="fil0 str0" x="592" y="124" width="142" height="173"/>
    <circle class="fil0 str0" cx="663" cy="211" r="43"/>
    <circle class="fil0 str0" cx="663" cy="211" r="33"/>
    <rect class="fil0 str0" x="80" y="525" width="339.389" height="48.7688"/>
    <rect class="fil0 str0" x="128" y="525" width="48.4842" height="48.7688"/>
    <rect class="fil0 str0" x="177" y="525" width="48.4842" height="48.7688"/>
    <rect class="fil0 str0" x="225" y="525" width="48.4842" height="48.7688"/>
    <rect class="fil0 str0" x="274" y="525" width="48.4842" height="48.7688"/>
    <rect class="fil0 str0" x="322" y="525" width="48.4842" height="48.7688"/>
    <rect class="fil0 str0" x="371" y="525" width="48.4842" height="48.7688"/>
    <rect class="fil0 str0" x="80" y="525" width="48.4842" height="48.7688"/>
    <rect class="fil0 str0" x="453" y="125" width="125.21" height="41.7372"/>
   </g>
   <rect class="fil0 str0" x="1498" y="214" width="46.8124" height="211.851"/>
  </g>
 </g>
</svg>
