<?xml version="1.0" encoding="UTF-8"?>
<!DOCTYPE svg PUBLIC "-//W3C//DTD SVG 1.1//EN" "http://www.w3.org/Graphics/SVG/1.1/DTD/svg11.dtd">
<!-- Creator: CorelDRAW X7 -->
<svg xmlns="http://www.w3.org/2000/svg" xml:space="preserve" width="59.3488mm" height="58.9236mm" version="1.1" style="shape-rendering:geometricPrecision; text-rendering:geometricPrecision; image-rendering:optimizeQuality; fill-rule:evenodd; clip-rule:evenodd"
viewBox="0 0 116 115"
 xmlns:xlink="http://www.w3.org/1999/xlink">
 <defs>
  <style type="text/css">
   <![CDATA[
    .fil0 {fill:#4DFFFF}
   ]]>
  </style>
 </defs>
 <g id="Слой_x0020_1">
  <metadata id="CorelCorpID_0Corel-Layer"/>
  <path class="fil0" d="M45 4l0 -2c0,-1 0,-2 2,-2l22 0c1,0 2,1 2,2l0 2c1,2 3,3 4,5 2,2 2,5 3,7 0,0 0,0 0,0l0 10 0 0c0,0 0,0 0,0 -1,3 -1,6 -3,8 -1,2 -2,3 -4,5l0 0c2,2 3,3 4,5 1,3 2,6 2,9 0,0 0,0 0,0l0 14 0 7 6 0 10 0 9 0 12 0c1,0 2,1 2,2l0 24c0,1 -1,2 -2,2l-12 0 -9 0 -10 0 -4 0 2 3c0,0 0,0 0,0l0 1c1,0 1,1 1,2 0,1 1,1 0,3 -1,2 -3,2 -4,2 0,0 0,0 0,0l-11 0c-3,1 -6,2 -9,2 -3,0 -6,-1 -9,-2l-12 0 0 0 0 0c-1,0 -2,0 -3,-2 -1,-1 -1,-2 -1,-2 0,-1 1,-2 1,-2 0,0 0,0 0,0l1 -2c0,0 0,0 0,0l2 -3 -5 0 -10 0 -10 0 -10 0c-1,0 -2,-1 -2,-2l0 -24c0,-1 1,-2 2,-2l10 0 20 0 6 0 0 -7 0 -13 0 0c0,-3 1,-6 2,-8 1,-3 2,-5 5,-6l0 -1c-2,-2 -4,-3 -5,-5 -1,-2 -1,-5 -2,-7 0,0 0,0 0,0l0 -10 0 0 0 0c0,-3 1,-6 2,-8 1,-2 3,-3 5,-5z"/>
 </g>
</svg>
