<?xml version="1.0" encoding="UTF-8"?>
<!DOCTYPE svg PUBLIC "-//W3C//DTD SVG 1.1//EN" "http://www.w3.org/Graphics/SVG/1.1/DTD/svg11.dtd">
<!-- Creator: CorelDRAW X7 -->
<svg xmlns="http://www.w3.org/2000/svg" xml:space="preserve" width="542.265mm" height="321.96mm" version="1.1" style="shape-rendering:geometricPrecision; text-rendering:geometricPrecision; image-rendering:optimizeQuality; fill-rule:evenodd; clip-rule:evenodd"
viewBox="0 0 30211 17937"
 xmlns:xlink="http://www.w3.org/1999/xlink">
 <defs>
  <style type="text/css">
   <![CDATA[
    .str0 {stroke:#3BB8B8;stroke-width:11.1424;stroke-linecap:round;stroke-linejoin:round}
    .str1 {stroke:#3BB8B8;stroke-width:11.1424;stroke-linecap:round;stroke-linejoin:round;stroke-dasharray:11.142427 11.142427}
    .str3 {stroke:#3BB8B8;stroke-width:11.1424;stroke-linecap:round;stroke-linejoin:round;stroke-dasharray:11.142427 33.427281}
    .str4 {stroke:#3BB8B8;stroke-width:11.1424;stroke-linecap:round;stroke-linejoin:round;stroke-dasharray:11.142427 55.712136}
    .str2 {stroke:#3BB8B8;stroke-width:11.1424;stroke-linecap:round;stroke-linejoin:round;stroke-dasharray:22.284854 11.142427}
    .fil0 {fill:none}
   ]]>
  </style>
 </defs>
 <g id="Слой_x0020_1">
  <metadata id="CorelCorpID_0Corel-Layer"/>
  <g id="_1884711030752">
   <g>
    <g>
     <path class="fil0 str0" d="M3487 7894l0 -380 -130 -168 0 -843 -123 0 0 -481 227 0 0 -62 73 0 0 130 2127 3 515 298 590 0c-35,-30 -56,-62 -64,-99 -8,-34 -10,-34 19,-34l442 -3c31,0 34,-7 27,28 -8,38 -29,74 -51,108l570 0 0 54 386 205 0 688 -385 202 0 74 -653 0 0 65 -224 0 0 -64 -457 -1c29,32 49,66 59,104 6,25 7,21 -16,21l-324 -1c-21,0 -21,4 -18,-18 4,-37 23,-70 51,-101 7,-7 7,-6 -2,-2l-466 239 -1 124 -217 0 -162 -86 -1793 0z"/>
     <line class="fil0 str0" x1="3417" y1="6022" x2="3417" y2= "6499" />
     <line class="fil0 str0" x1="3357" y1="6503" x2="3421" y2= "6503" />
     <line class="fil0 str0" x1="3234" y1="6138" x2="3417" y2= "6138" />
     <polyline class="fil0 str0" points="3234,6337 3417,6337 3417,6337 "/>
     <polygon class="fil0 str0" points="3686,6306 3686,6241 3884,6241 3884,6305 "/>
     <polyline class="fil0 str0" points="4590,6091 4590,7894 4590,7894 "/>
     <polygon class="fil0 str0" points="3687,7203 3687,7035 4015,7035 4015,7203 "/>
     <line class="fil0 str0" x1="3851" y1="7035" x2="3851" y2= "7203" />
     <line class="fil0 str0" x1="4590" y1="6305" x2="5661" y2= "6305" />
     <line class="fil0 str0" x1="4590" y1="6965" x2="5661" y2= "6965" />
     <line class="fil0 str0" x1="4590" y1="7068" x2="5663" y2= "7068" />
     <line class="fil0 str0" x1="4590" y1="7662" x2="5661" y2= "7662" />
     <line class="fil0 str0" x1="4590" y1="7557" x2="5661" y2= "7557" />
     <line class="fil0 str0" x1="3487" y1="7820" x2="5660" y2= "7820" />
     <line class="fil0 str0" x1="5661" y1="6093" x2="5661" y2= "7985" />
     <line class="fil0 str0" x1="5877" y1="6218" x2="5877" y2= "7750" />
     <line class="fil0 str0" x1="6005" y1="6292" x2="6006" y2= "7683" />
     <line class="fil0 str0" x1="6176" y1="6391" x2="6176" y2= "6969" />
     <circle class="fil0 str0" cx="4871" cy="6752" r="122"/>
     <polyline class="fil0 str0" points="6728,7011 6728,6803 7135,6803 7135,7054 "/>
     <polygon class="fil0 str0" points="6029,7468 6176,6969 7723,7103 7691,7603 "/>
     <polyline class="fil0 str0" points="7326,7573 7345,7070 7345,7070 "/>
     <path class="fil0 str0" d="M6429 7500c0,-11 -2,-7 -2,-15l78 -488 0 0"/>
     <polyline class="fil0 str0" points="6823,7532 6879,7030 6879,7030 "/>
     <polyline class="fil0 str0" points="6977,7038 6936,7542 6936,7542 "/>
     <line class="fil0 str0" x1="6165" y1="7005" x2="6875" y2= "7069" />
     <line class="fil0 str0" x1="6870" y1="7115" x2="6148" y2= "7063" />
     <line class="fil0 str0" x1="6864" y1="7165" x2="6131" y2= "7122" />
     <line class="fil0 str0" x1="6858" y1="7218" x2="6114" y2= "7180" />
     <line class="fil0 str0" x1="6851" y1="7281" x2="6095" y2= "7243" />
     <line class="fil0 str0" x1="6843" y1="7355" x2="6077" y2= "7306" />
     <line class="fil0 str0" x1="6836" y1="7421" x2="6057" y2= "7375" />
     <line class="fil0 str0" x1="6829" y1="7478" x2="6040" y2= "7433" />
     <line class="fil0 str0" x1="6974" y1="7068" x2="7721" y2= "7133" />
     <line class="fil0 str0" x1="7718" y1="7178" x2="6970" y2= "7116" />
     <line class="fil0 str0" x1="7715" y1="7227" x2="6966" y2= "7170" />
     <line class="fil0 str0" x1="7711" y1="7281" x2="6962" y2= "7222" />
     <line class="fil0 str0" x1="7708" y1="7340" x2="6957" y2= "7284" />
     <line class="fil0 str0" x1="7704" y1="7403" x2="6951" y2= "7357" />
     <line class="fil0 str0" x1="7699" y1="7474" x2="6946" y2= "7420" />
     <line class="fil0 str0" x1="7695" y1="7541" x2="6940" y2= "7485" />
     <path class="fil0 str0" d="M6832 7023c-21,-140 226,-177 211,19"/>
     <polygon class="fil0 str0" points="3355,7352 3249,7352 3249,6656 3355,6656 "/>
     <polyline class="fil0 str0" points="3461,6022 3534,6022 3534,6025 "/>
     <polyline class="fil0 str0" points="7699,7471 7699,7474 7698,7472 8039,7294 8040,6684 7652,6500 7652,6440 6235,6440 6235,6977 "/>
     <polyline class="fil0 str0" points="6196,7482 6196,7539 7003,7547 "/>
     <line class="fil0 str0" x1="6702" y1="6292" x2="7188" y2= "6292" />
     <polyline class="fil0 str0" points="6081,7699 6426,7699 6428,7698 "/>
     <line class="fil0 str0" x1="6875" y1="7546" x2="6875" y2= "7679" />
     <line class="fil0 str0" x1="7013" y1="7547" x2="7013" y2= "7679" />
     <polyline class="fil0 str0" points="7381,6440 7381,7073 7381,7074 "/>
     <polyline class="fil0 str0" points="7381,6699 8040,6699 8040,6684 "/>
     <line class="fil0 str0" x1="7646" y1="6699" x2="7646" y2= "6955" />
     <line class="fil0 str0" x1="7868" y1="6699" x2="7868" y2= "6946" />
     <line class="fil0 str0" x1="8040" y1="6949" x2="7944" y2= "6949" />
     <line class="fil0 str0" x1="7868" y1="6946" x2="7723" y2= "6946" />
     <polyline class="fil0 str0" points="8039,7123 7721,7123 7721,7123 "/>
     <line class="fil0 str0" x1="7836" y1="7400" x2="7836" y2= "7123" />
     <line class="fil0 str0" x1="6124" y1="7618" x2="6196" y2= "7539" />
     <polygon class="fil0 str0" points="6301,6492 7342,6492 7342,6684 6301,6684 "/>
     <polygon class="fil0 str0" points="7172,6731 7171,7057 7345,7070 7346,6732 "/>
     <polygon class="fil0 str0" points="7131,6774 7131,6714 6301,6714 6301,6981 6681,7013 6681,6775 "/>
     <polyline class="fil0 str0" points="4638,6305 4638,6565 4746,6627 4806,6590 4800,6552 4880,6548 4877,6586 4936,6603 4965,6563 5024,6623 4989,6650 5010,6688 5052,6668 5072,6724 5032,6736 5030,6781 5073,6797 5040,6867 5005,6843 4967,6881 4989,6915 4910,6943 4899,6914 4836,6909 4817,6946 4736,6908 4767,6877 4728,6833 4706,6845 4706,6771 4650,6774 4650,6907 4590,6907 "/>
     <rect class="fil0 str0" x="5151" y="6359" width="463" height="563"/>
     <circle class="fil0 str0" cx="5383" cy="6640" r="139"/>
     <circle class="fil0 str0" cx="5383" cy="6640" r="108"/>
     <rect class="fil0 str0" x="3487" y="7662" width="1103" height="158"/>
     <rect class="fil0 str0" x="3645" y="7662" width="158" height="158"/>
     <rect class="fil0 str0" x="3803" y="7662" width="158" height="158"/>
     <rect class="fil0 str0" x="3960" y="7662" width="158" height="158"/>
     <rect class="fil0 str0" x="4118" y="7662" width="158" height="158"/>
     <rect class="fil0 str0" x="4275" y="7662" width="158" height="158"/>
     <rect class="fil0 str0" x="4433" y="7662" width="158" height="158"/>
     <rect class="fil0 str0" x="3487" y="7662" width="158" height="158"/>
     <rect class="fil0 str0" x="4702" y="6362" width="407" height="136"/>
    </g>
    <rect class="fil0 str0" x="8095" y="6650" width="152" height="688"/>
   </g>
   <g>
    <g>
     <g>
      <path class="fil0 str0" d="M10491 14713l-723 0 0 121c-72,67 -113,151 -113,241 0,132 -6,281 -3,424 2,96 67,187 136,258l-1 111c-114,151 -165,288 -160,427l0 568 -1083 0 0 696 1087 0c-48,100 -179,196 -135,287 12,26 13,22 38,22l421 -1c102,90 324,82 420,0l402 0c31,0 32,6 35,-28 11,-113 -110,-178 -169,-279l1100 0 0 -699 -1102 0 0 -558c-3,-161 -82,-313 -168,-435l0 -113c64,-72 118,-155 123,-251 8,-138 3,-291 4,-428 1,-95 -41,-174 -109,-240l0 -123 -6 0"/>
      <line class="fil0 str0" x1="9768" y1="14834" x2="10491" y2= "14834" />
      <line class="fil0 str0" x1="9784" y1="15755" x2="10471" y2= "15755" />
      <line class="fil0 str0" x1="9778" y1="15868" x2="10473" y2= "15868" />
      <line class="fil0 str0" x1="9627" y1="16626" x2="10641" y2= "16626" />
      <line class="fil0 str0" x1="8830" y1="16863" x2="8830" y2= "17559" />
      <line class="fil0 str0" x1="9128" y1="16863" x2="9128" y2= "17559" />
      <line class="fil0 str0" x1="9419" y1="16863" x2="9419" y2= "17559" />
      <line class="fil0 str0" x1="10641" y1="16861" x2="10641" y2= "17569" />
      <line class="fil0 str0" x1="10854" y1="16858" x2="10854" y2= "17562" />
      <line class="fil0 str0" x1="11148" y1="16861" x2="11148" y2= "17565" />
      <line class="fil0 str0" x1="11420" y1="16861" x2="11420" y2= "17565" />
      <polyline class="fil0 str0" points="9627,16863 9627,17559 9631,17559 "/>
      <line class="fil0 str0" x1="9627" y1="16928" x2="10641" y2= "16928" />
      <line class="fil0 str0" x1="9627" y1="17521" x2="10641" y2= "17521" />
      <line class="fil0 str0" x1="9494" y1="17770" x2="10802" y2= "17770" />
      <ellipse class="fil0 str0" cx="9834" cy="16228" rx="102" ry="112"/>
      <ellipse class="fil0 str0" cx="9834" cy="16228" rx="36" ry="42"/>
     </g>
     <rect class="fil0 str0" x="9795" y="15010" width="165" height="153"/>
     <rect class="fil0 str0" x="10257" y="15010" width="165" height="153"/>
     <rect class="fil0 str0" x="10257" y="15417" width="165" height="153"/>
     <rect class="fil0 str0" x="9801" y="15417" width="165" height="153"/>
     <ellipse class="fil0 str0" cx="10325" cy="16228" rx="102" ry="112"/>
     <ellipse class="fil0 str0" cx="10321" cy="16228" rx="36" ry="42"/>
    </g>
    <polygon class="fil0 str0" points="9697,15512 9697,15059 9823,14877 10445,14877 10559,15042 10559,15519 10459,15705 9809,15705 "/>
    <polygon class="fil0 str0" points="9666,16586 9666,16259 9702,16124 9779,15970 9815,15921 10443,15921 10513,16032 10572,16169 10594,16282 10594,16580 "/>
    <polygon class="fil0 str0" points="9663,16671 9663,16894 10593,16894 10593,16671 "/>
    <polygon class="fil0 str0" points="9675,17479 9675,16972 10102,16972 10102,17479 "/>
    <polygon class="fil0 str0" points="10150,16970 10150,17480 10589,17480 10589,16970 "/>
    <polyline class="fil0 str0" points="9830,16972 9830,17158 9675,17158 9675,17198 9878,17198 9878,16972 "/>
    <line class="fil0 str0" x1="9675" y1="17338" x2="10102" y2= "17338" />
    <line class="fil0 str0" x1="10150" y1="17338" x2="10589" y2= "17338" />
    <polyline class="fil0 str0" points="10445,17338 10445,16970 10295,16970 10295,17338 "/>
    <line class="fil0 str0" x1="10150" y1="17091" x2="10589" y2= "17091" />
    <line class="fil0 str0" x1="10150" y1="17219" x2="10589" y2= "17219" />
    <polyline class="fil0 str0" points="9515,17728 10772,17728 10777,17725 "/>
    <polyline class="fil0 str0" points="9631,17559 10641,17559 10643,17560 "/>
    <line class="fil0 str0" x1="9844" y1="17728" x2="9935" y2= "17559" />
    <line class="fil0 str0" x1="10421" y1="17728" x2="10343" y2= "17559" />
   </g>
   <g>
    <g>
     <path class="fil0 str0" d="M9813 8888l688 0 0 530 541 521 0 444 92 0 0 -37 2421 0 0 1500 -2436 0 0 -774 -158 0 0 144 62 0 0 468 -66 0 0 235 -164 95 -1 533 125 33 0 327 176 0 0 365 -269 0 -316 461 47 77 1032 0c330,143 290,591 -14,693l-262 0 0 320 -391 0 0 -306 -365 0c-35,6 -57,25 -62,59l-2 137 -723 0 0 -129c-105,-74 -138,-152 -152,-240l-50 -201c-46,-180 10,-249 201,-318l-59 -67c-346,232 -447,-220 -184,-287l-4 -135 -416 0 0 -558 228 0 3 -367 118 -65 3 -204 49 -1 0 -122 -147 -2 0 -964 -81 -23 0 -282 74 0 1 -73 -75 -45 0 -210 81 -48 1 -162 -86 -59 4 -214 536 -518 0 -531z"/>
     <line class="fil0 str0" x1="9813" y1="9042" x2="10501" y2= "9042" />
     <line class="fil0 str0" x1="9813" y1="9154" x2="10503" y2= "9154" />
     <line class="fil0 str0" x1="9813" y1="9419" x2="10504" y2= "9418" />
     <line class="fil0 str0" x1="10013" y1="9154" x2="10013" y2= "9419" />
     <line class="fil0 str0" x1="10313" y1="9154" x2="10313" y2= "9419" />
     <line class="fil0 str0" x1="10013" y1="9419" x2="9777" y2= "9936" />
     <line class="fil0 str0" x1="10313" y1="9419" x2="10571" y2= "9940" />
     <line class="fil0 str0" x1="9277" y1="9939" x2="11042" y2= "9939" />
     <line class="fil0 str0" x1="9274" y1="10066" x2="11042" y2= "10066" />
     <polyline class="fil0 str0" points="9358,11918 9688,11922 9688,10066 "/>
     <line class="fil0 str0" x1="9688" y1="10717" x2="10621" y2= "10717" />
     <polyline class="fil0 str0" points="10853,11931 10624,11933 10624,10145 10856,10145 10857,11937 "/>
     <polyline class="fil0 str0" points="11003,10066 11003,10753 11163,10753 11163,10346 11153,10346 "/>
     <polyline class="fil0 str0" points="11163,10753 11337,10753 11337,11047 10856,11047 "/>
     <line class="fil0 str0" x1="11207" y1="11047" x2="11207" y2= "11846" />
     <line class="fil0 str0" x1="11940" y1="10346" x2="11940" y2= "11846" />
     <line class="fil0 str0" x1="12714" y1="10346" x2="12714" y2= "11846" />
     <line class="fil0 str0" x1="12795" y1="10346" x2="12795" y2= "11846" />
     <line class="fil0 str0" x1="9688" y1="11714" x2="10624" y2= "11714" />
     <polygon class="fil0 str0" points="9770,13133 9770,11950 10566,11950 10566,13155 9770,13155 "/>
     <polyline class="fil0 str0" points="9332,12778 9666,12778 9666,13336 9520,13336 9520,13346 "/>
     <polyline class="fil0 str0" points="9666,13336 10771,13336 10777,13340 10779,12907 10917,12907 "/>
     <line class="fil0 str0" x1="10079" y1="13330" x2="10079" y2= "13728" />
     <polyline class="fil0 str0" points="10079,13601 10394,13601 10394,13336 "/>
     <polyline class="fil0 str0" points="10079,13500 9950,13500 9950,13728 10509,13730 "/>
     <line class="fil0 str0" x1="9767" y1="13825" x2="9767" y2= "14584" />
     <polyline class="fil0 str0" points="9768,14584 10493,14584 10493,14576 "/>
     <line class="fil0 str0" x1="10555" y1="14517" x2="10555" y2= "13810" />
     <line class="fil0 str0" x1="10700" y1="14517" x2="10700" y2= "13810" />
     <line class="fil0 str0" x1="10870" y1="14517" x2="10870" y2= "13810" />
     <line class="fil0 str0" x1="11397" y1="14503" x2="11397" y2= "13810" />
     <line class="fil0 str0" x1="11524" y1="14503" x2="11524" y2= "13810" />
     <polyline class="fil0 str0" points="10971,14823 10971,14276 11069,14276 11069,14016 11188,14016 11188,14110 11341,14110 11341,14213 11188,14214 11188,14274 11255,14274 11255,14823 "/>
     <polygon class="fil0 str0" points="10063,13948 10063,14073 10271,14073 10271,13948 "/>
     <polyline class="fil0 str0" points="10063,14073 10063,14155 10271,14155 10271,14073 10275,14073 "/>
     <polyline class="fil0 str0" points="9632,13336 9871,13729 9767,13825 "/>
     <circle class="fil0 str0" cx="9976" cy="14380" r="105"/>
     <rect class="fil0 str0" x="11940" y="10346" width="79.3564" height="1499.85"/>
     <rect class="fil0 str0" x="11027" y="14329" width="175" height="494"/>
     <rect class="fil0 str0" x="11111" y="14064" width="41.2715" height="265.335"/>
     <rect class="fil0 str0" x="11153" y="14140" width="148.88" height="39.8007"/>
     <rect class="fil0 str0" x="10908" y="13849" width="86.9666" height="86.9666"/>
     <rect class="fil0 str0" x="11097" y="13849" width="86.9666" height="86.9666"/>
     <rect class="fil0 str0" x="11268" y="13849" width="86.9666" height="86.9666"/>
     <circle class="fil0 str0" cx="9548" cy="13653" r="105"/>
     <ellipse class="fil0 str0" cx="9667" cy="14026" rx="68" ry="69"/>
     <ellipse class="fil0 str0" cx="9682" cy="14205" rx="41" ry="42"/>
     <ellipse class="fil0 str0" cx="9696" cy="14356" rx="33" ry="34"/>
     <polyline class="fil0 str0" points="10079,13644 10465,13644 10465,13336 "/>
     <polyline class="fil0 str0" points="10677,13336 10397,13729 10397,13729 "/>
     <rect class="fil0 str0" x="9183" y="12843" width="404" height="425"/>
     <rect class="fil0 str0" x="10813" y="12949" width="242" height="274"/>
     <rect class="fil0 str0" x="10247" y="14275" width="195" height="200"/>
     <polyline class="fil0 str0" points="9770,12041 10566,12041 10566,12106 9770,12106 9770,12167 10566,12167 10566,12238 9770,12238 9770,12300 10566,12300 10566,12368 9770,12368 9770,12433 10566,12433 10566,12512 9770,12512 9770,12565 10566,12565 10566,12630 9770,12630 9770,12704 10566,12704 10566,12772 9770,12772 9770,12840 10566,12840 10566,12910 9770,12910 9770,12972 10566,12972 10566,13043 9770,13043 9770,13093 10566,13093 "/>
     <line class="fil0 str0" x1="10168" y1="11950" x2="10168" y2= "13155" />
     <line class="fil0 str0" x1="10536" y1="11950" x2="10536" y2= "13155" />
     <line class="fil0 str0" x1="9796" y1="11950" x2="9796" y2= "13155" />
     <polyline class="fil0 str0" points="9221,12843 9221,13267 9268,13267 9268,12843 9321,12843 9321,13267 9545,13267 9545,12843 9501,12843 9501,13267 "/>
     <polyline class="fil0 str0" points="9666,13267 10716,13267 10716,12843 10869,12843 10869,12639 10566,12639 10566,12630 "/>
     <polyline class="fil0 str0" points="10739,12639 10739,12008 10566,12008 "/>
     <polyline class="fil0 str0" points="9770,11999 9581,11999 9581,12377 9412,12474 9412,12728 9770,12728 "/>
     <line class="fil0 str0" x1="9926" y1="11950" x2="9926" y2= "11714" />
     <line class="fil0 str0" x1="10492" y1="11714" x2="10492" y2= "11950" />
     <rect class="fil0 str0" x="9688" y="10786" width="225.406" height="79.6015"/>
     <rect class="fil0 str0" x="9688" y="10939" width="225.406" height="79.6015"/>
     <rect class="fil0 str0" x="9688" y="11091" width="225.406" height="79.6015"/>
     <rect class="fil0 str0" x="9688" y="11244" width="225.406" height="79.6015"/>
     <rect class="fil0 str0" x="9688" y="11396" width="225.406" height="79.6015"/>
     <rect class="fil0 str0" x="9688" y="11549" width="225.406" height="79.6015"/>
     <rect class="fil0 str0" x="10396" y="11549" width="225.406" height="79.6015"/>
     <rect class="fil0 str0" x="10396" y="11396" width="225.406" height="79.6015"/>
     <rect class="fil0 str0" x="10396" y="11244" width="225.406" height="79.6015"/>
     <rect class="fil0 str0" x="10396" y="11091" width="225.406" height="79.6015"/>
     <rect class="fil0 str0" x="10396" y="10939" width="225.406" height="79.6015"/>
     <rect class="fil0 str0" x="10396" y="10786" width="225.406" height="79.6015"/>
     <rect class="fil0 str0" x="10093" y="10717" width="124" height="998"/>
     <polyline class="fil0 str0" points="9447,10066 9447,11819 9621,11819 9621,10066 "/>
     <polygon class="fil0 str0" points="10685,10195 10809,10195 10809,11860 10686,11860 "/>
    </g>
    <polyline class="fil0 str0" points="9666,13336 9907,13737 9795,13838 9795,14558 10493,14558 10497,14560 "/>
    <polyline class="fil0 str0" points="9950,13728 9950,13762 10489,13762 10526,13826 10524,14528 "/>
    <line class="fil0 str0" x1="10870" y1="13961" x2="11397" y2= "13961" />
   </g>
   <g>
    <g>
     <g>
      <path class="fil0 str0" d="M78 7623l-1 -420c-93,-108 -98,-339 0,-447l1 -349c0,-50 -10,-63 52,-54 59,9 137,51 225,108l-1 -1057 685 -1 0 1041 497 0c304,0 393,188 443,211l206 0c45,-86 118,-161 212,-161l546 0c79,0 169,81 201,162l106 0 0 696 -107 0c-43,62 -90,174 -200,174l-545 -1c-150,0 -184,-171 -212,-172l-207 -2c-30,0 -169,232 -443,230l-496 -4 -1 1036 -691 0 1 -1066c-76,55 -153,104 -217,117 -59,13 -54,7 -54,-41z"/>
      <line class="fil0 str0" x1="355" y1="6461" x2="349" y2= "7580" />
      <line class="fil0 str0" x1="181" y1="6367" x2="181" y2= "7649" />
      <line class="fil0 str0" x1="1978" y1="6655" x2="1977" y2= "7355" />
      <line class="fil0 str0" x1="2185" y1="6655" x2="2182" y2= "7353" />
      <polyline class="fil0 str0" points="3144,6656 3144,7352 3138,7352 "/>
      <line class="fil0 str0" x1="758" y1="6573" x2="758" y2= "7442" />
      <line class="fil0 str0" x1="1038" y1="6444" x2="1038" y2= "7577" />
      <line class="fil0 str0" x1="349" y1="7442" x2="1038" y2= "7442" />
      <polyline class="fil0 str0" points="349,7696 1040,7696 1040,7696 "/>
      <polyline class="fil0 str0" points="349,7967 1040,7967 1040,7967 "/>
      <polyline class="fil0 str0" points="348,8271 1039,8271 1039,8271 "/>
      <line class="fil0 str0" x1="355" y1="6313" x2="1039" y2= "6313" />
      <line class="fil0 str0" x1="354" y1="6018" x2="1039" y2= "6018" />
      <line class="fil0 str0" x1="354" y1="5712" x2="1039" y2= "5712" />
      <line class="fil0 str0" x1="354" y1="6575" x2="1038" y2= "6575" />
      <line class="fil0 str0" x1="131" y1="6353" x2="133" y2= "7669" />
      <path class="fil0 str0" d="M3081 6562l0 261c-65,113 -57,218 1,334l-2 290"/>
      <polyline class="fil0 str0" points="961,6575 961,6647 1038,6647 "/>
      <polyline class="fil0 str0" points="433,6575 433,6650 354,6649 "/>
      <polyline class="fil0 str0" points="350,7380 419,7380 419,7442 "/>
      <polyline class="fil0 str0" points="969,7442 969,7387 1038,7387 "/>
     </g>
     <rect class="fil0 str0" x="1117" y="6596" width="525" height="144"/>
     <rect class="fil0 str0" x="1117" y="7286" width="525" height="144"/>
     <rect class="fil0 str0" x="2314" y="6649" width="152" height="144"/>
     <rect class="fil0 str0" x="2725" y="6649" width="152" height="144"/>
     <rect class="fil0 str0" x="2725" y="7202" width="152" height="144"/>
     <rect class="fil0 str0" x="2316" y="7202" width="152" height="144"/>
    </g>
    <line class="fil0 str0" x1="181" y1="6720" x2="353" y2= "6799" />
    <line class="fil0 str0" x1="181" y1="7291" x2="351" y2= "7215" />
    <polygon class="fil0 str0" points="1070,7543 1070,6491 1632,6491 1781,6546 1871,6611 1938,6668 1938,7333 1862,7407 1755,7483 1625,7530 1545,7540 "/>
    <line class="fil0 str0" x1="1070" y1="7017" x2="1938" y2= "7017" />
    <polyline class="fil0 str0" points="1690,7506 1690,7053 1903,7053 1903,7370 1900,7370 "/>
    <polyline class="fil0 str0" points="1905,6640 1905,6640 1905,6979 1689,6979 1689,6519 "/>
    <polygon class="fil0 str0" points="1490,6890 1490,6783 1639,6783 1639,6979 1120,6979 1120,6890 "/>
    <polygon class="fil0 str0" points="1490,7143 1490,7250 1639,7250 1639,7054 1120,7054 1120,7143 "/>
    <polygon class="fil0 str0" points="2232,6667 2232,7321 2276,7400 2344,7467 2420,7485 2930,7485 3037,7424 3037,7172 2976,7050 2976,6927 3039,6794 3039,6590 2951,6543 2383,6543 2300,6582 "/>
   </g>
   <g>
    <g>
     <g>
      <polygon class="fil0 str0" points="9806,6309 10475,6309 10842,6650 10842,7340 10505,7702 9802,7702 9449,7349 9449,6674 "/>
      <rect class="fil0 str0" x="9806" y="6206" width="675" height="103"/>
      <rect class="fil0 str0" x="10842" y="6650" width="92.9724" height="688.379"/>
      <rect class="fil0 str0" x="9802" y="7702" width="706.09" height="93.0838"/>
      <rect class="fil0 str0" x="9340" y="6674" width="109" height="685"/>
      <path class="fil0 str0" d="M10935 6650c37,-58 98,-90 169,-112 63,-20 85,-19 149,-19l396 0c62,0 91,0 152,18 64,19 112,48 148,113l0 688c-38,61 -88,96 -147,117 -63,23 -95,20 -160,20l-355 0c-78,0 -115,3 -190,-21 -71,-24 -126,-57 -162,-116l0 -688z"/>
      <rect class="fil0 str0" x="11949" y="6650" width="77.451" height="688.435"/>
      <path class="fil0 str0" d="M9338 6674c-36,-57 -94,-101 -162,-130 -53,-22 -72,-25 -127,-25l-448 0c-53,0 -81,3 -133,19 -62,19 -109,49 -144,112l0 688c38,61 87,95 145,116 68,25 106,21 176,21l379 0c71,0 113,-5 183,-26 56,-17 100,-40 131,-90l0 -685z"/>
      <rect class="fil0 str0" x="8246" y="6650" width="77.451" height="688.435"/>
      <path class="fil0 str0" d="M10508 7796c56,35 84,92 104,160 21,69 21,94 21,165l0 381c0,59 1,88 -15,146 -19,71 -47,123 -117,162l-688 0c-66,-42 -101,-96 -122,-162 -18,-56 -15,-86 -15,-144l0 -398c0,-62 3,-90 20,-151 20,-70 48,-124 106,-160l706 1z"/>
      <rect class="fil0 str0" transform="matrix(-2.64845E-014 1 -1 -2.64845E-014 10501.4 8809.82)" width="77.451" height="688.435"/>
      <path class="fil0 str0" d="M10481 6204c58,-37 100,-97 127,-168 24,-63 22,-86 22,-151l0 -370c0,-71 2,-109 -19,-178 -19,-64 -48,-111 -113,-147l-688 0c-54,35 -87,77 -109,127 -31,72 -29,103 -29,177l0 368c0,73 -1,106 21,176 23,73 55,129 114,166l674 0z"/>
      <rect class="fil0 str0" transform="matrix(-2.64845E-014 -1 -1 2.64845E-014 10498.5 5190.35)" width="77.451" height="688.435"/>
      <polygon class="fil0 str0" points="9537,6694 9854,6377 10445,6377 10751,6683 10751,7328 10465,7625 9846,7625 9541,7320 "/>
      <circle class="fil0 str0" cx="10144" cy="7001" r="561"/>
      <g>
       <rect class="fil0 str0" x="10088" y="6484" width="111" height="111"/>
       <rect class="fil0 str0" x="10088" y="7408" width="111" height="111"/>
      </g>
      <g>
       <rect class="fil0 str0" transform="matrix(1.92496E-014 -0.726823 0.763563 2.02226E-014 9626.32 7057.26)" width="153" height="146"/>
       <rect class="fil0 str0" transform="matrix(1.92496E-014 -0.726823 0.763563 2.02226E-014 10549.8 7057.26)" width="153" height="146"/>
      </g>
      <g>
       <rect class="fil0 str0" transform="matrix(-0.363412 -0.629448 0.661265 -0.381781 9723.5 7308.53)" width="153" height="146"/>
       <rect class="fil0 str0" transform="matrix(-0.363412 -0.629448 0.661265 -0.381781 10523.3 6846.78)" width="153" height="146"/>
      </g>
      <g>
       <rect class="fil0 str0" transform="matrix(-0.629448 -0.363412 0.381781 -0.661265 9933.3 7477.54)" width="153" height="146"/>
       <rect class="fil0 str0" transform="matrix(-0.629448 -0.363412 0.381781 -0.661265 10395 6677.77)" width="153" height="146"/>
      </g>
      <g>
       <rect class="fil0 str0" transform="matrix(-0.629448 0.363412 -0.381781 -0.661265 10450.8 7421.83)" width="153" height="146"/>
       <rect class="fil0 str0" transform="matrix(-0.629448 0.363412 -0.381781 -0.661265 9989.01 6622.06)" width="153" height="146"/>
      </g>
      <g>
       <rect class="fil0 str0" transform="matrix(-0.363412 0.629448 -0.661265 -0.381781 10619.8 7212.03)" width="153" height="146"/>
       <rect class="fil0 str0" transform="matrix(-0.363412 0.629448 -0.661265 -0.381781 9820 6750.28)" width="153" height="146"/>
      </g>
      <ellipse class="fil0 str0" cx="10144" cy="7001" rx="243" ry="239"/>
      <rect class="fil0 str0" x="10116" y="7864" width="76.6488" height="872.641"/>
      <rect class="fil0 str0" x="10302" y="7864" width="76.6488" height="872.641"/>
      <rect class="fil0 str0" x="9932" y="7864" width="76.6488" height="872.641"/>
      <rect class="fil0 str0" x="10479" y="8077" width="76.6488" height="448.115"/>
      <rect class="fil0 str0" x="9768" y="8077" width="76.6488" height="448.115"/>
      <rect class="fil0 str0" x="11126" y="6661" width="146" height="153"/>
      <rect class="fil0 str0" x="11595" y="6661" width="146" height="153"/>
      <rect class="fil0 str0" x="11126" y="7094" width="146" height="153"/>
      <rect class="fil0 str0" x="11595" y="7094" width="146" height="153"/>
      <circle class="fil0 str0" cx="9882" cy="5422" r="93"/>
      <circle class="fil0 str0" cx="9882" cy="5680" r="93"/>
      <circle class="fil0 str0" cx="9882" cy="5959" r="93"/>
      <rect class="fil0 str0" x="10113" y="5261" width="76.6488" height="872.641"/>
      <rect class="fil0 str0" x="10316" y="5340" width="146" height="153"/>
      <rect class="fil0 str0" x="10316" y="5812" width="146" height="153"/>
      <polygon class="fil0 str0" points="8414,6695 8414,7315 9233,7315 9235,6698 "/>
      <polygon class="fil0 str0" points="8519,7381 8519,6606 9156,6606 9156,7387 "/>
      <polygon class="fil0 str0" points="8622,6800 9046,6802 9046,7228 8622,7228 "/>
     </g>
     <polygon class="fil0 str0" points="11219,7475 11674,7475 11449,7966 "/>
     <polygon class="fil0 str0" points="11674,6518 11219,6518 11444,6028 "/>
     <polygon class="fil0 str0" points="10628,5905 10628,5451 11118,5676 "/>
     <polygon class="fil0 str0" points="9672,5905 9672,5451 9182,5676 "/>
     <polygon class="fil0 str0" points="8619,7475 9074,7475 8849,7966 "/>
     <polygon class="fil0 str0" points="9074,6518 8619,6518 8844,6028 "/>
     <polygon class="fil0 str0" points="10631,8536 10631,8082 11121,8307 "/>
     <polygon class="fil0 str0" points="9676,8536 9676,8082 9186,8307 "/>
     <polyline class="fil0 str0" points="11444,6028 11444,6518 11447,6518 "/>
     <polyline class="fil0 str0" points="11449,7966 11449,7475 11447,7475 "/>
     <polyline class="fil0 str0" points="11121,8307 10633,8307 10631,8309 "/>
     <polyline class="fil0 str0" points="9186,8307 9676,8307 9676,8305 "/>
     <polyline class="fil0 str0" points="8846,7475 8846,7966 8849,7966 "/>
     <polyline class="fil0 str0" points="8846,6518 8846,6028 8846,6033 "/>
     <polyline class="fil0 str0" points="11118,5676 10628,5676 10628,5678 "/>
     <polyline class="fil0 str0" points="9182,5676 9672,5676 9672,5678 "/>
     <path class="fil0 str0" d="M9681 8610c-53,-28 -103,-32 -145,5 85,73 123,155 141,268 43,-23 79,-44 97,-103 -48,-47 -81,-102 -93,-170z"/>
     <path class="fil0 str0" d="M10627 8610c54,-28 111,-32 153,5 -86,73 -123,155 -141,268 -44,-23 -79,-43 -97,-101 49,-48 74,-105 85,-172z"/>
     <path class="fil0 str0" d="M10639 8883c72,-74 127,-159 141,-268"/>
     <path class="fil0 str0" d="M9677 8883c-74,-78 -123,-167 -141,-268"/>
    </g>
    <polygon class="fil0 str0" points="8366,7326 8366,6674 8423,6615 8517,6574 8598,6560 9070,6560 9167,6589 9230,6637 9285,6698 9285,7345 9234,7392 9121,7424 8578,7424 8489,7409 8401,7367 "/>
    <polygon class="fil0 str0" points="9826,8764 9769,8692 9725,8613 9719,8534 9719,8060 9754,7955 9800,7871 9826,7836 10484,7836 10539,7909 10576,8000 10587,8066 10587,8560 10572,8621 10539,8703 10480,8764 "/>
    <polygon class="fil0 str0" points="10982,7326 10982,6665 11051,6611 11148,6580 11251,6562 11677,6562 11793,6591 11867,6632 11900,6669 11900,7306 11826,7383 11734,7419 11668,7433 11174,7433 11089,7403 11034,7365 "/>
    <polygon class="fil0 str0" points="9828,6156 9775,6096 9738,6016 9721,5956 9718,5911 9718,5423 9754,5311 9797,5259 9834,5233 10486,5233 10560,5320 10572,5394 10584,5430 10584,5932 10561,6009 10526,6075 10479,6157 "/>
    <polyline class="fil0 str0" points="11273,7590 11617,7590 11620,7592 "/>
    <line class="fil0 str0" x1="11279" y1="6389" x2="11618" y2= "6389" />
    <line class="fil0 str0" x1="10780" y1="8150" x2="10779" y2= "8467" />
    <line class="fil0 str0" x1="9520" y1="8154" x2="9520" y2= "8473" />
    <polyline class="fil0 str0" points="8690,7626 9003,7626 9004,7627 "/>
    <polyline class="fil0 str0" points="8683,6381 9010,6381 9009,6381 "/>
    <polyline class="fil0 str0" points="10772,5517 10772,5833 10774,5837 "/>
    <polyline class="fil0 str0" points="9512,5524 9512,5831 9513,5830 "/>
   </g>
   <g>
    <g>
     <path class="fil0 str0" d="M12028 7338l0 -688 428 0 516 -555 221 0 40 33 243 0 4 -67 147 1 0 103 126 0 18 -78 321 0 0 74 998 0 0 -59 1456 0 114 158c221,-52 266,291 33,336l89 73 144 -136c-53,-222 267,-263 294,-70 139,-68 326,16 362,184l206 0 0 689 -206 0 -35 50 0 239c104,59 185,162 198,343l0 470 408 0 0 -54 155 0 0 342 -111 0 -332 574 0 273 286 286 48 0 1 -41 119 0 0 399 -200 0 0 -54 -562 0 -41 41 0 125 -635 0 0 -123 -42 -43 -569 0 0 55 -221 0 0 -379 140 0 0 48 44 0 379 -380 -441 -764 -100 0 0 -338 136 0 0 55 450 0 0 -493c5,-144 67,-256 205,-346l0 -242 -86 -37 -252 146 0 364 -1404 0 -55 -95 -114 66 -207 0 0 48 -501 0 0 -67 -159 0 0 71 -276 0 0 -74 -85 0 0 110 -331 0 -14 -51 -160 0 -28 50 -218 0 -517 -572 -427 0z"/>
     <polyline class="fil0 str0" points="12188,6651 12188,7337 12188,7337 "/>
     <polyline class="fil0 str0" points="12456,6651 12456,7338 12455,7338 "/>
     <line class="fil0 str0" x1="12188" y1="7125" x2="12456" y2= "7125" />
     <line class="fil0 str0" x1="12188" y1="6823" x2="12456" y2= "6823" />
     <line class="fil0 str0" x1="12991" y1="6095" x2="12991" y2= "7910" />
     <polyline class="fil0 str0" points="13082,6095 13082,7910 13081,7910 "/>
     <line class="fil0 str0" x1="12456" y1="6823" x2="12991" y2= "6574" />
     <line class="fil0 str0" x1="12456" y1="7125" x2="12991" y2= "7391" />
     <polyline class="fil0 str0" points="13153,6095 13153,6512 14952,6512 14952,6161 "/>
     <line class="fil0 str0" x1="13750" y1="6512" x2="13750" y2= "7439" />
     <polyline class="fil0 str0" points="13150,7910 13150,7439 15044,7439 "/>
     <line class="fil0 str0" x1="14742" y1="7439" x2="14742" y2= "6926" />
     <line class="fil0 str0" x1="14742" y1="6847" x2="14742" y2= "6512" />
     <line class="fil0 str0" x1="13614" y1="6512" x2="13614" y2= "7439" />
     <polyline class="fil0 str0" points="13150,7747 14744,7747 14744,7823 14744,7823 "/>
     <polygon class="fil0 str0" points="13441,7118 13441,6830 13493,6830 13614,6900 13614,7044 13487,7118 "/>
     <line class="fil0 str0" x1="12560" y1="6774" x2="12562" y2= "7178" />
     <polygon class="fil0 str0" points="14707,6868 15929,6163 16463,7089 15241,7794 "/>
     <line class="fil0 str0" x1="14987" y1="6707" x2="15521" y2= "7633" />
     <line class="fil0 str0" x1="15255" y1="6552" x2="15790" y2= "7478" />
     <line class="fil0 str0" x1="15339" y1="6503" x2="15873" y2= "7429" />
     <line class="fil0 str0" x1="15622" y1="6340" x2="16156" y2= "7266" />
     <line class="fil0 str0" x1="14974" y1="7331" x2="16196" y2= "6626" />
     <line class="fil0 str0" x1="14742" y1="6561" x2="15233" y2= "6561" />
     <polyline class="fil0 str0" points="15831,7453 16279,7453 16279,7852 "/>
     <polyline class="fil0 str0" points="16279,7453 16279,7391 16469,7391 16469,7852 "/>
     <line class="fil0 str0" x1="16279" y1="7653" x2="16469" y2= "7653" />
     <polyline class="fil0 str0" points="16279,6102 16279,6547 16508,6547 16508,6102 "/>
     <line class="fil0 str0" x1="16279" y1="6324" x2="16508" y2= "6324" />
     <line class="fil0 str0" x1="16660" y1="6260" x2="16660" y2= "6579" />
     <line class="fil0 str0" x1="16120" y1="6494" x2="16279" y2= "6494" />
     <line class="fil0 str0" x1="16508" y1="6499" x2="16697" y2= "6599" />
     <polyline class="fil0 str0" points="16782,6669 16782,7342 16776,7342 "/>
     <polyline class="fil0 str0" points="16862,7379 17547,7379 17547,7386 "/>
     <polyline class="fil0 str0" points="16862,7500 17547,7500 17547,7506 "/>
     <polyline class="fil0 str0" points="16862,7621 17547,7621 17547,7625 "/>
     <polyline class="fil0 str0" points="16657,7967 17745,7967 17745,7968 "/>
     <polygon class="fil0 str0" points="16655,9121 16381,8655 16663,8655 "/>
     <polygon class="fil0 str0" points="17838,8983 17838,8644 18034,8644 "/>
     <polygon class="fil0 str0" points="16346,9926 16648,9624 16648,9926 "/>
     <polygon class="fil0 str0" points="17735,9690 17735,9926 18034,9926 17798,9690 "/>
     <line class="fil0 str0" x1="16773" y1="9507" x2="16773" y2= "8636" />
     <line class="fil0 str0" x1="16921" y1="9511" x2="16921" y2= "8636" />
     <polyline class="fil0 str0" points="16773,8636 16773,8640 17134,8640 17134,9509 16608,9507 "/>
     <polygon class="fil0 str0" points="17208,9510 17466,9510 17466,8640 17208,8640 "/>
     <line class="fil0 str0" x1="17547" y1="8635" x2="17547" y2= "9689" />
     <line class="fil0 str0" x1="17680" y1="8635" x2="17680" y2= "9687" />
     <polyline class="fil0 str0" points="17787,8635 17787,9690 17769,9690 "/>
     <polyline class="fil0 str0" points="18199,8384 18199,8726 18197,8726 "/>
     <polyline class="fil0 str0" points="16648,9827 17735,9827 17735,9812 "/>
     <line class="fil0 str0" x1="16881" y1="10206" x2="17516" y2= "10206" />
     <line class="fil0 str0" x1="16189" y1="9887" x2="16189" y2= "10218" />
     <line class="fil0 str0" x1="18199" y1="9859" x2="18200" y2= "10214" />
     <polyline class="fil0 str0" points="16353,6547 16353,6871 16342,6878 "/>
     <line class="fil0 str0" x1="16353" y1="7152" x2="16353" y2= "7391" />
     <polyline class="fil0 str0" points="16213,7234 16213,7380 15971,7380 15968,7374 "/>
     <polyline class="fil0 str0" points="14933,7439 14933,7761 15073,7665 15139,7798 15218,7752 "/>
     <polygon class="fil0 str0" points="15128,6232 15006,6232 15006,6475 15128,6475 "/>
     <polygon class="fil0 str0" points="16972,7107 16972,6842 17201,6842 17201,7103 "/>
     <polyline class="fil0 str0" points="17103,6842 17103,7105 17103,7105 "/>
     <ellipse class="fil0 str0" cx="17428" cy="6699" rx="79" ry="102"/>
     <ellipse class="fil0 str0" cx="17268" cy="6783" rx="47" ry="68"/>
     <line class="fil0 str0" x1="17582" y1="6647" x2="17582" y2= "7336" />
     <line class="fil0 str0" x1="17547" y1="9689" x2="17792" y2= "9690" />
     <polygon class="fil0 str0" points="13201,6212 13201,6466 14902,6466 14902,6214 "/>
     <line class="fil0 str0" x1="12598" y1="6757" x2="12598" y2= "7200" />
     <line class="fil0 str0" x1="12927" y1="6604" x2="12927" y2= "7359" />
     <polyline class="fil0 str0" points="12598,6978 12927,6978 12927,6987 "/>
     <polygon class="fil0 str0" points="14774,7775 14886,7775 14886,7480 13194,7480 13194,7707 14774,7707 "/>
     <line class="fil0 str0" x1="13640" y1="6512" x2="13640" y2= "7439" />
     <line class="fil0 str0" x1="13725" y1="6512" x2="13725" y2= "7439" />
     <polyline class="fil0 str0" points="13487,7118 13487,6830 13493,6830 "/>
     <polyline class="fil0 str0" points="13441,6974 13614,6974 13614,6975 "/>
     <polyline class="fil0 str0" points="13441,6900 13487,6900 13608,6933 13614,6933 "/>
     <polyline class="fil0 str0" points="13441,7049 13487,7049 13613,7015 13614,7015 "/>
     <line class="fil0 str0" x1="13441" y1="6830" x2="13082" y2= "6830" />
     <line class="fil0 str0" x1="13441" y1="7118" x2="13082" y2= "7118" />
     <line class="fil0 str0" x1="13441" y1="6974" x2="13082" y2= "6974" />
     <polygon class="fil0 str0" points="13119,7086 13119,7007 13402,7007 13402,7086 "/>
     <polygon class="fil0 str0" points="13118,6943 13118,6862 13401,6862 13401,6943 "/>
     <polyline class="fil0 str0" points="12188,6684 12456,6684 12988,6152 12991,6152 "/>
     <polyline class="fil0 str0" points="12188,7305 12456,7305 12978,7828 12992,7841 "/>
     <polyline class="fil0 str0" points="15318,6515 15318,6515 15175,6515 15175,6154 16229,6154 16229,6453 16099,6453 "/>
     <polygon class="fil0 str0" points="16826,6696 16950,6572 17003,6523 17106,6503 17250,6489 17368,6484 17478,6545 17545,6654 17545,7306 17528,7337 16880,7337 16827,7312 "/>
     <polygon class="fil0 str0" points="16968,6495 16989,6421 17060,6383 17139,6395 17169,6440 17173,6461 17074,6460 "/>
     <line class="fil0 str0" x1="17547" y1="8635" x2="17787" y2= "8635" />
     <polyline class="fil0 str0" points="16168,8405 16168,8743 16171,8743 "/>
     <polygon class="fil0 str0" points="16704,7928 16721,7842 16767,7762 16824,7703 16874,7661 17526,7661 17609,7724 17662,7803 17697,7891 17707,7930 "/>
     <polygon class="fil0 str0" points="13799,6561 14690,6561 14690,6804 14339,6804 14339,6637 14140,6637 14140,6802 13799,6802 "/>
     <polygon class="fil0 str0" points="13798,6861 13798,7399 14697,7399 14697,6960 14141,6960 14141,7143 14548,7143 14548,7268 14013,7268 14013,6861 "/>
     <polygon class="fil0 str0" points="16698,8008 16698,8602 17709,8602 17709,8007 "/>
     <line class="fil0 str0" x1="17787" y1="9327" x2="18201" y2= "8609" />
     <polyline class="fil0 str0" points="18199,8470 17787,9185 17787,9185 "/>
     <line class="fil0 str0" x1="16168" y1="8597" x2="16687" y2= "9496" />
     <line class="fil0 str0" x1="16168" y1="8459" x2="16766" y2= "9495" />
     <line class="fil0 str0" x1="16686" y1="9493" x2="16686" y2= "9827" />
     <line class="fil0 str0" x1="16763" y1="9489" x2="16763" y2= "9827" />
     <line class="fil0 str0" x1="18119" y1="10190" x2="18319" y2= "10190" />
     <polyline class="fil0 str0" points="16049,10189 16270,10189 16270,10191 "/>
     <line class="fil0 str0" x1="18153" y1="8411" x2="18308" y2= "8411" />
     <polyline class="fil0 str0" points="16071,8435 16207,8435 16207,8433 "/>
     <polygon class="fil0 str0" points="16860,10143 17532,10143 17532,9890 16861,9890 "/>
     <circle class="fil0 str0" cx="17203" cy="8304" r="234"/>
     <circle class="fil0 str1" cx="17203" cy="8304" r="258"/>
     <circle class="fil0 str2" cx="17203" cy="8304" r="209"/>
     <circle class="fil0 str0" cx="17203" cy="8304" r="186"/>
     <rect class="fil0 str0" x="17068" y="8177" width="273" height="251"/>
     <polyline class="fil0 str0" points="17068,8177 17199,8428 17342,8177 "/>
     <polygon class="fil0 str0" points="16736,8042 16736,8570 17068,8570 16966,8489 16918,8397 16900,8296 16918,8206 16950,8126 17046,8043 "/>
     <polygon class="fil0 str0" points="17672,8042 17672,8570 17340,8570 17442,8489 17490,8397 17508,8296 17490,8206 17458,8126 17362,8043 "/>
     <polyline class="fil0 str0" points="16393,7129 16393,7355 16657,7355 16741,7311 16741,6694 16682,6635 16575,6579 16393,6579 16393,6964 16392,6965 "/>
    </g>
    <line class="fil0 str0" x1="16881" y1="10250" x2="17516" y2= "10250" />
   </g>
   <g>
    <g>
     <path class="fil0 str0" d="M16881 10329l0 95c-100,83 -176,186 -178,323 0,94 0,189 0,283 19,132 57,240 179,312l0 85c-131,98 -183,229 -182,381l0 639 -1089 0 0 682 1089 0 -125 216c-14,24 -17,44 -7,59 14,23 33,22 56,22l354 0c116,95 341,103 465,0l323 0c25,0 58,4 73,-20 17,-27 4,-45 -9,-68l-121 -210 1097 0 0 -681 -1098 0 0 -663c-16,-168 -78,-289 -193,-359l0 -82c117,-68 185,-167 203,-329l0 -273c-14,-129 -104,-247 -202,-317l0 -95 -635 0z"/>
     <line class="fil0 str0" x1="16881" y1="10424" x2="17516" y2= "10424" />
     <polyline class="fil0 str0" points="16882,11342 17515,11342 17515,11343 "/>
     <polyline class="fil0 str0" points="16882,11427 17515,11427 17515,11425 "/>
     <line class="fil0 str0" x1="16700" y1="12191" x2="17708" y2= "12191" />
     <line class="fil0 str0" x1="15891" y1="12447" x2="15891" y2= "13129" />
     <line class="fil0 str0" x1="16186" y1="12448" x2="16186" y2= "13129" />
     <line class="fil0 str0" x1="16480" y1="12447" x2="16480" y2= "13129" />
     <polyline class="fil0 str0" points="16700,12425 16700,13129 16680,13129 "/>
     <line class="fil0 str0" x1="17708" y1="12447" x2="17708" y2= "13128" />
     <line class="fil0 str0" x1="17910" y1="12447" x2="17910" y2= "13128" />
     <line class="fil0 str0" x1="18194" y1="12447" x2="18194" y2= "13128" />
     <line class="fil0 str0" x1="18478" y1="12447" x2="18478" y2= "13128" />
     <line class="fil0 str0" x1="16600" y1="13303" x2="17810" y2= "13303" />
     <line class="fil0 str0" x1="16700" y1="13092" x2="17708" y2= "13092" />
     <line class="fil0 str0" x1="16700" y1="12502" x2="17708" y2= "12502" />
     <ellipse class="fil0 str0" cx="16956" cy="11756" rx="122" ry="121"/>
     <polygon class="fil0 str0" points="16757,11021 16757,10739 16770,10634 16838,10542 16908,10470 17499,10470 17586,10562 17658,10703 17667,10741 17667,11018 17623,11150 17558,11241 17507,11285 16893,11285 16829,11220 16774,11102 "/>
     <polygon class="fil0 str0" points="16751,12143 16751,11760 16779,11642 16838,11543 16901,11476 17492,11476 17595,11569 17634,11668 17658,11784 17658,12145 "/>
     <polyline class="fil0 str0" points="16700,13129 17719,13129 17719,13146 "/>
     <line class="fil0 str0" x1="16575" y1="13345" x2="17839" y2= "13345" />
     <polyline class="fil0 str0" points="16995,13303 17041,13129 17041,13129 "/>
     <line class="fil0 str0" x1="17420" y1="13303" x2="17373" y2= "13128" />
     <polygon class="fil0 str0" points="16756,12543 16754,13044 17663,13044 17663,12543 "/>
     <polygon class="fil0 str0" points="16754,12462 16754,12241 17661,12241 17661,12460 "/>
     <ellipse class="fil0 str2" cx="16956" cy="11756" rx="95" ry="94"/>
     <ellipse class="fil0 str0" cx="17439" cy="11756" rx="122" ry="121"/>
     <ellipse class="fil0 str2" cx="17439" cy="11756" rx="95" ry="94"/>
     <polyline class="fil0 str0" points="17170,11476 17170,12144 17232,12144 17232,11476 "/>
     <polygon class="fil0 str0" points="16836,12400 16836,12308 16989,12308 16989,12400 "/>
     <polygon class="fil0 str0" points="17129,12400 17129,12308 17282,12308 17282,12400 "/>
     <polygon class="fil0 str0" points="17423,12400 17423,12308 17576,12308 17576,12400 "/>
     <rect class="fil0 str0" x="16798" y="11929" width="322" height="173"/>
     <rect class="fil0 str0" x="17286" y="11929" width="322" height="173"/>
     <rect class="fil0 str0" x="16900" y="10608" width="188" height="173"/>
     <rect class="fil0 str0" x="17310" y="10608" width="188" height="173"/>
     <rect class="fil0 str0" x="16900" y="10943" width="188" height="173"/>
     <rect class="fil0 str0" x="17310" y="10943" width="188" height="173"/>
     <polygon class="fil0 str0" points="16757,10827 17164,10827 17164,10470 17230,10470 17230,10827 17667,10827 17667,10894 17230,10894 17230,11285 17164,11285 17164,10894 16757,10894 "/>
    </g>
    <rect class="fil0 str0" x="16799" y="12584" width="365.784" height="51.595"/>
    <rect class="fil0 str0" x="16799" y="12676" width="365.784" height="51.595"/>
    <rect class="fil0 str0" x="16799" y="12768" width="365.784" height="51.595"/>
    <rect class="fil0 str0" x="16799" y="12859" width="365.784" height="51.595"/>
    <rect class="fil0 str0" x="16799" y="12951" width="365.784" height="51.595"/>
    <rect class="fil0 str0" x="17256" y="12584" width="365.784" height="51.595"/>
    <rect class="fil0 str0" x="17256" y="12676" width="365.784" height="51.595"/>
    <rect class="fil0 str0" x="17256" y="12768" width="365.784" height="51.595"/>
    <rect class="fil0 str0" x="17256" y="12859" width="365.784" height="51.595"/>
    <rect class="fil0 str0" x="17256" y="12951" width="365.784" height="51.595"/>
   </g>
   <g>
    <path class="fil0 str0" d="M22136 6125l88 258 1832 0 118 369 0 1002 -109 368 -1417 0 0 78 -398 0 0 -81 -1387 0 -124 -376c-15,64 -47,117 -92,162l149 271 -151 331c-206,13 -351,104 -385,299l-741 -6c-29,-150 -113,-299 -243,-368l-7 -203c-298,148 -640,-48 -516,-420 -53,-26 -86,-71 -107,-129 -199,-114 -398,-229 -597,-344 -87,0 -174,0 -261,0l0 -689 262 0 637 171 117 -435 664 0 0 -134 -187 0 0 -70c-224,-26 -232,-331 -2,-345l0 -289c-160,-12 -183,-232 -4,-252l0 -124 157 0 0 -184 132 0 0 -133 251 -935 0 -534c-149,-52 -281,-157 -303,-292l352 0c-9,-84 15,-158 80,-218 68,49 91,130 90,218l327 0c3,143 -115,229 -299,294l0 528 -242 939 59 0 0 133 455 0 0 78 167 0 0 844 -167 0 0 142 157 0 254 147 0 229 -68 254 44 45 138 -349 279 0"/>
    <polyline class="fil0 str0" points="18049,7336 18049,6647 18050,6647 "/>
    <line class="fil0 str0" x1="18049" y1="6846" x2="18675" y2= "7077" />
    <line class="fil0 str0" x1="18049" y1="7101" x2="18660" y2= "7389" />
    <line class="fil0 str0" x1="18687" y1="6818" x2="18646" y2= "7680" />
    <line class="fil0 str0" x1="18804" y1="6383" x2="18828" y2= "7744" />
    <line class="fil0 str0" x1="19064" y1="7539" x2="18753" y2= "7809" />
    <polyline class="fil0 str0" points="18660,7389 18824,7526 18825,7579 "/>
    <line class="fil0 str0" x1="18675" y1="7077" x2="18815" y2= "7009" />
    <polyline class="fil0 str0" points="19226,6383 19233,6695 19197,6750 18810,6757 18810,6757 "/>
    <line class="fil0 str0" x1="18819" y1="7263" x2="19012" y2= "7262" />
    <line class="fil0 str0" x1="19432" y1="5169" x2="19432" y2= "6249" />
    <line class="fil0 str0" x1="19351" y1="5169" x2="19351" y2= "6249" />
    <polyline class="fil0 str0" points="20334,5063 20334,5907 20352,5907 "/>
    <polyline class="fil0 str0" points="19564,4852 19824,4852 19824,4846 "/>
    <polyline class="fil0 str0" points="19564,4985 19879,4985 19879,4987 "/>
    <line class="fil0 str0" x1="19815" y1="3917" x2="20062" y2= "3917" />
    <polyline class="fil0 str0" points="19815,3383 20062,3383 20062,3385 "/>
    <line class="fil0 str0" x1="19682" y1="3319" x2="20214" y2= "3319" />
    <line class="fil0 str0" x1="19440" y1="7974" x2="19269" y2= "8229" />
    <path class="fil0 str0" d="M19514 8011l-151 289 225 259 350 -82 27 -396c-154,14 -304,-12 -451,-70z"/>
    <path class="fil0 str0" d="M20083 8061l95 301 226 99 196 -90 94 -215 -191 -336c-120,129 -245,205 -420,241z"/>
    <path class="fil0 str0" d="M20190 8028l149 270 220 -126 -158 -259c-64,44 -136,88 -211,115z"/>
    <path class="fil0 str0" d="M19616 8046l-69 296 232 55 51 -312c-83,-6 -154,-20 -214,-39z"/>
    <path class="fil0 str0" d="M19159 7719l-221 176 153 178 211 -196c-60,-52 -100,-89 -143,-158z"/>
    <line class="fil0 str0" x1="19468" y1="6249" x2="20192" y2= "6249" />
    <polyline class="fil0 str0" points="20078,6452 20259,6125 20384,6049 "/>
    <line class="fil0 str0" x1="20554" y1="6752" x2="20677" y2= "6679" />
    <path class="fil0 str0" d="M20215 6496l165 -227 170 125 -133 222c-66,-49 -134,-90 -202,-120z"/>
    <line class="fil0 str0" x1="20703" y1="7045" x2="20859" y2= "6961" />
    <line class="fil0 str0" x1="20709" y1="7446" x2="20856" y2= "7555" />
    <ellipse class="fil0 str0" cx="19873" cy="7257" rx="859" ry="829"/>
    <ellipse class="fil0 str0" cx="19873" cy="7257" rx="576" ry="571"/>
    <line class="fil0 str0" x1="19589" y1="6474" x2="19677" y2= "6719" />
    <line class="fil0 str0" x1="20236" y1="6505" x2="20123" y2= "6742" />
    <line class="fil0 str0" x1="20666" y1="6939" x2="20407" y2= "7044" />
    <line class="fil0 str0" x1="20661" y1="7588" x2="20413" y2= "7455" />
    <line class="fil0 str0" x1="20225" y1="8013" x2="20115" y2= "7775" />
    <line class="fil0 str0" x1="19580" y1="8037" x2="19704" y2= "7803" />
    <line class="fil0 str0" x1="19082" y1="7582" x2="19340" y2= "7474" />
    <line class="fil0 str0" x1="19356" y1="7004" x2="19095" y2= "6903" />
    <ellipse class="fil0 str0" cx="19873" cy="7257" rx="320" ry="317"/>
    <polyline class="fil0 str0" points="19892,6686 19892,6940 19892,6940 "/>
    <polyline class="fil0 str0" points="19498,6823 19679,7004 19679,7004 "/>
    <line class="fil0 str0" x1="20291" y1="6865" x2="20110" y2= "7044" />
    <polyline class="fil0 str0" points="20291,7650 20110,7469 20110,7469 "/>
    <line class="fil0 str0" x1="19483" y1="7678" x2="19655" y2= "7490" />
    <line class="fil0 str0" x1="19297" y1="7257" x2="19552" y2= "7257" />
    <polyline class="fil0 str0" points="19894,7574 19894,7827 19894,7828 "/>
    <polyline class="fil0 str0" points="19655,7490 19655,7712 20113,7712 20110,7469 "/>
    <polyline class="fil0 str0" points="20137,7077 20287,7077 20287,7437 20140,7437 20137,7436 "/>
    <polyline class="fil0 str0" points="20287,7109 20386,7109 20386,7378 20287,7378 "/>
    <polyline class="fil0 str0" points="18806,6503 19502,6503 19504,6508 "/>
    <line class="fil0 str0" x1="19468" y1="6383" x2="20115" y2= "6380" />
    <line class="fil0 str0" x1="20859" y1="6375" x2="20859" y2= "8122" />
    <polygon class="fil0 str0" points="21138,5917 21138,6743 21248,6743 21248,5917 "/>
    <polyline class="fil0 str0" points="20859,6662 21138,6662 21116,6662 21138,6662 "/>
    <line class="fil0 str0" x1="21248" y1="6665" x2="24034" y2= "6665" />
    <polyline class="fil0 str0" points="24038,6588 21897,6588 21897,6496 24034,6496 "/>
    <line class="fil0 str0" x1="20859" y1="7262" x2="24037" y2= "7262" />
    <line class="fil0 str0" x1="20859" y1="7859" x2="24031" y2= "7859" />
    <line class="fil0 str0" x1="24034" y1="6383" x2="24034" y2= "8124" />
    <polyline class="fil0 str0" points="24034,6945 24172,7025 24174,7025 "/>
    <polyline class="fil0 str0" points="24034,7598 24161,7471 24174,7471 "/>
    <line class="fil0 str0" x1="21296" y1="6393" x2="21296" y2= "8119" />
    <line class="fil0 str0" x1="22214" y1="6588" x2="22214" y2= "8119" />
    <line class="fil0 str0" x1="22678" y1="6588" x2="22678" y2= "8122" />
    <line class="fil0 str0" x1="23124" y1="6588" x2="23124" y2= "8122" />
    <line class="fil0 str0" x1="23589" y1="6588" x2="23589" y2= "8122" />
    <line class="fil0 str0" x1="22678" y1="6383" x2="22678" y2= "6496" />
    <line class="fil0 str0" x1="23140" y1="6383" x2="23140" y2= "6496" />
    <line class="fil0 str0" x1="23596" y1="6383" x2="23596" y2= "6496" />
    <line class="fil0 str0" x1="22224" y1="6383" x2="22224" y2= "6496" />
    <polygon class="fil0 str0" points="20991,5420 21237,5429 21231,5562 21358,5568 21407,4853 22102,4886 22093,5041 22600,5069 22583,5460 22065,5442 22020,6088 21336,6054 21347,5864 20964,5847 "/>
    <polyline class="fil0 str0" points="22111,6496 21967,6146 21536,6194 21507,6066 "/>
    <polyline class="fil0 str0" points="21248,6061 21565,6393 21248,6393 "/>
    <polyline class="fil0 str0" points="21114,5420 21138,5084 21399,4960 "/>
    <polyline class="fil0 str0" points="21592,4862 21757,4756 21912,4875 21912,4875 "/>
    <polyline class="fil0 str0" points="22047,5700 22284,5855 22022,6056 "/>
    <polyline class="fil0 str0" points="22120,6082 22336,5988 22358,5452 "/>
    <polyline class="fil0 str0" points="22460,5456 22454,5659 22660,5667 22689,4715 "/>
    <polygon class="fil0 str0" points="22656,5796 22438,5881 22443,5814 22448,5723 22659,5729 "/>
    <line class="fil0 str0" x1="22183" y1="4990" x2="22505" y2= "4990" />
    <polyline class="fil0 str0" points="23078,5462 23262,5462 23261,5529 22994,5529 "/>
    <path class="fil0 str0" d="M19092 7604l-278 212 31 317 341 73 228 -248c-143,-89 -253,-206 -322,-354z"/>
    <path class="fil0 str0" d="M19301 8180l6 225c132,68 205,194 243,356 37,1 74,1 111,2 1,-52 2,-103 2,-155 166,0 332,0 497,0 0,53 0,106 0,159 19,1 38,1 56,2 48,-159 153,-286 398,-303l159 -332"/>
    <rect class="fil0 str0" x="19705" y="8645" width="410" height="116"/>
    <ellipse class="fil0 str2" cx="19873" cy="7257" rx="278" ry="275"/>
    <ellipse class="fil0 str2" cx="19873" cy="7257" rx="624" ry="619"/>
    <ellipse class="fil0 str3" cx="19873" cy="7257" rx="651" ry="646"/>
    <polyline class="fil0 str0" points="19695,7517 19695,7712 19735,7712 19735,7544 19773,7558 19773,7712 19815,7712 19815,7569 19856,7574 19856,7712 "/>
    <polyline class="fil0 str0" points="19930,7712 19930,7571 19954,7564 19961,7564 19961,7712 19998,7712 19998,7551 20033,7542 20033,7712 20070,7712 20070,7506 "/>
    <line class="fil0 str0" x1="20113" y1="7675" x2="19655" y2= "7675" />
    <polyline class="fil0 str0" points="20287,7137 20356,7137 20356,7353 20287,7353 "/>
    <polyline class="fil0 str0" points="20111,6460 20277,6151 20400,6073 20480,6077 20717,6217 20715,6410 20650,6655 20533,6725 "/>
    <polyline class="fil0 str0" points="20114,8054 20204,8335 20396,8422 20575,8344 20657,8158 20479,7845 "/>
    <polyline class="fil0 str0" points="19538,8021 19403,8294 19596,8516 19903,8450 19932,8084 "/>
    <polyline class="fil0 str0" points="19103,7626 18853,7828 18877,8108 19172,8168 19388,7941 "/>
    <polyline class="fil0 str0" points="19523,3133 20354,3133 20357,3134 "/>
    <line class="fil0 str0" x1="19690" y1="3133" x2="19874" y2= "3383" />
    <line class="fil0 str0" x1="20197" y1="3133" x2="20006" y2= "3383" />
    <line class="fil0 str0" x1="19944" y1="2873" x2="19944" y2= "3384" />
    <polyline class="fil0 str0" points="19864,3091 20034,3091 20034,3085 "/>
    <polyline class="fil0 str0" points="19856,3383 19856,3917 19605,4855 "/>
    <polyline class="fil0 str0" points="20024,3383 20024,3917 19773,4853 "/>
    <polyline class="fil0 str0" points="18804,6426 20088,6426 20091,6428 "/>
    <line class="fil0 str0" x1="18845" y1="6426" x2="18881" y2= "7698" />
    <line class="fil0 str0" x1="18002" y1="6647" x2="18002" y2= "7336" />
    <path class="fil0 str0" d="M20757 8167l-155 -272c77,-61 102,-172 133,-267l124 327"/>
    <polyline class="fil0 str0" points="20859,8056 22312,8056 22312,8120 22581,8120 22581,8064 24034,8064 "/>
    <polyline class="fil0 str0" points="23008,5529 22923,5529 22923,5529 "/>
    <line class="fil0 str0" x1="22120" y1="6082" x2="22136" y2= "6125" />
    <polyline class="fil0 str0" points="21174,5427 21171,5513 21037,5508 "/>
    <polyline class="fil0 str0" points="21122,5511 21102,5805 21007,5801 21022,5565 21072,5567 21059,5755 "/>
    <polyline class="fil0 str0" points="21179,5561 21164,5807 21346,5817 21351,5736 21235,5730 21241,5615 21356,5620 21359,5562 "/>
    <line class="fil0 str0" x1="21339" y1="5863" x2="21541" y2= "5873" />
    <polyline class="fil0 str0" points="21629,6069 21675,5418 21969,5432 21951,5688 "/>
    <line class="fil0 str0" x1="21963" y1="5520" x2="21754" y2= "5509" />
    <line class="fil0 str0" x1="21957" y1="5607" x2="21751" y2= "5594" />
    <line class="fil0 str0" x1="21951" y1="5688" x2="21748" y2= "5675" />
    <polyline class="fil0 str0" points="21709,6072 21734,5746 22042,5765 "/>
    <polyline class="fil0 str0" points="21939,6084 21959,5824 21802,5812 21782,6076 "/>
    <line class="fil0 str0" x1="21880" y1="5818" x2="21861" y2= "6083" />
    <polyline class="fil0 str0" points="22516,5403 22530,5127 21462,5072 21412,5809 21543,5815 21582,5181 22334,5215 22325,5385 21677,5358 "/>
    <polyline class="fil0 str0" points="21408,5911 21402,6005 21580,6014 "/>
    <line class="fil0 str0" x1="21693" y1="5186" x2="21687" y2= "5270" />
    <line class="fil0 str0" x1="21815" y1="5192" x2="21810" y2= "5273" />
    <line class="fil0 str0" x1="21939" y1="5197" x2="21935" y2= "5276" />
    <line class="fil0 str0" x1="22060" y1="5203" x2="22054" y2= "5286" />
    <line class="fil0 str0" x1="22178" y1="5208" x2="22173" y2= "5291" />
    <line class="fil0 str0" x1="22330" y1="5300" x2="22264" y2= "5297" />
    <line class="fil0 str0" x1="21424" y1="5637" x2="21553" y2= "5644" />
    <line class="fil0 str0" x1="21439" y1="5416" x2="21567" y2= "5424" />
    <polyline class="fil0 str0" points="21472,5000 21477,4912 22041,4943 "/>
    <line class="fil0 str0" x1="21563" y1="4999" x2="22034" y2= "5026" />
    <line class="fil0 str0" x1="21897" y1="6588" x2="21296" y2= "6588" />
    <line class="fil0 str0" x1="21897" y1="6496" x2="21296" y2= "6496" />
    <polygon class="fil0 str0" points="21623,6457 22024,6457 21916,6199 21493,6240 21631,6390 "/>
    <polygon class="fil0 str0" points="19277,5882 19277,6125 19205,6081 19168,6010 19178,5934 "/>
    <g>
     <rect class="fil0 str0" x="19716" y="5044" width="319" height="319"/>
     <circle class="fil0 str2" cx="19876" cy="5203" r="120"/>
     <circle class="fil0 str3" cx="19876" cy="5203" r="96"/>
     <circle class="fil0 str4" cx="19876" cy="5203" r="71"/>
     <circle class="fil0 str4" cx="19876" cy="5203" r="37"/>
     <circle class="fil0 str1" cx="19876" cy="5203" r="145"/>
    </g>
    <g>
     <rect class="fil0 str0" x="19716" y="5458" width="319" height="319"/>
     <circle class="fil0 str2" cx="19876" cy="5618" r="120"/>
     <circle class="fil0 str3" cx="19876" cy="5618" r="96"/>
     <circle class="fil0 str4" cx="19876" cy="5618" r="71"/>
     <circle class="fil0 str4" cx="19876" cy="5618" r="37"/>
     <circle class="fil0 str1" cx="19876" cy="5618" r="145"/>
    </g>
    <g>
     <rect class="fil0 str0" x="19716" y="5873" width="319" height="319"/>
     <circle class="fil0 str2" cx="19876" cy="6033" r="120"/>
     <circle class="fil0 str3" cx="19876" cy="6033" r="96"/>
     <circle class="fil0 str4" cx="19876" cy="6033" r="71"/>
     <circle class="fil0 str4" cx="19876" cy="6033" r="37"/>
     <circle class="fil0 str1" cx="19876" cy="6033" r="145"/>
    </g>
    <circle class="fil0 str0" cx="19572" cy="5134" r="91"/>
    <circle class="fil0 str0" cx="19572" cy="6102" r="91"/>
    <circle class="fil0 str0" cx="19572" cy="5860" r="91"/>
    <circle class="fil0 str0" cx="19572" cy="5618" r="91"/>
    <circle class="fil0 str0" cx="19572" cy="5376" r="91"/>
    <circle class="fil0 str0" cx="20187" cy="5134" r="91"/>
    <path class="fil0 str0" d="M20186 6191c-50,0 -90,-39 -90,-89 0,-50 40,-91 91,-91 50,0 90,41 90,91"/>
    <circle class="fil0 str0" cx="20187" cy="5860" r="91"/>
    <circle class="fil0 str0" cx="20187" cy="5618" r="91"/>
    <circle class="fil0 str0" cx="20187" cy="5376" r="91"/>
    <polyline class="fil0 str0" points="19712,5044 20279,5044 20279,6109 20280,6112 "/>
    <polyline class="fil0 str0" points="20223,6191 19480,6191 19480,5044 19748,5044 "/>
    <line class="fil0 str0" x1="19715" y1="5412" x2="20039" y2= "5412" />
    <line class="fil0 str0" x1="19714" y1="5824" x2="20036" y2= "5824" />
    <polyline class="fil0 str0" points="20334,5118 20456,5118 20456,5857 20334,5857 "/>
    <line class="fil0 str0" x1="20395" y1="5118" x2="20395" y2= "5857" />
    <polyline class="fil0 str1" points="20168,6478 20358,6184 20635,6380 20467,6658 "/>
    <polyline class="fil0 str1" points="20163,8041 20329,8360 20619,8188 20448,7894 20439,7883 "/>
    <polyline class="fil0 str1" points="19580,8037 19490,8367 19807,8448 19873,8086 "/>
    <polyline class="fil0 str1" points="19133,7681 18880,7888 19080,8126 19337,7905 "/>
    <ellipse class="fil0 str0" cx="19873" cy="7257" rx="834" ry="805"/>
    <rect class="fil0 str0" x="24174" y="6752" width="49.4947" height="1005.95"/>
    <polyline class="fil0 str0" points="20914,7799 20914,7323 20983,7323 20983,7794 21061,7794 21061,7330 21296,7330 "/>
    <polygon class="fil0 str0" points="21104,7375 21104,7454 21197,7454 21197,7375 "/>
    <polygon class="fil0 str0" points="21104,7495 21104,7573 21197,7573 21197,7495 "/>
    <polygon class="fil0 str0" points="21104,7714 21104,7793 21197,7793 21197,7714 "/>
    <line class="fil0 str0" x1="20914" y1="7793" x2="20859" y2= "7793" />
    <line class="fil0 str0" x1="21249" y1="7262" x2="21249" y2= "7859" />
    <rect class="fil0 str0" x="21365" y="7328" width="779" height="233"/>
    <circle class="fil0 str0" cx="21448" cy="7710" r="84"/>
    <circle class="fil0 str0" cx="22060" cy="7710" r="84"/>
    <circle class="fil0 str0" cx="21749" cy="7710" r="84"/>
    <polyline class="fil0 str0" points="21472,7561 21472,7328 21588,7328 21588,7561 21697,7561 21697,7328 21805,7328 21805,7561 21927,7561 21927,7328 22048,7328 22048,7561 "/>
    <rect class="fil0 str0" x="22727" y="7303" width="155" height="152"/>
    <rect class="fil0 str0" x="22920" y="7303" width="155" height="152"/>
    <rect class="fil0 str0" x="22727" y="7488" width="155" height="152"/>
    <rect class="fil0 str0" x="22920" y="7488" width="155" height="152"/>
    <rect class="fil0 str0" x="22727" y="7671" width="155" height="152"/>
    <rect class="fil0 str0" x="22920" y="7671" width="155" height="152"/>
    <rect class="fil0 str0" x="23182" y="7303" width="155" height="152"/>
    <rect class="fil0 str0" x="23375" y="7303" width="155" height="152"/>
    <rect class="fil0 str0" x="23182" y="7488" width="155" height="152"/>
    <rect class="fil0 str0" x="23375" y="7488" width="155" height="152"/>
    <rect class="fil0 str0" x="23182" y="7671" width="155" height="152"/>
    <rect class="fil0 str0" x="23375" y="7671" width="155" height="152"/>
    <rect class="fil0 str0" x="22727" y="6708" width="155" height="152"/>
    <rect class="fil0 str0" x="22920" y="6708" width="155" height="152"/>
    <rect class="fil0 str0" x="22727" y="6893" width="155" height="152"/>
    <rect class="fil0 str0" x="22920" y="6893" width="155" height="152"/>
    <rect class="fil0 str0" x="22727" y="7076" width="155" height="152"/>
    <rect class="fil0 str0" x="22920" y="7076" width="155" height="152"/>
    <rect class="fil0 str0" x="23181" y="6708" width="155" height="152"/>
    <rect class="fil0 str0" x="23374" y="6708" width="155" height="152"/>
    <rect class="fil0 str0" x="23181" y="6893" width="155" height="152"/>
    <rect class="fil0 str0" x="23374" y="6893" width="155" height="152"/>
    <rect class="fil0 str0" x="23181" y="7076" width="155" height="152"/>
    <rect class="fil0 str0" x="23374" y="7076" width="155" height="152"/>
    <rect class="fil0 str0" x="21365" y="6971" width="778" height="226"/>
    <ellipse class="fil0 str0" cx="21449" cy="6827" rx="84" ry="81"/>
    <ellipse class="fil0 str0" cx="22060" cy="6827" rx="84" ry="81"/>
    <ellipse class="fil0 str0" cx="21749" cy="6827" rx="84" ry="81"/>
    <polyline class="fil0 str0" points="21472,6971 21472,7197 21589,7197 21589,6971 21697,6971 21697,7197 21805,7197 21805,6971 21927,6971 21927,7197 22048,7197 22048,6971 "/>
    <polyline class="fil0 str0" points="23632,6719 23809,6719 23809,6870 23632,6870 23632,7036 23804,7036 23804,7209 23636,7209 "/>
    <polyline class="fil0 str0" points="23995,6719 23881,6719 23881,6918 23684,6918 23684,6988 23883,6988 23883,7209 23994,7209 "/>
    <line class="fil0 str0" x1="23632" y1="6665" x2="23632" y2= "7262" />
    <line class="fil0 str0" x1="23993" y1="6665" x2="23993" y2= "7262" />
    <polyline class="fil0 str0" points="23632,7316 23809,7316 23809,7467 23632,7467 23632,7633 23803,7633 23803,7806 23636,7806 "/>
    <polyline class="fil0 str0" points="23995,7316 23881,7316 23881,7515 23684,7515 23684,7585 23883,7585 23883,7806 23993,7806 "/>
    <line class="fil0 str0" x1="23632" y1="7262" x2="23632" y2= "7859" />
    <line class="fil0 str0" x1="23992" y1="7262" x2="23992" y2= "7859" />
    <circle class="fil0 str0" cx="22446" cy="6966" r="153"/>
    <circle class="fil0 str0" cx="22446" cy="7571" r="153"/>
    <polyline class="fil0 str0" points="22336,5988 22663,5856 23362,5856 23362,5160 23034,5160 22846,4699 22846,4486 21604,4486 21604,4744 20852,4744 20852,6203 21000,6203 21000,6375 "/>
    <polyline class="fil0 str0" points="22656,5796 23313,5796 23313,5207 23009,5209 22795,4717 22795,4536 21653,4536 21653,4791 20903,4791 20903,6158 21051,6158 21051,6375 "/>
    <line class="fil0 str0" x1="22020" y1="6088" x2="22120" y2= "6082" />
    <line class="fil0 str0" x1="22923" y1="5529" x2="22923" y2= "5796" />
    <line class="fil0 str0" x1="23078" y1="5462" x2="23078" y2= "5207" />
    <polyline class="fil0 str0" points="22505,4990 22505,4586 22662,4586 22662,4716 22693,4716 "/>
    <polyline class="fil0 str0" points="22183,4990 22183,4597 21757,4597 21757,4756 21757,4756 "/>
    <polygon class="fil0 str0" points="22234,4591 22446,4591 22446,4932 22234,4932 "/>
   </g>
   <g>
    <g>
     <path class="fil0 str0" d="M9810 4980l688 0 0 -150c63,-49 98,-100 134,-172 58,-114 40,-164 49,-281 9,-106 62,-163 60,-291 -1,-80 -20,-136 -50,-211l2 -288c4,-166 -91,-275 -210,-402l0 -125c104,-63 147,-147 167,-264l-1 -533c-2,-56 -23,-103 -56,-145l0 -180c29,-36 51,-75 56,-124l-8 -1507 208 -221c10,-13 15,-26 15,-39 1,-45 -25,-41 -56,-41l-1340 2c-27,0 -53,0 -60,35 -3,14 1,29 14,46l213 222 0 767 -484 1 0 215 484 0 0 516c4,51 22,96 63,129l0 177c-39,46 -60,95 -62,147l-1 531c17,113 95,202 181,266l0 125c-135,133 -209,265 -217,398l5 292c-33,62 -56,128 -66,196 -28,194 37,191 73,336 28,116 -8,174 71,296 31,48 73,90 129,127l-1 150z"/>
     <line class="fil0 str0" x1="9471" y1="140" x2="10799" y2= "140" />
     <polyline class="fil0 str0" points="9635,338 10641,338 10641,338 "/>
     <polyline class="fil0 str0" points="9635,692 10643,692 10643,692 "/>
     <polyline class="fil0 str0" points="9635,935 10645,935 10645,935 "/>
     <line class="fil0 str0" x1="10082" y1="338" x2="10082" y2= "935" />
     <line class="fil0 str0" x1="10196" y1="338" x2="10196" y2= "935" />
     <polyline class="fil0 str0" points="9698,1939 10593,1939 10593,1938 "/>
     <line class="fil0 str0" x1="9698" y1="2116" x2="10600" y2= "2116" />
     <polyline class="fil0 str0" points="9816,3060 10483,3060 10493,3054 "/>
     <polyline class="fil0 str0" points="9816,3185 10483,3185 10483,3185 "/>
     <polyline class="fil0 str0" points="9599,3583 10693,3583 10693,3587 "/>
     <line class="fil0 str0" x1="9604" y1="3875" x2="10691" y2= "3875" />
     <line class="fil0 str0" x1="9751" y1="3583" x2="9751" y2= "3875" />
     <line class="fil0 str0" x1="9849" y1="3583" x2="9849" y2= "3875" />
     <polyline class="fil0 str0" points="10156,3583 10156,3875 10147,3875 "/>
     <polyline class="fil0 str0" points="9619,4448 10677,4448 10678,4448 "/>
     <polygon class="fil0 str0" points="9810,4980 9810,5114 10498,5114 10498,4980 "/>
     <ellipse class="fil0 str0" cx="10449" cy="4132" rx="192" ry="216"/>
     <ellipse class="fil0 str0" cx="10449" cy="4132" rx="74" ry="87"/>
     <polyline class="fil0 str0" points="9635,311 10641,311 10641,307 "/>
     <polyline class="fil0 str0" points="9508,179 10758,179 10760,181 "/>
     <polyline class="fil0 str0" points="10379,338 10379,1939 10416,1939 10416,338 "/>
     <polyline class="fil0 str0" points="9908,338 9908,1939 9871,1939 9871,338 "/>
     <polygon class="fil0 str0" points="9740,2158 10554,2158 10595,2228 10606,2289 10606,2794 10588,2866 10534,2956 10468,3015 9836,3015 9771,2965 9712,2870 9679,2777 9679,2297 9696,2221 "/>
     <polygon class="fil0 str0" points="9653,3542 9679,3448 9731,3345 9836,3223 10464,3223 10564,3351 10628,3454 10647,3538 "/>
     <polyline class="fil0 str0" points="10491,3921 10658,3921 10693,4041 10685,4172 10643,4298 10641,4404 9664,4404 9639,4329 9598,4237 9591,4110 9613,3997 9639,3922 10403,3922 10404,3922 "/>
     <polygon class="fil0 str0" points="9677,4500 9696,4620 9770,4721 9826,4767 9860,4799 9860,4939 10454,4939 10454,4799 10527,4747 10571,4665 10613,4559 10617,4500 "/>
     <polyline class="fil0 str0" points="10150,3540 10150,3223 10150,3223 "/>
     <polygon class="fil0 str0" points="9704,3506 10115,3506 10115,3255 9855,3255 "/>
     <polygon class="fil0 str0" points="10184,3255 10184,3505 10603,3505 10446,3256 "/>
     <polyline class="fil0 str0" points="10147,2158 10147,3015 10152,3015 "/>
     <rect class="fil0 str0" x="10187" y="2218" width="318.785" height="93.9752"/>
     <rect class="fil0 str0" x="10187" y="2370" width="318.785" height="93.9752"/>
     <rect class="fil0 str0" x="10187" y="2522" width="318.785" height="93.9752"/>
     <rect class="fil0 str0" x="10187" y="2674" width="318.785" height="93.9752"/>
     <rect class="fil0 str0" x="10187" y="2826" width="318.785" height="93.9752"/>
     <rect class="fil0 str0" x="9786" y="2218" width="318.785" height="93.9752"/>
     <rect class="fil0 str0" x="9786" y="2370" width="318.785" height="93.9752"/>
     <rect class="fil0 str0" x="9786" y="2522" width="318.785" height="93.9752"/>
     <rect class="fil0 str0" x="9786" y="2674" width="318.785" height="93.9752"/>
     <rect class="fil0 str0" x="9786" y="2826" width="318.785" height="93.9752"/>
     <polyline class="fil0 str0" points="10575,2193 10575,2894 10572,2893 "/>
     <polyline class="fil0 str0" points="9710,2201 9710,2870 9712,2870 "/>
     <polygon class="fil0 str0" points="7166,577 9635,577 9635,1078 9151,1079 9151,1294 9635,1295 9635,1521 7166,1521 "/>
     <line class="fil0 str0" x1="7649" y1="577" x2="7649" y2= "1521" />
     <line class="fil0 str0" x1="8106" y1="577" x2="8106" y2= "1521" />
     <polyline class="fil0 str0" points="8570,577 8570,1521 8537,1521 "/>
     <line class="fil0 str0" x1="9020" y1="577" x2="9020" y2= "1521" />
     <line class="fil0 str0" x1="9348" y1="577" x2="9348" y2= "1079" />
     <line class="fil0 str0" x1="9348" y1="1295" x2="9348" y2= "1521" />
    </g>
    <polygon class="fil0 str0" points="12787,577 12342,781 11852,764 11292,519 10643,577 10643,1078 11127,971 11127,1187 10643,1295 10643,1521 11183,1426 11631,1624 12265,1703 12596,1521 "/>
    <line class="fil0 str0" x1="10913" y1="1474" x2="10918" y2= "553" />
    <polyline class="fil0 str0" points="11257,1459 11262,1426 11336,538 "/>
    <line class="fil0 str0" x1="11631" y1="1624" x2="11766" y2= "727" />
    <polyline class="fil0 str0" points="11995,1669 12186,776 12186,776 "/>
    <line class="fil0 str0" x1="12315" y1="1676" x2="12520" y2= "700" />
   </g>
   <g>
    <g>
     <g>
      <polygon class="fil0 str0" points="24283,6752 24420,6376 25576,6376 25174,6229 25174,5020 26928,5020 26928,6199 26456,6376 26718,6387 26851,6811 27510,7157 27816,7157 27820,7869 27492,7880 26858,7662 26714,8123 24419,8123 24283,7754 "/>
      <line class="fil0 str0" x1="24419" y1="6376" x2="24419" y2= "8123" />
      <line class="fil0 str0" x1="24562" y1="6376" x2="24562" y2= "8123" />
      <line class="fil0 str0" x1="25034" y1="6376" x2="25034" y2= "8123" />
      <line class="fil0 str0" x1="24562" y1="6490" x2="25597" y2= "6490" />
      <line class="fil0 str0" x1="24562" y1="6752" x2="25310" y2= "6752" />
      <line class="fil0 str0" x1="24562" y1="7250" x2="25157" y2= "7250" />
      <line class="fil0 str0" x1="24562" y1="7762" x2="25328" y2= "7762" />
      <line class="fil0 str0" x1="24562" y1="8012" x2="25621" y2= "8012" />
      <polyline class="fil0 str0" points="25843,8097 25845,7788 26217,7788 26217,8098 "/>
      <polyline class="fil0 str0" points="25576,6376 25955,5776 25955,5260 26714,5260 26714,5473 26619,5473 26619,5790 26461,6377 26456,6376 "/>
      <line class="fil0 str0" x1="25174" y1="5197" x2="26928" y2= "5197" />
      <line class="fil0 str0" x1="25174" y1="5742" x2="25955" y2= "5742" />
      <line class="fil0 str0" x1="25307" y1="5197" x2="25307" y2= "6089" />
      <line class="fil0 str0" x1="25590" y1="5197" x2="25590" y2= "6074" />
      <polyline class="fil0 str0" points="25174,6078 25752,6078 25761,6083 "/>
      <line class="fil0 str0" x1="25174" y1="6229" x2="25675" y2= "6229" />
      <line class="fil0 str0" x1="26540" y1="6084" x2="26928" y2= "6084" />
      <line class="fil0 str0" x1="26770" y1="5197" x2="26770" y2= "6084" />
      <line class="fil0 str0" x1="26501" y1="6228" x2="26850" y2= "6228" />
      <polyline class="fil0 str0" points="25925,5823 26607,5823 26609,5824 "/>
      <line class="fil0 str0" x1="26092" y1="5823" x2="25960" y2= "6107" />
      <line class="fil0 str0" x1="26419" y1="5823" x2="26203" y2= "6326" />
      <line class="fil0 str0" x1="26890" y1="7070" x2="27510" y2= "7375" />
      <line class="fil0 str0" x1="26898" y1="7376" x2="27510" y2= "7646" />
      <polyline class="fil0 str0" points="27510,7157 27510,7870 27511,7879 "/>
      <ellipse class="fil0 str0" cx="26044" cy="7240" rx="450" ry="448"/>
      <ellipse class="fil0 str0" cx="26032" cy="7246" rx="875" ry="872"/>
      <polyline class="fil0 str0" points="25865,6390 25865,6701 26202,6701 26202,6394 26203,6391 "/>
      <line class="fil0 str0" x1="25702" y1="6439" x2="25867" y2= "6828" />
      <line class="fil0 str0" x1="26382" y1="6447" x2="26203" y2= "6822" />
      <line class="fil0 str0" x1="26835" y1="6899" x2="26457" y2= "7063" />
      <line class="fil0 str0" x1="25225" y1="6909" x2="25627" y2= "7073" />
      <line class="fil0 str0" x1="25229" y1="7592" x2="25631" y2= "7418" />
      <line class="fil0 str0" x1="25680" y1="8044" x2="25859" y2= "7649" />
      <line class="fil0 str0" x1="26380" y1="8046" x2="26217" y2= "7654" />
      <line class="fil0 str0" x1="26845" y1="7571" x2="26451" y2= "7430" />
      <polyline class="fil0 str0" points="25865,6390 25865,6107 26203,6107 26203,6391 "/>
      <polygon class="fil0 str0" points="27816,7157 28023,7157 29139,6472 29876,6472 29987,6583 29987,8488 29876,8639 29158,8639 28030,7869 27820,7869 "/>
      <line class="fil0 str0" x1="28023" y1="7157" x2="28023" y2= "7869" />
      <line class="fil0 str0" x1="28332" y1="6967" x2="28332" y2= "8075" />
      <polyline class="fil0 str0" points="28861,6643 28861,7953 28771,7953 28771,8359 28764,8369 "/>
      <polyline class="fil0 str0" points="28954,6585 28954,8495 28952,8498 "/>
      <line class="fil0 str0" x1="29090" y1="6502" x2="29090" y2= "8598" />
      <line class="fil0 str0" x1="29633" y1="6472" x2="29633" y2= "7323" />
      <line class="fil0 str0" x1="29637" y1="7762" x2="29637" y2= "8491" />
      <polyline class="fil0 str0" points="29090,8495 29968,8495 29987,8488 "/>
      <line class="fil0 str0" x1="29090" y1="7327" x2="29876" y2= "7327" />
      <line class="fil0 str0" x1="29090" y1="7762" x2="29876" y2= "7762" />
      <line class="fil0 str0" x1="29090" y1="7707" x2="29876" y2= "7707" />
      <line class="fil0 str0" x1="29090" y1="7408" x2="29876" y2= "7408" />
      <line class="fil0 str0" x1="29876" y1="6472" x2="29876" y2= "8639" />
      <polyline class="fil0 str0" points="28700,6742 28700,7062 28862,7062 "/>
      <polyline class="fil0 str0" points="28861,7404 28675,7404 28675,7677 28861,7677 "/>
      <ellipse class="fil0 str0" cx="28467" cy="7141" rx="83" ry="94"/>
      <ellipse class="fil0 str0" cx="28467" cy="7524" rx="83" ry="94"/>
      <path class="fil0 str0" d="M25494 8123l0 107 -339 888c-30,89 -10,144 63,162l0 1224 1592 0 0 -1224c97,-6 182,-236 -21,-254l0 -74 61 -18 0 -310 -121 0 -125 -394 0 -107 -1110 0z"/>
      <line class="fil0 str0" x1="25494" y1="8230" x2="26604" y2= "8230" />
      <line class="fil0 str0" x1="25310" y1="8712" x2="26789" y2= "8712" />
      <polyline class="fil0 str0" points="26789,8624 26789,8952 26789,8950 "/>
      <line class="fil0 str0" x1="26417" y1="8230" x2="26459" y2= "8712" />
      <line class="fil0 str0" x1="25684" y1="8230" x2="25599" y2= "8712" />
      <polyline class="fil0 str0" points="25599,8712 25596,9006 25742,9006 25742,8712 "/>
      <line class="fil0 str0" x1="25155" y1="9118" x2="26911" y2= "9118" />
      <line class="fil0 str0" x1="25218" y1="9280" x2="26810" y2= "9280" />
      <line class="fil0 str0" x1="25436" y1="9280" x2="25436" y2= "10504" />
      <line class="fil0 str0" x1="25606" y1="9280" x2="25606" y2= "9758" />
      <line class="fil0 str0" x1="26243" y1="9280" x2="26243" y2= "9832" />
      <line class="fil0 str0" x1="25613" y1="10359" x2="26810" y2= "10365" />
      <line class="fil0 str0" x1="25218" y1="10366" x2="25436" y2= "10366" />
      <line class="fil0 str0" x1="26243" y1="9364" x2="26810" y2= "9364" />
      <line class="fil0 str0" x1="25218" y1="9371" x2="25436" y2= "9371" />
      <line class="fil0 str0" x1="25606" y1="9471" x2="26243" y2= "9471" />
      <polygon class="fil0 str0" points="25514,9766 26564,9861 26523,10293 25462,10186 "/>
      <line class="fil0 str0" x1="26039" y1="9814" x2="25993" y2= "10239" />
      <polyline class="fil0 str0" points="25508,9809 26560,9908 26560,9908 "/>
      <line class="fil0 str0" x1="26555" y1="9954" x2="25503" y2= "9854" />
      <line class="fil0 str0" x1="26549" y1="10020" x2="25495" y2= "9918" />
      <line class="fil0 str0" x1="26544" y1="10077" x2="25488" y2= "9976" />
      <line class="fil0 str0" x1="26537" y1="10148" x2="25479" y2= "10047" />
      <line class="fil0 str0" x1="26530" y1="10224" x2="25471" y2= "10111" />
      <line class="fil0 str0" x1="25609" y1="10200" x2="25609" y2= "10504" />
      <polyline class="fil0 str0" points="25707,9783 25707,9571 26138,9571 26138,9823 26138,9823 "/>
      <polyline class="fil0 str0" points="25708,10210 25708,10305 26146,10305 26146,10255 26146,10255 "/>
      <polyline class="fil0 str0" points="25794,9791 25794,9667 26057,9667 26057,9816 "/>
      <rect class="fil0 str0" x="29211" y="4174" width="583" height="2158"/>
      <polygon class="fil0 str0" points="29844,10189 29824,11230 29992,10993 30205,10846 30043,10524 29983,10191 29694,9619 29794,8797 29211,8797 29435,9808 "/>
      <line class="fil0 str0" x1="29211" y1="6134" x2="29794" y2= "6134" />
      <line class="fil0 str0" x1="29211" y1="5892" x2="29794" y2= "5892" />
      <line class="fil0 str0" x1="29211" y1="5649" x2="29794" y2= "5649" />
      <line class="fil0 str0" x1="29211" y1="5407" x2="29794" y2= "5407" />
      <line class="fil0 str0" x1="29211" y1="5164" x2="29794" y2= "5164" />
      <line class="fil0 str0" x1="29211" y1="4921" x2="29794" y2= "4921" />
      <line class="fil0 str0" x1="29208" y1="4679" x2="29791" y2= "4679" />
      <line class="fil0 str0" x1="29208" y1="4436" x2="29791" y2= "4436" />
      <polyline class="fil0 str0" points="29253,8987 29286,8965 29742,8966 29769,8987 29771,8987 "/>
      <polyline class="fil0 str0" points="29311,9248 29424,9253 29716,9222 29738,9248 29739,9248 "/>
      <polyline class="fil0 str0" points="29366,9493 29492,9508 29707,9493 29709,9493 "/>
      <polyline class="fil0 str0" points="29426,9764 29583,9791 29712,9750 29772,9764 29768,9766 "/>
      <polyline class="fil0 str0" points="29612,9972 29742,10005 29875,9977 "/>
      <line class="fil0 str0" x1="29820" y1="10166" x2="29964" y2= "10153" />
      <polyline class="fil0 str0" points="29840,10399 29875,10355 30011,10346 "/>
      <polyline class="fil0 str0" points="29835,10646 29898,10583 30043,10524 "/>
      <polyline class="fil0 str0" points="29830,10931 29925,10808 30124,10685 "/>
      <polyline class="fil0 str0" points="29503,8797 29519,9079 29525,9237 29537,9501 29569,9663 29599,9770 29743,9989 29856,10163 29892,10160 29874,10161 29887,10354 29939,10585 29960,10787 29992,10993 29989,10975 29992,10993 "/>
      <line class="fil0 str0" x1="29503" y1="6332" x2="29503" y2= "4174" />
      <rect class="fil0 str0" x="29459" y="8639" width="84.0195" height="158.234"/>
      <rect class="fil0 str0" x="29461" y="6332" width="84.0195" height="140.25"/>
      <rect class="fil0 str0" x="24225" y="6752" width="58.3418" height="1006.52"/>
      <polyline class="fil0 str0" points="24419,8081 25759,8081 25761,8075 "/>
      <polyline class="fil0 str0" points="26281,8082 26671,8082 26809,7647 26831,7603 27510,7840 28023,7828 29090,8540 29165,8599 29876,8599 "/>
      <polyline class="fil0 str0" points="26456,6376 26452,6422 26686,6432 26820,6845 27510,7202 28023,7202 29152,6516 29876,6516 "/>
      <polyline class="fil0 str0" points="29987,6583 30047,6583 30047,6957 30111,6957 30111,7153 30047,7153 30047,7463 30110,7463 30110,7655 30047,7655 30047,7967 30109,7967 30109,8145 30047,8145 30047,8492 29984,8493 "/>
      <ellipse class="fil0 str0" cx="28467" cy="7908" rx="83" ry="94"/>
      <ellipse class="fil0 str2" cx="26044" cy="7240" rx="400" ry="398"/>
      <ellipse class="fil0 str2" cx="26044" cy="7240" rx="355" ry="354"/>
      <ellipse class="fil0 str0" cx="26044" cy="7240" rx="307" ry="305"/>
      <ellipse class="fil0 str0" cx="26044" cy="7240" rx="275" ry="274"/>
      <circle class="fil0 str1" cx="26044" cy="7240" r="183"/>
      <ellipse class="fil0 str1" cx="26044" cy="7240" rx="153" ry="152"/>
      <polyline class="fil0 str0" points="25728,6500 25289,6935 25292,7565 25705,7990 25705,7990 "/>
      <polyline class="fil0 str0" points="26351,6512 26774,6926 26778,7547 26357,7990 "/>
      <line class="fil0 str0" x1="25865" y1="6440" x2="26202" y2= "6440" />
      <line class="fil0 str0" x1="25865" y1="6313" x2="26203" y2= "6313" />
      <line class="fil0 str0" x1="26034" y1="6440" x2="26034" y2= "6701" />
      <line class="fil0 str0" x1="26034" y1="6313" x2="26034" y2= "6107" />
      <line class="fil0 str0" x1="25865" y1="6523" x2="26202" y2= "6523" />
      <line class="fil0 str0" x1="25865" y1="6621" x2="26202" y2= "6621" />
      <polyline class="fil0 str0" points="25501,6490 25368,6592 25251,6752 25145,6953 25113,7071 25113,7250 25123,7444 25172,7626 25260,7762 25349,7889 25518,8012 "/>
      <polygon class="fil0 str0" points="26021,5754 26021,5324 26652,5324 26652,5403 26556,5403 26556,5751 "/>
      <polygon class="fil0 str0" points="25687,8649 25750,8292 26350,8292 26379,8648 "/>
      <polygon class="fil0 str0" points="26471,8295 26562,8295 26672,8637 26522,8637 "/>
      <polygon class="fil0 str0" points="25611,8291 25545,8647 25395,8647 25525,8291 "/>
      <rect class="fil0 str0" x="25810" y="8766" width="914" height="285"/>
      <rect class="fil0 str0" x="25810" y="8766" width="913.913" height="78.6154"/>
      <rect class="fil0 str0" x="25810" y="8970" width="913.913" height="78.6154"/>
      <polygon class="fil0 str0" points="25358,8783 25520,8783 25520,9051 25259,9051 "/>
      <polyline class="fil0 str0" points="25218,10504 25218,10549 25593,10549 26021,10687 26411,10549 26810,10549 26810,10504 "/>
      <polyline class="fil0 str0" points="25174,5022 25174,4976 25587,4976 26058,4838 26488,4976 26928,4976 26928,5022 "/>
      <line class="fil0 str0" x1="25587" y1="4976" x2="26503" y2= "4976" />
      <line class="fil0 str0" x1="26058" y1="4838" x2="26058" y2= "4976" />
      <line class="fil0 str0" x1="25593" y1="10549" x2="26427" y2= "10549" />
      <polyline class="fil0 str0" points="26021,10549 26021,10687 26182,10549 "/>
      <line class="fil0 str0" x1="26021" y1="10687" x2="25872" y2= "10549" />
      <polyline class="fil0 str0" points="25885,4976 26058,4838 26219,4976 "/>
     </g>
     <rect class="fil0 str0" x="27549" y="7246" width="228" height="545"/>
     <rect class="fil0 str0" x="27856" y="7249" width="125" height="541"/>
    </g>
    <rect class="fil0 str0" x="29154" y="6579" width="167" height="167"/>
    <rect class="fil0 str0" x="29394" y="6579" width="167" height="167"/>
    <rect class="fil0 str0" x="29154" y="6831" width="167" height="167"/>
    <rect class="fil0 str0" x="29394" y="6831" width="167" height="167"/>
    <rect class="fil0 str0" x="29154" y="7084" width="167" height="167"/>
    <rect class="fil0 str0" x="29394" y="7084" width="167" height="167"/>
    <rect class="fil0 str0" x="29154" y="7899" width="167" height="167"/>
    <rect class="fil0 str0" x="29394" y="7899" width="167" height="167"/>
    <rect class="fil0 str0" x="29154" y="8172" width="167" height="167"/>
    <rect class="fil0 str0" x="29394" y="8172" width="167" height="167"/>
    <rect class="fil0 str0" x="29708" y="7762" width="87.2173" height="733.339"/>
    <rect class="fil0 str0" x="29707" y="6516" width="93.3568" height="811.347"/>
    <line class="fil0 str0" x1="28023" y1="7317" x2="28332" y2= "7199" />
    <line class="fil0 str0" x1="28023" y1="7438" x2="28332" y2= "7396" />
    <line class="fil0 str0" x1="28023" y1="7573" x2="28332" y2= "7610" />
    <line class="fil0 str0" x1="28023" y1="7703" x2="28332" y2= "7833" />
   </g>
  </g>
 </g>
</svg>
