<?xml version="1.0" encoding="UTF-8"?>
<!DOCTYPE svg PUBLIC "-//W3C//DTD SVG 1.1//EN" "http://www.w3.org/Graphics/SVG/1.1/DTD/svg11.dtd">
<!-- Creator: CorelDRAW X7 -->
<svg xmlns="http://www.w3.org/2000/svg" xml:space="preserve" width="102.891mm" height="93.6857mm" version="1.1" style="shape-rendering:geometricPrecision; text-rendering:geometricPrecision; image-rendering:optimizeQuality; fill-rule:evenodd; clip-rule:evenodd"
viewBox="0 0 386 351"
 xmlns:xlink="http://www.w3.org/1999/xlink">
 <defs>
  <style type="text/css">
   <![CDATA[
    .fil0 {fill:#4DFFFF}
   ]]>
  </style>
 </defs>
 <g id="Слой_x0020_1">
  <metadata id="CorelCorpID_0Corel-Layer"/>
  <path class="fil0" d="M251 15c0,0 0,1 -1,1l-2 2c0,0 0,0 0,0l0 0 -7 7 0 13 40 -3c0,-1 1,0 2,0l3 1c0,0 0,0 0,0l28 13c1,0 1,0 1,0l5 2 21 1 0 0 0 0c1,0 1,0 1,0l9 0 11 -5c0,0 0,0 0,0l18 -8c1,-1 2,-1 3,0 2,0 3,2 3,4l-13 63c0,1 -1,2 -2,3l-22 12c-1,1 -2,1 -3,1l-42 -6c-1,0 -1,0 -2,0l-29 -13 -31 6 0 16c0,0 0,1 0,1 0,2 -1,4 -2,5 0,2 -1,3 -2,4l0 9c0,0 0,1 0,1 1,1 2,3 2,4 1,2 2,4 2,6l0 0 0 36c0,0 0,1 0,1 -1,4 -2,8 -4,11 -2,3 -4,6 -7,8l0 5c3,4 7,8 9,12 3,5 5,10 5,17l0 18c1,3 1,5 2,7 1,3 1,5 1,8 0,6 -1,9 -2,13 -1,2 -2,4 -2,7 0,1 0,2 0,2 0,1 0,2 0,3l0 0c0,5 0,9 -4,15 -1,3 -2,5 -4,7 -1,2 -3,4 -4,5l0 17c0,2 -2,4 -4,4l-46 0c-2,0 -4,-2 -4,-4l0 -9 0 0 0 -8c-1,-1 -3,-2 -4,-3 -2,-2 -3,-3 -4,-5 -4,-6 -4,-10 -5,-15 0,-2 0,-4 0,-6 -1,-3 -2,-5 -3,-7 -2,-4 -4,-8 -2,-17 0,-3 1,-5 1,-8 1,-2 2,-4 3,-6l0 -18c0,-1 0,-1 0,-1 0,-9 5,-19 14,-28l0 -5c-3,-2 -5,-5 -7,-8 -3,-3 -4,-7 -5,-11l0 0c0,0 0,0 0,-1l0 -36c0,-2 1,-4 2,-6 0,-2 1,-3 2,-5l0 -9c-1,-1 -2,-2 -2,-4 -1,-1 -2,-3 -2,-5 0,-1 0,-1 0,-1l0 -16 -162 0c-2,0 -4,-1 -4,-3l0 -64c0,-2 2,-4 4,-4l162 0 0 -12 -13 -14 0 0c0,0 0,0 -1,0 0,-1 -1,-2 -1,-3 0,-1 0,-2 0,-4 0,-2 2,-3 3,-4 1,0 1,0 1,0 1,-1 2,-1 4,-1 30,0 60,0 90,0 0,0 1,0 1,0l0 0c4,0 6,1 6,7 0,0 0,1 0,2 0,0 0,0 0,0 0,1 -1,1 -1,2 0,0 -1,0 -1,1l-3 3z"/>
 </g>
</svg>
