<?xml version="1.0" encoding="UTF-8"?>
<!DOCTYPE svg PUBLIC "-//W3C//DTD SVG 1.1//EN" "http://www.w3.org/Graphics/SVG/1.1/DTD/svg11.dtd">
<!-- Creator: CorelDRAW X7 -->
<svg xmlns="http://www.w3.org/2000/svg" xml:space="preserve" width="69.8536mm" height="69.7477mm" version="1.1" style="shape-rendering:geometricPrecision; text-rendering:geometricPrecision; image-rendering:optimizeQuality; fill-rule:evenodd; clip-rule:evenodd"
viewBox="0 0 178 178"
 xmlns:xlink="http://www.w3.org/1999/xlink">
 <defs>
  <style type="text/css">
   <![CDATA[
    .fil0 {fill:#4DFFFF}
   ]]>
  </style>
 </defs>
 <g id="Слой_x0020_1">
  <metadata id="CorelCorpID_0Corel-Layer"/>
  <path class="fil0" d="M59 19c0,0 0,0 1,0l5 -3c0,0 0,-1 0,-1 1,-1 1,-3 2,-4 0,-1 1,-3 2,-4 1,-1 2,-2 2,-2l0 -2c0,-2 2,-3 3,-3l31 0c2,0 3,1 3,3l0 2c1,1 2,1 3,2l0 0 0 0c1,2 2,3 2,5 0,1 1,2 1,3 0,1 0,1 0,1l21 10c0,0 1,1 1,1 1,1 0,2 0,3l0 0c-1,0 -1,0 -1,1l-21 9c0,1 0,1 0,2 0,1 -1,2 -1,4 -1,2 -2,3 -3,5 -1,1 -2,2 -3,3l0 2 15 14 2 0c1,-1 2,-2 3,-3 2,0 4,-1 5,-2 2,0 3,-1 5,-1l2 -4c0,0 0,0 0,0l7 -17c1,-1 3,-2 4,-1 0,0 1,1 1,1l7 16c1,0 1,1 1,2l2 3c1,0 3,1 5,1 1,1 3,1 4,2 1,1 2,2 3,3l2 0c2,0 3,1 3,3l0 31c0,2 -1,3 -3,3l-2 0c-1,1 -2,2 -3,3 -1,1 -2,1 -4,2 -1,1 -3,1 -4,1l0 0c0,0 -1,0 -1,0l-10 21c0,1 -2,2 -3,1 -1,0 -1,0 -1,-1l-10 -21c-1,0 -1,0 -2,0 -1,0 -2,-1 -3,-1 -2,-1 -3,-1 -5,-2 -1,-1 -2,-2 -3,-3l-2 0 -14 15 0 2c2,1 2,2 3,3 1,1 2,3 2,5 1,1 1,2 1,3 0,1 0,1 0,2l21 9c1,1 2,2 1,4 0,0 0,1 -1,1l-18 8c1,0 2,1 3,2 1,0 1,1 1,2 0,3 -1,5 -3,8 -1,2 -2,4 -4,6 0,0 0,0 -1,0 0,0 0,0 0,0 -1,0 -1,0 -2,0 0,0 0,0 0,0 -1,0 -2,-1 -3,-1 0,1 -1,2 -2,2l-32 0c-1,0 -2,-1 -2,-2 -1,0 -2,1 -3,1l0 0c-1,1 -2,0 -3,0 -2,-2 -3,-4 -4,-7 -2,-2 -3,-4 -3,-7 0,-1 0,-2 1,-2 1,-1 2,-1 2,-2l-1 0c0,0 0,0 0,0 -1,0 -2,-1 -2,-2l-15 -6c0,0 -1,-1 -1,-1 0,-2 0,-3 1,-4l15 -7c1,0 1,0 1,0l5 -2c0,-1 0,-1 1,-1 0,-2 0,-3 0,-4 1,-2 2,-4 2,-5 1,-1 2,-2 3,-3l0 -2 -14 -14 -3 0c-1,1 -2,1 -3,2 -1,1 -2,1 -4,2 -1,0 -3,1 -4,1 0,0 -1,0 -1,0l-2 5 -1 1 0 0 -7 15c0,1 -1,1 -2,1l0 0c-1,0 -2,0 -3,-2l-6 -14c0,0 -1,-1 -1,-1l-2 -5c-1,0 -1,0 -2,0 -1,0 -3,0 -4,-1 -2,-1 -3,-1 -4,-2 -1,-1 -2,-2 -3,-3l-2 0c-2,0 -3,-1 -3,-3l0 -31c0,-2 1,-3 3,-3l2 0c0,-1 1,-2 2,-3 2,-1 3,-1 5,-2 1,0 2,0 3,-1 1,0 2,0 3,0l2 -4c0,-1 0,-1 0,-1l8 -16c0,-1 2,-2 3,-1 1,0 1,1 1,1l8 16c0,0 0,1 0,1l2 4c0,0 0,0 1,1 1,0 2,0 3,1 2,0 4,1 5,3 1,0 2,1 3,2l2 0 15 -15 0 -2c-1,-1 -2,-2 -2,-3 -1,-2 -2,-4 -3,-5 0,-2 -1,-3 -1,-4 0,-1 0,-1 0,-2l-5 -2c-1,0 -1,0 -1,-1l-15 -6c0,-1 -1,-1 -1,-2 -1,-1 0,-2 1,-3l15 -7z"/>
 </g>
</svg>
