<?xml version="1.0" encoding="UTF-8"?>
<!DOCTYPE svg PUBLIC "-//W3C//DTD SVG 1.1//EN" "http://www.w3.org/Graphics/SVG/1.1/DTD/svg11.dtd">
<!-- Creator: CorelDRAW X7 -->
<svg xmlns="http://www.w3.org/2000/svg" xml:space="preserve" width="57.6146mm" height="57.9686mm" version="1.1" style="shape-rendering:geometricPrecision; text-rendering:geometricPrecision; image-rendering:optimizeQuality; fill-rule:evenodd; clip-rule:evenodd"
viewBox="0 0 1062 1068"
 xmlns:xlink="http://www.w3.org/1999/xlink">
 <defs>
  <style type="text/css">
   <![CDATA[
    .str0 {stroke:#3BB8B8;stroke-width:3.68614;stroke-linecap:round;stroke-linejoin:round}
    .fil0 {fill:none}
   ]]>
  </style>
 </defs>
 <g id="Слой_x0020_1">
  <metadata id="CorelCorpID_0Corel-Layer"/>
  <g id="_1884712826832">
   <g>
    <g>
     <path class="fil0 str0" d="M646 2l-239 0 0 40c-24,22 -37,50 -38,80 0,43 -2,93 -1,140 1,32 23,62 45,85l0 37c-38,50 -55,95 -53,141l0 188 -358 0 0 230 359 0c-15,34 -59,65 -44,95 4,9 4,8 12,8l140 -1c33,30 107,27 139,0l133 0c10,0 10,2 11,-9 4,-37 -36,-59 -56,-92l364 0 0 -231 -364 0 0 -185c-1,-54 -27,-104 -56,-144l0 -38c21,-23 39,-51 41,-83 2,-45 1,-96 1,-141 0,-32 -13,-58 -36,-79l0 -41 -2 0"/>
     <line class="fil0 str0" x1="407" y1="42" x2="646" y2= "42" />
     <line class="fil0 str0" x1="412" y1="346" x2="639" y2= "346" />
     <line class="fil0 str0" x1="410" y1="384" x2="640" y2= "384" />
     <line class="fil0 str0" x1="360" y1="635" x2="696" y2= "635" />
     <line class="fil0 str0" x1="96" y1="713" x2="96" y2= "943" />
     <line class="fil0 str0" x1="195" y1="713" x2="195" y2= "943" />
     <line class="fil0 str0" x1="291" y1="713" x2="291" y2= "943" />
     <line class="fil0 str0" x1="696" y1="713" x2="696" y2= "947" />
     <line class="fil0 str0" x1="766" y1="712" x2="766" y2= "944" />
     <line class="fil0 str0" x1="863" y1="713" x2="863" y2= "945" />
     <line class="fil0 str0" x1="953" y1="713" x2="953" y2= "945" />
     <polyline class="fil0 str0" points="360,713 360,943 361,943 "/>
     <line class="fil0 str0" x1="360" y1="735" x2="696" y2= "735" />
     <line class="fil0 str0" x1="360" y1="931" x2="696" y2= "931" />
     <line class="fil0 str0" x1="316" y1="1013" x2="749" y2= "1013" />
     <ellipse class="fil0 str0" cx="429" cy="503" rx="34" ry="37"/>
     <ellipse class="fil0 str0" cx="429" cy="503" rx="12" ry="14"/>
    </g>
    <rect class="fil0 str0" x="416" y="100" width="54.6157" height="50.7139"/>
    <rect class="fil0 str0" x="569" y="100" width="54.6157" height="50.7139"/>
    <rect class="fil0 str0" x="569" y="235" width="54.6157" height="50.7139"/>
    <rect class="fil0 str0" x="418" y="235" width="54.6157" height="50.7139"/>
    <ellipse class="fil0 str0" cx="591" cy="503" rx="34" ry="37"/>
    <ellipse class="fil0 str0" cx="590" cy="503" rx="12" ry="14"/>
   </g>
   <polygon class="fil0 str0" points="383,266 383,116 425,56 631,56 668,111 668,268 635,330 420,330 "/>
   <polygon class="fil0 str0" points="373,621 373,513 385,468 411,418 422,401 630,401 653,438 673,483 680,521 680,619 "/>
   <polygon class="fil0 str0" points="372,650 372,723 680,723 680,650 "/>
   <polygon class="fil0 str0" points="376,917 376,749 517,749 517,917 "/>
   <polygon class="fil0 str0" points="533,749 533,917 678,917 678,749 "/>
   <polyline class="fil0 str0" points="427,749 427,811 376,811 376,824 443,824 443,749 "/>
   <line class="fil0 str0" x1="376" y1="870" x2="517" y2= "870" />
   <line class="fil0 str0" x1="533" y1="870" x2="678" y2= "870" />
   <polyline class="fil0 str0" points="631,870 631,749 581,749 581,870 "/>
   <line class="fil0 str0" x1="533" y1="788" x2="678" y2= "788" />
   <line class="fil0 str0" x1="533" y1="831" x2="678" y2= "831" />
   <polyline class="fil0 str0" points="323,999 739,999 740,998 "/>
   <polyline class="fil0 str0" points="361,943 696,943 696,944 "/>
   <line class="fil0 str0" x1="432" y1="999" x2="462" y2= "943" />
   <line class="fil0 str0" x1="623" y1="999" x2="597" y2= "943" />
  </g>
 </g>
</svg>
