<?xml version="1.0" encoding="UTF-8"?>
<!DOCTYPE svg PUBLIC "-//W3C//DTD SVG 1.1//EN" "http://www.w3.org/Graphics/SVG/1.1/DTD/svg11.dtd">
<!-- Creator: CorelDRAW X7 -->
<svg xmlns="http://www.w3.org/2000/svg" xml:space="preserve" width="112.911mm" height="76.5971mm" version="1.1" style="shape-rendering:geometricPrecision; text-rendering:geometricPrecision; image-rendering:optimizeQuality; fill-rule:evenodd; clip-rule:evenodd"
viewBox="0 0 437 297"
 xmlns:xlink="http://www.w3.org/1999/xlink">
 <defs>
  <style type="text/css">
   <![CDATA[
    .fil0 {fill:#4DFFFF}
   ]]>
  </style>
 </defs>
 <g id="Слой_x0020_1">
  <metadata id="CorelCorpID_0Corel-Layer"/>
  <g>
   <path class="fil0" d="M325 37l0 0 0 0zm72 95l0 0 0 1 0 -1zm-78 108l-1 0 1 0zm-319 -151l0 -48 15 0 15 0 24 -26 12 -13 1 0 0 0 6 0 1 0 4 0 1 0 2 0 0 0 3 3 17 0 0 -2 0 -3 10 0 0 4 0 3 9 0 1 -3 0 -2 22 0 0 3 0 2 60 0 10 0 0 -4 83 0 15 0 3 0 8 11c15,-4 18,20 2,23l1 0 0 0 5 5 10 -9c-3,-16 19,-19 21,-5 10,-5 23,1 25,13l0 0 14 0 0 48 -14 0 -2 3 0 8 0 0 0 8 0 1c7,4 13,11 13,23l0 1 0 32 29 0 0 -2 0 0 0 -2 3 0 0 0 8 0 0 2 0 22 -8 0 0 0 -23 40 0 19 20 20 3 0 0 -3 8 0 0 26 0 2 -14 0 0 -4 -39 0 -2 3 0 0 0 3 0 6 -45 0 0 -6 0 0 0 -3 -3 -3 -39 0 0 2 0 0 0 2 -6 0 -9 0 0 -2 0 -24 9 0 0 3 1 0 2 0 27 -26 0 0 -1 -1 -30 -53 0 0 -7 0 0 -21 0 -2 7 0 0 0 3 0 0 2 0 0 0 2 31 0 0 -35c0,-10 4,-17 14,-24l0 -8 0 -8 -6 -3 -17 10 0 26 -4 0 -13 0 -81 0 -4 -7 -8 4 -14 0 0 4 -35 0 0 -5 -11 0 0 5 -19 0 0 -5 -6 0 0 8 -23 0 -1 -4 -2 0 -9 0 -2 3 0 0 -3 0 0 0 -5 0 0 0 -6 0 -1 0 -14 -14 -22 -25 -15 0 -15 0z"/>
  </g>
 </g>
</svg>
