<?xml version="1.0" encoding="UTF-8"?>
<!DOCTYPE svg PUBLIC "-//W3C//DTD SVG 1.1//EN" "http://www.w3.org/Graphics/SVG/1.1/DTD/svg11.dtd">
<!-- Creator: CorelDRAW X7 -->
<svg xmlns="http://www.w3.org/2000/svg" xml:space="preserve" width="115.711mm" height="106.694mm" version="1.1" style="shape-rendering:geometricPrecision; text-rendering:geometricPrecision; image-rendering:optimizeQuality; fill-rule:evenodd; clip-rule:evenodd"
viewBox="0 0 19327 17821"
 xmlns:xlink="http://www.w3.org/1999/xlink">
 <defs>
  <style type="text/css">
   <![CDATA[
    .str0 {stroke:#3BB8B8;stroke-width:33.4059;stroke-linecap:round;stroke-linejoin:round}
    .str4 {stroke:#3BB8B8;stroke-width:33.4059;stroke-linecap:round;stroke-linejoin:round;stroke-dasharray:33.405922 33.405922}
    .str2 {stroke:#3BB8B8;stroke-width:33.4059;stroke-linecap:round;stroke-linejoin:round;stroke-dasharray:33.405922 100.217767}
    .str3 {stroke:#3BB8B8;stroke-width:33.4059;stroke-linecap:round;stroke-linejoin:round;stroke-dasharray:33.405922 167.029612}
    .str1 {stroke:#3BB8B8;stroke-width:33.4059;stroke-linecap:round;stroke-linejoin:round;stroke-dasharray:66.811845 33.405922}
    .fil0 {fill:none}
   ]]>
  </style>
 </defs>
 <g id="Слой_x0020_1">
  <metadata id="CorelCorpID_0Corel-Layer"/>
  <g id="_1884818367072">
   <path class="fil0 str0" d="M13052 9766l265 773 5492 0 353 1105 0 3005 -328 1105 -4246 0 0 232 -1193 0 0 -243 -4160 0 -370 -1127c-46,193 -142,352 -276,486l446 813 -453 992c-616,40 -1052,313 -1153,897l-2223 -17c-85,-452 -339,-898 -727,-1105l-22 -608c-894,442 -1920,-144 -1547,-1259 -159,-78 -258,-214 -320,-387 -597,-344 -1194,-687 -1790,-1031 -261,0 -522,0 -783,0l0 -2066 784 0 1911 512 349 -1303 1994 0 0 -403 -563 0 0 -210c-669,-77 -694,-992 -6,-1033l0 -867c-480,-35 -549,-695 -11,-757l0 -370 470 0 0 -553 397 0 0 -397 752 -2805 0 -1601c-448,-154 -843,-470 -908,-874l1054 0c-26,-253 46,-474 240,-653 205,146 273,388 271,653l980 0c8,428 -345,687 -897,880l0 1584 -726 2816 178 0 0 397 1363 0 0 235 500 0 0 2528 -500 0 0 426 470 0 765 442 0 686 -205 763 131 135 414 -1048 836 0"/>
   <polyline class="fil0 str0" points="800,13397 800,11331 801,11331 "/>
   <line class="fil0 str0" x1="800" y1="11927" x2="2675" y2= "12620" />
   <line class="fil0 str0" x1="800" y1="12691" x2="2631" y2= "13556" />
   <line class="fil0 str0" x1="2712" y1="11843" x2="2590" y2= "14428" />
   <line class="fil0 str0" x1="3061" y1="10540" x2="3136" y2= "14618" />
   <line class="fil0 str0" x1="3843" y1="14003" x2="2910" y2= "14815" />
   <polyline class="fil0 str0" points="2631,13556 3124,13966 3126,14125 "/>
   <line class="fil0 str0" x1="2675" y1="12620" x2="3096" y2= "12415" />
   <polyline class="fil0 str0" points="4328,10540 4350,11474 4240,11639 3082,11660 3082,11660 "/>
   <line class="fil0 str0" x1="3109" y1="13176" x2="3687" y2= "13175" />
   <line class="fil0 str0" x1="4945" y1="6900" x2="4945" y2= "10137" />
   <line class="fil0 str0" x1="4704" y1="6900" x2="4704" y2= "10137" />
   <polyline class="fil0 str0" points="7649,6582 7649,9110 7705,9110 "/>
   <polyline class="fil0 str0" points="5342,5950 6122,5950 6122,5931 "/>
   <polyline class="fil0 str0" points="5342,6347 6286,6347 6286,6354 "/>
   <line class="fil0 str0" x1="6094" y1="3145" x2="6834" y2= "3145" />
   <polyline class="fil0 str0" points="6094,1544 6834,1544 6834,1550 "/>
   <line class="fil0 str0" x1="5695" y1="1352" x2="7291" y2= "1352" />
   <line class="fil0 str0" x1="4970" y1="15308" x2="4457" y2= "16074" />
   <path class="fil0 str0" d="M5190 15418l-450 867 675 777 1048 -246 81 -1185c-463,41 -913,-37 -1354,-213z"/>
   <path class="fil0 str0" d="M6898 15570l283 903 678 295 588 -270 283 -644 -573 -1006c-361,385 -735,614 -1259,722z"/>
   <path class="fil0 str0" d="M7218 15470l447 810 659 -377 -473 -777c-191,131 -408,263 -633,344z"/>
   <path class="fil0 str0" d="M5498 15524l-207 889 695 164 154 -935c-250,-18 -462,-59 -642,-118z"/>
   <path class="fil0 str0" d="M4127 14544l-663 529 458 532 634 -587c-181,-156 -299,-266 -429,-474z"/>
   <line class="fil0 str0" x1="5055" y1="10137" x2="7223" y2= "10137" />
   <polyline class="fil0 str0" points="6883,10744 7424,9767 7800,9536 "/>
   <line class="fil0 str0" x1="8310" y1="11645" x2="8679" y2= "11427" />
   <path class="fil0 str0" d="M7293 10878l496 -680 508 375 -398 663c-199,-147 -401,-267 -606,-358z"/>
   <line class="fil0 str0" x1="8757" y1="12523" x2="9224" y2= "12272" />
   <line class="fil0 str0" x1="8775" y1="13727" x2="9214" y2= "14053" />
   <ellipse class="fil0 str0" cx="6266" cy="13159" rx="2576" ry="2486"/>
   <ellipse class="fil0 str0" cx="6266" cy="13159" rx="1726" ry="1713"/>
   <line class="fil0 str0" x1="5416" y1="10811" x2="5680" y2= "11548" />
   <line class="fil0 str0" x1="7357" y1="10906" x2="7016" y2= "11616" />
   <line class="fil0 str0" x1="8646" y1="12206" x2="7869" y2= "12521" />
   <line class="fil0 str0" x1="8629" y1="14151" x2="7886" y2= "13753" />
   <line class="fil0 str0" x1="7324" y1="15427" x2="6994" y2= "14712" />
   <line class="fil0 str0" x1="5389" y1="15497" x2="5761" y2= "14797" />
   <line class="fil0 str0" x1="3895" y1="14133" x2="4670" y2= "13811" />
   <line class="fil0 str0" x1="4717" y1="12402" x2="3935" y2= "12099" />
   <ellipse class="fil0 str0" cx="6266" cy="13159" rx="959" ry="952"/>
   <polyline class="fil0 str0" points="6326,11447 6326,12207 6326,12209 "/>
   <polyline class="fil0 str0" points="5143,11858 5685,12400 5686,12401 "/>
   <line class="fil0 str0" x1="7522" y1="11984" x2="6979" y2= "12522" />
   <polyline class="fil0 str0" points="7520,14337 6978,13795 6979,13796 "/>
   <line class="fil0 str0" x1="5099" y1="14420" x2="5614" y2= "13858" />
   <line class="fil0 str0" x1="4540" y1="13159" x2="5307" y2= "13159" />
   <polyline class="fil0 str0" points="6330,14109 6330,14868 6330,14870 "/>
   <polyline class="fil0 str0" points="5614,13858 5614,14523 6987,14523 6979,13796 "/>
   <polyline class="fil0 str0" points="7058,12621 7508,12621 7508,13700 7068,13700 7059,13695 "/>
   <polyline class="fil0 str0" points="7508,12717 7806,12717 7806,13523 7508,13523 "/>
   <polyline class="fil0 str0" points="3068,10900 5154,10900 5160,10913 "/>
   <line class="fil0 str0" x1="5055" y1="10540" x2="6994" y2= "10530" />
   <line class="fil0 str0" x1="9224" y1="10514" x2="9224" y2= "15754" />
   <polygon class="fil0 str0" points="10060,9143 10060,11617 10391,11617 10391,9143 "/>
   <polyline class="fil0 str0" points="9224,11374 10060,11374 9994,11374 10060,11374 "/>
   <line class="fil0 str0" x1="10391" y1="11385" x2="18744" y2= "11385" />
   <polyline class="fil0 str0" points="18755,11153 12336,11153 12336,10877 18744,10877 "/>
   <line class="fil0 str0" x1="9224" y1="13175" x2="18752" y2= "13175" />
   <line class="fil0 str0" x1="9224" y1="14965" x2="18733" y2= "14965" />
   <line class="fil0 str0" x1="18742" y1="10539" x2="18742" y2= "15759" />
   <polyline class="fil0 str0" points="18744,12225 19158,12464 19162,12464 "/>
   <polyline class="fil0 str0" points="18744,14181 19124,13800 19162,13800 "/>
   <line class="fil0 str0" x1="10535" y1="10568" x2="10535" y2= "15743" />
   <line class="fil0 str0" x1="13286" y1="11153" x2="13286" y2= "15743" />
   <line class="fil0 str0" x1="14678" y1="11153" x2="14678" y2= "15754" />
   <line class="fil0 str0" x1="16015" y1="11153" x2="16015" y2= "15754" />
   <line class="fil0 str0" x1="17407" y1="11153" x2="17407" y2= "15754" />
   <line class="fil0 str0" x1="14678" y1="10539" x2="14678" y2= "10877" />
   <line class="fil0 str0" x1="16063" y1="10539" x2="16063" y2= "10877" />
   <line class="fil0 str0" x1="17429" y1="10539" x2="17429" y2= "10877" />
   <line class="fil0 str0" x1="13317" y1="10539" x2="13317" y2= "10877" />
   <polygon class="fil0 str0" points="9619,7653 10357,7679 10341,8077 10721,8095 10867,5952 12949,6052 12923,6517 14444,6600 14391,7773 12839,7717 12703,9654 10655,9552 10688,8982 9538,8932 "/>
   <polyline class="fil0 str0" points="12977,10877 12546,9828 11254,9971 11168,9587 "/>
   <polyline class="fil0 str0" points="10391,9574 11342,10568 10391,10568 "/>
   <polyline class="fil0 str0" points="9989,7653 10060,6646 10844,6271 "/>
   <polyline class="fil0 str0" points="11420,5978 11916,5662 12380,6018 12380,6018 "/>
   <polyline class="fil0 str0" points="12784,8491 13496,8955 12712,9559 "/>
   <polyline class="fil0 str0" points="13004,9637 13652,9356 13717,7748 "/>
   <polyline class="fil0 str0" points="14025,7760 14005,8369 14623,8391 14709,5537 "/>
   <polygon class="fil0 str0" points="14610,8780 13958,9035 13973,8833 13988,8559 14621,8577 "/>
   <line class="fil0 str0" x1="13193" y1="6364" x2="14159" y2= "6364" />
   <polyline class="fil0 str0" points="15877,7778 16429,7777 16426,7977 15623,7977 "/>
   <path class="fil0 str0" d="M3926 14200l-833 635 94 950 1021 218 684 -741c-430,-269 -758,-618 -966,-1062z"/>
   <path class="fil0 str0" d="M4553 15926l17 674c396,204 617,583 729,1070 111,1 221,3 332,4 3,-155 6,-309 9,-464 496,0 993,0 1489,0 0,159 0,318 0,477 56,2 112,3 168,5 144,-475 459,-857 1192,-907l476 -998"/>
   <rect class="fil0 str0" x="5765" y="17320" width="1229" height="349"/>
   <ellipse class="fil0 str1" cx="6266" cy="13159" rx="832" ry="826"/>
   <ellipse class="fil0 str1" cx="6266" cy="13159" rx="1871" ry="1856"/>
   <ellipse class="fil0 str2" cx="6266" cy="13159" rx="1953" ry="1938"/>
   <polyline class="fil0 str0" points="5734,13939 5734,14523 5853,14523 5853,14018 5968,14063 5968,14523 6094,14523 6094,14095 6217,14109 6217,14523 "/>
   <polyline class="fil0 str0" points="6439,14523 6439,14100 6510,14081 6532,14081 6532,14523 6643,14523 6643,14041 6747,14013 6747,14523 6859,14523 6859,13907 "/>
   <line class="fil0 str0" x1="6986" y1="14411" x2="5614" y2= "14411" />
   <polyline class="fil0 str0" points="7508,12798 7715,12798 7715,13447 7508,13447 "/>
   <polyline class="fil0 str0" points="6981,10770 7479,9842 7849,9610 8086,9621 8799,10041 8793,10621 8596,11356 8246,11565 "/>
   <polyline class="fil0 str0" points="6990,15549 7260,16391 7837,16651 8373,16419 8619,15861 8084,14923 "/>
   <polyline class="fil0 str0" points="5263,15449 4860,16270 5437,16935 6357,16736 6444,15639 "/>
   <polyline class="fil0 str0" points="3958,14265 3211,14872 3282,15712 4166,15891 4812,15211 "/>
   <polyline class="fil0 str0" points="5218,796 7710,796 7719,798 "/>
   <line class="fil0 str0" x1="5719" y1="796" x2="6271" y2= "1544" />
   <line class="fil0 str0" x1="7238" y1="796" x2="6666" y2= "1544" />
   <line class="fil0 str0" x1="6480" y1="17" x2="6480" y2= "1547" />
   <polyline class="fil0 str0" points="6240,670 6751,670 6751,652 "/>
   <polyline class="fil0 str0" points="6218,1544 6218,3145 5464,5957 "/>
   <polyline class="fil0 str0" points="6721,1544 6721,3145 5969,5952 "/>
   <polyline class="fil0 str0" points="3064,10667 6911,10666 6923,10673 "/>
   <line class="fil0 str0" x1="3184" y1="10667" x2="3293" y2= "14482" />
   <line class="fil0 str0" x1="658" y1="11331" x2="658" y2= "13397" />
   <path class="fil0 str0" d="M8917 15887l-462 -816c231,-182 303,-515 397,-799l372 981"/>
   <polyline class="fil0 str0" points="9224,15555 13581,15555 13581,15747 14388,15747 14388,15577 18744,15577 "/>
   <polyline class="fil0 str0" points="15667,7977 15411,7977 15411,7977 "/>
   <line class="fil0 str0" x1="13004" y1="9637" x2="13052" y2= "9766" />
   <polyline class="fil0 str0" points="10169,7672 10158,7931 9756,7916 "/>
   <polyline class="fil0 str0" points="10011,7926 9952,8807 9668,8793 9712,8086 9863,8093 9823,8656 "/>
   <polyline class="fil0 str0" points="10183,8074 10139,8812 10685,8841 10698,8598 10352,8582 10371,8237 10715,8252 10722,8079 "/>
   <line class="fil0 str0" x1="10662" y1="8981" x2="11269" y2= "9009" />
   <polyline class="fil0 str0" points="11534,9596 11671,7646 12551,7687 12498,8457 "/>
   <line class="fil0 str0" x1="12532" y1="7953" x2="11906" y2= "7919" />
   <line class="fil0 str0" x1="12514" y1="8214" x2="11899" y2= "8173" />
   <line class="fil0 str0" x1="12498" y1="8456" x2="11888" y2= "8416" />
   <polyline class="fil0 str0" points="11774,9608 11847,8630 12771,8686 "/>
   <polyline class="fil0 str0" points="12462,9642 12521,8862 12051,8828 11992,9619 "/>
   <line class="fil0 str0" x1="12286" y1="8845" x2="12227" y2= "9641" />
   <polyline class="fil0 str0" points="14190,7601 14235,6773 11033,6609 10883,8817 11274,8835 11392,6935 13645,7038 13621,7546 11675,7465 "/>
   <polyline class="fil0 str0" points="10869,9123 10851,9406 11385,9432 "/>
   <line class="fil0 str0" x1="11723" y1="6950" x2="11707" y2= "7201" />
   <line class="fil0 str0" x1="12091" y1="6967" x2="12074" y2= "7212" />
   <line class="fil0 str0" x1="12463" y1="6984" x2="12450" y2= "7219" />
   <line class="fil0 str0" x1="12824" y1="7000" x2="12808" y2= "7249" />
   <line class="fil0 str0" x1="13178" y1="7016" x2="13163" y2= "7264" />
   <line class="fil0 str0" x1="13633" y1="7292" x2="13435" y2= "7283" />
   <line class="fil0 str0" x1="10918" y1="8301" x2="11306" y2= "8325" />
   <line class="fil0 str0" x1="10963" y1="7641" x2="11346" y2= "7664" />
   <polyline class="fil0 str0" points="11062,6394 11077,6129 12767,6221 "/>
   <line class="fil0 str0" x1="11334" y1="6390" x2="12748" y2= "6471" />
   <line class="fil0 str0" x1="12336" y1="11153" x2="10535" y2= "11153" />
   <line class="fil0 str0" x1="12336" y1="10877" x2="10535" y2= "10877" />
   <polygon class="fil0 str0" points="11515,10761 12716,10761 12392,9987 11125,10109 11539,10559 "/>
   <polygon class="fil0 str0" points="4481,9037 4481,9766 4264,9634 4153,9420 4183,9192 "/>
   <g>
    <rect class="fil0 str0" x="5798" y="6523" width="958" height="958"/>
    <circle class="fil0 str1" cx="6276" cy="7002" r="361"/>
    <circle class="fil0 str2" cx="6276" cy="7002" r="287"/>
    <circle class="fil0 str3" cx="6276" cy="7002" r="212"/>
    <circle class="fil0 str3" cx="6276" cy="7002" r="112"/>
    <circle class="fil0 str4" cx="6276" cy="7002" r="435"/>
   </g>
   <g>
    <rect class="fil0 str0" x="5798" y="7767" width="958" height="958"/>
    <circle class="fil0 str1" cx="6276" cy="8246" r="361"/>
    <circle class="fil0 str2" cx="6276" cy="8246" r="287"/>
    <circle class="fil0 str3" cx="6276" cy="8246" r="212"/>
    <circle class="fil0 str3" cx="6276" cy="8246" r="112"/>
    <circle class="fil0 str4" cx="6276" cy="8246" r="435"/>
   </g>
   <g>
    <rect class="fil0 str0" x="5798" y="9010" width="958" height="958"/>
    <circle class="fil0 str1" cx="6276" cy="9489" r="361"/>
    <circle class="fil0 str2" cx="6276" cy="9489" r="287"/>
    <circle class="fil0 str3" cx="6276" cy="9489" r="212"/>
    <circle class="fil0 str3" cx="6276" cy="9489" r="112"/>
    <circle class="fil0 str4" cx="6276" cy="9489" r="435"/>
   </g>
   <circle class="fil0 str0" cx="5366" cy="6796" r="273"/>
   <circle class="fil0 str0" cx="5366" cy="9696" r="273"/>
   <circle class="fil0 str0" cx="5366" cy="8971" r="273"/>
   <circle class="fil0 str0" cx="5366" cy="8246" r="273"/>
   <circle class="fil0 str0" cx="5366" cy="7521" r="273"/>
   <circle class="fil0 str0" cx="7208" cy="6796" r="273"/>
   <path class="fil0 str0" d="M7206 9963c-150,0 -271,-117 -271,-267 0,-151 122,-273 273,-273 150,0 272,122 272,273"/>
   <circle class="fil0 str0" cx="7208" cy="8971" r="273"/>
   <circle class="fil0 str0" cx="7208" cy="8246" r="273"/>
   <circle class="fil0 str0" cx="7208" cy="7521" r="273"/>
   <polyline class="fil0 str0" points="5785,6523 7484,6523 7484,9719 7489,9727 "/>
   <polyline class="fil0 str0" points="7316,9963 5090,9963 5090,6523 5893,6523 "/>
   <line class="fil0 str0" x1="5794" y1="7629" x2="6767" y2= "7629" />
   <line class="fil0 str0" x1="5791" y1="8863" x2="6755" y2= "8863" />
   <polyline class="fil0 str0" points="7649,6745 8015,6745 8015,8962 7649,8962 "/>
   <line class="fil0 str0" x1="7832" y1="6745" x2="7832" y2= "8962" />
   <polyline class="fil0 str4" points="7153,10824 7720,9942 8553,10531 8047,11362 "/>
   <polyline class="fil0 str4" points="7139,15509 7634,16466 8503,15950 7993,15068 7965,15037 "/>
   <polyline class="fil0 str4" points="5389,15497 5121,16486 6071,16729 6266,15645 "/>
   <polyline class="fil0 str4" points="4051,14432 3290,15050 3891,15764 4660,15102 "/>
   <ellipse class="fil0 str0" cx="6266" cy="13159" rx="2500" ry="2412"/>
   <rect class="fil0 str0" x="19162" y="11644" width="148" height="3016"/>
   <polyline class="fil0 str0" points="9389,14785 9389,13356 9595,13356 9595,14770 9831,14770 9831,13378 10535,13378 "/>
   <polygon class="fil0 str0" points="9960,13514 9960,13750 10236,13750 10236,13514 "/>
   <polygon class="fil0 str0" points="9960,13872 9960,14107 10236,14107 10236,13872 "/>
   <polygon class="fil0 str0" points="9960,14531 9960,14766 10236,14766 10236,14531 "/>
   <line class="fil0 str0" x1="9389" y1="14766" x2="9224" y2= "14766" />
   <line class="fil0 str0" x1="10394" y1="13175" x2="10394" y2= "14965" />
   <rect class="fil0 str0" x="10741" y="13371" width="2335" height="700"/>
   <circle class="fil0 str0" cx="10991" cy="14516" r="251"/>
   <circle class="fil0 str0" cx="12825" cy="14516" r="251"/>
   <circle class="fil0 str0" cx="11893" cy="14516" r="251"/>
   <polyline class="fil0 str0" points="11061,14070 11061,13371 11411,13371 11411,14070 11737,14070 11737,13371 12059,13371 12059,14070 12427,14070 12427,13371 12788,13371 12788,14070 "/>
   <rect class="fil0 str0" x="14825" y="13296" width="464" height="457"/>
   <rect class="fil0 str0" x="15403" y="13296" width="464" height="457"/>
   <rect class="fil0 str0" x="14825" y="13852" width="464" height="457"/>
   <rect class="fil0 str0" x="15403" y="13852" width="464" height="457"/>
   <rect class="fil0 str0" x="14825" y="14401" width="464" height="457"/>
   <rect class="fil0 str0" x="15403" y="14401" width="464" height="457"/>
   <rect class="fil0 str0" x="16190" y="13296" width="464" height="457"/>
   <rect class="fil0 str0" x="16768" y="13296" width="464" height="457"/>
   <rect class="fil0 str0" x="16190" y="13852" width="464" height="457"/>
   <rect class="fil0 str0" x="16768" y="13852" width="464" height="457"/>
   <rect class="fil0 str0" x="16190" y="14401" width="464" height="457"/>
   <rect class="fil0 str0" x="16768" y="14401" width="464" height="457"/>
   <rect class="fil0 str0" x="14825" y="11512" width="464" height="457"/>
   <rect class="fil0 str0" x="15403" y="11512" width="464" height="457"/>
   <rect class="fil0 str0" x="14825" y="12068" width="464" height="457"/>
   <rect class="fil0 str0" x="15403" y="12068" width="464" height="457"/>
   <rect class="fil0 str0" x="14825" y="12617" width="464" height="457"/>
   <rect class="fil0 str0" x="15403" y="12617" width="464" height="457"/>
   <rect class="fil0 str0" x="16187" y="11512" width="464" height="457"/>
   <rect class="fil0 str0" x="16765" y="11512" width="464" height="457"/>
   <rect class="fil0 str0" x="16187" y="12068" width="464" height="457"/>
   <rect class="fil0 str0" x="16765" y="12068" width="464" height="457"/>
   <rect class="fil0 str0" x="16187" y="12617" width="464" height="457"/>
   <rect class="fil0 str0" x="16765" y="12617" width="464" height="457"/>
   <rect class="fil0 str0" x="10741" y="12301" width="2334" height="677"/>
   <ellipse class="fil0 str0" cx="10992" cy="11870" rx="250" ry="242"/>
   <ellipse class="fil0 str0" cx="12825" cy="11870" rx="250" ry="242"/>
   <ellipse class="fil0 str0" cx="11893" cy="11870" rx="250" ry="242"/>
   <polyline class="fil0 str0" points="11061,12301 11061,12978 11411,12978 11411,12301 11737,12301 11737,12978 12059,12978 12059,12301 12427,12301 12427,12978 12787,12978 12787,12301 "/>
   <polyline class="fil0 str0" points="17539,11547 18069,11547 18069,12000 17539,12000 17539,12497 18052,12497 18052,13017 17550,13017 "/>
   <polyline class="fil0 str0" points="18627,11547 18284,11547 18284,12142 17693,12142 17693,12352 18290,12352 18290,13017 18621,13017 "/>
   <line class="fil0 str0" x1="17539" y1="11385" x2="17539" y2= "13175" />
   <line class="fil0 str0" x1="18619" y1="11385" x2="18619" y2= "13175" />
   <polyline class="fil0 str0" points="17538,13337 18068,13337 18068,13790 17538,13790 17538,14287 18051,14287 18051,14806 17549,14806 "/>
   <polyline class="fil0 str0" points="18626,13337 18283,13337 18283,13932 17692,13932 17692,14142 18289,14142 18289,14806 18620,14806 "/>
   <line class="fil0 str0" x1="17538" y1="13175" x2="17538" y2= "14965" />
   <line class="fil0 str0" x1="18618" y1="13175" x2="18618" y2= "14965" />
   <circle class="fil0 str0" cx="13983" cy="12288" r="459"/>
   <circle class="fil0 str0" cx="13983" cy="14099" r="459"/>
   <polyline class="fil0 str0" points="13652,9356 14633,8959 16728,8959 16728,6872 15745,6872 15181,5491 15181,4850 11458,4850 11458,5624 9204,5624 9204,9999 9646,9999 9646,10514 "/>
   <polyline class="fil0 str0" points="14610,8780 16582,8780 16582,7013 15668,7020 15030,5543 15030,5002 11605,5002 11605,5767 9356,5767 9356,9863 9798,9863 9798,10514 "/>
   <line class="fil0 str0" x1="12703" y1="9654" x2="13004" y2= "9637" />
   <line class="fil0 str0" x1="15411" y1="7977" x2="15411" y2= "8780" />
   <line class="fil0 str0" x1="15877" y1="7778" x2="15877" y2= "7013" />
   <polyline class="fil0 str0" points="14159,6364 14159,5151 14628,5151 14628,5541 14723,5541 "/>
   <polyline class="fil0 str0" points="13193,6364 13193,5184 11916,5184 11916,5662 11916,5662 "/>
   <polygon class="fil0 str0" points="13346,5168 13982,5168 13982,6190 13346,6190 "/>
  </g>
 </g>
</svg>
