<?xml version="1.0" encoding="UTF-8"?>
<!DOCTYPE svg PUBLIC "-//W3C//DTD SVG 1.1//EN" "http://www.w3.org/Graphics/SVG/1.1/DTD/svg11.dtd">
<!-- Creator: CorelDRAW X7 -->
<svg xmlns="http://www.w3.org/2000/svg" xml:space="preserve" width="91.9899mm" height="38.3374mm" version="1.1" style="shape-rendering:geometricPrecision; text-rendering:geometricPrecision; image-rendering:optimizeQuality; fill-rule:evenodd; clip-rule:evenodd"
viewBox="0 0 338 141"
 xmlns:xlink="http://www.w3.org/1999/xlink">
 <defs>
  <style type="text/css">
   <![CDATA[
    .fil0 {fill:#4DFFFF}
   ]]>
  </style>
 </defs>
 <g id="Слой_x0020_1">
  <metadata id="CorelCorpID_0Corel-Layer"/>
  <path class="fil0" d="M167 131l0 6c0,2 -1,4 -3,4 -1,0 -1,0 -2,0l-13 0c0,0 -1,-1 -2,-1l-9 -5 -45 0 0 0 0 0 -73 0c-2,0 -3,-2 -3,-4l0 0 0 -24 -7 -8 -5 0c-2,0 -4,-2 -4,-4l0 -45c0,-2 2,-4 4,-4l3 0 0 -3 -4 0c-2,0 -4,-2 -4,-4l0 -31c0,-2 2,-4 4,-4 0,0 0,0 0,0l11 0 0 0c0,-2 2,-4 4,-4l4 0c3,0 4,2 4,4l0 0 0 5 137 0c0,0 1,0 2,0l0 0 33 19 30 0c0,0 0,-1 0,-2l0 0c0,-1 -1,-1 -1,-2 0,-4 2,-4 6,-4l29 -1c0,0 0,0 0,0 1,0 2,0 2,0 4,1 4,2 3,7l0 0c0,0 0,1 0,1 0,0 0,1 -1,1l32 0c2,0 3,2 3,4l0 1 23 12 9 0c2,0 4,2 4,4l0 46c0,2 -2,3 -4,3l-9 0 -22 12 0 3c0,2 -2,3 -4,3 0,0 0,0 0,0l-39 0 0 1c0,2 -2,4 -4,4l0 0 0 0 -15 0c-2,0 -4,-2 -4,-4 0,0 0,0 0,0l0 -1 -19 0 0 1c0,0 0,0 0,0 0,0 0,1 0,1l0 0c0,0 0,0 0,1l0 0c1,2 1,3 0,4l0 0 0 0c-1,2 -2,2 -4,2l0 0 -22 0 0 0c-1,0 -2,0 -3,-2 -1,-1 -2,-1 -2,-2 0,0 0,0 0,0l-6 3c-1,1 -2,1 -3,1l-11 6z"/>
 </g>
</svg>
