<?xml version="1.0" encoding="UTF-8"?>
<!DOCTYPE svg PUBLIC "-//W3C//DTD SVG 1.1//EN" "http://www.w3.org/Graphics/SVG/1.1/DTD/svg11.dtd">
<!-- Creator: CorelDRAW X7 -->
<svg xmlns="http://www.w3.org/2000/svg" xml:space="preserve" width="80.1043mm" height="106.728mm" version="1.1" style="shape-rendering:geometricPrecision; text-rendering:geometricPrecision; image-rendering:optimizeQuality; fill-rule:evenodd; clip-rule:evenodd"
viewBox="0 0 2194 2923"
 xmlns:xlink="http://www.w3.org/1999/xlink">
 <defs>
  <style type="text/css">
   <![CDATA[
    .str0 {stroke:#3BB8B8;stroke-width:5.47703;stroke-linecap:round;stroke-linejoin:round}
    .fil0 {fill:none}
   ]]>
  </style>
 </defs>
 <g id="Слой_x0020_1">
  <metadata id="CorelCorpID_0Corel-Layer"/>
  <g id="_1884714856240">
   <g>
    <path class="fil0 str0" d="M351 3l339 0 0 260 266 256 0 218 45 0 0 -18 1190 0 0 737 -1197 0 0 -380 -78 0 0 71 30 0 0 230 -32 0 0 116 -81 46 0 262 61 16 0 161 87 0 0 179 -132 0 -156 227 23 38 508 0c162,70 142,290 -8,340l-128 0 0 158 -192 0 0 -150 -180 0c-17,2 -28,11 -30,29l-1 67 -355 0 0 -64c-52,-36 -69,-74 -75,-117l-25 -99c-22,-89 5,-123 99,-157l-29 -32c-170,114 -220,-109 -91,-142l-2 -66 -204 0 0 -274 112 0 2 -181 57 -32 2 -100 24 -1 0 -59 -72 -1 0 -474 -40 -12 0 -138 37 0 0 -36 -37 -22 0 -104 40 -23 0 -80 -42 -29 2 -105 264 -254 -1 -261z"/>
    <line class="fil0 str0" x1="351" y1="78" x2="690" y2= "78" />
    <line class="fil0 str0" x1="351" y1="133" x2="690" y2= "133" />
    <line class="fil0 str0" x1="352" y1="264" x2="691" y2= "263" />
    <line class="fil0 str0" x1="450" y1="133" x2="450" y2= "264" />
    <line class="fil0 str0" x1="597" y1="133" x2="597" y2= "264" />
    <line class="fil0 str0" x1="450" y1="264" x2="334" y2= "518" />
    <line class="fil0 str0" x1="597" y1="264" x2="724" y2= "520" />
    <line class="fil0 str0" x1="88" y1="519" x2="956" y2= "519" />
    <line class="fil0 str0" x1="87" y1="582" x2="956" y2= "582" />
    <polyline class="fil0 str0" points="128,1492 290,1494 290,582 "/>
    <line class="fil0 str0" x1="290" y1="901" x2="749" y2= "901" />
    <polyline class="fil0 str0" points="863,1499 750,1499 750,621 864,621 864,1501 "/>
    <polyline class="fil0 str0" points="936,582 936,919 1015,919 1015,719 1010,719 "/>
    <polyline class="fil0 str0" points="1015,919 1101,919 1101,1064 864,1064 "/>
    <line class="fil0 str0" x1="1037" y1="1064" x2="1037" y2= "1456" />
    <line class="fil0 str0" x1="1397" y1="719" x2="1397" y2= "1456" />
    <line class="fil0 str0" x1="1777" y1="719" x2="1777" y2= "1456" />
    <line class="fil0 str0" x1="1817" y1="719" x2="1817" y2= "1456" />
    <line class="fil0 str0" x1="290" y1="1392" x2="750" y2= "1392" />
    <polygon class="fil0 str0" points="330,2089 330,1508 721,1508 721,2100 330,2100 "/>
    <polyline class="fil0 str0" points="115,1915 279,1915 279,2189 207,2189 207,2194 "/>
    <polyline class="fil0 str0" points="279,2189 822,2189 826,2191 826,1978 894,1978 "/>
    <line class="fil0 str0" x1="482" y1="2186" x2="482" y2= "2382" />
    <polyline class="fil0 str0" points="482,2319 637,2319 637,2189 "/>
    <polyline class="fil0 str0" points="482,2269 419,2269 419,2381 694,2383 "/>
    <line class="fil0 str0" x1="329" y1="2429" x2="329" y2= "2802" />
    <polyline class="fil0 str0" points="330,2802 686,2802 686,2799 "/>
    <line class="fil0 str0" x1="716" y1="2770" x2="716" y2= "2422" />
    <line class="fil0 str0" x1="788" y1="2770" x2="788" y2= "2422" />
    <line class="fil0 str0" x1="871" y1="2770" x2="871" y2= "2422" />
    <line class="fil0 str0" x1="1130" y1="2762" x2="1130" y2= "2422" />
    <line class="fil0 str0" x1="1192" y1="2762" x2="1192" y2= "2422" />
    <polyline class="fil0 str0" points="921,2920 921,2651 969,2651 969,2523 1028,2523 1028,2569 1102,2569 1103,2620 1027,2620 1028,2650 1060,2650 1060,2920 "/>
    <polygon class="fil0 str0" points="474,2490 474,2551 577,2551 577,2490 "/>
    <polyline class="fil0 str0" points="474,2551 474,2591 577,2591 577,2551 578,2551 "/>
    <polyline class="fil0 str0" points="262,2189 380,2382 329,2429 "/>
    <circle class="fil0 str0" cx="432" cy="2702" r="51"/>
    <rect class="fil0 str0" x="1397" y="719" width="39.0074" height="737.249"/>
    <rect class="fil0 str0" x="948" y="2677" width="86.2249" height="242.92"/>
    <rect class="fil0 str0" x="990" y="2547" width="20.2869" height="130.425"/>
    <rect class="fil0 str0" x="1010" y="2584" width="73.1813" height="19.564"/>
    <rect class="fil0 str0" x="890" y="2441" width="42.7482" height="42.7482"/>
    <rect class="fil0 str0" x="983" y="2441" width="42.7482" height="42.7482"/>
    <rect class="fil0 str0" x="1067" y="2441" width="42.7482" height="42.7482"/>
    <circle class="fil0 str0" cx="221" cy="2345" r="51"/>
    <ellipse class="fil0 str0" cx="280" cy="2528" rx="33" ry="34"/>
    <ellipse class="fil0 str0" cx="287" cy="2616" rx="20" ry="21"/>
    <circle class="fil0 str0" cx="294" cy="2691" r="16"/>
    <polyline class="fil0 str0" points="482,2341 672,2341 672,2189 "/>
    <polyline class="fil0 str0" points="776,2189 639,2382 639,2382 "/>
    <rect class="fil0 str0" x="42" y="1946" width="199" height="209"/>
    <rect class="fil0 str0" x="843" y="1999" width="119" height="135"/>
    <rect class="fil0 str0" x="565" y="2651" width="95.6426" height="98.54"/>
    <polyline class="fil0 str0" points="330,1552 721,1552 721,1584 330,1584 330,1615 721,1615 721,1649 330,1649 330,1680 721,1680 721,1713 330,1713 330,1745 721,1745 721,1784 330,1784 330,1810 721,1810 721,1842 330,1842 330,1878 721,1878 721,1912 330,1912 330,1945 721,1945 721,1980 330,1980 330,2010 721,2010 721,2045 330,2045 330,2070 721,2070 "/>
    <line class="fil0 str0" x1="526" y1="1508" x2="526" y2= "2100" />
    <line class="fil0 str0" x1="707" y1="1508" x2="707" y2= "2100" />
    <line class="fil0 str0" x1="343" y1="1508" x2="343" y2= "2100" />
    <polyline class="fil0 str0" points="61,1946 61,2155 84,2155 84,1946 110,1946 110,2155 220,2155 220,1946 198,1946 198,2155 "/>
    <polyline class="fil0 str0" points="279,2155 795,2155 795,1946 871,1946 871,1846 721,1846 721,1842 "/>
    <polyline class="fil0 str0" points="807,1846 807,1536 721,1536 "/>
    <polyline class="fil0 str0" points="330,1532 237,1532 237,1717 154,1765 154,1890 330,1890 "/>
    <line class="fil0 str0" x1="407" y1="1508" x2="407" y2= "1392" />
    <line class="fil0 str0" x1="685" y1="1392" x2="685" y2= "1508" />
    <rect class="fil0 str0" x="290" y="936" width="110.798" height="39.1279"/>
    <rect class="fil0 str0" x="290" y="1011" width="110.798" height="39.1279"/>
    <rect class="fil0 str0" x="290" y="1086" width="110.798" height="39.1279"/>
    <rect class="fil0 str0" x="290" y="1160" width="110.798" height="39.1279"/>
    <rect class="fil0 str0" x="290" y="1235" width="110.798" height="39.1279"/>
    <rect class="fil0 str0" x="290" y="1310" width="110.798" height="39.1279"/>
    <rect class="fil0 str0" x="638" y="1310" width="110.798" height="39.1279"/>
    <rect class="fil0 str0" x="638" y="1235" width="110.798" height="39.1279"/>
    <rect class="fil0 str0" x="638" y="1160" width="110.798" height="39.1279"/>
    <rect class="fil0 str0" x="638" y="1086" width="110.798" height="39.1279"/>
    <rect class="fil0 str0" x="638" y="1011" width="110.798" height="39.1279"/>
    <rect class="fil0 str0" x="638" y="936" width="110.798" height="39.1279"/>
    <rect class="fil0 str0" x="489" y="901" width="60.8635" height="490.432"/>
    <polyline class="fil0 str0" points="172,582 172,1443 257,1443 257,582 "/>
    <polygon class="fil0 str0" points="780,645 841,645 841,1464 780,1464 "/>
   </g>
   <polyline class="fil0 str0" points="279,2189 398,2386 343,2436 343,2790 686,2790 688,2790 "/>
   <polyline class="fil0 str0" points="419,2381 419,2398 684,2398 702,2430 701,2775 "/>
   <line class="fil0 str0" x1="871" y1="2496" x2="1130" y2= "2496" />
  </g>
 </g>
</svg>
