<?xml version="1.0" encoding="UTF-8"?>
<!DOCTYPE svg PUBLIC "-//W3C//DTD SVG 1.1//EN" "http://www.w3.org/Graphics/SVG/1.1/DTD/svg11.dtd">
<!-- Creator: CorelDRAW X7 -->
<svg xmlns="http://www.w3.org/2000/svg" xml:space="preserve" width="117.511mm" height="108.492mm" version="1.1" style="shape-rendering:geometricPrecision; text-rendering:geometricPrecision; image-rendering:optimizeQuality; fill-rule:evenodd; clip-rule:evenodd"
viewBox="0 0 440 406"
 xmlns:xlink="http://www.w3.org/1999/xlink">
 <defs>
  <style type="text/css">
   <![CDATA[
    .fil0 {fill:#4DFFFF}
   ]]>
  </style>
 </defs>
 <g id="Слой_x0020_1">
  <metadata id="CorelCorpID_0Corel-Layer"/>
  <path class="fil0" d="M300 221l0 2 5 13 35 0 85 0c2,0 3,1 4,3l7 22 0 0c2,0 4,1 4,3l0 68c0,2 -2,4 -4,4l0 0 -7 22c0,1 -2,2 -3,2l0 0 -2 0c0,0 0,0 -1,0 0,0 0,0 0,0l-89 0 0 2c0,2 -2,3 -4,3l-26 0c-2,0 -4,-1 -4,-3l0 -2 -89 0c0,0 0,0 -1,0 0,0 0,0 0,0 0,1 -1,1 -1,2l-10 22c0,1 -2,2 -3,2l0 0c-6,0 -12,2 -16,5 -3,3 -6,7 -6,12 -1,2 -3,3 -4,3l-50 0c-2,0 -3,-2 -4,-3l0 0c-1,-5 -2,-10 -5,-14 -2,-4 -5,-7 -9,-8 -1,-1 -2,-2 -2,-4l0 -8c-7,2 -14,2 -20,0 -3,-1 -6,-2 -8,-4 -3,-3 -5,-5 -6,-8 -3,-5 -4,-12 -2,-20 -1,-1 -2,-2 -3,-3 -1,-1 -2,-3 -3,-5l-38 -22 -16 0c-2,0 -4,-1 -4,-3l0 -47c0,-2 2,-3 4,-3l17 0c1,0 1,0 1,0l40 10 6 -25c1,-2 2,-3 4,-3l0 0 41 0 0 -2 -9 0c-2,0 -4,-1 -4,-3l0 -2c-5,-2 -8,-5 -10,-9 -1,-2 -1,-4 -1,-6 0,-3 0,-5 2,-7 1,-4 5,-6 9,-7l0 -14c-3,-1 -6,-3 -7,-6 -1,-1 -1,-3 -1,-5 -1,-2 0,-4 1,-6 1,-2 3,-5 7,-6l0 -5c0,-2 2,-4 4,-4l6 0 0 -8c0,-2 2,-4 4,-4l5 0 0 -5c0,-1 0,-1 1,-1l16 -63 0 -32c-5,-2 -9,-5 -13,-9 -2,-2 -5,-6 -6,-9 0,0 0,-1 0,-1 -1,-1 -1,-2 -1,-3 0,-2 1,-4 3,-4 0,0 0,0 1,0l0 0 19 0c1,-2 1,-4 2,-6 1,-3 2,-5 5,-8 1,-1 2,-1 3,-1 0,0 1,0 2,1 3,2 5,5 6,8 1,2 1,4 1,6l19 0c2,0 3,1 3,3 0,0 0,1 0,1 0,5 -2,10 -6,14 -1,1 -3,2 -4,3 -1,1 -2,1 -2,1 -3,2 -5,3 -8,4 0,11 0,22 0,33 0,0 0,1 0,1l-15 58c2,0 3,2 3,4l0 5 27 0c2,0 4,2 4,4l0 1 7 0c2,0 4,2 4,4l0 57c0,2 -2,3 -4,3l-7 0 0 2 6 0c1,0 2,1 2,1l17 10c1,0 2,1 2,2l0 -97c0,-2 2,-3 4,-3l46 0 0 -14c0,-2 2,-4 4,-4l84 0c2,0 3,2 3,4l0 14 12 28 19 0c2,0 4,1 4,3l0 47c0,2 -2,4 -4,4l-46 0 -21 9 0 0 -11 4z"/>
 </g>
</svg>
