<?xml version="1.0" encoding="UTF-8"?>
<!DOCTYPE svg PUBLIC "-//W3C//DTD SVG 1.1//EN" "http://www.w3.org/Graphics/SVG/1.1/DTD/svg11.dtd">
<!-- Creator: CorelDRAW X7 -->
<svg xmlns="http://www.w3.org/2000/svg" xml:space="preserve" width="542.561mm" height="322.273mm" version="1.1" style="shape-rendering:geometricPrecision; text-rendering:geometricPrecision; image-rendering:optimizeQuality; fill-rule:evenodd; clip-rule:evenodd"
viewBox="0 0 11877 7055"
 xmlns:xlink="http://www.w3.org/1999/xlink">
 <defs>
  <style type="text/css">
   <![CDATA[
    .str0 {stroke:#4DFFFF;stroke-width:10.9455;stroke-linecap:round;stroke-linejoin:round}
    .fil0 {fill:none}
   ]]>
  </style>
 </defs>
 <g id="Слой_x0020_1">
  <metadata id="CorelCorpID_0Corel-Layer"/>
  <g id="_1884804721824">
   <path class="fil0 str0" d="M4132 3029c0,12 0,26 0,38 19,11 29,29 36,49 9,22 13,40 13,64 64,29 128,58 192,88 -64,30 -128,60 -192,90 -1,9 -1,19 -2,29 22,-10 43,-13 60,2 -6,41 -27,77 -55,105 -21,-9 -32,-22 -38,-40 -6,5 -11,8 -16,11 0,80 0,160 0,239 70,68 141,137 212,205 0,58 0,116 0,174 12,0 24,0 36,0 0,-4 0,-9 0,-14 317,0 634,0 951,0 0,196 0,393 0,589 -319,0 -638,0 -957,0 0,-101 0,-202 0,-304 -20,0 -41,0 -62,0 0,19 0,38 0,57 8,0 16,0 25,0 0,61 0,122 0,184 -9,0 -18,0 -26,0 0,30 0,61 0,92 -22,13 -43,25 -65,37 0,70 0,140 0,210 16,4 32,8 49,13 0,43 0,85 0,128 23,0 46,0 69,0 0,48 0,96 0,144 -35,0 -70,0 -106,0 -41,60 -83,120 -124,181 6,10 12,20 19,30 127,0 253,0 380,0 9,0 17,0 25,0 35,16 66,40 82,85 20,60 4,121 -38,158 -15,14 -32,23 -50,29 -34,0 -68,0 -102,0 0,42 0,84 0,126 -52,0 -103,0 -154,0 0,-40 0,-80 0,-120 -45,0 -90,0 -136,0 -24,-1 -33,13 -32,36 0,30 0,60 -1,89 24,23 40,51 43,84 1,59 1,118 -1,178 -2,33 -18,67 -49,99 0,15 0,30 0,45 29,37 48,78 59,120 5,20 7,37 7,51 0,73 0,146 0,219 145,0 289,0 433,0 0,91 0,183 0,274 -144,0 -288,0 -432,0 11,19 27,35 42,51 12,14 23,30 25,50 0,22 0,21 -18,20 -52,0 -103,0 -154,0 -37,31 -122,37 -165,0 -53,0 -102,1 -154,1 -17,0 -22,3 -26,-8 -2,-5 -4,-12 -4,-16 2,-36 40,-60 57,-98 -142,0 -286,0 -428,0 0,-91 0,-182 0,-273 142,0 284,0 426,0 0,-77 0,-154 0,-231 0,-61 26,-112 63,-160 0,-15 0,-29 0,-44 -27,-27 -52,-61 -53,-101 0,-56 1,-111 1,-167 0,-34 15,-68 45,-95 -1,-32 -1,-65 -1,-98 -27,-18 -50,-47 -58,-85 -8,-36 -17,-71 -25,-106 -11,-54 16,-84 83,-107 -7,-8 -15,-17 -23,-26 -7,4 -14,8 -20,12 -48,24 -99,19 -110,-42 -5,-40 17,-73 57,-83 0,-18 -1,-36 -1,-53 -55,0 -109,0 -164,0 0,-73 0,-146 0,-219 30,0 60,0 90,0 0,-48 1,-97 1,-145 16,-8 31,-17 46,-25 1,-27 1,-54 2,-81 5,0 11,0 16,0 1,0 2,0 3,0 0,-16 0,-32 0,-48 -19,0 -39,0 -58,0 0,-126 0,-251 0,-377 0,0 0,-1 0,-2 -10,-3 -21,-6 -32,-9 0,-37 0,-74 0,-111 10,0 20,0 30,0 0,-10 0,-19 0,-29 -10,-6 -20,-12 -30,-18 0,-27 0,-55 0,-82 11,-6 22,-13 32,-19 0,-21 0,-42 1,-64 -12,-7 -23,-15 -34,-23 0,-28 1,-55 1,-83 71,-68 141,-136 211,-204 0,-80 0,-160 0,-240 -6,-3 -11,-7 -15,-11 -5,17 -18,31 -38,40 -30,-30 -49,-65 -56,-104 15,-16 37,-14 57,-3 -1,-8 -2,-19 -2,-29 -64,-30 -128,-60 -192,-90 64,-30 128,-59 192,-89 2,-41 16,-93 50,-112 0,-12 0,-25 0,-37 -46,-45 -90,-90 -136,-136 -15,1 -31,1 -46,1 -23,34 -65,40 -104,46 -29,64 -60,129 -89,193 -30,-64 -60,-129 -90,-193 -53,2 -93,-17 -116,-54 -30,0 -60,0 -90,0 -50,27 -101,53 -151,79 0,10 0,20 0,29 -86,0 -171,0 -257,1 0,8 0,16 0,25 -29,0 -58,0 -88,0 0,-8 0,-17 0,-25 -60,0 -119,0 -179,-1 13,15 22,32 24,50 -46,0 -96,-1 -143,-1 0,-16 8,-34 23,-49 -61,31 -125,64 -186,95 0,17 0,33 0,49 -28,0 -57,0 -86,0 -21,-11 -42,-22 -63,-33 -91,0 -183,0 -274,0 -144,0 -287,0 -431,0 0,-50 0,-100 0,-150 -16,-21 -33,-43 -49,-64 -29,0 -57,0 -86,0 -10,17 -20,33 -31,46 -20,19 -29,24 -62,23 -65,0 -131,0 -196,0 -30,1 -51,-14 -69,-44 -10,-14 -11,-26 -24,-24 -24,0 -49,-1 -73,-1 -8,1 -18,13 -29,24 -14,13 -26,24 -42,34 -29,21 -61,31 -96,32 -68,0 -136,-1 -204,-1 0,136 0,271 0,407 -91,0 -181,0 -272,0 0,-141 0,-278 0,-419 -22,16 -43,31 -73,43 -6,2 -13,4 -20,5 -15,3 -13,-4 -13,-18 0,-55 0,-110 -1,-165 -17,-21 -29,-52 -27,-97 1,-29 9,-58 28,-79 0,-47 0,-94 0,-141 -2,-18 0,-20 20,-17 14,2 29,8 43,15 16,9 31,18 46,27 -1,-138 -1,-276 -1,-415 90,0 180,0 269,0 0,136 0,272 0,409 67,0 133,0 200,0 45,0 85,13 113,33 22,12 43,41 57,49 27,1 54,1 81,1 18,-32 42,-63 83,-63 70,0 139,0 209,0 25,-1 43,8 65,32 7,9 15,18 19,31 28,0 56,0 84,0 0,-20 0,-40 0,-60 -16,0 -32,0 -48,0 0,-63 0,-126 0,-189 30,0 59,0 89,0 0,-8 0,-16 0,-24 10,0 19,0 29,0 0,17 0,34 0,51 278,0 557,0 835,1 68,40 135,77 203,117 77,-1 154,1 232,0 -12,-11 -20,-22 -24,-34 -4,-17 -8,-19 9,-18 57,-1 114,-1 171,-1 11,0 14,-4 10,10 -3,15 -10,29 -20,43 75,0 150,0 224,0 0,7 0,14 0,21 51,27 101,54 152,81 30,0 60,0 90,0 12,-21 28,-35 50,-42 22,-9 43,-10 66,-10 30,-64 60,-131 89,-195 30,64 60,131 90,195 18,1 35,8 51,15 21,10 39,26 53,46 15,0 29,0 43,0 47,-48 94,-95 140,-143 0,-14 0,-28 0,-42 -17,-10 -33,-30 -42,-57 -7,-19 -10,-39 -10,-60 -63,-30 -130,-60 -193,-90 63,-30 130,-59 193,-89 0,-21 4,-42 18,-65 12,-19 24,-30 36,-37 0,-47 0,-94 0,-141 -21,-14 -38,-31 -51,-50 -14,-22 -22,-45 -22,-77 -1,-27 -8,-54 -20,-80 -24,-40 -19,-79 -6,-127 4,-14 11,-28 18,-42 -1,-38 -1,-76 -2,-114 2,-29 11,-59 31,-92 14,-21 33,-43 54,-65 0,-16 0,-33 0,-49 -25,-19 -46,-41 -57,-64 -8,-16 -14,-33 -14,-48 0,-65 0,-129 0,-194 0,-23 7,-45 25,-65 0,-23 0,-46 0,-69 -15,-12 -26,-33 -25,-60 0,-35 0,-70 0,-105 -323,0 -647,0 -970,0 0,-123 0,-247 0,-370 323,0 647,0 970,0 0,-35 0,-70 0,-105 -26,-27 -52,-54 -78,-81 -21,-19 -15,-42 17,-38 172,0 345,-1 517,-1 12,-1 19,-1 23,3 7,7 5,19 -2,28 -27,29 -54,58 -82,87 1,36 1,71 1,107 85,-8 170,-16 255,-23 74,32 147,64 220,96 64,2 129,4 193,7 58,-27 116,-54 175,-80 -25,123 -50,247 -76,370 -43,24 -86,48 -130,72 -83,-10 -166,-21 -249,-31 -58,-26 -117,-52 -176,-78 -70,12 -140,25 -210,37 0,37 0,75 1,113 -1,18 -10,36 -22,52 0,23 0,47 0,70 12,17 22,36 22,61 0,68 0,137 0,205 -4,29 -14,54 -30,74 -11,12 -23,22 -36,30 0,16 0,33 0,49 23,25 46,49 65,83 13,24 20,50 18,81 -1,36 -1,72 -1,107 13,30 23,63 19,103 -2,21 -10,40 -16,61 -9,23 -8,51 -9,84 0,29 -15,60 -36,93 -10,13 -20,24 -34,34 0,47 0,96 0,142 21,11 36,28 42,50 7,18 9,35 10,53 63,28 126,57 188,86 2,1 3,1 4,2 -64,30 -128,60 -192,90 1,22 -3,44 -16,68 -8,19 -24,36 -42,50 0,15 -1,29 0,43 47,44 94,88 141,132 13,0 25,0 37,0 10,-17 27,-29 49,-38 20,-8 41,-14 63,-14 29,-64 59,-128 88,-193 30,65 60,129 90,193 25,1 51,5 78,19 13,8 22,19 30,33 67,0 133,0 199,0 68,-73 136,-146 203,-219 29,0 58,0 87,0 6,5 10,9 16,13 31,0 64,0 95,0 1,-8 1,-17 2,-26 19,0 38,0 57,0 1,14 1,27 1,41 16,0 33,0 49,0 3,-10 5,-20 7,-30 42,0 84,0 126,0 0,9 0,19 0,28 131,0 262,0 393,0 0,-7 0,-15 0,-23 190,0 381,0 572,0 15,21 30,42 45,63 21,-5 48,-3 64,24 14,26 12,52 -2,75 -9,15 -25,28 -49,32 11,10 23,20 34,29 19,-18 38,-35 57,-53 -7,-27 -1,-48 18,-63 19,-14 42,-17 62,-9 13,4 23,13 30,25 3,6 5,13 6,19 22,-11 46,-12 72,-4 26,10 44,24 57,45 6,10 10,20 13,32 61,0 122,0 183,0 84,22 167,44 251,67 15,-57 30,-114 46,-171 87,0 174,0 261,0 0,-18 0,-35 0,-53 -25,0 -49,0 -74,0 0,-9 0,-18 0,-27 -26,-3 -47,-17 -58,-36 -13,-24 -13,-49 3,-73 15,-19 34,-26 54,-27 0,-38 0,-76 0,-113 -16,-2 -29,-9 -40,-21 -13,-17 -13,-36 -5,-52 8,-14 22,-24 44,-27 0,-16 0,-32 0,-48 21,0 41,0 61,0 0,-24 0,-48 0,-73 18,0 35,0 53,0 0,-17 0,-34 0,-52 32,-122 65,-245 98,-367 0,-70 0,-140 0,-210 -26,-9 -51,-22 -74,-41 -21,-17 -38,-42 -45,-74 46,0 92,0 138,0 -2,-16 0,-32 6,-48 6,-16 15,-27 26,-37 14,9 24,25 30,45 4,14 5,27 5,40 43,0 86,0 129,0 0,20 -5,39 -18,55 -17,21 -40,36 -66,47 -11,5 -23,9 -34,14 0,70 1,138 0,209 -31,121 -64,246 -95,367 8,0 16,0 23,0 0,18 0,35 0,52 60,0 119,0 179,0 0,11 0,21 0,31 22,0 44,0 66,0 0,111 0,221 0,332 -22,0 -44,0 -66,0 0,18 0,37 0,55 20,0 41,0 62,0 33,20 66,39 100,58 0,30 0,60 0,90 -9,34 -18,67 -27,100 6,6 11,12 17,18 18,-46 36,-92 54,-137 19,0 37,0 55,0 0,-23 0,-46 0,-68 -19,0 -38,0 -57,0 0,-191 0,-382 0,-573 98,0 197,0 295,0 0,-34 0,-68 0,-102 163,0 326,0 488,0 0,28 0,56 0,84 25,61 49,121 74,181 43,0 86,0 129,0 0,91 0,182 0,274 -92,0 -183,0 -275,0 -71,28 -143,57 -213,89 13,39 27,78 41,118 240,0 480,0 720,0 15,48 30,96 46,145 14,0 28,0 43,0 18,-50 36,-99 53,-148 152,0 303,0 455,0 -53,-19 -106,-39 -158,-58 0,-164 0,-328 0,-492 57,-1 105,1 162,0 59,-17 126,-37 185,-54 57,18 113,36 169,54 58,0 115,0 173,0 0,160 0,320 0,481 -61,22 -123,46 -184,69 33,2 68,3 102,4 17,56 34,111 52,167 86,45 172,91 259,136 67,0 134,0 201,0 146,-90 293,-179 439,-269 42,0 84,0 126,0 0,-19 0,-37 0,-55 -31,0 -63,0 -95,0 -1,0 -2,0 -3,0 0,-283 0,-566 0,-848 77,0 153,0 229,0 0,282 0,565 0,848 -32,0 -65,0 -98,0 0,18 0,36 0,55 44,0 87,0 130,0 15,14 29,29 44,43 8,0 16,0 24,0 0,49 0,98 0,147 8,0 17,0 25,0 0,26 0,52 0,77 -9,0 -17,0 -25,0 0,41 0,82 0,122 8,0 16,0 24,0 0,25 0,50 0,75 -8,0 -16,0 -24,0 0,41 0,82 0,123 8,0 16,0 24,0 0,23 0,47 0,70 -8,0 -16,0 -24,0 0,45 0,89 0,134 0,1 0,2 0,2 -9,1 -17,1 -25,1 -14,19 -28,38 -43,57 -43,0 -87,0 -130,0 0,20 0,40 0,60 0,1 0,2 0,2 32,0 65,0 98,0 -13,108 -26,216 -39,323 38,75 76,150 114,225 7,44 15,87 23,131 21,42 42,84 64,126 -28,20 -56,39 -84,58 -22,31 -44,62 -66,93 3,-136 5,-272 8,-409 -54,-50 -107,-100 -161,-150 -29,-132 -58,-264 -88,-397 34,0 64,0 97,0 0,-20 1,-42 0,-62 -39,0 -78,0 -118,0 -149,-101 -294,-201 -443,-302 -69,-1 -141,1 -211,4 -83,-29 -166,-57 -249,-86 -19,61 -38,121 -57,181 -14,0 -29,0 -43,0 0,14 0,28 0,42 16,52 32,104 49,155 16,0 31,0 47,0 0,41 0,81 0,122 -8,2 -16,5 -23,7 0,10 0,20 0,29 22,3 42,9 47,36 3,19 -2,35 -13,49 -9,9 -17,15 -26,15 0,166 0,331 0,496 0,1 0,2 0,3 -55,0 -103,0 -157,0 -49,18 -105,36 -153,54 -56,-18 -112,-36 -169,-54 -49,0 -98,0 -147,0 0,-166 0,-333 0,-499 -15,-4 -26,-12 -29,-29 -3,-18 5,-37 15,-61 41,-107 82,-215 123,-323 0,-14 0,-28 0,-42 -141,0 -282,0 -423,0 -18,-47 -35,-95 -53,-143 -15,0 -29,0 -43,0 -14,48 -29,95 -43,143 -186,0 -371,0 -557,0 0,10 0,20 0,31 -52,0 -104,0 -156,0 0,-11 0,-22 0,-32 -182,0 -364,0 -547,0 -13,-49 -31,-100 -47,-148 -6,28 -21,48 -36,64 20,35 39,71 59,106 -20,44 -40,87 -60,130 -86,5 -133,41 -151,118 -97,-1 -194,-2 -291,-2 -14,-65 -43,-116 -96,-145 0,-27 -1,-53 -2,-80 -37,19 -80,26 -123,14 -41,-13 -71,-38 -84,-79 -10,-32 -8,-65 4,-100 -20,-9 -34,-26 -42,-51 -78,-45 -157,-90 -235,-135 -61,0 -122,0 -183,0 -5,6 -10,12 -14,19 0,31 0,63 0,94 23,13 41,31 54,53 15,26 22,53 24,83 0,61 0,123 0,184 53,0 107,0 160,0 0,-6 0,-12 0,-18 0,-1 0,-2 0,-3 20,0 41,0 61,0 0,45 0,90 0,134 -14,0 -29,0 -43,0 -43,76 -87,151 -131,226 0,36 0,72 0,107 37,38 75,75 112,113 7,0 13,0 19,0 0,-6 0,-11 0,-17 16,0 32,0 47,0 0,53 0,105 0,157 -26,0 -52,0 -78,0 0,-7 0,-14 0,-21 -74,0 -148,0 -221,0 -6,5 -11,11 -16,16 0,29 0,58 0,87 26,19 47,42 62,70 9,17 16,36 17,59 0,34 0,68 0,102 -3,32 -12,60 -28,84 -14,19 -31,34 -51,46 0,10 0,21 0,32 24,14 44,35 56,64 11,25 16,51 19,77 0,87 0,174 0,261 144,0 288,0 432,0 0,89 0,178 0,267 -144,0 -288,0 -431,1 16,28 33,57 49,86 12,17 1,32 -21,30 -44,0 -89,0 -133,0 -47,38 -133,40 -183,0 -47,0 -94,0 -141,0 -22,1 -27,-15 -17,-32 17,-28 33,-56 49,-84 -142,0 -285,0 -428,0 0,-90 0,-179 0,-269 143,0 286,0 428,0 0,-83 0,-167 0,-251 1,-35 6,-70 26,-100 12,-19 28,-36 46,-49 0,-12 0,-23 0,-34 -27,-15 -43,-37 -55,-62 -8,-20 -14,-40 -16,-62 0,-33 0,-66 0,-99 1,-25 2,-50 17,-75 12,-24 31,-44 53,-62 0,-29 0,-57 0,-86 -5,-6 -11,-11 -16,-17 -75,0 -149,0 -224,0 0,7 0,15 0,22 -29,0 -58,0 -87,0 0,-50 0,-100 0,-149 19,0 37,0 55,0 0,6 0,12 0,18 6,0 12,0 18,0 49,-49 98,-99 147,-149 -57,-100 -114,-200 -172,-300 -13,0 -26,0 -39,0 0,-44 0,-88 0,-133 18,0 36,0 53,0 0,8 0,15 0,22 59,0 118,0 177,0 0,-63 0,-126 0,-189 3,-35 13,-67 32,-97 14,-17 30,-32 49,-44 0,-31 0,-63 0,-95 -11,-5 -21,-9 -32,-14 -33,19 -67,38 -101,57 0,48 0,95 0,143 -184,0 -368,0 -552,0 -7,-12 -14,-25 -21,-37 -15,8 -30,17 -45,26 -27,0 -54,0 -81,0 0,6 0,12 0,18 -66,0 -132,0 -197,0 0,-8 0,-17 0,-26 -21,0 -42,0 -63,0 0,9 0,19 0,28 -36,0 -72,0 -108,0 0,-10 0,-19 0,-29 -11,0 -22,0 -33,0 0,14 0,29 0,43 -44,0 -87,0 -131,0 -2,-6 -3,-13 -5,-20 -21,0 -42,0 -63,0 -4,7 -7,13 -11,20 -29,0 -57,0 -86,0 -67,-75 -135,-150 -203,-225 -66,0 -132,0 -199,0 -11,19 -29,36 -53,44 -18,8 -35,10 -55,10 -29,64 -59,128 -88,193 -30,-65 -60,-129 -90,-193 -22,-1 -40,-6 -57,-12 -26,-8 -44,-24 -55,-42 -12,0 -24,1 -37,1 -44,47 -87,93 -131,141z"/>
   <polyline class="fil0 str0" points="3244,2887 3244,2617 3244,2617 "/>
   <polyline class="fil0 str0" points="1280,2892 1280,2619 1280,2619 "/>
   <line class="fil0 str0" x1="3859" y1="3496" x2="4130" y2= "3496" />
   <line class="fil0 str0" x1="3841" y1="5785" x2="4125" y2= "5785" />
   <line class="fil0 str0" x1="3858" y1="2013" x2="4128" y2= "2013" />
   <polyline class="fil0 str0" points="4729,2617 4729,2887 4729,2887 "/>
   <line class="fil0 str0" x1="6629" y1="2951" x2="6898" y2= "2951" />
   <line class="fil0 str0" x1="6636" y1="4062" x2="6886" y2= "4062" />
   <line class="fil0 str0" x1="6993" y1="2886" x2="6993" y2= "2616" />
   <line class="fil0 str0" x1="9521" y1="2657" x2="9521" y2= "3052" />
  </g>
 </g>
</svg>
