<?xml version="1.0" encoding="UTF-8"?>
<!DOCTYPE svg PUBLIC "-//W3C//DTD SVG 1.1//EN" "http://www.w3.org/Graphics/SVG/1.1/DTD/svg11.dtd">
<!-- Creator: CorelDRAW X7 -->
<svg xmlns="http://www.w3.org/2000/svg" xml:space="preserve" width="109.342mm" height="128.651mm" version="1.1" style="shape-rendering:geometricPrecision; text-rendering:geometricPrecision; image-rendering:optimizeQuality; fill-rule:evenodd; clip-rule:evenodd"
viewBox="0 0 350 412"
 xmlns:xlink="http://www.w3.org/1999/xlink">
 <defs>
  <style type="text/css">
   <![CDATA[
    .fil0 {fill:#4DFFFF}
   ]]>
  </style>
 </defs>
 <g id="Слой_x0020_1">
  <metadata id="CorelCorpID_0Corel-Layer"/>
  <path class="fil0" d="M11 129c0,-1 2,-3 3,-3 16,1 33,0 49,0l-6 -2c-2,0 -2,-1 -2,-3l0 0 0 -72c0,-2 1,-3 3,-3l23 0 26 -8c1,0 1,0 1,0 1,0 1,0 2,0l24 8 24 0c2,0 4,1 4,3l0 2c0,1 0,1 0,1l0 68c0,1 -1,2 -3,3l-12 4c1,0 2,1 2,2l0 0 8 23 36 19 27 0 17 -10c0,0 0,0 1,0l46 -29c0,0 1,0 1,0l1 0 4 0 0 -2c-2,0 -4,-1 -4,-3l0 -94c0,0 0,0 0,-1 0,0 0,-1 0,-1l0 -12c0,0 0,0 0,-1 0,0 0,0 0,-1l0 -14c0,-2 2,-3 4,-3l33 0c2,0 3,1 3,3l0 124c0,2 -1,3 -3,3l0 2 5 0c1,0 1,0 2,1l5 5 3 0c1,0 3,2 3,4l0 18 0 0c2,0 3,1 3,3l0 11c0,2 -1,3 -3,3l0 0 0 12 0 0c2,0 3,1 3,3l0 0 0 11c0,2 -1,3 -3,3l0 0 0 12 0 0c2,0 3,1 3,3l0 10c0,2 -1,3 -3,3l0 0 0 17c0,2 -2,3 -3,3 -1,0 -1,0 -1,0l-2 0 -5 7c0,1 -1,2 -2,2l0 0 -5 0 0 2c2,0 3,2 3,4 0,0 0,0 0,0l-5 46 3 7c0,0 1,1 1,2l12 23c0,1 0,1 0,1l0 0 3 19 9 18c1,1 1,3 -1,4l-11 8 -10 13c-1,2 -3,2 -4,1 -1,-1 -1,-2 -1,-3l0 0 0 -47 0 0c0,0 0,-1 0,-1l1 -10 -1 0c0,0 0,0 0,-1l-11 -10c-1,0 -1,-1 -1,-1l-10 -9c0,0 -1,-1 -1,-2l0 -2c0,0 0,0 0,0l-4 -15c0,-1 0,-1 0,-1l-3 -13c0,-1 0,-1 0,-1l-3 -14c0,-1 0,-1 0,-1l-3 -11c0,-1 1,-3 3,-3 0,0 0,-1 1,-1l0 0 0 -2 -4 0c0,0 -1,0 -2,-1l-2 -2c-1,0 -2,0 -2,-1l-43 -29c0,0 0,0 0,0l-16 -11 -11 0 -19 0c0,0 -1,0 -1,0l0 0 -34 -11 -7 23c0,1 -1,2 -3,2l0 0 -3 0 0 3 6 20 5 0c2,0 3,1 3,3l0 18c0,1 -1,2 -2,3 2,1 4,2 5,4 1,2 1,3 1,5 0,1 -1,3 -1,4 -1,3 -3,5 -5,6l0 70c0,2 -2,3 -3,3l-23 0 -21 8c-1,0 -1,0 -2,0 0,0 -1,0 -1,0l-24 -8 -21 0c-2,0 -3,-1 -3,-3l0 -70c-2,-1 -3,-3 -4,-4 0,-2 -1,-5 0,-7 0,-1 0,-1 1,-2 6,-17 13,-34 19,-50l0 -3c-20,0 -39,0 -59,0 -1,0 -3,-1 -3,-2l-7 -19 -1 0c-2,0 -3,-1 -3,-3l0 -58c0,-2 1,-3 3,-3l1 0 7 -19z"/>
 </g>
</svg>
