<?xml version="1.0" encoding="UTF-8"?>
<!DOCTYPE svg PUBLIC "-//W3C//DTD SVG 1.1//EN" "http://www.w3.org/Graphics/SVG/1.1/DTD/svg11.dtd">
<!-- Creator: CorelDRAW X7 -->
<svg xmlns="http://www.w3.org/2000/svg" xml:space="preserve" width="189.705mm" height="63.2963mm" version="1.1" style="shape-rendering:geometricPrecision; text-rendering:geometricPrecision; image-rendering:optimizeQuality; fill-rule:evenodd; clip-rule:evenodd"
viewBox="0 0 458 153"
 xmlns:xlink="http://www.w3.org/1999/xlink">
 <defs>
  <style type="text/css">
   <![CDATA[
    .fil0 {fill:#FF6666;fill-rule:nonzero}
    .fil1 {fill:#FF6666;fill-rule:nonzero;fill-opacity:0.101961}
   ]]>
  </style>
 </defs>
 <g id="Слой_x0020_1">
  <metadata id="CorelCorpID_0Corel-Layer"/>
  <g id="_2192286327264">
   <polygon class="fil0" points="187,153 68,153 68,136 70,136 70,152 187,152 203,135 203,120 204,120 204,136 "/>
   <polygon class="fil0" points="207,120 200,120 200,119 207,119 "/>
   <path class="fil0" d="M69 139c-1,0 -2,-1 -2,-3 0,-1 1,-2 2,-2 1,0 2,1 2,2 0,2 -1,3 -2,3z"/>
   <polygon class="fil0" points="458,92 457,92 457,15 349,15 337,3 338,2 350,14 458,14 "/>
   <polygon class="fil0" points="458,136 441,136 441,135 457,135 457,120 458,120 "/>
   <polygon class="fil1" points="154,110 154,89 421,89 421,110 "/>
   <polygon class="fil0" points="154,110 154,89 288,89 288,110 "/>
   <g>
    <polygon class="fil1" points="125,124 12,124 12,11 125,11 "/>
    <g>
     <polygon class="fil0" points="3,17 0,17 0,0 17,0 17,3 3,3 "/>
     <polygon class="fil0" points="138,17 135,17 135,3 120,3 120,0 138,0 "/>
     <polygon class="fil0" points="138,137 120,137 120,134 135,134 135,120 138,120 "/>
     <polygon class="fil0" points="17,137 0,137 0,120 3,120 3,134 17,134 "/>
    </g>
    <path class="fil0" d="M72 32l9 25 35 0 -28 19 10 30 -28 -18 -28 18 10 -30 -28 -19 35 0 11 -29 2 4zm6 27l-8 -21 -9 22 -25 1 20 14 -7 23 21 -14 21 14 -7 -23 20 -14 -25 -1 -1 -1z"/>
    <path class="fil0" d="M70 61c3,0 5,1 7,3 2,2 3,4 3,7 0,3 -1,6 -3,7 -2,2 -4,4 -7,4 -3,0 -5,-2 -7,-4 -2,-1 -3,-4 -3,-7 0,-3 1,-5 3,-7 2,-2 4,-3 7,-3zm5 5c-1,-1 -3,-2 -5,-2 -2,0 -4,1 -5,2 -1,2 -2,3 -2,5 0,2 1,4 2,5 1,1 3,2 5,2 2,0 4,-1 5,-2 1,-1 2,-3 2,-5 0,-2 -1,-3 -2,-5z"/>
   </g>
   <path class="fil0" d="M154 53l2 0 0 7c1,0 2,0 2,-1 1,0 1,-1 2,-2 0,-1 0,-2 1,-2 0,-1 0,-1 1,-1 0,-1 1,-1 2,-1 0,0 1,0 1,0l0 2c0,0 0,0 -1,0 0,0 0,0 0,0 -1,0 -1,0 -1,0 -1,1 -1,1 -2,2 0,2 -1,2 -1,3 0,0 -1,0 -1,1 1,0 2,1 3,2l3 5 -3 0 -2 -4c-1,-1 -1,-2 -2,-2 0,0 -1,-1 -2,-1l0 7 -2 0 0 -15z"/>
   <path id="1" class="fil0" d="M165 68l6 -15 2 0 6 15 -2 0 -2 -4 -6 0 -2 4 -2 0zm4 -6l6 0 -2 -4c-1,-1 -1,-2 -1,-3 0,1 -1,2 -1,3l-2 4z"/>
   <polygon id="2" class="fil0" points="181,53 193,53 193,68 191,68 191,55 183,55 183,68 181,68 "/>
   <polygon id="3" class="fil0" points="196,53 198,53 198,65 206,53 208,53 208,68 206,68 206,56 198,68 196,68 "/>
   <polygon id="4" class="fil0" points="215,68 215,55 210,55 210,53 222,53 222,55 217,55 217,68 "/>
   <path id="5" class="fil0" d="M222 68l6 -15 2 0 6 15 -2 0 -2 -4 -6 0 -2 4 -2 0zm4 -6l5 0 -1 -4c-1,-1 -1,-2 -1,-3 0,1 -1,2 -1,3l-2 4z"/>
   <polygon id="6" class="fil0" points="238,68 238,53 240,53 240,59 248,59 248,53 250,53 250,68 248,68 248,61 240,61 240,68 "/>
   <path id="7" class="fil0" d="M277 60l4 1c-1,3 -2,4 -4,6 -2,1 -4,2 -6,2 -3,0 -5,-1 -6,-2 -2,-1 -3,-2 -4,-4 -1,-2 -1,-4 -1,-6 0,-3 0,-5 1,-7 1,-2 3,-3 4,-4 2,-1 4,-1 6,-1 2,0 4,0 6,2 1,1 3,2 3,5l-3 0c0,-1 -1,-3 -2,-3 -1,-1 -3,-2 -4,-2 -2,0 -3,1 -5,2 -1,1 -2,2 -2,3 -1,2 -1,3 -1,5 0,2 0,3 1,5 1,1 1,2 3,3 1,1 2,1 4,1 1,0 3,0 4,-1 1,-1 2,-3 2,-5z"/>
   <path id="8" class="fil0" d="M283 61l3 0c0,1 1,2 1,3 1,0 1,1 3,1 1,1 2,1 3,1 1,0 2,0 3,0 1,-1 2,-1 2,-2 1,-1 1,-1 1,-2 0,-1 0,-1 -1,-2 0,0 -1,-1 -2,-1 0,0 -2,-1 -4,-1 -2,-1 -4,-1 -5,-2 -1,0 -1,-1 -2,-2 -1,-1 -1,-2 -1,-3 0,-1 1,-2 1,-3 1,-1 2,-2 3,-2 1,-1 3,-1 4,-1 2,0 4,0 5,1 1,0 2,1 3,2 1,1 1,2 1,4l-3 0c0,-2 -1,-3 -1,-3 -1,-1 -3,-2 -4,-2 -2,0 -4,1 -5,2 0,0 -1,1 -1,2 0,1 0,2 1,2 1,1 2,1 5,2 2,0 4,1 5,1 1,1 2,2 3,3 1,1 1,2 1,3 0,1 -1,2 -1,3 -1,1 -2,2 -3,3 -2,1 -3,1 -5,1 -2,0 -4,0 -5,-1 -1,-1 -3,-2 -3,-3 -1,-1 -2,-2 -2,-4z"/>
   <polygon id="9" class="fil0" points="305,61 305,59 313,59 313,61 "/>
   <path id="10" class="fil0" d="M316 57c0,-3 0,-5 1,-7 0,-1 1,-3 2,-4 1,-1 3,-1 4,-1 2,0 3,0 4,1 1,0 1,1 2,2 1,1 1,2 1,3 1,2 1,4 1,6 0,3 0,5 -1,7 -1,1 -1,3 -2,3 -2,1 -3,2 -5,2 -2,0 -4,-1 -5,-3 -2,-2 -2,-5 -2,-9zm3 0c0,4 0,6 1,8 1,1 2,1 3,1 2,0 3,0 4,-1 1,-2 1,-4 1,-8 0,-4 0,-6 -1,-8 -1,-1 -2,-2 -4,-2 -1,0 -2,1 -3,2 -1,1 -1,4 -1,8z"/>
   <path id="11" class="fil0" d="M334 57c0,-3 0,-5 1,-7 0,-1 1,-3 2,-4 1,-1 3,-1 4,-1 2,0 3,0 4,1 1,0 1,1 2,2 1,1 1,2 1,3 1,2 1,4 1,6 0,3 0,5 -1,7 0,1 -1,3 -2,3 -2,1 -3,2 -5,2 -2,0 -4,-1 -5,-3 -1,-2 -2,-5 -2,-9zm3 0c0,4 0,6 1,8 1,1 2,1 3,1 2,0 3,0 4,-1 1,-2 1,-4 1,-8 0,-4 0,-6 -1,-8 -1,-1 -2,-2 -4,-2 -1,0 -2,1 -3,2 -1,1 -1,4 -1,8z"/>
  </g>
 </g>
</svg>
