<?xml version="1.0" encoding="UTF-8"?>
<!DOCTYPE svg PUBLIC "-//W3C//DTD SVG 1.1//EN" "http://www.w3.org/Graphics/SVG/1.1/DTD/svg11.dtd">
<!-- Creator: CorelDRAW X7 -->
<svg xmlns="http://www.w3.org/2000/svg" xml:space="preserve" width="189.705mm" height="63.6932mm" version="1.1" style="shape-rendering:geometricPrecision; text-rendering:geometricPrecision; image-rendering:optimizeQuality; fill-rule:evenodd; clip-rule:evenodd"
viewBox="0 0 493 165"
 xmlns:xlink="http://www.w3.org/1999/xlink">
 <defs>
  <style type="text/css">
   <![CDATA[
    .fil0 {fill:#FF6666;fill-rule:nonzero}
    .fil1 {fill:#FF6666;fill-rule:nonzero;fill-opacity:0.101961}
   ]]>
  </style>
 </defs>
 <g id="Слой_x0020_1">
  <metadata id="CorelCorpID_0Corel-Layer"/>
  <g id="_2192270632048">
   <polygon class="fil0" points="201,165 73,165 73,148 75,148 75,164 201,164 218,146 218,130 220,130 220,147 "/>
   <polygon class="fil0" points="223,130 215,130 215,129 223,129 "/>
   <path class="fil0" d="M74 150c-1,0 -2,-1 -2,-2 0,-2 1,-3 2,-3 1,0 3,1 3,3 0,1 -2,2 -3,2z"/>
   <polygon class="fil0" points="493,100 491,100 491,17 375,17 362,4 363,3 376,16 493,16 "/>
   <polygon class="fil0" points="493,147 475,147 475,146 491,146 491,130 493,130 "/>
   <polygon class="fil1" points="166,119 166,96 453,96 453,119 "/>
   <polygon class="fil0" points="166,119 166,96 295,96 295,119 "/>
   <g>
    <polygon class="fil1" points="135,135 13,135 13,13 135,13 "/>
    <polygon class="fil0" points="3,19 0,19 0,0 19,0 19,3 3,3 "/>
    <polygon class="fil0" points="148,19 145,19 145,3 130,3 130,0 148,0 "/>
    <polygon class="fil0" points="148,148 130,148 130,145 145,145 145,130 148,130 "/>
    <polygon class="fil0" points="19,148 0,148 0,130 3,130 3,145 19,145 "/>
    <g>
     <path class="fil0" d="M59 113l31 0c2,0 0,0 2,0 3,0 4,0 8,-1 2,-1 4,-2 5,-3 2,-2 3,-4 3,-6 0,-6 -5,-12 -7,-15l-1 -1 -8 -10c-7,-6 -7,-6 -6,-12 0,0 0,-1 0,-2l0 0 0 -14 3 0 0 -3 -3 0c-8,0 -20,0 -25,1l0 2 3 0 0 14c0,3 0,2 0,2 0,3 0,5 -1,6 0,1 -1,2 -3,4 0,1 -1,1 -2,3l0 0 -5 5c0,0 -1,1 -1,2 -5,5 -11,11 -10,18 0,2 0,3 1,4 1,1 2,2 3,3 1,1 3,2 6,2 2,1 5,1 7,1zm31 4l-31 0c-2,0 -5,0 -8,-1 -3,0 -6,-1 -8,-3 -1,-1 -2,-3 -3,-4 -1,-2 -2,-3 -2,-6 -1,-8 6,-15 11,-21 0,-1 1,-1 1,-2l5 -5 0 0c1,-1 2,-2 3,-3 1,-1 2,-2 2,-3 0,0 0,-2 0,-4 0,-2 0,1 0,-2l0 -10 -3 0 0 -10 2 0c2,-1 18,0 27,0 1,0 2,0 5,0l2 0 0 10 -3 0 0 10 0 0c0,1 -1,2 -1,3 0,3 0,3 6,9l0 0c3,3 6,7 9,11 3,3 8,10 8,17 0,4 -2,7 -4,9 -2,1 -5,3 -7,3 -4,2 -5,2 -9,2l0 0c-1,0 1,0 -2,0zm-21 -29c-1,1 -2,2 -2,3 0,0 0,0 0,1 0,0 1,1 1,1 1,1 2,1 3,1 1,-1 2,-2 2,-3 0,0 0,-1 0,-1 -1,-1 -1,-1 -1,-1 -1,-1 -2,-1 -3,-1zm-6 2c0,-2 1,-4 4,-5l-2 0c-2,3 -5,7 -8,12 -1,4 -3,8 -4,11l0 2 -2 -1c-1,0 -3,0 -4,-1 -1,-1 -2,-2 -2,-4l0 0c-1,-1 -1,-2 0,-4 0,-2 1,-4 3,-6 2,-3 6,-8 10,-13 4,-4 8,-9 8,-10 1,-1 1,-13 0,-18l0 -2 0 -2 17 0 0 2c0,1 0,3 0,5 0,5 0,13 0,15 1,1 2,3 3,4 1,0 1,1 1,1 1,1 1,1 1,2 1,1 3,2 4,4l2 3 -21 0c1,0 1,1 2,1 1,1 1,2 1,2 1,1 1,2 1,3 0,3 -2,5 -5,6 -3,1 -5,0 -7,-1 -1,-1 -1,-2 -2,-3 0,-1 0,-2 0,-3zm25 6c-2,1 -3,2 -3,4 0,0 0,1 0,2 0,1 0,1 1,2 1,1 3,1 5,1 1,-1 2,-1 3,-2 0,-1 0,-3 0,-4 0,0 0,0 0,0 -1,-1 -1,-2 -2,-3 -1,0 -3,-1 -4,0 0,0 0,0 0,0zm-7 4c0,-4 2,-7 6,-8 0,0 0,0 0,0 3,-1 5,0 7,1 1,1 3,3 3,5 0,0 1,0 1,0 0,3 0,5 -1,6 -1,2 -3,4 -5,4 -4,2 -7,0 -9,-2 -1,-1 -1,-2 -2,-3 0,-1 0,-2 0,-3zm-31 5c1,-3 2,-6 4,-10 3,-5 6,-10 9,-13l0 -1 23 0 0 -1c-1,0 -1,-1 -2,-1 0,-1 0,-1 -1,-2 -1,-1 -3,-3 -3,-5 -1,-2 -1,-11 -1,-16l0 -3 -9 0c0,5 1,17 0,19 -1,2 -5,7 -9,12 -4,4 -8,9 -10,12 -1,2 -2,3 -3,5 0,1 0,2 0,2 1,1 1,1 2,2 0,0 0,0 0,0z"/>
     <path class="fil0" d="M81 29c-1,0 -1,0 -1,1 -1,0 -1,1 0,2l0 0c0,1 0,1 1,1 0,1 1,1 2,0l0 0c1,0 2,-1 2,-2 0,0 0,-1 -1,-1 0,0 0,-1 0,-1 -1,-1 -2,-1 -3,0zm-5 -1c1,-1 2,-2 4,-3 3,-1 5,0 7,1 0,1 1,2 1,3 0,0 0,1 0,2 0,3 -1,5 -4,6 0,0 0,0 0,0 -2,1 -4,1 -5,0 -1,-1 -3,-2 -3,-4 0,0 0,0 0,0 -1,-2 -1,-3 0,-5z"/>
    </g>
   </g>
   <path class="fil0" d="M166 74l6 -8 -5 -8 2 0 3 4c1,1 1,1 1,2 1,-1 1,-1 2,-2l3 -4 2 0 -5 7 6 9 -3 0 -4 -6c0,0 0,0 -1,-1 0,1 0,1 0,1l-5 6 -2 0z"/>
   <polygon id="1" class="fil0" points="183,58 185,58 185,71 193,58 196,58 196,74 194,74 194,61 185,74 183,74 "/>
   <path id="2" class="fil0" d="M199 74l0 -16 3 0 4 11c1,1 1,2 1,3 0,-1 1,-2 1,-3l4 -11 3 0 0 16 -2 0 0 -14 -5 14 -2 0 -5 -14 0 14 -2 0z"/>
   <polygon id="3" class="fil0" points="218,58 220,58 220,71 229,58 231,58 231,74 229,74 229,61 220,74 218,74 "/>
   <path id="4" class="fil0" d="M235 58l2 0 0 7c1,0 2,0 2,-1 0,0 1,-1 2,-2 0,-2 0,-2 1,-3 0,0 0,-1 1,-1 1,0 1,0 2,0 1,0 1,0 1,0l0 2c0,0 0,0 0,0 -1,0 -1,0 -1,0 0,0 -1,0 -1,0 -1,0 -1,1 -2,2 0,2 -1,2 -1,3 0,0 -1,0 -1,1 1,0 2,1 3,3l3 5 -2 0 -3 -4c-1,-2 -2,-2 -2,-3 -1,0 -1,-1 -2,-1l0 8 -2 0 0 -16z"/>
   <polygon id="5" class="fil0" points="256,74 256,49 275,49 275,52 260,52 260,60 274,60 274,63 260,63 260,71 275,71 275,74 "/>
   <path id="6" class="fil0" d="M298 65l3 1c-1,3 -2,5 -4,6 -2,2 -4,3 -6,3 -3,0 -5,-1 -7,-2 -2,-1 -3,-3 -4,-5 -1,-2 -1,-4 -1,-7 0,-2 0,-4 1,-6 1,-2 3,-4 5,-5 1,-1 3,-1 6,-1 2,0 4,0 6,2 2,1 3,3 3,5l-3 1c0,-2 -1,-3 -2,-4 -1,-1 -3,-2 -4,-2 -2,0 -4,1 -5,2 -2,1 -2,2 -3,4 -1,1 -1,3 -1,4 0,3 1,4 1,6 1,2 2,3 3,4 1,0 3,1 4,1 2,0 4,-1 5,-2 1,-1 2,-3 3,-5z"/>
   <polygon id="7" class="fil0" points="303,67 303,64 313,64 313,67 "/>
   <path id="8" class="fil0" d="M327 74l-3 0 0 -19c-1,0 -2,1 -3,2 -1,0 -2,1 -3,1l0 -3c1,-1 3,-2 4,-3 2,-1 2,-2 3,-3l2 0 0 25z"/>
   <path id="9" class="fil0" d="M348 67l3 1c-1,2 -2,4 -3,5 -1,1 -3,1 -5,1 -2,0 -4,0 -6,-2 -1,-2 -2,-4 -2,-7 0,-2 0,-4 1,-5 0,-2 1,-3 3,-3 1,-1 2,-1 4,-1 2,0 4,0 5,1 1,1 2,2 2,4l-3 1c0,-1 0,-2 -1,-3 -1,-1 -2,-1 -3,-1 -1,0 -3,1 -4,2 -1,1 -1,3 -1,5 0,2 0,4 1,5 1,1 2,2 4,2 1,0 2,0 3,-1 1,-1 1,-2 2,-4z"/>
  </g>
 </g>
</svg>
