<?xml version="1.0" encoding="UTF-8"?>
<!DOCTYPE svg PUBLIC "-//W3C//DTD SVG 1.1//EN" "http://www.w3.org/Graphics/SVG/1.1/DTD/svg11.dtd">
<!-- Creator: CorelDRAW X7 -->
<svg xmlns="http://www.w3.org/2000/svg" xml:space="preserve" width="53.0434mm" height="53.0427mm" version="1.1" style="shape-rendering:geometricPrecision; text-rendering:geometricPrecision; image-rendering:optimizeQuality; fill-rule:evenodd; clip-rule:evenodd"
viewBox="0 0 129 129"
 xmlns:xlink="http://www.w3.org/1999/xlink">
 <defs>
  <style type="text/css">
   <![CDATA[
    .fil1 {fill:#FF6666}
    .fil0 {fill:#FF6666;fill-rule:nonzero}
   ]]>
  </style>
 </defs>
 <g id="Слой_x0020_1">
  <metadata id="CorelCorpID_0Corel-Layer"/>
  <g id="_2192285924592">
   <path class="fil0" d="M61 22l7 0c1,0 3,0 3,1 1,1 2,2 2,4l0 29 29 0c1,0 3,0 3,1 1,1 2,2 2,4l0 7c0,1 -1,3 -2,3 0,1 -2,2 -3,2l-29 0 0 29c0,1 -1,3 -2,3 0,1 -2,2 -3,2l-7 0c-2,0 -3,-1 -4,-2 -1,0 -1,-2 -1,-3l0 -29 -29 0c-2,0 -3,-1 -4,-2 -1,0 -1,-2 -1,-3l0 -7c0,-2 0,-3 1,-4 1,-1 2,-1 4,-1l29 0 0 -29c0,-2 0,-3 1,-4 1,-1 2,-1 4,-1zm7 4l-7 0c0,0 -1,0 -1,0 0,0 0,1 0,1l0 33 -33 0c0,0 -1,0 -1,0 0,0 0,1 0,1l0 7c0,0 0,0 0,0 0,1 1,1 1,1l33 0 0 33c0,0 0,0 0,0 0,1 1,1 1,1l7 0c0,0 0,0 0,-1 1,0 1,0 1,0l0 -33 33 0c0,0 0,0 0,-1 1,0 1,0 1,0l0 -7c0,0 0,-1 -1,-1 0,0 0,0 0,0l-33 0 0 -33c0,0 0,-1 -1,-1 0,0 0,0 0,0z"/>
   <path class="fil0" d="M64 0c18,0 34,7 46,19 11,11 19,28 19,45 0,18 -8,34 -19,46 -12,11 -28,19 -46,19 -17,0 -34,-8 -45,-19 -12,-12 -19,-28 -19,-46 0,-17 7,-34 19,-45 11,-12 28,-19 45,-19zm40 25c-10,-10 -24,-16 -40,-16 -15,0 -29,6 -39,16 -10,10 -16,24 -16,39 0,16 6,30 16,40 10,10 24,16 39,16 16,0 30,-6 40,-16 10,-10 16,-24 16,-40 0,-15 -6,-29 -16,-39z"/>
   <path class="fil1" d="M26 58l31 0 1 -32 3 -3 7 1 3 1 0 33 31 -1 0 1 3 1c0,1 0,1 0,1l0 7 -2 4c-1,0 -1,0 -1,0l-31 0 0 31 0 0 -2 3 -8 0 -3 -1 0 0 0 -4c0,0 0,-1 0,-1l0 -28 -33 0 0 -1 -2 -2c0,0 0,0 0,-1l0 -4c0,-1 0,-1 0,-2l3 -3z"/>
  </g>
 </g>
</svg>
