<?xml version="1.0" encoding="UTF-8"?>
<!DOCTYPE svg PUBLIC "-//W3C//DTD SVG 1.1//EN" "http://www.w3.org/Graphics/SVG/1.1/DTD/svg11.dtd">
<!-- Creator: CorelDRAW X7 -->
<svg xmlns="http://www.w3.org/2000/svg" xml:space="preserve" width="53.0434mm" height="53.0434mm" version="1.1" style="shape-rendering:geometricPrecision; text-rendering:geometricPrecision; image-rendering:optimizeQuality; fill-rule:evenodd; clip-rule:evenodd"
viewBox="0 0 129 129"
 xmlns:xlink="http://www.w3.org/1999/xlink">
 <defs>
  <style type="text/css">
   <![CDATA[
    .fil1 {fill:#FF6666}
    .fil0 {fill:#FF6666;fill-rule:nonzero}
   ]]>
  </style>
 </defs>
 <g id="Слой_x0020_1">
  <metadata id="CorelCorpID_0Corel-Layer"/>
  <g id="_2192261581072">
   <path class="fil0" d="M64 0c18,0 34,7 46,19 11,11 19,28 19,45 0,18 -8,34 -19,46 -12,11 -28,19 -46,19 -17,0 -34,-8 -45,-19 -12,-12 -19,-28 -19,-46 0,-17 7,-34 19,-45 11,-12 28,-19 45,-19zm40 25c-10,-10 -24,-16 -40,-16 -15,0 -29,6 -39,16 -10,10 -16,24 -16,39 0,16 6,30 16,40 10,10 24,16 39,16 16,0 30,-6 40,-16 10,-10 16,-24 16,-40 0,-15 -6,-29 -16,-39z"/>
   <g>
    <path class="fil0" d="M50 94l30 0c3,0 4,0 7,-1 2,0 4,-1 5,-2 1,-1 2,-3 2,-5 0,-5 -4,-11 -6,-14l-8 -9c-6,-6 -6,-7 -6,-12 0,-5 0,-10 0,-15l3 0 0 -2 -2 0c-7,0 -18,0 -23,0l0 2 3 0 0 15c0,3 0,4 -1,6 0,1 -1,2 -3,3l-2 3 -6 6c-4,5 -9,11 -9,17 0,1 1,2 1,3 1,1 2,2 3,3 1,1 3,2 5,2 2,0 5,0 7,0zm29 5l-29 0c-2,0 -5,0 -8,0 -3,-1 -5,-2 -7,-4 -2,-1 -3,-2 -4,-3 -2,-5 -2,-8 1,-13 5,-7 17,-16 21,-24 0,-1 0,-2 0,-4l0 -11 -6 0 0 -10 28 0 6 0 0 10 -5 0 0 11c0,2 0,3 0,4 1,3 14,17 20,25 4,5 4,10 -1,14 -2,2 -4,3 -6,4 -4,1 -5,1 -9,1l-1 0zm-20 -26c-1,0 -1,1 -1,1 0,1 0,1 0,1 0,1 0,1 0,1 1,1 2,1 3,1 0,-1 1,-1 1,-2 0,0 0,-1 0,-1 0,0 -1,-1 -1,-1 0,0 -1,-1 -2,0zm-6 1l0 0c-1,2 -3,4 -4,7 -2,3 -3,7 -4,10l0 2 -3 -1c-1,0 -2,0 -3,-1 -2,-1 -3,-2 -3,-4 0,-1 0,-2 0,-4 0,-2 1,-4 3,-6 2,-3 6,-7 9,-12 4,-4 8,-8 8,-9 0,-1 0,-12 0,-16l0 -4 16 0 0 6c0,5 0,13 1,14 0,1 1,2 2,4l1 1 1 1c1,1 2,2 4,4l2 4 -18 0 0 0c0,1 1,1 1,2 0,1 1,2 1,3 0,1 -1,1 -1,2 1,-1 3,-2 4,-3l1 0c2,-1 5,0 6,1 2,1 4,2 4,4l0 1c1,2 1,4 0,6 -1,2 -3,3 -5,4 -4,1 -7,0 -9,-2 -1,-1 -2,-2 -2,-3 0,-1 0,-3 0,-4 0,0 0,-1 0,-2 -1,1 -2,2 -3,2 -3,1 -5,0 -7,-2 -1,0 -1,-1 -2,-2 0,-1 0,-2 0,-3zm19 4c-2,1 -3,2 -3,4 0,0 0,1 1,1 0,1 0,1 0,2 1,1 3,1 4,1 1,-1 2,-1 3,-2 0,-1 0,-2 0,-3l0 0c-1,-1 -1,-2 -2,-2 -1,-1 -2,-1 -3,-1l0 0zm-31 9c1,-3 2,-6 4,-8 0,-2 1,-4 2,-5 -2,2 -3,4 -4,6 -1,1 -2,3 -3,4 0,1 0,2 0,2 1,0 1,1 1,1zm14 -22l19 0 -2 -2c-2,-2 -3,-4 -4,-6 0,-1 0,-10 0,-15l0 -2 -7 0c0,6 0,16 -1,18 0,1 -2,4 -5,7z"/>
    <path class="fil0" d="M63 47c-1,1 -1,1 -1,1l0 1 0 0c1,0 1,0 1,0 1,0 1,-1 1,-1l0 0 0 -1c-1,0 -1,0 -1,0zm-6 1c0,-2 1,-4 4,-5 2,-1 4,0 6,1 0,0 1,1 1,2 0,1 1,1 1,2 0,2 -1,4 -4,5 -2,1 -4,1 -6,-1 0,0 -1,-1 -1,-2 0,0 -1,-1 -1,-2z"/>
    <path class="fil1" d="M42 96c0,-1 0,-1 0,-1l0 -3c0,-1 -4,-4 -3,-6l7 -15 8 0c1,0 0,1 1,1l1 5c0,0 0,1 0,1l4 1 3 0c0,-1 0,-1 0,-1l2 1 2 2c1,0 1,0 1,1l1 4c1,0 1,1 1,1l3 2 0 0 4 -2c1,-1 1,-1 1,-2l0 -2c1,0 1,-1 1,-1l-1 -3c0,-1 -1,-3 -1,-3l-3 -1c-1,-1 -3,-1 -4,-1l-2 2c0,1 -1,1 -1,1l-3 -3c0,0 0,-1 0,-1l-1 -3 4 -2c1,0 5,0 5,0l4 0 0 0 0 0 2 -7 3 1c-1,2 3,4 4,6l4 5c1,0 1,1 2,1l3 4c1,0 2,3 2,5l1 3c0,1 0,1 0,2l-1 3c-1,0 -1,0 -2,0l-3 2c-1,1 -2,2 -2,2l-3 1c-1,0 -2,0 -2,1l-5 0c-1,0 -2,0 -3,0l-5 0c-1,0 -2,1 -4,1l-4 0c-1,0 -3,-1 -4,-1l-4 0c-1,0 -3,0 -4,0l-4 0 0 0 -3 -1 -2 -1 1 1 -1 0z"/>
   </g>
   <path class="fil1" d="M51 32l26 0 2 2c0,0 0,1 0,1l-2 3 -1 0 0 4c0,2 -1,2 -1,4l1 11 9 10c0,1 1,2 1,2l3 7c2,2 1,2 0,5l-6 8c-1,1 -2,3 -3,3l-9 3c-2,1 -3,0 -5,0l-24 1c-1,0 -1,-1 -2,-1l-7 -7c0,0 -1,-1 -1,-1l4 -12 3 -1 13 -17 2 -2 1 -3 -2 -11c0,0 0,-1 0,-1l-1 -3 -1 0 -2 -3c1,-1 1,-1 1,-2l1 0z"/>
  </g>
 </g>
</svg>
