<?xml version="1.0" encoding="UTF-8"?>
<!DOCTYPE svg PUBLIC "-//W3C//DTD SVG 1.1//EN" "http://www.w3.org/Graphics/SVG/1.1/DTD/svg11.dtd">
<!-- Creator: CorelDRAW X7 -->
<svg xmlns="http://www.w3.org/2000/svg" xml:space="preserve" width="53.0427mm" height="53.0434mm" version="1.1" style="shape-rendering:geometricPrecision; text-rendering:geometricPrecision; image-rendering:optimizeQuality; fill-rule:evenodd; clip-rule:evenodd"
viewBox="0 0 129 129"
 xmlns:xlink="http://www.w3.org/1999/xlink">
 <defs>
  <style type="text/css">
   <![CDATA[
    .fil1 {fill:#FF6666}
    .fil0 {fill:#FF6666;fill-rule:nonzero}
   ]]>
  </style>
 </defs>
 <g id="Слой_x0020_1">
  <metadata id="CorelCorpID_0Corel-Layer"/>
  <g id="_2192285980080">
   <path class="fil0" d="M66 26l10 25 36 0 -29 20 10 31 -29 -19 -29 19 11 -31 -29 -20 36 0 11 -31 2 6zm6 28l-8 -21 -8 22 -25 0 20 14 -8 23 21 -14 21 14 -7 -23 20 -14 -25 0 -1 -1z"/>
   <path class="fil0" d="M64 54c4,0 7,1 9,3 2,2 3,5 3,9 0,3 -1,6 -3,8 -2,2 -5,4 -9,4 -3,0 -6,-2 -8,-4 -2,-2 -4,-5 -4,-8 0,-4 2,-7 4,-9 2,-2 5,-3 8,-3zm5 7c-1,-2 -3,-3 -5,-3 -2,0 -3,1 -5,3 -1,1 -2,3 -2,5 0,2 1,3 2,5 2,1 3,2 5,2 2,0 4,-1 5,-2 2,-2 2,-3 2,-5 0,-2 0,-4 -2,-5z"/>
   <polygon class="fil0" points="60,41 64,31 68,40 64,42 64,42 "/>
   <polygon class="fil0" points="90,53 100,54 92,61 90,58 89,58 "/>
   <polygon class="fil0" points="39,58 39,58 36,61 28,55 39,54 "/>
   <polygon class="fil0" points="49,84 49,84 51,88 42,93 45,83 "/>
   <polygon class="fil0" points="83,82 86,92 77,87 79,83 79,83 "/>
   <path class="fil0" d="M64 0c18,0 34,7 46,19 11,11 19,28 19,45 0,18 -8,34 -19,46 -12,11 -28,19 -46,19 -17,0 -34,-8 -45,-19 -12,-12 -19,-28 -19,-46 0,-17 7,-34 19,-45 11,-12 28,-19 45,-19zm40 25c-10,-10 -24,-16 -40,-16 -15,0 -29,6 -39,16 -10,10 -16,24 -16,39 0,16 6,30 16,40 10,10 24,16 39,16 16,0 30,-6 40,-16 10,-10 16,-24 16,-40 0,-15 -6,-29 -16,-39z"/>
   <path class="fil1" d="M41 93l7 -23 -16 -11 1 -3 1 0 5 -3 1 0 14 0 8 -21 4 3 8 17 11 2c0,0 1,0 1,0l15 -1 -5 7 -1 -1 -15 11 9 26 -18 -11 -9 -3c-1,1 -1,0 -2,1l-19 10zm23 -38c6,0 10,4 10,10 0,5 -4,10 -10,10 -5,0 -9,-5 -9,-10 0,-6 4,-10 9,-10z"/>
  </g>
 </g>
</svg>
