<?xml version="1.0" encoding="UTF-8"?>
<!DOCTYPE svg PUBLIC "-//W3C//DTD SVG 1.1//EN" "http://www.w3.org/Graphics/SVG/1.1/DTD/svg11.dtd">
<!-- Creator: CorelDRAW X7 -->
<svg xmlns="http://www.w3.org/2000/svg" xml:space="preserve" width="53.0427mm" height="53.0434mm" version="1.1" style="shape-rendering:geometricPrecision; text-rendering:geometricPrecision; image-rendering:optimizeQuality; fill-rule:evenodd; clip-rule:evenodd"
viewBox="0 0 129 129"
 xmlns:xlink="http://www.w3.org/1999/xlink">
 <defs>
  <style type="text/css">
   <![CDATA[
    .fil1 {fill:#FF6666}
    .fil0 {fill:#FF6666;fill-rule:nonzero}
   ]]>
  </style>
 </defs>
 <g id="Слой_x0020_1">
  <metadata id="CorelCorpID_0Corel-Layer"/>
  <g id="_2192285971632">
   <path class="fil0" d="M100 48l-2 1c-4,3 -9,6 -11,5l-9 -4 0 -11 0 -1c1,0 3,-2 6,-3 2,-2 5,-4 7,-5 -1,-1 -2,-1 -5,-2 -2,0 -5,0 -8,0 -1,1 -2,1 -3,1 -5,2 -9,7 -10,11 -1,2 -1,5 -1,7 0,2 1,4 2,6 2,5 6,9 11,10 4,1 9,1 12,-1 4,-1 7,-4 9,-8 1,-1 1,-3 1,-5l1 -1zm-4 -1c1,-1 3,-2 4,-2l0 -1 1 1c1,1 2,2 2,4 -1,2 -1,5 -2,6l0 0c-2,5 -6,8 -10,10 -5,2 -10,3 -15,1 -6,-2 -11,-6 -13,-12 -1,-2 -2,-4 -2,-7 0,-3 0,-5 1,-8 2,-5 6,-10 12,-13 1,0 2,0 4,-1 2,0 6,0 9,0 3,1 6,2 7,4 0,1 0,1 0,1l0 1 0 1c-2,1 -5,3 -9,5l-4 3 0 8 8 4 7 -5z"/>
   <path class="fil0" d="M31 92c1,1 2,2 3,3 0,0 1,1 2,2 1,1 2,1 3,1 0,0 1,0 2,-1 2,-1 3,-2 4,-3l3 -3 14 -14c1,-1 3,-3 4,-4l-1 0c-1,-1 -3,-2 -5,-4 -2,-2 -3,-4 -5,-6 -1,1 -2,3 -4,4 -6,6 -12,12 -18,18 -2,2 -4,4 -2,7zm0 5c-1,-1 -1,-2 -2,-4 -4,-5 -1,-7 2,-10 6,-6 12,-12 18,-18 2,-2 4,-4 6,-6l1 -1 2 3c1,2 2,4 4,6 2,2 3,2 5,3 0,1 1,1 2,2l1 1 -1 1c-1,2 -3,4 -5,5l-14 14 -2 3c-2,2 -3,3 -5,4 -2,1 -3,1 -5,1 -1,0 -2,-1 -3,-2 -2,0 -3,-1 -4,-2zm11 -12c-1,1 -1,1 -1,1l0 1 0 0c0,1 1,1 1,1 1,0 1,-1 1,-1l0 -1 0 0c0,-1 -1,-1 -1,-1zm-4 1c0,-2 1,-3 3,-4 2,0 3,1 4,2 1,0 1,1 1,1 0,1 0,2 0,2 0,2 -1,3 -3,4 -2,0 -4,0 -4,-2 -1,0 -1,-1 -1,-1 0,-1 0,-1 0,-2z"/>
   <path class="fil0" d="M64 0c18,0 34,7 46,19 11,11 19,28 19,45 0,18 -8,34 -19,46 -12,11 -28,19 -46,19 -17,0 -34,-8 -45,-19 -12,-12 -19,-28 -19,-46 0,-17 7,-34 19,-45 11,-12 28,-19 45,-19zm40 25c-10,-10 -24,-16 -40,-16 -15,0 -29,6 -39,16 -10,10 -16,24 -16,39 0,16 6,30 16,40 10,10 24,16 39,16 16,0 30,-6 40,-16 10,-10 16,-24 16,-40 0,-15 -6,-29 -16,-39z"/>
   <polygon class="fil1" points="31,94 30,89 32,84 55,61 59,66 66,73 59,83 41,99 35,97 "/>
   <polygon class="fil1" points="62,45 64,35 70,31 84,26 92,29 91,32 80,39 79,49 87,52 87,52 89,52 101,46 101,55 89,64 74,64 64,54 "/>
  </g>
 </g>
</svg>
