<?xml version="1.0" encoding="UTF-8"?>
<!DOCTYPE svg PUBLIC "-//W3C//DTD SVG 1.1//EN" "http://www.w3.org/Graphics/SVG/1.1/DTD/svg11.dtd">
<!-- Creator: CorelDRAW X7 -->
<svg xmlns="http://www.w3.org/2000/svg" xml:space="preserve" width="53.0434mm" height="53.0434mm" version="1.1" style="shape-rendering:geometricPrecision; text-rendering:geometricPrecision; image-rendering:optimizeQuality; fill-rule:evenodd; clip-rule:evenodd"
viewBox="0 0 129 129"
 xmlns:xlink="http://www.w3.org/1999/xlink">
 <defs>
  <style type="text/css">
   <![CDATA[
    .fil1 {fill:#FF6666}
    .fil0 {fill:#FF6666;fill-rule:nonzero}
   ]]>
  </style>
 </defs>
 <g id="Слой_x0020_1">
  <metadata id="CorelCorpID_0Corel-Layer"/>
  <g id="_2192273312688">
   <path class="fil0" d="M41 37l-4 4c0,1 1,3 1,4l1 1c1,2 1,2 1,3 0,1 0,1 -1,2 0,1 0,1 -1,3 0,1 -1,2 -1,2 0,2 0,2 -2,3l-7 2 0 6 3 1c2,1 3,1 4,2l0 0c1,0 1,0 2,1 0,0 0,1 0,1l0 1c1,1 1,2 1,3 1,0 1,1 1,2l1 2 0 1c-1,1 -1,2 -2,3 0,1 -1,2 -1,3l4 5 2 -1c1,-1 3,-1 4,-2 2,-1 4,0 5,1l1 0c1,1 2,1 3,1 1,1 2,1 3,3l2 6 6 0 2 -6c1,-1 1,-1 2,-2 0,0 1,0 1,0 1,-1 1,-1 2,-1l2 -1c1,-1 2,-1 3,-1 0,0 1,0 1,0 0,0 1,0 1,0l1 0c2,1 4,2 5,3l5 -4 -1 -1c-1,-3 -3,-6 -2,-8 0,0 1,-1 1,-3 1,-2 3,-4 3,-5l0 -1 7 -3 0 -6c-2,0 -4,-1 -6,-2 -1,0 -1,0 -1,-1 -1,0 -1,-1 -1,-1l0 -1c-1,-2 -2,-3 -2,-5 -1,-1 -2,-2 -1,-3 0,-1 0,-2 1,-2 0,-1 1,-2 2,-5l-5 -4 -3 1c-1,1 -2,2 -3,2l-1 0 -1 0 -2 -1 -3 -1c-1,-1 -1,-1 -2,-1 -2,0 -2,0 -2,-2l-2 -5 -1 -2 -6 0 -2 7c0,0 0,1 -1,1 0,1 -1,1 -1,1l-1 0c-1,1 -3,1 -4,2 -1,0 -2,1 -4,1 -1,0 -2,-1 -4,-2l-3 -1zm-8 2l7 -7 1 0c1,0 3,1 5,2 1,1 2,2 3,2 0,0 0,-1 1,-1 1,-1 3,-1 5,-2 1,-3 2,-6 3,-9l13 0 0 2 1 3 2 4c0,0 1,0 2,1l3 1 1 1 2 -2c2,0 4,-1 5,-2l2 0 8 8 0 1c-2,4 -3,6 -4,7l0 1c0,0 0,0 1,1 0,1 1,2 2,5l2 1c2,1 4,1 5,2l2 0 0 13 -2 0c-2,0 -4,1 -5,2l-1 0c-1,2 -2,3 -3,5l-1 3c0,0 1,2 2,4 1,1 1,2 2,2l0 2 -8 8 -2 0c-2,-1 -5,-3 -7,-4l0 0 -2 1c-1,0 -2,1 -3,1 0,0 -1,1 -1,1l-1 2c-1,2 -2,3 -2,5l0 2 -13 0c-1,-3 -2,-6 -3,-10 0,0 0,0 0,0 -1,0 -2,0 -4,-1l-1 0c0,-1 0,-2 0,-1l-1 0 0 0c-1,0 -3,1 -4,2 -1,1 -3,1 -4,2l-1 0 -8 -8 0 -2c1,-2 2,-3 2,-5l2 -2c-1,0 -1,0 -1,-1 0,0 0,-1 -1,-2 0,-1 -1,-2 -1,-3l0 0 -3 -2c-2,0 -3,-1 -4,-1l-2 0 0 -13 9 -3c0,-1 0,-2 1,-3 1,-2 1,-3 1,-3 1,0 1,0 1,0 0,-1 0,0 -1,-1l0 -1c-1,-2 -3,-5 -3,-6l0 -1 1 -1zm62 16l0 0 0 0zm-40 -22l0 0 0 0zm9 9c6,0 12,3 16,7 4,4 6,9 6,15 0,6 -2,12 -6,16 -4,4 -10,6 -16,6 -6,0 -11,-2 -15,-6 -4,-4 -7,-10 -7,-16 0,-6 3,-11 7,-15 4,-4 9,-7 15,-7zm13 10c-3,-3 -8,-5 -13,-5 -5,0 -9,2 -12,5 -3,3 -5,7 -5,12 0,5 2,10 5,13 3,3 7,5 12,5 5,0 10,-2 13,-5 3,-3 5,-8 5,-13 0,-5 -2,-9 -5,-12z"/>
   <path class="fil0" d="M64 0c18,0 34,7 46,19 11,11 19,28 19,45 0,18 -8,34 -19,46 -12,11 -28,19 -46,19 -17,0 -34,-8 -45,-19 -12,-12 -19,-28 -19,-46 0,-17 7,-34 19,-45 11,-12 28,-19 45,-19zm40 25c-10,-10 -24,-16 -40,-16 -15,0 -29,6 -39,16 -10,10 -16,24 -16,39 0,16 6,30 16,40 10,10 24,16 39,16 16,0 30,-6 40,-16 10,-10 16,-24 16,-40 0,-15 -6,-29 -16,-39z"/>
   <path class="fil1" d="M26 69l0 -8 8 -4 4 -8 -4 -8 6 -7 8 4 1 -1 7 -2 4 -9 9 0 3 8 6 3 10 -3 6 7 -3 7 3 8 8 5 0 8 -8 4 0 1 -4 7 4 6 -6 7 -8 -3 -8 4 -4 7 -8 0 -3 -8 -9 -3 -7 3 -6 -5 3 -10 -4 -7 -8 -3zm39 -18c8,0 14,7 14,15 0,8 -6,14 -14,14 -8,0 -15,-6 -15,-14 0,-8 7,-15 15,-15z"/>
  </g>
 </g>
</svg>
