<?xml version="1.0" encoding="UTF-8"?>
<!DOCTYPE svg PUBLIC "-//W3C//DTD SVG 1.1//EN" "http://www.w3.org/Graphics/SVG/1.1/DTD/svg11.dtd">
<!-- Creator: CorelDRAW X7 -->
<svg xmlns="http://www.w3.org/2000/svg" xml:space="preserve" width="189.705mm" height="63.6932mm" version="1.1" style="shape-rendering:geometricPrecision; text-rendering:geometricPrecision; image-rendering:optimizeQuality; fill-rule:evenodd; clip-rule:evenodd"
viewBox="0 0 586 197"
 xmlns:xlink="http://www.w3.org/1999/xlink">
 <defs>
  <style type="text/css">
   <![CDATA[
    .fil0 {fill:#FF6666;fill-rule:nonzero}
    .fil1 {fill:#FF6666;fill-rule:nonzero;fill-opacity:0.101961}
   ]]>
  </style>
 </defs>
 <g id="Слой_x0020_1">
  <metadata id="CorelCorpID_0Corel-Layer"/>
  <g id="_2192459184192">
   <polygon class="fil0" points="239,197 87,197 87,176 89,176 89,195 239,195 260,174 260,154 261,154 261,175 "/>
   <polygon class="fil0" points="265,155 256,155 256,153 265,153 "/>
   <path class="fil0" d="M88 179c-1,0 -3,-2 -3,-3 0,-2 2,-3 3,-3 2,0 3,1 3,3 0,1 -1,3 -3,3z"/>
   <polygon class="fil0" points="586,118 584,118 584,21 447,21 431,5 432,4 448,19 586,19 "/>
   <polygon class="fil0" points="586,175 565,175 565,174 584,174 584,154 586,154 "/>
   <polygon class="fil1" points="197,139 197,112 539,112 539,139 "/>
   <polygon class="fil0" points="197,139 197,112 522,112 522,139 "/>
   <g>
    <polygon class="fil1" points="160,160 16,160 16,16 160,16 "/>
    <polygon class="fil0" points="3,22 0,22 0,0 22,0 22,3 3,3 "/>
    <polygon class="fil0" points="176,22 173,22 173,3 154,3 154,0 176,0 "/>
    <polygon class="fil0" points="176,176 154,176 154,173 173,173 173,154 176,154 "/>
    <polygon class="fil0" points="22,176 0,176 0,154 3,154 3,173 22,173 "/>
    <path class="fil0" d="M60 55l-6 6c1,1 2,3 2,4l1 2 0 0 0 0 0 0c1,2 1,3 1,4 0,1 0,1 -1,2 0,0 0,1 -1,3 -1,1 -1,2 -1,3 -1,2 -1,2 -3,3l0 0 -8 3 0 8c1,1 2,1 4,1 2,1 3,2 4,2l0 0c1,1 2,1 2,2 0,0 1,0 1,1 0,0 0,0 0,1 0,1 1,2 1,3 1,1 1,2 1,3l2 2 -1 1c0,2 -1,3 -2,5 -1,1 -1,2 -2,4l6 5c1,0 1,0 2,-1 2,-1 4,-2 6,-2 2,-1 4,0 5,1 1,0 1,0 1,0 2,1 3,1 4,2 2,0 2,0 3,2 1,1 1,1 1,2 0,0 0,0 0,0l2 7 8 0c1,-2 2,-4 2,-5 0,-1 1,-2 1,-3l0 0 0 0c1,-1 1,-2 2,-3 0,0 1,0 1,0 1,0 1,0 2,-1 1,0 2,0 3,-1 1,-1 3,-1 3,-2 1,0 1,0 2,0 0,0 0,0 1,1l0 0 1 0c2,1 5,3 7,3l6 -5 -1 -2c-2,-3 -4,-6 -3,-8 0,-1 1,-2 2,-4 1,-3 3,-6 3,-7l0 -1 1 0c1,0 2,-1 3,-1 1,-1 3,-1 5,-2l0 -8c-2,0 -3,-1 -4,-1 -1,-1 -2,-1 -3,-1 -1,-1 -1,-1 -1,-1 -1,0 -1,0 -2,0 0,-1 0,-1 -1,-2l0 -1c-1,-2 -2,-4 -2,-6 -1,-2 -2,-3 -1,-4 0,-1 0,-2 1,-2 1,-2 2,-3 3,-6l-6 -6c-1,0 -3,1 -4,2 -2,1 -3,1 -5,2l-1 0 -1 0c0,0 -1,-1 -2,-1 -1,-1 -2,-1 -3,-2 -2,0 -2,0 -3,-1 -2,0 -2,0 -3,-2 0,-2 -1,-4 -2,-6 0,-1 0,-1 -1,-2l-8 0 -2 7 0 0c0,0 0,1 0,1 -1,0 -1,1 -1,1 -1,1 -1,1 -2,1l0 0c-3,1 -4,2 -6,3 -1,0 -3,1 -4,1 -1,0 -3,-1 -5,-2 -2,-1 -3,-2 -4,-2zm-10 3l8 -8 2 0c1,0 4,1 6,3 1,0 3,1 3,1 0,0 1,0 2,-1 2,0 4,-1 6,-2l0 0 0 0 0 0 4 -11 15 0 0 2c1,1 1,2 2,4 0,2 1,3 2,5 0,0 0,0 0,0l-1 0c1,0 2,0 3,1 1,0 3,1 4,1 0,1 1,1 2,1 1,0 2,-1 3,-1 2,-1 4,-2 6,-3l1 0 10 10 0 1c-2,4 -3,7 -4,8 0,0 -1,1 -1,1l0 0c0,0 1,0 1,1 1,2 2,4 3,7l0 0 0 0c1,0 2,1 3,1 2,1 4,2 6,2l2 1 0 15 -2 0c-2,1 -4,2 -7,2l-1 1c-1,1 -2,4 -3,6 -1,2 -2,3 -2,3 0,1 2,3 3,5 1,2 1,3 2,3l0 2 -10 10 -1 -1c-3,-1 -7,-2 -9,-4l-1 0c0,0 -1,1 -2,1 -1,1 -3,1 -3,2 -1,0 -2,0 -3,0 0,0 0,0 0,0l0 0 0 0c0,0 1,0 0,1l0 0 0 0c0,0 0,1 0,2 -1,2 -2,5 -3,7l0 1 -15 0 -3 -9c0,-1 0,-1 -1,-1 0,0 0,-1 0,-1 0,0 0,0 0,0 -1,0 -3,0 -5,-1 0,-1 0,-1 -1,-1 0,0 0,-2 -1,-1l0 0 -1 0c-1,1 -3,2 -5,2 -1,1 -3,2 -4,2l-1 1 -10 -10 0 -2c1,-2 2,-4 3,-6 1,-1 1,-2 2,-3l-1 0 0 -1c0,0 -1,-1 -1,-2 0,-1 -1,-2 -2,-4 0,0 0,-1 0,-1 -1,0 -2,-1 -4,-1 -2,-1 -4,-2 -5,-2l-2 0 0 -15 11 -4 0 0c0,0 0,0 0,0 1,-1 1,-2 2,-4 0,-2 1,-3 1,-4 1,0 1,0 1,0 0,0 -1,0 -1,-1l0 0 0 0 0 0c0,-1 -1,-1 -1,-2 -1,-2 -2,-5 -3,-7l0 -1 1 -1zm49 69l0 0 0 0 0 0 0 0zm0 0l0 0 0 0zm0 0l0 0 0 0 0 0 0 0zm27 -49c1,0 0,0 0,0 0,0 0,0 0,0zm0 0c0,0 0,0 0,0l0 0zm-27 -27l0 0 1 0c-1,0 -1,0 -1,0zm-22 0l0 0 0 0 0 0c0,0 0,0 0,0zm0 0c0,0 0,0 0,0l0 0zm11 11c8,0 14,3 19,8 5,5 8,12 8,19 0,8 -3,14 -8,19 -5,5 -11,8 -19,8 -7,0 -14,-3 -18,-8 -5,-5 -8,-11 -8,-19 0,-7 3,-14 8,-19 4,-5 11,-8 18,-8zm16 12c-4,-4 -9,-7 -16,-7 -6,0 -11,3 -15,7 -4,4 -7,9 -7,15 0,6 3,12 7,16 4,4 9,6 15,6 7,0 12,-2 16,-6 4,-4 7,-10 7,-16 0,-6 -3,-11 -7,-15z"/>
   </g>
   <polygon class="fil0" points="197,69 200,69 200,84 210,69 213,69 213,88 210,88 210,73 200,88 197,88 "/>
   <polygon id="1" class="fil0" points="217,88 217,69 220,69 220,77 230,77 230,69 232,69 232,88 230,88 230,79 220,79 220,88 "/>
   <path id="2" class="fil0" d="M248 69l0 8c2,0 2,0 3,-1 0,0 1,-1 2,-3 0,-1 1,-2 1,-3 0,0 1,0 2,-1 0,0 1,0 2,0 1,0 1,0 1,0l0 2c0,0 0,0 0,0 0,0 -1,0 -1,0 -1,0 -1,0 -2,0 0,1 0,2 -1,3 -1,1 -1,2 -1,3 -1,0 -1,1 -2,1 1,1 2,2 3,4l5 6 -4 0 -3 -5c-1,-2 -2,-3 -2,-3 -1,-1 -2,-1 -3,-1l0 9 -2 0 0 -9c-1,0 -2,0 -3,1 0,0 -1,1 -2,3l0 0 -3 5 -3 0 4 -6c1,-2 2,-3 3,-4 0,0 -1,0 -1,-1 -1,0 -1,-1 -2,-3 -1,-1 -1,-2 -1,-3 -1,0 -1,0 -2,0l-1 0 0 -2c0,0 0,0 1,0 1,0 2,0 2,0 1,0 2,1 2,1 0,1 1,2 1,3 1,2 2,3 2,4 1,0 1,0 3,0l0 -8 2 0z"/>
   <polygon id="3" class="fil0" points="262,88 262,69 276,69 276,71 264,71 264,77 275,77 275,79 264,79 264,86 276,86 276,88 "/>
   <polygon id="4" class="fil0" points="280,88 280,69 283,69 283,77 293,77 293,69 295,69 295,88 293,88 293,79 283,79 283,88 "/>
   <polygon id="5" class="fil0" points="300,88 300,69 314,69 314,71 302,71 302,77 313,77 313,79 302,79 302,86 314,86 314,88 "/>
   <path id="6" class="fil0" d="M318 88l0 -19 7 0c1,0 2,0 3,0 1,0 2,0 3,1 0,0 1,1 1,2 0,0 1,1 1,2 0,2 -1,3 -2,4 -1,2 -3,2 -6,2l-5 0 0 8 -2 0zm2 -10l5 0c2,0 3,0 4,-1 1,-1 1,-2 1,-3 0,0 0,-1 -1,-2 0,0 -1,-1 -1,-1 -1,0 -1,0 -3,0l-5 0 0 7z"/>
   <polygon id="7" class="fil0" points="346,88 346,58 367,58 367,62 350,62 350,71 366,71 366,75 350,75 350,85 368,85 368,88 "/>
   <polygon id="8" class="fil0" points="381,88 381,62 371,62 371,58 395,58 395,62 385,62 385,88 "/>
   <polygon id="9" class="fil0" points="395,79 395,76 406,76 406,79 "/>
   <path id="10" class="fil0" d="M428 85l0 3 -19 0c0,-1 0,-2 0,-2 1,-2 1,-3 2,-4 2,-2 3,-3 5,-5 3,-3 6,-5 7,-6 1,-2 2,-3 2,-5 0,-1 -1,-2 -2,-3 -1,-1 -2,-2 -4,-2 -2,0 -3,1 -4,2 -1,1 -2,2 -2,4l-4 0c1,-3 2,-5 3,-7 2,-1 4,-2 7,-2 3,0 5,1 7,3 1,1 2,3 2,6 0,1 0,2 0,3 -1,1 -2,2 -3,4 -1,1 -3,3 -5,5 -3,2 -4,3 -5,4 0,0 -1,1 -1,2l14 0z"/>
   <path id="11" class="fil0" d="M437 88l-4 0 0 -30 4 0 0 11c1,-2 3,-3 6,-3 1,0 2,0 4,1 1,0 2,1 3,2 0,1 1,2 1,4 1,1 1,2 1,4 0,4 -1,7 -3,9 -2,2 -4,3 -6,3 -3,0 -5,-1 -6,-4l0 3zm0 -11c0,3 0,5 1,6 1,2 2,3 4,3 2,0 3,-1 5,-2 1,-2 1,-4 1,-7 0,-2 0,-5 -1,-6 -2,-1 -3,-2 -4,-2 -2,0 -3,1 -5,2 -1,2 -1,4 -1,6z"/>
  </g>
 </g>
</svg>
