<?xml version="1.0" encoding="UTF-8"?>
<!DOCTYPE svg PUBLIC "-//W3C//DTD SVG 1.1//EN" "http://www.w3.org/Graphics/SVG/1.1/DTD/svg11.dtd">
<!-- Creator: CorelDRAW X7 -->
<svg xmlns="http://www.w3.org/2000/svg" xml:space="preserve" width="189.705mm" height="63.6932mm" version="1.1" style="shape-rendering:geometricPrecision; text-rendering:geometricPrecision; image-rendering:optimizeQuality; fill-rule:evenodd; clip-rule:evenodd"
viewBox="0 0 647 217"
 xmlns:xlink="http://www.w3.org/1999/xlink">
 <defs>
  <style type="text/css">
   <![CDATA[
    .fil0 {fill:#FF6666;fill-rule:nonzero}
    .fil1 {fill:#FF6666;fill-rule:nonzero;fill-opacity:0.101961}
   ]]>
  </style>
 </defs>
 <g id="Слой_x0020_1">
  <metadata id="CorelCorpID_0Corel-Layer"/>
  <g id="_2192280585712">
   <polygon class="fil0" points="264,217 96,217 96,194 98,194 98,215 263,215 287,192 287,170 289,170 289,193 "/>
   <polygon class="fil0" points="293,171 283,171 283,169 293,169 "/>
   <path class="fil0" d="M97 197c-1,0 -3,-1 -3,-3 0,-2 2,-3 3,-3 2,0 4,1 4,3 0,2 -2,3 -4,3z"/>
   <polygon class="fil0" points="647,131 645,131 645,23 493,23 476,5 477,4 494,21 647,21 "/>
   <polygon class="fil0" points="647,194 623,194 623,192 645,192 645,170 647,170 "/>
   <polygon class="fil1" points="218,156 218,126 595,126 595,156 "/>
   <polygon class="fil0" points="218,156 218,126 369,126 369,156 "/>
   <g>
    <polygon class="fil1" points="177,177 18,177 18,18 177,18 "/>
    <polygon class="fil0" points="4,25 0,25 0,0 24,0 24,4 4,4 "/>
    <polygon class="fil0" points="195,25 191,25 191,4 170,4 170,0 195,0 "/>
    <polygon class="fil0" points="195,195 170,195 170,191 191,191 191,170 195,170 "/>
    <polygon class="fil0" points="24,195 0,195 0,170 4,170 4,191 24,191 "/>
    <path class="fil0" d="M91 48l9 0c1,0 3,0 4,1 1,2 2,3 2,5l0 34 34 0c1,0 3,0 4,1l0 0c1,2 2,3 2,5l0 8c0,2 -1,3 -2,4l0 0c-1,1 -3,2 -4,2l-34 0 0 34c0,2 -1,3 -2,4l0 0c-1,1 -3,2 -4,2l-9 0c-1,0 -3,-1 -4,-2 -1,-1 -2,-2 -2,-4l0 -34 -34 0c-1,0 -3,-1 -4,-2l0 0c-1,-1 -2,-2 -2,-4l0 -8c0,-2 1,-3 2,-5l0 0c1,-1 3,-1 4,-1l34 0 0 -34c0,-2 1,-3 2,-5l0 0c1,-1 3,-1 4,-1zm9 5l-9 0c0,0 0,0 0,0l0 0c-1,0 -1,0 -1,1l0 39 -39 0c0,0 0,0 0,0l0 0c-1,0 -1,0 -1,1l0 8c0,0 0,1 1,1l0 0c0,0 0,0 0,0l39 0 0 39c0,0 0,1 1,1 0,0 0,0 0,0l9 0c0,0 0,0 0,0l0 0c0,0 1,-1 1,-1l0 -39 39 0c0,0 0,0 0,0l0 0c0,0 1,-1 1,-1l0 -8c0,-1 -1,-1 -1,-1l0 0c0,0 0,0 0,0l-39 0 0 -39c0,-1 -1,-1 -1,-1 0,0 0,0 0,0z"/>
   </g>
   <path class="fil0" d="M218 97l0 -21 4 0 5 15c1,1 1,3 1,3 0,-1 1,-2 1,-3l6 -15 3 0 0 21 -2 0 0 -18 -7 18 -2 0 -6 -18 0 18 -3 0z"/>
   <polygon id="1" class="fil0" points="243,97 243,76 259,76 259,78 246,78 246,85 258,85 258,87 246,87 246,95 259,95 259,97 "/>
   <path id="2" class="fil0" d="M265 76l13 0 0 19 2 0 0 7 -3 0 0 -5 -14 0 0 5 -2 0 0 -7 1 0c2,-3 3,-8 3,-16l0 -3zm10 2l-7 0 0 1c0,2 0,5 -1,8 0,3 -1,6 -2,8l10 0 0 -17z"/>
   <polygon id="3" class="fil0" points="283,76 286,76 286,93 297,76 300,76 300,97 298,97 298,80 286,97 283,97 "/>
   <path id="4" class="fil0" d="M305 76l3 0 0 9c1,0 2,0 3,-1 0,0 1,-1 2,-3 0,-2 1,-3 1,-3 1,-1 1,-1 2,-2 1,0 1,0 2,0 1,0 2,0 2,0l0 2c0,0 0,0 -1,0 0,0 0,0 0,0 -1,0 -2,0 -2,1 -1,0 -1,1 -2,3 -1,2 -1,3 -2,3 0,1 -1,1 -1,1 1,1 2,2 4,4l4 7 -3 0 -4 -5c-1,-2 -2,-3 -2,-4 -1,0 -2,-1 -3,-1l0 10 -3 0 0 -21z"/>
   <path id="5" class="fil0" d="M333 97l0 -33 7 0 8 24c0,2 1,4 1,5 1,-2 1,-3 2,-6l8 -23 6 0 0 33 -4 0 0 -27 -10 27 -4 0 -9 -28 0 28 -5 0z"/>
   <path id="6" class="fil0" d="M370 87l4 -1c1,2 1,3 2,4 0,2 2,2 3,3 2,1 3,1 5,1 2,0 3,0 5,-1 1,0 2,-1 2,-2 1,-1 1,-2 1,-3 0,-1 0,-1 -1,-2 0,-1 -1,-2 -3,-2 0,-1 -2,-1 -5,-2 -3,-1 -6,-1 -7,-2 -1,-1 -2,-2 -3,-3 -1,-1 -1,-3 -1,-4 0,-2 0,-3 1,-5 1,-1 2,-2 4,-3 2,-1 4,-1 6,-1 3,0 5,0 7,1 1,1 3,2 4,4 1,1 1,3 2,5l-5 0c0,-2 -1,-4 -2,-5 -1,-1 -3,-1 -6,-1 -2,0 -4,0 -5,1 -2,1 -2,2 -2,4 0,1 0,2 1,3 1,0 3,1 7,2 3,1 6,1 7,2 2,1 3,2 4,3 1,2 1,3 1,5 0,2 0,3 -1,5 -1,2 -2,3 -4,4 -2,0 -4,1 -7,1 -3,0 -5,-1 -7,-1 -2,-1 -4,-3 -5,-4 -1,-2 -2,-4 -2,-6z"/>
   <polygon id="7" class="fil0" points="400,87 400,83 413,83 413,87 "/>
   <path id="8" class="fil0" d="M431 97l-4 0 0 -25c-1,1 -2,1 -4,2 -1,1 -3,2 -4,2l0 -3c2,-1 4,-3 6,-4 2,-2 3,-3 4,-5l2 0 0 33z"/>
   <path id="9" class="fil0" d="M458 94c-1,2 -3,3 -4,3 -1,1 -3,1 -4,1 -3,0 -5,-1 -7,-2 -1,-1 -2,-3 -2,-5 0,-1 1,-2 1,-3 1,-1 1,-2 2,-2 1,-1 2,-1 3,-2 1,0 2,0 4,0 3,-1 5,-1 7,-2 0,0 0,-1 0,-1 0,-1 0,-3 -1,-3 -1,-1 -3,-2 -5,-2 -2,0 -3,1 -4,1 -1,1 -2,2 -2,4l-4 -1c0,-1 1,-3 2,-4 1,-1 2,-2 3,-2 2,-1 4,-1 6,-1 2,0 4,0 5,1 1,0 2,1 3,2 0,0 1,1 1,2 0,1 0,2 0,4l0 5c0,4 0,6 0,7 1,1 1,2 1,3l-4 0c0,-1 -1,-2 -1,-3zm0 -9c-1,1 -4,2 -7,2 -1,0 -2,0 -3,1 -1,0 -1,0 -2,1 0,1 0,1 0,2 0,1 0,2 1,3 1,0 2,1 3,1 2,0 3,-1 5,-1 1,-1 2,-2 2,-3 1,-1 1,-2 1,-4l0 -2z"/>
  </g>
 </g>
</svg>
