<?xml version="1.0" encoding="UTF-8"?>
<!DOCTYPE svg PUBLIC "-//W3C//DTD SVG 1.1//EN" "http://www.w3.org/Graphics/SVG/1.1/DTD/svg11.dtd">
<!-- Creator: CorelDRAW X7 -->
<svg xmlns="http://www.w3.org/2000/svg" xml:space="preserve" width="189.705mm" height="63.6932mm" version="1.1" style="shape-rendering:geometricPrecision; text-rendering:geometricPrecision; image-rendering:optimizeQuality; fill-rule:evenodd; clip-rule:evenodd"
viewBox="0 0 536 180"
 xmlns:xlink="http://www.w3.org/1999/xlink">
 <defs>
  <style type="text/css">
   <![CDATA[
    .fil0 {fill:#FF6666;fill-rule:nonzero}
    .fil1 {fill:#FF6666;fill-rule:nonzero;fill-opacity:0.101961}
   ]]>
  </style>
 </defs>
 <g id="Слой_x0020_1">
  <metadata id="CorelCorpID_0Corel-Layer"/>
  <g id="_2192298719312">
   <polygon class="fil0" points="219,180 80,180 80,160 81,160 81,178 218,178 237,159 237,141 239,141 239,160 "/>
   <polygon class="fil0" points="242,142 234,142 234,140 242,140 "/>
   <path class="fil0" d="M81 163c-2,0 -3,-1 -3,-3 0,-1 1,-2 3,-2 1,0 2,1 2,2 0,2 -1,3 -2,3z"/>
   <polygon class="fil0" points="536,108 534,108 534,19 408,19 394,4 395,3 409,17 536,17 "/>
   <polygon class="fil0" points="536,160 516,160 516,159 534,159 534,141 536,141 "/>
   <polygon class="fil1" points="180,126 180,101 493,101 493,126 "/>
   <polygon class="fil0" points="180,126 180,101 337,101 337,126 "/>
   <g>
    <polygon class="fil1" points="147,147 15,147 15,15 147,15 "/>
    <polygon class="fil0" points="3,20 0,20 0,0 20,0 20,3 3,3 "/>
    <polygon class="fil0" points="161,20 158,20 158,3 141,3 141,0 161,0 "/>
    <polygon class="fil0" points="161,161 141,161 141,158 158,158 158,141 161,141 "/>
    <polygon class="fil0" points="20,161 0,161 0,141 3,141 3,158 20,158 "/>
    <path class="fil0" d="M123 65l-2 1c-4,3 -11,7 -13,6l-12 -6 0 -14 1 0c1,-1 4,-3 7,-5 3,-2 6,-4 8,-5 -1,-1 -3,-2 -5,-2 -3,-1 -7,-1 -10,0 -2,0 -3,0 -4,1 -6,3 -11,8 -12,14 -1,2 -2,5 -1,8 0,2 0,5 2,8 2,5 7,10 13,12 6,2 11,1 16,-1 4,-2 8,-6 11,-11 0,-1 1,-4 1,-6l0 0zm-4 -2c2,-2 3,-3 4,-3l2 -1 1 1c1,1 2,3 1,5 0,3 -1,7 -1,8l0 0 0 0c-3,6 -8,10 -14,13 -5,2 -12,3 -18,1 -8,-2 -13,-8 -16,-15 -2,-3 -2,-6 -3,-9 0,-3 1,-6 2,-10 2,-6 7,-13 15,-16 1,-1 2,-1 4,-1 4,-1 8,-1 12,0 4,0 8,2 9,5 0,0 0,0 0,1l0 1 -1 1c-1,1 -6,4 -10,7 -2,1 -4,3 -6,4l0 9 10 5c0,0 5,-4 9,-6z"/>
    <path class="fil0" d="M38 119c1,1 2,2 3,3 1,1 2,2 4,3 1,1 2,2 3,2 0,0 1,0 2,-1 3,-2 4,-3 6,-5 0,-1 1,-2 3,-3l19 -20c2,-1 3,-2 4,-3 1,-2 3,-3 5,-5l-1 0c-2,-1 -4,-2 -7,-5 -2,-3 -4,-5 -5,-7 -2,1 -3,3 -5,4 -1,2 -2,3 -3,3l-5 5c-2,2 -3,4 -5,5l0 0 -15 15 0 0 0 0c-3,3 -5,5 -3,9zm0 6c-1,-1 -2,-2 -3,-4 -4,-6 -2,-9 3,-14l0 0 0 0 15 -15 0 0c2,-1 3,-3 5,-5l5 -5c1,-1 2,-2 3,-3 2,-2 5,-4 7,-6l2 -3 1 3 1 2c2,3 3,4 5,7 3,2 4,3 6,4 1,1 2,1 3,2l2 1 -2 2c-2,2 -4,5 -6,7 -1,1 -3,2 -4,3l-19 20c-2,1 -3,2 -3,3 -3,2 -4,4 -7,5 -2,2 -3,2 -5,2 -2,0 -3,-1 -5,-2 -1,-1 -3,-3 -4,-4zm13 -14c-1,0 -1,1 -1,1 0,0 0,1 0,1 0,0 0,0 0,0 1,1 1,1 2,1 0,0 1,-1 1,-1 0,0 0,-1 0,-1 0,0 -1,0 -1,0 0,-1 0,-1 -1,-1zm-5 1c0,-2 1,-4 4,-5 2,-1 4,0 6,2 0,1 0,1 1,2 0,1 0,1 0,2 0,2 -2,4 -4,5 -3,1 -5,0 -6,-2 0,-1 -1,-1 -1,-2 0,-1 0,-2 0,-2z"/>
   </g>
   <polygon class="fil0" points="186,81 186,65 180,65 180,62 195,62 195,65 189,65 189,81 "/>
   <polygon id="1" class="fil0" points="197,81 197,62 210,62 210,65 200,65 200,70 210,70 210,72 200,72 200,78 211,78 211,81 "/>
   <path id="2" class="fil0" d="M212 81l7 -10 -6 -9 3 0 3 5c1,1 2,2 2,2 0,0 1,-1 1,-2l4 -5 3 0 -7 9 7 10 -3 0 -5 -7c0,0 0,-1 0,-1 -1,1 -1,1 -1,1l-5 7 -3 0z"/>
   <polygon id="3" class="fil0" points="231,81 231,62 234,62 234,70 243,70 243,62 245,62 245,81 243,81 243,72 234,72 234,81 "/>
   <polygon id="4" class="fil0" points="249,62 252,62 252,77 261,62 264,62 264,81 262,81 262,66 252,81 249,81 "/>
   <path id="5" class="fil0" d="M268 62l2 0 0 8c1,0 2,0 2,0 1,-1 1,-2 2,-3 1,-2 1,-2 1,-3 1,0 1,-1 2,-1 0,0 1,-1 2,-1 1,0 1,0 1,0l0 2c0,0 0,0 0,0 -1,0 -1,0 -1,0 0,0 -1,1 -1,1 -1,0 -1,1 -2,2 0,2 -1,3 -1,3 -1,1 -1,1 -2,1 1,1 3,2 4,3l3 7 -3 0 -3 -5c0,-2 -1,-3 -2,-3 0,-1 -1,-1 -2,-1l0 9 -2 0 0 -19z"/>
   <polygon id="6" class="fil0" points="292,81 292,53 311,53 311,56 295,56 295,65 310,65 310,68 295,68 295,77 312,77 312,81 "/>
   <path id="7" class="fil0" d="M317 81l0 -28 12 0c2,0 4,1 6,1 1,1 2,1 3,3 0,1 1,2 1,4 0,2 -1,3 -2,5 -1,1 -3,2 -6,2 1,1 2,1 2,1 1,1 2,3 3,4l5 8 -5 0 -3 -6c-1,-2 -2,-3 -3,-4 0,-1 -1,-1 -2,-2 0,0 -1,0 -1,0 -1,-1 -1,-1 -2,-1l-4 0 0 13 -4 0zm4 -16l7 0c2,0 3,0 4,0 1,-1 2,-1 2,-2 1,-1 1,-1 1,-2 0,-2 -1,-3 -1,-3 -1,-1 -3,-2 -5,-2l-8 0 0 9z"/>
   <polygon id="8" class="fil0" points="343,72 343,69 353,69 353,72 "/>
   <path id="9" class="fil0" d="M368 81l-3 0 0 -22c-1,1 -2,2 -3,3 -2,0 -3,1 -4,1l0 -3c2,-1 4,-2 5,-3 1,-1 2,-3 3,-4l2 0 0 28z"/>
   <path id="10" class="fil0" d="M391 78c-2,1 -3,2 -4,2 -1,1 -2,1 -4,1 -2,0 -4,-1 -5,-2 -1,-1 -1,-2 -1,-4 0,-1 0,-2 0,-2 1,-1 1,-2 2,-2 1,-1 1,-1 2,-1 1,-1 2,-1 3,-1 3,0 5,-1 6,-1 0,0 0,-1 0,-1 0,-1 0,-2 -1,-3 0,0 -2,-1 -3,-1 -2,0 -3,0 -4,1 -1,1 -1,2 -2,3l-3 -1c0,-1 1,-2 2,-3 0,-1 1,-1 3,-2 1,0 2,-1 4,-1 2,0 3,1 4,1 1,0 2,1 3,1 0,1 0,2 1,3 0,0 0,1 0,3l0 4c0,3 0,5 0,6 0,1 0,2 1,3l-4 0c0,-1 0,-2 0,-3zm-1 -7c-1,0 -3,1 -5,1 -2,0 -2,0 -3,1 -1,0 -1,0 -1,1 -1,0 -1,1 -1,1 0,1 0,2 1,2 1,1 2,1 3,1 1,0 3,0 4,-1 1,0 1,-1 2,-2 0,-1 0,-2 0,-3l0 -1z"/>
  </g>
 </g>
</svg>
