<?xml version="1.0" encoding="UTF-8"?>
<!DOCTYPE svg PUBLIC "-//W3C//DTD SVG 1.1//EN" "http://www.w3.org/Graphics/SVG/1.1/DTD/svg11.dtd">
<!-- Creator: CorelDRAW X7 -->
<svg xmlns="http://www.w3.org/2000/svg" xml:space="preserve" width="189.705mm" height="63.6932mm" version="1.1" style="shape-rendering:geometricPrecision; text-rendering:geometricPrecision; image-rendering:optimizeQuality; fill-rule:evenodd; clip-rule:evenodd"
viewBox="0 0 714 240"
 xmlns:xlink="http://www.w3.org/1999/xlink">
 <defs>
  <style type="text/css">
   <![CDATA[
    .fil0 {fill:#FF6666;fill-rule:nonzero}
    .fil1 {fill:#FF6666;fill-rule:nonzero;fill-opacity:0.101961}
   ]]>
  </style>
 </defs>
 <g id="Слой_x0020_1">
  <metadata id="CorelCorpID_0Corel-Layer"/>
  <g id="_2192280538128">
   <polygon class="fil0" points="292,240 106,240 106,214 109,214 109,238 291,238 317,212 317,188 319,188 319,213 "/>
   <polygon class="fil0" points="323,189 312,189 312,187 323,187 "/>
   <path class="fil0" d="M107 218c-2,0 -3,-2 -3,-4 0,-2 1,-4 3,-4 2,0 4,2 4,4 0,2 -2,4 -4,4z"/>
   <polygon class="fil0" points="714,144 712,144 712,25 545,25 525,6 527,4 545,23 714,23 "/>
   <polygon class="fil0" points="714,214 688,214 688,212 712,212 712,188 714,188 "/>
   <g>
    <polygon class="fil1" points="196,196 19,196 19,19 196,19 "/>
    <polygon class="fil0" points="4,27 0,27 0,0 27,0 27,4 4,4 "/>
    <polygon class="fil0" points="215,27 211,27 211,4 188,4 188,0 215,0 "/>
    <polygon class="fil0" points="215,215 188,215 188,211 211,211 211,188 215,188 "/>
    <polygon class="fil0" points="27,215 0,215 0,188 4,188 4,211 27,211 "/>
    <path class="fil0" d="M164 147l-77 0c-3,0 -5,-2 -5,-4 0,-3 1,-5 2,-8 0,0 0,-1 1,-1 1,1 1,1 1,2 -1,2 -2,5 -2,7 0,1 1,2 3,2l77 0c1,0 2,-1 2,-2 0,-9 -5,-17 -13,-21l-13 -6c0,0 0,0 0,0 0,-1 0,-1 0,-1 4,-4 9,-11 9,-24 0,-19 -12,-27 -24,-27 -12,0 -24,8 -24,27 0,13 5,20 9,24 0,0 0,0 0,1 0,0 0,0 0,0l-6 3c0,0 -1,0 -1,0 -1,-1 -2,-2 -3,-2l-8 -4c-1,0 -1,0 -1,-1 0,0 0,0 0,-1 4,-4 6,-9 6,-17 0,-13 -9,-20 -18,-20 -9,0 -18,7 -18,20 0,8 2,13 6,17 0,1 0,1 0,1 0,1 0,1 0,1l-8 4c-6,3 -10,9 -10,15 0,1 1,2 2,2 1,0 1,1 1,1 0,1 0,1 -1,1 -2,0 -4,-1 -4,-4 0,-7 4,-14 11,-17l7 -3c-4,-5 -6,-10 -6,-18 0,-15 10,-22 20,-22 10,0 20,7 20,22 0,8 -2,13 -5,18l6 3c1,0 3,1 4,2l4 -2c-4,-4 -9,-12 -9,-24 0,-20 13,-29 26,-29 13,0 26,9 26,29 0,12 -4,20 -8,24l11 6c8,4 14,12 14,22 0,2 -2,4 -4,4z"/>
    <path class="fil0" d="M164 149l-77 0c-2,0 -4,-1 -5,-2 -1,-1 -1,-2 -1,-4 0,-1 0,-3 0,-4 0,-2 0,-3 1,-5 0,0 1,-1 1,-1 1,0 2,-1 3,0 0,0 1,0 1,1 1,1 1,2 0,2 0,1 0,3 0,4 -1,1 -1,2 -1,3l0 0 1 0 77 0 0 0 0 0c0,-4 -1,-8 -3,-11 -2,-4 -5,-6 -9,-8l-12 -6c-1,0 -1,0 -2,-1 0,0 0,-1 0,-1 0,-1 0,-1 0,-1 0,-1 0,-1 1,-2 2,-2 4,-5 6,-9 1,-4 2,-8 2,-13 0,-8 -2,-14 -6,-19 -4,-4 -10,-6 -16,-6 -6,0 -12,2 -16,6 -3,5 -6,11 -6,19 0,6 1,11 3,14 1,4 3,7 5,8 1,1 1,1 1,2 0,0 0,0 0,1 0,0 0,1 0,1 -1,1 -1,1 -1,1l-6 3c-1,0 -1,0 -2,0 0,0 -1,0 -1,0l-2 -2 -1 0 -8 -4c-1,0 -1,-1 -1,-1 0,0 -1,-1 -1,-1 0,-1 0,-1 0,-2 0,0 1,0 1,-1 2,-2 3,-4 4,-6 1,-3 1,-6 1,-10 0,-5 -2,-10 -4,-13 -3,-3 -8,-5 -12,-5 -4,0 -8,2 -11,5 -3,3 -5,8 -5,13 0,4 1,7 2,10 1,2 2,4 3,6 1,1 1,1 1,1 0,1 0,1 0,2 0,0 0,1 0,1 -1,0 -1,1 -1,1l-8 4c-3,1 -5,3 -7,5 -1,3 -2,5 -2,8l0 0 0 1c1,0 2,0 2,0 1,1 1,2 1,2 0,1 0,2 -1,2 0,1 -1,1 -2,1 -1,0 -3,0 -4,-2 -1,-1 -2,-2 -2,-4 0,-4 1,-8 4,-11 2,-3 5,-6 8,-8l5 -2c-1,-2 -2,-4 -3,-6 -1,-3 -1,-7 -1,-11 0,-7 2,-13 5,-17 5,-4 10,-7 16,-7 6,0 12,3 16,7 1,2 2,3 3,5 1,-5 4,-10 7,-13 5,-6 13,-9 20,-9 7,0 15,3 20,9 5,5 8,12 8,22 0,5 -1,10 -3,14 -1,4 -3,7 -5,10l9 4c5,2 9,6 11,10 3,4 5,9 5,14 0,2 -1,3 -2,4 -1,1 -3,2 -4,2zm-65 -44l0 0c0,2 -1,4 -3,6l5 2 2 1 1 1 1 0c-2,-3 -4,-6 -5,-10l-1 0z"/>
   </g>
   <polygon class="fil1" points="240,169 240,136 657,136 657,169 "/>
   <polygon class="fil0" points="240,169 240,136 324,136 324,169 "/>
   <path class="fil0" d="M241 107l0 -23 8 0c2,0 3,0 4,0 1,0 2,0 3,1 1,1 1,1 2,2 0,1 1,2 1,4 0,2 -1,3 -2,5 -2,1 -4,2 -7,2l-6 0 0 9 -3 0zm3 -12l6 0c2,0 3,0 4,-1 1,-1 1,-2 1,-3 0,-1 0,-2 0,-3 -1,-1 -1,-1 -2,-1 -1,0 -2,-1 -3,-1l-6 0 0 9z"/>
   <path id="1" class="fil0" d="M258 107l9 -23 3 0 10 23 -3 0 -3 -7 -10 0 -3 7 -3 0zm7 -9l8 0 -3 -7c0,-2 -1,-4 -1,-5 -1,2 -1,3 -2,5l-2 7z"/>
   <path id="2" class="fil0" d="M283 84l15 0 0 2 -12 0 0 8 6 0c2,0 3,0 5,0 1,1 2,2 3,3 0,1 1,2 1,4 0,1 -1,2 -1,3 -1,1 -1,2 -3,2 -1,1 -2,1 -5,1l-9 0 0 -23zm3 21l6 0c2,0 3,-1 4,-1 1,-1 1,-2 1,-3 0,-1 0,-2 0,-3 -1,0 -2,-1 -2,-1 -1,0 -3,0 -5,0l-4 0 0 8z"/>
   <path id="3" class="fil0" d="M303 96c0,-4 1,-7 3,-9 2,-3 5,-4 8,-4 3,0 5,1 6,2 2,1 3,2 4,4 1,2 2,4 2,7 0,2 -1,4 -2,6 -1,2 -2,3 -4,4 -2,1 -3,2 -6,2 -2,0 -4,-1 -6,-2 -1,-1 -3,-2 -4,-4 0,-2 -1,-4 -1,-6zm3 0c0,3 1,5 3,7 1,1 3,2 5,2 3,0 5,-1 6,-2 2,-2 3,-4 3,-7 0,-2 -1,-4 -1,-5 -1,-2 -2,-3 -3,-4 -2,-1 -3,-1 -5,-1 -2,0 -4,1 -5,2 -2,2 -3,4 -3,8z"/>
   <path id="4" class="fil0" d="M346 107l-3 0 0 -9c-3,1 -5,1 -7,1 -2,0 -4,0 -5,-1 -1,0 -2,-1 -2,-3 -1,-1 -1,-2 -1,-4l0 -7 3 0 0 6c0,3 1,5 2,6 0,0 2,1 3,1 2,0 5,-1 7,-2l0 -11 3 0 0 23z"/>
   <polygon id="5" class="fil0" points="351,84 354,84 354,103 367,84 370,84 370,107 367,107 367,89 354,107 351,107 "/>
   <path id="6" class="fil0" d="M375 84l3 0 0 19 13 -19 3 0 0 23 -3 0 0 -18 -13 18 -3 0 0 -23zm12 -6l2 0c0,1 -1,2 -1,3 -1,1 -2,1 -4,1 -1,0 -2,0 -3,-1 -1,-1 -1,-2 -2,-3l2 0c1,1 1,1 1,2 1,0 1,0 2,0 1,0 2,0 2,0 1,-1 1,-1 1,-2z"/>
   <polygon id="7" class="fil0" points="411,107 411,71 416,71 435,100 435,71 440,71 440,107 435,107 416,79 416,107 "/>
   <path id="8" class="fil0" d="M448 107l0 -36 13 0c3,0 5,0 6,1 2,0 3,0 4,1 2,1 3,2 3,4 1,1 2,3 2,5 0,3 -1,5 -3,7 -2,3 -6,4 -11,4l-9 0 0 14 -5 0zm5 -19l9 0c3,0 5,0 7,-1 1,-1 2,-3 2,-5 0,-2 -1,-3 -2,-4 0,-1 -1,-2 -3,-2 0,0 -2,-1 -4,-1l-9 0 0 13z"/>
   <polygon id="9" class="fil0" points="479,97 479,92 493,92 493,97 "/>
   <path id="10" class="fil0" d="M513 107l-4 0 0 -28c-1,1 -3,2 -4,3 -2,1 -4,2 -5,2l0 -4c3,-1 5,-2 7,-4 1,-2 3,-3 4,-5l2 0 0 36z"/>
   <path id="11" class="fil0" d="M543 98l5 0c-1,3 -2,6 -4,7 -2,2 -4,3 -7,3 -4,0 -7,-1 -9,-3 -2,-3 -3,-6 -3,-11 0,-2 0,-5 1,-7 1,-2 3,-4 5,-5 1,-1 4,-1 6,-1 3,0 5,0 7,2 2,1 3,3 3,6l-4 1c0,-2 -1,-4 -2,-4 -1,-1 -3,-2 -4,-2 -2,0 -4,1 -6,3 -1,1 -2,4 -2,7 0,4 1,6 2,8 2,2 4,2 6,2 1,0 3,0 4,-1 1,-1 2,-3 2,-5z"/>
  </g>
 </g>
</svg>
