<?xml version="1.0" encoding="UTF-8"?>
<!DOCTYPE svg PUBLIC "-//W3C//DTD SVG 1.1//EN" "http://www.w3.org/Graphics/SVG/1.1/DTD/svg11.dtd">
<!-- Creator: CorelDRAW X7 -->
<svg xmlns="http://www.w3.org/2000/svg" xml:space="preserve" width="189.705mm" height="63.6932mm" version="1.1" style="shape-rendering:geometricPrecision; text-rendering:geometricPrecision; image-rendering:optimizeQuality; fill-rule:evenodd; clip-rule:evenodd"
viewBox="0 0 495 166"
 xmlns:xlink="http://www.w3.org/1999/xlink">
 <defs>
  <style type="text/css">
   <![CDATA[
    .fil2 {fill:#4CFFFF;fill-rule:nonzero}
    .fil0 {fill:#4DFFFF;fill-rule:nonzero}
    .fil1 {fill:#4DFFFF;fill-rule:nonzero;fill-opacity:0.101961}
   ]]>
  </style>
 </defs>
 <g id="Слой_x0020_1">
  <metadata id="CorelCorpID_0Corel-Layer"/>
  <g id="_2192280546992">
   <polygon class="fil0" points="202,166 74,166 74,148 75,148 75,165 201,165 219,147 219,130 221,130 221,147 "/>
   <polygon class="fil0" points="224,131 216,131 216,129 224,129 "/>
   <path class="fil0" d="M74 151c-1,0 -2,-1 -2,-3 0,-1 1,-2 2,-2 2,0 3,1 3,2 0,2 -1,3 -3,3z"/>
   <polygon class="fil0" points="495,100 493,100 493,17 377,17 364,4 365,3 378,16 495,16 "/>
   <polygon class="fil0" points="495,148 477,148 477,147 493,147 493,130 495,130 "/>
   <polygon class="fil1" points="166,120 166,97 455,97 455,120 "/>
   <polygon class="fil0" points="167,120 167,97 268,97 268,120 "/>
   <g>
    <polygon class="fil1" points="135,135 13,135 13,13 135,13 "/>
    <polygon class="fil0" points="3,19 0,19 0,0 19,0 19,3 3,3 "/>
    <polygon class="fil0" points="149,19 146,19 146,3 130,3 130,0 149,0 "/>
    <polygon class="fil0" points="149,149 130,149 130,146 146,146 146,130 149,130 "/>
    <polygon class="fil0" points="19,149 0,149 0,130 3,130 3,146 19,146 "/>
    <g>
     <path class="fil0" d="M60 113l31 0c1,0 0,0 1,0 3,0 5,0 8,-1 2,-1 4,-1 6,-3 1,-1 2,-3 2,-6 1,-5 -4,-11 -7,-15l0 0 -9 -10c-6,-7 -6,-7 -6,-12 0,-1 0,-1 0,-3l0 0 0 -14 3 0 0 -2 -3 0c-7,0 -20,0 -25,0l0 2 3 0 0 15c0,2 0,1 0,1 0,3 0,5 0,6 -1,2 -2,2 -3,4 -1,1 -2,2 -3,3l0 0 -5 5c0,1 -1,1 -1,2 -5,5 -11,12 -10,18 0,2 1,3 1,4 1,1 2,2 3,3 1,1 4,2 6,3 2,0 5,0 8,0zm31 4l-31 0c-3,0 -6,0 -9,0 -3,-1 -6,-2 -8,-4 -1,-1 -2,-2 -3,-4 -1,-1 -2,-3 -2,-5 -1,-8 6,-16 11,-22 0,0 1,-1 1,-1l5 -6 0 0c1,-1 2,-2 3,-3 1,-1 2,-2 2,-2 0,-1 0,-2 0,-5 0,-1 0,1 0,-1l0 -11 -3 0 0 -10 2 0c2,0 18,0 27,0 2,0 3,0 5,0l2 0 0 10 -3 0 0 10 0 0c0,1 0,2 0,3 0,4 0,4 5,9l0 0c3,4 6,7 9,11 3,4 9,10 8,17 0,4 -2,7 -4,9 -2,2 -4,3 -7,4 -4,1 -5,1 -9,1l0 0c0,0 1,0 -1,0zm-22 -29c-1,1 -2,2 -2,3 0,0 0,1 0,1 1,1 1,1 1,1 1,1 2,2 3,1 2,0 2,-1 2,-3 0,0 0,0 0,-1 0,0 0,-1 -1,-1 0,-1 -1,-1 -3,-1zm-6 3c0,-2 2,-5 4,-6l-1 0c-3,3 -6,8 -8,13 -2,3 -4,7 -4,10l-1 2 -2 0c-1,0 -2,-1 -3,-2 -2,-1 -3,-2 -3,-3l0 0c-1,-2 0,-3 0,-4 0,-3 2,-5 3,-7 2,-3 6,-8 10,-12 4,-5 8,-10 9,-11 0,-1 0,-13 0,-18l0 -2 0 -2 16 0 0 2c0,1 0,3 0,5 0,5 0,14 1,15 0,1 1,3 2,4 1,1 1,1 2,2 0,0 0,0 1,1 1,1 2,2 3,4l2 3 -20 0c0,0 1,1 1,1 1,1 1,2 2,3 0,1 0,2 0,3 0,2 -1,5 -4,6 -3,1 -6,0 -8,-2 0,-1 -1,-2 -1,-2 -1,-1 -1,-2 -1,-3zm25 5c-2,1 -3,3 -3,4 0,1 0,2 0,2 0,1 1,2 1,2 1,1 3,2 5,1 1,0 2,-1 3,-2 0,-1 1,-2 0,-4 0,0 0,0 0,0 0,-1 -1,-2 -2,-2 -1,-1 -2,-1 -3,-1 -1,0 -1,0 -1,0zm-7 4c0,-3 2,-6 6,-7 0,-1 0,-1 1,-1 2,0 4,0 6,1 2,1 3,3 4,5 0,0 0,0 0,0 1,3 0,5 -1,7 -1,2 -3,3 -5,4 -4,1 -7,0 -9,-2 -1,-1 -1,-2 -2,-3 0,-2 0,-3 0,-4zm-31 5c1,-3 3,-6 4,-9 3,-6 7,-11 9,-14l1 -1 23 0 -1 0c-1,-1 -1,-2 -2,-2 0,0 0,-1 -1,-1 -1,-2 -3,-4 -3,-6 -1,-2 -1,-10 0,-16l0 -3 -9 0c0,6 0,17 -1,20 0,1 -5,6 -9,11 -4,5 -8,9 -10,12 -1,2 -2,4 -2,5 -1,1 -1,2 0,3 0,0 0,1 1,1 0,0 0,0 0,0z"/>
     <path class="fil0" d="M81 29c0,0 -1,0 -1,1 0,1 0,1 0,2l0 0c0,1 1,1 1,1 1,1 1,1 2,1l0 -1c1,0 2,-1 2,-2 0,0 0,-1 0,-1 0,0 -1,-1 -1,-1 0,-1 -1,-1 -3,0zm-5 -1c1,-1 2,-2 4,-3 3,-1 5,0 7,1 1,1 1,2 1,3 1,1 1,1 1,2 0,3 -1,5 -4,6 0,0 0,0 -1,0 -2,1 -3,1 -5,0 -1,-1 -2,-2 -3,-4 0,0 0,0 0,0 0,-1 0,-3 0,-5z"/>
    </g>
   </g>
   <path class="fil2" d="M166 74l7 -8 -6 -8 3 0 3 4c0,1 1,2 1,2 1,0 1,-1 1,-2l4 -4 2 0 -6 8 7 8 -3 0 -4 -5c0,-1 -1,-1 -1,-1 0,0 -1,0 -1,1l-4 5 -3 0z"/>
   <polygon id="1" class="fil2" points="184,58 186,58 186,71 194,58 196,58 196,74 194,74 194,61 186,74 184,74 "/>
   <path id="2" class="fil2" d="M200 74l0 -16 3 0 4 12c1,1 1,1 1,2 0,-1 0,-1 1,-3l4 -11 3 0 0 16 -2 0 0 -13 -5 13 -2 0 -5 -14 0 14 -2 0z"/>
   <polygon id="3" class="fil2" points="219,58 221,58 221,71 230,58 232,58 232,74 230,74 230,61 221,74 219,74 "/>
   <path id="4" class="fil2" d="M236 58l2 0 0 7c1,0 2,0 2,0 0,-1 1,-2 2,-3 0,-1 0,-2 1,-3 0,0 0,0 1,-1 1,0 1,0 2,0 1,0 1,0 1,0l0 2c0,0 0,0 0,0 -1,0 -1,0 -1,0 0,0 -1,0 -1,0 -1,1 -1,1 -1,2 -1,2 -2,3 -2,3 0,0 -1,1 -1,1 1,0 2,1 3,3l3 5 -2 0 -3 -4c-1,-1 -2,-2 -2,-3 -1,0 -1,0 -2,0l0 7 -2 0 0 -16z"/>
   <polygon id="5" class="fil2" points="258,74 258,49 276,49 276,52 261,52 261,60 275,60 275,63 261,63 261,71 276,71 276,74 "/>
   <path id="6" class="fil2" d="M299 66l3 0c-1,3 -2,5 -4,7 -1,1 -4,2 -6,2 -3,0 -5,-1 -7,-2 -2,-1 -3,-3 -4,-5 -1,-2 -1,-4 -1,-6 0,-3 0,-5 1,-7 1,-2 3,-4 5,-5 2,-1 4,-1 6,-1 2,0 4,0 6,2 2,1 3,3 4,5l-4 1c0,-2 -1,-3 -2,-4 -1,-1 -3,-1 -4,-1 -2,0 -4,0 -5,1 -1,1 -2,2 -3,4 0,1 -1,3 -1,5 0,2 1,4 1,5 1,2 2,3 3,4 2,1 3,1 4,1 2,0 4,-1 5,-2 1,-1 2,-2 3,-4z"/>
   <polygon id="7" class="fil2" points="305,67 305,64 314,64 314,67 "/>
   <path id="8" class="fil2" d="M328 74l-3 0 0 -19c-1,0 -1,1 -3,2 -1,1 -2,1 -3,1l0 -3c2,0 3,-1 5,-3 1,-1 2,-2 2,-3l2 0 0 25z"/>
   <path id="9" class="fil2" d="M349 72c-1,1 -2,2 -3,2 -1,1 -2,1 -4,1 -2,0 -3,-1 -4,-2 -1,-1 -2,-2 -2,-3 0,-1 0,-2 1,-3 0,-1 1,-1 1,-2 1,0 2,0 2,-1 1,0 2,0 3,0 3,0 5,-1 6,-1 0,-1 0,-1 0,-1 0,-1 -1,-2 -1,-3 -1,0 -2,-1 -4,-1 -1,0 -2,1 -3,1 -1,1 -1,2 -1,3l-3 -1c0,-1 0,-2 1,-3 1,-1 1,-1 3,-2 1,0 2,0 4,0 1,0 3,0 4,0 1,1 1,1 2,2 0,0 1,1 1,2 0,0 0,1 0,3l0 4c0,3 0,4 0,5 0,1 0,2 1,2l-3 0c-1,0 -1,-1 -1,-2zm0 -7c-1,1 -3,1 -5,1 -2,1 -2,1 -3,1 -1,0 -1,1 -1,1 0,0 -1,1 -1,1 0,1 1,2 1,3 1,0 2,0 3,0 1,0 2,0 3,0 1,-1 2,-2 2,-3 1,0 1,-1 1,-3l0 -1z"/>
  </g>
 </g>
</svg>
