<?xml version="1.0" encoding="UTF-8"?>
<!DOCTYPE svg PUBLIC "-//W3C//DTD SVG 1.1//EN" "http://www.w3.org/Graphics/SVG/1.1/DTD/svg11.dtd">
<!-- Creator: CorelDRAW X7 -->
<svg xmlns="http://www.w3.org/2000/svg" xml:space="preserve" width="189.705mm" height="63.6932mm" version="1.1" style="shape-rendering:geometricPrecision; text-rendering:geometricPrecision; image-rendering:optimizeQuality; fill-rule:evenodd; clip-rule:evenodd"
viewBox="0 0 586 197"
 xmlns:xlink="http://www.w3.org/1999/xlink">
 <defs>
  <style type="text/css">
   <![CDATA[
    .fil2 {fill:#4CFFFF;fill-rule:nonzero}
    .fil0 {fill:#4DFFFF;fill-rule:nonzero}
    .fil1 {fill:#4DFFFF;fill-rule:nonzero;fill-opacity:0.101961}
   ]]>
  </style>
 </defs>
 <g id="Слой_x0020_1">
  <metadata id="CorelCorpID_0Corel-Layer"/>
  <g id="_2192261578576">
   <polygon class="fil0" points="239,197 87,197 87,175 89,175 89,195 239,195 260,174 260,154 261,154 261,175 "/>
   <polygon class="fil0" points="265,155 256,155 256,153 265,153 "/>
   <path class="fil0" d="M88 178c-2,0 -3,-1 -3,-3 0,-1 1,-2 3,-2 2,0 3,1 3,2 0,2 -1,3 -3,3z"/>
   <polygon class="fil0" points="586,118 584,118 584,21 446,21 431,5 432,4 447,19 586,19 "/>
   <polygon class="fil0" points="586,175 564,175 564,174 584,174 584,154 586,154 "/>
   <polygon class="fil1" points="197,139 197,112 539,112 539,139 "/>
   <polygon class="fil0" points="197,139 197,112 487,112 487,139 "/>
   <g>
    <polygon class="fil1" points="160,160 16,160 16,16 160,16 "/>
    <polygon class="fil0" points="3,22 0,22 0,0 22,0 22,3 3,3 "/>
    <polygon class="fil0" points="176,22 173,22 173,3 154,3 154,0 176,0 "/>
    <polygon class="fil0" points="176,176 154,176 154,173 173,173 173,154 176,154 "/>
    <polygon class="fil0" points="22,176 0,176 0,154 3,154 3,173 22,173 "/>
    <path class="fil0" d="M60 55l-6 5c1,2 2,4 2,5l1 2 0 0 0 0 0 0c1,2 1,3 1,4 0,0 0,1 -1,2 0,0 0,1 -1,3 -1,1 -1,2 -1,3 -1,2 -1,2 -3,3l0 0 -8 3 0 8c1,0 2,1 4,1 1,1 3,2 4,2l0 0c1,1 2,1 2,1 0,1 0,1 1,2 0,0 0,0 0,1 0,1 1,2 1,3 1,1 1,2 1,3l2 2 -1 1c0,1 -1,3 -2,4 -1,2 -1,3 -2,5l6 5c1,0 1,0 2,-1 2,-1 4,-2 6,-2 2,-1 4,0 5,1 1,0 1,0 1,0 2,1 3,1 4,1 2,1 2,1 3,3 1,1 1,1 1,1 0,1 0,1 0,1l2 7 8 0c1,-2 1,-4 2,-6 0,0 1,-1 1,-2l0 0 0 0c1,-2 1,-2 2,-3 0,0 1,0 1,0 1,0 1,0 2,-1 1,0 2,-1 3,-1 1,-1 3,-1 3,-2 1,0 1,0 2,0 0,0 0,0 1,0l0 1 1 0c2,1 5,2 7,3l6 -5 -1 -2c-2,-3 -4,-6 -3,-8 0,-1 1,-2 2,-4 1,-3 2,-6 3,-7l0 -1 1 0c1,-1 2,-1 3,-1 1,-1 3,-1 5,-2l0 -8c-2,0 -3,-1 -5,-1 0,-1 -1,-1 -3,-1 0,-1 0,-1 0,-1 -1,0 -1,0 -2,0 0,-1 -1,-2 -1,-3l0 0c-1,-3 -2,-4 -2,-6 -1,-2 -2,-3 -1,-4 0,-1 0,-2 1,-2 0,-2 1,-3 3,-6l-6 -6c-1,0 -3,1 -4,2 -2,1 -3,1 -5,2l-1 0 -1 0c0,-1 -1,-1 -2,-1 -1,-1 -3,-1 -3,-2 -2,0 -2,0 -3,-1 -2,0 -2,0 -3,-2 0,-2 -1,-4 -2,-6 0,-1 0,-1 -1,-2l-8 0 -2 7 0 0c0,0 0,1 0,1 -1,0 -1,1 -1,1 -1,1 -1,1 -2,1l0 0c-3,1 -4,2 -6,3 -1,0 -3,1 -4,1 -1,0 -3,-1 -6,-2 -1,-1 -2,-2 -3,-2zm-10 3l8 -8 2 0c1,0 3,1 6,3 1,0 3,1 3,1 0,0 1,0 2,-1 2,0 4,-1 6,-2l0 0 0 0 0 0 4 -11 15 0 0 2c1,1 1,2 2,4 0,2 1,3 1,5 0,0 0,0 0,0l0 0c1,0 2,0 3,1 1,0 2,1 4,1 0,1 1,1 1,1 1,0 2,-1 3,-1 3,-1 5,-2 7,-3l1 -1 10 10 -1 2c-1,4 -2,6 -3,8 -1,0 -1,1 -1,1l0 0c0,0 0,0 1,1 1,2 1,4 2,7l0 0 1 0c1,0 2,1 3,1 2,1 4,2 6,2l1 1 0 15 -1 0c-2,1 -5,1 -7,2l-1 1c-1,1 -2,4 -3,6 -1,1 -2,3 -2,3 0,1 2,3 3,5 1,1 1,3 1,3l1 2 -10 10 -1 -1c-3,-1 -7,-3 -9,-4l-1 0c0,0 -1,1 -2,1 -1,1 -3,1 -3,2 -1,0 -2,0 -3,0 0,0 0,0 0,0l0 0 0 0c0,0 0,0 0,0l0 0 0 0c0,1 0,2 -1,3 0,2 -1,5 -2,6l0 2 -15 0 -3 -10c0,0 0,0 -1,0 0,0 0,-1 0,-1 0,0 0,0 0,0 -1,0 -3,-1 -5,-2 0,0 -1,0 -1,0 -1,-1 0,-2 -1,-1l0 0 -1 0c-1,0 -3,1 -5,2 -1,1 -3,2 -4,2l-1 1 -10 -10 0 -2c1,-2 2,-4 3,-6 0,-1 1,-2 1,-3l0 0 0 -1c0,0 -1,-1 -1,-2 -1,-1 -1,-3 -2,-4 0,0 0,-1 0,-1 -1,0 -2,-1 -4,-1 -2,-1 -4,-2 -5,-2l-2 0 0 -15 11 -4 0 0c0,0 0,0 0,0 1,-1 1,-2 2,-4 0,-2 1,-3 1,-4 1,0 1,0 1,0 0,0 -1,0 -1,-1l0 0 0 0 0 0c0,-1 -1,-1 -1,-2 -1,-2 -3,-5 -3,-7l0 -1 1 -1zm49 69l0 0 0 0 0 0 0 0zm0 0l0 0 0 0zm0 0l0 0 0 0 0 0 0 0zm27 -49c0,0 0,0 0,0 0,0 0,0 0,0zm0 0c0,0 0,0 0,0l0 0zm-27 -27l0 0 0 0c0,0 0,0 0,0zm-22 0l0 0 0 0 0 0c0,0 0,0 0,0zm0 0c0,0 0,0 0,0l0 0zm11 11c8,0 14,3 19,8 5,5 8,12 8,19 0,7 -3,14 -8,19 -5,5 -11,8 -19,8 -7,0 -14,-3 -19,-8 -4,-5 -7,-12 -7,-19 0,-7 3,-14 7,-19 5,-5 12,-8 19,-8zm16 11c-4,-4 -10,-6 -16,-6 -6,0 -11,2 -15,6 -4,4 -7,10 -7,16 0,6 3,12 7,16 4,4 9,6 15,6 6,0 12,-2 16,-6 4,-4 6,-10 6,-16 0,-6 -2,-12 -6,-16z"/>
   </g>
   <polygon class="fil2" points="197,69 200,69 200,84 210,69 212,69 212,88 210,88 210,73 200,88 197,88 "/>
   <polygon id="1" class="fil2" points="217,88 217,69 219,69 219,77 229,77 229,69 232,69 232,88 229,88 229,79 219,79 219,88 "/>
   <path id="2" class="fil2" d="M248 69l0 8c1,0 2,0 3,-1 0,0 1,-1 2,-3 0,-1 1,-2 1,-3 0,0 1,-1 1,-1 1,0 2,0 3,0 0,0 1,0 1,0l0 2c0,0 0,0 0,0 -1,0 -1,0 -1,0 -1,0 -1,0 -2,0 0,1 -1,2 -1,3 -1,1 -1,2 -2,3 0,0 -1,1 -1,1 1,0 2,2 3,4l4 6 -3 0 -3 -5c-1,-2 -2,-3 -2,-3 -1,-1 -2,-1 -3,-1l0 9 -3 0 0 -9c0,0 -1,0 -2,1 0,0 -1,1 -2,3l0 0 -3 5 -4 0 4 -6c2,-2 3,-4 4,-4 -1,0 -1,-1 -2,-1 0,0 -1,-2 -1,-3 -1,-1 -1,-2 -2,-3 0,0 -1,0 -1,0l-1 0 0 -2c0,0 0,0 1,0 1,0 2,0 2,0 1,0 1,1 2,1 0,1 1,2 1,3 1,2 1,3 2,3 0,1 1,1 2,1l0 -8 3 0z"/>
   <polygon id="3" class="fil2" points="262,88 262,69 276,69 276,71 264,71 264,77 275,77 275,79 264,79 264,86 276,86 276,88 "/>
   <polygon id="4" class="fil2" points="280,88 280,69 282,69 282,77 292,77 292,69 295,69 295,88 292,88 292,79 282,79 282,88 "/>
   <polygon id="5" class="fil2" points="299,88 299,69 313,69 313,71 302,71 302,77 313,77 313,79 302,79 302,86 314,86 314,88 "/>
   <path id="6" class="fil2" d="M317 88l0 -19 8 0c1,0 2,0 3,0 1,0 2,0 2,1 1,0 1,1 2,2 0,0 0,1 0,2 0,2 0,3 -1,4 -1,2 -3,2 -6,2l-5 0 0 8 -3 0zm3 -10l5 0c2,0 3,0 4,-1 0,-1 1,-2 1,-3 0,-1 -1,-1 -1,-2 0,0 -1,-1 -2,-1 0,0 -1,0 -2,0l-5 0 0 7z"/>
   <polygon id="7" class="fil2" points="346,88 346,58 367,58 367,62 350,62 350,71 366,71 366,74 350,74 350,85 368,85 368,88 "/>
   <polygon id="8" class="fil2" points="381,88 381,62 371,62 371,58 395,58 395,62 385,62 385,88 "/>
   <polygon id="9" class="fil2" points="394,79 394,75 406,75 406,79 "/>
   <path id="10" class="fil2" d="M423 88l-4 0 0 -23c-1,1 -2,1 -4,2 -1,1 -2,2 -3,2l0 -3c2,-1 3,-2 5,-4 1,-1 3,-3 3,-4l3 0 0 30z"/>
   <path id="11" class="fil2" d="M447 80l4 1c-1,2 -2,4 -3,5 -2,2 -4,3 -6,3 -3,0 -6,-1 -7,-3 -2,-2 -3,-5 -3,-9 0,-2 0,-4 1,-6 1,-1 2,-3 4,-4 1,-1 3,-1 5,-1 2,0 4,1 5,2 2,1 3,3 3,5l-3 0c-1,-1 -1,-2 -2,-3 -1,-1 -2,-1 -3,-1 -2,0 -4,1 -5,2 -1,1 -1,3 -1,6 0,3 0,5 1,7 1,1 3,2 5,2 1,0 2,-1 3,-2 1,-1 2,-2 2,-4z"/>
  </g>
 </g>
</svg>
