<?xml version="1.0" encoding="UTF-8"?>
<!DOCTYPE svg PUBLIC "-//W3C//DTD SVG 1.1//EN" "http://www.w3.org/Graphics/SVG/1.1/DTD/svg11.dtd">
<!-- Creator: CorelDRAW X7 -->
<svg xmlns="http://www.w3.org/2000/svg" xml:space="preserve" width="189.705mm" height="63.6932mm" version="1.1" style="shape-rendering:geometricPrecision; text-rendering:geometricPrecision; image-rendering:optimizeQuality; fill-rule:evenodd; clip-rule:evenodd"
viewBox="0 0 645 216"
 xmlns:xlink="http://www.w3.org/1999/xlink">
 <defs>
  <style type="text/css">
   <![CDATA[
    .fil2 {fill:#4CFFFF;fill-rule:nonzero}
    .fil0 {fill:#4DFFFF;fill-rule:nonzero}
    .fil1 {fill:#4DFFFF;fill-rule:nonzero;fill-opacity:0.101961}
   ]]>
  </style>
 </defs>
 <g id="Слой_x0020_1">
  <metadata id="CorelCorpID_0Corel-Layer"/>
  <g id="_2192280583568">
   <polygon class="fil0" points="263,216 96,216 96,193 98,193 98,215 262,215 286,191 286,170 287,170 287,192 "/>
   <polygon class="fil0" points="291,170 282,170 282,169 291,169 "/>
   <path class="fil0" d="M97 196c-2,0 -3,-1 -3,-3 0,-2 1,-3 3,-3 2,0 3,1 3,3 0,2 -1,3 -3,3z"/>
   <polygon class="fil0" points="645,130 643,130 643,23 491,23 474,5 475,4 492,21 645,21 "/>
   <polygon class="fil0" points="645,193 621,193 621,191 643,191 643,170 645,170 "/>
   <polygon class="fil1" points="218,155 218,125 594,125 594,155 "/>
   <polygon class="fil0" points="218,155 218,125 406,125 406,155 "/>
   <g>
    <polygon class="fil1" points="176,176 18,176 18,18 176,18 "/>
    <polygon class="fil0" points="4,24 0,24 0,0 24,0 24,4 4,4 "/>
    <polygon class="fil0" points="194,24 190,24 190,4 170,4 170,0 194,0 "/>
    <polygon class="fil0" points="194,194 170,194 170,190 190,190 190,170 194,170 "/>
    <polygon class="fil0" points="24,194 0,194 0,170 4,170 4,190 24,190 "/>
    <path class="fil0" d="M91 47l8 0c2,0 3,1 4,2 2,1 2,3 2,5l0 33 34 0c2,0 3,1 4,2l0 0c1,1 2,3 2,4l0 9c0,1 -1,3 -2,4l0 0c-1,1 -2,2 -4,2l-34 0 0 33c0,2 0,4 -2,5l0 0c-1,1 -2,2 -4,2l-8 0c-2,0 -3,-1 -4,-2 -1,-1 -2,-3 -2,-5l0 -33 -34 0c-2,0 -3,-1 -4,-2l0 0c-1,-1 -2,-3 -2,-4l0 -9c0,-1 1,-3 2,-4l0 0c1,-1 2,-2 4,-2l34 0 0 -33c0,-2 1,-4 2,-5l0 0c1,-1 2,-2 4,-2zm8 6l-8 0c0,0 -1,0 -1,0l0 0c0,0 0,0 0,1l0 38 -39 0c0,0 0,0 -1,1l0 0c0,0 0,0 0,0l0 9c0,0 0,0 0,0l0 0c1,1 1,1 1,1l39 0 0 38c0,1 0,1 0,1 0,0 1,0 1,0l8 0c0,0 1,0 1,0l0 0c0,0 0,0 0,-1l0 -38 39 0c0,0 1,0 1,-1l0 0c0,0 0,0 0,0l0 -9c0,0 0,0 0,0l0 0c0,-1 -1,-1 -1,-1l-39 0 0 -38c0,-1 0,-1 0,-1 0,0 -1,0 -1,0z"/>
   </g>
   <path class="fil2" d="M218 97l0 -21 5 0 5 15c0,1 0,2 1,3 0,-1 0,-2 1,-4l5 -14 4 0 0 21 -3 0 0 -18 -6 18 -3 0 -6 -18 0 18 -3 0z"/>
   <polygon id="1" class="fil2" points="243,97 243,76 259,76 259,78 246,78 246,85 258,85 258,87 246,87 246,94 259,94 259,97 "/>
   <path id="2" class="fil2" d="M265 76l13 0 0 18 2 0 0 8 -2 0 0 -5 -14 0 0 5 -3 0 0 -8 2 0c1,-2 2,-7 2,-15l0 -3zm11 2l-8 0 0 1c0,2 0,4 0,8 -1,3 -1,5 -2,7l10 0 0 -16z"/>
   <polygon id="3" class="fil2" points="284,76 286,76 286,93 298,76 301,76 301,97 298,97 298,80 287,97 284,97 "/>
   <path id="4" class="fil2" d="M305 76l3 0 0 9c1,0 2,0 3,-1 0,0 1,-2 2,-3 0,-2 1,-3 1,-3 1,-1 1,-2 2,-2 1,0 1,-1 2,-1 1,0 2,0 2,1l0 2c0,0 0,0 -1,0 0,0 0,0 0,0 -1,0 -2,0 -2,1 -1,0 -1,1 -2,2 0,2 -1,3 -1,4 -1,0 -2,1 -2,1 1,0 2,2 4,4l4 7 -3 0 -4 -6c-1,-1 -2,-3 -2,-3 -1,-1 -2,-1 -3,-1l0 10 -3 0 0 -21z"/>
   <path id="5" class="fil2" d="M333 97l0 -33 7 0 8 23c0,3 1,4 1,5 1,-1 1,-3 2,-5l8 -23 6 0 0 33 -4 0 0 -27 -10 27 -4 0 -9 -28 0 28 -5 0z"/>
   <path id="6" class="fil2" d="M370 86l4 0c1,2 1,3 2,4 0,1 1,2 3,3 1,0 3,1 5,1 2,0 3,-1 4,-1 2,-1 3,-1 3,-2 1,-1 1,-2 1,-3 0,-1 0,-2 -1,-3 0,0 -1,-1 -3,-2 -1,0 -3,0 -6,-1 -3,-1 -5,-2 -6,-2 -1,-1 -3,-2 -3,-3 -1,-1 -2,-3 -2,-4 0,-2 1,-4 2,-5 1,-1 2,-2 4,-3 2,-1 4,-1 6,-1 2,0 5,0 6,1 2,1 4,2 5,3 1,2 1,4 1,5l-4 1c0,-2 -1,-4 -2,-5 -1,-1 -3,-2 -6,-2 -2,0 -4,1 -6,2 -1,1 -1,2 -1,3 0,2 0,3 1,3 1,1 3,2 6,3 4,0 6,1 8,2 2,1 3,2 4,3 1,1 1,3 1,5 0,1 0,3 -1,5 -1,1 -3,2 -4,3 -2,1 -4,2 -7,2 -3,0 -5,-1 -7,-2 -2,-1 -4,-2 -5,-4 -1,-1 -2,-3 -2,-6z"/>
   <polygon id="7" class="fil2" points="400,87 400,83 413,83 413,87 "/>
   <path id="8" class="fil2" d="M431 97l-4 0 0 -26c-1,1 -2,2 -4,3 -1,1 -3,2 -4,2l0 -4c2,-1 4,-2 6,-4 1,-1 3,-3 3,-4l3 0 0 33z"/>
   <path id="9" class="fil2" d="M458 88l4 1c-1,3 -2,5 -3,6 -2,2 -4,2 -7,2 -3,0 -6,-1 -8,-3 -2,-2 -3,-5 -3,-9 0,-2 1,-5 1,-7 1,-1 3,-3 4,-4 2,-1 4,-1 6,-1 3,0 5,0 6,2 2,1 3,3 3,5l-3 1c-1,-2 -1,-3 -2,-4 -1,-1 -2,-1 -4,-1 -2,0 -4,1 -5,2 -1,2 -2,4 -2,7 0,3 1,6 2,7 1,1 3,2 5,2 2,0 3,0 4,-1 1,-1 2,-3 2,-5z"/>
  </g>
 </g>
</svg>
