<?xml version="1.0" encoding="UTF-8"?>
<!DOCTYPE svg PUBLIC "-//W3C//DTD SVG 1.1//EN" "http://www.w3.org/Graphics/SVG/1.1/DTD/svg11.dtd">
<!-- Creator: CorelDRAW X7 -->
<svg xmlns="http://www.w3.org/2000/svg" xml:space="preserve" width="189.705mm" height="63.6932mm" version="1.1" style="shape-rendering:geometricPrecision; text-rendering:geometricPrecision; image-rendering:optimizeQuality; fill-rule:evenodd; clip-rule:evenodd"
viewBox="0 0 535 180"
 xmlns:xlink="http://www.w3.org/1999/xlink">
 <defs>
  <style type="text/css">
   <![CDATA[
    .fil2 {fill:#4CFFFF;fill-rule:nonzero}
    .fil0 {fill:#4DFFFF;fill-rule:nonzero}
    .fil1 {fill:#4DFFFF;fill-rule:nonzero;fill-opacity:0.101961}
   ]]>
  </style>
 </defs>
 <g id="Слой_x0020_1">
  <metadata id="CorelCorpID_0Corel-Layer"/>
  <g id="_2192186993360">
   <polygon class="fil0" points="219,180 80,180 80,160 81,160 81,178 218,178 237,159 237,141 239,141 239,160 "/>
   <polygon class="fil0" points="242,142 234,142 234,140 242,140 "/>
   <path class="fil0" d="M81 163c-2,0 -3,-1 -3,-3 0,-1 1,-2 3,-2 1,0 2,1 2,2 0,2 -1,3 -2,3z"/>
   <polygon class="fil0" points="535,108 534,108 534,19 408,19 394,4 395,3 409,17 535,17 "/>
   <polygon class="fil0" points="535,160 516,160 516,159 534,159 534,141 535,141 "/>
   <polygon class="fil1" points="180,126 180,101 492,101 492,126 "/>
   <polygon class="fil0" points="180,126 180,101 383,101 383,126 "/>
   <g>
    <polygon class="fil1" points="146,146 15,146 15,15 146,15 "/>
    <polygon class="fil0" points="3,20 0,20 0,0 20,0 20,3 3,3 "/>
    <polygon class="fil0" points="161,20 158,20 158,3 141,3 141,0 161,0 "/>
    <polygon class="fil0" points="161,161 141,161 141,158 158,158 158,141 161,141 "/>
    <polygon class="fil0" points="20,161 0,161 0,141 3,141 3,158 20,158 "/>
    <path class="fil0" d="M123 65l-2 1c-5,3 -11,7 -13,6l-12 -6 0 -14 1 0c1,-1 4,-3 7,-5 3,-2 6,-4 8,-5 -1,-1 -3,-2 -5,-2 -3,-1 -7,-1 -10,0 -2,0 -3,0 -4,1 -7,3 -11,8 -12,14 -1,2 -2,5 -1,8 0,2 0,5 1,8 3,5 8,10 14,12 6,1 11,1 16,-1 4,-2 8,-6 11,-11 0,-1 1,-4 1,-6l0 0zm-4 -2c2,-2 3,-3 4,-3l2 -1 1 1c1,1 1,3 1,5 0,3 -1,7 -1,8l0 0 0 0c-3,6 -8,10 -14,13 -5,2 -12,3 -18,1 -8,-3 -14,-8 -16,-15 -2,-3 -2,-6 -3,-9 0,-3 1,-6 1,-10 3,-6 8,-13 16,-16 1,-1 2,-1 4,-1 4,-1 8,-1 12,0 4,0 7,2 9,5 0,0 0,0 0,1l0 1 -1 1c-2,1 -6,4 -10,7 -2,1 -4,3 -6,3l0 10 10 5c0,0 5,-4 9,-6z"/>
    <path class="fil0" d="M38 119c1,1 2,2 3,3 1,1 2,2 4,3 1,1 2,2 2,2 1,0 2,0 3,-1 2,-2 4,-3 6,-5 0,-1 1,-2 2,-3l20 -20c1,-1 3,-2 4,-3 1,-2 3,-3 4,-5l0 0c-2,-1 -4,-2 -7,-5 -3,-3 -4,-5 -5,-7 -2,1 -4,3 -5,4 -1,1 -2,2 -3,3l-5 5c-2,2 -3,4 -5,5l0 0 -15 15 0 0 0 0c-3,3 -5,5 -3,9zm0 6c-1,-1 -2,-2 -3,-4 -4,-6 -2,-9 3,-14l0 0 0 0 15 -15 0 0c2,-1 3,-3 5,-5l5 -5c1,-1 2,-2 3,-3 2,-2 5,-4 7,-6l2 -3 1 3 1 2c2,3 3,4 5,7 3,2 4,3 6,4 1,0 2,1 3,2l2 1 -2 2c-2,2 -4,5 -6,7 -2,1 -3,2 -4,3l-20 20c-1,1 -2,2 -2,3 -3,2 -4,4 -7,5 -2,2 -4,2 -5,2 -2,0 -3,-1 -5,-3 -1,-1 -3,-2 -4,-3zm13 -14c-1,0 -1,1 -1,1 0,0 0,1 0,1 0,0 0,0 0,0 1,1 1,1 2,1 0,0 1,-1 1,-1 0,-1 0,-1 0,-1 0,0 -1,0 -1,-1 0,0 0,0 -1,0zm-5 1c0,-2 1,-4 4,-5 2,-1 4,0 6,2 0,0 0,1 1,2 0,1 0,1 0,2 0,2 -2,4 -4,5 -3,0 -5,0 -6,-2 0,-1 -1,-1 -1,-2 0,-1 0,-2 0,-2z"/>
   </g>
   <polygon class="fil2" points="186,81 186,64 180,64 180,62 195,62 195,64 189,64 189,81 "/>
   <polygon id="1" class="fil2" points="197,81 197,62 210,62 210,64 199,64 199,70 209,70 209,72 199,72 199,78 211,78 211,81 "/>
   <path id="2" class="fil2" d="M212 81l7 -10 -6 -9 3 0 3 5c1,1 1,2 2,2 0,0 0,-1 1,-2l4 -5 2 0 -6 9 7 10 -3 0 -5 -7c0,0 0,-1 -1,-1 0,1 0,1 0,1l-5 7 -3 0z"/>
   <polygon id="3" class="fil2" points="231,81 231,62 233,62 233,70 243,70 243,62 245,62 245,81 243,81 243,72 233,72 233,81 "/>
   <polygon id="4" class="fil2" points="249,62 251,62 251,77 261,62 263,62 263,81 261,81 261,66 252,81 249,81 "/>
   <path id="5" class="fil2" d="M267 62l3 0 0 8c1,0 2,0 2,0 1,-1 1,-2 2,-3 0,-2 1,-2 1,-3 0,0 1,-1 1,-1 1,0 2,-1 2,-1 1,0 2,0 2,0l0 2c0,0 0,0 -1,0 0,0 0,0 0,0 -1,0 -1,1 -2,1 0,0 -1,1 -1,2 -1,2 -1,3 -2,3 0,1 -1,1 -1,1 1,1 2,2 3,3l4 7 -3 0 -3 -5c-1,-2 -1,-3 -2,-3 -1,-1 -1,-1 -2,-1l0 9 -3 0 0 -19z"/>
   <polygon id="6" class="fil2" points="291,81 291,53 311,53 311,56 295,56 295,65 310,65 310,68 295,68 295,77 312,77 312,81 "/>
   <path id="7" class="fil2" d="M317 81l0 -28 12 0c2,0 4,1 5,1 1,1 2,1 3,3 1,1 1,2 1,4 0,2 0,3 -2,5 -1,1 -3,2 -5,2 1,1 1,1 2,1 1,1 2,3 3,4l4 8 -4 0 -4 -6c-1,-2 -2,-3 -2,-4 -1,-1 -1,-1 -2,-2 -1,0 -1,0 -2,0 0,-1 -1,-1 -2,-1l-4 0 0 13 -3 0zm3 -16l8 0c2,0 3,0 4,0 1,-1 1,-1 2,-2 0,-1 1,-1 1,-2 0,-2 -1,-3 -2,-3 -1,-1 -2,-2 -4,-2l-9 0 0 9z"/>
   <polygon id="8" class="fil2" points="342,72 342,69 353,69 353,72 "/>
   <path id="9" class="fil2" d="M373 77l0 4 -18 0c0,-1 0,-2 0,-3 1,-1 1,-2 2,-3 1,-2 3,-3 5,-5 3,-2 5,-4 6,-5 1,-2 1,-3 1,-4 0,-2 0,-3 -1,-4 -1,-1 -2,-1 -4,-1 -1,0 -3,0 -4,1 -1,1 -1,3 -1,4l-4 0c1,-3 2,-4 3,-6 2,-1 4,-2 6,-2 3,0 5,1 6,2 2,2 3,4 3,6 0,1 0,2 -1,3 0,1 -1,2 -2,3 -1,1 -3,3 -5,5 -2,2 -4,3 -4,4 -1,0 -1,1 -2,1l14 0z"/>
   <path id="10" class="fil2" d="M390 78c-1,1 -2,2 -3,2 -2,1 -3,1 -4,1 -2,0 -4,-1 -5,-2 -1,-1 -2,-2 -2,-4 0,-1 0,-2 1,-2 0,-1 1,-2 2,-2 0,-1 1,-1 2,-1 1,-1 2,-1 3,-1 3,0 5,-1 6,-1 0,0 0,-1 0,-1 0,-1 0,-2 -1,-3 -1,0 -2,-1 -4,-1 -1,0 -3,0 -3,1 -1,1 -2,1 -2,3l-3 -1c0,-1 1,-2 1,-3 1,-1 2,-1 3,-2 1,0 3,-1 5,-1 1,0 3,1 4,1 1,0 2,1 2,1 1,1 1,2 1,3 0,0 0,1 0,3l0 4c0,3 0,5 1,6 0,1 0,2 0,3l-3 0c-1,-1 -1,-2 -1,-3zm0 -7c-1,0 -3,1 -6,1 -1,0 -2,0 -2,1 -1,0 -1,0 -2,1 0,0 0,1 0,1 0,1 0,2 1,2 0,1 1,1 3,1 1,0 2,0 3,-1 1,0 2,-1 2,-2 1,-1 1,-2 1,-3l0 -1z"/>
  </g>
 </g>
</svg>
